<svg width="86" height="81" viewBox="0 0 86 81" fill="none" xmlns="http://www.w3.org/2000/svg">
<path d="M84.19 30.3C84.19 32.17 84.17 35.33 83.04 36.91C82.51 37.66 81.73 37.51 81.46 36.67C80.4 38.48 79.4 40.16 77.86 41.61C77.54 41.91 76.39 42.67 76.29 43.02C76.22 43.27 76.26 43.83 76.29 44.12C76.46 46.11 77.27 48.33 77.5 50.42C77.56 50.99 77.73 52.3 77.5 52.76C77.23 53.3 76.68 53.11 76.18 53.13C76.39 55.19 76.28 57.48 75.82 59.5C75.64 60.31 75.51 61.35 74.43 61.25C74.59 62.02 74.48 65.34 74.89 65.77C75.03 65.91 76.68 66.41 77.06 66.58C78.24 67.09 79.79 67.99 80.64 68.96C81.49 69.93 81.23 69.79 82.37 70.52C83.18 71.04 84.9 72.63 84.56 73.69C84.53 73.78 84.47 73.87 84.4 73.94C83.3 74.89 81.56 71.64 80.39 73.43C80.16 73.77 80.65 74.32 80.79 74.69C81.04 75.4 81.34 76.89 80.23 76.95C79.39 77 78.61 74.87 77.69 74.95C77.33 74.98 76.55 75.52 76.09 75.55C75.9 75.84 76.75 77.48 75.97 78.05C75.14 78.66 74.51 77.16 74.07 76.77C73.18 75.97 71.98 76.33 70.88 76.26C64.41 75.85 63.09 73.09 60.39 67.94C58.86 65.01 57.46 62 56.26 58.92C56.1 58.5 55.33 56.01 55.2 55.92C54.99 55.77 52.92 56.61 53.26 54.99C50.83 55.72 48.34 56.24 45.83 56.63C45.6 56.75 44.82 61.14 44.75 61.74C44.51 63.6 44.26 65.54 44.84 67.36C47.09 68.27 49.41 69.64 50.48 71.92C50.63 72.24 50.76 72.92 50.9 73.12C51.03 73.3 52.28 74.11 52.7 74.64C53.29 75.39 54.59 77.98 52.7 77.72C51.85 77.6 50.65 75.43 49.67 75.7C49.49 75.75 48.15 76.34 48.14 76.42C48.69 77.14 49.46 79.86 47.88 79.66C46.95 79.54 46.54 77.45 45.32 77.51C45.16 77.51 44.11 77.74 44.06 77.81C44.22 78.45 44.61 79.86 43.81 80.23C42.83 80.68 42.24 78.48 41.34 78.18C41.17 78.12 39.64 78.26 39.23 78.24C34.74 78 31.43 76.13 29.93 71.82C28.26 67.01 27.86 61.47 27.06 56.45C25.54 56.95 25.89 55.31 25.5 54.83C25.43 54.74 24.23 54.43 24.1 54.51C24.01 54.56 23.48 56.11 23.35 56.38C21.94 59.35 19.99 62.24 17.2 64.05C18.37 65.07 19.93 65.61 20.67 67.11C20.92 67.61 21 68.39 21.27 68.77C21.54 69.15 22.34 69.66 22.71 70.11C23.26 70.78 24.53 73.14 22.91 73.1C21.87 73.07 21.14 71.04 20.06 71.26C19.84 71.3 19.62 71.55 19.37 71.55C19.66 72.23 20.3 73.92 19.57 74.48C18.69 75.16 18.04 73.42 17.57 72.99C16.83 72.3 16.42 72.79 15.56 72.9C15.6 73.32 15.87 74.77 15.39 74.94C14.34 75.3 14.15 73.99 13.51 73.46C12.77 72.85 12.02 73.03 11.12 72.86C8.90002 72.44 6.33003 71.68 4.35003 70.58C-1.09997 67.55 2.42003 62.97 3.00003 58.44C3.40003 55.28 2.08003 52.27 2.07003 49.11C1.89003 48.73 1.75003 49.26 1.50003 49.34C0.400028 49.66 0.270032 47.41 0.230032 46.74C0.0900318 44.36 0.270029 41.81 0.680029 39.47C0.920029 38.06 1.34003 36.68 1.56003 35.28C-0.179974 34.93 0.360028 33.47 0.750028 32.24C1.67003 29.3 3.54003 26.53 5.27003 24.02C5.37003 23.76 4.72003 23.9 4.52003 23.85C4.05003 23.71 3.99003 23.08 4.12003 22.67C4.62003 21.09 8.79003 17.54 10.22 16.43C15.91 12.01 21.9 9.90996 28.61 7.57996C28.8 7.50996 29.33 7.51996 28.87 7.30996C28.3 7.04996 27.77 7.24996 27.88 6.33996C27.95 5.71996 29.2 5.13996 29.74 4.90996C30.7 4.48996 31.78 4.18996 32.82 4.02996C31.88 3.09996 32.31 2.57996 33.37 2.15996C35.27 1.39996 37.42 1.69996 39.4 1.76996C38.73 0.0399644 40.73 0.379956 41.8 0.479956C44.09 0.679956 47.63 1.63996 49.72 2.60996C50.08 2.77996 51.09 3.44996 51.3 3.49996C51.75 3.59996 52.05 3.40995 52.4 3.42995C54.83 3.53995 57.86 4.47996 60.04 5.55996C60.86 5.96996 63.07 7.56996 63.67 7.68996C63.91 7.73996 64.5 7.60996 64.86 7.62996C66.44 7.72996 68 7.95995 69.51 8.42995C69.98 8.56995 71.14 9.13995 71.45 9.17995C72.03 9.23995 72.34 8.61996 72.72 8.30996C73.39 7.75996 74.03 7.25996 74.85 6.94996C79.67 5.09996 82.86 9.92996 81.09 14.22C80.89 14.71 80.14 15.65 80.24 16.09C82.58 19.78 85.28 24.48 85.46 28.97C85.5 29.93 85.39 30.69 84.23 30.36L84.19 30.3ZM25.39 50.14C25.42 49.35 25.41 48.57 25.49 47.78C23.98 47.78 24.1 46.87 24.16 45.66C24.24 43.93 25.43 38.04 26.54 36.84C26.92 36.43 27.34 36.25 27.61 36.87L25.8 44.94L25.95 45.09C26.19 44.48 27.02 44.31 27.12 45.05C27.3 46.31 26.77 48.32 26.82 49.67V53.43C26.9 53.51 28.18 52.47 28.36 53.59C28.52 54.58 28.46 55.84 28.57 56.87C29.02 60.9 30.35 71.34 32.79 74.34C34.22 76.11 38.05 76.61 40.19 76.55C40.16 76.25 39.87 76.06 39.8 75.76C39.53 74.43 40.71 74.29 41.64 74.84C42.57 75.39 42.8 76.77 44.04 76.24C44.68 75.97 43.96 75.46 43.79 75.05C43.29 73.79 44.42 73.33 45.44 73.92C46.02 74.25 46.24 74.81 46.62 75.31C46.89 75.16 48.36 74.74 48.41 74.55C48.46 74.33 47.5 74.11 47.5 73.32C47.5 72.53 48.32 72.5 48.93 72.45C49.08 72.3 48.53 71.62 48.41 71.48C47.58 70.45 46.09 69.58 44.88 69.04C44.44 68.84 43.29 68.62 43.12 68.23C42.91 67.77 43.25 67.57 43.26 67.26C43.27 66.95 43.08 66.48 43.06 66.13C42.93 62.69 43.76 58.39 44.63 55.05C45.08 53.34 45.81 50.41 46.47 48.88C46.93 47.83 48.11 47.5 47.98 48.85C47.83 50.35 46.71 52.59 46.3 54.16C46.22 54.46 46.11 54.76 46.15 55.08C48.66 54.43 51.29 54.09 53.71 53.13C53.96 53.03 54.28 52.93 54.51 52.8C54.91 52.58 55.93 51.43 56.3 51.82C56.65 52.18 56.01 53.11 55.79 53.47C55.67 53.67 54.98 54.36 55.53 54.24C57.51 53.8 59.73 51.56 61.46 50.51C61.85 50.31 62.4 50.56 62.38 51.01C62.34 52.1 59.33 53.69 58.4 54.24C58.11 54.42 56.83 55.01 56.72 55.13C56.63 55.22 56.59 55.3 56.62 55.43C57.81 58.7 59.13 61.95 60.64 65.09C61.65 67.19 63.06 70.23 64.31 72.11C65.67 74.17 67.34 74.35 69.64 74.69C70.06 74.75 72.16 75.08 72.35 74.81C71.79 73.88 71.57 72.7 73.1 72.99C74.03 73.16 74.44 74.31 74.68 74.39C74.9 74.46 76.06 74.09 76.25 73.94C76.42 73.8 76.31 73.84 76.25 73.73C76.12 73.47 75.81 73.27 75.71 73.04C75.09 71.68 76.25 71.14 77.43 71.62C78.22 71.94 78.39 72.76 79.33 72.39C80.74 71.84 78.65 71.79 78.51 71.05C78.35 70.18 79.1 70.18 79.74 70.08C78.66 68.99 77.04 68.02 75.58 67.51C75.05 67.33 74.09 67.21 73.7 67.02C73.12 66.74 73.57 66.41 73.58 66.02C73.59 65.42 73.23 64.09 73.16 63.34C73.08 62.55 72.98 61.55 72.95 60.78C72.93 60.23 72.76 59.1 73.44 59C73.98 58.92 74.18 59.65 74.47 58.69C74.9 57.26 74.84 54.79 74.81 53.27C74.79 52.12 74.14 49.91 76.14 51.17L74.91 43.98C73.95 44.7 72.71 45.16 71.73 45.79C70.97 46.28 70.35 47.09 69.55 47.62C67.58 48.94 66.27 49.03 64.03 48.33C61.43 47.51 57.29 45.66 54.93 44.27C54.48 44.01 53.15 42.95 52.83 42.87C52.39 42.76 52.38 43.26 51.83 43.27C50.11 43.3 48.46 40.08 48.08 38.64C46.25 40.16 45.63 38.65 45.1 37.05C44.69 35.81 44.44 34.5 44.38 33.19C43.72 33.76 42.49 34.21 42.19 33.07C41.71 31.24 42.45 29.32 42.84 27.54C40.48 28.33 40.73 26.46 41.25 24.87C42.04 22.46 43.67 20.68 45.21 18.75C45.21 18.58 44.72 18.3 44.54 18.08C42.26 15.09 42.31 11.25 45.26 8.73997C47.35 6.95997 50.72 7.31996 52.7 9.10996C52.94 9.31996 53.37 10.05 53.69 10.08C56.01 8.84996 58.65 8.35996 61.24 8.01996C58.96 6.36996 56.18 5.42996 53.43 4.93996C53.38 5.53996 54.5 6.12996 54.05 6.74996C53.77 7.13996 53.43 6.91996 53.13 6.72996C51.51 5.72996 50.63 4.67996 48.7 3.86996C47.17 3.21996 43.46 2.05997 41.87 1.95997C41.75 1.95997 41.65 1.95996 41.72 2.10996C41.8 2.29996 42.38 2.69995 42.54 2.92995C42.79 3.28995 42.94 4.00996 42.38 4.10996C41.82 4.20996 40.27 3.55996 39.56 3.43996C38.81 3.30996 35.15 2.94995 34.72 3.39995C34.57 3.55995 34.77 3.57997 34.85 3.62997C35.42 3.99997 36.49 4.24995 35.7 5.14995L30.81 6.16996C30.63 6.35996 31.68 6.74997 31.83 6.84997C32.41 7.20997 32.97 7.68996 32.24 8.26996C23.59 10.29 15.09 13.72 8.50003 19.79C7.76003 20.48 6.89003 21.25 6.39003 22.1C6.92003 21.58 8.80004 21.39 8.46004 22.52C8.39004 22.75 6.95002 24.25 6.65002 24.63C5.05002 26.68 3.32003 29.3 2.31003 31.7C2.25003 31.84 1.56003 33.52 1.87003 33.52C2.34003 33.22 3.65003 32.71 3.66003 33.67C3.66003 34.04 2.93003 35.9 2.77003 36.48C2.20003 38.63 1.72003 41.01 1.61003 43.23C1.59003 43.65 1.56003 46.18 1.66003 46.37C1.80003 46.63 2.19003 45.89 2.32003 45.8C2.66003 45.55 3.25003 45.57 3.33003 46.03C3.45003 47.7 3.41003 49.38 3.56003 51.05C3.79003 53.48 4.57003 55.63 4.38003 58.14C4.16003 61.02 2.26003 64.25 2.64003 67.07C2.84003 68.56 4.24003 69.27 5.44003 69.82C7.44003 70.74 9.80002 71.44 11.98 71.65C12.11 71.54 10.65 69.42 12.63 69.82C13.69 70.04 14.03 71.8 14.2 71.84L15.89 71.44C16 71.32 15.43 70.66 15.36 70.48C14.64 68.82 16.16 68.75 17.18 69.69C17.98 70.42 17.74 70.87 19.08 70.05C19.15 69.77 18.23 69.66 18.36 68.72C18.47 67.93 19.2 68.17 19.79 68.15C20.22 67.72 17.79 66.03 17.43 65.83C17 65.6 16.31 65.33 15.84 65.16C14.94 64.83 14.01 64.94 15.22 63.83C16.5 62.66 17.66 62.01 18.86 60.59C20.6 58.52 21.78 56.06 22.67 53.52C20.63 52.16 19.1 50.33 18.12 48.07C17.95 47.68 17.24 45.46 17.11 45.37C16.9 45.22 16.23 45.66 15.76 45.18C15.4 44.81 15.08 42.3 15.05 41.68C14.99 40.66 15 36.93 15.52 36.19C15.8 35.79 16.25 35.58 16.53 36.09C16.83 36.63 16.4 38.58 16.38 39.32C16.37 39.7 16.46 42.32 16.54 42.46C16.64 42.65 16.71 42.48 16.8 42.41C17.15 42.13 17.53 41.38 18.04 41.89C18.32 42.17 18.28 43.53 18.36 44.04C18.77 46.64 19.94 49.58 22 51.3C22.39 51.62 24.8 53.17 25.13 53.15C25.28 53.15 25.22 53.01 25.23 52.89C25.31 52.01 25.29 51.05 25.33 50.16L25.39 50.14ZM76.35 7.91996C75.88 7.95996 75.05 8.32996 74.63 8.57996C74.38 8.72996 73.45 9.40997 73.29 9.59997C73.2 9.69997 73.14 9.73995 73.19 9.89995C73.23 10.02 75.17 11.09 75.29 11.09C75.48 11.09 76.16 10.18 76.86 10.08C77.6 9.96996 79.19 10.66 78.47 11.49C78 12.04 77.13 11.13 76.83 11.81C76.61 12.3 77.82 13.09 78.17 13.45C78.32 13.6 79.02 14.58 79.09 14.58C80.32 13.02 80.42 10.83 79.18 9.24996C78.58 8.47996 77.32 7.83995 76.34 7.92995L76.35 7.91996ZM67.64 22.8C67.7 22.77 67.76 22.61 67.88 22.57C69.61 21.84 71.38 22.43 73.19 22.29C72.88 21.37 72.76 20.34 73.81 19.87C75.84 18.96 76.19 21.97 74.76 22.26C74.51 22.31 74.23 22.23 74.01 22.33C74.86 22.96 75.97 22.57 77.06 22.88C80.46 23.86 80.94 26.92 79.72 29.88C79.24 31.03 78.4 31.33 77.9 32.17C77.1 33.53 76.51 37.17 74.48 37.38C73.04 37.53 73.35 36.37 72.53 35.84C72.16 35.6 71.6 35.51 71.24 35.78C70.49 36.33 70.18 38.57 70.43 39.44C70.96 39.3 71.52 39.13 72.08 39.28C74.02 40.38 72.73 42.56 72.08 44.06C72.26 44.1 72.38 44.01 72.53 43.94C74.47 43.01 77.21 40.63 78.48 38.89C79.25 37.84 80.52 35.23 81.33 34.55C81.97 34.02 82.04 34.5 82.67 34.6C82.9 34.4 82.91 31.34 82.88 30.84C82.84 30.22 82.41 28.81 82.46 28.38C82.49 28.14 82.77 27.9 83.02 27.91C83.4 27.93 83.63 28.39 84 28.43C84.35 28.04 83.09 24.51 82.85 23.88C78.34 12.37 69.5 6.56996 57.08 10.19C56.6 10.33 54.53 11 54.42 11.44C54.37 11.66 54.74 12.52 54.03 12.58C53.58 12.62 52.73 11.21 52.4 10.85C50.93 9.20997 49.82 8.84995 47.58 9.11996C43.98 9.54996 43.17 15.43 45.92 17.43C46.38 17.76 47.3 17.71 47.3 18.3C47.3 18.58 45.48 20.54 45.15 20.98C44.04 22.45 42.91 24.21 42.37 25.96C42.52 26.11 44.82 24.39 44.94 25.71C44.96 25.96 44.31 27.47 44.17 27.91C43.79 29.14 43.46 30.53 43.5 31.82C43.61 31.95 45 30.64 45.5 30.69C46.2 30.75 45.75 32.44 45.75 32.9C45.76 33.98 46.07 35.92 46.64 36.85C46.96 37.37 47.07 36.55 47.21 36.31C47.43 35.94 48 35.23 48.49 35.61C48.67 35.75 49.73 39.16 50.06 39.8C50.22 40.12 51.05 41.41 51.31 41.53C52.06 41.88 51.47 39.88 52.52 40.31C52.66 40.37 53.13 41.19 53.37 41.43C55.34 43.4 58.38 44.28 60.88 45.28C63.77 46.44 65.89 48.38 68.99 46.35C69.43 46.06 70.73 44.91 70.75 44.41C70.76 44.15 69.8 44.07 69.56 44.05C67.33 43.89 65.34 44.31 63.2 43.21C58.17 40.64 59.16 24.42 68.24 29.33C69.48 30 71.27 31.43 72.73 31.39C73.21 31.38 73.94 30.94 74.27 30.99C74.65 31.04 74.95 31.64 75.51 31.6C75.71 31.59 76.6 31.1 76.83 30.97C77.89 30.35 78.89 29.44 78.85 28.11C78.79 28.05 77.31 28.31 77.21 28.37C76.89 28.53 76.68 29.73 76.23 30.17C75.07 31.31 73.61 30.69 73.09 29.3C73 29.06 72.93 28.44 72.84 28.32C72.77 28.23 71.77 28.03 71.46 27.85C70.46 27.3 70.35 26.14 70.68 25.14L71.76 23.6C70.44 23.37 69.09 23.4 67.75 23.29L67.65 23.08C67.67 22.99 67.64 22.87 67.65 22.77L67.64 22.8ZM77.5 24.96C77.47 24.78 77.29 24.78 77.17 24.73C76.31 24.35 74.59 24.07 73.7 24.4C72.81 24.73 73.9 25.26 74.63 25.02C74.89 24.94 74.92 24.7 75.29 24.65C76.01 24.55 76.81 24.83 77.51 24.96H77.5ZM66.3 33.59C67.45 33.48 67.93 32 68.54 31.17C68.52 30.93 66.47 29.71 66.1 29.58L66.3 33.59ZM69.39 34C69.59 34.23 70.94 32.61 70.93 32.31L69.18 31.43C69.38 32.27 69.4 33.14 69.39 34ZM61.98 32.67C61.98 32.67 61.84 32.63 61.78 32.74C61.07 33.93 61.42 38.19 62.04 39.45C62.1 39.56 62.13 39.68 62.25 39.76C62.74 38.94 63.74 37.92 64.8 38.24C65.14 38.34 65.59 39.91 65.69 40.31C66.22 40.78 66.49 40.44 67.08 40.38C67.87 40.3 68.48 40.73 68.57 39.72C68.62 39.21 67.98 35.22 67.74 35.04C67.32 35.28 66.34 34.99 66.04 35.24C65.85 35.39 65.71 36.48 65.56 36.82C65.49 36.98 64.97 37.85 64.82 37.82C64.54 37.76 64.77 36.94 64.76 36.65C64.66 34.95 63.9 34.36 62.77 33.4C62.63 33.28 62.49 32.93 62.41 32.89C62.39 32.67 62.35 32.21 62.1 32.43C62.02 32.49 62.03 32.66 62 32.69L61.98 32.67ZM76.27 32.87C76.27 32.87 75.44 33.11 75.2 33.08C74.92 33.04 74.4 32.51 74.11 32.41C73.79 32.3 74.02 32.86 74.02 33.03C73.99 33.68 73.9 34.31 74.02 34.98C74.28 36.41 74.69 35.8 75.25 34.99C75.44 34.72 76.45 33.07 76.27 32.88V32.87ZM73.39 33.08C73.42 33 73.52 32.7 73.49 32.67H72.05C72.05 32.67 72.05 32.59 72 32.57L71.23 32.52C71.43 32.89 71.93 34.41 72.33 34.52C72.73 34.63 73.27 33.41 73.39 33.09V33.08ZM64.24 39.66C63.72 39.23 62.8 41.36 63.63 42.07C63.78 42.19 64.77 42.63 64.86 42.53C64.8 42.15 64.38 39.78 64.24 39.66ZM71.65 40.79C71.37 40.48 69.91 42.6 69.84 42.84C69.73 43.23 70.65 43.36 70.88 43.16C70.95 43.1 71.57 41.95 71.6 41.83C71.69 41.49 71.64 41.14 71.65 40.8V40.79ZM67.23 41.61C67.12 41.49 65.59 42.48 65.48 42.74L68.56 42.95L68.46 41.61C67.71 42.02 67.28 43.76 67.23 41.61Z" fill="#1F1F14"/>
<path d="M25.1901 53.1199C24.8601 53.1299 22.44 51.5899 22.06 51.2699C20.01 49.5499 18.83 46.6099 18.42 44.0099C18.34 43.4999 18.3801 42.1399 18.1001 41.8599C17.5901 41.3499 17.2101 42.0999 16.8601 42.3799C16.7701 42.4499 16.7101 42.6199 16.6001 42.4299C16.5201 42.2899 16.4301 39.6699 16.4401 39.2899C16.4601 38.5599 16.89 36.6099 16.59 36.0599C16.31 35.5499 15.8501 35.7599 15.5801 36.1599C15.0701 36.8999 15.0501 40.6299 15.1101 41.6499C15.1501 42.2699 15.4601 44.7799 15.8201 45.1499C16.2901 45.6299 16.9501 45.1899 17.1701 45.3399C17.3001 45.4299 18.01 47.6399 18.18 48.0399C19.15 50.2999 20.69 52.1199 22.73 53.4899C21.83 56.0299 20.66 58.4999 18.92 60.5599C17.72 61.9799 16.5601 62.6299 15.2801 63.7999C14.0701 64.9099 15 64.7999 15.9 65.1299C16.37 65.2999 17.0601 65.5699 17.4901 65.7999C17.8501 65.9899 20.2801 67.6899 19.8501 68.1199C19.2501 68.1499 18.5301 67.8999 18.42 68.6899C18.2801 69.6299 19.2001 69.7399 19.1401 70.0199C17.8101 70.8399 18.0401 70.3899 17.2401 69.6599C16.2201 68.7199 14.7001 68.7999 15.4201 70.4499C15.5001 70.6199 16.06 71.2899 15.95 71.4099L14.26 71.8099C14.09 71.7699 13.7501 70.0099 12.6901 69.7899C10.7101 69.3799 12.17 71.4999 12.04 71.6199C9.85005 71.4099 7.50005 70.7099 5.50005 69.7899C4.30005 69.2399 2.90005 68.5299 2.70005 67.0399C2.31005 64.2199 4.22005 60.9899 4.44005 58.1099C4.63005 55.5999 3.85005 53.4499 3.62006 51.0199C3.47006 49.3599 3.51005 47.6699 3.39005 45.9999C3.31005 45.5399 2.72005 45.5199 2.38005 45.7699C2.25005 45.8699 1.86005 46.5999 1.72005 46.3399C1.62005 46.1499 1.64005 43.6199 1.67005 43.1999C1.78005 40.9799 2.26005 38.5999 2.83005 36.4499C2.98005 35.8799 3.72005 34.0099 3.72005 33.6399C3.71005 32.6799 2.41005 33.1899 1.93005 33.4899C1.62005 33.4899 2.31006 31.8099 2.37006 31.6699C3.38006 29.2699 5.10006 26.6499 6.71006 24.5999C7.00006 24.2299 8.44006 22.7299 8.52006 22.4899C8.87006 21.3699 6.98005 21.5499 6.45005 22.0699C6.94005 21.2099 7.81005 20.4399 8.56005 19.7599C15.1501 13.6899 23.6501 10.2599 32.3001 8.23991C33.0301 7.65991 32.4701 7.17992 31.8901 6.81992C31.7401 6.71992 30.69 6.32991 30.87 6.13991L35.76 5.1199C36.55 4.2199 35.4801 3.95991 34.9101 3.59991C34.8301 3.54991 34.6301 3.5299 34.7801 3.3699C35.2001 2.9299 38.87 3.27991 39.62 3.40991C40.32 3.53991 41.8701 4.17991 42.4401 4.07991C43.0101 3.97991 42.8501 3.2599 42.6001 2.8999C42.4401 2.6699 41.8601 2.25991 41.7801 2.07991C41.7201 1.92991 41.81 1.9199 41.93 1.9299C43.52 2.0299 47.23 3.1899 48.76 3.8399C50.69 4.6599 51.5801 5.70991 53.1901 6.69991C53.5001 6.88991 53.8301 7.10991 54.1101 6.71991C54.5601 6.09991 53.4301 5.51991 53.4901 4.90991C56.2401 5.39991 59.0201 6.33991 61.3001 7.98991C58.7101 8.32991 56.0701 8.81991 53.7501 10.0499C53.4301 10.0199 52.99 9.28991 52.76 9.07991C50.78 7.28991 47.4101 6.92992 45.3201 8.70992C42.3801 11.2199 42.3301 15.0699 44.6001 18.0499C44.7701 18.2799 45.2701 18.5499 45.2701 18.7199C43.7301 20.6599 42.1001 22.4299 41.3101 24.8399C40.7901 26.4299 40.54 28.2999 42.9 27.5099C42.51 29.2899 41.7701 31.2099 42.2501 33.0399C42.5501 34.1899 43.7801 33.7299 44.4401 33.1599C44.5001 34.4699 44.7501 35.7799 45.1601 37.0199C45.6901 38.6199 46.3101 40.1299 48.1401 38.6099C48.5301 40.0499 50.1701 43.2799 51.8901 43.2399C52.4401 43.2299 52.4501 42.7299 52.8901 42.8399C53.2101 42.9199 54.5501 43.9799 54.9901 44.2399C57.3501 45.6199 61.4901 47.4799 64.09 48.2999C66.33 48.9999 67.6301 48.9199 69.6101 47.5899C70.4101 47.0599 71.0201 46.2499 71.79 45.7599C72.7701 45.1299 74.0101 44.6799 74.9701 43.9499L76.2001 51.1399C74.2001 49.8799 74.8501 52.0899 74.87 53.2399C74.9 54.7599 74.9601 57.2299 74.5301 58.6599C74.2401 59.6099 74.0401 58.8799 73.5001 58.9699C72.8201 59.0699 72.9901 60.1999 73.01 60.7499C73.04 61.5299 73.1401 62.5199 73.2201 63.3099C73.2901 64.0499 73.66 65.3799 73.6401 65.9899C73.6401 66.3799 73.18 66.7099 73.76 66.9899C74.15 67.1799 75.1101 67.2899 75.6401 67.4799C77.1001 67.9899 78.7201 68.9599 79.8001 70.0499C79.1501 70.1499 78.4001 70.1599 78.5701 71.0199C78.7101 71.7499 80.8001 71.8099 79.3901 72.3599C78.4601 72.7299 78.2801 71.9099 77.4901 71.5899C76.3101 71.1099 75.1501 71.6499 75.7701 73.0099C75.8701 73.2399 76.1801 73.4399 76.3101 73.6999C76.3601 73.8099 76.48 73.7699 76.3101 73.9099C76.12 74.0699 74.9601 74.4299 74.7401 74.3599C74.5001 74.2799 74.0801 73.1299 73.1601 72.9599C71.6401 72.6799 71.8601 73.8499 72.4101 74.7799C72.2201 75.0499 70.12 74.7199 69.7001 74.6599C67.4 74.3199 65.73 74.1299 64.37 72.0799C63.12 70.1899 61.71 67.1499 60.7001 65.0599C59.1901 61.9199 57.87 58.6699 56.68 55.3999C56.65 55.2699 56.6901 55.1999 56.7801 55.0999C56.8901 54.9799 58.1601 54.3799 58.4601 54.2099C59.3801 53.6599 62.4001 52.0699 62.4401 50.9799C62.4501 50.5399 61.9101 50.2799 61.5201 50.4799C59.7901 51.5299 57.5601 53.7599 55.59 54.2099C55.0401 54.3299 55.7301 53.6399 55.8501 53.4399C56.0601 53.0799 56.7001 52.1499 56.3601 51.7899C55.9901 51.4099 54.9701 52.5499 54.5701 52.7699C54.3401 52.8999 54.0201 52.9999 53.7701 53.0999C51.3501 54.0599 48.7201 54.3999 46.2101 55.0499C46.1801 54.7299 46.2801 54.4299 46.3601 54.1299C46.7701 52.5599 47.9 50.3299 48.04 48.8199C48.17 47.4699 46.9901 47.7999 46.5301 48.8499C45.8601 50.3899 45.1301 53.3199 44.6901 55.0199C43.8101 58.3599 42.98 62.6599 43.12 66.0999C43.13 66.4499 43.3301 66.9399 43.3201 67.2299C43.3101 67.5199 42.97 67.7399 43.18 68.1999C43.36 68.5799 44.5001 68.8099 44.9401 69.0099C46.1401 69.5399 47.6301 70.4199 48.4701 71.4499C48.5901 71.5899 49.1401 72.2699 48.9901 72.4199C48.3801 72.4699 47.5601 72.4899 47.5601 73.2899C47.5601 74.0899 48.5201 74.2999 48.4701 74.5199C48.4201 74.7199 46.95 75.1399 46.68 75.2799C46.3 74.7799 46.0801 74.2199 45.5001 73.8899C44.4901 73.3099 43.3501 73.7699 43.8501 75.0199C44.0101 75.4299 44.7401 75.9399 44.1001 76.2099C42.8601 76.7299 42.62 75.3599 41.7001 74.8099C40.7801 74.2599 39.5801 74.3999 39.8601 75.7299C39.9201 76.0399 40.2101 76.2199 40.2501 76.5199C38.1101 76.5799 34.2901 76.0799 32.8501 74.3099C30.4201 71.3099 29.0801 60.8699 28.6301 56.8399C28.5201 55.7999 28.58 54.5399 28.42 53.5599C28.24 52.4399 26.9601 53.4799 26.8801 53.3999V49.6399C26.8301 48.2899 27.36 46.2899 27.18 45.0199C27.07 44.2899 26.25 44.4599 26.01 45.0599L25.8601 44.9099L27.67 36.8399C27.4 36.2099 26.9801 36.3899 26.6001 36.8099C25.4901 38.0099 24.3001 43.8999 24.2201 45.6299C24.1601 46.8399 24.0501 47.7499 25.5501 47.7499C25.4801 48.5299 25.49 49.3199 25.45 50.1099C25.14 50.0499 25.2501 50.2699 25.2401 50.4699C25.2101 51.3399 25.2701 52.2199 25.2401 53.0999L25.1901 53.1199ZM38.84 8.43991C38.34 8.45991 36.5 8.76991 36.09 8.98991C35.4001 9.34991 35.37 10.5099 36.23 10.4799C37.01 10.4499 39.5901 10.1299 40.2201 9.8399C40.7401 9.5899 40.8901 9.04991 40.4101 8.66991C40.1701 8.47991 39.21 8.43991 38.84 8.44991V8.43991ZM27.5701 13.8799C27.5101 13.9899 27.5301 14.2799 27.5501 14.4199C27.6501 14.9399 28.0101 15.0399 28.4901 14.9699C28.9701 14.8999 31.9301 13.4999 32.2101 13.1399C32.3001 13.0199 32.46 12.7399 32.45 12.5999C32.43 12.3499 32.0601 11.7999 31.7501 11.8499C31.3101 11.9299 30.22 12.4399 29.76 12.6499C29.3 12.8599 28.61 13.1699 28.18 13.4399C28.09 13.4999 27.57 13.8599 27.56 13.8899L27.5701 13.8799ZM21.98 14.0899C21.45 14.1699 19.1501 15.3199 18.7701 15.7099C18.0801 16.3999 18.3801 17.4199 19.4401 17.0999C20.2201 16.4999 22.2401 15.9099 22.8301 15.2499C23.4601 14.5599 22.83 13.9599 21.98 14.0899ZM35.5501 15.1199C34.7101 15.1999 32.23 16.2199 31.93 17.0499C31.73 17.5899 32.1901 18.0199 32.7201 17.9499C33.2501 17.8799 35.86 16.7299 36.29 16.3699C36.87 15.8999 36.4001 15.0299 35.5501 15.1199ZM26.81 17.2699C26.19 17.3599 23.8701 18.6799 23.4401 19.1399C22.7901 19.8199 23.2901 20.6599 24.17 20.4899L27.51 18.5799C28.26 17.8499 27.8401 17.1199 26.8201 17.2599L26.81 17.2699ZM16.01 19.8399C15.52 19.9199 13.02 21.6299 12.65 22.0399C12.09 22.6499 12.8801 23.3499 13.5501 23.1499C14.4801 22.8699 15.6301 21.5399 16.6001 21.1599C17.0901 20.5999 16.87 19.6899 16.01 19.8399ZM38.2101 20.3599C37.4901 20.4699 35.7601 21.5899 35.6701 22.3399C35.5401 23.4399 36.14 23.5399 37.01 23.1699C37.44 22.9799 38.71 22.1799 39.12 21.8799C40.3 21.0199 39.4101 20.1799 38.2201 20.3599H38.2101ZM30.8201 22.0999C30.2001 22.1999 28.0401 24.0599 27.8901 24.6199C27.7601 25.1299 27.86 25.8399 28.51 25.7599C29.65 25.0299 30.61 24.0199 31.62 23.0999C31.88 22.4899 31.4601 21.9899 30.8301 22.0899L30.8201 22.0999ZM21.8201 24.7799C22.1401 24.4499 22.7901 24.4999 22.6001 23.5999C22.2801 22.1299 20.34 24.2399 19.95 24.6999C19.5 25.2299 18.74 26.5099 19.9 26.6099C20.48 26.6599 21.11 26.0099 21.43 25.5599C21.6 25.3299 21.7401 24.8599 21.8201 24.7699V24.7799ZM11.0801 24.9799C10.9601 25.0199 9.49005 26.5899 9.31005 26.8099C8.96005 27.2399 8.63005 27.5799 8.75005 28.1999C8.83005 28.6099 9.27005 28.6199 9.62005 28.5599C10.03 28.4799 11.9901 26.4899 12.1701 26.0699C12.4701 25.3799 11.78 24.7799 11.09 24.9899L11.0801 24.9799ZM14.1601 28.6899C14.0401 28.6899 13.7901 28.7599 13.6901 28.8199C13.2701 29.0499 11.53 31.5399 11.45 32.0199C11.27 33.0499 12.1801 33.2199 12.8001 32.5499C13.1101 31.7499 14.9401 30.2699 14.9201 29.5299C14.9201 29.0999 14.6301 28.6799 14.1601 28.6799V28.6899ZM31.84 28.8799C31.28 28.9899 29.74 31.1899 29.56 31.7499C29.19 32.8599 30.4001 32.8799 30.9901 32.3599C31.1601 32.2099 32.4601 30.2599 32.6101 29.9699C32.9401 29.3399 32.5 28.7499 31.84 28.8899V28.8799ZM24.5501 29.2999C24.4001 29.1499 23.9601 29.1299 23.7501 29.2299C23.3701 29.4099 22 31.5699 21.92 32.0299C21.7901 32.7799 22.2601 33.2599 22.9601 32.8599C23.1701 32.7399 24.58 30.5899 24.65 30.3399C24.71 30.1099 24.7101 29.4799 24.5501 29.3099V29.2999ZM36.5701 33.2099C36.4401 33.1499 36.2701 33.1499 36.1401 33.1799C35.9101 33.2299 34.3801 34.7799 34.1301 35.0799C33.9301 35.3299 33.29 36.1799 33.23 36.4399C32.94 37.5699 33.69 37.7399 34.54 37.2299C35.09 36.2799 36.0501 35.4999 36.6401 34.6099C36.8101 34.3499 37.06 34.0899 37.01 33.7499C37 33.6499 36.6001 33.2199 36.5701 33.2099ZM7.99006 36.8999C7.23006 37.1299 5.17005 41.1499 7.12005 40.5599C7.45005 40.4599 8.59005 38.3999 8.69005 38.0099C8.85005 37.4099 8.78006 36.6599 7.99006 36.8999ZM36.5701 39.3699C36.2501 39.4699 35.8301 40.2199 35.6601 40.5099C35.1901 41.3099 34.3501 43.0199 34.4401 43.9199C34.5101 44.6799 35.4201 44.4499 35.7801 43.9199C35.9601 43.6599 37.3201 40.7499 37.3801 40.4699C37.5001 39.9299 37.2601 39.1499 36.5701 39.3599V39.3699ZM40.48 42.1399C40.34 42.1599 40.19 42.2799 40.09 42.3799C39.8101 42.6699 38.9901 45.1299 38.9101 45.6099C38.6401 47.1799 39.64 47.2199 40.29 46.0599C40.49 45.7099 41.21 43.6499 41.29 43.2499C41.39 42.6799 41.1701 42.0099 40.4901 42.1299L40.48 42.1399ZM30.3001 42.9599C29.9701 42.9899 29.7901 43.1799 29.6601 43.4499C29.4301 43.9099 28.8301 46.1299 28.8001 46.6099C28.7801 46.9399 29.2201 47.6899 29.5701 47.7499C29.7101 47.7699 29.8801 47.5599 29.9601 47.4599C30.2501 47.1199 31.0601 44.7099 31.1301 44.2099C31.2001 43.7099 30.94 42.8899 30.29 42.9499L30.3001 42.9599ZM9.43005 45.4199C8.85005 45.5699 8.06005 48.4099 8.28005 48.8999C8.53005 49.4399 9.24006 49.4099 9.55006 48.9399C9.66006 48.7799 10.25 46.8799 10.26 46.6599C10.29 46.2599 9.87004 45.2999 9.43005 45.4199ZM35.2401 49.2299C34.9601 49.2999 34.7401 49.6099 34.6301 49.8599C34.3201 50.5599 33.8201 52.7199 34.1101 53.3999C34.2601 53.7399 34.7601 53.9599 35.0701 53.6899C35.3801 53.4199 36.0801 50.5799 36.09 50.0799C36.1 49.6999 35.6401 49.1299 35.2401 49.2299ZM13.9601 49.6399C13.7101 49.6899 13.3701 50.0499 13.2501 50.2699C12.9301 50.8599 12.5401 53.0399 12.6601 53.6799C12.7401 54.1299 13.1401 54.4099 13.5801 54.1999C13.9601 54.0199 14.5201 51.5899 14.5801 51.0899C14.6401 50.5899 14.7501 49.4899 13.9601 49.6399ZM69.5601 50.2599C69.0001 50.4499 69.4401 52.6799 69.6001 53.1699C69.7201 53.5399 70.21 54.5299 70.65 54.4499C71.04 54.3699 71.15 54.0399 71.15 53.6899C71.15 53.2299 70.7501 51.3299 70.6001 50.8399C70.4401 50.3099 70.1601 50.0599 69.5701 50.2599H69.5601ZM39.34 53.0299C38.4901 53.1599 38.1701 55.5499 38.1301 56.2499C38.1001 56.7199 38.0401 58.1299 38.3301 58.4199C38.8201 58.9099 39.3601 58.4199 39.5701 57.8999C39.8001 57.3399 39.94 55.6899 39.98 55.0199C40.01 54.4899 40.21 52.8999 39.34 53.0299ZM17.65 54.0699C17.42 54.1399 16.7001 55.6499 16.5701 55.9699C16.3401 56.5299 15.7601 58.0999 16.3901 58.4799C16.9301 58.7999 17.4101 58.3499 17.6601 57.8899C18.0201 57.2199 19.5 53.4999 17.65 54.0699ZM65.9101 59.3699C66.3101 59.5999 66.6501 59.0999 66.7401 58.7599C66.9001 58.2099 66.5901 56.1499 66.3201 55.6199C66.0501 55.0899 65.1601 54.9899 65.0701 55.7499C65.0501 55.9399 65.1401 56.9199 65.1701 57.1799C65.2201 57.6199 65.5401 59.1599 65.9101 59.3699ZM61.8001 59.9899C61.9201 60.0599 62.12 59.9099 62.26 59.9099C62.5 59.9099 62.8 60.1399 62.9 59.8299C63.05 59.3799 62.4901 56.5299 62.09 56.2499C61.48 55.8199 61.0501 56.4299 61.0601 57.0699C61.07 57.5099 61.3001 58.8499 61.4201 59.2899C61.4501 59.3999 61.7701 59.9699 61.8001 59.9899ZM8.82006 56.5299C8.20006 56.6199 7.54006 58.7999 7.52006 59.3499C7.50006 60.2199 8.13005 62.1499 8.90005 60.6199C9.17005 60.0799 9.86005 57.3899 9.62005 56.9199C9.56005 56.7899 8.97006 56.4999 8.82006 56.5199V56.5299ZM32.26 60.0299C32.4 60.2599 32.2101 61.9399 33.0501 61.8599C33.8001 61.7899 33.7601 58.6499 33.5701 58.2599C33.4601 58.0199 33.0001 57.9099 32.7501 57.9499C32.2601 58.0299 32.0001 59.3599 31.9901 59.7799C31.9901 59.9999 32.21 59.9599 32.26 60.0299Z" fill="#804816"/>
<path d="M60.8501 45.3099C58.3601 44.3099 55.3201 43.4299 53.3401 41.4599C53.1001 41.2199 52.6301 40.3999 52.4901 40.3399C51.4501 39.9099 52.0301 41.9099 51.2801 41.5599C51.0101 41.4399 50.1901 40.1499 50.0301 39.8299C49.7101 39.1899 48.6401 35.7799 48.4601 35.6399C47.9701 35.2499 47.4001 35.9699 47.1801 36.3399C47.0401 36.5799 46.9301 37.3999 46.6101 36.8799C46.0401 35.9499 45.7301 34.0099 45.7201 32.9299C45.7201 32.4699 46.1601 30.7799 45.4701 30.7199C44.9701 30.6699 43.5801 31.9799 43.4701 31.8499C43.4301 30.5599 43.7601 29.1799 44.1401 27.9399C44.2701 27.4999 44.9301 25.9899 44.9101 25.7399C44.7901 24.4199 42.4901 26.1399 42.3401 25.9899C42.8801 24.2399 44.0101 22.4799 45.1201 21.0099C45.4501 20.5799 47.2701 18.6199 47.2701 18.3299C47.2701 17.7299 46.3501 17.7899 45.8901 17.4599C43.1301 15.4499 43.9401 9.57993 47.5501 9.14993C49.7901 8.87993 50.9001 9.24994 52.3701 10.8799C52.6901 11.2399 53.5501 12.6499 54.0001 12.6099C54.7101 12.5499 54.3401 11.6899 54.3901 11.4699C54.5001 11.0299 56.5701 10.3599 57.0501 10.2199C69.4801 6.60994 78.3201 12.4099 82.8201 23.9099C83.0701 24.5399 84.3201 28.0699 83.9701 28.4599C83.5901 28.4299 83.3601 27.9699 82.9901 27.9399C82.7501 27.9299 82.4601 28.1699 82.4301 28.4099C82.3701 28.8299 82.8101 30.2499 82.8501 30.8699C82.8801 31.3699 82.8701 34.4199 82.6401 34.6299C82.0101 34.5299 81.9401 34.0399 81.3001 34.5799C80.4901 35.2599 79.2201 37.8699 78.4501 38.9199C77.1801 40.6599 74.4401 43.0399 72.5001 43.9699C72.3501 44.0399 72.2401 44.1199 72.0501 44.0899C72.7001 42.5899 74.0001 40.3999 72.0501 39.3099C71.4901 39.1599 70.9401 39.3299 70.4001 39.4699C70.1501 38.5999 70.4601 36.3699 71.2101 35.8099C71.5801 35.5399 72.1401 35.6299 72.5001 35.8699C73.3201 36.3999 73.0101 37.5599 74.4501 37.4099C76.4801 37.1999 77.0701 33.5599 77.8701 32.1999C78.3701 31.3499 79.2101 31.0599 79.6901 29.9099C80.9101 26.9499 80.4301 23.8899 77.0301 22.9099C75.9401 22.5999 74.8401 22.9899 73.9801 22.3599C74.2001 22.2599 74.4701 22.3399 74.7301 22.2899C76.1501 21.9999 75.8101 18.9899 73.7801 19.8999C72.7401 20.3699 72.8501 21.3999 73.1601 22.3199C71.3401 22.4599 69.5701 21.8699 67.8501 22.5999C67.7301 22.6499 67.6801 22.7999 67.6101 22.8299C67.5001 22.8899 67.2501 22.8799 67.0201 23.0099C66.1201 23.5399 65.8201 25.1299 65.2401 25.9599C62.8801 26.4899 60.9801 27.2899 59.3901 29.1499C56.8401 32.1199 56.4001 37.4999 58.1701 40.9499C58.4801 41.5499 59.4801 42.6999 59.6401 43.1799C59.7401 43.4699 59.6401 43.7499 59.7501 43.9999C59.8501 44.2299 60.5501 44.7399 60.7601 44.9399C60.9301 45.0999 60.9901 45.1099 60.8301 45.3399L60.8501 45.3099ZM46.8801 13.2399C46.9101 13.3899 46.6301 13.9099 46.6001 14.1399C46.3901 15.4399 47.9901 16.4599 49.1901 16.2199C49.4201 16.1699 49.9301 15.7399 50.1701 15.6099C50.4001 15.9899 51.1501 16.0699 51.3501 15.6099C51.5101 15.2299 51.2501 14.3099 51.0901 13.9299C50.5501 12.6799 48.2601 11.3299 46.9601 12.0399C46.1001 12.5099 46.8301 12.9799 46.8801 13.2499V13.2399ZM58.0501 15.9399C57.7001 16.0099 56.8401 16.7299 56.8701 17.0799C56.9301 17.7299 58.0601 17.4299 58.5301 17.4699C58.9501 17.5099 59.7201 17.6899 60.1301 17.8199C62.0101 18.4299 63.2501 20.3499 65.4301 20.3399C67.4401 20.3399 67.8701 17.1499 66.7201 16.7799C65.2301 16.3099 66.4201 18.5599 65.5101 18.7699C63.4001 19.2399 60.8801 15.3599 58.0501 15.9399ZM75.6301 16.3499C74.9801 16.4099 73.9101 16.7399 73.2901 16.9899C72.7301 17.2099 70.8001 18.4599 70.5601 18.4799C70.5001 18.4799 70.4401 18.4899 70.3701 18.4699C69.7801 17.9199 70.3801 16.1599 69.1501 16.4399C67.7201 16.7699 68.9401 19.7799 70.0801 19.9899C71.2201 20.1999 72.9301 18.9099 74.0901 18.4999C74.6101 18.3199 76.4201 17.9599 76.6901 17.6999C76.9601 17.4399 76.9501 16.9099 76.7401 16.6199C76.4601 16.2399 76.0501 16.2999 75.6401 16.3399L75.6301 16.3499ZM60.5201 19.8399C60.0201 19.9499 59.6501 20.7499 59.6301 21.2199C59.6001 22.4399 61.1401 23.1799 61.9401 22.2899C63.0501 21.0499 62.0701 19.4899 60.5201 19.8399ZM54.4501 27.4399C53.8601 27.5699 52.6701 29.3899 52.7401 30.0299C52.8101 30.6699 53.4201 30.9699 53.9201 30.6199C54.2101 30.4099 55.2701 28.5699 55.3001 28.1799C55.3301 27.7299 54.9101 27.3399 54.4501 27.4399Z" fill="#804816"/>
<path d="M67.6401 22.7999C67.6301 22.8999 67.6601 23.0199 67.6401 23.1099C67.6401 23.1299 67.5001 23.1999 67.5401 23.3099C67.6101 23.3099 67.6801 23.3099 67.7401 23.3099C69.0801 23.4199 70.4201 23.3799 71.7501 23.6199L70.6701 25.1599C70.3301 26.1599 70.4501 27.3299 71.4501 27.8699C71.7601 28.0399 72.7601 28.2399 72.8301 28.3399C72.9201 28.4599 72.9901 29.0799 73.0801 29.3199C73.6001 30.7099 75.0501 31.3299 76.2201 30.1899C76.6601 29.7599 76.8701 28.5499 77.2001 28.3899C77.3101 28.3399 78.7901 28.0699 78.8401 28.1299C78.8701 29.4599 77.8801 30.3699 76.8201 30.9899C76.5901 31.1299 75.7001 31.6099 75.5001 31.6199C74.9401 31.6599 74.6501 31.0599 74.2601 31.0099C73.9301 30.9599 73.2001 31.3999 72.7201 31.4099C71.2601 31.4399 69.4701 30.0199 68.2301 29.3499C59.1501 24.4399 58.1501 40.6599 63.1901 43.2299C65.3301 44.3199 67.3201 43.9099 69.5501 44.0699C69.7901 44.0899 70.7601 44.1599 70.7401 44.4299C70.7101 44.9299 69.4101 46.0899 68.9801 46.3699C65.8801 48.3999 63.7601 46.4599 60.8701 45.2999C61.0401 45.0699 60.9701 45.0599 60.8001 44.8999C60.5801 44.6899 59.8901 44.1899 59.7901 43.9599C59.6801 43.7099 59.7801 43.4299 59.6801 43.1399C59.5201 42.6599 58.5201 41.5099 58.2101 40.9099C56.4401 37.4599 56.8801 32.0799 59.4301 29.1099C61.0201 27.2499 62.9201 26.4499 65.2801 25.9199C65.8601 25.0899 66.1601 23.4999 67.0601 22.9699C67.2901 22.8399 67.5401 22.8399 67.6501 22.7899L67.6401 22.7999Z" fill="#A2622C"/>
<path d="M61.98 32.6699C62.02 32.9199 62.33 32.8399 62.39 32.8799C62.47 32.9299 62.61 33.2699 62.75 33.3899C63.89 34.3499 64.64 34.9499 64.74 36.6399C64.76 36.9199 64.52 37.7399 64.8 37.8099C64.95 37.8399 65.47 36.9699 65.54 36.8099C65.69 36.4699 65.83 35.3899 66.02 35.2299C66.33 34.9899 67.3 35.2699 67.72 35.0299C67.96 35.2099 68.6 39.1999 68.55 39.7099C68.46 40.7299 67.84 40.2999 67.06 40.3699C66.47 40.4299 66.2 40.7699 65.67 40.2999C65.57 39.8999 65.12 38.3299 64.78 38.2299C63.72 37.9099 62.72 38.9299 62.23 39.7499C62.12 39.6699 62.08 39.5599 62.02 39.4399C61.4 38.1799 61.06 33.9199 61.76 32.7299C61.83 32.6099 61.95 32.6699 61.96 32.6599L61.98 32.6699Z" fill="#804816"/>
<path d="M76.35 7.91991C77.33 7.82991 78.59 8.47991 79.19 9.23991C80.42 10.8299 80.33 13.0199 79.1 14.5699C79.03 14.5699 78.33 13.5999 78.18 13.4399C77.83 13.0799 76.62 12.2899 76.84 11.7999C77.14 11.1299 78.01 12.0299 78.48 11.4799C79.2 10.6399 77.61 9.95992 76.87 10.0699C76.18 10.1699 75.5 11.0799 75.3 11.0799C75.18 11.0799 73.23 9.99991 73.2 9.88991C73.15 9.72991 73.21 9.6899 73.3 9.5899C73.47 9.3999 74.39 8.71992 74.64 8.56992C75.05 8.31992 75.89 7.95991 76.36 7.90991L76.35 7.91991Z" fill="#804816"/>
<path d="M66.3001 33.59L66.1001 29.58C66.4701 29.71 68.5201 30.93 68.5401 31.17C67.9301 32 67.4501 33.48 66.3001 33.59Z" fill="#F8E5BD"/>
<path d="M76.2701 32.8699C76.4501 33.0599 75.4301 34.7099 75.2501 34.9799C74.6901 35.7899 74.2801 36.3999 74.0201 34.9699C73.9001 34.3099 73.9901 33.6799 74.0201 33.0199C74.0201 32.8499 73.7901 32.2899 74.1101 32.3999C74.4001 32.4999 74.9201 33.03 75.2001 33.07C75.4401 33.1 76.2301 32.8199 76.2701 32.8599V32.8699Z" fill="#F8E5BD"/>
<path d="M64.24 39.6599C64.38 39.7799 64.8 42.1499 64.86 42.5299C64.77 42.6299 63.78 42.1899 63.63 42.0699C62.79 41.3599 63.72 39.2299 64.24 39.6599Z" fill="#F8E5BD"/>
<path d="M72.06 32.67C72.06 32.67 71.97 32.72 71.96 32.77C72.43 32.88 73.26 32.49 73.4 33.08C73.28 33.4 72.74 34.61 72.34 34.51C71.94 34.41 71.44 32.89 71.24 32.51L72.01 32.56C72.06 32.58 72.07 32.61 72.06 32.66V32.67Z" fill="#F8E5BD"/>
<path d="M69.3901 33.9999C69.4101 33.1399 69.3901 32.2699 69.1801 31.4299L70.9301 32.3099C70.9401 32.6099 69.5901 34.2299 69.3901 33.9999Z" fill="#F8E5BD"/>
<path d="M71.6501 40.7899C71.6501 41.1399 71.6901 41.4799 71.6001 41.8199C71.5701 41.9399 70.9501 43.0899 70.8801 43.1499C70.6601 43.3499 69.7301 43.2299 69.8401 42.8299C69.9101 42.5899 71.3601 40.4699 71.6501 40.7799V40.7899Z" fill="#F8E5BD"/>
<path d="M67.23 41.6099C67.28 43.7599 67.71 42.0199 68.46 41.6099L68.56 42.9499L65.48 42.7399C65.59 42.4799 67.12 41.4899 67.23 41.6099Z" fill="#F8E5BD"/>
<path d="M77.5 24.96C76.8 24.83 76 24.55 75.28 24.65C74.91 24.7 74.88 24.94 74.62 25.02C73.89 25.26 72.81 24.72 73.69 24.4C74.57 24.08 76.3 24.35 77.16 24.73C77.28 24.79 77.46 24.78 77.49 24.96H77.5Z" fill="#A2622C"/>
<path d="M25.39 50.1399C25.35 51.0199 25.37 51.9899 25.29 52.8699C25.29 52.9799 25.34 53.1199 25.19 53.1299C25.22 52.2599 25.16 51.3799 25.19 50.4999C25.19 50.2999 25.08 50.0899 25.4 50.1399H25.39Z" fill="#A2622C"/>
<path d="M72.0601 32.6699H73.5001C73.5001 32.6699 73.4301 33.0099 73.4001 33.0799C73.2601 32.4899 72.4301 32.8799 71.9601 32.7699C71.9701 32.7199 72.0601 32.6799 72.0601 32.6699Z" fill="#FEFEFE"/>
<path d="M61.98 32.6699C61.98 32.6699 62 32.4799 62.08 32.4099C62.33 32.1899 62.37 32.6499 62.39 32.8699C62.32 32.8299 62.02 32.9199 61.98 32.6599V32.6699Z" fill="#613A12"/>
<path d="M67.74 23.31C67.67 23.31 67.6 23.31 67.54 23.31C67.5 23.19 67.64 23.12 67.64 23.11L67.74 23.32V23.31Z" fill="#804816"/>
<path d="M39.34 53.03C40.22 52.89 40.01 54.49 39.98 55.02C39.95 55.69 39.8 57.34 39.57 57.9C39.36 58.41 38.82 58.91 38.33 58.42C38.04 58.13 38.1 56.72 38.13 56.25C38.17 55.55 38.49 53.17 39.34 53.03Z" fill="#613A12"/>
<path d="M27.57 13.8799C27.57 13.8799 28.1 13.4799 28.19 13.4299C28.62 13.1599 29.3 12.8599 29.77 12.6399C30.24 12.4199 31.32 11.9199 31.76 11.8399C32.06 11.7799 32.44 12.3399 32.46 12.5899C32.47 12.7299 32.31 13.0099 32.22 13.1299C31.94 13.4999 29 14.8899 28.5 14.9599C28 15.0299 27.65 14.9299 27.56 14.4099C27.54 14.2799 27.51 13.9799 27.58 13.8699L27.57 13.8799Z" fill="#613A12"/>
<path d="M36.57 39.37C37.26 39.16 37.5 39.94 37.38 40.48C37.32 40.75 35.96 43.66 35.78 43.93C35.41 44.46 34.51 44.69 34.44 43.93C34.35 43.02 35.19 41.32 35.66 40.52C35.83 40.22 36.26 39.47 36.57 39.38V39.37Z" fill="#613A12"/>
<path d="M26.81 17.27C27.83 17.12 28.25 17.86 27.5 18.59L24.16 20.5C23.28 20.67 22.79 19.83 23.43 19.15C23.87 18.69 26.19 17.36 26.8 17.28L26.81 17.27Z" fill="#613A12"/>
<path d="M38.84 8.43994C39.2 8.42994 40.17 8.46994 40.41 8.65994C40.89 9.03994 40.75 9.57994 40.22 9.82994C39.59 10.1299 37.01 10.4499 36.23 10.4699C35.37 10.4999 35.4 9.33993 36.09 8.97993C36.5 8.76993 38.34 8.44993 38.84 8.42993V8.43994Z" fill="#613A12"/>
<path d="M21.98 14.09C22.84 13.96 23.46 14.56 22.83 15.25C22.2 15.94 20.22 16.5 19.44 17.1C18.38 17.42 18.08 16.4 18.77 15.71C19.15 15.32 21.45 14.17 21.98 14.09Z" fill="#613A12"/>
<path d="M36.57 33.21C36.57 33.21 37 33.65 37.01 33.75C37.06 34.09 36.81 34.35 36.64 34.61C36.05 35.5 35.09 36.28 34.54 37.23C33.69 37.74 32.94 37.57 33.23 36.44C33.3 36.18 33.93 35.33 34.13 35.08C34.38 34.78 35.91 33.23 36.14 33.18C36.27 33.15 36.44 33.15 36.57 33.21Z" fill="#613A12"/>
<path d="M35.55 15.12C36.4 15.04 36.87 15.9 36.29 16.37C35.86 16.72 33.26 17.87 32.72 17.95C32.18 18.03 31.73 17.59 31.93 17.05C32.23 16.22 34.71 15.2 35.55 15.12Z" fill="#613A12"/>
<path d="M38.21 20.36C39.4 20.18 40.29 21.01 39.11 21.88C38.71 22.18 37.44 22.98 37 23.17C36.13 23.54 35.53 23.45 35.66 22.34C35.75 21.6 37.49 20.48 38.2 20.36H38.21Z" fill="#613A12"/>
<path d="M14.16 28.6899C14.63 28.6899 14.91 29.1099 14.92 29.5399C14.94 30.2699 13.1 31.7599 12.8 32.5599C12.17 33.2299 11.26 33.0499 11.45 32.0299C11.54 31.5499 13.28 29.0499 13.69 28.8299C13.8 28.7699 14.05 28.6999 14.16 28.6999V28.6899Z" fill="#613A12"/>
<path d="M16.01 19.84C16.88 19.69 17.09 20.59 16.6 21.16C15.63 21.54 14.48 22.87 13.55 23.15C12.88 23.35 12.09 22.66 12.65 22.04C13.02 21.64 15.52 19.93 16.01 19.84Z" fill="#613A12"/>
<path d="M17.65 54.0699C19.5 53.4999 18.03 57.2199 17.66 57.8899C17.41 58.3499 16.93 58.7999 16.39 58.4799C15.75 58.0999 16.34 56.5299 16.57 55.9699C16.7 55.6499 17.42 54.1499 17.65 54.0699Z" fill="#613A12"/>
<path d="M30.3 42.96C30.96 42.9 31.22 43.7 31.14 44.22C31.06 44.74 30.26 47.12 29.97 47.47C29.89 47.57 29.71 47.78 29.58 47.76C29.23 47.71 28.79 46.95 28.81 46.62C28.83 46.13 29.44 43.92 29.67 43.46C29.81 43.18 29.98 43 30.31 42.97L30.3 42.96Z" fill="#613A12"/>
<path d="M8.82 56.5299C8.97 56.5099 9.55999 56.7999 9.61999 56.9299C9.85999 57.3999 9.16998 60.0999 8.89998 60.6299C8.12998 62.1499 7.49999 60.2299 7.51999 59.3599C7.52999 58.7999 8.2 56.6199 8.82 56.5399V56.5299Z" fill="#613A12"/>
<path d="M30.82 22.0999C31.45 21.9999 31.88 22.4899 31.61 23.1099C30.6 24.0199 29.64 25.0299 28.5 25.7699C27.86 25.8499 27.75 25.1399 27.88 24.6299C28.03 24.0599 30.19 22.2099 30.81 22.1099L30.82 22.0999Z" fill="#613A12"/>
<path d="M40.48 42.1399C41.16 42.0199 41.38 42.6899 41.28 43.2599C41.21 43.6599 40.48 45.72 40.28 46.07C39.63 47.23 38.64 47.1899 38.9 45.6199C38.98 45.1299 39.81 42.6799 40.08 42.3899C40.18 42.2899 40.33 42.1799 40.47 42.1499L40.48 42.1399Z" fill="#613A12"/>
<path d="M11.08 24.9799C11.78 24.7699 12.46 25.3699 12.16 26.0599C11.98 26.4699 10.02 28.4699 9.60997 28.5499C9.25997 28.6199 8.81998 28.5999 8.73998 28.1899C8.61998 27.5799 8.94997 27.2399 9.29997 26.7999C9.47997 26.5799 10.95 25.0099 11.07 24.9699L11.08 24.9799Z" fill="#613A12"/>
<path d="M35.24 49.23C35.64 49.13 36.1 49.69 36.09 50.08C36.08 50.59 35.38 53.42 35.07 53.69C34.76 53.96 34.26 53.74 34.11 53.4C33.82 52.72 34.32 50.56 34.63 49.86C34.74 49.61 34.97 49.3 35.24 49.23Z" fill="#613A12"/>
<path d="M13.9601 49.64C14.7501 49.48 14.63 50.6 14.58 51.09C14.53 51.58 13.96 54.02 13.58 54.2C13.14 54.42 12.74 54.13 12.66 53.68C12.54 53.04 12.93 50.87 13.25 50.27C13.37 50.05 13.7101 49.69 13.9601 49.64Z" fill="#613A12"/>
<path d="M31.84 28.88C32.49 28.75 32.94 29.33 32.61 29.96C32.46 30.25 31.16 32.2 30.99 32.35C30.4 32.88 29.19 32.85 29.56 31.74C29.74 31.18 31.28 28.99 31.84 28.87V28.88Z" fill="#613A12"/>
<path d="M21.82 24.7799C21.74 24.8599 21.59 25.34 21.43 25.57C21.11 26.01 20.47 26.6699 19.9 26.6199C18.74 26.5199 19.5 25.24 19.95 24.71C20.34 24.24 22.29 22.1299 22.6 23.6099C22.79 24.5099 22.14 24.4599 21.82 24.7899V24.7799Z" fill="#613A12"/>
<path d="M24.55 29.3C24.72 29.47 24.71 30.1 24.65 30.33C24.58 30.59 23.17 32.73 22.96 32.85C22.27 33.25 21.79 32.77 21.92 32.02C22 31.57 23.37 29.4 23.75 29.22C23.95 29.13 24.39 29.14 24.55 29.29V29.3Z" fill="#613A12"/>
<path d="M69.5601 50.2599C70.1601 50.0599 70.4301 50.3099 70.5901 50.8399C70.7401 51.3199 71.1401 53.22 71.1401 53.69C71.1401 54.04 71.0401 54.3699 70.6401 54.4499C70.2001 54.5399 69.7101 53.5499 69.5901 53.1699C69.4301 52.6799 68.9901 50.4499 69.5501 50.2599H69.5601Z" fill="#613A12"/>
<path d="M65.91 59.3699C65.54 59.1599 65.23 57.6299 65.17 57.1799C65.14 56.9299 65.04 55.9499 65.07 55.7499C65.16 54.9899 66.04 55.0699 66.32 55.6199C66.6 56.1699 66.9 58.2099 66.74 58.7599C66.64 59.0999 66.31 59.5999 65.91 59.3699Z" fill="#613A12"/>
<path d="M7.99004 36.8999C8.78004 36.6599 8.85003 37.4099 8.69003 38.0099C8.59003 38.3999 7.46003 40.4499 7.12003 40.5599C5.16003 41.1499 7.22004 37.1299 7.99004 36.8999Z" fill="#613A12"/>
<path d="M61.8 59.9899C61.8 59.9899 61.45 59.3999 61.42 59.2899C61.3 58.8599 61.07 57.5099 61.06 57.0699C61.04 56.4299 61.48 55.8199 62.09 56.2499C62.49 56.5299 63.05 59.3699 62.9 59.8299C62.8 60.1399 62.49 59.9099 62.26 59.9099C62.12 59.9099 61.93 60.0599 61.8 59.9899Z" fill="#613A12"/>
<path d="M9.43 45.4199C9.87 45.3099 10.29 46.2599 10.26 46.6599C10.24 46.8799 9.65001 48.7699 9.55001 48.9399C9.24001 49.4099 8.53001 49.4399 8.28001 48.8999C8.06001 48.4099 8.85 45.5699 9.43 45.4199Z" fill="#613A12"/>
<path d="M32.26 60.0299C32.21 59.9599 31.99 59.9999 31.99 59.7799C32 59.3699 32.26 58.0299 32.75 57.9499C33 57.9099 33.45 58.0199 33.57 58.2599C33.76 58.6499 33.8 61.7999 33.05 61.8599C32.21 61.9399 32.4 60.2499 32.26 60.0299Z" fill="#613A12"/>
<path d="M58.05 15.94C60.88 15.36 63.4 19.24 65.51 18.77C66.42 18.57 65.24 16.31 66.72 16.78C67.87 17.15 67.44 20.33 65.43 20.34C63.26 20.34 62.02 18.42 60.13 17.82C59.72 17.69 58.95 17.51 58.53 17.47C58.05 17.43 56.92 17.73 56.87 17.08C56.84 16.72 57.7 16.01 58.05 15.94Z" fill="#1F1F14"/>
<path d="M75.63 16.35C76.04 16.31 76.45 16.25 76.73 16.63C76.94 16.92 76.94 17.46 76.68 17.71C76.42 17.96 74.6 18.32 74.08 18.51C72.92 18.92 71.22 20.21 70.07 20C68.92 19.79 67.71 16.78 69.14 16.45C70.38 16.17 69.78 17.92 70.36 18.48C70.42 18.5 70.48 18.5 70.55 18.49C70.79 18.47 72.72 17.22 73.28 17C73.9 16.75 74.97 16.42 75.62 16.36L75.63 16.35Z" fill="#1F1F14"/>
<path d="M50.1601 15.6099C50.0601 15.4399 49.9901 15.0299 49.8301 14.7599C49.2001 13.6699 48.1201 13.1499 46.8701 13.2499C46.8201 12.9799 46.0801 12.5099 46.9501 12.0399C48.2501 11.3299 50.5401 12.6799 51.0801 13.9299C51.2501 14.3099 51.5101 15.2299 51.3401 15.6099C51.1401 16.0699 50.3901 15.9899 50.1601 15.6099Z" fill="#1F1F14"/>
<path d="M50.16 15.6099C49.92 15.7399 49.42 16.1799 49.18 16.2199C47.98 16.4599 46.38 15.4399 46.59 14.1399C46.63 13.9099 46.9 13.3899 46.87 13.2399C48.12 13.1399 49.2 13.6599 49.83 14.7499C49.99 15.0299 50.06 15.4399 50.16 15.5999V15.6099Z" fill="#613A12"/>
<path d="M60.5201 19.84C62.0701 19.49 63.0501 21.05 61.9401 22.29C61.1501 23.17 59.6001 22.44 59.6301 21.22C59.6401 20.76 60.0201 19.96 60.5201 19.84Z" fill="#1F1F14"/>
<path d="M54.45 27.44C54.91 27.34 55.33 27.73 55.3 28.18C55.27 28.56 54.21 30.41 53.92 30.62C53.42 30.98 52.8 30.68 52.74 30.03C52.68 29.38 53.86 27.57 54.45 27.44Z" fill="#613A12"/>
</svg>
