<svg width="41" height="140" viewBox="0 0 41 140" fill="none" xmlns="http://www.w3.org/2000/svg">
<path d="M36.86 50.28C36.91 49.88 37.08 49.33 37.58 49.56C38.21 49.85 37.96 50.92 37.99 51.51C38.04 52.39 37.96 54.17 38.33 54.87C38.48 55.15 38.8 55.33 38.93 55.6C39.48 56.73 38.88 60.1 39.14 61.56C39.25 62.2 39.72 62.17 40.09 62.56C41.08 63.57 40.44 64.76 40.73 66C40.61 71.42 40.61 76.97 40.67 82.33C40.68 83.42 41.05 85.27 40.39 86.18C40.29 86.32 40.05 86.36 40.03 86.46C39.76 87.58 40.26 89.79 40.01 91.04C39.86 91.76 39.08 91.83 39 92.39C38.92 92.95 39.1 93.51 39.11 94.03C39.43 108.37 38.89 122.78 39.21 137.08C39.23 138.03 39.42 139.55 38.14 139.7C37.02 139.83 35.67 139.69 34.55 139.7C25.87 139.74 17.32 139.76 8.74998 139.74C7.12998 139.74 5.22998 139.97 3.62998 139.81C2.85998 139.73 2.20999 139.34 2.13999 138.53C2.09999 138.1 2.14 137.46 2.15 137C2.37 124.69 2.25997 112.25 2.23997 100.01C2.23997 96.04 2.23998 92.06 2.24998 88.09C2.21998 87.84 1.55995 87.74 1.34995 87.5C0.939955 87.04 1.11997 86.61 1.11997 86.15C1.11997 85.46 1.23998 82.93 1.05998 82.5C0.559977 81.28 0.619955 81.36 0.599955 79.98C0.479955 72.93 0.709965 65.82 0.609965 58.73C0.819965 57.87 1.40998 57.63 2.24998 57.75C2.20998 56.14 2.32998 54.56 2.43998 52.96C2.47998 52.37 2.36997 51.99 2.67997 51.35C2.78997 51.13 3.01999 51.06 3.06999 50.81C3.21999 50.03 3.02999 48.61 3.06999 47.73C3.08999 47.18 3.23999 46.59 3.19999 46.01C4.19999 44.91 4.34 46.3 4.4 47.13C4.43 47.59 4.35996 48.15 4.41996 48.64C4.43996 48.81 4.51999 48.98 4.50999 49.16C4.53999 49.28 4.63995 49.21 4.71995 49.16C5.02995 48.97 5.77997 48.05 6.04997 47.72C8.11997 45.21 9.70995 42.36 11.35 39.56C11.54 39.19 11.12 39.01 11.09 38.68C10.99 37.79 11.96 38.09 12.2 37.64C12.44 37.19 12.2199 36.89 12.2199 36.53C12.2499 34.19 12.29 31.73 12.04 29.36C13.6 26.49 15.33 23.61 16.66 20.62C18.06 17.45 18.69 13.87 19.51 10.52C19.54 10.18 19.14 10.08 19.05 9.77C18.85 9.14 19.61 7.26 19.71 6.41C19.9 4.84 19.57 3.22999 19.7199 1.69999C19.8499 0.399992 21.05 0.429993 21.24 1.30999C21.52 2.59999 21.17 4.15 21.26 5.5C21.3 6.11 21.47 7.01 21.62 7.61C21.78 8.27 22.31 9.14 22.14 9.77C22.06 10.06 21.7 10.34 21.68 10.53C21.65 10.99 22.19 12.98 22.34 13.57C23.93 20.04 26.81 25.97 30.07 31.72L29.94 40.08C30.89 40.7 30.49 41.41 30.62 42.15C30.72 42.73 31.5 44.18 31.81 44.76C33.21 47.36 35.03 49.88 36.65 52.35C36.71 52.45 36.86 52.26 36.86 52.25C36.86 51.66 36.79 50.86 36.86 50.3V50.28ZM20.64 15.51C20.55 15.42 20.22 15.57 20.21 15.75L18.57 20.89C18.13 21.32 17.99 21.87 17.74 22.42C17.03 24.24 15.36 26.52 14.77 28.28C14.7 28.48 14.66 28.65 14.69 28.87C15.15 28.97 15.66 28.78 16.08 28.77C18.03 28.72 20.06 28.72 22.03 28.56C22.39 28.53 24.15 28.41 24.24 28.08C24.31 27.83 24.09 26.8 24 26.49C23.16 23.27 21.91 19.02 20.69 15.93C20.64 15.8 20.66 15.53 20.64 15.52V15.51ZM14.37 30.72C14.18 30.75 13.95 30.7 13.75 30.72L13.96 33.64C14.02 34.94 13.83 36.21 13.96 37.5C14.26 37.48 14.59 37.53 14.88 37.5C14.94 37.5 15.28 37.38 15.3 37.33C15.39 36.62 15.2 35.85 15.19 35.19C15.18 34.32 15.16 32.75 15.54 31.99C15.89 31.29 17 31.63 17.14 32.53C17.29 33.53 17 34.95 17.04 36.02C17.06 36.48 17.22 36.93 17.15 37.4L18.4699 37.18C18.6099 36.95 18.38 35.57 18.38 35.19C18.38 34.5 18.4 33.26 18.49 32.63C18.67 31.28 20.14 31.18 20.32 32.32C20.52 33.6 20.21 35.23 20.21 36.53C20.21 37.5 20.82 36.88 21.45 37.2V32.63C21.45 32.35 21.69 31.56 21.99 31.42C22.37 31.24 23.05 31.41 23.23 31.78C23.41 32.15 23.3 33.54 23.31 34.07C23.31 34.26 23.41 34.46 23.42 34.68C23.42 35.46 23.24 36.22 23.31 37C23.68 36.93 24.46 37.2 24.54 36.74L24.34 30.06C23.47 30.14 22.59 30.26 21.7199 30.32C19.2999 30.5 16.77 30.42 14.38 30.73L14.37 30.72ZM26.08 31.13V35.91C26.08 35.91 26.16 36.01 26.16 36.11C26.18 36.36 25.97 36.79 26.38 36.99C26.6 36.21 26.43 35.38 26.48 34.58C26.5 34.27 26.61 33.31 26.71 33.06C26.76 32.94 27.17 32.59 27.25 32.59C27.54 32.59 27.79 33.79 27.81 34.06C27.9 35.01 27.93 36.39 27.92 37.35C27.91 38.04 27.51 38.6 28.53 38.83C28.46 37.65 28.6899 36.46 28.7199 35.29C28.7199 34.96 28.76 34.45 28.75 34.16C28.72 33.28 28.6 32.81 27.88 32.3C27.76 32.21 27.56 32.21 27.41 32.1C26.96 31.78 26.48 31.49 26.07 31.13H26.08ZM25.05 38.73C24.25 38.73 23.44 38.78 22.64 38.83C21.34 38.92 20.02 39.12 18.74 39.24C17.27 39.37 15.86 39.04 14.25 39.38C14.01 39.43 13.66 39.49 13.46 39.61C13.11 39.82 11.82 42.4 11.48 42.97C10.42 44.73 9.30997 46.55 8.04997 48.17C7.82997 48.46 6.04995 50.38 6.15995 50.54C6.92995 50.72 7.77999 50.49 8.56999 50.44C13.39 50.11 18.2 49.75 23.04 49.61C24.94 49.56 27.04 49.75 28.9 49.61C29.16 49.59 29.4 49.5 29.67 49.5L28.46 46.76C27.37 44.3 25.87 41.72 25.08 39.15C25.04 39.01 25.06 38.86 25.06 38.71L25.05 38.73ZM34.29 51.88L30.85 46.34C30.53 45.78 29.09 43.01 29.06 42.58C29.04 42.31 29.22 42.12 29.09 41.85C28.99 41.65 28.62 41.47 28.44 41.26C28.19 40.98 28.02 40.62 27.73 40.38C27.67 40.94 27.84 41.48 28.01 42C28.71 44.25 30.28 46.61 31.31 48.76C31.47 49.09 31.5 49.44 31.65 49.76C32.09 50.67 33.51 51.3 34.3 51.88H34.29ZM17.45 51.67C17.38 51.67 17.31 51.67 17.24 51.67C17.1 51.67 16.97 51.67 16.83 51.67C14.49 51.64 11.49 51.97 9.08 52.18C7.41 52.33 5.75995 52.64 4.09995 52.69V57.45C4.19995 57.72 5.50995 57.63 5.84996 57.62C6.53996 57.6 7.21 57.47 7.9 57.52L7.68998 54.8C7.82998 54.28 7.73999 53.59 8.19999 53.21C9.48999 52.74 9.84001 54.33 9.84001 55.32V57.32L11.48 57.22C11.48 57.15 11.48 57.08 11.48 57.02C11.39 55.93 11.34 54.84 11.38 53.73C11.61 53.4 11.55 52.94 12.23 53.03C13.35 53.18 13.35 54.75 13.34 55.58C13.33 56.17 13.22 56.73 13.24 57.33C13.72 57.13 14.27 57.27 14.78 57.23V53.89C14.78 53.89 15.09 53.08 15.12 53.04C15.23 52.91 15.72 52.78 15.91 52.81C15.92 52.9 16.26 53.05 16.37 53.23C16.5 53.43 16.5 53.75 16.63 53.94C16.81 55 16.85 56.06 16.73 57.12C17.33 57.08 17.88 56.9 18.48 57.12V53.78C18.48 53.46 18.78 52.89 19.1 52.75C19.39 52.63 19.72 52.89 20.02 52.9C20.14 53.05 20.27 53.13 20.33 53.21C20.46 54.18 20.46 55.25 20.44 56.24C20.44 56.4 20.33 56.67 20.34 56.74C20.41 57.04 21.57 56.85 21.87 56.9V54.9C21.87 54.9 21.96 54.73 21.98 54.6C22.03 54.08 22.01 52.6 22.75 52.49C22.89 52.47 23.4 52.54 23.49 52.62C23.59 52.71 23.92 53.88 23.93 54.09C23.95 54.44 23.83 54.7 23.82 55.01C23.82 55.58 23.84 56.14 23.82 56.71L25.15 56.81C25.07 56.07 25.22 55.33 25.26 54.61C25.31 53.81 25.07 53.38 25.54 52.63C25.82 52.18 26.31 52.07 26.75 52.39C26.82 52.44 27.21 52.92 27.21 52.96V56.56C27.21 56.62 27.3799 56.73 27.4699 56.72L29.98 56.61L29.92 51.36C29.58 51.12 27.94 51.33 27.45 51.33C24.52 51.33 21.76 51.53 18.85 51.68C18.39 51.7 17.92 51.65 17.46 51.68L17.45 51.67ZM34.81 52.39C34.89 52.22 34.43 51.85 34.4 51.88C34.23 52.06 34.55 52.1 34.59 52.15C34.68 52.26 34.67 52.42 34.8 52.4L34.81 52.39ZM37.48 57.22C37.46 56.96 37.56 56.65 37.38 56.45C35.94 55.82 34.87 54.73 33.67 53.79C33.32 53.52 32.91 53.31 32.56 53.05C32.36 52.91 32.12 52.47 31.73 52.5V56.35C31.73 56.35 31.58 56.47 31.67 56.61L32.4 57.02C32.71 56.66 32.77 54.49 33.69 55.12C33.76 55.17 34.07 56.11 34.09 56.26C34.2 57.22 33.51 58.23 34.87 58.77C35.12 58.72 34.93 57.6 35.49 57.22C35.83 56.99 36.28 57.83 36.34 58.12C36.46 58.71 36.1 59.42 36.31 59.89C36.36 60 37.22 60.61 37.28 60.61C37.54 60.61 37.48 60.16 37.49 59.99C37.51 59.65 37.49 59.3 37.49 58.96C37.51 58.38 37.52 57.76 37.49 57.21L37.48 57.22ZM29.16 58.25C28.78 58.27 28.41 58.37 28.03 58.35C28.03 58.42 28.03 58.49 28.03 58.55C27.89 61.34 28.03 64.36 28.03 67.18C28.03 68.17 28.03 69.17 28.03 70.16C28.03 73.45 28.03 76.74 28.03 80.02C28.3 80.02 28.58 80.02 28.85 80.02C29.49 80.03 30.47 80.1 31.06 80.02C31.14 80.01 31.21 80.02 31.21 79.91C31.06 74.77 31.41 69.52 31.21 64.4C31.21 64.17 31.12 64.07 31.11 63.99C31.11 63.92 31.11 63.85 31.11 63.78C31.21 63.75 31.21 63.66 31.21 63.57C31.32 62.19 31.31 60.6 31.3 59.22C31.3 58.94 31.12 58.56 31.21 58.23C30.53 58.26 29.84 58.19 29.16 58.23V58.25ZM15.81 58.86C15.44 58.86 15.01 58.96 14.78 58.96C12.85 59.01 10.91 59.01 8.99998 59.1C8.25998 59.14 7.51 59.24 6.77 59.27C6.84 59.64 6.56001 60.53 7.03001 60.61C7.38001 60.67 8.43998 60.43 8.87998 60.4C12.38 60.2 15.86 59.98 19.35 59.88C21.66 59.81 23.99 59.94 26.28 59.68L26.38 58.35L15.8 58.86H15.81ZM2.46 79.41C2.46 79.51 2.46 79.62 2.46 79.72C2.46 79.82 2.45 79.93 2.46 80.03C2.58 81.1 3.50998 80.54 4.30998 80.54C4.50998 80.54 4.79001 80.71 5.03001 80.64V59.38H2.46C2.54 64.02 2.32995 68.66 2.34995 73.3C2.35995 75.33 2.41 77.37 2.46 79.41ZM36.82 62.19C36.29 61.78 35.8 61.33 35.25 60.93L32.96 59.58C33.02 59.94 32.86 60.58 32.99 60.89C33.05 61.03 34.77 62.22 35.06 62.46C35.42 62.76 35.73 63.2 36.09 63.48C36.99 64.19 38.08 64.85 39.01 65.54C38.97 65 39.14 64.28 38.85 63.8C38.14 63.3 37.49 62.72 36.81 62.19H36.82ZM26.28 61.43C25.76 61.81 22.01 61.48 21.9699 61.69C21.9699 61.86 22.25 61.99 22.39 62.09C23.27 62.73 23.92 63.17 24.64 64.05C25.32 64.88 25.84 65.88 26.23 66.87L26.28 61.43ZM22.21 64.06C13.1 55.9 2.06995 72.35 12.16 78.27C18.01 81.7 25.86 76.89 25.36 70.1C25.17 67.57 24.02 65.68 22.21 64.06ZM10.98 62.25C9.57996 62.06 8.14 62.4 6.77 62.35V68.51L7.13999 67.39C7.82999 66 8.64 64.73 9.65 63.56L10.98 62.25ZM33.06 75.91C33.06 76.59 33.06 77.28 33.06 77.96C33.06 78.03 33.06 78.1 33.06 78.17C33.06 78.71 33.04 79.27 33.06 79.81C33.06 79.88 33.06 79.95 33.06 80.02C32.94 80.07 32.94 80.22 32.96 80.33C32.98 80.45 32.93 80.59 33.06 80.69C33.49 81.04 34.7 81.58 35.01 81.93C35.12 82.05 35.09 82.22 35.13 82.27C35.14 82.28 35.3 82.21 35.39 82.27C36.63 82.93 37.63 83.98 38.91 84.55C39.05 83.86 39.03 83.14 39.02 82.44C39.02 82.2 38.91 81.97 38.91 81.73C38.84 76.92 39.02 72.1 38.86 67.29C38.08 66.78 37.3 66.25 36.56 65.69C35.48 64.86 34.48 63.92 33.32 63.18C33.19 63.1 33.12 63.05 32.96 63.08C33.03 64.35 32.9 65.64 32.9 66.91C32.9 69.91 33.07 72.88 33.07 75.92L33.06 75.91ZM6.97996 74.58C6.92996 74.53 6.70001 74.56 6.78001 74.73V80.54L12.74 80.44C12.09 79.95 11.29 79.77 10.61 79.33C9.45996 78.6 8.35998 77.37 7.68998 76.19C7.51998 75.9 7.04997 74.64 6.98997 74.58H6.97996ZM26.28 74.78C26.01 74.73 26.12 74.82 26.07 74.93C25.13 76.71 23.77 78.56 22 79.59C21.57 79.84 20.97 79.95 20.63 80.33L26.02 80.13C26.1 80.13 26.28 80.03 26.28 79.98V74.79V74.78ZM30.8 81.67C29.68 81.61 28.51 81.75 27.36 81.78C20.29 81.94 13.25 82.04 6.19999 82.29C5.75999 82.31 2.81998 82.22 2.74998 82.56C2.93998 83.71 2.60996 84.91 2.85996 86.09C3.56996 86.15 4.27996 86.05 4.97996 86C5.09996 86 5.53001 86.17 5.53001 85.94V83.68C5.53001 83.68 5.93996 83.14 5.97996 83.11C6.38996 82.86 7.16996 83.19 7.16996 83.58V85.99C7.50996 85.76 8.45996 86.19 8.66996 85.89C8.79996 85.71 8.75999 84.27 8.81999 83.93C8.87999 83.59 9.21995 83.03 9.59995 83.01C9.88995 82.99 10.4699 83.44 10.4699 83.68V85.89H12.32V83.99C12.32 83.31 12.99 82.82 13.65 83.01C13.98 83.37 13.97 83.54 14.16 83.83C14.25 84.27 14.16 84.71 14.16 85.17C14.16 85.24 14.16 85.31 14.16 85.38C14.16 85.52 14.16 85.65 14.16 85.79H16.01C15.93 84.82 15.72 82.72 17.18 82.81C18.4 82.89 17.71 84.87 17.86 85.68H19.71V83.57C19.71 83.32 20.23 82.59 20.59 82.6C20.87 82.6 21.25 83.23 21.25 83.47V85.68H22.89C23.02 85.12 22.9 84.51 22.93 84C22.95 83.68 23.09 83.28 23.1 83.01C23.16 82.94 23.43 82.63 23.48 82.62C23.91 82.47 24.43 82.74 24.53 83.19C24.59 83.47 24.44 83.59 24.44 83.68V85.68C24.52 85.71 24.56 85.58 24.59 85.58H26.18C26.18 84.82 26.14 84.07 26.28 83.32C26.31 83.25 26.35 83.18 26.38 83.11L26.48 82.9C26.48 82.9 26.56 82.81 26.58 82.8C26.96 82.64 27.91 82.84 27.91 83.16V85.47H31.2C31.26 84.8 31.12 84.02 31.2 83.36C31.23 83.1 31.38 82.93 31.41 82.7C31.45 82.38 31.38 82 31.41 81.67C31.31 81.67 31.2 81.67 31.1 81.67C31.07 81.67 31.03 81.67 31 81.67C30.94 81.66 30.86 81.67 30.79 81.67H30.8ZM38.5 89.47V86.23C36.68 84.96 34.9 83.64 33.01 82.48L32.85 86.02C32.98 86.37 33.29 86.66 33.67 86.59C33.67 85.92 33.67 84.97 33.96 84.36C34 84.28 33.98 84.16 34.14 84.23C34.19 84.25 34.66 84.72 34.71 84.79C35.38 85.82 34.35 87.69 35.94 88.03C36.02 87.62 36.16 86.35 36.61 86.28C37.74 86.17 36.93 88.56 37.11 88.85C37.2 88.99 38.07 89.35 38.25 89.57C38.32 89.59 38.25 89.24 38.51 89.47H38.5ZM8.41996 87.83C7.86996 87.81 7.32998 87.93 6.87998 87.93C6.22998 87.94 5.19997 87.83 4.61997 87.93C4.49997 87.95 4.38998 88.05 4.30998 88.14C4.08998 88.39 4.08995 88.99 4.09995 89.32C4.18995 93.61 4.02995 98.02 4.09995 102.26C4.09995 102.84 4.28 103.46 4.21 104.06H6.00999L6.28996 89.39L6.84001 89.09C13.01 89.42 19.22 88.66 25.36 88.96C26.04 88.99 27.71 88.7 27.91 89.55L27.83 95.08C27.64 95.49 27.83 95.87 27.83 96.21C27.8 98.63 27.66 101.06 27.73 103.49C27.76 103.7 28.19 103.46 28.24 103.45H28.45C28.55 103.62 28.96 103.62 29.07 103.45C29.25 103.45 29.99 103.51 29.99 103.3V87.33L8.42997 87.84L8.41996 87.83ZM37.48 92.76C37.41 92.25 37.67 91.55 37.28 91.16C35.97 90.51 34.84 89.51 33.61 88.77C33.21 88.53 32.5 88.12 32.09 87.92C31.97 87.86 31.8799 87.79 31.7199 87.82C31.5499 89.44 32.75 90.07 33.94 90.78C34.42 91.07 34.99 91.27 35.44 91.53C36.12 91.92 36.75 92.41 37.46 92.74L37.48 92.76ZM24.03 90.81C20.68 90.77 17.34 90.9 14 90.95C12.04 90.98 10.07 91.06 8.10996 91.01L8.00999 99.74V103.85C8.43999 103.79 10.42 103.96 10.63 103.65C10.79 101.55 10.56 99.42 10.67 97.32C10.68 97.13 10.77 96.95 10.78 96.87C10.78 96.84 10.78 96.8 10.78 96.77C10.78 96.7 10.78 96.63 10.78 96.56C10.87 95.49 10.75 94.3 11.01 93.25C11.34 91.91 12.29 92.32 12.42 93.53C12.47 94.01 12.42 94.62 12.42 95.12C12.46 97.19 12.35 99.27 12.42 101.34C12.44 102.11 12.62 102.95 12.53 103.75C13.15 103.71 13.74 103.7 14.36 103.73L14.68 93.06C14.99 92.57 15.32 92.04 15.91 92.55C16.01 92.92 16.1799 93.11 16.2199 93.52C16.49 96.24 16.2899 100.36 16.2199 103.19C16.2199 103.37 16.19 103.49 16.11 103.65H18.37C18.39 102.92 18.34 102.17 18.37 101.44C18.46 99.08 18.23 95.45 18.68 93.28C18.73 93.04 18.86 92.49 19.05 92.36C19.24 92.23 19.86 92.18 20.02 92.29C20.15 92.38 20.1199 93.7 20.2199 94.09L20.01 103.64H22.06C22.13 100.94 21.97 98.22 22.06 95.53C22.06 95.51 22.15 95.45 22.16 95.22C22.16 95.15 22.16 95.08 22.16 95.01C22.2 94.2 21.99 92.99 22.48 92.3C22.88 91.74 23.32 92.08 23.59 92.54C23.81 93.1 23.68 93.5 23.69 94.02C23.69 95.05 23.69 96.09 23.69 97.1C23.69 99.28 23.69 101.45 23.69 103.63H26.15L26.05 90.79C25.98 90.79 25.91 90.79 25.84 90.79C25.27 90.74 24.58 90.79 23.99 90.79L24.03 90.81ZM37.48 95.12C37.45 94.99 37.48 94.91 37.38 94.76C37 94.2 35.06 93.44 34.36 93.05L31.7199 91.32L31.84 103.79C31.9 103.97 32.77 104.25 32.85 104.16L32.74 99.48C32.84 98.35 32.97 97.22 33.05 96.09C33.08 95.69 32.91 94.62 33.26 94.45C34.13 94.02 34.25 95.56 34.29 96.1C34.46 98.53 34.23 101.78 34.19 104.32C34.19 104.64 33.95 105.09 34.21 105.37C34.25 105.41 35.17 105.95 35.21 105.91C35.1 104.57 35.21 103.26 35.21 101.9C35.21 100.46 35.21 99.02 35.21 97.59C35.25 97.24 35.37 95.98 35.69 95.86C35.79 95.82 36.04 95.81 36.12 95.86C36.24 95.94 36.51 97.02 36.53 97.24C36.75 99.36 36.48 101.68 36.44 103.8C36.42 104.73 36.51 105.66 36.38 106.58C36.41 106.76 37.4 107.32 37.47 107.24C37.41 104.56 37.59 101.89 37.57 99.23C37.57 98.19 37.46 97.14 37.46 96.09C37.46 95.64 37.59 95.6 37.46 95.12H37.48ZM29.98 105.09C29.93 104.94 29.86 104.98 29.73 104.98C29.1 105.01 28.38 105.19 27.73 105.2C27.65 105.63 27.49 107.76 27.71 107.92C28.03 108.14 29.45 107.73 29.92 107.85L29.98 107.76C30.02 107.63 30.02 105.22 29.98 105.09ZM10.88 105.5C10.36 105.5 9.80001 105.47 9.28001 105.5C9.08001 105.5 7.96995 105.58 7.90995 105.62C7.66995 105.77 8.02998 107.6 7.99998 108.07C7.99998 108.09 7.85 108.17 7.9 108.27C8.06 108.45 9.73995 108.18 10.1 108.16C15.01 107.99 19.93 107.82 24.84 107.75C25.25 107.75 25.66 107.75 26.07 107.75C26.15 107.1 26 106.46 25.96 105.84C25.92 105.22 26.35 105.12 25.25 105.18L10.87 105.49L10.88 105.5ZM31.73 105.5V107.81C31.73 108.25 32.38 108.61 32.74 108.85C34.24 109.85 36.04 110.59 37.53 111.66C37.54 111.32 37.56 109 37.47 108.9C37.43 108.86 36.57 108.69 36.42 108.46L31.73 105.5ZM6.05998 105.7H4.21V108.32C4.21 108.64 5.89995 108.24 6.15995 108.37C6.15995 107.48 6.18998 106.58 6.05998 105.7ZM28.13 109.61C28.04 109.62 27.93 109.58 27.83 109.61C27.58 109.79 27.8099 114.65 27.7199 115.35L27.63 122.78C27.76 123.17 29.56 122.83 29.98 122.85V109.29C29.37 109.54 28.75 109.5 28.13 109.6V109.61ZM22.38 109.61C19.02 109.64 15.64 109.83 12.27 109.92C10.85 109.96 9.41999 109.85 8.00999 110.02C7.98999 112.3 8.00999 114.58 8.00999 116.85C8.00999 118.19 7.99999 119.55 8.00999 120.9C7.83999 121.55 7.82999 122.52 8.00999 123.16C8.03999 123.25 7.93999 123.44 8.06999 123.47L10.68 123.36V112.93C10.68 112.93 10.99 112.19 11.06 112.15C11.39 111.94 11.64 112.07 11.92 112.26C11.95 112.28 11.99 112.33 12.02 112.36C12.35 113.11 12.1799 113.88 12.2199 114.68C12.3299 117.08 12.27 119.49 12.32 121.87C12.32 122.3 12.53 122.79 12.43 123.26L14.59 123.36C14.61 122.18 14.56 120.99 14.59 119.81C14.63 118 14.75 116.19 14.81 114.37C14.82 114 14.68 113.6 14.7 113.29C14.77 112.04 15.81 111.43 16.14 112.98C16.26 113.56 16.32 114.46 16.35 115.08C16.46 117.73 16.15 120.39 16.25 123.03C16.98 123.29 17.75 123.1 18.51 123.14C18.39 122.39 18.53 121.68 18.51 120.93C18.47 118.41 18.28 115.75 18.51 113.23C18.54 112.93 18.66 112.65 18.71 112.36C19.08 112.07 19.18 112.2 19.53 112.26C19.88 112.5 20 112.94 20.04 113.34C20.26 115.49 20.02 117.96 20.04 120.11C20.04 121.13 20.04 122.14 20.15 123.15C20.63 122.84 21.49 123.22 21.83 123.15C22.12 123.1 22 120.69 22.01 120.33C22.07 118.33 22.03 116.24 22.1 114.2C22.12 113.6 22.02 112.01 22.79 111.85C23.25 111.76 23.58 112.49 23.74 112.86V123.03H26.1L26.2 110.91C26.22 110.47 26.19 110.02 26.2 109.57C24.94 109.58 23.66 109.56 22.4 109.57L22.38 109.61ZM4.09995 110.32C4.05995 110.55 4.09995 110.89 4.09995 111.14C4.09995 111.21 4.09995 111.28 4.09995 111.35C4.09995 111.38 4.09995 111.42 4.09995 111.45C4.02995 115.49 4.14995 119.53 4.09995 123.57H6.25999C6.39999 122.92 6.34996 122.27 6.35996 121.62C6.37996 120.9 6.42999 120.04 6.25999 119.36C6.28999 117.43 6.26999 115.48 6.25999 113.56C6.25999 112.38 6.22999 111.2 6.25999 110.01C5.68999 110.06 5.02 109.94 4.46 110.01C4.23 110.04 4.09996 110.05 4.10996 110.32H4.09995ZM31.73 112.17C31.71 114.73 31.71 117.31 31.73 119.87C31.73 119.94 31.73 120.01 31.73 120.08C31.73 120.15 31.73 120.22 31.73 120.29C31.73 120.39 31.73 120.5 31.73 120.6C31.73 120.67 31.73 120.74 31.73 120.81C31.73 121.02 31.73 121.22 31.73 121.43C31.73 121.5 31.73 121.57 31.73 121.64C31.76 122.78 31.5 122.91 32.71 123.39C32.81 123.33 32.76 123.1 32.76 122.98C32.81 121.49 32.87 119.98 32.87 118.52C32.87 117.06 32.67 115.45 32.87 113.94C32.9 113.73 32.84 113.58 32.93 113.33C33.22 112.5 34.09 112.82 34.2 113.48C34.46 115.06 34.01 117.27 34.21 118.92C34.06 119.29 34.21 119.61 34.21 119.94C34.21 121.31 34.23 122.69 34.13 124.04C34.15 124.13 35.06 124.68 35.19 124.72C35.33 124.76 35.37 124.71 35.34 124.57C35.42 121.59 34.96 118.39 35.34 115.43C35.42 114.79 35.89 114.04 36.36 114.86C36.37 114.89 36.35 114.94 36.36 114.96C36.39 115.01 36.43 115.18 36.46 115.27C36.46 115.43 36.4 115.7 36.56 115.78C36.56 115.85 36.56 115.92 36.56 115.99C36.56 116.43 36.56 116.88 36.56 117.33C36.56 117.4 36.56 117.47 36.56 117.54C36.56 117.75 36.56 117.95 36.56 118.16C36.56 118.26 36.56 118.37 36.56 118.47C36.56 118.5 36.56 118.54 36.56 118.57C36.56 118.74 36.56 118.91 36.56 119.08C36.56 119.35 36.56 119.63 36.56 119.9C36.56 119.93 36.56 119.97 36.56 120C36.56 120.32 36.69 120.6 36.66 120.92C36.87 122.2 36.58 123.86 36.77 125.07C36.84 125.5 36.95 125.4 37.17 125.54C37.25 125.59 37.29 125.61 37.38 125.64C37.4 125.64 37.4 125.74 37.43 125.74L37.58 125.64C37.58 124.41 37.58 123.17 37.58 121.94C37.58 121.91 37.58 121.87 37.58 121.84C37.58 120.57 37.6 119.23 37.58 117.94C37.58 117.7 37.58 117.46 37.58 117.22C37.56 116.1 37.51 114.96 37.48 113.83C37.48 113.63 37.51 113.42 37.46 113.23C36.12 112.56 34.88 111.63 33.54 110.94C33.17 110.75 32.21 110.24 31.88 110.14C31.69 110.08 31.74 110.17 31.73 110.29C31.66 110.83 31.73 111.61 31.73 112.19V112.17ZM28.13 124.71C28.03 124.74 27.85 124.64 27.82 124.77C27.84 125.8 27.6199 126.82 27.7199 127.85C27.74 128.03 27.7 127.98 27.82 128.11C28 128.29 28.25 128.11 28.48 128.11C28.98 128.1 29.4799 128.13 29.9699 128.11V124.51C29.34 124.46 28.73 124.56 28.12 124.72L28.13 124.71ZM15.4 125.01C13.78 125.03 12.33 125.14 10.73 125.22C9.94996 125.26 8.99999 125.12 8.25999 125.22C8.15999 125.23 7.90995 125.27 7.90995 125.38V127.74C7.90995 127.74 8.13996 128.38 8.16996 128.41C8.28996 128.56 8.43001 128.48 8.53001 128.51C9.13001 128.69 9.21 128.51 9.71 128.51C13.95 128.46 18.18 128.3 22.4 128.21C23.38 128.19 24.48 128.28 25.43 128.21C25.59 128.2 26.05 128.16 26.09 128C26.15 127.8 26.13 125.29 26.09 124.96C26.08 124.86 26.09 124.85 25.98 124.81C25.71 124.72 24.45 124.82 24.03 124.81C22.4 124.77 21.06 124.87 19.46 124.92C18.11 124.96 16.72 124.8 15.4 125.02V125.01ZM37.58 130.66C37.41 130.06 37.89 127.81 37.53 127.47C37.46 127.4 36.59 127.24 36.32 127.14C35.62 126.88 34.76 126.51 34.09 126.19C33.33 125.83 32.61 125.32 31.83 125.01V128.49C33.37 128.9 34.86 129.92 36.35 130.4C36.51 130.45 37.53 130.71 37.58 130.66ZM4.71995 125.22C4.58995 125.22 4.34997 125.03 4.11997 125.24C4.03997 126.36 4.15 127.49 4.21 128.61C4.35 128.61 4.47997 128.61 4.61997 128.61C4.64997 128.61 4.68995 128.61 4.71995 128.61C5.25995 128.63 5.81996 128.59 6.35996 128.61V125.89C6.35996 125.79 5.97996 125.28 5.91996 125.25C5.74996 125.18 5.59998 125.23 5.43998 125.22C5.19998 125.2 4.95995 125.22 4.71995 125.22ZM17.25 129.94C16.82 129.94 16.38 130.03 15.92 130.04C14.97 129.76 13.85 130.02 12.89 130.04C11.54 130.08 10.17 129.99 8.83 130.14C8.73 130.15 8.59 130.12 8.52 130.14C8.43 130.17 8.44996 130.17 8.41996 130.24C8.39996 130.28 8.42996 130.38 8.41996 130.45V130.55C8.35996 130.69 8.17997 130.76 8.10996 130.86C8.03996 130.95 8.03999 130.96 8.00999 131.07C7.71999 131.9 8.31996 133.6 8.10996 134.56L8.21 137.95H10.88C10.78 137.25 10.9 136.55 10.88 135.84C10.86 134.99 10.68 133.95 10.78 133.08C10.83 132.6 11.18 131.8 11.75 131.78C12.32 131.76 12.46 132.61 12.51 133.08C12.68 134.49 12.35 136.2 12.51 137.59C12.52 137.69 12.56 137.94 12.67 137.94H14.31C14.31 137.94 14.46 138.08 14.57 138.04C14.6 137.13 14.45 136.22 14.46 135.31C14.46 134.65 14.53 132.96 14.74 132.4C14.98 131.75 15.56 131.68 16.01 132.18C16.03 132.23 16 132.32 16.01 132.39C15.92 132.45 16.01 132.47 16.01 132.49C16.11 132.85 16.08 133.07 16.11 133.41C16.19 134.27 16.19 135.01 16.21 135.88C16.21 135.91 16.21 135.95 16.21 135.98C16.23 136.64 16.22 137.28 16.31 137.93C17.04 137.88 17.75 137.77 18.4699 137.93C18.6399 136.29 18.47 134.62 18.68 133C18.73 132.6 18.68 131.85 19.25 131.76C19.86 131.67 20.02 132.21 20.12 132.69C20.22 133.21 20.22 134.41 20.23 135C20.23 135.98 20.19 136.95 20.12 137.93H21.81C22.26 137.93 21.97 137.38 21.98 137.16C22.04 135.79 22.05 134.43 22.1 133.07C22.13 132.21 22.51 131.16 23.4 132.08C23.41 132.11 23.39 132.15 23.4 132.18C23.46 132.37 23.59 132.77 23.61 132.95C23.77 134.47 23.48 136.28 23.61 137.83H26.02C26.13 137.83 26.17 137.58 26.18 137.48C26.28 136.64 26.07 135.72 26.07 134.91C26.07 134.2 26.18 133.5 26.19 132.85C26.2 131.85 26.17 130.84 26.17 129.83C24.93 129.32 23.59 129.79 22.33 129.83C21.09 129.87 19.79 129.76 18.53 129.82C18.12 129.84 17.69 130 17.25 129.93V129.94ZM29.98 129.94C29.98 129.94 30.13 129.83 30.08 129.74C29.3 129.47 28.51 129.77 27.7199 129.74V137.75C27.83 138.06 29.72 137.75 30.08 137.85C30.05 135.92 30.12 133.98 30.08 132.04C30.07 131.36 29.9599 130.63 29.9699 129.94H29.98ZM4.09995 131.38C4.04995 133.47 4.05996 135.57 4.03996 137.65C4.06996 137.72 4.09 137.8 4.15 137.85C4.3 138 6.08999 138.03 6.44999 137.94L6.35996 130.35C6.18996 130.34 6.01996 130.37 5.84996 130.35C5.29995 130.3 4.74999 130.23 4.19999 130.19C4.01999 130.32 4.10995 131.11 4.09995 131.38ZM36.76 137.96C37.03 137.99 37.31 137.94 37.58 137.96L37.53 132.62L31.88 130.36L31.62 137.96H32.85C32.87 137.11 32.82 133.12 33.48 132.74C34.09 132.39 34.23 133.72 34.28 134.06V135.7C34.28 135.77 34.28 135.84 34.28 135.91C34.28 135.94 34.28 135.98 34.28 136.01C34.28 136.18 34.28 136.35 34.28 136.52C34.28 136.59 34.28 136.66 34.28 136.73C34.28 137.04 34.28 137.35 34.28 137.65C34.28 137.75 34.28 137.86 34.28 137.96C34.5 138.04 34.66 137.89 34.79 137.86C34.89 137.84 35.17 137.89 35.2 137.86C35.22 137.84 35.2 137.46 35.2 137.35C35.2 137.25 35.2 137.14 35.2 137.04C35.21 136.43 35.2 135.81 35.2 135.19C35.25 134.9 35.34 134.42 35.46 134.16C35.53 134 35.62 133.85 35.78 133.75C35.92 133.73 36.25 134.1 36.32 134.22C36.38 134.33 36.63 135.07 36.64 135.18C36.64 135.25 36.64 135.32 36.64 135.39C36.68 135.79 36.64 136.31 36.64 136.73C36.64 136.76 36.64 136.8 36.64 136.83C36.64 136.93 36.64 137.04 36.64 137.14C36.64 137.43 36.64 137.68 36.54 137.96C36.61 137.96 36.68 137.96 36.74 137.96H36.76Z" fill="#040302"/>
<path d="M22.21 64.06C24.02 65.68 25.1699 67.57 25.3599 70.1C25.8599 76.9 18.0099 81.6999 12.1599 78.2699C2.06994 72.3499 13.1 55.89 22.21 64.06ZM16.6099 66.03C17.0099 65.8 17.23 63.7399 16.9 63.4799C15.77 62.5899 15.1999 65.67 15.9099 66.01C16.0599 66.08 16.4799 66.11 16.6099 66.04V66.03ZM21.5399 66.44C21.7499 66.08 21.3899 65.46 20.9799 65.35C20.2899 65.17 20.5399 65.4599 20.2899 65.7399C19.9799 66.0899 19.52 66.34 19.18 66.67C18.76 67.08 17.38 68.66 16.88 68.72C16.66 68.75 16.4099 68.61 16.1699 68.6C15.9399 68.6 15.5899 68.74 15.4699 68.7C15.3299 68.66 14.48 67.4399 13.94 67.4899C13.09 67.5699 13.33 68.3499 13.65 68.8699C13.81 69.1299 14.58 69.7299 14.58 69.7999C14.58 69.9399 14.41 70.08 14.39 70.23C14.15 71.65 15.5 72.8399 16.88 72.6099C17.2 72.5599 17.93 71.89 18.02 71.59C18.18 71.08 17.95 70.5899 17.99 70.2099C18.04 69.7699 19.8899 68.28 20.2899 67.85C20.6099 67.51 20.84 67.06 21.14 66.7C21.25 66.57 21.51 66.4599 21.53 66.4299L21.5399 66.44ZM12.3 65.76C11.86 65.49 10.91 66.4799 11.78 67.1799C12.65 67.8799 13.38 67.05 12.82 66.32C12.71 66.18 12.5499 66.1099 12.4199 65.9899C12.3599 65.9299 12.34 65.78 12.3 65.75V65.76ZM24.33 69.95C23.54 70.35 21.7499 69.49 21.5999 70.66C21.4999 71.48 22.54 71.34 23.15 71.29C24.13 71.21 24.66 71.05 24.33 69.95ZM11.1699 71.57C11.3399 71.42 11.1699 70.57 10.9199 70.48C10.6099 70.37 8.80994 70.51 8.72994 70.84C8.39994 72.17 10.78 71.93 11.18 71.57H11.1699ZM13.32 74.3999C12.39 73.4699 10.77 76.3899 12.46 76.1199C13.06 76.0199 13.77 74.8499 13.32 74.3999ZM20.5 75.44C20.79 75.77 21.1799 76.4899 21.6699 76.0799C21.7399 76.0199 22.0399 75.62 22.0399 75.56C22.0399 75.4 21.13 74.3 20.89 74.28C20.36 74.23 20.3899 74.47 20.2299 74.72C20.1399 74.85 19.83 74.75 20.18 75.2C20.28 75.32 20.42 75.36 20.5 75.44ZM17.32 78.25C17.57 77.94 17.41 75.92 17.15 75.76C16.85 75.58 16.3 75.79 16.15 76.09C15.88 76.62 16.15 77.4 15.94 77.95C16.32 78.3 16.86 78.8299 17.33 78.2399L17.32 78.25Z" fill="#FDFBF6"/>
<path d="M25.05 38.73C25.05 38.87 25.03 39.03 25.07 39.17C25.87 41.74 27.36 44.32 28.45 46.78L29.66 49.52C29.4 49.52 29.15 49.61 28.89 49.63C27.03 49.76 24.93 49.57 23.03 49.63C18.19 49.76 13.37 50.13 8.56 50.46C7.77 50.51 6.92003 50.74 6.15003 50.56C6.04003 50.4 7.81999 48.48 8.03999 48.19C9.29999 46.56 10.41 44.75 11.47 42.99C11.81 42.42 13.1 39.84 13.45 39.63C13.65 39.51 14.01 39.45 14.24 39.4C15.84 39.07 17.26 39.4 18.73 39.26C20.02 39.14 21.33 38.95 22.63 38.85C23.43 38.79 24.24 38.75 25.04 38.75L25.05 38.73ZM24 41.32C23.18 40.5 22.1 42.79 23.01 43.29C23.09 43.33 23.57 43.48 23.61 43.45C23.75 43.02 24.35 41.66 24 41.32ZM14.56 41.42C14.5 41.39 14.15 41.49 14.09 41.53C14 41.6 13.46 43.14 13.45 43.31C13.43 43.79 14.17 43.9 14.45 43.74C14.66 43.62 15 42.36 14.98 42.08C14.98 41.93 14.64 41.46 14.55 41.42H14.56ZM18.51 43.52C19.36 44.15 19.99 42.12 19.61 41.65C19.1 41.03 18.61 41.81 18.43 42.32C18.3 42.68 18.15 43.25 18.51 43.52ZM24.77 46.72C24.89 46.85 25.32 46.88 25.5 46.83C26.01 46.68 26.3 45.01 25.58 44.84C24.86 44.67 24.32 46.25 24.78 46.72H24.77ZM21.56 47.67C21.63 47.61 21.99 46.2 21.97 45.99C21.93 45.64 21.56 45.35 21.22 45.43C20.88 45.51 20.58 46.59 20.63 46.9C20.67 47.16 21.38 47.83 21.55 47.68L21.56 47.67ZM16.91 45.75C16.78 45.58 16.31 45.42 16.11 45.56C16.03 45.62 15.6 47.08 15.62 47.29C15.68 47.75 15.87 47.91 16.27 48.09C16.59 47.62 17.28 46.26 16.9 45.76L16.91 45.75ZM12.41 45.93C12.36 45.85 11.9 45.79 11.76 45.81C11.22 45.89 10.22 48.14 11.64 47.97C12.26 47.89 12.62 46.28 12.41 45.93Z" fill="#497373"/>
<path d="M24.0301 90.81C24.5501 90.98 25.3601 90.98 25.8801 90.81C25.9501 90.81 26.0201 90.81 26.0901 90.81C25.8901 91.45 26.3101 93.86 26.0701 94.28C26.0601 94.3 25.63 94.59 25.61 94.59C25.14 94.72 25.09 94.22 24.86 94.05C24.74 93.96 24.55 93.96 24.42 93.87C23.87 93.5 23.9501 93.08 23.6401 92.55C23.3701 92.09 22.9201 91.75 22.5301 92.31C22.0401 93 22.2501 94.21 22.2101 95.02C21.9301 94.97 21.9301 94.33 21.9001 94.3C21.8501 94.25 21.5801 94.39 21.4501 94.37C21.1401 94.33 21.03 94.09 20.54 94.3C20.41 94.35 20.53 94.54 20.36 94.5C20.42 94.32 20.2801 94.19 20.2601 94.09C20.1601 93.7 20.2001 92.38 20.0601 92.29C19.8901 92.17 19.2701 92.23 19.0901 92.36C18.9101 92.49 18.77 93.03 18.72 93.28L18.3101 94.36C18.1001 94.57 17.0701 94.89 16.8401 94.82C16.6901 94.77 16.69 94.54 16.61 94.42C16.55 94.34 16.3901 94.33 16.3701 94.24C16.2301 93.71 16.5701 93.09 15.9601 92.57C15.3501 92.05 15.04 92.6 14.73 93.08C14.37 93.64 14.6501 93.71 14.5101 94.14C14.5001 94.18 13.95 94.75 13.92 94.78C13.71 94.93 13.5001 94.91 13.3401 95.02C13.1101 95.19 13.1401 95.64 12.6301 95.54L12.48 95.13C12.48 94.62 12.53 94.02 12.48 93.54C12.34 92.32 11.4001 91.91 11.0701 93.26C10.8101 94.32 10.9301 95.5 10.8401 96.57C10.5901 96.5 10.5701 96.79 10.5701 96.94C10.5601 97.48 10.7801 99.63 10.5801 99.96C10.5001 100.09 10.09 100.19 9.92004 100.32C9.72004 100.48 9.38003 100.96 9.16003 100.96C8.94003 100.96 8.71007 100.58 8.70007 100.39C8.69007 100.2 9.64008 99.33 8.27008 99.64V98.82L8.06006 99.74L8.16003 91.01C10.12 91.06 12.09 90.97 14.05 90.95C17.39 90.9 20.7301 90.77 24.0801 90.81H24.0301Z" fill="#F7A804"/>
<path d="M20.64 15.51C20.64 15.51 20.64 15.79 20.69 15.92C21.91 19.01 23.16 23.25 24 26.48C24.08 26.79 24.3 27.82 24.24 28.07C24.15 28.4 22.38 28.52 22.03 28.55C20.06 28.71 18.03 28.7 16.08 28.76C15.66 28.77 15.16 28.96 14.69 28.86C14.66 28.64 14.7 28.47 14.77 28.27C15.36 26.51 17.03 24.22 17.74 22.41C17.99 21.86 18.13 21.31 18.57 20.88L20.21 15.74C20.23 15.56 20.55 15.42 20.64 15.5V15.51ZM20.32 22.9C20.32 22.9 20.61 22.26 20.62 22.22C20.98 20.66 19.61 20.74 19.71 22.25C19.73 22.55 19.96 23.2 20.32 22.9ZM18.24 25.3C17.97 24.96 17.43 25.14 17.29 25.48C17.24 25.6 17.32 26.45 17.32 26.66C17.33 26.96 17.08 27.16 17.8 27.13C18.4 27.11 18.57 25.74 18.23 25.3H18.24ZM21.87 25.17C20.7 24.87 20.7 27.41 21.62 26.72C22.09 26.37 21.92 25.66 21.87 25.17Z" fill="#497373"/>
<path d="M33.06 75.91C33.06 72.88 32.89 69.8999 32.89 66.8999C32.89 65.6299 33.02 64.34 32.95 63.07C33.11 63.04 33.19 63.0899 33.31 63.1699C34.47 63.9099 35.47 64.8499 36.55 65.6799C37.29 66.2499 38.07 66.7699 38.85 67.2799C39 72.0899 38.82 76.91 38.9 81.72C38.9 81.96 39.01 82.1899 39.01 82.4299C39.03 83.1299 39.04 83.85 38.9 84.54C37.62 83.96 36.62 82.91 35.38 82.26C35.28 82.21 35.13 82.28 35.12 82.26C35.08 82.21 35.12 82.04 35 81.92C34.69 81.58 33.48 81.0299 33.05 80.6799C32.92 80.5799 32.97 80.45 32.95 80.32C33.37 80.37 33.06 80.1 33.05 80.01C33.05 79.94 33.05 79.8699 33.05 79.7999C33.22 79.3799 33.22 78.59 33.05 78.16C33.05 78.09 33.05 78.02 33.05 77.95C33.22 77.35 33.22 76.4799 33.05 75.8999L33.06 75.91ZM34.09 69.2399C33.92 69.5299 33.92 70.2 34.09 70.47C34.09 70.54 34.09 70.6099 34.09 70.6799C33.92 71.3799 33.92 72.34 34.09 73.04C34.09 73.28 34.09 73.52 34.09 73.76V73.8599C34.09 73.9299 34.09 74 34.09 74.07C34.04 74.08 33.99 74.13 33.99 74.17C33.99 74.24 33.99 74.31 33.99 74.38C33.8 74.8 33.89 75.43 33.89 75.92C33.89 76.91 33.64 79.6399 34.45 80.2399C34.98 80.6299 35.18 79.9999 35.33 79.6199C35.86 78.2699 35.8 76.2099 35.74 74.7399C35.74 74.5399 35.85 74.33 35.53 74.39C35.53 74.32 35.53 74.2499 35.53 74.1799C35.87 73.8699 35.64 73.53 35.64 73.22C35.67 71.4 35.81 69.52 35.73 67.66C35.73 67.46 35.84 67.2499 35.52 67.3099C35.52 67.1499 35.6 66.9 35.56 66.79C35.44 66.46 34.63 65.5199 34.34 66.1799C34.26 66.3599 34.1 67.7799 34.08 68.0799C34.05 68.4699 34.09 68.87 34.08 69.26L34.09 69.2399ZM36.55 70.88C36.24 70.82 36.35 71.04 36.34 71.23C36.3 72.54 36.32 73.9299 36.34 75.2399C36.34 75.4099 36.27 75.6999 36.44 75.7999C36.44 75.9699 36.44 76.1399 36.44 76.3099L36.37 76.39L36.44 76.51C36.44 77.8 36.29 79.66 36.44 80.88C36.46 81.04 36.63 81.62 36.7 81.75C36.88 82.08 37.59 82.05 37.73 81.72C37.87 81.39 37.96 80.3599 37.98 79.9599C38.09 77.9099 37.98 75.6599 37.98 73.5799C37.98 72.1399 38.15 70.42 37.98 68.97C37.93 68.52 37.34 67.18 36.85 67.82C36.56 68.2 36.57 70.2999 36.55 70.8599V70.88Z" fill="#D28300"/>
<path d="M17.25 129.94C19.36 129.94 21.5099 129.89 23.6599 129.83C24.4299 129.81 25.2099 129.85 25.9799 129.83C25.9799 130.98 25.9799 132.13 25.9799 133.28C25.9799 134.19 25.9499 135.12 25.9799 136.05C25.9799 136.28 26.2099 136.96 25.9699 137.11C25.8999 137.15 25.09 137.32 24.96 137.29C24.73 137.23 23.8 136.4 23.75 136.24C23.57 135.73 23.7799 133.62 23.7299 132.87C23.7299 132.73 23.6999 132.11 23.4199 132.2C23.4099 132.17 23.4299 132.13 23.4199 132.1C23.2699 131.67 22.83 131.34 22.44 131.69C22.4 131.72 21.9999 132.5 21.9799 132.57C21.8499 133.27 22.16 134.59 21.87 135.21C21.83 135.29 21.28 135.56 21.18 135.58C20.42 135.7 20.8499 134.83 20.8499 134.42C20.8399 133.76 20.62 133.16 20.13 132.72C20.04 132.24 19.88 131.71 19.26 131.79C18.68 131.87 18.74 132.62 18.69 133.03C18.23 133.03 18.5199 133.38 18.4099 133.62C18.2999 133.86 17.9799 134.11 17.9099 134.47C17.8299 134.96 18.2999 135.37 17.8599 135.86C17.7699 135.97 17.21 136.29 17.14 136.22C17.11 136.19 17.03 135.52 16.63 135.6C16.71 135.91 16.5199 136.54 16.2199 136.01C16.2199 135.98 16.2199 135.94 16.2199 135.91C16.3999 135.82 16.36 135.61 16.43 135.47C16.48 135.38 16.63 135.38 16.63 135.34C16.63 135.14 16.39 134.98 16.34 134.81C16.26 134.52 16.32 134.12 16.32 133.8C16.32 133.6 16.4199 133.39 16.1099 133.45C16.0799 133.1 16.11 132.89 16.01 132.53V132.43C16 132.37 16.03 132.28 16.01 132.22C15.93 131.97 15.7399 131.84 15.7299 131.75C15.6999 131.62 15.88 131.29 15.81 131.2C15.71 131.08 14.76 131.12 14.53 131.09C13.98 131.02 13.82 130.98 13.21 130.95C12.95 130.94 12.4899 130.76 12.2899 130.8C12.1699 130.83 12.0499 130.99 11.9099 131.04C11.2799 131.24 10.7 131.49 10.13 131.83C9.19997 132.38 10.41 133.23 10.26 134.01C10.17 134.47 9.45998 134.44 9.07998 134.37C8.79998 134.32 8.74994 134.05 8.53994 133.98C7.97994 133.79 8.33994 134.26 8.09994 134.58C8.30994 133.62 7.69996 131.91 7.99996 131.09L8.09994 130.88C8.16994 130.78 8.34994 130.71 8.40994 130.57L8.81997 130.52L8.40994 130.47C8.41994 130.41 8.38994 130.31 8.40994 130.26L8.50997 130.16C8.57997 130.14 8.71997 130.17 8.81997 130.16C8.92997 130.33 9.20997 130.26 9.37997 130.26C11.53 130.29 13.78 130.1 15.9 130.05C16.37 130.04 16.7999 129.95 17.2299 129.95L17.25 129.94ZM8.30996 133.74V133.33H8.20998V133.74H8.30996Z" fill="#F7A804"/>
<path d="M22.38 109.61C22.07 110 22.78 109.72 22.98 109.84C23.03 109.87 23.06 110.06 23.15 110.13C23.55 110.46 24.57 111.16 23.44 111.34C22.64 111.47 22.38 110.77 22.13 110.74C21.9 110.71 20.9 111.06 20.48 111.06C19.52 111.06 18.57 110.85 17.52 110.95C17.21 110.98 17 111.32 16.68 111.36C16.28 111.41 15.51 111.3 15.06 111.37C14.48 111.46 13.94 111.78 13.59 111.85C13.43 111.88 13.26 111.75 13.11 111.77C12.86 111.81 12.41 111.9 12.18 111.96C11.95 112.02 12 112.08 11.92 112.27C11.64 112.08 11.4 111.95 11.06 112.16C11 112.2 10.68 112.89 10.68 112.94V123.37L8.06999 123.48C7.94999 123.45 8.03999 123.26 8.00999 123.17C8.00999 122.42 8.00999 121.66 8.00999 120.91C8.00999 119.55 8.00999 118.2 8.00999 116.86C8.00999 114.59 7.98999 112.31 8.00999 110.03C9.41999 109.86 10.85 109.97 12.27 109.93C15.64 109.83 19.02 109.65 22.38 109.62V109.61Z" fill="#F6B114"/>
<path d="M22.3799 109.61C23.6399 109.6 24.9099 109.62 26.1799 109.61C26.1699 110.05 26.1999 110.5 26.1799 110.95C26.1099 112.74 26.0599 114.62 25.9699 116.44C25.9499 116.94 26.0699 117.76 25.9799 118.19C25.9599 118.31 25.6799 118.19 25.6599 118.3C25.5599 118.8 25.8699 118.78 25.8799 118.81C25.9499 119.24 25.36 119.29 25.27 119C25.19 118.74 25.43 118.52 25.46 118.29C25.54 117.71 25.1299 117.6 24.8599 117.26C24.7299 117.1 24.7 116.8 24.53 116.66C24.32 116.49 23.9399 116.52 23.9199 116.5C23.8099 116.39 23.9599 113.93 23.9199 113.47C23.8899 113.17 23.81 113.12 23.71 112.9C23.55 112.53 23.2199 111.8 22.7599 111.89C21.9899 112.04 22.0899 113.64 22.0699 114.24C21.7699 114.18 21.8499 114.4 21.8699 114.59C21.9099 115.07 21.9799 115.66 21.9799 116.13C21.9599 117.24 21.7799 118.35 21.8699 119.47H21.5599C21.5799 119.12 21.5199 118.75 21.5599 118.4C21.5799 118.21 21.7699 118.03 21.7599 117.88C21.7199 117 21.1999 115.96 20.9699 115.08C20.8699 114.69 20.8999 113.58 20.5499 113.27C20.3999 113.14 20.19 113.25 20.14 113.2C20 113.07 20.2299 112.41 19.5099 112.28C19.1599 112.22 19.0599 112.1 18.6899 112.38C18.4599 112.56 18.3299 112.97 18.2899 113.26C18.1999 113.94 18.36 114.86 18.28 115.5C18.25 115.72 18.0299 115.89 18.0099 116.14C17.9699 116.53 18.3399 116.38 18.2899 116.69C17.3899 116.83 17.5299 115.75 16.9999 115.16C16.7699 114.9 16.48 114.85 16.46 114.83C16.41 114.78 16.4499 113.89 16.4299 113.68C16.4299 113.55 16.3999 112.91 16.1299 113C15.7999 111.45 14.7599 112.05 14.6899 113.31C14.4799 113.24 14.5099 113.49 14.4099 113.51C14.1699 113.57 14.0199 113.48 13.7299 113.63C13.0299 113.98 13.2499 115.04 12.4299 114.95V113.26C12.4299 113 12.2 112.59 12.02 112.39C11.99 112.36 11.9499 112.31 11.9199 112.29C11.9999 112.1 11.9499 112.04 12.1799 111.98C12.4099 111.92 12.8599 111.83 13.1099 111.79C13.2599 111.77 13.43 111.9 13.59 111.87C13.94 111.8 14.4799 111.47 15.0599 111.39C15.5099 111.32 16.2899 111.43 16.6799 111.38C16.9999 111.34 17.21 111 17.52 110.97C18.57 110.87 19.5199 111.08 20.4799 111.08C20.8999 111.08 21.8999 110.73 22.1299 110.76C22.3799 110.8 22.6399 111.49 23.4399 111.36C24.5699 111.18 23.55 110.48 23.15 110.15C23.07 110.08 23.0299 109.89 22.9799 109.86C22.7799 109.74 22.0799 110.02 22.3799 109.63V109.61Z" fill="#F7A804"/>
<path d="M16.84 51.67C16.88 51.83 17.22 51.82 17.25 51.67C17.32 51.67 17.39 51.67 17.46 51.67C17.47 51.67 17.57 51.77 17.71 51.78C17.92 51.8 18.86 51.73 18.9 51.78C18.92 51.8 18.88 52.0801 18.93 52.2101C18.99 52.3901 19.2 52.48 19.06 52.7C19 52.8 18.71 52.88 18.59 53.06C18.44 53.27 18.31 53.82 18.29 54.09C18.24 54.61 18.58 56.19 17.67 55.73C17.24 55.52 17.79 54.6001 16.85 54.9601C16.8 54.9001 16.9 54.18 16.85 54C16.82 53.88 16.65 53.95 16.64 53.94C16.51 53.75 16.5 53.43 16.38 53.23C16.27 53.05 15.93 52.9 15.92 52.81C15.92 52.81 16.02 52.7601 16.02 52.7101C14.28 52.5901 14.74 54.6101 14.57 55.6301C14.51 56.0301 13.95 56.38 13.65 56.16C13.43 56 13.74 55.51 13.35 55.59C13.36 54.76 13.36 53.19 12.24 53.04C11.56 52.95 11.63 53.4101 11.39 53.7401C11.39 53.7501 11.21 53.69 11.18 53.8C11.05 54.31 11.2 56.07 11.29 56.66C11.32 56.85 11.16 57.08 11.49 57.0201C11.49 57.0901 11.49 57.16 11.49 57.22L9.84998 57.3201V55.3201C9.84998 54.3301 9.50002 52.7401 8.21002 53.2101C8.05002 53.2701 7.98998 53.24 7.84998 53.42C7.29998 54.15 7.7 56.48 7.69 57.43C7.19 57.44 6.69001 57.41 6.20001 57.43C6.00001 57.43 5.78998 57.33 5.84998 57.64C5.51998 57.64 4.21 57.74 4.12 57.47V52.7101C5.77 52.6601 7.42003 52.34 9.09003 52.2C11.5 51.99 14.5 51.66 16.84 51.69V51.67Z" fill="#F7A804"/>
<path d="M37.48 95.1201C37.31 95.2301 37.38 95.5101 37.38 95.6801C37.37 96.7401 37.35 97.8101 37.38 98.8701C37.38 99.0701 37.28 99.2801 37.59 99.2201C37.61 101.89 37.43 104.56 37.49 107.23C37.42 107.31 36.43 106.75 36.4 106.57C36.53 105.65 36.44 104.71 36.46 103.79C36.51 101.67 36.78 99.3601 36.55 97.2301C36.53 97.0101 36.26 95.9201 36.14 95.8501C36.06 95.8001 35.81 95.8101 35.71 95.8501C35.39 95.9701 35.27 97.23 35.23 97.58C35.08 98.8 35.11 100.08 35.13 101.33C35.13 101.5 35.06 101.79 35.23 101.89C35.23 103.24 35.12 104.56 35.23 105.9C35.19 105.94 34.27 105.4 34.23 105.36C33.96 105.08 34.2 104.63 34.21 104.31C34.24 101.77 34.48 98.5201 34.31 96.0901C34.27 95.5501 34.15 94.0101 33.28 94.4401C32.93 94.6101 33.1 95.69 33.07 96.08C32.98 97.21 32.86 98.3401 32.76 99.4701L32.87 104.15C32.78 104.23 31.92 103.95 31.86 103.78L31.74 91.3101L34.38 93.0401C35.07 93.4401 37.02 94.1901 37.4 94.7501C37.5 94.9101 37.46 94.98 37.5 95.11L37.48 95.1201Z" fill="#D28300"/>
<path d="M25.36 88.96C25.54 88.68 25.46 88.77 25.21 88.75C23.09 88.65 19.83 89.07 17.92 88.73C17.86 88.72 17.88 88.59 17.79 88.56C17.45 88.43 16 87.83 17.2 87.73C17.92 87.67 18.73 87.75 19.46 87.73C22.39 87.66 25.33 87.67 28.29 87.63C28.77 87.63 29.23 87.46 29.77 87.63C29.73 88.13 29.84 88.73 29.77 89.21C29.72 89.56 29.4 89.81 29.36 90.05C29.32 90.33 29.49 90.84 29.46 91.27C29.41 91.92 29.17 92.82 29.15 93.43C29.12 94.16 29.53 95.19 29.57 95.94L29.88 95.74L29.78 103.24C29.26 103.24 28.71 103.34 28.24 103.44C28.19 103.45 27.75 103.7 27.73 103.48C27.66 101.05 27.8 98.62 27.83 96.2C27.83 95.86 27.65 95.49 27.83 95.07L27.9099 89.54C27.7099 88.69 26.05 88.99 25.36 88.95V88.96Z" fill="#F7A804"/>
<path d="M25.98 124.81C26.07 125.35 25.88 125.89 25.87 126.4C25.87 126.67 25.98 126.89 25.98 127.12C25.98 127.33 25.64 128.04 26.08 127.99C26.03 128.15 25.57 128.19 25.42 128.2C24.47 128.26 23.36 128.17 22.39 128.2C22.76 127.94 23.17 128.13 23.57 128.1C23.82 128.08 24.34 127.89 23.88 127.79C23.6 127.73 22.79 127.68 23.15 127.16C23.25 127.02 23.58 127.17 23.51 126.92C22.97 125.56 22.07 126.43 21 126.46C20.57 126.47 20.23 126.35 19.87 126.35C19.05 126.35 18.23 126.41 17.42 126.37C16.84 126.73 17.76 127.01 17.55 127.27C17.47 127.37 16.28 127.58 16.06 127.59C15.62 127.61 15.42 127.37 15.04 127.37C14.43 127.37 13.57 127.68 13.09 127.7C12.67 127.72 12.16 127.51 11.65 127.58C11.34 127.62 11.24 127.81 10.83 127.8C10.47 127.8 10.05 127.47 9.91998 127.5C9.73998 127.54 9.67998 127.85 9.53998 127.94C9.41998 128.01 9.25001 127.99 9.14001 128.05C8.95001 128.16 8.94002 128.47 8.52002 128.51C8.42002 128.48 8.27997 128.56 8.15997 128.41C8.13997 128.38 7.90002 127.78 7.90002 127.74V125.38C7.90002 125.27 8.15 125.23 8.25 125.22C9 125.13 9.93997 125.27 10.72 125.22C12.32 125.14 13.77 125.03 15.39 125.01C18.04 124.98 20.79 124.97 23.45 124.99C23.62 124.99 23.88 124.93 24.01 124.81C24.43 124.82 25.69 124.72 25.96 124.81H25.98Z" fill="#F7A804"/>
<path d="M31.73 112.17C31.73 111.59 31.66 110.81 31.73 110.27C31.75 110.15 31.69 110.06 31.88 110.12C32.21 110.22 33.17 110.73 33.54 110.92C34.89 111.61 36.12 112.54 37.46 113.21C37.5 113.41 37.46 113.61 37.48 113.81C37.31 113.92 37.38 114.2 37.38 114.37C37.37 115.19 37.35 116.02 37.38 116.84C37.38 117.04 37.28 117.25 37.59 117.19C37.59 117.43 37.59 117.67 37.59 117.91C37.28 117.85 37.39 118.07 37.38 118.26C37.29 120.49 37.51 122.83 37.38 125.05C37.37 125.24 37.4 125.43 37.17 125.51C36.95 125.37 36.83 125.47 36.77 125.04C36.58 123.83 36.87 122.16 36.66 120.89C36.84 120.36 36.87 119.51 36.56 119.04C36.56 118.87 36.56 118.7 36.56 118.53L36.66 118.48L36.56 118.43C36.56 118.33 36.56 118.22 36.56 118.12C36.94 118.21 36.73 117.69 36.56 117.5C36.56 117.43 36.56 117.36 36.56 117.29C36.73 116.98 36.73 116.28 36.56 115.95C36.56 115.88 36.56 115.81 36.56 115.74C36.56 115.73 36.67 115.67 36.65 115.51C36.63 115.34 36.47 115.27 36.46 115.23C36.43 115.14 36.39 114.97 36.36 114.92L36.46 114.87L36.36 114.82C35.89 114 35.43 114.76 35.34 115.39C34.95 118.34 35.42 121.55 35.34 124.53C35.37 124.67 35.33 124.72 35.19 124.68C35.07 124.64 34.15 124.09 34.13 124C34.23 122.65 34.22 121.27 34.21 119.9C34.21 119.57 34.06 119.26 34.21 118.88C34.01 117.23 34.46 115.01 34.2 113.44C34.09 112.78 33.22 112.46 32.93 113.29C32.84 113.54 32.9 113.69 32.87 113.9C32.56 113.84 32.67 114.06 32.66 114.25C32.55 117.04 32.8 119.79 32.56 122.58C32.54 122.77 32.47 122.99 32.76 122.93C32.76 123.05 32.81 123.28 32.71 123.34C31.5 122.86 31.76 122.74 31.73 121.59L31.83 121.44L31.73 121.39C31.73 121.18 31.73 120.98 31.73 120.77L31.83 120.62L31.73 120.57C31.73 120.47 31.73 120.36 31.73 120.26L31.83 120.11L31.73 120.06C31.73 119.99 31.73 119.92 31.73 119.85V112.15V112.17Z" fill="#D28300"/>
<path d="M30.8 81.67C30.85 81.88 30.55 82.01 30.41 82.05C29.59 82.28 28.4 81.87 28.17 82.89C28 83.68 28.26 83.56 28.41 84C28.54 84.37 28.46 84.83 28.9 85.16C29.12 85.22 29.19 84.73 29.43 84.66C29.7 84.58 29.94 84.81 30.17 84.7C30.29 84.65 30.49 84.35 30.64 84.23C30.74 84.14 30.96 84.15 30.98 84.12C31.04 84.05 30.98 83.73 31 83.58C31.05 83.34 31.13 83.09 31.2 82.85C31.25 82.66 31.08 82.49 31.41 82.7C31.38 82.93 31.23 83.1 31.2 83.36C31.13 84.02 31.26 84.8 31.2 85.47H27.91V83.16C27.91 82.84 26.96 82.64 26.58 82.8C26.63 82.09 25.33 82.18 24.99 82.49C24.92 82.55 24.63 83.02 24.63 83.06V85.27L26.07 85.17C26.12 85.12 26.04 83.94 26.07 83.68C26.11 83.44 26.22 83.42 26.27 83.32C26.13 84.07 26.17 84.82 26.17 85.58H24.58C24.58 85.58 24.5 85.71 24.43 85.68V83.68C24.43 83.6 24.57 83.48 24.52 83.19C24.43 82.73 23.91 82.46 23.47 82.62C23.43 82.64 23.15 82.94 23.09 83.01C23.11 82.36 22.24 82.3 21.8 82.59C21.77 82.61 21.36 83.15 21.35 83.18C21.3 83.39 21.41 84.56 21.47 84.78C21.55 85.07 22.13 85.17 21.96 85.37C21.93 85.41 21.72 85.29 21.76 85.47C21.93 85.45 22.16 85.51 22.32 85.47C22.42 85.45 22.24 84.99 22.79 85.15C22.68 84.48 22.67 83.53 23.1 82.99C23.1 83.27 22.95 83.67 22.93 83.98C22.91 84.49 23.02 85.1 22.89 85.66H21.25V83.45C21.25 83.21 20.87 82.59 20.59 82.58C20.24 82.57 19.71 83.31 19.71 83.55V85.66H17.86C17.71 84.85 18.4 82.87 17.18 82.79C15.72 82.69 15.94 84.8 16.01 85.76H14.16C14.16 85.62 14.16 85.49 14.16 85.35C14.49 85.22 14.26 85.79 14.52 85.66C14.61 85.61 14.62 85.44 14.71 85.39C14.8 85.33 14.93 85.33 15.04 85.26C15.29 85.09 15.37 84.76 15.81 84.84C15.77 84.22 16 83.56 15.79 82.97C15.65 82.59 15.11 82.64 14.99 82.43C14.84 82.15 15.44 82.39 15.4 82.18C14.91 82.3 14.03 82.1 13.61 82.18C13.56 82.18 13.44 82.75 13.45 82.83C13.46 82.91 13.6 82.95 13.66 83C13 82.81 12.33 83.29 12.33 83.98V85.88H10.48V83.67C10.48 83.44 9.90999 82.99 9.60999 83C9.22999 83.02 8.88002 83.6 8.83002 83.92C8.87002 83.51 8.72998 83.21 8.34998 83.01C7.54998 82.59 7.51003 83.84 7.59003 84.39C7.62003 84.62 8.02002 85.15 7.90002 85.26C7.82002 85.34 7.47003 85.03 7.59003 85.77C7.78003 85.77 8.51998 85.79 8.59998 85.65C8.66998 85.54 8.6 85.1 8.62 84.89C8.66 84.59 8.80001 84.16 8.82001 83.91C8.76001 84.25 8.79998 85.68 8.66998 85.87C8.45998 86.17 7.51998 85.73 7.16998 85.97V83.56C7.16998 83.17 6.38998 82.84 5.97998 83.09C5.92998 83.12 5.53003 83.63 5.53003 83.66V85.92C5.53003 86.16 5.09998 85.97 4.97998 85.98C4.27998 86.04 3.57999 86.13 2.85999 86.07C2.60999 84.89 2.94 83.7 2.75 82.54C2.81 82.2 5.76001 82.28 6.20001 82.27C13.25 82.02 20.29 81.92 27.36 81.76C28.5 81.73 29.67 81.6 30.8 81.65V81.67ZM5.34003 85.88V83.88C5.34003 83.79 3.96 83 3.75 83C3.31 83 3.41003 83.29 3.28003 83.54C3.23003 83.63 3.10002 83.59 3.08002 83.77C3.06002 83.94 3.05002 84.42 3.08002 84.58C3.10002 84.66 3.27 84.65 3.31 84.78C3.38 84.98 3.45002 85.55 3.58002 85.64C3.70002 85.72 3.90003 85.55 4.03003 85.59C4.16003 85.63 4.15002 85.86 4.27002 85.89C4.54002 85.96 5.02002 85.84 5.33002 85.89L5.34003 85.88ZM12.32 83.42C10.57 82.76 10.9 83.09 10.89 84.5C10.89 84.73 10.74 85.01 10.79 85.19C10.88 85.48 11.66 85.88 11.9 85.66C11.93 85.63 11.89 85.47 11.94 85.4C12 85.32 12.16 85.32 12.2 85.2C12.3 84.93 12.11 84.66 12.12 84.4C12.12 84.2 12.37 83.5 12.31 83.42H12.32ZM18.07 83.31C18.01 83.38 18.11 84.8 18.07 85.06C18.31 84.87 18.45 85.14 18.63 85.16C18.85 85.17 19.21 84.89 19.5 84.96C19.36 84.18 20 83.34 18.93 83.22C18.79 83.2 18.1 83.27 18.07 83.32V83.31Z" fill="#F6B114"/>
<path d="M2.46005 79.41C2.41005 77.36 2.36 75.32 2.35 73.3C2.32 68.66 2.53005 64.02 2.46005 59.38H5.03005V80.64C4.79005 80.71 4.51002 80.54 4.31002 80.54C4.22002 80.12 4.33 79.56 4.29 79.18C4.25 78.8 3.99002 78.51 4.00002 78.13C4.01002 77.68 4.52003 76.99 4.51003 76.69C4.50003 76.39 4.17004 76.27 4.08004 76.1C3.59004 75.17 3.86003 74.68 4.32003 73.85C4.39003 73.73 4.57001 73.73 4.61001 73.6C4.85001 72.87 4.2 72.73 3.85 72.34C3.66 72.12 3.57005 71.46 3.09005 71.77C3.06005 71.79 2.74 72.21 2.73 72.24C2.67 72.39 2.79003 72.52 2.76003 72.67C2.33003 74.73 2.62002 77.52 2.68002 79.68C2.68002 79.87 2.76999 80.1 2.46999 80.04C2.45999 79.94 2.46999 79.83 2.46999 79.73C2.61999 79.72 2.61999 79.44 2.46999 79.42L2.46005 79.41Z" fill="#F6B114"/>
<path d="M17.45 51.67C17.91 51.65 18.38 51.7 18.84 51.67C21.76 51.52 24.51 51.32 27.44 51.32C27.94 51.32 29.58 51.11 29.91 51.35L29.97 56.6L27.46 56.71C27.37 56.71 27.2 56.61 27.2 56.55V52.95C27.2 52.95 26.81 52.44 26.74 52.38C26.3 52.06 25.82 52.17 25.53 52.62C25.06 53.37 25.29 53.8 25.25 54.6C25.21 55.33 25.06 56.06 25.14 56.8L23.81 56.7C23.82 56.14 23.8 55.57 23.81 55C23.81 54.69 23.94 54.43 23.92 54.08C23.91 53.88 23.58 52.7 23.48 52.61C23.39 52.53 22.89 52.46 22.74 52.48C22 52.59 22.02 54.07 21.97 54.59C21.96 54.72 21.86 54.86 21.86 54.89V56.89C21.57 56.84 20.4 57.03 20.33 56.73C20.31 56.66 20.42 56.39 20.43 56.23C20.45 55.24 20.45 54.16 20.32 53.2C20.82 53.84 20.35 54.11 20.79 54.64C21.04 54.7 21.42 53.91 21.59 53.75C21.65 53.69 21.86 53.71 21.92 53.62C22.25 53.13 21.72 53.24 21.56 53.15C21.44 53.08 21.42 52.85 21.25 52.74C20.96 52.56 20.39 52.65 20.07 52.37L19.82 52.53L20.02 52.89C19.73 52.87 19.39 52.62 19.1 52.74C18.78 52.87 18.48 53.45 18.48 53.77V57.11C17.88 56.89 17.33 57.07 16.73 57.11C16.85 56.05 16.81 54.98 16.63 53.93C16.63 53.94 16.81 53.88 16.84 53.99C16.89 54.17 16.78 54.89 16.84 54.95C17.78 54.59 17.23 55.51 17.66 55.72C18.57 56.17 18.23 54.6 18.28 54.08C18.31 53.81 18.43 53.26 18.58 53.05C18.7 52.88 18.99 52.79 19.05 52.69C19.19 52.47 18.97 52.37 18.92 52.2C18.88 52.07 18.91 51.78 18.89 51.77C18.85 51.73 17.91 51.79 17.7 51.77C17.57 51.76 17.47 51.66 17.45 51.66V51.67Z" fill="#F6B114"/>
<path d="M14.3701 30.72C16.7601 30.41 19.2901 30.49 21.7101 30.31C22.5801 30.25 23.4601 30.12 24.3301 30.05L24.5301 36.73C24.4401 37.19 23.66 36.9201 23.3 36.9901C23.23 36.2101 23.41 35.45 23.41 34.67C23.41 34.45 23.31 34.25 23.3 34.06C23.3 33.54 23.4 32.1501 23.22 31.7701C23.04 31.3901 22.36 31.23 21.98 31.41C21.69 31.55 21.4401 32.34 21.4401 32.62V37.19C20.8101 36.88 20.2001 37.5001 20.2001 36.5201C20.2001 35.2301 20.5101 33.6 20.3101 32.31C20.1301 31.17 18.66 31.27 18.48 32.62C18.39 33.25 18.3801 34.49 18.3701 35.18C18.3701 35.56 18.6001 36.94 18.4601 37.17L17.1401 37.39C17.2101 36.92 17.0501 36.47 17.0301 36.01C16.9901 34.94 17.2901 33.5201 17.1301 32.5201C16.9901 31.6201 15.8901 31.28 15.5301 31.98C15.1501 32.75 15.1601 34.31 15.1801 35.18C15.1901 35.84 15.38 36.6201 15.29 37.3201C15.28 37.3701 14.9401 37.4801 14.8701 37.4901L15.1801 37.03C14.8201 35.39 15.25 33.71 14.86 32.09L15.0701 30.81L14.04 30.91L14.35 30.7101L14.3701 30.72Z" fill="#F6B114"/>
<path d="M29.16 58.25C29.32 58.5 30.4501 58.3 30.4901 58.35C30.6401 58.92 29.8701 58.83 29.5901 59.35C29.4101 59.68 29.6201 59.9 29.5301 60.21C29.4501 60.48 29.1001 60.64 29.0101 60.83C28.9401 60.97 28.9801 61.15 28.9301 61.26C28.8601 61.43 28.6801 61.5 28.6501 61.7C28.5501 62.24 28.9 62.23 29.05 62.53C29.12 62.66 29.4101 63.38 29.4301 63.49C29.5201 63.98 28.7101 64.76 29.9901 64.63C30.1001 64.36 29.6901 63.63 30.0601 63.51C30.2501 63.45 31.1401 63.8 31.0301 64.06L31.1301 64.01C31.1301 64.09 31.22 64.19 31.23 64.42L30.8201 64.37C30.7501 65.88 30.2901 64.9 30.0601 64.94C29.8801 65.23 29.1201 65.35 28.9901 65.57C28.9001 65.73 29.0001 66.34 28.9601 66.62C28.8901 67.06 28.6401 67.25 28.6501 67.86C28.6501 68.35 28.9201 68.65 28.9401 68.9C28.9601 69.11 28.64 69.34 28.8 69.56C28.97 69.79 30.4601 69.76 30.5901 70.14C30.6201 70.22 30.69 71.6 30.67 71.72C30.48 72.65 29.63 72.14 29.48 72.24C29.22 72.42 29.3301 74 29.2601 74.33C29.1501 74.93 28.7801 74.77 29.0901 75.74C29.4001 76.71 29.2801 76.91 29.3801 77.91C29.5001 79.11 29.83 80.07 31.22 79.93C31.22 80.03 31.1501 80.03 31.0701 80.04C30.4701 80.12 29.49 80.05 28.86 80.04L28.1401 79.94L28.04 70.18C28.04 69.19 28.04 68.19 28.04 67.2V58.57C28.04 58.5 28.04 58.43 28.04 58.37C28.42 58.38 28.79 58.29 29.17 58.27L29.16 58.25Z" fill="#F7A804"/>
<path d="M8.10999 134.57C8.34999 134.25 7.99999 133.78 8.54999 133.97C8.74999 134.04 8.81003 134.3 9.09003 134.36C9.47003 134.43 10.18 134.46 10.27 134C10.42 133.22 9.21001 132.36 10.14 131.82C10.71 131.49 11.29 131.23 11.92 131.03C12.06 130.98 12.18 130.82 12.3 130.79C12.5 130.75 12.96 130.92 13.22 130.94C13.84 130.97 13.99 131 14.54 131.08C14.76 131.11 15.71 131.07 15.82 131.19C15.89 131.28 15.72 131.61 15.74 131.74C15.76 131.83 15.95 131.96 16.02 132.21C15.57 131.72 15 131.78 14.75 132.43C14.54 132.98 14.48 134.67 14.47 135.34C14.46 136.24 14.6 137.16 14.58 138.07C14.47 138.11 14.36 137.97 14.32 137.97H12.68C12.57 137.97 12.53 137.72 12.52 137.62C12.36 136.23 12.68 134.52 12.52 133.11C12.46 132.64 12.32 131.78 11.76 131.81C11.2 131.84 10.84 132.63 10.79 133.11C10.7 133.97 10.88 135.02 10.89 135.87C10.9 136.58 10.78 137.28 10.89 137.98H8.21997L8.12 134.59L8.10999 134.57Z" fill="#F6B114"/>
<path d="M31.2099 64.41C31.4099 69.53 31.0599 74.79 31.2099 79.92C29.8299 80.06 29.4899 79.11 29.3699 77.9C29.2699 76.9 29.3999 76.74 29.0799 75.73C28.7599 74.72 29.1399 74.92 29.2499 74.32C29.3099 73.99 29.2099 72.4 29.4699 72.23C29.6099 72.13 30.4699 72.64 30.6599 71.71C30.6799 71.59 30.6099 70.21 30.5799 70.13C30.4599 69.76 28.9699 69.78 28.7899 69.55C28.6299 69.34 28.9499 69.11 28.9299 68.89C28.9099 68.64 28.6499 68.34 28.6399 67.85C28.6299 67.24 28.8799 67.05 28.9499 66.61C28.9899 66.33 28.8899 65.72 28.9799 65.56C29.1099 65.33 29.8699 65.22 30.0499 64.93C30.2699 64.89 30.7299 65.87 30.8099 64.36L31.2199 64.41H31.2099Z" fill="#F6B114"/>
<path d="M34.29 134.05C34.24 133.71 34.09 132.39 33.49 132.73C32.83 133.11 32.88 137.1 32.86 137.95H31.63L31.89 130.35L37.54 132.61L37.59 137.95C37.32 137.93 37.03 137.98 36.77 137.95C36.74 137.69 36.87 137.31 36.67 137.13C36.67 137.03 36.67 136.92 36.67 136.82L36.77 136.77L36.67 136.72C36.67 136.3 36.71 135.79 36.67 135.38L36.77 135.33L36.67 135.18C36.65 135.07 36.41 134.33 36.35 134.22C36.28 134.1 35.95 133.73 35.81 133.75C35.65 133.84 35.56 133.99 35.49 134.16C35.37 134.42 35.28 134.9 35.23 135.19C35.23 135.24 35.14 135.33 35.12 135.54C35.08 135.96 35.07 136.64 35.23 137.04C35.23 137.14 35.23 137.25 35.23 137.35C35.03 137.7 35.26 137.84 34.72 137.76L34.82 137.86C34.69 137.89 34.52 138.05 34.31 137.96C34.31 137.86 34.31 137.75 34.31 137.65C34.48 137.46 34.48 136.92 34.31 136.73C34.31 136.66 34.31 136.59 34.31 136.52C34.47 136.45 34.47 136.07 34.31 136.01C34.31 135.98 34.31 135.94 34.31 135.91C34.62 135.97 34.63 135.65 34.31 135.7V135.39C34.47 135.19 34.45 134.67 34.42 134.4C34.4 134.21 34.32 134.1 34.31 134.05H34.29Z" fill="#D28300"/>
<path d="M25.2601 105.19C26.3701 105.13 25.93 105.25 25.97 105.85C26.01 106.45 26.1601 107.11 26.0801 107.76C25.6701 107.76 25.26 107.76 24.85 107.76C24.82 107.25 25.5801 107.53 25.6701 107.45C25.4901 106.1 24.4801 106.61 23.4601 106.52C22.7501 106.46 21.7501 106.41 21.0901 106.32C20.7501 106.27 20.49 106.01 20.16 105.92C19.72 105.8 18.6901 105.73 18.2701 105.85C17.8501 105.97 17.6501 106.43 17.0801 106.51C16.2901 106.62 15.2401 106.45 14.5201 106.51C14.0101 106.55 13.5401 106.79 13.0601 106.91C12.5201 107.04 11.5201 107.04 11.0801 107.5C10.9701 107.62 10.9801 107.82 10.8701 107.91C10.6001 108.12 8.45007 108.18 8.00007 108.07C8.03007 107.6 7.68004 105.77 7.91004 105.62C7.97004 105.58 9.0801 105.51 9.2801 105.5C9.8001 105.47 10.3601 105.5 10.8801 105.5C15.6401 105.55 20.5001 105.43 25.2601 105.19Z" fill="#F7A804"/>
<path d="M26.08 90.8101L26.18 103.65H23.72C23.72 101.48 23.72 99.3001 23.72 97.1201C23.72 96.1101 23.72 95.0701 23.72 94.0401C23.72 93.5201 23.85 93.1201 23.62 92.5601C23.93 93.0901 23.86 93.5101 24.4 93.8801C24.53 93.9701 24.72 93.9701 24.84 94.0601C25.08 94.2301 25.13 94.7301 25.59 94.6001C25.62 94.6001 26.04 94.3101 26.05 94.2901C26.29 93.8701 25.87 91.4601 26.07 90.8201L26.08 90.8101Z" fill="#F6B114"/>
<path d="M28.13 109.61C28.75 109.51 29.37 109.55 29.98 109.3V122.86C29.56 122.85 27.76 123.18 27.63 122.79L27.72 115.36L28.13 115.67C28.02 115.03 28.85 114.67 29.1 114.33C29.15 114.26 29.46 113 29.47 112.85C29.51 112.36 29.33 111.61 29.36 111C29.38 110.59 29.48 110.03 29.57 109.62C29.46 109.54 28.39 109.93 28.13 109.62V109.61Z" fill="#F6B114"/>
<path d="M12.01 112.38C12.19 112.58 12.42 112.99 12.42 113.25V114.94C13.23 115.03 13.02 113.96 13.72 113.62C14.02 113.47 14.17 113.56 14.4 113.5C14.49 113.48 14.47 113.23 14.68 113.3C14.66 113.61 14.8 114.01 14.79 114.38C14.74 116.19 14.61 118.01 14.57 119.82C14.55 121 14.6 122.19 14.57 123.37L12.41 123.27C12.51 122.8 12.31 122.31 12.3 121.88C12.25 119.5 12.32 117.1 12.2 114.69C12.16 113.9 12.33 113.13 12 112.37L12.01 112.38Z" fill="#F6B114"/>
<path d="M8.01002 108.06C8.47002 108.17 10.61 108.11 10.88 107.9C10.99 107.82 10.98 107.61 11.09 107.49C11.53 107.03 12.52 107.03 13.07 106.9C13.55 106.78 14.02 106.55 14.53 106.5C15.25 106.44 16.3 106.61 17.09 106.5C17.66 106.42 17.87 105.96 18.28 105.84C18.69 105.72 19.73 105.79 20.17 105.91C20.5 106 20.76 106.27 21.1 106.31C21.76 106.4 22.76 106.45 23.47 106.51C24.48 106.59 25.49 106.08 25.68 107.44C25.59 107.52 24.83 107.24 24.86 107.75C19.95 107.81 15.03 107.98 10.12 108.16C9.75 108.17 8.07999 108.45 7.91999 108.27C7.86999 108.17 8.02003 108.08 8.02003 108.07L8.01002 108.06Z" fill="#F6B114"/>
<path d="M15.91 92.55C16.52 93.07 16.18 93.69 16.32 94.22C16.34 94.31 16.51 94.32 16.56 94.4C16.64 94.51 16.64 94.75 16.79 94.8C17.02 94.87 18.06 94.55 18.26 94.34L18.67 93.26C18.22 95.44 18.44 99.06 18.36 101.42C18.33 102.15 18.39 102.9 18.36 103.63H16.1C16.18 103.48 16.2 103.35 16.21 103.17C16.28 100.34 16.48 96.23 16.21 93.5C16.17 93.09 16 92.9 15.9 92.53L15.91 92.55Z" fill="#F6B114"/>
<path d="M8.42002 87.83L29.98 87.3201V103.29C29.98 103.51 29.24 103.44 29.06 103.44C28.85 103.44 28.65 103.44 28.44 103.44H28.23C28.7 103.33 29.2501 103.24 29.7701 103.24L29.87 95.7401L29.56 95.9401C29.52 95.1901 29.11 94.1501 29.14 93.4301C29.17 92.8201 29.41 91.9201 29.45 91.2701C29.48 90.84 29.31 90.32 29.35 90.05C29.38 89.81 29.7 89.5601 29.76 89.2101C29.84 88.7301 29.72 88.1301 29.76 87.6301C29.22 87.4701 28.7601 87.6301 28.2801 87.6301C25.3201 87.6701 22.38 87.6601 19.45 87.7301C18.72 87.7501 17.9 87.6601 17.19 87.7301C15.98 87.8301 17.4401 88.4301 17.7801 88.5601C17.8701 88.5901 17.85 88.7201 17.91 88.7301C19.82 89.0801 23.08 88.6501 25.2 88.7501C25.45 88.7601 25.54 88.6801 25.35 88.9601C19.21 88.6601 13.0001 89.4201 6.83005 89.0901L6.28006 89.3901L6.00003 104.06H4.20005C4.27005 103.46 4.10006 102.84 4.09006 102.26C4.02006 98.0201 4.18006 93.6101 4.09006 89.3201C4.09006 88.9901 4.09002 88.3901 4.30002 88.1401C4.34002 88.3801 4.24002 89.7201 4.30002 89.7801C4.34002 89.8201 4.67005 89.7301 4.77005 89.8801C4.85005 90.0001 4.79006 90.2601 4.84006 90.4201C5.13006 91.2601 4.94004 90.9401 4.94004 91.5601C4.94004 91.8601 5.24 92.1701 5.22 92.3901C5.2 92.6501 4.87001 93.0601 4.91001 93.5201C4.94001 93.8401 5.25002 94.0701 5.30002 94.2801C5.37002 94.5701 5.01003 95.6901 5.31003 95.9001C5.43003 95.9901 6.01001 95.8801 6.04001 95.7801L6.09006 89.4801C6.62006 88.6601 7.25003 89.0801 7.93003 89.0701C8.37003 89.0701 8.93002 88.8601 9.42002 88.9601C9.46002 88.7801 9.12 88.9501 9.22 88.7101C9.3 88.5101 10.57 88.0001 9.79001 87.9401C9.37001 87.9101 8.77006 87.8501 8.40006 87.8401L8.42002 87.83ZM5.95005 103.85V98.05C5.95005 98.05 5.51006 97.5701 5.40006 97.5901C5.21006 97.6301 5.14006 98.0201 5.03006 98.1501C4.93006 98.2801 4.68004 98.3201 4.63004 98.4701C4.59004 98.5801 4.80005 100.2 4.83005 100.5C4.89005 100.99 5.12006 101.3 5.03006 101.95C4.99006 102.24 4.55004 102.93 4.51004 103.28C4.42004 104.18 5.33005 103.75 5.95005 103.84V103.85Z" fill="#F6B114"/>
<path d="M15.81 58.86L26.39 58.35L26.29 59.68C23.99 59.94 21.67 59.82 19.36 59.88C15.87 59.98 12.39 60.2 8.88999 60.4C8.44999 60.42 7.38995 60.67 7.03995 60.61C6.56995 60.53 6.85001 59.64 6.78001 59.27C7.52001 59.24 8.26999 59.14 9.00999 59.1C10.93 59.01 12.87 59.01 14.79 58.96C15.04 59.14 14.67 58.99 14.57 59.12C14.52 59.19 14.44 59.51 14.48 59.57C14.66 59.84 16.59 59.48 16.99 59.47C18.62 59.41 20.29 59.57 21.91 59.44C23.03 59.35 22.5999 58.69 21.91 58.66C21.18 58.63 20.11 58.83 19.36 58.86C18.16 58.91 16.97 58.89 15.81 58.86Z" fill="#F6B114"/>
<path d="M4.1 110.32C4.1 110.04 4.22004 110.03 4.45004 110.01C5.01004 109.95 5.68002 110.07 6.25002 110.01C6.23002 111.19 6.25002 112.38 6.25002 113.56C6.25002 115.47 6.28002 117.43 6.25002 119.36C6.24002 120.08 6.17 120.93 6.35 121.62C6.34 122.28 6.39002 122.92 6.25002 123.57H4.09005C4.14005 119.53 4.02005 115.49 4.09005 111.45L4.19003 111.4L4.09005 111.35C4.09005 111.28 4.09005 111.21 4.09005 111.14L4.29 110.32C4.32 110.63 4.25 110.98 4.29 111.29C4.41 112.13 4.54 113.77 4.79 114.49C4.86 114.69 5.09001 114.8 5.11001 115C5.15001 115.39 4.73003 115.55 4.69003 115.82C4.65003 116.12 4.85002 116.26 4.87002 116.44C4.94002 117.05 4.49001 117.67 4.99001 118.26C5.31001 118.64 5.77 117.63 5.79 117.33C5.85 116.27 5.80003 115.24 5.82003 114.16C5.82003 113.84 6.02005 113.46 6.03005 113.13C6.04005 112.74 6.08001 110.44 5.99001 110.3C5.81001 110.05 4.53003 110.35 4.19003 110.1C4.22003 110.2 4.09004 110.28 4.08004 110.3L4.1 110.32Z" fill="#F6B114"/>
<path d="M37.5801 130.66C37.5801 130.66 36.51 130.45 36.35 130.4C34.86 129.92 33.3701 128.9 31.8401 128.49V125.01C32.6101 125.32 33.3301 125.83 34.0901 126.19C34.7601 126.51 35.6301 126.88 36.3201 127.14C36.5801 127.24 37.4601 127.4 37.5301 127.47C37.8901 127.81 37.4101 130.06 37.5801 130.66Z" fill="#D28300"/>
<path d="M8.52002 128.51C8.93002 128.47 8.95001 128.16 9.14001 128.05C9.25001 127.99 9.42998 128.01 9.53998 127.94C9.67998 127.85 9.73998 127.53 9.91998 127.5C10.05 127.47 10.47 127.8 10.83 127.8C11.23 127.8 11.34 127.62 11.65 127.58C12.17 127.51 12.67 127.71 13.09 127.7C13.57 127.68 14.44 127.37 15.04 127.37C15.42 127.37 15.62 127.6 16.06 127.59C16.28 127.59 17.47 127.37 17.55 127.27C17.76 127.01 16.84 126.73 17.42 126.37C18.24 126.41 19.05 126.35 19.87 126.35C20.23 126.35 20.57 126.47 21 126.46C22.06 126.43 22.97 125.57 23.51 126.92C23.57 127.17 23.25 127.02 23.15 127.16C22.78 127.68 23.6 127.72 23.88 127.79C24.34 127.89 23.82 128.08 23.57 128.1C23.18 128.13 22.76 127.93 22.39 128.2C18.17 128.3 13.94 128.45 9.70001 128.5C9.20001 128.5 9.12002 128.69 8.52002 128.5V128.51Z" fill="#F6B114"/>
<path d="M14.68 93.0701L14.36 103.74C13.74 103.71 13.15 103.71 12.53 103.76C12.62 102.96 12.45 102.12 12.42 101.35C12.36 99.2801 12.46 97.2001 12.42 95.1301L12.57 95.5401C13.08 95.6401 13.05 95.1901 13.28 95.0201C13.44 94.9101 13.65 94.9301 13.86 94.7801C13.9 94.7501 14.44 94.1801 14.45 94.1401C14.59 93.7001 14.32 93.64 14.67 93.08L14.68 93.0701Z" fill="#F6B114"/>
<path d="M20.23 94.09C20.26 94.19 20.39 94.32 20.33 94.5C20.49 94.54 20.38 94.35 20.51 94.3C21 94.09 21.11 94.33 21.42 94.37C21.54 94.39 21.81 94.25 21.87 94.3C21.9 94.33 21.9 94.97 22.18 95.02C22.18 95.09 22.18 95.16 22.18 95.23L22.08 95.54C21.99 98.24 22.15 100.96 22.08 103.65H20.03L20.24 94.1L20.23 94.09Z" fill="#F6B114"/>
<path d="M37.27 60.61C37.2 60.61 36.35 60 36.3 59.89C36.09 59.42 36.45 58.7 36.33 58.12C36.27 57.83 35.82 56.99 35.48 57.22C34.92 57.59 35.12 58.72 34.86 58.77C33.5 58.23 34.2 57.22 34.08 56.26C34.06 56.11 33.76 55.16 33.68 55.12C32.76 54.5 32.7 56.66 32.39 57.02L31.6599 56.61C31.5799 56.48 31.7199 56.39 31.7199 56.35V52.5C32.1099 52.47 32.35 52.91 32.55 53.05C32.91 53.31 33.3099 53.52 33.6599 53.79C34.8599 54.73 35.92 55.82 37.37 56.45C37.55 56.66 37.4599 56.96 37.4699 57.22C37.2999 57.7 37.2999 58.49 37.4699 58.97C37.4699 59.31 37.4899 59.66 37.4699 60C37.1199 59.92 37.3 60.33 37.26 60.62L37.27 60.61Z" fill="#D28300"/>
<path d="M18.69 112.38C18.64 112.67 18.51 112.95 18.49 113.25C18.27 115.77 18.46 118.43 18.49 120.95C18.5 121.71 18.37 122.42 18.49 123.16C17.73 123.12 16.97 123.31 16.23 123.05C16.14 120.41 16.44 117.74 16.33 115.1C16.3 114.48 16.24 113.58 16.12 113C16.39 112.91 16.41 113.55 16.42 113.68C16.44 113.9 16.4 114.78 16.45 114.83C16.47 114.86 16.76 114.9 16.99 115.16C17.52 115.75 17.38 116.83 18.28 116.69C18.33 116.38 17.96 116.53 18 116.14C18.02 115.89 18.25 115.72 18.27 115.5C18.36 114.85 18.2 113.93 18.28 113.26C18.32 112.97 18.45 112.55 18.68 112.38H18.69Z" fill="#F6B114"/>
<path d="M19.51 112.28C20.22 112.4 19.99 113.06 20.14 113.2C20.19 113.25 20.4 113.14 20.55 113.27C20.91 113.59 20.87 114.69 20.97 115.08C21.2 115.96 21.72 117 21.76 117.88C21.76 118.03 21.58 118.21 21.56 118.4C21.52 118.75 21.58 119.12 21.56 119.47H21.87C21.78 118.35 21.96 117.24 21.98 116.13C21.98 115.66 21.91 115.06 21.87 114.59C21.86 114.4 21.78 114.18 22.07 114.24C22 116.28 22.04 118.36 21.98 120.37C21.97 120.73 22.09 123.14 21.8 123.19C21.46 123.25 20.6 122.87 20.12 123.19C20.02 122.19 20.02 121.17 20.01 120.15C19.99 118 20.23 115.52 20.01 113.38C19.97 112.98 19.85 112.54 19.5 112.3L19.51 112.28Z" fill="#F6B114"/>
<path d="M26.18 110.94L26.08 123.06H23.72V112.89C23.82 113.11 23.89 113.16 23.93 113.46C23.98 113.92 23.83 116.38 23.93 116.49C23.95 116.51 24.33 116.48 24.54 116.65C24.71 116.79 24.74 117.09 24.87 117.25C25.14 117.59 25.55 117.7 25.47 118.28C25.44 118.51 25.19 118.73 25.28 118.99C25.37 119.28 25.97 119.23 25.89 118.8C25.89 118.77 25.58 118.79 25.67 118.29C25.69 118.17 25.97 118.3 25.99 118.18C26.07 117.75 25.95 116.94 25.98 116.43C26.07 114.61 26.12 112.73 26.19 110.94H26.18Z" fill="#F6B114"/>
<path d="M31.73 105.5L36.42 108.46C36.56 108.69 37.43 108.86 37.47 108.9C37.56 109 37.55 111.33 37.53 111.66C36.05 110.59 34.25 109.85 32.74 108.85C32.38 108.61 31.73 108.25 31.73 107.81V105.5Z" fill="#D28300"/>
<path d="M38.5001 89.47C38.2401 89.25 38.3101 89.59 38.2401 89.57C38.0701 89.36 37.19 88.99 37.1 88.85C36.91 88.55 37.73 86.17 36.6 86.28C36.15 86.35 36.0101 87.63 35.9301 88.03C34.3401 87.69 35.3701 85.83 34.7001 84.79C34.6501 84.72 34.1801 84.25 34.1301 84.23C33.9701 84.16 33.9901 84.28 33.9501 84.36C33.6601 84.97 33.66 85.93 33.66 86.59C33.28 86.66 32.9601 86.37 32.8401 86.02L33.0001 82.48C34.8901 83.64 36.6701 84.96 38.4901 86.23V89.47H38.5001Z" fill="#D28300"/>
<path d="M2.45996 80.02C2.75996 80.08 2.66992 79.86 2.66992 79.66C2.59992 77.49 2.30994 74.7 2.74994 72.65C2.77994 72.5 2.65991 72.37 2.71991 72.22C2.72991 72.19 3.05996 71.77 3.07996 71.75C3.55996 71.45 3.64997 72.11 3.83997 72.32C4.18997 72.71 4.83991 72.85 4.59991 73.58C4.55991 73.7 4.37994 73.71 4.30994 73.83C3.85994 74.66 3.57995 75.16 4.06995 76.08C4.15995 76.25 4.49994 76.38 4.49994 76.67C4.49994 76.96 3.99993 77.66 3.98993 78.11C3.98993 78.49 4.24997 78.8 4.27997 79.16C4.30997 79.52 4.20993 80.1 4.29993 80.52C3.49993 80.52 2.56995 81.08 2.44995 80.01L2.45996 80.02Z" fill="#F7A804"/>
<path d="M6.97994 74.5801C7.03994 74.6401 7.51995 75.9001 7.67995 76.1901C8.34995 77.3701 9.44993 78.6001 10.5999 79.3301C11.2799 79.7601 12.0799 79.9501 12.7299 80.4401L6.76998 80.5401V74.7301C6.69998 74.5501 6.91993 74.5301 6.96993 74.5801H6.97994Z" fill="#F6B114"/>
<path d="M8.41997 87.83C8.78997 87.84 9.37998 87.9 9.80998 87.93C10.6 87.99 9.32998 88.5 9.23998 88.7C9.13998 88.94 9.48999 88.77 9.43999 88.95C8.94999 88.85 8.39 89.05 7.95 89.06C7.26 89.07 6.63997 88.65 6.10997 89.47L6.05998 95.77C6.02998 95.87 5.45 95.98 5.33 95.89C5.03 95.67 5.38999 94.56 5.31999 94.27C5.26999 94.06 4.95998 93.84 4.92998 93.51C4.88998 93.05 5.21998 92.64 5.23998 92.38C5.25998 92.16 4.96001 91.85 4.96001 91.55C4.96001 90.93 5.14997 91.25 4.85997 90.41C4.79997 90.24 4.85996 89.99 4.78996 89.87C4.68996 89.72 4.35999 89.81 4.31999 89.77C4.25999 89.71 4.35999 88.37 4.31999 88.13C4.39999 88.04 4.50999 87.94 4.62999 87.92C5.22999 88.11 5.98999 88.02 6.62999 88.02C6.70999 88.02 7.16 88.06 6.89 87.92C7.34 87.92 7.87998 87.8 8.42998 87.82L8.41997 87.83Z" fill="#F7A804"/>
<path d="M27.7199 137.75V129.74C28.5099 129.77 29.31 129.47 30.08 129.74C30.12 129.84 29.9799 129.93 29.9799 129.94C29.7499 130.51 29.2499 130.13 29.1599 130.93C29.0699 131.8 29.3399 133.19 29.3599 134.1C29.3599 134.29 29.2499 134.49 29.2499 134.71C29.2499 135.22 29.5299 137.01 29.0999 137.23C28.9199 137.32 28.95 137.03 28.9 137.02C28.44 136.94 28.5299 137.5 28.4099 137.62C28.3199 137.71 27.87 137.74 27.71 137.75H27.7199Z" fill="#F7A804"/>
<path d="M5.84997 130.35C6.37997 130.44 6.35002 131.41 6.27002 131.83C6.25002 131.95 5.97001 131.82 5.95001 131.94C5.83001 133.42 6.14001 135.22 5.95001 136.66C5.74001 138.38 4.10002 137.55 4.33002 136.37C4.63002 134.8 4.36 133.34 4.31 131.72C4.31 131.52 4.40997 131.31 4.09997 131.37C4.09997 131.1 4.02001 130.31 4.20001 130.18C4.75001 130.23 5.29997 130.29 5.84997 130.34V130.35Z" fill="#F7A804"/>
<path d="M26.28 74.78V79.97C26.28 80.03 26.11 80.13 26.02 80.12L20.63 80.32C20.96 79.95 21.56 79.84 22 79.58C23.77 78.55 25.13 76.7 26.07 74.92C26.12 74.82 26.01 74.72 26.28 74.77V74.78Z" fill="#F6B114"/>
<path d="M29.16 58.25C29.84 58.21 30.53 58.28 31.21 58.25C31.12 58.58 31.3 58.96 31.3 59.24C31.3 60.62 31.31 62.21 31.21 63.59C31.12 63.62 31.11 63.71 31.11 63.8C31.11 63.87 31.11 63.94 31.11 64.01L31.01 64.06C31.13 63.79 30.23 63.45 30.04 63.51C29.67 63.63 30.08 64.36 29.97 64.63C28.7 64.76 29.5 63.99 29.41 63.49C29.39 63.39 29.09 62.66 29.03 62.53C28.88 62.23 28.53 62.23 28.63 61.7C28.67 61.5 28.84 61.43 28.91 61.26C28.96 61.14 28.93 60.97 28.99 60.83C29.08 60.64 29.43 60.49 29.51 60.21C29.6 59.91 29.39 59.68 29.57 59.35C29.86 58.83 30.62 58.93 30.47 58.35C30.42 58.3 29.3 58.5 29.14 58.25H29.16Z" fill="#F6B114"/>
<path d="M10.98 62.25L9.65002 63.56C8.65002 64.74 7.83001 66.01 7.14001 67.39L6.77002 68.51V62.35C8.14002 62.4 9.57998 62.06 10.98 62.25Z" fill="#F6B114"/>
<path d="M10.78 96.56C10.78 96.63 10.78 96.7 10.78 96.77L10.68 96.82L10.78 96.87C10.78 96.96 10.68 97.13 10.67 97.32C10.56 99.42 10.78 101.55 10.63 103.65C10.41 103.96 8.43001 103.79 8.01001 103.85V99.74L8.21002 98.82V99.64C9.57002 99.33 8.62001 100.21 8.64001 100.39C8.66001 100.57 8.88998 100.96 9.09998 100.96C9.30998 100.96 9.65999 100.48 9.85999 100.32C10.03 100.19 10.44 100.09 10.52 99.96C10.72 99.64 10.5 97.48 10.51 96.94C10.51 96.79 10.53 96.49 10.78 96.57V96.56Z" fill="#F6B114"/>
<path d="M34.29 51.88C33.49 51.29 32.08 50.67 31.64 49.76C31.49 49.44 31.46 49.1 31.3 48.76C30.27 46.6 28.7 44.24 28 42C27.84 41.47 27.6599 40.94 27.7199 40.38C28.0099 40.62 28.19 40.97 28.43 41.26C28.61 41.47 28.98 41.65 29.08 41.85C29.21 42.12 29.03 42.31 29.05 42.58C29.08 43.01 30.53 45.78 30.84 46.34L34.28 51.88H34.29Z" fill="#497373"/>
<path d="M36.82 62.19C37.5 62.72 38.15 63.3 38.86 63.8C39.15 64.28 38.98 65 39.02 65.54C38.09 64.86 37 64.2 36.1 63.4799C35.74 63.1899 35.43 62.75 35.07 62.46C34.78 62.22 33.06 61.03 33 60.89C32.87 60.58 33.03 59.94 32.97 59.58L35.26 60.9299C35.8 61.3199 36.3 61.77 36.83 62.19H36.82Z" fill="#D28300"/>
<path d="M26.28 61.4299L26.23 66.8699C25.83 65.8699 25.31 64.8799 24.64 64.0499C23.92 63.1699 23.27 62.7299 22.39 62.0899C22.25 61.9899 21.96 61.8599 21.97 61.6899C22.02 61.4799 25.76 61.8199 26.28 61.4299Z" fill="#F6B114"/>
<path d="M37.4799 92.76C36.7699 92.43 36.14 91.94 35.46 91.55C35 91.29 34.44 91.08 33.96 90.8C32.76 90.09 31.5599 89.46 31.7399 87.84C31.8899 87.8 31.9799 87.88 32.1099 87.94C32.5099 88.13 33.2299 88.55 33.6299 88.79C34.8599 89.53 35.9899 90.53 37.2999 91.18C37.6899 91.57 37.4299 92.27 37.4999 92.78L37.4799 92.76Z" fill="#D28300"/>
<path d="M28.13 109.61C28.39 109.92 29.45 109.53 29.57 109.61C29.48 110.02 29.38 110.58 29.36 110.99C29.34 111.6 29.5199 112.35 29.4699 112.84C29.4599 112.99 29.1499 114.25 29.0999 114.32C28.8499 114.66 28.02 115.02 28.13 115.66L27.7199 115.35C27.8199 114.65 27.58 109.79 27.83 109.61C27.93 109.57 28.04 109.61 28.13 109.61Z" fill="#F7A804"/>
<path d="M26.0801 31.13C26.4901 31.49 26.97 31.78 27.42 32.1C27.57 32.21 27.7701 32.21 27.8901 32.3C28.6101 32.81 28.7301 33.28 28.7601 34.16C28.7601 34.45 28.74 34.96 28.73 35.29C28.7 36.47 28.48 37.65 28.54 38.83C27.52 38.6 27.9201 38.04 27.9301 37.35C27.9501 36.39 27.9201 35 27.8201 34.06C27.7901 33.79 27.5501 32.6 27.2601 32.59C27.1801 32.59 26.77 32.93 26.72 33.06C26.62 33.3 26.5101 34.26 26.4901 34.58C26.4401 35.38 26.6001 36.21 26.3901 36.99C25.9701 36.79 26.19 36.37 26.17 36.11C26.17 36.01 26.0901 35.93 26.0901 35.91V31.13H26.0801Z" fill="#D28300"/>
<path d="M14.37 30.72L14.06 30.92L15.09 30.82L14.88 32.1C15.26 33.72 14.84 35.39 15.2 37.04L14.89 37.5C14.6 37.53 14.26 37.48 13.97 37.5C13.84 36.22 14.03 34.94 13.97 33.64L13.76 30.72C13.96 30.7 14.18 30.74 14.38 30.72H14.37Z" fill="#F7A804"/>
<path d="M31.01 81.67L31.06 81.7699L31.11 81.67C31.21 81.67 31.32 81.67 31.42 81.67C31.39 82 31.46 82.38 31.42 82.7C31.1 82.49 31.27 82.66 31.21 82.85C31.14 83.09 31.06 83.3399 31.01 83.5799C30.98 83.7299 31.05 84.05 30.99 84.12C30.96 84.15 30.75 84.15 30.65 84.23C30.51 84.35 30.31 84.65 30.18 84.7C29.94 84.8 29.71 84.58 29.44 84.66C29.2 84.73 29.13 85.21 28.91 85.16C28.48 84.83 28.55 84.37 28.42 84C28.27 83.56 28 83.68 28.18 82.89C28.41 81.87 29.59 82.2699 30.42 82.0499C30.56 82.0099 30.86 81.88 30.81 81.67C30.88 81.67 30.95 81.66 31.02 81.67H31.01Z" fill="#F7A804"/>
<path d="M29.98 129.94C29.97 130.63 30.08 131.36 30.09 132.04C30.12 133.97 30.06 135.91 30.09 137.85C29.73 137.75 27.83 138.06 27.73 137.75C27.89 137.75 28.34 137.71 28.43 137.62C28.55 137.5 28.45 136.94 28.92 137.02C28.97 137.02 28.94 137.32 29.12 137.23C29.55 137.01 29.28 135.22 29.27 134.71C29.27 134.49 29.38 134.29 29.38 134.1C29.36 133.19 29.09 131.8 29.18 130.93C29.26 130.13 29.77 130.51 30 129.94H29.98Z" fill="#F6B114"/>
<path d="M23.41 132.1C22.52 131.19 22.14 132.23 22.11 133.09C22.06 134.45 22.05 135.81 21.99 137.18C21.98 137.4 22.27 137.95 21.82 137.95H20.13C20.2 136.97 20.24 136 20.24 135.02C20.24 134.43 20.24 133.23 20.13 132.71C20.63 133.15 20.84 133.75 20.85 134.41C20.85 134.82 20.42 135.69 21.18 135.57C21.28 135.55 21.83 135.28 21.87 135.2C22.15 134.58 21.85 133.26 21.98 132.56C21.99 132.49 22.4 131.71 22.44 131.68C22.83 131.33 23.27 131.66 23.42 132.09L23.41 132.1Z" fill="#F6B114"/>
<path d="M5.85004 130.35C6.02004 130.36 6.19005 130.34 6.36005 130.35L6.45007 137.94C6.09007 138.04 4.30009 138 4.15009 137.85C4.10009 137.8 4.07004 137.71 4.04004 137.65C4.05004 135.56 4.04004 133.46 4.10004 131.38C4.41004 131.32 4.30006 131.54 4.31006 131.73C4.36006 133.35 4.63008 134.81 4.33008 136.38C4.10008 137.55 5.74007 138.39 5.95007 136.67C6.13007 135.23 5.82007 133.43 5.95007 131.95C5.97007 131.83 6.25008 131.96 6.27008 131.84C6.35008 131.42 6.38004 130.44 5.85004 130.36V130.35Z" fill="#F6B114"/>
<path d="M29.9801 105.09C29.8001 105.72 29.8701 106.53 29.8801 107.2C29.8801 107.37 29.8101 107.66 29.9801 107.76L29.9201 107.85C29.4501 107.73 28.0301 108.14 27.7101 107.92C27.4801 107.76 27.6501 105.63 27.7301 105.2C28.3701 105.19 29.1001 105.01 29.7301 104.98C29.8701 104.98 29.9301 104.93 29.9801 105.09Z" fill="#F7A804"/>
<path d="M18.69 133.03C18.48 134.65 18.65 136.32 18.48 137.96C17.76 137.8 17.05 137.91 16.32 137.96C16.23 137.31 16.24 136.66 16.22 136.01C16.52 136.54 16.71 135.91 16.63 135.6C17.04 135.52 17.11 136.19 17.14 136.22C17.21 136.29 17.77 135.97 17.86 135.86C18.3 135.37 17.82 134.96 17.91 134.47C17.97 134.11 18.3 133.86 18.41 133.62C18.52 133.38 18.22 133.04 18.69 133.03Z" fill="#F6B114"/>
<path d="M15.8101 58.86C16.9701 58.89 18.1601 58.91 19.3601 58.86C20.1201 58.83 21.1801 58.63 21.9101 58.66C22.5901 58.69 23.0201 59.34 21.9101 59.44C20.2901 59.57 18.6201 59.41 16.9901 59.47C16.6001 59.48 14.6601 59.84 14.4801 59.57C14.4401 59.51 14.5201 59.19 14.5701 59.12C14.6701 58.99 15.0301 59.14 14.7901 58.96C15.0201 58.96 15.4501 58.85 15.8201 58.86H15.8101Z" fill="#F7A804"/>
<path d="M6.05994 105.7C6.18994 106.58 6.16991 107.48 6.15991 108.37C5.88991 108.24 4.20996 108.64 4.20996 108.32V105.7H6.05994Z" fill="#F6B114"/>
<path d="M13.65 83C13.6 82.94 13.45 82.91 13.44 82.83C13.43 82.75 13.56 82.19 13.6 82.18C14.02 82.1 14.9 82.31 15.39 82.18C15.43 82.4 14.83 82.16 14.98 82.43C15.09 82.64 15.64 82.59 15.78 82.97C15.99 83.57 15.76 84.23 15.8 84.84C15.36 84.76 15.29 85.08 15.03 85.26C14.93 85.33 14.79 85.33 14.7 85.39C14.62 85.45 14.6 85.62 14.51 85.66C14.26 85.79 14.49 85.23 14.15 85.35C14.15 85.28 14.15 85.21 14.15 85.14C14.46 85.2 14.35 84.98 14.36 84.79C14.36 84.61 14.4 83.89 14.34 83.83C14.3 83.78 14.17 83.83 14.16 83.81C13.96 83.52 13.98 83.35 13.65 82.99V83Z" fill="#F7A804"/>
<path d="M28.13 124.71C28.22 124.96 28.63 124.69 28.64 124.71C28.67 124.76 28.59 124.98 28.66 125.1C28.71 125.19 29.34 125.52 29.48 125.87C29.7 126.41 29.4 127.54 28.91 127.86C28.53 128.12 28.16 127.87 27.81 128.1C27.69 127.98 27.72 128.03 27.71 127.84C27.61 126.81 27.83 125.79 27.81 124.76C27.84 124.63 28.02 124.73 28.12 124.7L28.13 124.71Z" fill="#F7A804"/>
<path d="M26.59 82.7999C26.59 82.7999 26.52 82.87 26.49 82.9C26.43 82.95 26.33 82.9699 26.29 83.0499L26.39 83.1C26.36 83.17 26.32 83.24 26.29 83.31C26.24 83.42 26.13 83.43 26.09 83.67C26.05 83.93 26.14 85.1 26.09 85.16L24.65 85.26V83.0499C24.65 83.0499 24.94 82.54 25.01 82.48C25.35 82.17 26.66 82.08 26.6 82.79L26.59 82.7999Z" fill="#F7A804"/>
<path d="M17.25 129.94C17.69 130.02 18.12 129.85 18.53 129.83C19.8 129.77 21.09 129.88 22.33 129.84C23.59 129.8 24.93 129.34 26.17 129.84C26.17 130.84 26.2 131.86 26.19 132.86C26.19 133.51 26.07 134.21 26.07 134.92C26.07 135.73 26.28 136.65 26.18 137.49C26.17 137.59 26.13 137.84 26.02 137.84H23.61C23.49 136.29 23.78 134.48 23.61 132.96C23.59 132.78 23.46 132.38 23.4 132.19C23.68 132.1 23.7 132.72 23.71 132.86C23.76 133.61 23.55 135.72 23.73 136.23C23.78 136.39 24.71 137.22 24.94 137.28C25.07 137.31 25.88 137.15 25.95 137.1C26.19 136.95 25.97 136.27 25.96 136.04C25.94 135.1 25.97 134.18 25.96 133.27C25.96 132.12 25.96 130.97 25.96 129.82C25.19 129.84 24.42 129.8 23.64 129.82C21.48 129.88 19.34 129.92 17.23 129.93L17.25 129.94Z" fill="#F6B114"/>
<path d="M5.44009 125.22L5.85006 125.43L5.54006 125.53C5.68006 126.07 6.1201 128.07 5.5801 128.39C5.3301 128.54 5.00006 128.48 4.72006 128.51C4.63006 127.71 4.75007 126.54 4.61007 125.79C4.55007 125.47 4.13006 125.42 4.72006 125.22C4.96006 125.22 5.20009 125.2 5.44009 125.22Z" fill="#F7A804"/>
<path d="M4.71997 128.61C4.71997 128.61 4.65 128.61 4.62 128.61C4.62 128.56 4.67997 128.51 4.71997 128.51V128.61Z" fill="#F7A804"/>
<path d="M28.1301 124.71C28.7401 124.55 29.34 124.45 29.98 124.5V128.1C29.48 128.11 28.9801 128.08 28.4901 128.1C28.2601 128.1 28.0101 128.29 27.8301 128.1C28.1701 127.87 28.5501 128.12 28.9301 127.86C29.4201 127.53 29.7201 126.41 29.5001 125.87C29.3601 125.53 28.7301 125.2 28.6801 125.1C28.6101 124.98 28.68 124.76 28.66 124.71C28.65 124.69 28.2401 124.96 28.1501 124.71H28.1301Z" fill="#F6B114"/>
<path d="M13.35 55.5701C13.74 55.5001 13.43 55.9901 13.65 56.1401C13.96 56.3601 14.51 56.0101 14.57 55.6101C14.74 54.5901 14.28 52.5701 16.02 52.6901C16.02 52.7401 15.92 52.78 15.92 52.79C15.72 52.76 15.23 52.8901 15.13 53.0201C15.1 53.0601 14.79 53.82 14.79 53.87V57.2101C14.28 57.2501 13.73 57.1101 13.25 57.3101C13.23 56.72 13.34 56.16 13.35 55.56V55.5701Z" fill="#F6B114"/>
<path d="M20.0201 52.9L19.8201 52.54L20.0701 52.38C20.3901 52.65 20.9601 52.57 21.2501 52.75C21.4201 52.85 21.4501 53.09 21.5601 53.16C21.7101 53.25 22.25 53.14 21.92 53.63C21.86 53.72 21.6501 53.7 21.5901 53.76C21.4201 53.93 21.03 54.71 20.79 54.65C20.35 54.13 20.8301 53.85 20.3201 53.21C20.2601 53.13 20.1301 53.06 20.0101 52.9H20.0201Z" fill="#F7A804"/>
<path d="M5.44 125.22C5.61 125.23 5.75998 125.18 5.91998 125.25C5.97998 125.27 6.35999 125.79 6.35999 125.89V128.61C5.80999 128.59 5.25997 128.63 4.71997 128.61V128.51C4.98997 128.48 5.32002 128.54 5.58002 128.39C6.12002 128.07 5.67998 126.07 5.53998 125.53L5.84998 125.43L5.44 125.22Z" fill="#F6B114"/>
<path d="M4.71997 125.22C4.12997 125.42 4.55998 125.47 4.60998 125.79C4.73998 126.54 4.62997 127.71 4.71997 128.51C4.66997 128.51 4.62999 128.56 4.61999 128.61C4.47999 128.61 4.35002 128.61 4.21002 128.61C4.15002 127.49 4.04999 126.36 4.11999 125.24C4.34999 125.03 4.58997 125.22 4.71997 125.22Z" fill="#F6B114"/>
<path d="M25.26 105.19C20.51 105.43 15.64 105.55 10.88 105.5L25.26 105.19Z" fill="#F6B114"/>
<path d="M37.58 117.93C37.6 119.23 37.58 120.56 37.58 121.83L37.4799 121.88L37.58 121.93C37.58 123.16 37.58 124.4 37.58 125.63H37.3699C37.2899 125.6 37.2399 125.58 37.1599 125.53C37.3899 125.46 37.3599 125.27 37.3699 125.07C37.4999 122.86 37.2799 120.51 37.3699 118.28C37.3699 118.08 37.26 117.87 37.58 117.93Z" fill="#F7A804"/>
<path d="M32.8601 113.92C32.6601 115.42 32.8601 116.97 32.8601 118.5C32.8601 120.03 32.8001 121.48 32.7501 122.96C32.4501 123.02 32.5301 122.8 32.5501 122.61C32.7901 119.82 32.5501 117.07 32.6501 114.28C32.6501 114.08 32.5401 113.87 32.8601 113.93V113.92Z" fill="#F7A804"/>
<path d="M24.03 124.81C23.9 124.93 23.6399 125 23.4699 124.99C20.7999 124.97 18.0499 124.98 15.4099 125.01C16.7299 124.79 18.1199 124.95 19.4699 124.91C21.0699 124.86 22.4099 124.76 24.0399 124.8L24.03 124.81Z" fill="#F6B114"/>
<path d="M15.91 130.05C13.78 130.1 11.5401 130.28 9.39008 130.26C9.22008 130.26 8.93008 130.33 8.83008 130.16C10.1701 130.01 11.5401 130.1 12.8901 130.06C13.8401 130.03 14.96 129.77 15.92 130.06L15.91 130.05Z" fill="#F6B114"/>
<path d="M28.03 70.16L28.13 79.92L28.85 80.02C28.58 80.02 28.3 80.02 28.03 80.02C28.03 76.73 28.03 73.44 28.03 70.16Z" fill="#F6B114"/>
<path d="M8.20995 53.2099C7.73995 53.5899 7.82994 54.2799 7.69994 54.7999L7.9099 57.5199C7.2199 57.4799 6.53991 57.6099 5.85991 57.6199C5.79991 57.3099 6.01995 57.4199 6.20995 57.4099C6.70995 57.3899 7.20994 57.4199 7.69994 57.4099C7.69994 56.4699 7.29992 54.1299 7.85992 53.3999C7.98991 53.2299 8.0499 53.2499 8.2199 53.1899L8.20995 53.2099Z" fill="#F6B114"/>
<path d="M28.03 67.18C28.03 64.36 27.89 61.34 28.03 58.55V67.18Z" fill="#F6B114"/>
<path d="M31.73 119.88C31.71 117.32 31.71 114.74 31.73 112.18V119.88Z" fill="#F7A804"/>
<path d="M11.39 53.73C11.35 54.83 11.39 55.93 11.49 57.02C11.16 57.08 11.3199 56.85 11.2899 56.66C11.1999 56.07 11.05 54.3 11.18 53.8C11.21 53.68 11.38 53.75 11.39 53.74V53.73Z" fill="#F6B114"/>
<path d="M37.5801 99.23C37.2701 99.29 37.3801 99.07 37.3701 98.88C37.3301 97.82 37.3601 96.75 37.3701 95.69C37.3701 95.52 37.3 95.23 37.47 95.13C37.6 95.61 37.47 95.66 37.47 96.1C37.47 97.15 37.5701 98.2 37.5801 99.24V99.23Z" fill="#F7A804"/>
<path d="M26.0801 127.99C25.6401 128.04 25.98 127.32 25.98 127.12C25.98 126.89 25.8601 126.67 25.8701 126.4C25.8901 125.88 26.07 125.35 25.98 124.81C26.08 124.84 26.0701 124.85 26.0901 124.96C26.1301 125.29 26.1501 127.79 26.0901 128L26.0801 127.99Z" fill="#F6B114"/>
<path d="M35.22 101.9C35.05 101.79 35.12 101.51 35.12 101.34C35.1 100.09 35.07 98.81 35.22 97.59C35.22 99.03 35.22 100.47 35.22 101.9Z" fill="#F7A804"/>
<path d="M16.12 133.44C16.43 133.38 16.32 133.6 16.33 133.79C16.33 134.1 16.28 134.51 16.35 134.8C16.4 134.98 16.64 135.14 16.64 135.33C16.64 135.38 16.48 135.38 16.44 135.46C16.37 135.59 16.41 135.81 16.23 135.9C16.21 135.03 16.2 134.3 16.13 133.43L16.12 133.44Z" fill="#F6B114"/>
<path d="M37.58 117.21C37.27 117.27 37.38 117.05 37.37 116.86C37.34 116.04 37.36 115.21 37.37 114.39C37.37 114.22 37.2999 113.93 37.4699 113.83C37.4999 114.96 37.55 116.1 37.57 117.22L37.58 117.21Z" fill="#F7A804"/>
<path d="M36.66 120.9C36.68 120.58 36.5701 120.3 36.5601 119.98L36.66 119.93L36.5601 119.88C36.5601 119.61 36.5601 119.33 36.5601 119.06C36.8701 119.53 36.84 120.38 36.66 120.91V120.9Z" fill="#F7A804"/>
<path d="M29.98 107.76C29.81 107.65 29.88 107.37 29.88 107.2C29.88 106.53 29.8 105.73 29.98 105.09C30.02 105.22 30.02 107.63 29.98 107.76Z" fill="#F6B114"/>
<path d="M14.1699 83.8201C14.1699 83.8201 14.3099 83.7901 14.3499 83.8401C14.4099 83.9101 14.3799 84.62 14.3699 84.8C14.3699 85 14.4799 85.2101 14.1599 85.1501C14.1599 84.7001 14.2499 84.2601 14.1599 83.8101L14.1699 83.8201Z" fill="#F6B114"/>
<path d="M6.88 87.93C7.16 88.08 6.7 88.03 6.62 88.03C5.98 88.03 5.22 88.12 4.62 87.93C5.2 87.83 6.23 87.94 6.88 87.93Z" fill="#F6B114"/>
<path d="M8.00994 123.16C7.82994 122.52 7.83994 121.55 8.00994 120.9C8.00994 121.65 8.00994 122.41 8.00994 123.16Z" fill="#D28300"/>
<path d="M6.35998 121.62C6.17998 120.93 6.25001 120.08 6.26001 119.36C6.44001 120.04 6.37998 120.9 6.35998 121.62Z" fill="#D28300"/>
<path d="M33.0601 77.97C33.0601 77.29 33.0601 76.6 33.0601 75.92C33.2301 76.51 33.2301 77.38 33.0601 77.97Z" fill="#F7A804"/>
<path d="M37.48 58.96C37.31 58.48 37.31 57.7 37.48 57.21C37.51 57.76 37.5 58.38 37.48 58.96Z" fill="#F7A804"/>
<path d="M35.22 137.03C35.07 136.63 35.07 135.95 35.11 135.53C35.13 135.32 35.21 135.23 35.22 135.18C35.22 135.79 35.23 136.41 35.22 137.03Z" fill="#F7A804"/>
<path d="M25.87 90.8101C25.36 90.9801 24.54 90.9801 24.02 90.8101C24.61 90.8101 25.29 90.7601 25.87 90.8101Z" fill="#F6B114"/>
<path d="M33.0599 79.8199C33.0399 79.2799 33.0599 78.7199 33.0599 78.1799C33.2299 78.6199 33.2299 79.4099 33.0599 79.8199Z" fill="#F7A804"/>
<path d="M36.55 117.31C36.55 116.87 36.55 116.42 36.55 115.97C36.72 116.3 36.72 117 36.55 117.31Z" fill="#F7A804"/>
<path d="M34.29 135.39V134.05C34.29 134.1 34.3801 134.21 34.4001 134.4C34.4301 134.67 34.45 135.19 34.29 135.39Z" fill="#F7A804"/>
<path d="M37.4801 59.9901C37.4801 60.1501 37.5401 60.6001 37.2701 60.6101C37.3101 60.3301 37.1301 59.9101 37.4801 59.9901Z" fill="#F7A804"/>
<path d="M36.7601 137.96C36.6901 137.96 36.6201 137.96 36.5601 137.96C36.6601 137.68 36.65 137.43 36.66 137.14C36.87 137.32 36.7301 137.7 36.7601 137.96Z" fill="#F7A804"/>
<path d="M36.55 117.51C36.72 117.69 36.93 118.22 36.55 118.13C36.55 117.92 36.55 117.72 36.55 117.51Z" fill="#F7A804"/>
<path d="M34.29 137.65C34.29 137.34 34.29 137.03 34.29 136.73C34.46 136.92 34.46 137.46 34.29 137.65Z" fill="#F7A804"/>
<path d="M35.2199 137.34C35.2199 137.45 35.2399 137.83 35.2199 137.85C35.1899 137.88 34.9099 137.83 34.8099 137.85L34.71 137.75C35.25 137.83 35.0299 137.69 35.2199 137.34Z" fill="#F7A804"/>
<path d="M36.5501 115.77C36.3801 115.68 36.4501 115.42 36.4501 115.26C36.4701 115.3 36.6201 115.38 36.6401 115.54C36.6601 115.7 36.5501 115.76 36.5501 115.77Z" fill="#F7A804"/>
<path d="M4.10005 110.32C4.10005 110.32 4.2301 110.21 4.2101 110.12C4.5501 110.37 5.83009 110.06 6.01009 110.32C6.11009 110.46 6.07007 112.76 6.05007 113.15C6.04007 113.48 5.8501 113.87 5.8401 114.18C5.8201 115.25 5.87008 116.28 5.81008 117.35C5.79008 117.65 5.34009 118.66 5.01009 118.28C4.50009 117.69 4.95009 117.07 4.89009 116.46C4.87009 116.28 4.6701 116.14 4.7101 115.84C4.7501 115.57 5.17008 115.4 5.13008 115.02C5.11008 114.83 4.88008 114.71 4.81008 114.51C4.56008 113.79 4.43008 112.15 4.31008 111.31C4.27008 111 4.33008 110.66 4.31008 110.34L4.11006 111.16C4.11006 110.91 4.07006 110.56 4.11006 110.34L4.10005 110.32Z" fill="#F7A804"/>
<path d="M33.06 80.02C33.06 80.11 33.38 80.38 32.96 80.33C32.95 80.22 32.94 80.07 33.06 80.02Z" fill="#F7A804"/>
<path d="M29.0599 103.44C28.9599 103.61 28.5399 103.61 28.4399 103.44C28.6499 103.44 28.8499 103.44 29.0599 103.44Z" fill="#F7A804"/>
<path d="M34.29 136.52C34.29 136.35 34.29 136.18 34.29 136.01C34.45 136.08 34.45 136.46 34.29 136.52Z" fill="#F7A804"/>
<path d="M8.41992 130.46L8.82996 130.51L8.41992 130.56V130.46Z" fill="#F6B114"/>
<path d="M17.2501 51.67C17.2201 51.82 16.8801 51.83 16.8401 51.67C16.9801 51.67 17.1101 51.67 17.2501 51.67Z" fill="#F6B114"/>
<path d="M34.29 135.7C34.61 135.64 34.6 135.97 34.29 135.91C34.29 135.84 34.29 135.77 34.29 135.7Z" fill="#F7A804"/>
<path d="M22.0701 95.53L22.17 95.22C22.16 95.45 22.0701 95.51 22.0701 95.53Z" fill="#F7A804"/>
<path d="M2.45996 79.71C2.45996 79.61 2.45996 79.5 2.45996 79.4C2.60996 79.41 2.60996 79.69 2.45996 79.71Z" fill="#F7A804"/>
<path d="M34.81 52.39C34.67 52.41 34.69 52.25 34.6 52.14C34.56 52.09 34.24 52.05 34.41 51.87C34.44 51.84 34.9 52.21 34.82 52.38L34.81 52.39Z" fill="#497373"/>
<path d="M31.73 121.62C31.73 121.55 31.73 121.48 31.73 121.41L31.83 121.46L31.73 121.61V121.62Z" fill="#F7A804"/>
<path d="M36.6599 135.39C36.6599 135.32 36.6599 135.25 36.6599 135.18L36.7599 135.33L36.6599 135.38V135.39Z" fill="#F7A804"/>
<path d="M31.11 63.7899C31.11 63.6999 31.11 63.61 31.21 63.58C31.21 63.67 31.21 63.7599 31.11 63.7899Z" fill="#F7A804"/>
<path d="M31.73 120.8C31.73 120.73 31.73 120.66 31.73 120.59L31.83 120.64L31.73 120.79V120.8Z" fill="#F7A804"/>
<path d="M31.73 120.29C31.73 120.22 31.73 120.15 31.73 120.08L31.83 120.13L31.73 120.28V120.29Z" fill="#F7A804"/>
<path d="M8.01001 131.07C8.05001 130.97 8.04999 130.96 8.10999 130.86L8.01001 131.07Z" fill="#F6B114"/>
<path d="M37.58 125.63L37.43 125.73C37.43 125.73 37.4 125.64 37.38 125.63H37.59H37.58Z" fill="#D28300"/>
<path d="M36.55 119.98C36.55 119.98 36.55 119.91 36.55 119.88L36.6501 119.93L36.55 119.98Z" fill="#D28300"/>
<path d="M16.02 132.51C16.02 132.51 15.93 132.47 16.02 132.41V132.51Z" fill="#F6B114"/>
<path d="M8.41992 130.25C8.44992 130.18 8.42996 130.17 8.51996 130.15L8.41992 130.25Z" fill="#F6B114"/>
<path d="M4.09998 111.45C4.09998 111.45 4.09998 111.38 4.09998 111.35L4.20001 111.4L4.09998 111.45Z" fill="#F7A804"/>
<path d="M31.01 81.67C31.01 81.67 31.08 81.67 31.11 81.67L31.06 81.77L31.01 81.67Z" fill="#F6B114"/>
<path d="M26.3901 83.1L26.29 83.05C26.33 82.97 26.4401 82.94 26.4901 82.9L26.3901 83.11V83.1Z" fill="#F6B114"/>
<path d="M10.78 96.87L10.6799 96.82L10.78 96.77C10.78 96.77 10.78 96.84 10.78 96.87Z" fill="#F7A804"/>
<path d="M36.6599 136.83C36.6599 136.83 36.6599 136.76 36.6599 136.73L36.7599 136.78L36.6599 136.83Z" fill="#F7A804"/>
<path d="M36.35 114.95C36.35 114.95 36.36 114.87 36.35 114.85L36.45 114.9L36.35 114.95Z" fill="#F7A804"/>
<path d="M36.55 118.54C36.55 118.54 36.55 118.47 36.55 118.44L36.6501 118.49L36.55 118.54Z" fill="#F7A804"/>
<path d="M37.58 121.93L37.48 121.88L37.58 121.83C37.58 121.83 37.58 121.9 37.58 121.93Z" fill="#D28300"/>
<path d="M21.5399 66.44C21.5399 66.44 21.26 66.58 21.15 66.71C20.85 67.07 20.6099 67.52 20.2999 67.86C19.9099 68.29 18.0499 69.78 17.9999 70.22C17.9599 70.6 18.19 71.09 18.03 71.6C17.94 71.9 17.21 72.56 16.89 72.62C15.51 72.84 14.16 71.65 14.4 70.24C14.42 70.1 14.59 69.95 14.59 69.81C14.59 69.74 13.8199 69.15 13.6599 68.88C13.3399 68.36 13.09 67.58 13.95 67.5C14.49 67.45 15.3399 68.67 15.4799 68.71C15.5999 68.75 15.9499 68.6 16.1799 68.61C16.4199 68.61 16.68 68.75 16.89 68.73C17.39 68.66 18.7599 67.09 19.1899 66.68C19.5299 66.35 19.9899 66.11 20.2999 65.75C20.5499 65.47 20.2999 65.18 20.9899 65.36C21.4099 65.47 21.7699 66.08 21.5499 66.45L21.5399 66.44Z" fill="#040302"/>
<path d="M17.3199 78.25C16.8399 78.84 16.3099 78.31 15.9299 77.96C16.1499 77.41 15.88 76.62 16.14 76.1C16.29 75.8 16.85 75.59 17.14 75.77C17.4 75.93 17.5599 77.95 17.3099 78.26L17.3199 78.25Z" fill="#040302"/>
<path d="M16.61 66.03C16.48 66.11 16.06 66.07 15.91 66C15.19 65.66 15.7601 62.58 16.9001 63.47C17.2301 63.73 17.01 65.8 16.61 66.02V66.03Z" fill="#040302"/>
<path d="M24.33 69.95C24.67 71.05 24.13 71.2099 23.15 71.2899C22.54 71.3399 21.5 71.4899 21.6 70.6599C21.75 69.4899 23.54 70.35 24.33 69.95Z" fill="#040302"/>
<path d="M11.17 71.5701C10.77 71.9301 8.39001 72.1701 8.72001 70.8401C8.80001 70.5101 10.6 70.3701 10.91 70.4801C11.17 70.5701 11.33 71.4201 11.16 71.5701H11.17Z" fill="#040302"/>
<path d="M13.32 74.4C13.77 74.85 13.07 76.02 12.46 76.12C10.77 76.39 12.39 73.47 13.32 74.4Z" fill="#040302"/>
<path d="M20.5 75.44C20.43 75.36 20.28 75.32 20.18 75.2C19.82 74.75 20.14 74.85 20.23 74.72C20.4 74.47 20.37 74.23 20.89 74.28C21.12 74.3 22.05 75.4 22.04 75.56C22.04 75.62 21.74 76.02 21.67 76.08C21.17 76.49 20.79 75.77 20.5 75.44Z" fill="#040302"/>
<path d="M12.3 65.76C12.3 65.76 12.36 65.94 12.42 66C12.55 66.12 12.71 66.18 12.82 66.33C13.39 67.07 12.65 67.89 11.78 67.19C10.91 66.49 11.86 65.5 12.3 65.77V65.76Z" fill="#040302"/>
<path d="M12.41 45.93C12.62 46.27 12.27 47.89 11.64 47.97C10.22 48.15 11.22 45.9 11.76 45.81C11.89 45.79 12.36 45.85 12.41 45.93Z" fill="#040302"/>
<path d="M14.5601 41.42C14.6401 41.46 14.9801 41.93 14.9901 42.08C15.0101 42.37 14.6701 43.62 14.4601 43.74C14.1801 43.9 13.4301 43.79 13.4601 43.31C13.4601 43.14 14.0201 41.6 14.1001 41.53C14.1601 41.48 14.5101 41.38 14.5701 41.42H14.5601Z" fill="#040302"/>
<path d="M16.91 45.75C17.28 46.25 16.6 47.61 16.28 48.08C15.88 47.91 15.69 47.74 15.63 47.28C15.6 47.08 16.04 45.61 16.12 45.55C16.31 45.41 16.79 45.57 16.92 45.74L16.91 45.75Z" fill="#040302"/>
<path d="M24 41.32C24.34 41.66 23.74 43.02 23.61 43.45C23.57 43.48 23.09 43.33 23.01 43.29C22.1 42.79 23.18 40.5 24 41.32Z" fill="#040302"/>
<path d="M18.5101 43.52C18.1501 43.25 18.3001 42.68 18.4301 42.32C18.6101 41.81 19.1 41.0299 19.61 41.6499C19.99 42.1199 19.3601 44.15 18.5101 43.52Z" fill="#040302"/>
<path d="M24.77 46.7201C24.31 46.2501 24.82 44.6501 25.57 44.8401C26.32 45.0301 26.01 46.6801 25.49 46.8301C25.31 46.8801 24.89 46.8501 24.76 46.7201H24.77Z" fill="#040302"/>
<path d="M21.56 47.67C21.38 47.82 20.68 47.16 20.64 46.89C20.59 46.58 20.89 45.51 21.23 45.42C21.57 45.33 21.94 45.6299 21.98 45.9799C22 46.1899 21.64 47.61 21.57 47.66L21.56 47.67Z" fill="#040302"/>
<path d="M18.24 25.3C18.58 25.74 18.41 27.11 17.81 27.13C17.09 27.16 17.34 26.96 17.33 26.66C17.33 26.45 17.25 25.6 17.3 25.48C17.44 25.14 17.98 24.96 18.25 25.3H18.24Z" fill="#040302"/>
<path d="M20.3201 22.9C19.9601 23.2 19.7301 22.55 19.7101 22.25C19.6101 20.74 20.98 20.66 20.62 22.22C20.62 22.26 20.3501 22.87 20.3201 22.9Z" fill="#040302"/>
<path d="M21.8701 25.17C21.9201 25.66 22.1001 26.37 21.6201 26.72C20.7001 27.41 20.7001 24.87 21.8701 25.17Z" fill="#040302"/>
<path d="M35.53 67.2799C35.57 69.5699 35.53 71.87 35.53 74.16C35.53 74.23 35.53 74.2999 35.53 74.3699C35.53 75.1899 35.6599 75.96 35.6399 76.79C35.6199 77.71 35.3899 78.6899 35.3299 79.6099C35.1799 79.9899 34.9799 80.63 34.4499 80.23C33.6399 79.63 33.8899 76.9 33.8899 75.91C34.0899 75.48 33.9799 74.8599 33.9899 74.3699C33.9899 74.2999 33.9899 74.23 33.9899 74.16C34.0399 74.15 34.0799 74.1099 34.0899 74.0599C34.0899 73.9999 34.0899 73.92 34.0899 73.85C34.0899 73.82 34.0899 73.7799 34.0899 73.7499C34.0899 73.5099 34.0899 73.2699 34.0899 73.0299C34.0899 72.2399 34.0899 71.45 34.0899 70.67C34.0899 70.6 34.0899 70.5299 34.0899 70.4599C34.0899 70.0499 34.0799 69.64 34.0899 69.23C34.0999 68.82 34.0699 68.4399 34.0899 68.0499C34.1099 67.7499 34.2699 66.3299 34.3499 66.1499C34.6399 65.4899 35.4599 66.43 35.5699 66.76C35.6099 66.87 35.52 67.1099 35.53 67.2799Z" fill="#040302"/>
<path d="M36.5499 70.88C36.5699 70.32 36.5499 68.22 36.8499 67.84C37.3399 67.2 37.9199 68.54 37.9799 68.99C38.1499 70.43 37.9799 72.15 37.9799 73.6C37.9799 75.67 38.0999 77.93 37.9799 79.98C37.9599 80.38 37.8699 81.42 37.7299 81.74C37.5899 82.06 36.88 82.1 36.7 81.77C36.63 81.64 36.45 81.06 36.44 80.9C36.29 79.68 36.44 77.82 36.44 76.53C36.44 76.46 36.44 76.39 36.44 76.32C36.44 76.15 36.44 75.98 36.44 75.81C36.44 74.81 36.5199 73.83 36.5399 72.83C36.5399 72.8 36.5399 72.76 36.5399 72.73C36.5499 72.29 36.5399 71.84 36.5399 71.39C36.5399 71.32 36.44 71.29 36.44 71.29C36.44 71.16 36.5399 71 36.5399 70.88H36.5499Z" fill="#040302"/>
<path d="M35.53 67.28C35.84 67.22 35.73 67.44 35.74 67.63C35.81 69.49 35.68 71.37 35.65 73.19C35.65 73.51 35.88 73.85 35.54 74.15C35.54 71.86 35.58 69.56 35.54 67.27L35.53 67.28Z" fill="#F7A804"/>
<path d="M36.55 70.8801C36.55 71.0001 36.45 71.1601 36.45 71.2901L36.55 71.3901C36.55 71.8301 36.56 72.2801 36.55 72.7301L36.45 72.78L36.55 72.83C36.53 73.83 36.46 74.81 36.45 75.81C36.28 75.7 36.35 75.42 36.35 75.25C36.33 73.93 36.31 72.55 36.35 71.24C36.35 71.04 36.25 70.8301 36.56 70.8901L36.55 70.8801Z" fill="#F7A804"/>
<path d="M35.5301 74.3699C35.8401 74.3099 35.7301 74.5299 35.7401 74.7199C35.8001 76.1999 35.8601 78.2499 35.3301 79.5999C35.3901 78.6799 35.6201 77.6999 35.6401 76.7799C35.6601 75.9499 35.5301 75.1799 35.5301 74.3599V74.3699Z" fill="#F7A804"/>
<path d="M34.09 73.0399C33.92 72.3399 33.92 71.3799 34.09 70.6799C34.09 71.4699 34.09 72.2599 34.09 73.0399Z" fill="#F7A804"/>
<path d="M33.88 75.91C33.88 75.42 33.7899 74.79 33.9799 74.37C33.9699 74.86 34.08 75.48 33.88 75.91Z" fill="#F7A804"/>
<path d="M34.09 70.47C33.92 70.2 33.92 69.53 34.09 69.24C34.08 69.65 34.09 70.06 34.09 70.47Z" fill="#F7A804"/>
<path d="M36.45 76.53L36.38 76.41L36.45 76.33C36.45 76.4 36.45 76.47 36.45 76.54V76.53Z" fill="#F7A804"/>
<path d="M33.99 74.1701C33.99 74.1701 34.05 74.0801 34.09 74.0701C34.09 74.1201 34.04 74.1601 33.99 74.1701Z" fill="#F7A804"/>
<path d="M8.30994 133.33H8.20996V133.74H8.30994V133.33Z" fill="#F6B114"/>
<path d="M5.34 85.88C5.03 85.83 4.55001 85.95 4.28001 85.88C4.16001 85.85 4.16996 85.61 4.03996 85.58C3.90996 85.55 3.71 85.72 3.59 85.63C3.45 85.54 3.38999 84.97 3.31999 84.77C3.26999 84.65 3.1 84.66 3.09 84.57C3.06 84.41 3.06 83.93 3.09 83.76C3.11 83.58 3.24996 83.62 3.28996 83.53C3.41996 83.27 3.31999 82.99 3.75999 82.99C3.97999 82.99 5.34995 83.78 5.34995 83.87V85.87L5.34 85.88Z" fill="#F7A804"/>
<path d="M23.1 83C22.68 83.53 22.68 84.48 22.79 85.16C22.25 84.99 22.43 85.46 22.32 85.48C22.16 85.51 21.93 85.45 21.76 85.48C21.72 85.29 21.93 85.42 21.96 85.38C22.13 85.18 21.55 85.08 21.47 84.79C21.41 84.57 21.3 83.4 21.35 83.19C21.35 83.15 21.77 82.62 21.8 82.6C22.24 82.31 23.11 82.37 23.09 83.02L23.1 83Z" fill="#F7A804"/>
<path d="M12.3201 83.42C12.3801 83.51 12.1301 84.2 12.1301 84.4C12.1301 84.66 12.3101 84.93 12.2101 85.2C12.1701 85.32 12.0001 85.33 11.9501 85.4C11.9001 85.47 11.94 85.63 11.91 85.66C11.68 85.88 10.8901 85.49 10.8001 85.19C10.7501 85.01 10.8901 84.72 10.9001 84.5C10.9101 83.1 10.5801 82.77 12.3301 83.42H12.3201Z" fill="#F7A804"/>
<path d="M8.82993 83.93C8.80993 84.18 8.65992 84.61 8.62992 84.91C8.60992 85.11 8.6799 85.56 8.6099 85.67C8.5199 85.81 7.78989 85.79 7.59989 85.79C7.46989 85.04 7.82989 85.35 7.90989 85.28C8.02989 85.17 7.62989 84.64 7.59989 84.41C7.51989 83.86 7.5599 82.61 8.3599 83.03C8.7299 83.23 8.86994 83.53 8.83994 83.94L8.82993 83.93Z" fill="#F7A804"/>
<path d="M18.07 83.31C18.07 83.31 18.79 83.2 18.93 83.21C20 83.32 19.36 84.17 19.5 84.95C19.21 84.88 18.85 85.17 18.63 85.15C18.45 85.14 18.31 84.87 18.07 85.05C18.11 84.8 18.01 83.37 18.07 83.3V83.31Z" fill="#F7A804"/>
<path d="M5.94998 103.85C5.32998 103.76 4.41998 104.19 4.50998 103.29C4.54998 102.94 4.99 102.25 5.03 101.96C5.12 101.31 4.88999 101 4.82999 100.51C4.78999 100.21 4.58998 98.6 4.62998 98.48C4.67998 98.32 4.93 98.29 5.03 98.16C5.14 98.02 5.2 97.63 5.4 97.6C5.52 97.58 5.94998 98.02 5.94998 98.06V103.86V103.85Z" fill="#F7A804"/>
<path d="M36.5499 72.83L36.45 72.78L36.5499 72.73C36.5499 72.73 36.5499 72.8 36.5499 72.83Z" fill="#D28300"/>
<path d="M36.5499 71.39L36.45 71.29C36.45 71.29 36.5499 71.32 36.5499 71.39Z" fill="#D28300"/>
</svg>
