<svg width="84" height="51" viewBox="0 0 84 51" fill="none" xmlns="http://www.w3.org/2000/svg">
<path d="M38.6301 0.149987C45.1801 -0.330013 54.7701 4.56994 60.6301 7.53994C66.4601 10.4899 72.3201 13.8199 77.7801 17.4099C81.1401 19.6199 84.3201 22.02 82.7601 26.62C80.9001 32.1 75.17 30.46 71.1 28.94C63.18 25.98 55.7901 21.7099 47.4001 19.9099C39.2101 18.1499 34.8701 20.8 29.3901 26.49C24.2801 31.8 20.05 38.1 15.57 43.93C12.7 47.67 7.98008 53.2599 2.78008 49.7199C-2.32992 46.2499 1.27009 37.61 3.54009 33.37C8.01009 25.03 15.1601 17.36 21.7701 10.65C26.3701 5.97999 31.6601 0.669987 38.6301 0.149987ZM41.83 2.13998C41.54 1.96998 39.2501 1.98994 38.7901 2.03994C35.7101 2.38994 32.58 5.23998 32.33 8.38998C31.74 15.76 40.85 19.7399 45.71 13.9699C48.85 10.2399 47.6301 3.57997 42.6401 2.31997C42.4201 2.26997 42.27 2.18997 42.24 2.18997C41.95 2.17997 42.17 2.32997 41.83 2.12997V2.13998ZM54.37 6.64999C52.97 5.98999 51.41 5.22995 49.98 4.66995C49.72 4.56995 47.9901 3.94998 47.9101 4.01998C49.7701 7.72998 49.57 12.3699 46.74 15.5399C46.08 16.2799 45.3101 16.7699 44.5301 17.3599C45.0301 17.4499 45.63 17.4599 46.11 17.5499C47.77 17.8799 49.6601 18.3899 51.3001 18.8499C53.3601 19.4299 55.3701 20.1599 57.3801 20.9099L62.44 10.7299C62.44 10.6599 61.3601 10.1 61.1801 10.01C58.9601 8.87997 56.62 7.70999 54.36 6.64999H54.37ZM31.6301 4.79995C31.5501 4.72995 31.0001 5.07999 30.9001 5.14999C30.5401 5.38999 28.62 6.88999 28.48 7.14999C28.14 7.79999 28.3801 10.5 28.5401 11.32C29.0601 13.99 30.7401 16.42 32.8001 18.14C33.1101 18.4 34.0901 19.2 34.4001 19.31C34.6901 19.42 35.19 19.24 35.45 19.09C35.58 19.02 35.6 18.86 35.83 18.76C36.02 18.68 37.26 18.45 36.99 18.06C36.96 18.02 36.1901 17.79 36.0101 17.7C31.2601 15.41 29.07 10.18 31.35 5.26998C31.43 5.08998 31.6401 5.01996 31.6301 4.80996V4.79995ZM26.44 8.86996C26.29 8.82996 26.2701 8.92996 26.1801 8.99996C25.4801 9.53996 24.7801 10.48 24.1501 11.13C20.6801 14.67 17.2401 18.24 14.0201 22.03C12.8801 23.37 11.79 24.7699 10.7 26.1599L20.7 33.62C20.79 33.63 21.45 32.8 21.59 32.63C23.82 29.95 25.8601 27.24 28.3001 24.71C29.6701 23.28 31.24 21.8599 32.85 20.7299C32.98 20.5499 31.7901 19.71 31.6401 19.56C28.4801 16.63 26.54 13.3 26.45 8.86996H26.44ZM80.2601 26.93C81.3501 25.55 81.14 23.4 80.19 22C79.18 20.5 75.7701 18.51 74.1401 17.49C73.9401 17.36 73.0901 16.77 72.9301 16.87L68.5501 25.58C70.4301 26.43 72.4001 27.34 74.4001 27.88C76.5201 28.45 78.7201 28.89 80.2601 26.94V26.93ZM3.88005 37.7899C2.74005 40.1199 1.75007 43.23 2.52007 45.81C3.44007 48.94 6.01002 49.5299 8.72002 47.9799C10.39 47.0299 11.8401 45.41 12.9001 43.84L3.88005 37.7899Z" fill="#010101"/>
<path d="M26.4399 8.86999C26.5299 13.3 28.48 16.64 31.63 19.56C31.79 19.7 32.98 20.54 32.84 20.73C31.23 21.86 29.67 23.29 28.29 24.71C25.85 27.24 23.81 29.95 21.58 32.63C21.44 32.8 20.7699 33.63 20.6899 33.62L10.6899 26.16C11.7799 24.77 12.87 23.37 14.01 22.03C17.24 18.24 20.67 14.66 24.14 11.13C24.77 10.49 25.47 9.53999 26.17 8.99999C26.26 8.92999 26.2801 8.82999 26.4301 8.86999H26.4399Z" fill="#FDB201"/>
<path d="M54.37 6.65002C56.63 7.71002 58.9599 8.87 61.1899 10.01C61.3599 10.1 62.44 10.66 62.45 10.73L57.39 20.91C55.39 20.16 53.3701 19.43 51.3101 18.85C49.6701 18.39 47.78 17.87 46.12 17.55C45.63 17.45 45.04 17.44 44.54 17.36C45.32 16.77 46.09 16.28 46.75 15.54C49.57 12.38 49.78 7.74001 47.92 4.02001C48.01 3.96001 49.74 4.56998 49.99 4.66998C51.42 5.22998 52.98 5.99002 54.38 6.65002H54.37Z" fill="#FDB201"/>
<path d="M80.26 26.93C78.72 28.88 76.52 28.44 74.4 27.87C72.4 27.33 70.43 26.42 68.55 25.57L72.9301 16.86C73.0801 16.76 73.93 17.35 74.14 17.48C75.77 18.5 79.1799 20.5 80.1899 21.99C81.1399 23.39 81.35 25.54 80.26 26.92V26.93Z" fill="#FDB201"/>
<path d="M3.87996 37.79L12.9 43.8401C11.84 45.4101 10.3899 47.03 8.71993 47.98C6.00993 49.53 3.43998 48.9501 2.51998 45.8101C1.75998 43.2201 2.73996 40.11 3.87996 37.79Z" fill="#FDB201"/>
<path d="M41.83 2.13989C42.17 2.32989 41.95 2.17989 42.24 2.19989C42.27 2.19989 42.4201 2.2699 42.6401 2.3299C47.6301 3.5899 48.85 10.2599 45.71 13.9799C40.86 19.7399 31.75 15.7599 32.33 8.3999C32.58 5.2499 35.7101 2.38987 38.7901 2.04987C39.2501 1.99987 41.54 1.9899 41.83 2.1499V2.13989ZM38.1601 15.0699C38.3801 15.1599 40.5101 15.3099 40.7601 15.2699C43.3301 14.9099 45.9401 12.5099 46.1801 9.85986C46.7901 3.04986 37.8401 0.389905 34.5301 6.08991C32.4201 9.72991 34.5601 13.6499 38.1601 15.0599V15.0699Z" fill="#FDB201"/>
<path d="M31.63 4.79997C31.65 5.00997 31.43 5.08 31.35 5.26C29.08 10.17 31.27 15.4 36.01 17.69C36.19 17.78 36.96 18.01 36.99 18.05C37.25 18.44 36.01 18.67 35.83 18.75C35.6 18.85 35.57 19.01 35.45 19.08C35.19 19.23 34.7 19.41 34.4 19.3C34.09 19.19 33.1101 18.39 32.8001 18.13C30.7401 16.41 29.05 13.98 28.54 11.31C28.38 10.49 28.14 7.79 28.48 7.14C28.61 6.88 30.54 5.38 30.9 5.14C31 5.07 31.56 4.71997 31.63 4.78997V4.79997Z" fill="#FDB201"/>
<path d="M38.1601 15.0699C34.5601 13.6599 32.42 9.73984 34.53 6.09984C37.84 0.39984 46.7901 3.04986 46.1801 9.86986C45.9401 12.5099 43.34 14.9199 40.76 15.2799C40.51 15.3199 38.3801 15.1699 38.1601 15.0799V15.0699ZM38.61 5.01988C32.64 7.20988 36.24 15.2499 41.7 13.0899C46.73 11.0999 43.93 3.06988 38.61 5.01988Z" fill="#010101"/>
<path d="M38.61 5.0199C43.93 3.0699 46.73 11.0899 41.7 13.0899C36.24 15.2499 32.65 7.2099 38.61 5.0199ZM39.6701 6.37988C36.1001 6.77988 36.8201 12.3398 40.4201 11.9698C44.0201 11.5998 43.4501 5.94988 39.6701 6.37988Z" fill="#FDB201"/>
<path d="M39.67 6.37999C43.45 5.95999 44.08 11.6 40.42 11.97C36.76 12.34 36.1 6.77999 39.67 6.37999Z" fill="#010101"/>
</svg>
