<svg width="76" height="101" viewBox="0 0 76 101" fill="none" xmlns="http://www.w3.org/2000/svg">
<path d="M46.8299 8.62997C46.9199 8.69997 47.3699 8.75998 47.5699 8.84998C48.8599 9.41998 48.6899 10.47 49.3299 11.32C49.6899 11.8 50.48 11.87 50.89 12.79C51.2 13.5 50.99 14.11 51.18 14.7C51.28 15.01 51.69 15.31 51.87 15.66C52.22 16.33 52.22 17.23 52.01 17.95C51.97 18.09 51.79 18.23 51.78 18.36C51.77 18.5 52.11 19.17 52.13 19.54C52.16 20.05 51.86 20.73 51.88 20.92C51.89 21.02 53.13 21.81 53.4 22.22C54.63 24.09 52.45 27.79 51.92 29.8C51.39 31.84 51.66 33.44 51.49 35.43C51.26 38.1 48.4599 38.15 46.9499 36.49C46.2799 37.01 45.85 37.81 46.4 38.6C46.82 39.21 48.86 39.27 49.26 40.26C53.15 39.79 57.8199 42.15 59.7099 45.58C61.7899 49.35 62.94 56.99 63.67 61.36C64.31 65.21 65.18 68.94 63.92 72.76C63.25 74.8 61.39 77 64.61 77.95C66.47 78.5 68.34 78.71 70.12 79.6C75.73 82.39 77.67 89.98 73.74 94.98C69.38 100.52 58.66 100.63 52.27 99.75C51.49 99.64 49.24 99.05 48.65 99.28C48.44 99.37 48.08 99.72 47.77 99.87C45.09 101.19 38.82 101.08 36.1 99.84C35.64 99.63 35.2099 99.19 34.7099 99.2C34.2599 99.21 33.63 99.75 33.16 99.96C31.35 100.79 26.53 101.19 25.01 99.72C24.88 99.6 24.63 99.12 24.58 99.11C24.42 99.08 23.47 99.4 23.19 99.46C15.86 100.96 2.63998 100.01 1.05998 90.7C-0.220021 83.18 5.73995 79.21 12.16 77.58C13.27 77.3 14.56 77.19 15.61 76.9C15.73 76.87 15.84 76.89 15.92 76.76C15.31 76.23 14.64 75.9 14.08 75.29C11.09 72.06 12.2 66.91 12.81 62.99C13.29 59.88 13.84 56.63 14.48 53.54C15.94 46.51 17.5 41.34 25.45 39.99C26.63 39.79 30.1 39.74 30.41 38.24C30.5 37.8 30.45 36.62 29.91 36.48C29.75 36.44 28.58 37.35 28.23 37.34C24.45 38.11 25.27 34.34 25.11 32.01C25.08 31.5 24.98 30.91 24.88 30.41C24.38 28.03 21.65 24.15 23.45 21.91C23.66 21.65 24.61 20.96 24.64 20.89C24.7 20.7 24.43 19.93 24.46 19.53C24.49 19.15 24.81 18.68 24.82 18.43C24.83 17.93 24.34 17.36 24.47 16.42C24.58 15.57 25.28 15.2 25.43 14.72C25.52 14.43 25.43 14.14 25.48 13.85C25.65 12.85 26.03 11.97 26.96 11.48C27.1 11.41 27.3 11.46 27.4 11.35C27.52 11.22 27.66 10.6 27.77 10.37C28.01 9.89996 28.29 9.33998 28.74 9.03998C29 8.85998 29.73 8.65998 29.85 8.53998C29.96 8.43998 30.1 7.87998 30.22 7.66998C30.66 6.89998 31.25 6.30997 32.16 6.15997C32.27 4.90997 32.26 3.97996 33.57 3.48996C33.74 3.42996 34.0299 3.43996 34.0799 3.39996C34.1399 3.35996 34.17 2.99996 34.24 2.86996C34.5 2.39996 35.64 1.28998 36.18 1.22998C36.45 1.19998 36.64 1.32998 36.87 1.28998C37.27 1.22998 37.74 0.849976 38.36 0.849976C38.98 0.849976 39.52 1.22996 40.02 1.29996C40.57 1.37996 40.94 1.19996 41.48 1.57996C41.57 1.63996 42.22 2.30997 42.3 2.40997C42.48 2.63997 42.54 2.99996 42.76 3.23996C43.08 3.57996 43.72 3.79997 44.04 4.24997C44.55 4.95997 44.2 5.64996 44.41 6.07996C44.45 6.15996 45.61 6.65997 45.97 7.08997C46.26 7.42997 46.7 8.56997 46.77 8.62997H46.8299ZM38.7099 2.05997C38.1999 1.73997 38.1399 2.48998 38.0699 2.56998C37.9099 2.72998 37.5 2.46997 37.63 3.08997C37.7 3.41997 38.39 3.36998 38.68 3.31998C39.08 3.24998 39.2 2.68996 39.1 2.36996C39.07 2.27996 38.9099 2.31998 38.8299 2.25998C38.7599 2.19998 38.7399 2.07997 38.7099 2.05997ZM36.7099 2.77997C36.0399 2.57997 35.2099 3.85996 35.6999 4.20996C35.7899 4.26996 36.3399 4.15995 36.4399 4.10995C36.6499 3.99995 36.54 3.67997 36.81 3.87997L36.72 2.77997H36.7099ZM41 2.98996C40.81 2.82996 40.4499 2.74997 40.1999 2.77997C40.0599 3.58997 39.88 4.07996 40.9 4.14996C41.58 4.19996 41.31 3.26996 41 2.98996ZM42.29 4.71997C41.68 4.77997 41.23 5.20996 41.51 5.82996C41.73 6.31996 42.11 6.24995 42.54 6.35995C42.66 6.38996 42.82 6.55998 42.91 6.53998C43.17 6.48998 43.24 4.62997 42.3 4.71997H42.29ZM33.68 6.44998C34.15 6.55998 35.2799 6.21998 35.3399 5.66998C35.4699 4.50998 33.89 4.59996 33.77 5.20996C33.71 5.55996 33.79 6.05998 33.68 6.44998ZM40.0699 6.49997C40.4099 6.07997 40.4499 5.88998 40.1999 5.38998C39.9199 4.80998 39.5399 4.72996 39.0899 5.20996C38.4599 5.87996 39.2 6.30998 39.61 6.81998C39.78 6.86998 39.9699 6.62998 40.0699 6.50998V6.49997ZM36.9599 5.08997C36.3399 5.19997 36.1199 6.81996 36.5799 6.89996C36.6299 6.89996 37.52 6.56997 37.62 6.49997C38.4 5.93997 37.4999 4.99997 36.9599 5.08997ZM41.37 7.37997C41.02 7.43997 40.45 8.05997 40.47 8.40997C40.51 8.98997 41.69 9.39998 41.91 8.84998C42.12 8.33998 42.19 7.23996 41.36 7.36996L41.37 7.37997ZM33.02 8.81998C33.16 8.67998 33.21 7.92997 33.04 7.77997C32.64 7.43997 31.84 7.73997 31.58 8.15997C31.27 8.66997 31.38 9.13997 31.57 9.65997L32.33 9.08997C32.48 8.94997 32.9 8.91997 33.02 8.80997V8.81998ZM34.8 9.27997C34.96 9.37997 35.86 8.89996 35.93 8.73996C36.39 7.81996 34.6 7.38997 34.36 7.71997C34.15 8.00997 34.53 9.11996 34.79 9.26996L34.8 9.27997ZM38.89 9.08997C38.95 9.02997 39.18 8.33996 39.18 8.23996C39.18 7.50996 37.7199 7.48996 37.4399 7.86996C36.8299 8.66996 38.31 9.72998 38.89 9.09998V9.08997ZM45.16 9.65997C45.18 8.99997 45.4199 7.95998 44.5899 7.69998C44.2599 7.59998 43.74 7.56998 43.61 7.97998C43.31 8.98998 44.26 8.75997 44.78 9.24997C44.99 9.44997 44.89 9.68997 45.15 9.65997H45.16ZM40.17 9.58997C39.8 9.69997 39.4599 10.44 39.4599 10.81C39.4599 11.06 39.85 11.61 40.05 11.64C40.18 11.66 41.0799 11.34 41.1999 11.26C41.7299 10.87 41.22 9.25996 40.17 9.57996V9.58997ZM33.94 11.3C34 11.21 33.97 10.61 33.94 10.46C33.77 9.63996 32.75 9.60996 32.41 10.27C32.27 10.55 32.26 11.58 32.48 11.73C32.78 11.94 32.86 11.61 32.92 11.59C33.11 11.53 33.85 11.43 33.94 11.29V11.3ZM43.11 9.86996C42.53 10.01 42.69 10.74 42.91 11.13C43.07 11.42 43.7099 11.44 43.9399 11.76C44.7599 11.74 44.57 10.78 44.23 10.27C43.94 9.83996 43.64 9.73995 43.12 9.85995L43.11 9.86996ZM29.76 11.81C30.15 11.48 30.87 11.35 30.83 10.82C30.75 9.67998 29.41 9.79996 29.15 10.87C29.03 11.39 29.24 11.79 29.18 12.32C29.32 12.48 29.7 11.86 29.76 11.8V11.81ZM35.99 11.95C36.28 12.13 37.1 11.64 37.25 11.36C37.4 11.08 37.4099 10.25 37.0799 10.08C36.6899 9.88996 35.81 10.31 35.65 10.68C35.59 10.81 35.9 11.9 35.99 11.95ZM46.23 10.05C46.07 10.1 45.8499 10.39 45.8199 10.56C45.6299 11.42 46.28 11.5 46.8 11.93C46.95 12.06 47.04 12.42 47.31 12.33C47.5 12.27 47.42 11.9 47.47 11.76C47.52 11.62 47.6799 11.49 47.7099 11.35C47.8199 10.68 46.95 9.83997 46.23 10.06V10.05ZM41.73 12.26C41.41 12.33 40.96 12.75 40.88 13.07C40.75 13.54 41.2199 14.17 41.7099 14.18C41.9699 14.18 42.7699 13.92 42.9499 13.76C43.4699 13.27 42.7 12.05 41.73 12.27V12.26ZM39.0799 14.15C39.0799 14.15 39.53 13.24 39.54 13.19C39.58 12.72 38.95 12.32 38.51 12.33C37.06 12.36 36.98 14.16 38.05 14.26C38.2 14.28 38.9999 14.2 39.0899 14.15H39.0799ZM32.18 14.23C32.25 14.16 32.35 13.92 32.37 13.82C32.69 12.07 30.62 12.34 30.47 13.3C30.39 13.82 30.36 14.81 31.13 14.7C31.3 14.68 32.07 14.35 32.18 14.23ZM34.48 12.53C33.67 12.7 33.38 13.87 34.11 14.23C34.9 14.62 35.8899 14.32 35.9599 13.35C35.9999 12.75 35 12.42 34.48 12.52V12.53ZM49.5699 14.72C49.6099 14.08 49.9 13.32 49.24 12.9C48.31 12.3 47.6199 13.47 48.5699 14.03L49.5699 14.72ZM27.25 14.62C27.25 14.62 27.32 14.39 27.48 14.25C27.94 13.86 28.86 13.92 28.49 13.15C28.12 12.38 27.09 12.9 26.98 13.66C26.96 13.8 26.95 14.87 27.24 14.62H27.25ZM44.76 12.81C44.23 12.93 44.1099 13.57 44.3399 14.02C44.8499 15.01 46.67 14.87 46.31 13.52C46.12 12.82 45.41 12.66 44.77 12.81H44.76ZM28.19 16.44C28.58 16.66 29.4 16.35 29.64 15.96C30.54 14.47 27.88 13.85 27.89 15.59C27.89 15.77 28.06 16.37 28.19 16.44ZM47.43 14.83C46.91 14.96 46.77 15.59 47 16.04C47.56 17.12 49.26 16.55 48.81 15.7C48.63 15.36 47.8 14.74 47.42 14.83H47.43ZM42.8399 15.42C42.7099 15.5 41.6299 15.73 41.4499 15.72C40.9999 15.69 40.27 15.08 40.15 15.08C40.05 15.08 39.61 15.51 39.3 15.61C38.75 15.78 37.73 15.83 37.23 15.53C37.06 15.43 36.83 15.07 36.68 15.1C36.33 15.15 36.02 15.85 35.1 15.83C34.48 15.82 33.37 15.19 33.28 15.2C33.1 15.22 32.52 15.8 32.18 15.93C31.8 16.08 31.15 16.02 31.11 16.04C31.03 16.09 30.56 16.8 30.33 17.01C30.19 17.13 29.67 17.53 29.53 17.58C29.31 17.66 29.12 17.61 28.97 17.66C28.58 17.79 28.77 19.88 28.72 20.35C28.62 21.16 28.06 21.46 28.08 22.38C28.19 26.24 28.64 31 30.39 34.49C32.33 38.36 37.5199 39.67 41.4499 38.31C47.1499 36.35 48.2299 30.17 48.4399 24.84C48.4699 24.12 48.56 23.14 48.53 22.45C48.51 21.81 48.1 21.27 48.03 20.62C47.96 19.97 48.16 18.71 48 18.17C47.9 17.84 47.09 17.67 46.76 17.48C46.56 17.36 45.85 16.81 45.77 16.63C45.7 16.47 45.76 16.23 45.63 16.13C45.5 16.03 44.7599 15.98 44.4599 15.83C44.2199 15.71 43.53 15.02 43.47 15.02C43.12 14.98 42.96 15.35 42.85 15.42H42.8399ZM26.89 15.73C26.8 15.65 26.45 15.77 26.33 15.86C25.6 16.43 25.74 18.39 26.85 17.85C27.39 17.59 26.8 17.13 26.79 16.69C26.79 16.51 26.98 15.82 26.89 15.73ZM50.4599 17.81C50.6499 17.61 50.81 16.83 50.72 16.55C50.63 16.28 49.99 15.49 49.66 15.73C50.2 16.26 49.5099 17.1 49.5899 17.59C49.6499 18 50.2399 18.06 50.4599 17.82V17.81ZM27.34 20.64C27.41 20.4 27.34 19.51 27.34 19.17C27.34 19.08 26.93 18.95 26.82 18.94C26.03 18.89 25.67 20.01 26.09 20.51C26.3 20.76 27.22 21.08 27.34 20.64ZM49.54 18.96C49.01 19.12 48.89 20.57 49.73 20.76C50.36 20.9 50.61 20.82 50.67 20.18C50.75 19.4 50.46 18.68 49.54 18.96ZM26.7 24.18V22.48C26.7 22.32 25.97 22.1 25.8 22.09C24.99 22.04 24.39 22.93 24.39 23.68C24.39 25.84 25.9 27.93 26.37 30.06C26.69 31.52 26.51 32.72 26.59 34.15C26.61 34.48 26.71 35.46 26.86 35.69C27.23 36.23 28.8 35.59 28.96 34.99L27.58 31.31C27.25 29.66 27.25 27.95 26.51 26.41C26.29 25.95 25.36 24.73 25.3 24.4C25.2 23.85 25.45 23.12 26.12 23.49C26.25 23.56 26.53 24.36 26.67 24.18H26.7ZM50.03 24.09C50.61 24.12 51.0799 23.25 51.6899 23.76C52.0899 24.1 51.66 24.5 51.41 24.78C51.08 25.15 50.66 25.31 50.35 25.65C49.62 26.44 49.73 28.1 49.56 29.17C49.22 31.26 48.51 33.13 47.66 35.05C48 35.71 49.67 36.59 49.99 35.57C50.17 34.99 49.99 33.4 50.03 32.67C50.17 29.53 51.0799 28.03 51.9599 25.23C52.2799 24.21 52.61 22.75 51.29 22.31C51.01 22.22 50.03 22.2 50.03 22.56V24.08V24.09ZM44.79 38.32C44.65 38.18 43.3399 39.01 43.0799 39.13C41.8099 39.74 40.67 40.16 39.24 40.25C36.62 40.42 34.35 39.9 32.08 38.6C31.25 39.95 30.6 40.68 29.01 41.05C25.45 41.88 22.97 41.31 19.94 44.01C16.94 46.69 16.06 52.89 15.33 56.76C14.74 59.91 13.97 63.69 13.65 66.84C13.19 71.33 13.76 73.53 17.51 76.02C24.13 80.4 33.66 83.79 41.27 79.87C41.44 79.78 42.52 79.15 42.55 79.09C42.64 78.94 42.5199 78.73 42.3399 78.73C40.3299 78.98 38.31 79.54 36.27 79.47C35.19 79.44 32.86 79.17 31.94 78.66C31.45 78.39 31.27 77.65 31.77 77.35C32.2 77.09 34.3799 77.1 35.0699 76.98C35.6699 76.88 36.8199 76.54 36.6899 75.75C36.5699 75.01 34.8699 75.34 34.3399 75.34C32.9399 75.32 31.58 75.05 30.12 75.15C29.59 75.19 28.91 75.43 28.38 75.41C25.2 75.34 21.91 70.48 19.11 69.07C18.82 68.92 17.83 68.66 17.69 68.51C17.47 68.27 17.48 67.47 17.75 67.3C17.9 67.2 18.92 67.31 19.13 67.38C19.39 67.47 20.46 68.37 20.7 68.02C21.39 65.4 21.79 62.72 22.39 60.08C22.49 59.65 22.84 58.87 22.87 58.55C22.94 57.52 22.4 55.64 22.35 54.43C22.32 53.8 22.25 50.93 22.69 50.61C23.04 50.35 23.62 50.46 23.8 50.87C23.85 54.62 23.43 59.31 27.43 61.2C28.85 61.87 30.43 61.73 31.9 61.32C32.22 61.23 33.06 60.82 33.24 60.81C33.63 60.79 34 61.37 33.92 61.77C33.83 62.25 32.46 62.68 32.01 62.8C30.18 63.28 28.11 63.25 26.4 62.4C25.43 61.92 24.84 61.09 24.09 60.34C24.12 61.27 24.04 62.21 24.09 63.14C24.14 64.07 24.27 65.65 24.46 66.53C24.61 67.21 25.47 66.93 26.03 66.83C31.63 65.89 37.14 61.19 40.28 56.65C42.9 52.87 46.24 45.44 45.85 40.81C45.78 40.02 45.61 40.16 45.26 39.66C44.97 39.23 44.74 38.83 44.75 38.29L44.79 38.32ZM23.86 71.02C25.1 71.22 26.32 71.08 27.56 70.91C32.75 70.22 36.22 68.79 39.97 65.14C45.12 60.13 48.66 51.01 49.01 43.87C49.08 42.45 48.73 41.11 47.27 40.61C47.37 45.62 45.41 50.49 43.06 54.82C39.82 60.78 33.53 66.94 26.63 68.14C25.84 68.28 24.89 68.45 24.13 68.17L23.85 71.02H23.86ZM25.69 72.49C26.38 73.22 27.56 73.89 28.58 73.96C29.43 74.02 30.39 73.71 31.24 73.68C33.69 73.61 34.6 74 37.04 72.96C45.41 69.41 50.24 58.48 51.64 50C51.95 48.11 52.5 44.18 51.74 42.51C51.4 41.76 51.0599 41.21 50.1999 41.77C50.4199 42.4 50.51 42.93 50.47 43.6C49.91 54.07 43.8 67.29 33.37 71.04C30.93 71.92 28.22 72.02 25.68 72.49H25.69ZM60.65 76.88C60.71 76.83 60.9799 75.61 61.0899 75.34C61.5899 74.05 62.37 73 62.74 71.57C63.72 67.82 62.4 62.17 61.65 58.32C60.97 54.81 59.74 47.66 57.5 45.02C56.38 43.7 54.78 42.69 53.14 42.17C53.48 43.05 53.64 44.02 53.6 44.97C53.21 54.86 48.37 68.15 39.42 73.32C38.82 73.67 38.0199 73.93 37.4599 74.3C37.1699 74.49 37.18 74.64 37.52 74.74C37.81 74.83 38.31 74.34 38.62 74.18C39.94 73.47 42.43 73.8 44 73.77C46.04 73.74 47.4599 73.99 49.0899 72.53C52.3699 69.6 53.8299 59.95 54.3199 55.63C54.4599 54.42 54.41 52.95 54.62 51.79C54.76 51 55.88 50.81 55.98 51.86C56.08 52.98 55.74 55.25 55.6 56.45C55.18 59.87 54.33 63.21 53.78 66.61L55.93 63.48C56.28 62.43 56.8899 61.32 57.22 60.27C57.36 59.85 57.45 58.64 57.63 58.4C57.79 58.18 58.38 58.25 58.51 58.52C58.67 58.85 58.51 60.21 58.4 60.62C57.85 62.81 56.34 65.07 55.01 66.87C54.39 67.71 53.43 68.33 53.41 69.54C53.58 69.71 55.53 68.01 55.92 67.86C56.1 67.8 56.24 67.88 56.35 67.84C56.65 67.72 58.42 66.89 58.54 66.98C58.58 67.01 58.5699 67.19 58.6999 67.23C58.9599 67.32 59.2799 67.1 59.4399 67.49C59.5299 67.7 59.42 67.95 59.22 68.05C58.77 68.27 57.87 68.4 57.31 68.62C56.32 69 55.25 69.66 54.43 70.33C54.19 70.53 53.8299 70.79 53.6999 71.04C53.7299 71.23 55.2899 72.62 55.5699 72.94C56.4299 73.93 57 74.89 58.05 75.79C58.5 76.18 60.07 77.38 60.64 76.87L60.65 76.88ZM22.66 69.92C22.75 69.12 22.75 68.39 22.65 67.59C22.64 67.48 22.61 67.09 22.48 67.07C22.48 67.22 22.46 67.37 22.41 67.51C22.33 67.78 21.83 69.12 21.83 69.23C21.83 69.46 22.58 70 22.65 69.92H22.66ZM63.98 79.29C63.98 79.29 63.62 79.26 63.47 79.2C63.09 79.05 62.4199 78.64 62.0799 78.57C61.7099 78.5 61.06 78.68 60.55 78.63C57.46 78.32 55.93 75.26 53.98 73.36C53.18 72.58 51.9799 72.07 51.0899 73.05C50.5699 73.62 50.81 73.58 51.11 74.02C52.54 76.14 53.58 78.37 56.11 79.49C57.65 80.17 61.5 80.16 63.15 79.7C63.35 79.65 63.68 79.56 63.85 79.48C63.93 79.45 64.15 79.43 63.98 79.29ZM35.88 82.96C36.45 82.98 37.0199 83.2 37.5799 83.24C41.0599 83.47 47.61 80.57 50.63 78.76C50.92 78.58 51.81 78.16 51.75 77.8C51.25 77.24 50.21 74.54 49.6 74.43C49.06 74.33 48.61 74.8 48.14 74.98C46.68 75.55 45.6399 75.03 44.1899 75.07C43.6599 75.08 42.9899 75.23 42.4499 75.26C41.4499 75.31 40.4599 75.29 39.4599 75.39C38.7899 75.69 39.12 76.4 39.64 76.68C41 77.43 44.53 76.49 44.12 78.95C43.84 80.63 40.31 81.95 38.86 82.32C37.97 82.55 37.02 82.61 36.16 82.83C36.06 82.86 35.86 82.83 35.88 82.96ZM39.1 77.82C38.64 77.9 38.21 77.16 37.87 77.17L36.4399 78.09C37.2099 78.1 37.99 78.09 38.76 77.97C38.85 77.96 39.13 77.94 39.11 77.81L39.1 77.82ZM24.22 81.13C22.77 80.61 21.39 79.92 20.03 79.22C19.48 78.93 18.3 78.08 17.75 78.05C17.37 78.04 16.05 78.32 15.57 78.4C9.79999 79.4 2.10998 81.99 2.36998 89.17C2.67998 97.72 13.44 99.19 20.04 98.58C28.53 97.8 33.2 92.23 37.18 85.32C37.28 85.14 37.77 84.85 37.38 84.72C36.66 84.49 35.51 85.54 35 85.99C33.4 87.42 31.96 89.18 30.37 90.63C26.7 93.97 22.1 96.56 17.01 96.65C16.59 96.47 15.76 96.78 15.49 96.39C15.27 96.06 15.38 95.46 15.72 95.26C16.06 95.06 17.42 95.21 17.93 95.17C21.19 94.95 25.02 93.11 27.57 91.13C30.02 89.22 32.18 86.89 34.31 84.64C34.41 84.28 33.97 84.32 33.72 84.33C31.55 84.43 30.39 86.01 28.8 87.22C23.62 91.15 15.56 95.93 9.16996 91.81C8.63997 91.47 7.06998 90.31 8.11998 89.76C8.83998 89.38 9.43997 90.27 10.05 90.65C12.93 92.42 15.96 92.09 19.06 91.15C23.49 89.82 27.17 86.9 30.56 83.87C25.07 82.81 19.64 81.16 13.99 81.2C13.51 81.11 13.45 80.44 13.71 80.1C13.97 79.76 15.2 79.81 15.64 79.82C18.2 79.92 20.96 80.58 23.47 81.08L24.22 81.11V81.13ZM40.66 90.13C42.99 89.29 45.34 88.5 47.66 87.63C50.97 86.39 53.9199 84.96 57.4599 84.3C58.2899 84.14 60.9499 83.95 61.4599 83.52C62.2199 82.87 61.86 81.65 60.9 81.5C60.02 81.36 58.81 81.56 57.87 81.5C57.12 81.45 56.08 81.21 55.35 80.99C54.76 80.82 53.78 80.29 53.27 80.22C51.8 80.02 48.4 81.82 46.89 82.46C45.19 83.18 43.3199 83.49 42.4399 85.35L40.65 90.13H40.66ZM55.24 95.94C55.46 96.18 55.4099 96.81 55.0799 96.97C54.4899 97.26 52.26 96.75 51.55 96.56C49.13 95.88 45.42 93.84 43.79 91.92C43.62 91.72 43.2799 91.03 43.0799 90.97C42.2099 91.16 41.34 91.46 40.48 91.74C40.36 91.85 40.3599 92.02 40.4399 92.15C41.3999 93.29 42.5199 94.32 43.7099 95.22C44.1499 95.56 45.79 96.51 46 96.79C46.27 97.13 46.39 98.03 45.78 98.01C44.84 97.97 42.19 95.83 41.4 95.14C40.73 94.55 40.09 93.95 39.52 93.26C38.69 95.19 37.41 96.58 35.89 97.99C36.5 98.52 37.38 98.92 38.17 99.11C40.34 99.63 45.56 99.63 47.49 98.48C47.72 98.34 47.95 98.02 48.22 97.92C49.07 97.6 53.14 98.55 54.39 98.67C59.32 99.18 67.78 98.73 71.61 95.23C75.71 91.48 75.1 84.21 70.29 81.39C67.36 79.67 65.71 80.68 62.75 81.22C62.65 81.24 62.56 81.17 62.61 81.35C62.68 81.58 63.01 81.8 63.14 82.01C63.51 82.6 63.43 83.04 63.15 83.65C63.21 83.95 65.65 83.66 65.54 84.75C65.48 85.35 64.96 85.38 64.48 85.36C62.09 85.27 60.79 85.14 58.36 85.57C55.23 86.12 52.2 87.14 49.29 88.39C51.42 91.07 54.5299 92.67 57.9599 92.89C58.4899 92.92 60.16 92.75 60.49 92.93C60.7 93.05 60.73 93.73 60.66 93.93C60.6 94.09 60.22 94.21 60.06 94.24C57.42 94.72 53.25 93.51 51.06 91.99C49.83 91.13 49.0199 90.06 47.9399 89.04L44.52 90.32C45.35 91.86 47.2899 93.14 48.8299 93.95C51.0199 95.1 52.5399 95.2 54.8199 95.76C54.9099 95.78 55.18 95.89 55.23 95.94H55.24ZM31.25 82.96C31.83 83.02 32.58 82.96 33.18 82.96C33.2 82.96 33.45 82.87 33.41 82.78C32.44 82.87 31.52 82.57 30.56 82.69C30.61 82.83 31.14 82.95 31.25 82.96ZM41.5799 84.07C41.4799 84 40.18 84.44 39.98 84.54C38.63 85.2 37.13 88.31 36.18 89.65C33.8 93.03 31.28 95.79 27.62 97.81C27.4 97.93 26.2 98.44 26.16 98.51C25.94 98.86 26.51 99.06 26.75 99.14C29.36 99.98 32.69 98.96 34.74 97.22C37.95 94.48 38.7 90.97 40.11 87.25C40.52 86.17 40.9399 85.05 41.5799 84.08V84.07Z" fill="#0D0B04"/>
<path d="M44.7901 38.3201C44.7901 38.8601 45.0101 39.2701 45.3001 39.6901C45.6501 40.1901 45.83 40.0501 45.89 40.8401C46.28 45.4701 42.94 52.9001 40.32 56.6801C37.18 61.2201 31.67 65.92 26.07 66.86C25.5 66.96 24.64 67.2401 24.5 66.5601C24.31 65.6701 24.17 64.1001 24.13 63.1701C24.09 62.2401 24.16 61.3001 24.13 60.3701C24.88 61.1101 25.47 61.9401 26.44 62.4301C28.15 63.2801 30.22 63.31 32.05 62.83C32.5 62.71 33.86 62.28 33.96 61.8C34.04 61.4 33.6801 60.8101 33.2801 60.8401C33.1101 60.8501 32.26 61.2601 31.94 61.3501C30.47 61.7601 28.89 61.9001 27.47 61.2301C23.47 59.3401 23.8901 54.6501 23.8401 50.9001C23.6501 50.4901 23.08 50.3901 22.73 50.6401C22.29 50.9601 22.36 53.8301 22.39 54.4601C22.45 55.6601 22.99 57.55 22.91 58.58C22.89 58.9 22.53 59.67 22.43 60.11C21.83 62.75 21.43 65.43 20.74 68.05C20.5 68.4 19.43 67.5001 19.17 67.4101C18.95 67.3401 17.94 67.23 17.79 67.33C17.52 67.51 17.5 68.3101 17.73 68.5401C17.87 68.6901 18.85 68.9501 19.15 69.1001C21.95 70.5101 25.23 75.3701 28.42 75.4401C28.94 75.4501 29.63 75.2101 30.16 75.1801C31.62 75.0801 32.98 75.3401 34.38 75.3701C34.91 75.3701 36.61 75.0401 36.73 75.7801C36.86 76.5701 35.71 76.9001 35.11 77.0101C34.42 77.1301 32.23 77.1201 31.81 77.3801C31.31 77.6801 31.49 78.4201 31.98 78.6901C32.9 79.2001 35.2301 79.4701 36.3101 79.5001C38.3501 79.5601 40.36 79.0001 42.38 78.7601C42.57 78.7601 42.68 78.9601 42.59 79.1201C42.55 79.1901 41.4801 79.8101 41.3101 79.9001C33.6901 83.8201 24.17 80.42 17.55 76.05C13.79 73.56 13.22 71.3601 13.69 66.8701C14.01 63.7201 14.78 59.9401 15.37 56.7901C16.1 52.9201 16.98 46.7101 19.98 44.0401C23 41.3401 25.49 41.9 29.05 41.08C30.64 40.71 31.29 39.9801 32.12 38.6301C34.39 39.9301 36.6501 40.4501 39.2801 40.2801C40.7101 40.1901 41.85 39.7701 43.12 39.1601C43.38 39.0401 44.69 38.2101 44.83 38.3501L44.7901 38.3201ZM33.01 40.9101C32.66 41.0201 32.54 41.4901 32.62 41.8101C32.81 42.5601 34.7101 43.3201 35.4201 43.5101C38.0801 44.2101 41.07 43.7201 43.5 42.4901C44 42.1301 43.47 41.2101 42.82 41.2501C42.6 41.2601 41.8 41.7401 41.49 41.8501C39.62 42.5201 36.8901 42.6701 35.0401 41.8801C34.5701 41.6801 33.7901 40.9901 33.5301 40.9101C33.3801 40.8701 33.17 40.8601 33.02 40.9101H33.01Z" fill="#F09906"/>
<path d="M24.22 81.1301L23.47 81.1001C20.96 80.6001 18.2 79.9401 15.64 79.8401C15.2 79.8201 13.97 79.7901 13.71 80.1201C13.45 80.4501 13.5 81.1301 13.99 81.2201C19.64 81.1801 25.07 82.8301 30.56 83.8901C27.17 86.9201 23.49 89.8401 19.06 91.1701C15.96 92.1001 12.94 92.4301 10.05 90.6701C9.43 90.2901 8.84001 89.4001 8.12001 89.7801C7.07001 90.3301 8.64 91.4901 9.17 91.8301C15.56 95.9401 23.62 91.1701 28.8 87.2401C30.39 86.0301 31.55 84.4501 33.72 84.3501C33.97 84.3401 34.4101 84.3001 34.3101 84.6601C32.1901 86.9101 30.03 89.2401 27.57 91.1501C25.02 93.1301 21.19 94.9801 17.93 95.1901C17.42 95.2201 16.05 95.0801 15.72 95.2801C15.39 95.4801 15.27 96.0901 15.49 96.4101C15.76 96.8001 16.58 96.4901 17.01 96.6701C22.1 96.5801 26.7 93.9901 30.37 90.6501C31.96 89.2001 33.4 87.4401 35 86.0101C35.51 85.5601 36.65 84.5101 37.38 84.7401C37.77 84.8601 37.2801 85.1601 37.1801 85.3401C33.2001 92.2501 28.53 97.8201 20.04 98.6001C13.44 99.2101 2.67001 97.7401 2.37001 89.1901C2.11001 82.0201 9.80002 79.4201 15.57 78.4201C16.05 78.3401 17.37 78.0601 17.75 78.0701C18.3 78.0901 19.47 78.9501 20.03 79.2401C21.39 79.9501 22.78 80.6301 24.22 81.1501V81.1301Z" fill="#F09906"/>
<path d="M55.24 95.94C55.19 95.88 54.92 95.78 54.83 95.76C52.54 95.19 51.03 95.09 48.84 93.95C47.3 93.14 45.36 91.87 44.53 90.32L47.95 89.04C49.03 90.05 49.8399 91.13 51.0699 91.99C53.2599 93.51 57.4299 94.72 60.0699 94.24C60.2399 94.21 60.62 94.09 60.67 93.93C60.74 93.73 60.71 93.05 60.5 92.93C60.17 92.74 58.5 92.93 57.97 92.89C54.54 92.67 51.42 91.06 49.3 88.39C52.21 87.14 55.24 86.12 58.37 85.57C60.8 85.14 62.1 85.27 64.49 85.36C64.97 85.38 65.49 85.35 65.55 84.75C65.66 83.67 63.22 83.96 63.16 83.65C63.44 83.04 63.52 82.6 63.15 82.01C63.02 81.8 62.68 81.58 62.62 81.35C62.57 81.17 62.66 81.24 62.76 81.22C65.72 80.67 67.38 79.66 70.3 81.39C75.1 84.21 75.72 91.48 71.62 95.23C67.8 98.73 59.33 99.18 54.4 98.67C53.15 98.54 49.08 97.6 48.23 97.92C47.96 98.02 47.73 98.34 47.5 98.48C45.57 99.63 40.3501 99.63 38.1801 99.11C37.3901 98.92 36.52 98.52 35.9 97.99C37.42 96.58 38.69 95.19 39.53 93.26C40.1 93.95 40.74 94.55 41.41 95.14C42.2 95.83 44.85 97.97 45.79 98.01C46.4 98.03 46.28 97.14 46.01 96.79C45.8 96.51 44.16 95.56 43.72 95.22C42.54 94.32 41.41 93.29 40.45 92.15C40.37 92.01 40.37 91.85 40.49 91.74C41.35 91.47 42.22 91.17 43.09 90.97C43.29 91.03 43.63 91.72 43.8 91.92C45.43 93.84 49.1401 95.88 51.5601 96.56C52.2701 96.76 54.49 97.26 55.09 96.97C55.42 96.81 55.48 96.18 55.25 95.94H55.24Z" fill="#F09906"/>
<path d="M42.8399 15.42C42.9499 15.35 43.1099 14.98 43.4599 15.02C43.5199 15.02 44.2099 15.72 44.4499 15.83C44.7499 15.98 45.49 16.03 45.62 16.13C45.75 16.23 45.69 16.48 45.76 16.63C45.84 16.81 46.55 17.36 46.75 17.48C47.08 17.67 47.89 17.84 47.99 18.17C48.15 18.71 47.95 19.95 48.02 20.62C48.09 21.29 48.5 21.82 48.52 22.45C48.55 23.14 48.46 24.12 48.43 24.84C48.22 30.17 47.1399 36.35 41.4399 38.31C37.5199 39.66 32.32 38.35 30.38 34.49C28.63 31 28.18 26.24 28.07 22.38C28.04 21.46 28.61 21.16 28.71 20.35C28.77 19.88 28.57 17.79 28.96 17.66C29.11 17.61 29.3 17.66 29.52 17.58C29.66 17.53 30.18 17.13 30.32 17.01C30.55 16.8 31.02 16.09 31.1 16.04C31.15 16.01 31.79 16.08 32.17 15.93C32.5 15.8 33.09 15.21 33.27 15.2C33.37 15.2 34.4699 15.82 35.0899 15.83C36.0099 15.85 36.32 15.15 36.67 15.1C36.82 15.08 37.05 15.43 37.22 15.53C37.72 15.83 38.75 15.78 39.29 15.61C39.6 15.51 40.04 15.08 40.14 15.08C40.25 15.08 40.9899 15.69 41.4399 15.72C41.6099 15.73 42.6999 15.5 42.8299 15.42H42.8399ZM38.4399 17.49C38.3699 17.43 37.82 17.52 37.74 17.59C37.34 17.92 37.47 19.49 37.77 19.58C37.91 19.62 38.56 19.42 38.62 19.25C38.71 18.99 38.6399 17.67 38.4399 17.49ZM40.1899 29.24C39.5899 28.86 38.6799 30.26 37.9499 29.78C37.7799 27.63 37.99 25.36 37.5 23.25C36.93 20.82 35.18 19.74 32.72 19.94C32.17 19.98 30.24 20.5 29.72 20.7C29.32 20.86 29.28 21.36 29.56 21.64C29.98 22.05 31.91 21.3 32.55 21.24C37.96 20.69 36.07 26.88 36.74 30.07C37 31.32 38.9899 31.17 39.8299 30.55C40.1499 30.31 40.5499 29.46 40.1899 29.24ZM47.0699 20.7C47.0099 20.65 46.67 20.7 46.51 20.67C45.78 20.5 45.21 20.14 44.37 20.06C43.53 19.98 41.5 20.16 40.81 20.7C40.34 21.07 40.79 21.75 41.4 21.61L41.13 21.79C41.81 21.7 42.42 21.4 43.12 21.34C43.4 21.31 43.75 21.31 44.03 21.32C44.61 21.35 47.08 22.12 47.37 21.68C47.46 21.54 47.1599 20.75 47.0899 20.69L47.0699 20.7ZM46.15 24.48C45.78 24.11 44.83 24.82 44.41 24.95C43.79 25.13 42.8199 25.18 42.1999 24.99C41.7899 24.86 40.83 24.16 40.49 24.7C39.88 25.65 42.1 26.31 42.74 26.38C43.67 26.48 45.38 26.18 46.03 25.47C46.25 25.23 46.39 24.73 46.15 24.48ZM30.53 24.47C30.34 24.53 30.2 24.87 30.19 25.06C30.16 25.88 32.25 26.42 32.9 26.47C33.55 26.52 35.07 26.25 35.22 25.49C35.44 24.41 34.17 24.96 33.63 25C33.34 25.02 32.91 25.03 32.62 25C31.97 24.93 31.07 24.3 30.52 24.47H30.53ZM35.68 32.18C35.36 32.23 35.13 32.74 35.15 33.04C35.19 33.68 36.7799 34.12 37.3299 34.18C38.2599 34.27 40.68 34.08 41.31 33.32C41.51 33.08 41.4999 32.35 41.0799 32.27C40.5599 32.17 40.5499 32.46 40.2099 32.59C39.1299 33.02 38.2 33.2 37.06 32.8C36.75 32.69 35.89 32.16 35.68 32.19V32.18ZM37.0799 34.47C36.5399 34.44 36.68 35.05 36.35 35.11C36.58 35.22 36.62 35.52 36.72 35.61C37.11 35.99 39.94 35.91 40.1 35.41C40.14 35.31 40.15 34.83 40.1 34.75C39.86 34.36 37.43 34.62 36.9 34.64L37.0799 34.46V34.47Z" fill="#F09906"/>
<path d="M60.6501 76.8799C60.0801 77.3799 58.5101 76.1799 58.0601 75.7999C57.0101 74.8999 56.44 73.95 55.58 72.95C55.3 72.63 53.74 71.2399 53.71 71.0499C53.84 70.7999 54.2 70.5399 54.44 70.3399C55.26 69.6699 56.33 69.0099 57.32 68.6299C57.88 68.4199 58.78 68.2899 59.23 68.0599C59.43 67.9599 59.53 67.7099 59.45 67.4999C59.29 67.1099 58.97 67.3299 58.71 67.2399C58.58 67.1999 58.5901 67.0199 58.5501 66.9899C58.4301 66.8999 56.66 67.7399 56.36 67.8499C56.25 67.8899 56.1101 67.7999 55.9301 67.8699C55.5401 68.0099 53.5901 69.7199 53.4201 69.5499C53.4401 68.3399 54.4001 67.7199 55.0201 66.8799C56.3501 65.0699 57.8601 62.8099 58.4101 60.6299C58.5101 60.2199 58.6801 58.8599 58.5201 58.5299C58.3901 58.2599 57.8001 58.1799 57.6401 58.4099C57.4601 58.6499 57.37 59.8599 57.23 60.2799C56.89 61.3199 56.29 62.4399 55.94 63.4899L53.7901 66.6199C54.3501 63.2199 55.2 59.8799 55.61 56.4599C55.76 55.2599 56.09 52.9899 55.99 51.8699C55.9 50.8199 54.77 51.0199 54.63 51.7999C54.43 52.9599 54.47 54.42 54.33 55.64C53.84 59.96 52.37 69.6199 49.1 72.5399C47.46 73.9999 46.0401 73.7499 44.0101 73.7799C42.4401 73.7999 39.95 73.4799 38.63 74.1899C38.32 74.3499 37.8201 74.8399 37.5301 74.7499C37.1901 74.6499 37.18 74.4999 37.47 74.3099C38.03 73.9399 38.8301 73.6799 39.4301 73.3299C48.3701 68.1599 53.22 54.87 53.61 44.9799C53.65 44.0299 53.4901 43.0599 53.1501 42.1799C54.8001 42.6999 56.4001 43.7099 57.5101 45.0299C59.7501 47.6799 60.9801 54.8199 61.6601 58.3299C62.4101 62.1699 63.72 67.8199 62.75 71.5799C62.38 73.0099 61.6 74.0499 61.1 75.3499C61 75.6199 60.7201 76.83 60.6601 76.89L60.6501 76.8799Z" fill="#F09906"/>
<path d="M23.86 71.0199L24.14 68.1699C24.9 68.4599 25.84 68.2799 26.64 68.1399C33.54 66.9399 39.8399 60.7799 43.0699 54.8199C45.4199 50.4999 47.38 45.6199 47.28 40.6099C48.75 41.1099 49.09 42.4499 49.02 43.8699C48.67 50.9999 45.13 60.1299 39.98 65.1399C36.22 68.7899 32.75 70.2199 27.57 70.9099C26.33 71.0799 25.11 71.2199 23.87 71.0199H23.86Z" fill="#F09906"/>
<path d="M25.69 72.4899C28.23 72.0199 30.94 71.9199 33.38 71.0399C43.82 67.2899 49.93 54.0699 50.48 43.5999C50.52 42.9199 50.42 42.3999 50.21 41.7699C51.07 41.2099 51.41 41.7599 51.75 42.5099C52.51 44.1899 51.96 48.1099 51.65 49.9999C50.25 58.4799 45.42 69.4099 37.05 72.9599C34.61 73.9999 33.69 73.5999 31.25 73.6799C30.4 73.6999 29.44 74.0099 28.59 73.9599C27.56 73.8899 26.39 73.2299 25.7 72.4899H25.69Z" fill="#F09906"/>
<path d="M40.66 90.13L42.45 85.35C43.34 83.49 45.2 83.18 46.9 82.46C48.4 81.82 51.8 80.02 53.28 80.22C53.79 80.29 54.76 80.82 55.36 80.99C56.09 81.21 57.13 81.45 57.88 81.5C58.82 81.56 60.03 81.37 60.91 81.5C61.87 81.65 62.23 82.87 61.47 83.52C60.96 83.95 58.31 84.14 57.47 84.3C53.93 84.96 50.98 86.39 47.67 87.63C45.35 88.5 43 89.29 40.67 90.13H40.66Z" fill="#F09906"/>
<path d="M41.5799 84.0701C40.9399 85.0301 40.52 86.1501 40.11 87.2401C38.71 90.9601 37.95 94.4701 34.74 97.2101C32.7 98.9501 29.37 99.9701 26.75 99.1301C26.51 99.0501 25.9399 98.8601 26.1599 98.5001C26.1999 98.4301 27.39 97.9301 27.62 97.8001C31.28 95.7801 33.79 93.0201 36.18 89.6401C37.13 88.3001 38.63 85.1901 39.98 84.5301C40.17 84.4401 41.4799 83.9901 41.5799 84.0601V84.0701Z" fill="#F09906"/>
<path d="M35.88 82.9601C35.86 82.8201 36.05 82.8501 36.16 82.8301C37.02 82.6101 37.97 82.5401 38.86 82.3201C40.32 81.9501 43.84 80.6301 44.12 78.9501C44.53 76.4901 41 77.4301 39.64 76.6801C39.12 76.3901 38.79 75.6801 39.46 75.3901C40.45 75.2801 41.4499 75.3101 42.4499 75.2601C42.9899 75.2301 43.6599 75.0901 44.1899 75.0701C45.6399 75.0401 46.68 75.5501 48.14 74.9801C48.62 74.7901 49.07 74.3301 49.6 74.4301C50.21 74.5401 51.25 77.2501 51.75 77.8001C51.8 78.1601 50.92 78.5801 50.63 78.7601C47.61 80.5801 41.06 83.4701 37.58 83.2401C37.02 83.2001 36.45 82.9801 35.88 82.9601Z" fill="#F09906"/>
<path d="M63.98 79.2899C64.15 79.4299 63.9299 79.4499 63.8499 79.4799C63.6799 79.5599 63.35 79.6499 63.15 79.6999C61.5 80.1599 57.65 80.1698 56.11 79.4898C53.58 78.3798 52.54 76.1398 51.11 74.0198C50.81 73.5798 50.5699 73.6198 51.0899 73.0498C51.9799 72.0698 53.17 72.5798 53.98 73.3598C55.93 75.2598 57.46 78.3199 60.55 78.6299C61.06 78.6799 61.7099 78.4999 62.0799 78.5699C62.4199 78.6399 63.0899 79.0499 63.4699 79.1999C63.6199 79.2599 63.96 79.2699 63.98 79.2899Z" fill="#F09906"/>
<path d="M26.7 24.1799C26.56 24.3599 26.28 23.5599 26.15 23.4899C25.48 23.1199 25.23 23.8499 25.33 24.3999C25.39 24.7299 26.31 25.9499 26.54 26.4099C27.28 27.9499 27.28 29.6599 27.61 31.3099L28.99 34.9899C28.82 35.5899 27.25 36.2299 26.89 35.6899C26.73 35.4599 26.64 34.4799 26.62 34.1499C26.53 32.7199 26.72 31.5099 26.4 30.0599C25.93 27.9299 24.42 25.8399 24.42 23.6799C24.42 22.9399 25.02 22.0499 25.83 22.0899C25.99 22.0899 26.73 22.3199 26.73 22.4799V24.1799H26.7Z" fill="#F09906"/>
<path d="M50.03 24.0899V22.5699C50.03 22.2099 51.01 22.2299 51.29 22.3199C52.61 22.7499 52.28 24.2199 51.96 25.2399C51.08 28.0399 50.16 29.5399 50.03 32.6799C50 33.4099 50.17 34.9999 49.99 35.5799C49.67 36.5999 48 35.7099 47.66 35.0599C48.51 33.1399 49.2201 31.2699 49.5601 29.1799C49.7301 28.0999 49.62 26.4499 50.35 25.6599C50.66 25.3299 51.08 25.1599 51.41 24.7899C51.66 24.5099 52.0899 24.0999 51.6899 23.7699C51.0799 23.2599 50.61 24.1299 50.03 24.0999V24.0899Z" fill="#F09906"/>
<path d="M32.18 14.2299C32.07 14.3499 31.3 14.6799 31.13 14.6999C30.36 14.7999 30.39 13.8199 30.47 13.2999C30.62 12.3399 32.7 12.0699 32.37 13.8199C32.35 13.9199 32.25 14.1599 32.18 14.2299Z" fill="#F09906"/>
<path d="M39.0799 14.15C38.9899 14.21 38.2 14.28 38.04 14.26C36.97 14.15 37.0599 12.36 38.4999 12.33C38.9399 12.33 39.57 12.72 39.53 13.19C39.53 13.24 39.1199 14.12 39.0699 14.15H39.0799Z" fill="#F09906"/>
<path d="M34.48 12.5299C35 12.4199 35.9999 12.7599 35.9599 13.3599C35.8899 14.3299 34.9 14.6299 34.11 14.2399C33.38 13.8799 33.67 12.6999 34.48 12.5399V12.5299Z" fill="#F09906"/>
<path d="M41.7299 12.2599C42.6999 12.0399 43.4699 13.2599 42.9499 13.7499C42.7699 13.9199 41.9699 14.1799 41.7099 14.1699C41.2199 14.1699 40.75 13.5299 40.88 13.0599C40.96 12.7399 41.4199 12.3199 41.7299 12.2499V12.2599Z" fill="#F09906"/>
<path d="M44.76 12.81C45.4 12.67 46.12 12.82 46.3 13.52C46.66 14.86 44.8399 15.01 44.3299 14.02C44.0999 13.58 44.22 12.93 44.75 12.81H44.76Z" fill="#F09906"/>
<path d="M40.17 9.58989C41.22 9.26989 41.74 10.8799 41.2 11.2699C41.08 11.3499 40.19 11.6699 40.05 11.6499C39.84 11.6199 39.46 11.0599 39.46 10.8199C39.46 10.4499 39.8 9.7099 40.17 9.5999V9.58989Z" fill="#F09906"/>
<path d="M28.19 16.44C28.06 16.37 27.89 15.77 27.89 15.59C27.89 13.85 30.55 14.4699 29.64 15.9599C29.4 16.3599 28.57 16.67 28.19 16.44Z" fill="#F09906"/>
<path d="M46.23 10.05C46.95 9.84001 47.8199 10.67 47.7099 11.34C47.6899 11.48 47.5299 11.6 47.4699 11.75C47.4099 11.9 47.5 12.26 47.31 12.32C47.03 12.41 46.95 12.04 46.8 11.92C46.28 11.5 45.6299 11.41 45.8199 10.55C45.8599 10.38 46.07 10.09 46.23 10.04V10.05Z" fill="#F09906"/>
<path d="M47.43 14.83C47.81 14.74 48.6399 15.36 48.8199 15.7C49.2699 16.55 47.56 17.12 47.01 16.04C46.78 15.59 46.9099 14.96 47.4399 14.83H47.43Z" fill="#F09906"/>
<path d="M33.94 11.3C33.86 11.44 33.11 11.54 32.92 11.6C32.86 11.62 32.78 11.95 32.48 11.74C32.26 11.58 32.26 10.56 32.41 10.28C32.74 9.61996 33.77 9.64997 33.94 10.47C33.97 10.62 34 11.21 33.94 11.31V11.3Z" fill="#F09906"/>
<path d="M43.11 9.86992C43.64 9.73992 43.93 9.84993 44.22 10.2799C44.57 10.7899 44.7601 11.7499 43.9301 11.7699C43.7101 11.4499 43.07 11.4199 42.9 11.1399C42.68 10.7499 42.52 10.0199 43.1 9.87993L43.11 9.86992Z" fill="#F09906"/>
<path d="M35.99 11.95C35.91 11.9 35.6001 10.81 35.6501 10.68C35.8001 10.31 36.69 9.88997 37.08 10.08C37.41 10.25 37.4101 11.06 37.2501 11.36C37.0901 11.66 36.28 12.13 35.99 11.95Z" fill="#F09906"/>
<path d="M29.76 11.81C29.69 11.87 29.32 12.48 29.18 12.33C29.24 11.8 29.03 11.39 29.15 10.88C29.41 9.81001 30.74 9.68999 30.83 10.83C30.87 11.35 30.15 11.48 29.76 11.82V11.81Z" fill="#F09906"/>
<path d="M49.54 18.96C50.46 18.68 50.75 19.4 50.67 20.18C50.61 20.81 50.35 20.9 49.73 20.76C48.9 20.57 49.02 19.12 49.54 18.96Z" fill="#F09906"/>
<path d="M38.89 9.09004C38.31 9.72004 36.83 8.67003 37.44 7.86003C37.73 7.48003 39.1801 7.50005 39.1801 8.23005C39.1801 8.33005 38.95 9.02003 38.89 9.08003V9.09004Z" fill="#F09906"/>
<path d="M33.02 8.81996C32.91 8.92996 32.49 8.95996 32.33 9.09996L31.57 9.66997C31.38 9.14997 31.27 8.67997 31.58 8.16997C31.84 7.73997 32.64 7.43996 33.04 7.78996C33.21 7.92996 33.16 8.67994 33.02 8.82994V8.81996Z" fill="#F09906"/>
<path d="M27.34 20.64C27.22 21.08 26.3 20.76 26.09 20.51C25.68 20.02 26.04 18.89 26.82 18.94C26.93 18.94 27.34 19.08 27.34 19.17C27.34 19.51 27.41 20.4 27.34 20.64Z" fill="#F09906"/>
<path d="M33.68 6.44992C33.8 6.05992 33.71 5.5599 33.77 5.2099C33.88 4.5999 35.46 4.50992 35.34 5.66992C35.28 6.21992 34.15 6.55992 33.68 6.44992Z" fill="#F09906"/>
<path d="M42.2901 4.71996C43.2401 4.62996 43.16 6.48997 42.9 6.53997C42.82 6.55997 42.66 6.38994 42.53 6.35994C42.1 6.23994 41.72 6.31995 41.5 5.82995C41.22 5.21995 41.67 4.78996 42.28 4.71996H42.2901Z" fill="#F09906"/>
<path d="M41.37 7.38003C42.2 7.24003 42.1301 8.35001 41.9201 8.86001C41.6901 9.41001 40.51 9.00004 40.48 8.42004C40.46 8.07004 41.02 7.44004 41.38 7.39004L41.37 7.38003Z" fill="#F09906"/>
<path d="M36.96 5.08995C37.51 4.98995 38.4 5.93995 37.62 6.49995C37.52 6.56995 36.64 6.90995 36.58 6.89995C36.12 6.81995 36.33 5.19995 36.96 5.08995Z" fill="#F09906"/>
<path d="M34.8 9.28002C34.54 9.13002 34.16 8.02003 34.37 7.73003C34.6 7.40003 36.3899 7.83002 35.9399 8.75002C35.8599 8.91002 34.97 9.38003 34.81 9.29003L34.8 9.28002Z" fill="#F09906"/>
<path d="M45.16 9.66C44.9 9.69 45 9.44999 44.79 9.24999C44.27 8.75999 43.3199 8.99001 43.6199 7.98001C43.7399 7.57001 44.2699 7.60001 44.5999 7.70001C45.4299 7.96001 45.19 9 45.17 9.66H45.16Z" fill="#F09906"/>
<path d="M49.5699 14.7199L48.5699 14.0299C47.6199 13.4699 48.3099 12.2999 49.2399 12.8999C49.8999 13.3299 49.6199 14.0799 49.5699 14.7199Z" fill="#F09906"/>
<path d="M40.0699 6.49993C39.9699 6.61993 39.7799 6.85993 39.6099 6.80993C39.2099 6.29993 38.4599 5.86994 39.0899 5.19994C39.5399 4.71994 39.9199 4.79994 40.1999 5.37994C40.4399 5.87994 40.3999 6.07992 40.0699 6.48992V6.49993Z" fill="#F09906"/>
<path d="M26.89 15.7299C26.98 15.8199 26.79 16.5099 26.79 16.6899C26.8 17.1299 27.39 17.5899 26.85 17.8499C25.74 18.3899 25.6 16.4299 26.33 15.8599C26.45 15.7599 26.8 15.6499 26.89 15.7299Z" fill="#F09906"/>
<path d="M27.25 14.6199C26.95 14.8699 26.97 13.7999 26.99 13.6599C27.1 12.8999 28.11 12.3399 28.5 13.1499C28.89 13.9599 27.94 13.8599 27.49 14.2499C27.33 14.3899 27.28 14.5999 27.26 14.6199H27.25Z" fill="#F09906"/>
<path d="M50.4599 17.81C50.2399 18.05 49.65 18 49.59 17.58C49.51 17.09 50.21 16.25 49.66 15.72C49.99 15.48 50.64 16.28 50.72 16.54C50.81 16.82 50.65 17.61 50.4599 17.8V17.81Z" fill="#F09906"/>
<path d="M38.71 2.05997C38.71 2.05997 38.76 2.19998 38.83 2.25998C38.91 2.31998 39.08 2.27997 39.1 2.36997C39.2 2.69997 39.0801 3.24998 38.6801 3.31998C38.3901 3.36998 37.7001 3.41997 37.6301 3.08997C37.5001 2.45997 37.91 2.71998 38.07 2.56998C38.15 2.48998 38.2 1.74997 38.71 2.05997Z" fill="#F09906"/>
<path d="M41 2.98989C41.31 3.26989 41.59 4.19989 40.9 4.14989C39.89 4.07989 40.0699 3.5899 40.1999 2.7799C40.4399 2.7499 40.81 2.82989 41 2.98989Z" fill="#F09906"/>
<path d="M36.71 2.77999L36.8 3.88C36.54 3.67 36.6401 3.98998 36.4301 4.10998C36.3301 4.15998 35.7799 4.26999 35.6899 4.20999C35.1999 3.85999 36.0399 2.57999 36.6999 2.77999H36.71Z" fill="#F09906"/>
<path d="M39.1 77.8201C39.12 77.9501 38.85 77.9601 38.75 77.9801C37.98 78.0901 37.2101 78.1101 36.4301 78.1001L37.86 77.1801C38.2 77.1601 38.63 77.9001 39.09 77.8301L39.1 77.8201Z" fill="#F09906"/>
<path d="M31.25 82.9599C31.14 82.9499 30.61 82.8199 30.56 82.6899C31.52 82.5699 32.44 82.8699 33.41 82.7799C33.45 82.8699 33.2 82.9599 33.18 82.9599C32.58 82.9599 31.83 83.0199 31.25 82.9599Z" fill="#F09906"/>
<path d="M33.01 40.9101C33.16 40.8601 33.37 40.8701 33.52 40.9101C33.78 40.9901 34.5701 41.6801 35.0301 41.8801C36.8801 42.6701 39.61 42.5301 41.48 41.8501C41.8 41.7401 42.5901 41.2601 42.8101 41.2501C43.4601 41.2101 44 42.1401 43.49 42.4901C41.06 43.7101 38.0801 44.2001 35.4101 43.5101C34.7001 43.3201 32.8 42.5601 32.61 41.8101C32.53 41.4901 32.65 41.0101 33 40.9101H33.01Z" fill="#0D0B04"/>
<path d="M40.1899 29.2399C40.5499 29.4599 40.15 30.3099 39.83 30.5499C38.99 31.1799 37 31.3199 36.74 30.0699C36.07 26.8799 37.97 20.6899 32.55 21.2399C31.91 21.3099 29.97 22.0499 29.56 21.6399C29.28 21.3699 29.32 20.8599 29.72 20.6999C30.24 20.4899 32.18 19.9799 32.72 19.9399C35.18 19.7399 36.93 20.8199 37.5 23.2499C38 25.3599 37.79 27.6299 37.95 29.7799C38.68 30.2599 39.5899 28.8599 40.1899 29.2399Z" fill="#0D0B04"/>
<path d="M47.0699 20.7C47.1399 20.76 47.4399 21.55 47.3499 21.69C47.0699 22.13 44.59 21.36 44.01 21.33C43.73 21.31 43.3799 21.33 43.0999 21.35C42.4099 21.41 41.7899 21.71 41.1099 21.8L41.3799 21.62C40.7799 21.76 40.32 21.08 40.79 20.71C41.48 20.17 43.4899 19.99 44.3499 20.07C45.2099 20.15 45.7599 20.51 46.4899 20.68C46.6499 20.72 47 20.67 47.05 20.71L47.0699 20.7Z" fill="#0D0B04"/>
<path d="M35.68 32.1799C35.89 32.1499 36.75 32.6799 37.06 32.7899C38.2 33.1899 39.12 33.0199 40.21 32.5799C40.55 32.4499 40.5499 32.1599 41.0799 32.2599C41.4999 32.3399 41.51 33.0799 41.31 33.3099C40.68 34.0799 38.2599 34.2699 37.3299 34.1699C36.7799 34.1099 35.19 33.6699 35.15 33.0299C35.13 32.7299 35.36 32.2199 35.68 32.1699V32.1799Z" fill="#0D0B04"/>
<path d="M46.15 24.48C46.39 24.73 46.26 25.23 46.03 25.47C45.37 26.18 43.66 26.47 42.74 26.38C42.1 26.31 39.88 25.66 40.49 24.7C40.84 24.16 41.7899 24.8599 42.1999 24.9899C42.8199 25.1799 43.79 25.13 44.41 24.95C44.83 24.83 45.78 24.11 46.15 24.48Z" fill="#0D0B04"/>
<path d="M30.53 24.47C31.07 24.3 31.98 24.94 32.63 25C32.92 25.03 33.34 25.02 33.64 25C34.18 24.96 35.46 24.41 35.23 25.49C35.07 26.26 33.56 26.52 32.91 26.47C32.26 26.42 30.17 25.88 30.2 25.06C30.2 24.87 30.34 24.53 30.54 24.47H30.53Z" fill="#0D0B04"/>
<path d="M37.08 34.47L36.9 34.65C37.43 34.62 39.86 34.37 40.1 34.76C40.15 34.84 40.14 35.31 40.1 35.42C39.93 35.92 37.11 36 36.72 35.62C36.63 35.53 36.59 35.23 36.35 35.12C36.68 35.06 36.55 34.44 37.08 34.48V34.47Z" fill="#0D0B04"/>
<path d="M38.4399 17.49C38.6399 17.67 38.71 18.99 38.62 19.25C38.56 19.42 37.91 19.62 37.77 19.58C37.47 19.49 37.34 17.92 37.74 17.59C37.82 17.52 38.3699 17.43 38.4399 17.49Z" fill="#0D0B04"/>
</svg>
