<svg width="136" height="103" viewBox="0 0 136 103" fill="none" xmlns="http://www.w3.org/2000/svg">
<path d="M82.42 60.3599C82.17 61.6799 81.95 63.0199 81.64 64.3299C81.13 66.5299 79.78 70.2099 80.03 72.3099C80.25 74.1999 81.08 75.3399 80.87 77.5699C80.77 78.6899 80.05 79.6799 79.8 80.7499C79.23 83.1199 79.68 89.5499 80.04 92.1399C80.16 93.0199 80.3 94.1399 80.94 94.7799C82.23 96.0599 84.64 97.0899 85.27 99.0899C86.5 103.03 79.43 102.19 77.28 101.84C74.95 101.46 73.7 100.98 73.5 98.3999C73.1 93.2799 73.68 87.6299 73.22 82.5399C73.07 80.8399 71.86 79.6899 71.68 78.1299C71.41 75.8299 72.72 73.7399 71.59 71.5599C71.1 72.4599 70.51 73.3399 70.28 74.3599C69.82 76.4099 70.47 78.1199 69.6 80.1899C69.03 81.5599 68.07 82.4999 67.29 83.6899C65.11 87.0299 63.6 90.5799 62.19 94.3099C63.13 95.9899 66.33 99.9199 63.99 101.5C62.06 102.81 56.9 101.51 54.98 100.33C50.54 97.6099 54.77 93.3199 56.55 90.3799C57.9 88.1499 60.69 83.4099 60.98 80.9399C61.13 79.6599 60.77 78.3699 60.9 77.0299C61.07 75.2199 62.03 73.5899 62.16 71.7799C62.39 68.6499 61.25 65.3499 61.16 62.2199C55.82 63.2499 50.27 62.8899 45.02 61.5799C40.03 60.3399 35.22 58.0299 31.64 54.2899C31.01 58.4799 29.96 62.3999 28.6 66.3999C27.96 68.2799 26.34 71.2399 26.65 73.1599C29.07 79.2899 31.17 85.8299 33.91 91.8099C35.23 94.6899 36.03 94.1399 38.15 95.9299C40.05 97.5299 42.59 101.37 38.42 101.86C36.61 102.07 31.67 101.98 30.01 101.38C28.02 100.65 28.51 98.7599 28.29 97.1499C27.01 87.9699 22.11 82.7199 17.77 75.2399C16.02 72.2199 17.16 70.9399 17.97 67.8899C16.47 68.9999 14.77 69.8299 13.22 70.8599C10.58 72.6099 10.65 73.4699 10.74 76.5999C10.81 79.0799 11.09 81.8899 11.31 84.3799C11.47 86.1299 11.58 88.8999 11.97 90.5099C12.72 93.5799 18.06 95.0699 18.64 98.4299C18.81 99.4299 18.88 100.24 17.85 100.55C15.82 101.17 11.45 100.88 9.27002 100.57C7.58002 100.33 6.57 100.15 6.13 98.3299C5.41 92.4299 5.00997 86.4799 4.34997 80.5699C4.01997 77.6499 2.48999 70.5899 3.30999 68.1699C4.09999 65.8499 9.31999 62.8899 11.37 61.2199C12 60.7099 12.78 60.0799 13.36 59.5299C13.87 59.0399 15.54 57.3899 15.54 56.7799C14.91 53.2999 14.43 49.7599 14.42 46.2099C13.86 46.9199 12.76 48.1299 12.41 48.9399C12.11 49.6599 12.09 50.5699 11.84 51.3399C11.47 52.4399 10.4 54.1199 9.19 54.3599C8.76 54.4399 8.23998 54.2299 8.04998 54.3399C7.79998 54.4999 7.02999 55.7799 6.48999 56.1899C5.14999 57.2199 3.49999 56.7699 3.36999 54.9799C0.279992 55.7699 0.469982 51.5299 1.35998 49.6499C2.67998 46.8699 5.15002 46.4899 7.65002 45.5999C10.84 44.4599 10.54 39.0999 11.06 36.2699C11.88 31.7999 13.8 28.0099 17.1 24.8999C18.83 23.2599 20.31 22.7299 21.32 20.3399C24.02 13.8899 25.6 1.5999 35.28 2.6199C43.15 3.4499 42.47 14.0099 45.16 18.9399C45.76 20.0399 46.82 20.7199 47.91 19.7399C49.37 18.4199 50.75 11.9299 51.82 9.62991C55.56 1.59991 64.52 -1.18008 68.82 8.16992C72.43 16.0199 75.73 28.9599 85.7 31.2199C96.46 33.6599 96.86 18.4999 98.37 11.6799C95.52 10.8499 90.92 6.85991 91.31 3.65991C91.55 1.61991 95.97 1.61991 97.47 1.74991C99.42 1.91991 101.55 2.99991 102.99 4.28991C104.99 2.01991 107.69 0.399898 110.77 0.179898C112.56 0.0498983 116.02 0.0499165 115.38 2.72992C118.86 2.96992 122.21 3.9899 118.35 7.3999C120.05 7.8899 121.72 8.48991 123.38 9.09991C127.73 10.6999 133.36 12.2299 134.74 17.2899C135.32 19.4299 135.22 22.6399 133.13 23.9499C132.74 24.1999 132.06 24.2799 131.85 24.4399C131.67 24.5699 131.16 25.5399 130.81 25.8799C128.9 27.6799 126.12 27.5099 123.88 26.4499C122.33 25.7199 121.02 24.2199 119.35 23.7599C117.68 23.2999 115.96 23.7399 114.25 23.8299C115.12 26.9499 116.48 30.4099 116.66 33.6599C116.73 34.9899 116.72 37.2199 115.09 37.4999C115.52 40.9599 115.58 44.4699 114.13 47.7099C113.6 48.8899 112.5 50.7299 110.99 50.0199C110.65 52.9499 107.5 60.5499 104.37 61.1799C103.88 61.2799 103.34 61.0099 103.06 61.1299C102.78 61.2499 101.8 62.4399 101.42 62.7599C99.73 64.1799 96.24 66.0799 94.05 65.1799C92.72 64.6299 93.51 63.2699 93.42 63.1899C90.99 64.0299 87.37 64.8299 84.97 63.6399C83.06 62.6899 83.88 61.4799 85.07 60.3599H82.38H82.42ZM105.5 8.38992C105.37 8.86992 104.54 9.15991 104.08 8.87991C103.91 8.77991 103.24 7.56989 103.01 7.26989C100.55 4.12989 97.35 3.23992 93.46 4.13992C94.3 6.91992 96.58 8.91989 99.17 10.1099C99.76 10.3799 101.48 10.7699 101.64 11.3199C101.84 11.9799 101.54 12.3199 100.89 12.3599C100.45 12.3899 100.32 12.0199 100.1 12.5499C99.55 13.8799 99.39 17.4799 99.08 19.1699C97.62 27.0999 94.41 36.0299 84.29 32.9199C75.8 30.2999 71.12 20.3599 68.4 12.6299C67.82 12.7799 67.56 13.4099 66.97 13.6799C65.73 14.2599 64.21 13.8799 63.16 13.0599C62.15 15.1099 58.47 15.1999 57.63 12.9199C56.06 13.8299 54.27 13.9599 52.82 12.7799C51.8 16.0499 50.7 23.0499 45.87 22.0599C42.71 21.4099 42.15 15.5499 41.2 13.0599C39.85 14.4699 38.03 14.2199 36.6 13.0699C35.25 15.5699 31.17 15.6499 30.58 12.6299C29.03 13.3399 27.43 13.8099 26.05 12.4899L23.36 20.7799C21.23 25.3599 16.88 26.6899 14.6 31.5599C12.58 35.8599 13.21 43.7099 10.05 46.4799C8.92998 47.4599 7.76997 47.4399 6.46997 47.9299C4.12997 48.8299 2.03999 50.8399 2.67999 53.5599C3.72999 53.3699 3.12999 51.6399 4.30999 51.5599C5.68999 51.4799 4.82001 53.8099 4.95001 54.7599C4.97001 54.9199 4.88997 55.0499 5.15997 54.9699C5.93997 54.7399 6.98997 53.0199 7.28997 52.2799C7.53997 51.6499 7.29998 50.6799 8.41998 50.8599C9.17998 50.9899 8.86998 52.0099 8.91998 52.5599C9.67998 52.5199 10.05 51.3199 10.23 50.6899C10.49 49.7899 10.47 48.7399 10.83 47.8899C11.08 47.2899 11.77 46.6399 12.18 46.0499C12.99 44.8599 13.46 44.1099 13.84 42.6799C14.34 40.7799 14.34 34.7799 16.18 33.9799C17.8 33.2699 16.8 36.3899 16.73 37.0799C15.89 44.7399 16.65 52.5899 18.34 60.0699C18.91 62.5799 20.44 66.4399 19.91 68.8499C19.63 70.1099 18.6 71.5399 18.87 72.8499C22.68 78.9199 26.81 84.5699 28.93 91.5399C29.44 93.2399 29.72 94.9899 30.16 96.6799C30.62 96.9799 34.09 96.5499 34.76 96.3199C34.91 96.2699 35.1 96.2499 35.12 96.0399C33.64 95.5999 32.89 94.0299 32.26 92.7399C29.35 86.6899 27.19 79.8199 24.65 73.5799C24.34 70.9399 25.8 68.5099 26.62 66.0899C28.77 59.7499 30.36 53.3299 29.1 46.6099C28.86 45.3199 27.63 41.6199 27.92 40.6299C28.17 39.7999 28.93 39.8499 29.36 40.5399C29.97 41.5099 30.9 45.3399 31.14 46.6199C31.38 47.8999 31.39 49.9499 31.72 51.0699C32.12 52.4099 35.96 55.2299 37.24 56.0299C43.95 60.2199 53.3 61.6599 61 59.9199C60.9 58.9299 61.18 57.9199 61.16 56.9599C61.36 56.6899 61.26 56.3799 61.3 56.1099C61.31 56.0199 61.28 55.9099 61.3 55.8299C61.42 55.1899 62.27 52.0199 62.72 51.7899C63.06 51.6099 63.34 51.8899 63.46 52.1899C63.78 52.9399 63.1 55.7299 63 56.7599C62.46 62.5499 64.84 68.6399 63.67 73.8499C63.45 74.8099 62.98 75.7499 62.88 76.7399C62.61 79.3499 63.25 80.7699 62.22 83.4399C60.72 87.3499 58.44 90.9099 56.2 94.4199C56.2 94.6199 59.73 95.0699 60.17 94.8499C60.49 94.6899 60.56 93.6699 60.7 93.2499C61.91 89.5899 63.64 85.9199 65.69 82.6599C66.7 81.0499 68.08 79.9099 68.24 77.8499C68.3 77.0799 68.09 76.4299 68.11 75.7499C68.22 71.7099 72.86 66.7699 74.87 63.2399C77.17 59.1899 78.25 54.9299 78.97 50.3499C79.1 50.1099 79.3 49.8199 79.62 49.8999C80.55 50.1399 79.99 53.5899 80.14 54.4199C79.66 55.6299 79.58 57.1299 79.15 58.3799C80.12 58.5199 81.13 58.2299 82.05 58.2299C82.42 58.2299 82.73 58.3699 83.04 58.3799C84.1 58.4099 87.51 58.2499 87.87 59.5099C88.2 60.6699 85.78 61.6399 86.09 62.0599C88.64 62.9199 91.41 62.1599 93.74 60.9999C94.19 60.7699 96.27 59.1899 96.55 60.0299C96.86 60.9499 95.07 62.6099 95.23 63.6199C97.82 63.1699 100.55 61.5899 102.01 59.3599C102.35 58.8499 102.93 57.2399 103.37 57.0299C104.5 56.5099 104.56 59.0099 105.06 58.6599C105.53 57.8899 106.12 57.2099 106.59 56.4399C107.85 54.3899 108.83 51.7799 109.35 49.4299C109.54 48.5699 109.85 45.4499 110.17 45.0099C111.15 43.6199 111.85 47.2399 111.86 47.7599C112.09 47.6499 112.29 47.1999 112.41 46.9599C113.82 44.1699 113.5 40.8099 112.95 37.8199C112.82 37.1299 111.95 34.1699 112.03 33.8399C112.31 32.6099 114.4 34.1299 114.56 34.8699C114.76 34.8699 114.79 34.1999 114.79 34.0699C114.83 30.5399 113.07 27.4199 112.56 23.9899C111.39 23.9399 110.11 23.8599 108.98 23.5399C108.03 23.2699 107.39 22.6999 106.49 22.4199C106.29 21.8399 105.04 20.0799 106.42 19.9999C107.15 19.9599 107.25 20.4299 107.72 20.6999C111.88 23.0799 115.45 20.7499 119.66 21.9299C122.78 22.7999 125.98 26.9999 129.25 24.8699C129.39 24.7799 129.5 24.8899 129.43 24.5499C127.34 24.6199 121.9 21.5699 121.92 19.3699C121.92 19.0099 122.18 18.7399 122.54 18.7699C123.27 18.8299 124.5 20.6499 125.19 21.1999C126.92 22.5599 129.66 23.4199 131.79 22.5899C133.45 21.9399 133.21 18.9199 132.84 17.5099C132.15 14.8699 130.56 13.7899 128.18 12.8199C124.31 11.2299 119.95 10.2699 116.15 8.5599C115.86 8.4299 115.17 7.85989 114.97 7.82989C114.87 6.94989 116.11 6.62991 116.74 6.12991C116.87 6.01991 117.86 5.05991 117.8 4.99991C116.46 4.87991 114.37 4.1899 113.09 4.4599C112.59 4.5599 110.58 5.73991 110.44 4.34991C110.35 3.46991 111.84 3.2299 112.47 2.8399C112.68 2.7099 113.21 2.42991 113.13 2.15991H110.37C109.81 2.15991 107.98 2.8699 107.42 3.1799C106.86 3.4899 104.42 5.4899 104.52 6.0299C104.61 6.5299 105.74 7.40992 105.48 8.38992H105.5ZM60.87 4.31991C58.12 4.47991 55.71 6.94992 54.41 9.19992C54.18 9.59992 53.44 10.8799 53.6 11.2199C53.63 11.2899 54.21 11.8699 54.31 11.9299C55.08 12.4299 55.96 12.2499 56.65 11.7199C57.12 11.3599 57.46 10.4999 57.99 10.4999C58.71 10.4999 58.66 11.9999 59.19 12.5699C59.61 13.0299 60.34 13.1499 60.93 13.0299C62.37 12.7299 62.39 10.5699 63.09 10.5099C63.92 10.4299 63.55 12.0199 64.88 12.3999C65.91 12.6999 67.23 12.0299 67.62 11.0699C67.72 10.8199 66.99 9.12992 66.82 8.75992C65.67 6.30992 63.82 4.13991 60.87 4.31991ZM34.94 13.0199C35.49 12.5099 35.93 10.7699 36.22 10.6799C37.03 10.4199 37.26 11.9199 37.83 12.2899C38.81 12.9199 40.26 12.5299 40.6 11.3799C40.76 10.8299 39.82 8.66991 39.51 8.06991C37.2 3.65991 32.4 3.4299 29.19 7.0599C28.68 7.6299 26.93 10.3399 26.99 10.9699C27.1 12.0699 28.47 11.9699 29.22 11.6299C29.87 11.3299 30.55 10.2299 31.21 10.4099C31.94 10.6199 31.44 13.1199 33.11 13.4699C33.78 13.6099 34.43 13.4999 34.94 13.0299V13.0199ZM10.21 64.6099C7.83002 66.4399 4.74997 67.2899 4.96997 70.9099C5.19997 74.6699 6.24998 79.0599 6.66998 82.9499C7.09998 86.9899 7.29 91.0599 7.69 95.0999C8.06 96.0899 13.32 95.8799 13.61 95.2699C12.46 94.4399 11.15 93.2899 10.52 91.9899C9.57002 90.0099 9.25001 83.7199 9.08001 81.2499C8.97001 79.6699 8.81997 77.8699 8.78997 76.2999C8.71997 73.0199 9.02002 71.4899 11.77 69.5699C12.74 68.8899 17.33 66.4399 17.55 65.5099L16.16 59.6599C15.94 59.5999 15.92 59.7199 15.8 59.7999C15.12 60.2699 14.17 61.4099 13.47 61.9999C12.42 62.8899 11.3 63.7799 10.21 64.6199V64.6099ZM75.06 81.7399C75.06 82.1199 75.06 82.4999 75.06 82.8699V83.1499C75.06 87.6499 75.32 92.1499 75.34 96.6499C76.85 97.3199 78.82 97.1599 80.3 96.4599L79.05 95.0899C77.66 92.9899 77.72 86.2399 77.75 83.5699C77.75 83.4299 77.75 83.2899 77.75 83.1499C77.76 82.7699 77.73 82.3899 77.75 82.0199C77.86 80.1899 78.36 79.8099 78.79 78.3099C79.36 76.3099 78.46 74.8799 78.19 73.0099C77.61 68.9599 80.25 64.4199 80.58 60.3499C80.06 60.4699 78.6 60.2199 78.31 60.5499C76.95 63.6899 75.18 66.6299 73.11 69.3599C73.56 71.0999 74.13 73.0299 73.91 74.8499C73.74 76.2599 73.01 76.6599 73.62 78.2899C74.06 79.4699 74.7 80.3199 75.06 81.7299V81.7399Z" fill="#030202"/>
<path d="M105.5 8.38993C107.66 9.02993 109.98 8.86991 112.18 8.48991C112.71 8.39991 114.74 7.7799 114.99 7.8299C115.18 7.8599 115.88 8.42991 116.17 8.55991C119.96 10.2699 124.32 11.2299 128.2 12.8199C130.57 13.7899 132.17 14.8799 132.86 17.5099C133.23 18.9199 133.47 21.9399 131.81 22.5899C129.68 23.4199 126.94 22.5599 125.21 21.1999C124.51 20.6499 123.28 18.8299 122.56 18.7699C122.2 18.7399 121.94 19.0099 121.94 19.3699C121.92 21.5599 127.37 24.6199 129.45 24.5499C129.52 24.8799 129.4 24.7799 129.27 24.8699C126 26.9999 122.8 22.8099 119.68 21.9299C115.47 20.7499 111.9 23.0799 107.74 20.6999C107.27 20.4299 107.17 19.9599 106.44 19.9999C105.06 20.0799 106.31 21.8399 106.51 22.4199C108.43 27.8999 110.44 32.2899 110.06 38.3599C109.98 39.5699 109.28 43.8199 107.97 44.2099C107.32 44.3999 107.03 43.5299 106.45 44.2399C105.91 44.8999 105.06 48.0999 104.51 49.2399C103.5 51.3199 100.99 54.9099 98.69 55.5899C95.72 56.4699 97.18 53.5799 96.89 53.2899C96.14 53.1399 95.73 53.7199 95.14 54.0199C91.09 56.1299 87.74 56.3799 83.36 54.9899C82.54 54.7299 81.24 53.9899 80.52 53.8699C80.28 53.8299 80.27 54.1899 80.18 54.4199C80.03 53.5999 80.59 50.1399 79.66 49.8999C79.34 49.8199 79.15 50.1099 79.01 50.3499C78.29 54.9299 77.21 59.1999 74.91 63.2399C72.9 66.7799 68.26 71.7199 68.15 75.7499C68.13 76.4299 68.34 77.0799 68.28 77.8499C68.12 79.9099 66.74 81.0499 65.73 82.6599C63.69 85.9199 61.95 89.5899 60.74 93.2499C60.6 93.6699 60.53 94.6899 60.21 94.8499C59.77 95.0699 56.25 94.6299 56.24 94.4199C58.47 90.9099 60.76 87.3499 62.26 83.4399C63.29 80.7699 62.65 79.3399 62.92 76.7399C63.02 75.7499 63.5 74.8099 63.71 73.8499C64.88 68.6399 62.51 62.5499 63.04 56.7599C63.13 55.7399 63.81 52.9399 63.5 52.1899C63.37 51.8899 63.1 51.6099 62.76 51.7899C62.32 52.0199 61.46 55.1899 61.34 55.8299C55.71 57.1499 50.08 57.0799 44.52 55.4399C39.45 53.9499 34.23 51.0599 31.46 46.4099L31.18 46.6199C30.93 45.3499 30.01 41.5099 29.4 40.5399C28.96 39.8499 28.2 39.7899 27.96 40.6299C27.67 41.6199 28.9 45.3199 29.14 46.6099C30.4 53.3299 28.81 59.7499 26.66 66.0899C25.84 68.5099 24.38 70.9299 24.69 73.5799C27.23 79.8099 29.38 86.6799 32.3 92.7399C32.92 94.0399 33.67 95.5999 35.16 96.0399C35.14 96.2499 34.95 96.2599 34.8 96.3199C34.13 96.5599 30.66 96.9899 30.2 96.6799C29.76 94.9899 29.48 93.2299 28.97 91.5399C26.85 84.5799 22.72 78.9299 18.91 72.8499C18.64 71.5399 19.67 70.1099 19.95 68.8499C20.49 66.4399 18.95 62.5799 18.38 60.0699C16.69 52.5799 15.93 44.7399 16.77 37.0799C16.85 36.3899 17.84 33.2799 16.22 33.9799C14.38 34.7799 14.38 40.7899 13.88 42.6799C13.5 44.1099 13.03 44.8599 12.22 46.0499C11.55 46.0899 10.78 46.6899 10.1 46.4699C13.27 43.6999 12.63 35.8499 14.65 31.5499C16.93 26.6799 21.28 25.3599 23.41 20.7699L26.1 12.4799C27.48 13.7999 29.08 13.3299 30.63 12.6199C31.22 15.6399 35.3 15.5599 36.65 13.0599C38.09 14.1999 39.9 14.4599 41.25 13.0499C42.2 15.5399 42.76 21.3999 45.92 22.0499C50.75 23.0399 51.85 16.0399 52.87 12.7699C54.32 13.9499 56.11 13.8299 57.68 12.9099C58.52 15.1899 62.2 15.0999 63.21 13.0499C64.25 13.8699 65.77 14.2499 67.02 13.6699C67.61 13.3999 67.87 12.7699 68.45 12.6199C71.18 20.3499 75.85 30.2899 84.34 32.9099C94.46 36.0299 97.67 27.0899 99.13 19.1599C99.44 17.4599 99.61 13.8699 100.15 12.5399C100.37 12.0099 100.5 12.3799 100.94 12.3499C101.59 12.3099 101.89 11.9699 101.69 11.3099C101.52 10.7599 99.81 10.3699 99.22 10.0999C96.63 8.90992 94.35 6.90992 93.51 4.12992C97.4 3.21992 100.59 4.12993 103.06 7.25993C103.3 7.55993 103.96 8.76991 104.13 8.86991C104.58 9.13991 105.42 8.85992 105.55 8.37992L105.5 8.38993ZM97.44 6.41993C97.31 6.60993 97.49 6.94992 97.63 7.12992C97.97 7.55992 100.67 9.11991 101.19 9.08991C102.21 9.02991 101.25 8.1099 100.9 7.8299C100.45 7.4699 97.86 5.82993 97.45 6.41993H97.44ZM114.81 12.6599C114 12.9099 114.6 15.2999 112.55 14.8699C111.49 14.6499 110.69 12.9399 110.22 12.7999C109.24 12.5099 109.09 13.5199 109.47 14.2699C110.42 16.1199 113.13 17.4499 114.9 15.8699C115.87 15.0099 116.38 12.1799 114.81 12.6599ZM126.53 16.3199C124.78 18.1899 129.26 18.1299 129.86 17.5299C130.21 17.1799 129.95 16.3199 129.5 16.3199H126.53ZM73.17 56.9799C72.45 57.1899 71.81 60.7599 71.25 61.4499C71.13 62.0099 71.59 62.3199 72.12 62.1699C72.65 62.0199 73.27 60.0599 73.43 59.4999C73.59 58.9399 74.33 56.6299 73.17 56.9699V56.9799Z" fill="#C9690B"/>
<path d="M106.49 22.4099C107.39 22.6899 108.03 23.2699 108.98 23.5299C110.12 23.8499 111.39 23.9299 112.56 23.9799C113.08 27.4099 114.83 30.5299 114.79 34.0599C114.79 34.1899 114.76 34.8699 114.56 34.8599C114.4 34.1199 112.32 32.5999 112.03 33.8299C111.95 34.1599 112.83 37.1199 112.95 37.8099C113.5 40.7999 113.82 44.1599 112.41 46.9499C112.29 47.1799 112.1 47.6299 111.86 47.7499C111.85 47.2299 111.15 43.6099 110.17 44.9999C109.86 45.4499 109.54 48.5599 109.35 49.4199C108.83 51.7699 107.84 54.3799 106.59 56.4299C106.12 57.1999 105.52 57.8799 105.06 58.6499C104.55 58.9999 104.5 56.4999 103.37 57.0199C102.93 57.2199 102.35 58.8299 102.01 59.3499C100.55 61.5799 97.82 63.1599 95.23 63.6099C95.07 62.5999 96.86 60.9299 96.55 60.0199C96.27 59.1799 94.19 60.7699 93.74 60.9899C91.41 62.1399 88.64 62.9099 86.09 62.0499C85.78 61.6299 88.2 60.6599 87.87 59.4999C87.52 58.2299 84.1 58.3999 83.04 58.3699C82.73 58.3699 82.42 58.2199 82.05 58.2199C81.13 58.2199 80.11 58.5099 79.15 58.3699C79.58 57.1199 79.66 55.6099 80.14 54.4099C80.23 54.1799 80.24 53.8199 80.48 53.8599C81.2 53.9899 82.51 54.7199 83.32 54.9799C87.7 56.3699 91.05 56.1199 95.1 54.0099C95.68 53.7099 96.09 53.1299 96.85 53.2799C97.14 53.5699 95.68 56.4499 98.65 55.5799C100.95 54.8999 103.47 51.3099 104.47 49.2299C105.02 48.0899 105.86 44.8899 106.41 44.2299C106.99 43.5199 107.28 44.3899 107.93 44.1999C109.24 43.8099 109.94 39.5599 110.02 38.3499C110.41 32.2799 108.4 27.8899 106.47 22.4099H106.49Z" fill="#AF4F06"/>
<path d="M61.32 55.8299C61.3 55.9199 61.33 56.0199 61.32 56.1099C60.75 56.2999 61.18 56.8399 61.18 56.9599C61.2 57.9199 60.93 58.9299 61.02 59.9199C53.31 61.6599 43.97 60.2199 37.26 56.0299C35.98 55.2299 32.14 52.4099 31.74 51.0699C31.41 49.9499 31.42 47.9499 31.16 46.6199L31.44 46.4099C34.21 51.0499 39.43 53.9399 44.5 55.4399C50.05 57.0799 55.68 57.1399 61.32 55.8299Z" fill="#AF4F06"/>
<path d="M10.21 64.6099C10.86 66.2099 11.85 67.7499 11.77 69.5699C9.02 71.4899 8.71996 73.0199 8.78996 76.2999C8.81996 77.8699 8.97 79.6599 9.08 81.2499C9.25 83.7099 9.57 90.0099 10.52 91.9899C11.15 93.2899 12.46 94.4399 13.61 95.2699C13.32 95.8899 8.05999 96.0899 7.68999 95.0999C7.28999 91.0599 7.09997 86.9899 6.66997 82.9499C6.24997 79.0599 5.20995 74.6699 4.96995 70.9099C4.74995 67.2899 7.83001 66.4399 10.21 64.6099Z" fill="#C9690B"/>
<path d="M75.06 81.7399C74.7 80.3299 74.05 79.4799 73.62 78.2999C73.02 76.6699 73.75 76.2699 73.91 74.8599C74.13 73.0399 73.56 71.1099 73.11 69.3699C75.18 66.6499 76.95 63.7099 78.31 60.5599C78.6 60.2199 80.07 60.4799 80.58 60.3599C80.25 64.4199 77.61 68.9699 78.19 73.0199C78.46 74.8899 79.35 76.3199 78.79 78.3199C78.36 79.8199 77.86 80.1899 77.75 82.0299C77.16 81.9299 77.61 83.1699 77.47 83.3099L75.06 83.1699V82.8899C75.42 82.5499 75.14 82.0799 75.06 81.7599V81.7399Z" fill="#AF4F06"/>
<path d="M60.87 4.31991C63.83 4.14991 65.67 6.31991 66.82 8.75991C67 9.12991 67.72 10.8199 67.62 11.0699C67.23 12.0299 65.91 12.6999 64.88 12.3999C63.55 12.0099 63.92 10.4299 63.09 10.5099C62.39 10.5799 62.37 12.7299 60.93 13.0299C60.34 13.1499 59.61 13.0299 59.19 12.5699C58.66 11.9999 58.71 10.4999 57.99 10.4999C57.45 10.4999 57.11 11.3699 56.65 11.7199C55.96 12.2499 55.08 12.4299 54.31 11.9299C54.21 11.8699 53.63 11.2899 53.6 11.2199C53.45 10.8799 54.18 9.58992 54.41 9.19992C55.71 6.95992 58.12 4.48991 60.87 4.31991Z" fill="#A04206"/>
<path d="M34.94 13.0199C34.43 13.4899 33.78 13.5999 33.11 13.4599C31.43 13.1099 31.94 10.5999 31.21 10.3999C30.55 10.2099 29.87 11.3199 29.22 11.6199C28.46 11.9599 27.09 12.0599 26.99 10.9599C26.93 10.3299 28.68 7.6199 29.19 7.0499C32.4 3.4199 37.2 3.65991 39.51 8.05991C39.82 8.65991 40.77 10.8199 40.6 11.3699C40.26 12.5199 38.81 12.9099 37.83 12.2799C37.26 11.9099 37.03 10.4099 36.22 10.6699C35.94 10.7599 35.49 12.5099 34.94 13.0099V13.0199Z" fill="#A04206"/>
<path d="M105.5 8.38992C105.76 7.40992 104.62 6.51991 104.54 6.02991C104.44 5.48991 106.88 3.4899 107.44 3.1799C108 2.8699 109.83 2.15991 110.39 2.15991H113.15C113.22 2.42991 112.69 2.7199 112.49 2.8399C111.86 3.2199 110.37 3.45991 110.46 4.34991C110.6 5.73991 112.61 4.5599 113.11 4.4599C114.4 4.1899 116.48 4.86991 117.82 4.99991C117.88 5.04991 116.89 6.01991 116.76 6.12991C116.13 6.63991 114.89 6.94989 114.99 7.8299C114.74 7.7899 112.72 8.3999 112.18 8.4899C109.98 8.8699 107.66 9.02992 105.5 8.38992Z" fill="#AF4F06"/>
<path d="M77.75 82.0198C77.73 82.3898 77.76 82.7798 77.75 83.1498C77.54 83.1698 77.54 83.5498 77.75 83.5698C77.72 86.2298 77.66 92.9898 79.05 95.0898L80.3 96.4598C78.82 97.1598 76.85 97.3198 75.34 96.6498C75.32 92.1498 75.06 87.6498 75.06 83.1498L77.47 83.2898C77.61 83.1498 77.16 81.9198 77.75 82.0098V82.0198Z" fill="#C9690B"/>
<path d="M10.21 64.61C11.3 63.77 12.42 62.88 13.47 61.99C14.17 61.4 15.13 60.26 15.8 59.79C15.92 59.71 15.94 59.59 16.16 59.65L17.55 65.5C17.33 66.43 12.74 68.88 11.77 69.56C11.85 67.75 10.87 66.2 10.21 64.6V64.61Z" fill="#AF4F06"/>
<path d="M12.19 46.0598C11.79 46.6498 11.1 47.2998 10.84 47.8998C10.48 48.7498 10.5 49.7998 10.24 50.6998C10.06 51.3298 9.68998 52.5298 8.92998 52.5698C8.87998 52.0198 9.18998 50.9998 8.42998 50.8698C7.31998 50.6898 7.55997 51.6498 7.29997 52.2898C7.00997 53.0298 5.94997 54.7498 5.16997 54.9798C4.89997 55.0598 4.98001 54.9298 4.96001 54.7698C4.83001 53.8098 5.69999 51.4798 4.31999 51.5698C3.14999 51.6398 3.73999 53.3798 2.68999 53.5698C2.03999 50.8498 4.12996 48.8398 6.47996 47.9398C7.76996 47.4498 8.93998 47.4698 10.06 46.4898C10.74 46.6998 11.51 46.1098 12.18 46.0698L12.19 46.0598Z" fill="#A04206"/>
<path d="M61.18 56.9599C61.18 56.8399 60.75 56.2999 61.32 56.1099C61.28 56.3799 61.38 56.6899 61.18 56.9599Z" fill="#C9690B"/>
<path d="M75.06 82.87C75.06 82.49 75.06 82.11 75.06 81.74C75.14 82.06 75.42 82.54 75.06 82.87Z" fill="#C9690B"/>
<path d="M77.75 83.5799C77.54 83.5599 77.54 83.1799 77.75 83.1599C77.75 83.2999 77.75 83.4399 77.75 83.5799Z" fill="#AF4F06"/>
<path d="M114.81 12.6599C116.38 12.1799 115.88 15.0099 114.9 15.8699C113.12 17.4399 110.41 16.1099 109.47 14.2699C109.09 13.5299 109.24 12.5099 110.22 12.7999C110.69 12.9399 111.49 14.6399 112.55 14.8699C114.6 15.2999 114 12.9099 114.81 12.6599Z" fill="#030202"/>
<path d="M73.17 56.98C74.32 56.64 73.59 58.93 73.43 59.51C73.27 60.09 72.63 62.03 72.12 62.18C71.61 62.33 71.13 62.02 71.25 61.46C71.81 60.76 72.45 57.2 73.17 56.99V56.98Z" fill="#030202"/>
<path d="M126.53 16.3198H129.5C129.95 16.3198 130.21 17.1798 129.86 17.5298C129.26 18.1298 124.78 18.1898 126.53 16.3198Z" fill="#030202"/>
<path d="M97.44 6.41979C97.86 5.82979 100.45 7.46976 100.89 7.82976C101.24 8.10976 102.2 9.03977 101.18 9.08977C100.66 9.11977 97.97 7.55978 97.62 7.12978C97.48 6.94978 97.3 6.60979 97.43 6.41979H97.44Z" fill="#030202"/>
</svg>
