<svg width="153" height="56" viewBox="0 0 153 56" fill="none" xmlns="http://www.w3.org/2000/svg">
<path d="M1.46006 22.9401C2.55006 21.5301 6.33005 20.5601 8.79005 20.0401C19.03 17.8701 30.2601 17.5201 40.6901 16.7501C42.9101 16.5901 45.14 16.2801 47.37 16.2901C47.47 14.9801 48.3601 14.1901 48.8901 13.1701C51.8801 7.36011 51.6701 4.4901 58.7001 2.6601C69.6401 -0.199899 82.3201 0.290104 93.5601 0.850104C100.69 1.2001 111.08 1.75009 117.34 5.34009C119.84 6.78009 123.1 11.1401 124.9 13.5301C125.23 13.9601 126.17 15.6801 126.54 15.7301C133.09 14.5801 139.61 13.2001 146.27 12.7801C146.91 12.7401 147.55 12.8101 148.19 12.7801C149.75 12.7201 151.79 12.1101 151.5 14.6201C151.37 15.7201 149.84 18.3801 149.88 19.1901C149.9 19.6501 151.1 20.2501 151.15 20.8201L151.2 27.2501L152.24 27.9401V30.8801C151.81 31.7001 151.4 32.5901 150.7 33.2401C149 34.8101 143.61 35.9701 141.25 36.3101C140.3 36.4501 137.97 36.8201 137.16 36.7701C136.5 36.7301 136.64 36.0601 136.05 36.1901C135.87 40.6501 134.08 46.1001 129.42 47.6001C127.19 48.3201 122.5 47.9801 120.38 46.9201C118.5 45.9801 117.34 43.5801 116.82 41.6301C113.41 42.1101 110.05 42.8501 106.65 43.3801C101.16 44.2401 95.56 45.0001 90.04 45.6101C85.23 46.1501 81.0501 46.4401 76.1901 46.3501C75.8901 46.3501 75.6201 46.2401 75.3301 46.1901C74.3101 49.2601 72.9001 52.4501 69.9401 54.0801C66.0801 56.2001 60.76 56.6601 56.73 54.7701C53.78 53.3801 52.1501 50.1401 51.4501 47.0801C49.8101 47.2701 48.1001 47.3101 46.4501 47.2401C44.48 47.1601 42.3801 46.5101 40.6901 46.4001C39.4601 46.3201 37.77 46.5401 36.43 46.5101C35.92 46.5001 35.39 46.2501 34.84 46.3501C32.9701 52.0201 25.94 53.1101 20.9 51.2901C17.8 50.1701 16.1801 47.5101 15.1601 44.5101C14.4201 44.6101 13.8501 44.1301 13.3001 44.0101C11.6301 43.6601 9.48005 43.7701 7.72005 43.5501C5.17005 43.2301 2.47006 42.5301 1.24006 40.0001C0.680058 38.8601 0.850056 37.5101 1.66006 36.2801C2.39006 35.1601 3.44005 34.8401 3.44005 34.8401C2.38005 34.5601 2.69005 33.0701 2.03005 32.5301C0.970051 31.6701 1.21005 28.6901 1.47005 27.3501C1.56005 26.8701 2.35006 26.1001 1.77006 25.5801C1.22006 25.0901 0.580054 24.0701 1.47005 22.9301L1.46006 22.9401ZM124.26 16.0201C123.57 14.6201 122.39 13.5801 121.47 12.4101C119.47 9.9001 118.36 7.7801 115.28 6.3801C109.95 3.9701 102.92 3.2401 97.11 2.9101C86.9 2.3301 76.1801 1.92011 66.0601 3.23011C62.9401 3.63011 59.89 4.26011 56.84 4.98011C56.8 5.23011 57.2001 5.14009 57.3501 5.12009C58.0601 5.04009 58.82 4.74009 59.5601 4.68009C66.91 4.07009 77.37 3.89009 84.54 5.46009C86.11 5.80009 88.5601 6.74008 88.7801 8.58008C89.1401 11.4801 87.3301 15.2401 86.7201 18.0801H88.34C88.47 15.7501 89.16 13.4701 89.62 11.1901C89.98 9.4001 89.5701 8.03011 91.4501 6.98011C94.9601 5.03011 102.69 5.50009 106.65 6.02009C110.84 6.57009 112.25 7.14011 114.92 10.4201C116.47 12.3201 117.62 14.5601 119.26 16.3901L124.26 16.0101V16.0201ZM84.76 17.7501C85.19 17.4001 86.4701 12.1901 86.6401 11.3101C87.0601 9.1101 87.6301 8.5401 85.2801 7.6601C83.4701 6.9901 80.8 6.77009 78.84 6.59009C72.87 6.05009 66.73 5.9901 60.73 6.4401C58.64 6.6001 56.5701 7.03009 54.4601 7.09009C53.5901 7.35009 52.6301 10.1501 52.1901 11.0101C51.3101 12.7101 50.3701 14.4001 49.4601 16.0801C49.6101 16.2901 49.71 16.3101 49.9501 16.3001C50.82 16.2601 51.9 16.0401 52.76 16.0101C60.63 15.7601 68.78 16.6701 76.62 17.3401C78.0201 17.4601 83.9101 18.4301 84.7501 17.7401L84.76 17.7501ZM104.82 17.4901C104.96 17.4701 105.55 17.3501 105.56 17.2601L104.8 7.79011C103.61 7.86011 102.39 7.5301 101.22 7.4701C99.4801 7.3901 94.9501 7.58009 93.4101 8.21009C93.2701 8.27009 93.1 8.26011 93.05 8.45011L93.6301 18.0801L102.91 17.6401C103.54 17.4201 104.21 17.5601 104.82 17.4901ZM116.9 16.4601C115.09 14.3301 112.92 9.79011 110.27 8.73011C109.6 8.46011 107.73 7.9901 107.05 7.9701C106.87 7.9701 106.86 7.9901 106.75 8.1301L107.48 17.3301L116.9 16.4501V16.4601ZM91.7201 18.0801L91.5701 12.4101L91.2801 11.6001L90.1001 18.0801H91.7201ZM149.58 14.5501C144.74 14.7101 139.9 15.2901 135.12 16.0701C126.64 17.4401 118.64 18.4701 110.04 19.1101C109.58 19.1401 109.11 19.0901 108.64 19.1101C109.56 20.6901 110.39 22.7701 110.75 24.5801C111.22 26.9401 111.28 35.2401 110.56 37.4501C110.14 38.7401 109.52 39.9101 108.11 40.1501C102.51 41.1101 96.1501 41.4301 90.4601 41.9301C89.4401 42.0201 87.0501 42.8601 86.8501 41.2501C87.0101 39.6601 87.5101 38.1101 87.7101 36.5301C88.1901 32.7401 88.3601 25.8501 86.6701 22.4401C86.3201 21.7401 85.65 21.0401 85.34 20.3801C85.2401 20.1601 85.2401 19.7201 85.2201 19.6901C85.0401 19.5101 80.8801 19.7301 80.15 19.6901C70.83 19.0801 61.8501 17.6501 52.4601 17.9201C43.3101 18.1801 34.1701 18.9801 25.0801 19.8401C19.6701 20.3501 13.9601 20.6901 8.66006 21.8301C7.76006 22.0201 2.46005 23.2401 2.64005 24.3101C2.98005 24.8701 3.73005 25.0201 4.34005 25.1301C6.90005 25.5601 9.68006 25.0501 12.2701 25.4501C12.4201 24.5001 12.9001 23.7301 13.6901 23.1701C14.3501 22.7001 18.2201 20.9401 17.9601 22.7101C17.8001 23.8101 14 23.9301 13.98 25.5901L25.68 26.4801C30.04 26.5601 34.4001 26.6801 38.7801 26.6301C38.9001 25.1201 40.26 24.2301 41.48 23.5801C43.39 22.5601 46.1901 21.7701 48.3601 21.9101C49.8301 22.0001 49.9201 23.4701 48.4901 23.6701C45.9101 24.0301 44.4201 23.7501 42.0001 25.2701C41.6301 25.5001 40.0301 26.6101 41.0001 26.7701C44.0101 27.2601 47.79 27.0601 50.87 27.0601C54.54 27.0601 58.2201 26.6901 61.9101 26.4801C67.4501 26.1601 73.0001 26.0601 78.5501 25.7401C79.5701 25.6801 84.1101 24.6001 83.4201 26.6301C83.1301 27.4801 81.6001 27.1401 80.9101 27.2101C75.0601 27.8401 69.2701 27.8701 63.3901 28.1001C58.3101 28.2901 53.4501 28.9201 48.3601 28.8401C48.1101 28.8401 47.9301 28.7901 47.7101 28.6801L49.0701 30.1901C50.0101 31.8601 50.0101 34.7801 48.0601 35.7301C46.5501 36.4701 45.0901 36.2501 44.0301 34.9401C43.8401 34.7101 43.8301 34.3401 43.59 34.2801C43.2901 35.2501 42.6601 35.6601 41.8201 36.1201C42.8501 36.4401 43.93 36.2701 44.98 36.3401C47.09 36.4901 49.1901 36.7601 51.3201 36.6401C53.5801 36.5101 55.8101 35.8701 58.0501 35.6001C59.6501 31.7701 63.66 30.5301 67.51 30.3001C72.78 29.9801 75.2501 31.2801 77.3301 36.0901C78.5401 38.9001 79.0001 41.9701 80.6301 44.5901C83.7901 44.0601 87.0101 44.0301 90.1901 43.7001C100.53 42.6201 110.79 41.0001 120.94 38.8101C121.07 38.7901 121.13 38.7201 121.17 38.6001C121.31 38.2001 121.26 36.6001 121.36 35.9901C121.65 34.0101 122.13 32.1601 123.94 31.0701C125.65 30.0501 130.59 29.2801 132.6 29.4301C135.77 29.6601 137.76 31.7001 137.98 34.8801L143.91 33.9701C144.23 33.7801 144.63 32.3701 144.79 31.9001C145.19 30.6801 145.49 29.4201 145.77 28.1701C146.2 27.4501 148.63 27.2501 149.46 27.2201C149.24 25.5501 149.75 23.1301 149.46 21.5501C149.33 20.8501 147.99 20.7301 147.99 19.4901C147.99 18.6001 149.8 14.7301 149.61 14.5601L149.58 14.5501ZM106.86 19.2801C103.51 19.5001 100.14 19.6001 96.8 19.8501C93.63 19.6501 90.4401 20.2701 87.3001 19.8501C87.6901 20.9101 88.3801 21.8101 88.7801 22.8601C89.9701 26.0001 89.9801 32.1301 89.6601 35.5201C89.5101 37.1301 89.08 38.7001 88.93 40.3101C90.17 40.1701 91.4401 39.9701 92.6901 39.8701C94.7401 39.7001 96.82 39.6401 98.87 39.4301C101.45 39.1601 104.93 38.8801 107.4 38.3901C108.33 38.2101 108.89 37.2101 109.04 36.3401C109.58 33.2101 109.52 26.2501 108.56 23.2601C108.12 21.8901 107.42 20.6001 106.88 19.2801H106.86ZM12.2101 26.7701L3.52006 26.4801C3.07006 26.8201 4.55006 26.8001 4.71006 26.8401C5.35006 26.9901 5.98005 27.5801 6.03005 28.2501C6.34005 28.1301 6.33005 27.7601 6.54005 27.5101C7.43005 26.4201 9.98005 26.7001 10.8101 27.8201C11.59 28.8701 11.5401 30.9801 10.7401 32.0101C9.70006 33.3501 7.39006 33.2101 6.32006 32.0101C6.22006 31.8901 6.18005 31.6601 6.17005 31.6501C6.12005 31.6001 5.47005 32.5001 5.22005 32.6801C4.55005 33.1401 3.34005 32.9701 4.42005 33.7701C7.04005 34.3401 9.82005 34.3001 12.51 34.3001L12.2201 26.7901L12.2101 26.7701ZM38.5601 28.2401C36.8801 28.1001 35.1701 28.1501 33.4701 28.1001C29.8601 27.9901 26.1801 28.0201 22.5701 27.8101C19.6001 27.6401 16.6301 27.1901 13.6701 26.9201C13.7501 27.3501 13.4501 28.4801 13.9201 28.6601C17.3801 29.2601 20.85 29.8101 24.34 30.1701L37.59 30.4701C37.76 29.6401 38.0601 28.9401 38.5601 28.2501V28.2401ZM2.67005 31.2901C3.05005 31.7301 4.19005 31.4401 4.44005 30.8501C4.64005 30.3901 4.64005 28.5601 4.11005 28.3101C3.84005 28.1801 2.71006 28.1501 2.55006 28.3701C2.39006 28.5901 2.45005 31.0401 2.67005 31.2901ZM45.1901 28.5301C44.0001 28.5801 42.8301 28.4001 41.6601 28.2401L42.7701 28.9701C43.0601 29.3701 43.44 29.7701 43.43 30.3001C43.84 29.9601 43.9401 29.4901 44.3801 29.1201C44.6801 28.8701 45.0201 28.8501 45.2001 28.5401L45.1901 28.5301ZM9.38006 31.0001C9.71006 30.6101 9.74005 29.4601 9.48005 28.9801C9.22005 28.5001 8.21006 28.1401 7.82006 28.4001C7.49006 28.6101 7.51005 30.7301 7.72005 31.0401C7.89005 31.2901 9.20005 31.2201 9.39005 30.9901L9.38006 31.0001ZM150.59 28.9901C150.3 28.5301 147.95 29.1201 147.39 29.1401L146.34 33.1001C146.49 33.2401 148.53 32.5301 148.8 32.3201C149 32.1601 149.91 31.2201 150.05 31.0001C150.29 30.6301 150.82 29.3801 150.59 29.0001V28.9901ZM41.6301 34.3901C42.4701 33.9001 42.4901 30.0701 41.4101 29.7401C40.9301 29.5901 39.7001 29.7401 39.4901 30.2601C39.1201 31.1501 39.1801 34.0101 40.3301 34.3501C40.5901 34.4301 41.4401 34.5001 41.6301 34.3801V34.3901ZM45.43 30.3201C44.64 30.5901 44.4501 34.9401 46.5501 34.5401C48.9801 34.0701 47.71 29.5401 45.43 30.3201ZM31.6401 32.0701C27.4901 31.9601 24.17 31.9701 20.06 31.3501C17.98 31.0401 15.9001 30.7201 13.8201 30.4501V31.6301C17.3101 31.7901 20.8701 32.5201 24.3501 32.8101C26.2401 32.9601 28.39 33.0201 30.31 33.1101C31.98 33.1901 33.6401 33.1601 35.3201 33.2601C35.9401 33.3001 36.8401 33.4401 37.3801 33.4101C37.4801 33.4101 37.5801 33.4101 37.6701 33.4101C37.43 33.1901 37.5801 32.2301 37.5201 32.2301H33.3201C32.9201 32.2301 32.1801 32.1001 31.6301 32.0801L31.6401 32.0701ZM129.81 31.3801C129.44 31.3801 127.66 31.7001 127.43 31.9201C126.97 32.3701 126.39 34.4101 126.32 35.0801C126.15 36.9401 126.32 41.2301 128.92 41.2801C131.58 41.3301 132.36 37.4401 132.19 35.3901C132.09 34.2101 131.3 31.4001 129.81 31.3701V31.3801ZM66.8001 32.2601C59.2801 32.6401 59.85 36.8601 58.04 42.4901C57.29 44.8201 56.73 44.5401 57.59 47.2701C59.18 52.3201 62.9901 55.1301 68.2501 52.7101C74.41 49.8701 75.0701 39.0401 71.1601 34.1401C69.8701 32.5201 68.8401 32.1501 66.8001 32.2601ZM125.29 32.3601C123.48 32.7301 123.04 35.2801 122.93 36.8401C122.73 39.7501 123.01 43.0001 125.54 44.8501C129.71 47.9001 133.37 42.6401 133.68 38.8401L132.97 40.4101C131.45 43.5501 127.14 44.1101 125.45 40.8101C124.26 38.4901 124.52 34.8001 125.28 32.3601H125.29ZM29.5801 34.8601C24.8901 34.6201 20.5701 34.0101 15.9401 33.5401C15.6301 33.5101 15.4101 33.6801 15.2401 33.6801C15.1401 33.6801 15.24 33.4101 14.95 33.3701C14.7 33.3301 14.3901 33.4101 14.1301 33.3801C14.1701 33.6001 14.0801 34.5101 14.1301 34.5601C14.1901 34.6201 15.58 34.6801 15.9 34.7101C16.15 34.7301 16.4501 34.8501 16.6401 34.8601C16.7801 34.8601 16.9401 34.8701 17.0801 34.8601C17.2901 35.0801 17.5601 34.9901 17.8201 35.0101C17.9201 35.0101 18.0201 35.0101 18.1101 35.0101C18.4101 35.0401 18.6901 35.1301 18.9901 35.1601C25.0001 35.7001 31.0201 35.9801 37.0301 36.4801C38.0001 36.5601 38.9901 36.6101 39.9601 36.6301C40.6901 36.5401 39.06 35.7001 38.9 35.6401C38.63 35.5501 37.5201 35.1701 37.4401 35.1601C37.0101 35.0601 35.8501 35.0301 35.3301 35.0101C33.4201 34.9201 31.51 34.9601 29.59 34.8601H29.5801ZM4.99006 35.9001C3.20006 36.6901 1.94006 37.2501 3.05006 39.3901C4.09006 41.3801 6.32006 41.5201 8.32006 41.7701C9.65006 41.9401 11.0201 41.9701 12.3501 42.0801C12.4801 40.9701 11.7501 39.9301 11.9701 38.8301C12.4201 36.5601 14.8801 37.6101 16.4201 37.7901C21.1901 38.3301 25.97 38.8201 30.76 39.1301C31.4 39.1701 32.1301 39.2401 32.8201 39.2801C33.1101 39.3001 33.41 39.2601 33.7001 39.2801C34.8501 39.3401 36.1501 39.3501 37.3801 39.4301C37.7401 39.4501 38.0301 39.4301 38.4201 39.5001C40.3801 39.8401 39.5 40.5001 39.59 41.8601C39.6701 43.0801 40.35 44.2101 41.51 44.6601C44 45.6301 50.3701 45.5001 52.9901 44.8101C54.8501 44.3201 56.0201 43.6701 56.37 41.6401L50.15 42.3501C48.5 41.6201 49.3501 40.7301 50.7701 40.4601C51.5901 40.3101 52.4401 40.2601 53.2701 40.1701C54.4401 40.0401 55.62 39.9301 56.79 39.8601L57.3901 37.3701C57.2501 37.2201 55.5501 37.8801 55.2401 37.9401C53.9501 38.2001 52.0301 38.3901 50.7701 38.4001C49.8501 38.4001 48.8901 38.4401 47.9701 38.4001C46.6601 38.3401 42.6501 37.7101 41.7401 37.9901C41.5301 38.0601 41.44 38.3401 41.12 38.4001C39.41 38.7401 35.9701 38.0401 34.0601 37.9501C31.0401 37.8101 27.6 37.6701 24.62 37.7901C24.55 37.7901 24.5701 37.5401 24.4601 37.5101C24.0501 37.4101 23.3801 37.5501 22.8801 37.4901C20.3801 37.1901 17.5101 36.5101 15.0501 36.3301C14.1401 36.2601 14.3 36.5201 13.51 36.1801C13.34 36.1101 13.0601 35.9101 12.9201 35.8901C12.8301 35.8801 12.7201 35.8901 12.6301 35.8901C11.9101 35.8201 11.0101 35.8801 10.2701 35.8901C9.88006 35.8901 9.48005 35.8901 9.09005 35.8901L5.47005 35.6101C5.25005 35.6101 5.12005 35.8201 4.97005 35.8901L4.99006 35.9001ZM133.97 37.9601V37.3701H133.83V37.9601H133.97ZM133.83 38.6901V38.1001H133.69V38.6901H133.83ZM36.3501 44.4301C37.0001 44.7601 37.8501 44.5001 38.5601 44.5801L38.12 43.7001C38.12 43.7001 38.12 43.6001 38.12 43.5501C38.08 43.3001 38.0101 43.0601 37.9701 42.8101C37.8801 42.2601 37.7401 41.7701 37.8201 41.1901C37.0401 41.1901 36.2501 41.1901 35.4601 41.1901C34.3101 41.1801 33.2101 41.1001 32.0701 41.0401C27.3701 40.8001 22.8301 40.3801 18.1601 39.8601C16.8701 39.7201 15.5 39.3701 14.18 39.2701C13.78 39.3001 13.8001 39.5901 13.8201 39.9201C13.8501 40.2901 14.4601 42.4501 14.6901 42.5901C17.7101 42.8101 20.7401 42.9601 23.7501 43.2501C27.8801 43.6401 32.1901 44.4301 36.34 44.4301H36.3501Z" fill="#131110"/>
<path d="M149.58 14.55C149.77 14.72 147.96 18.59 147.96 19.48C147.96 20.73 149.3 20.85 149.43 21.54C149.73 23.11 149.22 25.54 149.43 27.21C148.6 27.24 146.17 27.44 145.74 28.16C145.46 29.41 145.16 30.67 144.76 31.89C144.61 32.35 144.21 33.77 143.88 33.96L137.95 34.87C137.74 31.69 135.74 29.65 132.57 29.42C130.56 29.27 125.62 30.04 123.91 31.06C122.09 32.15 121.62 34.01 121.33 35.98C121.24 36.59 121.28 38.19 121.14 38.59C121.1 38.71 121.04 38.78 120.91 38.8C110.76 40.99 100.5 42.6 90.1601 43.69C86.9801 44.02 83.7601 44.05 80.6001 44.58C78.9701 41.97 78.5101 38.89 77.3001 36.08C75.2301 31.27 72.7501 29.97 67.4801 30.29C63.6301 30.52 59.6201 31.76 58.0201 35.59C55.7801 35.86 53.5501 36.49 51.2901 36.63C49.1601 36.76 47.0601 36.48 44.9501 36.33C43.9001 36.26 42.8201 36.43 41.7901 36.11C42.6201 35.65 43.2501 35.24 43.5601 34.27C43.8001 34.33 43.8101 34.7 44.0001 34.93C45.0701 36.24 46.5201 36.46 48.0301 35.72C49.9901 34.77 49.9801 31.85 49.0401 30.18L47.6801 28.67C47.9001 28.77 48.0801 28.82 48.3301 28.83C53.4201 28.91 58.2901 28.28 63.3601 28.09C69.2401 27.87 75.0301 27.84 80.8801 27.2C81.5701 27.13 83.1001 27.47 83.3901 26.62C84.0801 24.59 79.5401 25.67 78.5201 25.73C72.9801 26.05 67.4201 26.15 61.8801 26.47C58.1901 26.68 54.5101 27.05 50.8401 27.05C47.7601 27.05 43.9701 27.25 40.9701 26.76C40.0101 26.6 41.6101 25.49 41.9701 25.26C44.3901 23.74 45.8901 24.01 48.4601 23.66C49.9001 23.46 49.8001 21.99 48.3301 21.9C46.1501 21.76 43.3601 22.55 41.4501 23.57C40.2301 24.23 38.8701 25.11 38.7501 26.62C34.3701 26.67 30.0101 26.56 25.6501 26.47L13.9501 25.58C13.9601 23.92 17.7701 23.8 17.9301 22.7C18.1901 20.93 14.3301 22.69 13.6601 23.16C12.8701 23.72 12.3901 24.49 12.2401 25.44C9.66008 25.04 6.88007 25.55 4.31007 25.12C3.70007 25.02 2.95007 24.87 2.61007 24.3C2.43007 23.23 7.73007 22.01 8.63007 21.82C13.9301 20.68 19.6401 20.34 25.0501 19.83C34.1401 18.97 43.2801 18.17 52.4301 17.91C61.8201 17.64 70.8001 19.07 80.1201 19.68C80.8601 19.73 85.0101 19.51 85.1901 19.68C85.2101 19.7 85.2101 20.15 85.3101 20.37C85.6201 21.03 86.3001 21.73 86.6401 22.43C88.3301 25.84 88.1601 32.73 87.6801 36.52C87.4801 38.1 86.9801 39.65 86.8201 41.24C87.0101 42.84 89.4101 42.01 90.4301 41.92C96.1201 41.41 102.48 41.09 108.08 40.14C109.49 39.9 110.11 38.73 110.53 37.44C111.25 35.24 111.2 26.93 110.72 24.57C110.36 22.76 109.53 20.68 108.61 19.1C109.07 19.08 109.54 19.13 110.01 19.1C118.61 18.45 126.61 17.43 135.09 16.06C139.87 15.29 144.71 14.71 149.55 14.54L149.58 14.55ZM140.87 21.94C140.24 21.99 139.44 22.28 138.76 22.35C132.06 23.01 125.32 23.69 118.59 24.12C117.14 24.21 115.48 24.06 114.04 24.28C112.67 24.49 113.12 26.04 114.47 26.04C114.72 26.04 114.96 25.9 115.21 25.89C121.48 25.79 127.69 25.02 133.91 24.42C135.97 24.22 139.06 24.36 140.93 23.79C142.46 23.33 142.17 21.85 140.87 21.95V21.94Z" fill="#E73100"/>
<path d="M106.86 19.28C107.4 20.6 108.1 21.9 108.54 23.26C109.5 26.25 109.56 33.21 109.02 36.34C108.87 37.21 108.32 38.2 107.38 38.39C104.91 38.88 101.43 39.15 98.85 39.43C96.8 39.65 94.72 39.7 92.67 39.87C91.42 39.97 90.16 40.17 88.91 40.31C89.07 38.71 89.49 37.13 89.64 35.52C89.96 32.12 89.95 25.99 88.76 22.86C88.36 21.8 87.67 20.9 87.28 19.85C90.42 20.28 93.61 19.66 96.78 19.85C100.11 19.6 103.49 19.5 106.84 19.28H106.86ZM104.05 21.65C103.48 21.71 102.2 21.97 101.8 22.34C101.16 22.95 101.31 24.1 102.25 24.25C102.82 24.34 104.96 24.18 105.59 24.08C106.57 23.92 107.14 23.2 106.81 22.19C106.54 21.36 104.78 21.57 104.04 21.65H104.05Z" fill="#E73100"/>
<path d="M84.7601 17.7502C83.9201 18.4402 78.0201 17.4702 76.6301 17.3502C68.7901 16.6802 60.6401 15.7602 52.7701 16.0202C51.9101 16.0502 50.8301 16.2702 49.9601 16.3102C49.7101 16.3202 49.6101 16.3102 49.4701 16.0902C50.3801 14.4102 51.3301 12.7202 52.2001 11.0202C52.6401 10.1702 53.6001 7.37017 54.4701 7.10017C56.5701 7.04017 58.6501 6.61018 60.7401 6.45018C66.7401 5.99018 72.8701 6.05017 78.8501 6.60017C80.8101 6.78017 83.4901 6.99018 85.2901 7.67018C87.6401 8.55018 87.0801 9.12017 86.6501 11.3202C86.4801 12.2002 85.2001 17.4102 84.7701 17.7602L84.7601 17.7502Z" fill="#B0D9E9"/>
<path d="M124.26 16.02L119.26 16.4C117.62 14.56 116.47 12.33 114.92 10.43C112.25 7.15999 110.85 6.59 106.65 6.03C102.69 5.51 94.96 5.03999 91.45 6.98999C89.57 8.02999 89.98 9.41001 89.62 11.2C89.16 13.49 88.47 15.77 88.34 18.09H86.72C87.34 15.25 89.14 11.49 88.78 8.59C88.55 6.75 86.1 5.81 84.54 5.47C77.36 3.9 66.91 4.08 59.56 4.69C58.82 4.75 58.06 5.05 57.35 5.13C57.19 5.15 56.8 5.22999 56.84 4.98999C59.9 4.26999 62.94 3.64999 66.06 3.23999C76.18 1.92999 86.9 2.33001 97.11 2.92001C102.92 3.25001 109.96 3.98001 115.28 6.39001C118.37 7.79001 119.48 9.90001 121.47 12.42C122.4 13.59 123.58 14.63 124.26 16.03V16.02Z" fill="#E73100"/>
<path d="M9.12008 35.9C9.51008 35.9 9.91009 35.9 10.3001 35.9C10.9301 36.15 12.0601 36.15 12.6601 35.9C12.7601 35.9 12.8601 35.89 12.9501 35.9C13.1101 36.23 13.0201 36.44 13.4601 36.34L13.5401 36.2C14.3301 36.53 14.1701 36.28 15.0801 36.35C17.5401 36.53 20.4001 37.21 22.9101 37.51C23.4101 37.57 24.0801 37.43 24.4901 37.53C24.6001 37.56 24.5801 37.81 24.6501 37.81C27.6301 37.68 31.0701 37.83 34.0901 37.97C36.0001 38.06 39.4401 38.75 41.1501 38.42C41.4701 38.36 41.5601 38.08 41.7701 38.01C42.6801 37.73 46.6901 38.36 48.0001 38.42C47.9201 38.87 48.2301 38.6999 48.5101 38.7099C49.1001 38.7299 49.7001 38.7299 50.2901 38.7099C50.5701 38.7099 50.8801 38.86 50.8001 38.42C52.0601 38.42 53.9801 38.2199 55.2701 37.9599C55.5801 37.8999 57.2801 37.24 57.4201 37.39L56.8201 39.88C55.6501 39.95 54.4701 40.05 53.3001 40.19C52.7601 39.87 51.9201 40.12 51.3101 40.19C51.0401 40.23 50.7101 40 50.7901 40.48C49.3701 40.74 48.5101 41.64 50.1701 42.37L56.3901 41.66C56.0401 43.69 54.8601 44.3399 53.0101 44.8299C50.3801 45.5199 44.0201 45.65 41.5301 44.68C40.3701 44.23 39.6901 43.1 39.6101 41.88C39.5201 40.52 40.4001 39.8599 38.4401 39.5199C38.0601 39.4499 37.7601 39.48 37.4001 39.45C37.4801 39 37.1701 39.17 36.8901 39.16C35.9001 39.12 34.6701 39.07 33.7201 39.31C33.4301 39.29 33.1301 39.33 32.8401 39.31C32.8301 39.23 32.8701 39.0299 32.8401 39.0199C32.7601 38.9599 30.9801 38.96 30.7801 39.17C25.9901 38.85 21.2201 38.3699 16.4401 37.8299C14.9101 37.6599 12.4501 36.6 11.9901 38.87C11.7701 39.97 12.5001 41.01 12.3701 42.12C11.0401 42.01 9.67008 41.98 8.34008 41.81C6.34008 41.55 4.1001 41.42 3.0701 39.43C1.9601 37.29 3.22008 36.73 5.01008 35.94L8.64009 36.1C8.81009 36.19 9.10009 35.94 9.14009 35.94L9.12008 35.9ZM6.91009 37.66C6.67009 37.67 6.42009 37.66 6.17009 37.66C6.34009 37.17 5.01009 37.29 4.70009 37.51C4.65009 37.51 4.59009 37.5 4.55009 37.51C4.44009 37.54 4.42008 37.65 4.40008 37.66C3.68008 38.08 3.83009 38.82 4.47009 39.29C4.67009 39.44 4.96009 39.41 4.99009 39.43C5.01009 39.44 4.95009 39.63 5.02009 39.69C5.14009 39.79 7.73009 39.74 8.16009 39.73C8.44009 39.72 8.75009 39.88 8.67009 39.44C9.04009 39.37 9.31009 39.4399 9.69009 39.2099C10.4601 38.7499 10.5601 37.57 9.55009 37.38C8.84009 37.07 7.54008 37.25 6.90008 37.67L6.91009 37.66ZM40.7301 40.04C39.5901 40.39 40.4901 41.9 41.5901 42.07C42.6101 42.23 45.9801 42.14 46.8001 41.56C47.2501 41.24 47.4601 40.76 47.0301 40.32C46.4901 39.76 45.6001 40.28 44.9701 40.32C44.2101 40.36 43.0501 40.4099 42.3101 40.3299C41.7401 40.2699 41.2601 39.8899 40.7301 40.0499V40.04Z" fill="#B1ACA5"/>
<path d="M66.8001 32.26C68.8401 32.16 69.8701 32.52 71.1601 34.14C75.0701 39.03 74.4201 49.87 68.2501 52.71C62.9801 55.14 59.1801 52.33 57.5901 47.27C56.7301 44.54 57.2901 44.82 58.0401 42.49C59.8501 36.86 59.2801 32.63 66.8001 32.26ZM65.1801 35.79C58.4901 36.77 58.3301 50.97 66.1701 50.18C73.2401 49.47 72.5801 34.71 65.1801 35.79Z" fill="#33312E"/>
<path d="M102.91 17.6402L93.6301 18.0801L93.05 8.45017C93.1 8.26017 93.2701 8.27015 93.4101 8.21015C94.9501 7.58015 99.4701 7.38016 101.22 7.47016C102.39 7.53016 103.61 7.86017 104.8 7.79017L105.56 17.2602C105.56 17.3502 104.96 17.4801 104.82 17.4901C104.65 17.2801 102.98 17.2802 102.9 17.3402C102.88 17.3602 102.91 17.5502 102.9 17.6302L102.91 17.6402Z" fill="#B0D9E9"/>
<path d="M36.35 44.43C32.2 44.43 27.89 43.65 23.76 43.25C20.75 42.96 17.72 42.81 14.7 42.59C14.46 42.45 13.85 40.28 13.83 39.92C13.81 39.6 13.79 39.3 14.19 39.27C15.51 39.38 16.88 39.72 18.17 39.86C22.84 40.38 27.38 40.8 32.08 41.04C32 41.49 32.31 41.32 32.59 41.33C33.49 41.37 34.62 41.43 35.47 41.18C36.25 41.18 37.04 41.18 37.83 41.18C37.75 41.76 37.88 42.25 37.98 42.8C37.69 42.97 37.8 43.45 38.13 43.54C38.13 43.59 38.13 43.64 38.13 43.69C38.17 43.93 38.31 44.17 38.28 44.43C37.8 44.52 37.33 44.27 36.88 44.27C36.52 44.27 36.39 44.43 36.37 44.43H36.35Z" fill="#B1ACA5"/>
<path d="M116.9 16.4602L107.48 17.3402L106.75 8.14019C106.86 7.99019 106.87 7.97019 107.05 7.98019C107.74 8.00019 109.6 8.47017 110.27 8.74017C112.92 9.79017 115.09 14.3302 116.9 16.4702V16.4602Z" fill="#B0D9E9"/>
<path d="M38.56 28.2401C38.06 28.9201 37.76 29.6201 37.59 30.4601L24.34 30.1602C20.85 29.8002 17.38 29.2501 13.92 28.6501C13.45 28.4701 13.75 27.3402 13.67 26.9102C16.63 27.1802 19.6 27.6301 22.57 27.8001C26.18 28.0101 29.85 27.9801 33.47 28.0901C35.16 28.1401 36.87 28.0902 38.56 28.2302V28.2401Z" fill="#E73100"/>
<path d="M129.81 31.3801C131.31 31.4101 132.09 34.2201 132.19 35.4001C132.36 37.4501 131.58 41.3401 128.92 41.2901C126.33 41.2401 126.15 36.9501 126.32 35.0901C126.38 34.4101 126.97 32.3701 127.43 31.9301C127.66 31.7101 129.44 31.3801 129.81 31.3901V31.3801ZM128.92 35.0401C127.94 35.3401 127.87 38.6501 129.75 38.0701C130.59 37.8101 131.01 34.4101 128.92 35.0401Z" fill="#B1ACA5"/>
<path d="M125.29 32.3601C124.52 34.7901 124.27 38.4901 125.46 40.8101C127.15 44.1101 131.46 43.5501 132.98 40.4101L133.69 38.8401C133.38 42.6401 129.72 47.9001 125.55 44.8501C123.02 43.0001 122.74 39.7601 122.94 36.8401C123.05 35.2701 123.49 32.7301 125.3 32.3601H125.29Z" fill="#33312E"/>
<path d="M15.8901 34.7201C15.5701 34.6901 14.1901 34.6401 14.1201 34.5701C14.0701 34.5201 14.1601 33.6101 14.1201 33.3901C14.3801 33.4201 14.6901 33.3401 14.9401 33.3801C15.2301 33.4201 15.1401 33.6901 15.2301 33.6901C15.4101 33.6901 15.6201 33.5201 15.9301 33.5501C20.5601 34.0201 24.8801 34.6201 29.5701 34.8701C29.4901 35.3201 29.7901 35.1501 30.0801 35.1601C31.5201 35.2201 33.0601 35.1801 34.5101 35.1601C34.7601 35.1601 35.1601 35.2501 35.3201 35.0101C35.8401 35.0301 36.9901 35.0601 37.4301 35.1601C37.5101 35.1801 38.6201 35.5501 38.8901 35.6401C39.0601 35.7001 40.6801 36.5401 39.9501 36.6301C38.9801 36.6001 37.9901 36.5601 37.0201 36.4801C31.0201 35.9801 25.0001 35.7001 18.9801 35.1601C19.1401 34.7201 18.3601 34.7601 18.1001 35.0101C18.0001 35.0101 17.9001 35.0101 17.8101 35.0101C17.9101 34.3801 17.2501 34.8501 17.0701 34.8601C16.9301 34.8701 16.7701 34.8601 16.6301 34.8601C16.7701 34.4301 16.1401 34.4601 15.8901 34.7101V34.7201Z" fill="#B1ACA5"/>
<path d="M12.21 26.77L12.5 34.28C9.81001 34.28 7.03002 34.33 4.41002 33.75C3.33002 32.95 4.54002 33.12 5.21002 32.66C5.46002 32.48 6.11002 31.58 6.16002 31.63C6.17002 31.64 6.21001 31.87 6.31001 31.99C7.37001 33.2 9.68001 33.33 10.73 31.99C11.53 30.96 11.58 28.85 10.8 27.8C9.97002 26.68 7.42001 26.4 6.53001 27.49C6.32001 27.75 6.33002 28.11 6.02002 28.23C5.97002 27.56 5.35001 26.97 4.70001 26.82C4.55001 26.78 3.06001 26.81 3.51001 26.46L12.2 26.75L12.21 26.77Z" fill="#E73100"/>
<path d="M31.6401 32.0702C31.5601 32.5202 31.8601 32.3502 32.1501 32.3602C33.8901 32.4302 35.6501 32.3102 37.3801 32.3602V33.3902C36.8401 33.4202 35.9301 33.2802 35.3201 33.2402C35.4001 32.7902 35.0901 32.9602 34.8101 32.9502C33.6001 32.9002 32.3401 32.9302 31.1201 32.9502C30.8701 32.9502 30.4701 32.8602 30.3101 33.1002C28.3901 33.0102 26.2401 32.9602 24.3501 32.8002C20.8701 32.5202 17.3101 31.7802 13.8201 31.6202V30.4402C15.9001 30.7102 17.9801 31.0302 20.0601 31.3402C24.1701 31.9502 27.4901 31.9502 31.6401 32.0602V32.0702Z" fill="#B1ACA5"/>
<path d="M41.6301 34.39C41.4401 34.5 40.5901 34.43 40.3301 34.36C39.1801 34.01 39.1201 31.16 39.4901 30.27C39.7101 29.75 40.9301 29.6 41.4101 29.75C42.4901 30.08 42.4701 33.91 41.6301 34.4V34.39Z" fill="#FEFEFE"/>
<path d="M150.59 28.9902C150.82 29.3602 150.29 30.6102 150.05 30.9902C149.91 31.2102 149 32.1502 148.8 32.3102C148.53 32.5202 146.49 33.2402 146.34 33.0902L147.39 29.1302C147.95 29.1102 150.3 28.5202 150.59 28.9802V28.9902Z" fill="#B1ACA5"/>
<path d="M45.4301 30.32C47.7101 29.54 48.9801 34.07 46.5501 34.54C44.4501 34.95 44.6501 30.59 45.4301 30.32Z" fill="#FEFEFE"/>
<path d="M91.7201 18.0801H90.1001L91.2801 11.6001L91.5701 12.4101L91.7201 18.0801Z" fill="#B0D9E9"/>
<path d="M2.67011 31.2902C2.45011 31.0402 2.39011 28.6102 2.55011 28.3702C2.71011 28.1302 3.84011 28.1802 4.11011 28.3102C4.64011 28.5602 4.64011 30.3902 4.44011 30.8502C4.19011 31.4402 3.05011 31.7302 2.67011 31.2902Z" fill="#FEFEFE"/>
<path d="M9.38001 31.0001C9.19001 31.2301 7.88001 31.3001 7.71001 31.0501C7.50001 30.7401 7.49 28.6201 7.81 28.4101C8.21 28.1501 9.22001 28.5301 9.47001 28.9901C9.72001 29.4501 9.7 30.6201 9.37 31.0101L9.38001 31.0001Z" fill="#FEFEFE"/>
<path d="M45.19 28.53C45.02 28.84 44.67 28.86 44.37 29.11C43.93 29.48 43.83 29.96 43.42 30.29C43.42 29.76 43.05 29.36 42.76 28.96L41.65 28.23C42.82 28.4 44 28.57 45.18 28.52L45.19 28.53Z" fill="#E64D26"/>
<path d="M31.64 32.0701C32.19 32.0801 32.94 32.2201 33.33 32.2201H37.53C37.59 32.2201 37.44 33.1801 37.68 33.4001C37.58 33.4001 37.48 33.4001 37.39 33.4001V32.3701C35.65 32.3201 33.9 32.4401 32.16 32.3701C31.88 32.3601 31.57 32.52 31.65 32.08L31.64 32.0701Z" fill="#B1ACA5"/>
<path d="M35.3201 35.0101C35.1701 35.2501 34.76 35.1601 34.51 35.1601C33.06 35.1801 31.53 35.2101 30.08 35.1601C29.8 35.1501 29.4901 35.3101 29.5701 34.8701C31.4901 34.9701 33.4 34.9301 35.31 35.0201L35.3201 35.0101Z" fill="#B1ACA5"/>
<path d="M33.7001 39.28C34.6501 39.04 35.8801 39.09 36.8701 39.13C37.1501 39.14 37.4601 38.98 37.3801 39.42C36.1501 39.34 34.8501 39.34 33.7001 39.27V39.28Z" fill="#B1ACA5"/>
<path d="M30.3201 33.1001C30.4701 32.8601 30.8801 32.9502 31.1301 32.9502C32.3501 32.9402 33.6101 32.9002 34.8201 32.9502C35.1001 32.9602 35.4101 32.8001 35.3301 33.2401C33.6501 33.1401 31.9901 33.1701 30.3201 33.0901V33.1001Z" fill="#B1ACA5"/>
<path d="M50.7801 38.4001C50.8601 38.8401 50.5501 38.6902 50.2701 38.6902C49.6801 38.7102 49.0701 38.7102 48.4901 38.6902C48.2101 38.6802 47.9001 38.8401 47.9801 38.4001C48.9001 38.4401 49.8501 38.4001 50.7801 38.4001Z" fill="#B1ACA5"/>
<path d="M9.11998 35.9C9.11998 35.9 8.79998 36.14 8.61998 36.06L4.98999 35.9C5.14999 35.83 5.27999 35.61 5.48999 35.62L9.10999 35.9H9.11998Z" fill="#B1ACA5"/>
<path d="M30.76 39.1301C30.97 38.9201 32.74 38.9201 32.82 38.9801C32.84 39.0001 32.81 39.1901 32.82 39.2701C32.13 39.2301 31.4 39.1701 30.76 39.1201V39.1301Z" fill="#B1ACA5"/>
<path d="M35.4701 41.2001C34.6301 41.4401 33.4901 41.3801 32.5901 41.3501C32.3101 41.3401 32.0001 41.5001 32.0801 41.0601C33.2201 41.1201 34.3201 41.2001 35.4701 41.2101V41.2001Z" fill="#B1ACA5"/>
<path d="M38.1201 43.7002L38.5601 44.5802C37.8501 44.5002 37.0001 44.7602 36.3501 44.4302C36.3801 44.4302 36.5001 44.2702 36.8601 44.2702C37.3101 44.2702 37.7801 44.5202 38.2601 44.4302C38.2901 44.1702 38.1501 43.9402 38.1101 43.6902L38.1201 43.7002Z" fill="#B1ACA5"/>
<path d="M53.2901 40.16C52.4601 40.26 51.6101 40.3 50.7901 40.45C50.7101 39.97 51.0301 40.2 51.3101 40.16C51.9201 40.08 52.7601 39.83 53.3001 40.16H53.2901Z" fill="#B1ACA5"/>
<path d="M12.65 35.9002C12.05 36.1502 10.92 36.1502 10.29 35.9002C11.03 35.8902 11.93 35.8302 12.65 35.9002Z" fill="#B1ACA5"/>
<path d="M104.82 17.4902C104.21 17.5602 103.54 17.4202 102.91 17.6402C102.92 17.5602 102.88 17.3602 102.91 17.3502C102.99 17.2902 104.66 17.2802 104.83 17.5002L104.82 17.4902Z" fill="#B0D9E9"/>
<path d="M17.0701 34.8601C17.2501 34.8501 17.9101 34.3702 17.8101 35.0102C17.5501 34.9902 17.2901 35.0801 17.0701 34.8601Z" fill="#B1ACA5"/>
<path d="M18.1001 35.0101C18.3601 34.7601 19.1401 34.7101 18.9801 35.1601C18.6801 35.1301 18.4001 35.0401 18.1001 35.0101Z" fill="#B1ACA5"/>
<path d="M15.89 34.72C16.14 34.46 16.77 34.44 16.63 34.87C16.44 34.87 16.15 34.75 15.89 34.72Z" fill="#B1ACA5"/>
<path d="M38.1201 43.55C37.8001 43.47 37.6801 42.9901 37.9701 42.8101C38.0101 43.0501 38.0701 43.3 38.1201 43.55Z" fill="#B0D9E9"/>
<path d="M13.5301 36.1901L13.4501 36.3301C13.0101 36.4301 13.1001 36.2201 12.9401 35.8901C13.0801 35.9101 13.3601 36.1101 13.5301 36.1801V36.1901Z" fill="#B1ACA5"/>
<path d="M133.97 37.3701H133.83V37.9601H133.97V37.3701Z" fill="#33312E"/>
<path d="M133.82 38.1001H133.68V38.6901H133.82V38.1001Z" fill="#33312E"/>
<path d="M140.87 21.9402C142.17 21.8402 142.46 23.3202 140.93 23.7802C139.05 24.3502 135.96 24.2102 133.91 24.4102C127.69 25.0202 121.48 25.7902 115.21 25.8802C114.97 25.8802 114.72 26.0302 114.47 26.0302C113.12 26.0302 112.67 24.4802 114.04 24.2702C115.49 24.0502 117.14 24.2002 118.59 24.1102C125.32 23.6902 132.06 23.0102 138.76 22.3402C139.44 22.2702 140.24 21.9802 140.87 21.9302V21.9402Z" fill="#131110"/>
<path d="M104.05 21.6502C104.79 21.5702 106.54 21.3602 106.82 22.1902C107.15 23.1902 106.58 23.9202 105.6 24.0802C104.97 24.1802 102.83 24.3402 102.26 24.2502C101.32 24.1002 101.17 22.9502 101.81 22.3402C102.21 21.9602 103.49 21.7102 104.06 21.6502H104.05Z" fill="#131110"/>
<path d="M40.7301 40.04C41.2601 39.88 41.7401 40.26 42.3101 40.32C43.0401 40.4 44.2001 40.35 44.9701 40.31C45.6001 40.28 46.4901 39.76 47.0301 40.31C47.4601 40.75 47.2501 41.23 46.8001 41.55C45.9801 42.13 42.6101 42.22 41.5901 42.06C40.4901 41.89 39.5901 40.38 40.7301 40.03V40.04Z" fill="#131110"/>
<path d="M9.56007 37.3702C10.5701 37.5602 10.4701 38.7402 9.70007 39.2002C9.32007 39.4202 9.05007 39.3702 8.68007 39.4302C7.40007 39.6602 6.29007 39.4302 5.00007 39.4302C4.97007 39.4102 4.69007 39.4302 4.48007 39.2902C3.84007 38.8202 3.69008 38.0902 4.41008 37.6602L4.56007 37.5102C4.56007 37.5102 4.66008 37.5102 4.71008 37.5102C5.25008 37.4602 5.68007 37.6602 6.18007 37.6602C6.42007 37.6602 6.67007 37.6702 6.92007 37.6602C7.70007 37.6302 8.87008 37.2402 9.57008 37.3702H9.56007Z" fill="#131110"/>
<path d="M8.67002 39.4301C8.75002 39.8801 8.44003 39.7102 8.16003 39.7202C7.73003 39.7402 5.13003 39.7901 5.02003 39.6801C4.95003 39.6201 5.01003 39.4302 4.99003 39.4202C6.28003 39.4202 7.39002 39.6502 8.67002 39.4202V39.4301Z" fill="#B1ACA5"/>
<path d="M9.56003 37.37C8.86003 37.24 7.69003 37.63 6.91003 37.66C7.55003 37.23 8.85003 37.05 9.56003 37.37Z" fill="#B1ACA5"/>
<path d="M4.70007 37.5102C5.02007 37.2902 6.35007 37.1702 6.17007 37.6602C5.67007 37.6602 5.24007 37.4702 4.70007 37.5102Z" fill="#B1ACA5"/>
<path d="M4.40002 37.66C4.40002 37.66 4.44003 37.54 4.55003 37.51L4.40002 37.66Z" fill="#B0D9E9"/>
<path d="M65.1801 35.7901C72.5801 34.7101 73.2401 49.4701 66.1701 50.1801C58.3301 50.9701 58.4801 36.7701 65.1801 35.7901ZM65.3201 37.7001C61.1201 38.4301 60.5201 48.9701 66.1701 48.2701C70.4401 47.7401 70.4101 36.8201 65.3201 37.7001Z" fill="#131110"/>
<path d="M128.92 35.0402C131 34.4102 130.59 37.8202 129.75 38.0702C127.87 38.6402 127.94 35.3302 128.92 35.0402Z" fill="#131110"/>
<path d="M65.32 37.7001C70.41 36.8201 70.44 47.7401 66.17 48.2701C60.52 48.9701 61.12 38.4301 65.32 37.7001ZM65.62 41.2201C64.1 41.4401 63.98 44.2701 65.2 44.6601C67.65 45.4401 67.82 40.9001 65.62 41.2201Z" fill="#B1ACA5"/>
<path d="M65.62 41.22C67.83 40.9 67.65 45.44 65.2 44.66C63.97 44.27 64.09 41.44 65.62 41.22Z" fill="#131110"/>
</svg>
