<svg width="97" height="59" viewBox="0 0 97 59" fill="none" xmlns="http://www.w3.org/2000/svg">
<path d="M70.75 10.08C72.71 10.38 74.53 11.19 76.4 11.79C84.12 14.23 88.67 16.14 93.79 22.77C102.21 33.67 88.22 42.07 79.63 45.89C75.83 47.58 71.85 48.92 67.76 49.7C67.68 52.69 65.65 55.2 63.47 57.04C61.78 58.47 57.33 60.78 57.91 56.63C56.68 57.03 54.53 58.1 53.51 56.81C52.03 54.93 54.9 52.29 55.71 50.73C53.21 50.83 50.72 50.55 48.26 50.14C46.53 53.23 42.35 55.75 38.76 55.46C37.81 55.38 36.76 54.94 35.85 54.89C35.01 54.85 34.04 55.24 33.2 55.23C32.09 55.22 29.94 54.54 29.13 53.74C26.84 51.49 30.44 48.84 31.39 46.9C31.18 46.89 30.98 46.9 30.77 46.91C25.62 47.32 22.64 52.52 17.79 54.19C10.17 56.82 3.91996 54.39 0.969959 46.81C-0.950041 41.87 -0.180029 33.67 4.91997 30.89C10.79 27.69 15.22 35.07 21.78 32.93C24.38 32.08 26.19 30.2 28.04 28.3V28.13C26.32 27.15 25.61 25.3 25.87 23.35C26.12 21.49 28.14 18.93 29.62 17.84C30.08 17.5 31.31 17 31.58 16.67C31.85 16.34 31.99 15.19 32.39 14.58C34.79 10.9 41.15 10.44 44.47 13.02C44.87 13.33 45.4 14.25 45.8 14.23L52.7 11.28C51.29 8.98001 50.65 5.31996 53.75 4.09996C54.17 3.92996 55.44 3.77 55.6 3.64C55.8 3.47 55.68 3.08996 55.74 2.84996C56.22 0.999957 58.66 1.71996 60.04 1.72996C60.53 0.129962 62.87 0.319972 64.16 0.739971C67.79 1.89997 71.59 6.01998 70.76 10.06L70.75 10.08ZM69.01 9.84996C69.07 8.33996 68.71 6.88998 67.79 5.68998C67.57 5.40998 66.89 4.64995 66.56 4.65995C66.16 4.88995 63.47 5.02 63.46 5.27L65.4399 9.47996C66.6299 9.67996 67.83 9.55996 69.01 9.84996ZM64.03 9.49998L61.95 5.49998C61.63 5.29998 59.89 5.45996 59.52 5.72996C59.49 6.06996 61.19 9.26998 61.53 9.49998C61.9 9.74998 62.12 9.49998 62.47 9.49998C62.99 9.48998 63.51 9.49998 64.03 9.49998ZM59.87 9.72996L58.13 6.08C57.94 5.96 55.97 6.66001 55.86 6.84001C55.69 7.12001 57.22 9.78996 57.52 9.97996C57.92 10.23 59.32 9.61997 59.87 9.73997V9.72996ZM56.05 10.43L54.6 7.53996C53.65 8.31996 53.45 8.47001 53.88 9.65001C54.45 11.24 54.62 10.7 56.05 10.43ZM68.8199 16.03C70.0799 14.75 71.5999 13.75 72.9399 12.57C72.9399 12.31 71.39 12.02 71.11 11.97C67.95 11.35 63.82 11.07 60.61 11.36C60.22 11.39 57.53 11.81 57.42 11.94C57.81 13.25 58.37 14.88 58.22 16.27C58.05 17.87 56.64 19.96 56.07 21.49C56.96 22.43 59.93 24.6 60.18 25.8C60.3 26.36 60.27 26.91 59.57 26.88C58.94 26.85 58.24 26.04 57.83 25.6C55.63 23.26 53.17 20.7 49.73 20.73C49.51 20.73 49.31 20.86 49.09 20.85C49.34 21.4 49.47 21.96 49.45 22.58L56.7 25.23C57.85 26.31 56.95 26.77 55.72 26.44C53.57 25.88 51.35 24.44 49.16 23.86C48.83 24.63 48.32 25.33 47.71 25.89C49.29 26.39 50.93 26.73 52.52 27.22C53.44 27.51 55.07 27.97 55.88 28.37C56.72 28.78 56.36 29.54 55.63 29.64C54.81 29.76 50.99 28.5 49.93 28.17C49.23 27.96 48.52 27.68 47.82 27.44C47.83 27.73 48.1 27.85 48.23 28.13C48.61 28.98 48.25 29.88 47.94 30.68C50.31 31.17 52.74 31.25 55.15 31.28C56.13 31.77 56.46 32.52 55.06 32.65C54.08 32.74 52.27 32.61 51.24 32.53C50.37 32.46 49.5 32.26 48.63 32.18C49.56 32.81 49.69 33.61 49.98 34.62C51.66 34.49 53.33 34.32 54.94 33.8C55.47 33.62 56.64 34.03 56.25 34.7C55.88 35.35 50.73 35.99 49.79 36C49.85 37.07 50.02 38.25 51.35 38.2C53.21 38.13 55.6 36.89 57.15 35.88C57.59 35.6 58.43 34.77 58.82 34.66C59.48 34.46 60.19 34.82 59.96 35.57C59.71 36.39 56.47 38.14 55.6 38.56C55.97 42.76 58.47 46.76 62.13 48.85C65.08 48.49 68 48.1 70.86 47.29C71.23 47.19 73.54 46.53 73.64 46.42C73.81 46.24 73.57 46.22 73.49 46.16C72.67 45.52 71.27 44.97 70.36 44.32C68.18 42.77 64.78 39.15 63.74 36.69C61.13 30.49 64.26 20.65 68.81 16L68.8199 16.03ZM54.66 20.39C55.67 17.73 57.42 15.07 55.63 12.3C49.59 14.03 43.82 16.8 38.81 20.58C38.95 21.52 39.39 22.4 39.48 23.35C39.91 27.9 35.68 31.74 36.14 36.42C36.42 39.25 38.5 41.34 39.94 43.62C40.6 44.67 41.16 45.8 41.77 46.88C45.52 47.9 49.41 48.95 53.32 49.1C55.35 49.18 57.37 48.87 59.4 48.98C59.48 48.71 59.33 48.78 59.25 48.72C58.99 48.49 58.66 48.3 58.41 48.06C56.25 45.98 54.17 42.55 54.07 39.49C51.58 40.49 48.53 40.43 47.85 37.32C47.79 37.03 47.8 36.1 47.68 35.92C47.61 35.82 46.1 35.16 45.62 34.69C43.93 33.04 43.43 31.16 44.1 28.88C44.25 28.37 45.03 27.21 45.05 27.04C45.08 26.69 44.71 26.56 44.56 26.26C43.06 23.26 45.94 19.71 48.86 19.05C51.17 18.53 52.73 19.21 54.65 20.39H54.66ZM78.74 14.14C77.84 14.12 75.64 13.03 74.92 13.26C72.51 15.11 70.05 16.71 68.28 19.25C66.15 22.3 64 28.56 64.27 32.26C64.53 35.76 66.5199 38.64 68.9499 41.01C70.9499 42.96 73.3 44.57 75.9 45.63C76.9 45.21 78.07 44.86 79.04 44.37C79.16 44.31 79.2599 44.43 79.1999 44.13C73.3199 40.91 66.52 36.1 68.61 28.38C70.17 22.63 74.0099 17.98 78.59 14.4C78.6799 14.33 78.8 14.4 78.74 14.14ZM44.01 15.29C44.23 14.98 42.37 14.04 42.08 13.92C41.2 13.55 39.9 13.17 39.03 13.73C38.99 13.89 39.43 14.25 39.55 14.36C39.88 14.65 41.85 16.09 42.15 16.17C42.55 16.28 43.49 15.3 44 15.29H44.01ZM41 16.92C39.8 16.37 38.85 15.39 37.8 14.61C37.54 14.56 36.55 16.27 36.27 16.51C37.17 17.29 38.32 17.61 39.35 18.16C39.46 18.18 40.75 17.32 40.88 17.2C40.98 17.1 41.04 17.09 41 16.92ZM94.6999 29.4C94.6599 26.49 92.88 24.11 91.01 22.06C89.62 20.53 87.6499 18.67 85.9499 17.51C85.1299 16.95 81.56 14.88 80.76 14.93C80.22 14.96 77.9699 16.75 77.4599 17.2C74.0599 20.2 69.3199 27.36 69.8199 32.02C70.2699 36.12 74.5599 39.56 77.8199 41.62C78.2799 41.91 80.63 43.33 80.98 43.31C81.18 43.3 83.32 42.24 83.67 42.06C86.95 40.31 90.01 38.01 92.51 35.27C91.53 35.05 90.3799 35.27 89.3199 35.22C88.0699 35.15 84.41 34.46 83.59 33.54C82.77 32.62 83.18 31.03 84.47 30.82C85.62 30.64 87.27 30.89 88.51 30.82C90.62 30.69 92.7299 30.16 94.6899 29.42L94.6999 29.4ZM37.99 19C37.99 19 37.63 18.99 37.44 18.91C36.99 18.72 35.45 17.72 35.17 17.75C34.8 17.78 33.68 19.13 33.36 19.46C34.1 19.6 35.63 20.69 36.31 20.62C36.61 20.59 37.5 19.47 37.94 19.35C38.02 19.29 38.02 19.02 38 19H37.99ZM34.75 21.66L32.28 20.52C32.03 20.84 30.76 22.11 30.81 22.4C30.83 22.51 32.63 23.42 32.84 23.4C32.98 23.39 34.83 21.76 34.75 21.66ZM39.49 46.21C38.33 43.64 35.88 41.52 35.01 38.82C34.22 36.39 34.34 34.96 35.04 32.54C36.04 29.05 38.6 25.71 37.18 21.89C35.99 22.9 34.78 23.88 33.63 24.94C28.35 29.84 23.97 37.18 15.5 34.37C13.78 33.8 12.06 32.89 10.36 32.23C8.73997 32.47 6.92999 33.03 6.37999 34.74C8.64999 35.59 11.29 36.45 13.73 36.6C14.49 36.65 16.87 36.41 17.33 36.82C17.6 37.07 17.55 37.84 17.19 37.97C16.94 38.05 16.01 38.12 15.7 38.11C13.82 38.09 11.22 37.71 9.39 37.24C8.14 36.91 6.92999 36.3 5.68999 36.02L5.11998 39.83C5.27998 40.07 9.97997 40.74 10.61 40.77C11.39 40.81 14.08 40.6 14.54 40.89C14.93 41.14 14.9 41.65 14.56 41.92C14.14 42.26 11.42 42.19 10.73 42.15C8.83997 42.05 6.95998 41.63 5.11998 41.22C5.21998 41.87 5.54998 44.94 6.11998 45.14C6.26998 45.19 7.02999 45.27 7.24999 45.28C8.30999 45.35 9.78996 45.34 10.85 45.28C11.69 45.23 14.45 44.67 14.99 44.83C15.29 44.92 15.52 45.52 15.31 45.8C14.97 46.26 11.67 46.63 10.96 46.67C9.59001 46.74 8.07997 46.67 6.72997 46.55C6.56997 46.69 8.72997 50.05 8.97997 50.09C9.36997 50.15 11.44 49.75 11.96 49.64C12.48 49.53 13.27 49.32 13.79 49.15C14.49 48.92 16.75 47.53 17.21 48.28C17.69 49.06 15.48 49.98 14.95 50.19C13.37 50.83 11.66 51.12 9.96996 51.29C10.51 51.92 11.93 53.19 12.72 53.35C14.26 53.66 17.16 52.78 18.58 52.09C22.24 50.3 24.99 46.55 28.95 45.56C32.37 44.71 36.09 45.69 39.49 46.2V46.21ZM31.85 24.33C31.47 24.42 30.14 23.35 30 23.45C29.62 24.1 28.77 26.23 29.13 26.88C29.25 27.09 29.55 26.79 29.66 26.71C30.4 26.13 30.98 25.2 31.74 24.62L31.85 24.33ZM94.6 31.16C94.4 31.02 93.01 31.61 92.66 31.7C90.22 32.33 88.43 32.22 85.98 32.31C85.84 32.31 85.5499 32.22 85.5799 32.42C86.6199 32.75 87.67 33.09 88.76 33.23C89.46 33.32 93.64 33.51 93.92 33.16C94.22 32.78 94.36 31.63 94.6 31.15V31.16ZM34.98 47.14C34.62 47.16 33.23 46.82 33.01 46.96C32.79 47.1 31.78 49.34 31.39 49.69C31.78 49.67 32.09 50.14 32.43 49.99C33.02 49.73 34.28 47.61 34.98 47.15V47.14ZM38.57 47.72C38.08 47.76 36.82 47.24 36.46 47.48C36.2 47.64 35.45 48.7 35.16 49C34.71 49.47 33.81 50.2 33.48 50.68C33.41 50.78 33.32 50.79 33.37 50.97C33.88 50.79 35.12 51.64 35.45 51.5C35.56 51.46 36.34 50.62 36.49 50.45C37.1 49.76 37.83 48.82 38.4 48.08C38.49 47.96 38.62 47.93 38.57 47.73V47.72ZM42.27 48.76C41.82 48.74 40.14 48.01 39.86 48.2C39.29 49.53 38.09 50.42 37.24 51.54C37.15 51.66 37.01 51.69 37.07 51.89C37.77 51.7 39.3 52.18 39.85 51.95C40.09 51.85 42.4 48.93 42.28 48.77L42.27 48.76ZM43.73 49.12C43.28 49.72 42.91 50.38 42.48 51C42.28 51.28 41.73 51.82 41.63 52C41.54 52.16 41.55 52.18 41.69 52.29C41.76 52.35 43.23 52.79 43.31 52.77C43.62 52.68 44.87 51.75 45.16 51.49C45.35 51.32 46.52 50.08 46.55 49.98C46.58 49.85 46.47 49.75 46.35 49.72L43.73 49.13V49.12ZM65.89 50.03C63.83 50.21 61.76 50.47 59.7 50.61C59.14 50.65 58.09 50.5 57.64 50.63C57.4 50.7 57.03 51.69 56.82 52.01C56.64 52.3 55.55 53.51 55.59 53.67C55.63 53.83 56.27 53.95 56.45 53.95C56.73 53.95 58.84 53.58 59 53.49C59.27 53.33 59.39 52.82 60.02 52.94C60.65 53.06 60.65 53.83 60.97 54.2C61.37 54.68 62.28 55 62.37 55.81C63.99 54.25 65.72 52.39 65.9 50.02L65.89 50.03Z" fill="#111110"/>
<path d="M39.49 46.2099C36.09 45.6999 32.37 44.7199 28.95 45.5699C24.98 46.5599 22.23 50.3099 18.58 52.0999C17.16 52.7899 14.26 53.6699 12.72 53.3599C11.93 53.1999 10.51 51.9299 9.96997 51.2999C11.66 51.1299 13.37 50.8299 14.95 50.1999C15.48 49.9899 17.69 49.0699 17.21 48.2899C16.75 47.5399 14.49 48.9299 13.79 49.1599C13.27 49.3299 12.5 49.5299 11.96 49.6499C11.42 49.7699 9.35998 50.1499 8.97998 50.0999C8.72998 50.0599 6.56998 46.6999 6.72998 46.5599C8.07998 46.6899 9.59002 46.7499 10.96 46.6799C11.67 46.6399 14.97 46.2699 15.31 45.8099C15.52 45.5399 15.28 44.9299 14.99 44.8399C14.45 44.6699 11.69 45.2399 10.85 45.2899C9.78998 45.3499 8.31 45.3599 7.25 45.2899C7.03 45.2799 6.26 45.1999 6.12 45.1499C5.55 44.9499 5.22 41.8799 5.12 41.2299C6.96 41.6399 8.83998 42.0599 10.73 42.1599C11.42 42.1999 14.13 42.2699 14.56 41.9299C14.9 41.6499 14.94 41.1399 14.54 40.8999C14.08 40.6099 11.39 40.8199 10.61 40.7799C9.97999 40.7499 5.28 40.0799 5.12 39.8399L5.69 36.0299C6.93 36.3099 8.14001 36.9199 9.39001 37.2499C11.22 37.7299 13.82 38.0999 15.7 38.1199C16 38.1199 16.94 38.0599 17.19 37.9799C17.56 37.8599 17.61 37.0799 17.33 36.8299C16.87 36.4199 14.49 36.6599 13.73 36.6099C11.3 36.4599 8.65 35.5999 6.38 34.7499C6.93 33.0399 8.73999 32.4799 10.36 32.2399C12.06 32.8999 13.78 33.8099 15.5 34.3799C23.97 37.1999 28.34 29.8599 33.63 24.9499C34.77 23.8899 35.99 22.9099 37.18 21.8999C38.6 25.7199 36.04 29.0599 35.04 32.5499C34.35 34.9699 34.22 36.3999 35.01 38.8299C35.89 41.5199 38.33 43.6398 39.49 46.2198V46.2099Z" fill="#FC8A01"/>
<path d="M68.8199 16.0301C64.2599 20.6801 61.13 30.51 63.75 36.72C64.79 39.18 68.19 42.8 70.37 44.35C71.28 45 72.68 45.55 73.5 46.19C73.58 46.25 73.82 46.2801 73.65 46.4501C73.55 46.5601 71.24 47.2201 70.87 47.32C68.01 48.1301 65.09 48.53 62.14 48.88C58.48 46.79 55.97 42.7901 55.61 38.5901C56.48 38.1701 59.72 36.42 59.97 35.6C60.2 34.85 59.49 34.49 58.83 34.69C58.44 34.81 57.6 35.63 57.16 35.91C55.61 36.92 53.22 38.16 51.36 38.23C50.04 38.28 49.86 37.1001 49.8 36.0301C50.74 36.0301 55.88 35.38 56.26 34.73C56.65 34.06 55.48 33.6501 54.95 33.8301C53.34 34.3501 51.67 34.5201 49.99 34.6501C49.7 33.6401 49.57 32.8501 48.64 32.2101C49.51 32.2901 50.38 32.49 51.25 32.56C52.28 32.64 54.09 32.78 55.07 32.68C56.47 32.55 56.13 31.8 55.16 31.31C52.75 31.28 50.31 31.2001 47.95 30.7101C48.26 29.9101 48.62 29.01 48.24 28.16C48.11 27.88 47.85 27.76 47.83 27.47C48.53 27.71 49.23 27.9801 49.94 28.2001C51 28.5201 54.82 29.79 55.64 29.67C56.36 29.56 56.73 28.8101 55.89 28.4001C55.08 28.0001 53.45 27.53 52.53 27.25C50.94 26.76 49.31 26.42 47.72 25.92C48.34 25.36 48.84 24.6601 49.17 23.8901C51.36 24.4801 53.58 25.91 55.73 26.47C56.97 26.8 57.86 26.3401 56.71 25.2601L49.46 22.61C49.48 21.99 49.35 21.44 49.1 20.88C49.32 20.88 49.52 20.7601 49.74 20.7601C53.18 20.7301 55.64 23.29 57.84 25.63C58.25 26.07 58.96 26.88 59.58 26.91C60.27 26.94 60.3 26.3801 60.19 25.8301C59.94 24.6301 56.97 22.4601 56.08 21.5201C56.65 19.9901 58.06 17.9 58.23 16.3C58.38 14.91 57.82 13.28 57.43 11.97C57.53 11.84 60.23 11.4301 60.62 11.3901C63.83 11.1001 67.95 11.39 71.12 12C71.4 12.05 72.95 12.34 72.95 12.6C71.61 13.78 70.08 14.77 68.83 16.06L68.8199 16.0301Z" fill="#FC8A01"/>
<path d="M94.7 29.4001C92.74 30.1501 90.6301 30.6701 88.5201 30.8001C87.2801 30.8801 85.63 30.6301 84.48 30.8001C83.19 31.0001 82.77 32.5801 83.6 33.5201C84.43 34.4601 88.08 35.1301 89.33 35.2001C90.39 35.2601 91.5301 35.0401 92.5201 35.2501C90.0301 38.0001 86.9601 40.3001 83.6801 42.0401C83.3301 42.2301 81.19 43.2801 80.99 43.2901C80.64 43.3101 78.29 41.8901 77.83 41.6001C74.57 39.5301 70.28 36.1001 69.83 32.0001C69.32 27.3401 74.07 20.1701 77.47 17.1801C77.98 16.7301 80.2401 14.9401 80.7701 14.9101C81.5701 14.8601 85.14 16.9301 85.96 17.4901C87.66 18.6501 89.6301 20.5101 91.0201 22.0401C92.8801 24.0901 94.66 26.4701 94.71 29.3801L94.7 29.4001ZM78.3101 25.7901C79.4101 26.9201 82.0401 27.1501 83.3001 26.1701C85.3701 24.5701 84.93 21.4001 82.7 20.1701C79.11 18.2001 75.3401 22.7401 78.3001 25.7801L78.3101 25.7901Z" fill="#FC8A01"/>
<path d="M54.66 20.3901C52.74 19.2201 51.18 18.54 48.87 19.05C45.95 19.7 43.07 23.2601 44.57 26.2601C44.72 26.5601 45.09 26.69 45.06 27.04C45.05 27.21 44.26 28.3701 44.11 28.8801C43.44 31.1601 43.93 33.0401 45.63 34.6901C46.12 35.1601 47.63 35.82 47.69 35.92C47.81 36.1 47.79 37.0201 47.86 37.3201C48.54 40.4301 51.59 40.4901 54.08 39.4901C54.18 42.5501 56.26 45.9801 58.42 48.0601C58.67 48.3001 59 48.49 59.26 48.72C59.34 48.79 59.48 48.72 59.41 48.98C57.38 48.87 55.35 49.18 53.33 49.1C49.42 48.94 45.53 47.8901 41.78 46.8801C41.17 45.8001 40.61 44.6701 39.95 43.6201C38.51 41.3401 36.43 39.25 36.15 36.42C35.69 31.74 39.93 27.9 39.49 23.35C39.4 22.4 38.96 21.5101 38.82 20.5801C43.83 16.7901 49.6 14.03 55.64 12.3C57.43 15.07 55.68 17.7301 54.67 20.3901H54.66Z" fill="#FCF6F0"/>
<path d="M78.74 14.1399C78.81 14.4099 78.6899 14.3299 78.5899 14.3999C73.9999 17.9699 70.1699 22.6299 68.6099 28.3799C66.5199 36.0999 73.3299 40.9099 79.1999 44.1299C79.2499 44.4299 79.16 44.3099 79.04 44.3699C78.08 44.8599 76.91 45.2099 75.9 45.6299C73.3 44.5699 70.9599 42.9599 68.9499 41.0099C66.5199 38.6399 64.52 35.7699 64.27 32.2599C64 28.5599 66.15 22.2899 68.28 19.2499C70.05 16.7199 72.5 15.1099 74.92 13.2599C75.64 13.0299 77.85 14.1199 78.74 14.1399Z" fill="#FCF6F0"/>
<path d="M65.89 50.03C65.71 52.4 63.98 54.26 62.36 55.82C62.28 55.01 61.37 54.69 60.96 54.21C60.65 53.83 60.65 53.06 60.01 52.95C59.37 52.84 59.26 53.34 58.99 53.5C58.83 53.6 56.72 53.96 56.44 53.96C56.26 53.96 55.62 53.85 55.58 53.68C55.54 53.51 56.63 52.31 56.81 52.02C57.02 51.69 57.38 50.71 57.63 50.64C58.08 50.5 59.13 50.65 59.69 50.62C61.75 50.48 63.82 50.22 65.88 50.04L65.89 50.03Z" fill="#FC8A01"/>
<path d="M69.01 9.85001C67.83 9.57001 66.6299 9.69002 65.4399 9.48002L63.46 5.27006C63.47 5.01006 66.1601 4.89001 66.5601 4.66001C66.8901 4.65001 67.57 5.41004 67.79 5.69004C68.72 6.89004 69.07 8.33001 69.01 9.85001Z" fill="#FC8A01"/>
<path d="M64.0301 9.4999C63.5101 9.4999 62.99 9.4899 62.47 9.4999C62.13 9.4999 61.9101 9.7499 61.5301 9.4999C61.1801 9.2699 59.49 6.06988 59.52 5.72988C59.89 5.44988 61.63 5.2999 61.95 5.4999L64.0301 9.4999Z" fill="#FC8A01"/>
<path d="M42.27 48.76C42.39 48.92 40.08 51.84 39.84 51.94C39.3 52.17 37.76 51.7 37.06 51.88C37.01 51.68 37.15 51.65 37.23 51.53C38.08 50.41 39.2899 49.52 39.8499 48.19C40.1399 48.01 41.82 48.73 42.26 48.75L42.27 48.76Z" fill="#FC8A01"/>
<path d="M94.5999 31.1599C94.3599 31.6399 94.22 32.7899 93.92 33.1699C93.64 33.5199 89.46 33.33 88.76 33.24C87.66 33.1 86.6199 32.76 85.5799 32.43C85.5499 32.23 85.8399 32.32 85.9799 32.32C88.4299 32.23 90.22 32.34 92.66 31.71C93.02 31.62 94.4099 31.0199 94.5999 31.1699V31.1599Z" fill="#FC8A01"/>
<path d="M43.73 49.1199L46.3499 49.7099C46.4699 49.7499 46.58 49.8398 46.55 49.9698C46.53 50.0698 45.3499 51.3099 45.1599 51.4799C44.8599 51.7399 43.61 52.6799 43.31 52.7599C43.23 52.7799 41.76 52.3399 41.69 52.2799C41.55 52.1699 41.54 52.1499 41.63 51.9899C41.73 51.8099 42.28 51.2599 42.48 50.9899C42.92 50.3799 43.28 49.7099 43.73 49.1099V49.1199Z" fill="#FC8A01"/>
<path d="M59.87 9.72995C59.32 9.60995 57.92 10.2199 57.52 9.96994C57.22 9.77994 55.69 7.10999 55.86 6.82999C55.97 6.65999 57.94 5.94998 58.13 6.06998L59.87 9.71994V9.72995Z" fill="#FC8A01"/>
<path d="M38.57 47.72C38.62 47.92 38.49 47.95 38.4 48.07C37.83 48.81 37.09 49.75 36.49 50.44C36.34 50.61 35.55 51.45 35.45 51.49C35.12 51.63 33.88 50.78 33.37 50.96C33.32 50.78 33.42 50.77 33.48 50.67C33.81 50.19 34.71 49.46 35.16 48.99C35.45 48.69 36.2 47.64 36.46 47.47C36.83 47.24 38.08 47.75 38.57 47.71V47.72Z" fill="#FC8A01"/>
<path d="M41 16.92C41.04 17.09 40.97 17.11 40.88 17.2C40.75 17.33 39.46 18.18 39.35 18.16C38.32 17.61 37.17 17.29 36.27 16.51C36.56 16.26 37.54 14.56 37.8 14.61C38.85 15.4 39.79 16.37 41 16.92Z" fill="#FC8A01"/>
<path d="M37.99 18.9999C37.99 18.9999 38.01 19.2799 37.93 19.3499C37.5 19.4699 36.6 20.5899 36.3 20.6199C35.62 20.6899 34.09 19.6 33.35 19.46C33.67 19.13 34.79 17.7799 35.16 17.7499C35.44 17.7199 36.98 18.7199 37.43 18.9099C37.61 18.9899 37.96 18.9799 37.98 18.9999H37.99Z" fill="#FC8A01"/>
<path d="M44.01 15.29C43.49 15.31 42.55 16.28 42.16 16.17C41.86 16.09 39.89 14.65 39.56 14.36C39.43 14.25 39 13.89 39.04 13.73C39.91 13.16 41.21 13.55 42.09 13.92C42.37 14.04 44.24 14.98 44.02 15.29H44.01Z" fill="#FC8A01"/>
<path d="M34.75 21.66C34.83 21.76 32.97 23.39 32.84 23.4C32.63 23.42 30.83 22.52 30.81 22.4C30.76 22.11 32.03 20.84 32.28 20.52L34.75 21.66Z" fill="#FC8A01"/>
<path d="M31.85 24.33L31.74 24.6199C30.98 25.1999 30.39 26.13 29.66 26.71C29.55 26.8 29.25 27.1 29.13 26.88C28.77 26.24 29.62 24.11 30 23.45C30.14 23.35 31.47 24.42 31.85 24.33Z" fill="#FC8A01"/>
<path d="M34.98 47.1399C34.28 47.5999 33.02 49.7199 32.43 49.9799C32.09 50.1299 31.78 49.6599 31.39 49.6799C31.78 49.3399 32.79 47.0899 33.01 46.9499C33.23 46.8099 34.61 47.1499 34.98 47.1299V47.1399Z" fill="#FC8A01"/>
<path d="M56.05 10.4301C54.62 10.7001 54.45 11.2401 53.88 9.65009C53.45 8.47009 53.66 8.32004 54.6 7.54004L56.05 10.4301Z" fill="#FC8A01"/>
<path d="M78.3101 25.7898C75.3401 22.7498 79.12 18.2099 82.71 20.1799C84.94 21.3999 85.3801 24.5799 83.3101 26.1799C82.0501 27.1499 79.42 26.9298 78.32 25.7998L78.3101 25.7898ZM82.64 21.9299C81.75 20.8699 79.66 20.9298 79.03 22.3598C78.1 24.4398 80.07 25.7999 82.03 25.2499C83.46 24.8499 83.47 22.9199 82.64 21.9299Z" fill="#111110"/>
<path d="M82.64 21.93C83.47 22.92 83.46 24.8401 82.03 25.2501C80.07 25.8001 78.1 24.45 79.03 22.36C79.66 20.93 81.75 20.88 82.64 21.93ZM80.3299 21.8C78.7999 22.11 78.91 25.2901 80.99 24.8901C81.26 24.8401 81.79 24.42 81.89 24.17C82.39 22.92 81.8699 21.48 80.3199 21.79L80.3299 21.8Z" fill="#FCF6F0"/>
<path d="M80.3299 21.7999C81.8799 21.4798 82.4 22.9299 81.9 24.1799C81.8 24.4299 81.27 24.8499 81 24.8999C78.92 25.2899 78.7999 22.1199 80.3399 21.8099L80.3299 21.7999Z" fill="#111110"/>
</svg>
