<svg width="112" height="144" viewBox="0 0 112 144" fill="none" xmlns="http://www.w3.org/2000/svg">
<path d="M103.13 30.6401C103.13 30.7101 102.77 31.0201 103.19 30.9701C103.78 30.4401 104.47 30.0101 105.13 29.5901C105.79 29.1701 108.04 27.6401 108.64 27.6401C110.07 27.6401 109.68 29.5501 109.77 29.6401C109.88 29.7401 111.46 29.3201 111.73 30.6701C111.99 31.9301 111.12 32.4001 111.12 32.6401C111.12 32.7401 111.69 33.1501 111.79 33.4001C112.41 34.9101 110.41 36.2001 109.32 36.8501C106.82 38.3201 103.78 39.3801 101.25 40.8801C100.35 41.6201 97.75 41.0701 97.17 41.3101C96.93 41.4101 96.14 42.0701 95.87 42.2801C94.11 43.6801 92.54 45.3501 90.73 46.7201C83.05 52.5401 73.41 55.4401 64.81 59.6401C63.87 61.7101 63.09 63.9001 62.48 66.0901C61.91 68.1101 61.02 71.4201 61.23 73.4601C61.24 73.6001 61.28 74.0901 61.48 74.0701C63.38 66.7601 71.69 62.3601 78.94 63.8701C80.47 64.1901 83.35 65.0101 82.88 67.0601C82.57 68.3901 79.52 68.8001 78.38 68.8801C78.59 69.6701 78.55 70.2101 78.04 70.8701C77.87 71.0901 77.61 71.0601 77.58 71.2701C82.01 71.4601 86.69 72.3001 89.68 75.8601C90.68 77.0601 92.76 80.4801 91.21 81.7801C89.51 83.2101 87.3 81.1701 85.63 80.7101C84.65 83.8301 81.27 81.4601 79.37 80.7101C79.81 83.3401 76.99 82.8101 75.34 82.3401C72.93 81.6501 70.57 80.2901 67.99 80.3801C69.26 81.8101 70.7 83.3701 71.84 84.9101C73.1 86.5901 73.22 87.1301 71.33 88.3601C71.9 89.0401 72.44 89.8501 73.04 90.4901C73.71 91.2001 75.99 92.8901 76.1 93.6901C76.27 94.9701 74.07 96.0301 73.04 96.3401C71.57 96.7801 70.15 96.7601 68.65 96.9401L70.55 106.68C74.03 109.78 77.35 113.02 80.22 116.7C82.11 119.12 83.93 122.3 86.01 124.48C86.99 125.5 88.19 125.72 89.31 126.5C91.83 128.24 91.53 130.96 91.97 133.69C92.38 136.25 93.59 139.53 91.6 141.78C90.72 142.77 90.5 142.36 89.5 142.61C89.22 142.68 88.96 143.03 88.53 143.1C87.47 143.27 86.98 142.73 86.41 142.72C85.81 142.72 85.6 143.2 84.65 142.74C82.83 141.85 84.65 139.64 84.73 138.24C84.79 137.28 84.43 136.1 84.06 135.22C83.21 133.18 81.44 129.88 79.82 128.41C73.58 122.74 64.57 118.22 59.99 111.12C57.21 106.81 55 102.08 52.48 97.6201C51.85 98.2001 50.82 98.4701 50.16 98.8901C49.33 99.4201 45.06 105.29 44.11 106.54C43.79 106.97 42.05 109.22 42.04 109.52C43.82 112.39 44.88 115.31 45.59 118.61C46.27 121.76 46.53 126.02 47.5 128.94C48.22 131.09 50.98 133.43 50.08 136.06C49.29 138.38 46.16 138.81 44.21 139.63C42.8 140.22 41.59 141.26 40.27 141.81C38.6 142.51 35.65 143.02 34.02 142.16C33.41 141.84 33.55 141.58 33.37 141.42C32.99 141.1 32.09 141.17 31.95 140.25C31.61 138.03 35.52 136.96 37.04 136.04C38.97 134.88 40.49 133.22 40.45 130.82C39.22 128.41 38.04 125.98 36.75 123.6C34.95 120.26 29.85 112.84 29.55 109.52C29.11 104.75 31.6 100.85 33.81 96.8901C32.34 96.5401 29.37 95.4101 29.41 93.5701C29.44 92.2401 32.4 90.6901 33.14 89.5701C30.12 86.9601 33.2 86.1001 35.13 84.9001C36.23 84.2201 37.35 83.3601 38.2 82.3801C38.54 81.9901 40.27 79.6601 40.33 79.3201C40.44 78.7001 40.56 77.3401 40.6 76.6601C40.73 74.4501 39.94 72.8101 39.47 70.7401C39.32 70.0801 39.11 67.8601 38.81 67.5401C38.64 67.3601 38.03 67.1201 37.74 66.8801C34.91 64.5801 35.49 60.3101 37.67 57.7701C33.19 55.1101 28.23 53.2801 23.85 50.4401C20.92 48.5401 20.17 47.5501 18.76 44.3501C17.32 41.1001 16.44 37.6201 15.18 34.3001C14.92 34.1301 10 35.4101 9.14005 35.4801C6.67004 35.6801 5.46002 34.3701 7.21002 32.2901C5.25002 31.8901 2.39003 31.2001 1.47003 29.1901C1.13003 28.4401 1.40002 28.2801 1.33002 27.8501C1.27002 27.4901 0.160024 26.9201 0.150024 25.7101C0.150024 24.9601 0.580038 24.7901 0.570038 24.6501C0.560038 24.1601 0.160038 23.9301 0.320038 23.2101C0.680038 21.6201 3.79003 22.4801 4.81003 22.9801C4.73003 21.7601 4.86002 21.0901 6.21002 21.1101C7.78002 21.1301 10.65 23.1401 12.21 23.8901C15.48 25.4701 17.93 25.6301 20.16 28.8401C22.36 32.0001 24.06 35.8801 26.17 39.1901C26.59 39.8501 27.48 41.4201 28.02 41.8601C28.88 42.5701 32.21 43.8201 33.41 44.3101C36.42 45.5401 39.57 46.4801 42.54 47.8201C43.09 48.0701 46.57 50.0101 46.84 49.7101C47.21 49.2801 45.96 49.0101 45.73 48.8901C44.69 48.3301 43.49 47.3201 42.98 46.2501C42.81 46.1301 42.08 47.0401 41.22 46.6201C40.48 46.2601 40.25 45.2701 40.32 44.5201C37.22 45.9201 38.62 42.1101 39.09 40.5601C39.56 39.0101 40.63 37.1501 40.95 35.7701C41.46 33.6501 41.11 31.1601 41.66 29.1601C41.93 28.1901 42.47 27.4701 42.84 26.5701L35.87 22.5601C34.92 21.7901 34.52 21.0901 35.13 19.9001C33.22 19.4001 29 19.3801 30.61 16.3101C29.17 16.0601 27.03 17.1901 26.03 15.7701C24.61 13.7401 27.96 11.5601 29.61 10.9901C34.45 9.2901 40.28 11.5601 43.91 14.8501C43.83 14.0401 43.57 12.9501 43.99 12.2001C44.1 12.0001 44.47 11.8201 44.44 11.6101C44.41 11.4601 42.71 9.69009 42.42 9.23009C41.81 8.26009 41.28 6.94014 42.46 6.15014C42.67 6.01014 43.22 5.99011 43.12 5.75011C42.17 4.37011 38.93 1.9101 41.32 0.360096C42.46 -0.379904 45.02 0.63013 46.13 1.27013C49.59 3.26013 52.71 8.66013 53.7 12.4601C53.78 12.7501 53.73 13.5501 54.04 12.9401C56.08 8.93011 58.94 5.46009 63.31 3.85009C65.22 3.15009 69.25 2.27013 70.73 4.08013C72.56 6.33013 69.12 7.63013 67.47 8.21013C68.01 9.34013 68.13 10.2201 67.14 11.1301C66.77 11.4701 65.13 12.3201 65 12.5901C64.97 12.6601 65.52 13.6801 65.21 14.0501C68.88 12.7401 72.04 11.9201 75.81 13.4901C77.41 14.1601 81.09 16.4101 80.25 18.5101C79.55 20.2701 76.97 19.1701 75.58 19.2301C76.05 22.6801 72.06 21.8601 69.86 22.1601C70.65 24.0301 69.78 24.7701 68.16 25.4501C66.26 26.2501 64.16 26.6401 62.27 27.4801C62.23 27.6601 62.24 27.6501 62.35 27.7601C62.76 28.1501 63.54 28.5701 64 29.0101C66.8 31.6901 68.35 37.9901 68.39 41.7801C68.39 42.5701 68.27 44.6701 67.36 44.8801C66.53 45.0801 65.87 44.7901 65.4 44.1101C65.23 43.8701 65.29 43.5101 65.06 43.4501C64.98 44.6201 64.07 46.3501 62.66 45.9201C62.23 45.7901 62.17 45.4001 61.87 45.1801C61.36 46.2001 60.1 47.7601 58.81 47.1701C58.71 48.2501 59.33 48.4901 60.31 48.3301C61.29 48.1701 62.66 47.6101 63.73 47.3601C65.71 46.9101 67.72 46.6001 69.69 46.1401C78.67 44.0401 91.19 39.0801 97.39 32.0701C98.71 30.5801 99.74 28.8201 101.07 27.3401C101.85 26.8201 103.11 27.6701 103.11 28.4801C103.11 29.1801 103.15 29.9101 103.11 30.6101L103.13 30.6401ZM52.84 22.8601C53.25 17.8801 52.74 12.6201 50.25 8.22008C48.51 5.14008 45.88 1.91013 42.07 1.71013C42.02 1.93013 42.11 2.0201 42.2 2.1801C42.98 3.6401 47.76 7.55011 43.4 7.56011C42.92 8.04011 45.44 10.4001 45.79 10.8201C46.93 12.1701 48.07 13.5601 45.26 13.6101C45.83 16.8801 47.91 19.6301 48.59 22.8501C49.8 22.6801 50.21 22.8801 50.2 21.4501C50.17 18.9401 49.46 15.3201 48.76 12.9001C48.58 12.2901 47.86 10.6801 47.83 10.2501C47.79 9.59011 48.44 9.08009 49 9.60009C49.37 9.95009 50.08 12.2401 50.26 12.8701C51.13 15.9101 51.55 19.3401 51.25 22.4901C51.32 22.7701 52.55 22.6801 52.85 22.8401L52.84 22.8601ZM63.49 13.6801C62.9 13.6601 62.07 13.9001 62.03 13.0701C61.97 12.0401 64.86 10.9401 65.66 10.3301C67.4 9.01013 64.89 9.68008 64.16 9.22008C63.13 8.56008 64.16 7.85009 64.86 7.54009C65.75 7.14009 69.16 6.16011 69.55 5.44011C69.81 4.97011 68.6 4.71009 68.31 4.67009C62.19 3.83009 55.08 11.0101 54.46 16.8201C54.36 17.7401 54.68 18.6201 54.58 19.5301L56.15 16.2501C56.66 15.3201 59.37 11.0001 60.24 10.8801C60.71 10.8101 61.14 11.0401 61.04 11.5501C60.96 11.9901 59.54 13.3401 59.12 13.9001C57.11 16.5801 55.45 20.0901 54.84 23.3901C55.11 23.3201 55.7 23.6301 55.89 23.5101C55.97 23.4601 56.55 22.0501 56.73 21.7601C58.52 18.7801 60.85 17.1201 62.95 14.5501C63.05 14.4301 63.58 13.7801 63.49 13.6901V13.6801ZM46.99 22.8601C45.63 16.5501 38.27 11.4601 31.91 12.1001C30.72 12.2201 27.67 13.4501 27.31 14.6801C27.22 15.0001 27.84 14.8901 28.05 14.8801C29.26 14.8201 32.43 14.2801 33.37 14.8701C34.81 15.7701 31.71 16.6301 31.83 17.5401C32.99 17.9001 34.2 18.0301 35.37 18.3201C36.2 18.5301 38.44 18.9501 38.59 19.9001C38.75 20.9301 36.98 20.8601 36.35 21.0701L43.67 25.3401H44.06L45.92 23.8801C44.39 21.5201 42.44 19.4001 39.99 17.9701C39.55 17.7101 37.92 17.0601 37.73 16.8401C37.53 16.6001 37.55 15.9701 37.78 15.8001C38.67 15.1601 41.31 17.0401 42.07 17.6201C44.01 19.0901 45.55 20.9301 47 22.8601H46.99ZM78.78 17.9401C77.28 15.4601 73.41 14.0001 70.6 14.2201C65.28 14.6301 60.3 18.4101 57.82 23.0001C57.61 23.3901 56.76 25.2001 57.68 24.1901C60.23 21.3801 63.54 18.9701 67.24 17.9101C67.7 17.7801 68.55 17.4501 68.98 17.5701C69.46 17.7101 69.66 18.3801 69.28 18.7501C69.03 19.0001 66.48 19.6001 65.84 19.8401C63.99 20.5401 62.4 21.6201 60.89 22.8701C60.45 23.2401 58.67 24.7601 58.48 25.1301C58.41 25.2601 58.41 25.2701 58.48 25.3901C58.57 25.5601 59.78 26.7101 59.95 26.7201L68.39 23.5901C69.26 22.6401 66.11 23.1101 66.56 21.6201C66.77 20.9301 69 20.6901 69.68 20.6101C70.46 20.5201 73.5 20.4901 73.86 20.2601C74.63 19.7701 72.53 18.7201 72.42 18.3601C72.15 17.4601 72.91 17.2201 73.65 17.2601C74.34 17.2901 78.55 18.0901 78.78 17.9301V17.9401ZM16.66 33.3701C17.5 33.2801 18.35 32.8401 18.99 32.3001C19.46 31.9101 19.86 31.6401 19.62 31.0101C18.23 27.3801 14.29 26.7001 11.21 25.1901C9.57002 24.3901 8.08004 23.2001 6.29004 22.7901C7.08004 24.0201 8.45002 25.2701 9.71002 26.0201C10.13 26.2701 12.04 27.0301 12.15 27.2001C12.39 27.5501 12.03 28.3301 11.74 28.5101C11.08 28.9201 9.93002 27.5701 9.18002 27.8001C9.02002 27.8501 8.93003 28.0601 8.81003 28.1101C8.13003 28.4001 5.71004 27.6201 4.92004 27.3501C3.92004 27.0101 2.98002 26.3601 1.90002 26.2501C2.69002 27.2101 4.33002 27.8001 5.52002 28.2201C6.06002 28.4101 8.48003 28.9701 8.62003 29.2501C8.93003 29.8501 8.38004 30.2101 7.82004 30.1901C6.34004 30.1401 4.42002 29.1801 2.96002 28.8601C3.83002 29.9201 5.31004 30.2801 6.60004 30.6101C7.43004 30.8201 9.13003 31.2601 9.91003 31.0901C10.5 30.9701 11.58 30.0501 12.14 30.9101C12.85 31.9901 9.73002 32.6501 9.11002 32.9501C8.70002 33.1501 8.25003 33.5101 8.00003 33.9001C9.53003 33.9001 11.13 33.5001 12.63 33.1501C13.47 32.9501 14.61 32.7401 15.39 32.4501C15.94 32.2401 17.13 31.1401 17.19 32.3801C17.22 32.9301 16.89 32.9801 16.64 33.3801L16.66 33.3701ZM7.88004 26.7201C7.37004 26.3201 6.74003 25.5801 6.19003 25.2901C5.64003 25.0001 3.67004 24.1901 3.07004 24.0201C2.64004 23.9001 2.19004 23.9301 1.76004 23.8001C1.89004 24.4401 2.66004 24.7201 3.17004 24.9801C4.60004 25.6901 6.31003 26.3901 7.87003 26.7301L7.88004 26.7201ZM48.05 24.7201C46.33 25.3301 44.9 26.5001 43.93 28.0401C44.56 27.7901 45.12 27.4001 45.76 27.1401C46.27 26.9301 49.11 26.3501 49.12 26.1801C49.9 26.1201 50.62 26.2101 51.38 26.3101C55.61 26.9001 58.75 29.5701 58.83 34.0301C59.01 34.0301 59.98 33.9301 60.02 33.8901C60.12 33.7901 59.89 31.3001 59.83 30.9601C59.35 28.0201 56.93 25.6301 54.17 24.7101C52.16 24.0401 50.05 24.0001 48.05 24.7101V24.7201ZM43.27 43.7501C45.52 48.7801 49.83 49.0401 54.14 46.1701C55.55 45.2401 57.49 43.0501 57.51 41.2801C57.51 40.7301 57.04 39.6201 58.09 39.6101C58.9 39.6001 58.92 40.6901 60.07 40.0001C61.68 39.0301 62.37 34.6601 59.65 35.4501C59.14 35.6001 58.67 36.2501 58.36 36.3001C56.87 36.5101 57.42 34.0101 57.07 33.4001C57.01 33.2901 55.41 32.1801 55.04 31.7801C54.73 31.4401 54.02 30.1401 53.91 30.0501C53.64 29.8201 53.58 30.5101 53.44 30.7101C53.31 30.8901 52.88 31.3601 52.67 31.3501C51.61 31.3301 49.91 29.5901 49.18 28.8501C48.61 30.6201 48.61 32.1401 46.54 30.5601C46.05 30.1801 45.83 29.7801 45.44 29.3901C45.33 29.2801 45.32 29.2001 45.12 29.2501L42.99 32.6401C43.91 32.2101 44.37 31.8501 45.42 32.2001C46.57 32.5901 46.32 33.6801 45.56 33.7401C45.36 33.7601 45.25 33.5501 45.12 33.5001C44.28 33.1901 44.09 33.7001 43.26 33.7701C43.2 33.7701 43.03 33.7601 42.99 33.7701C42.76 33.8701 42.5 35.9801 42.46 36.3701C42.2 38.8701 42.22 41.4401 43.26 43.7501H43.27ZM86.23 41.8801C83.96 42.6801 81.95 44.0601 79.71 44.9401C73.34 47.4401 66.47 48.2101 59.91 50.0201C59.42 51.4201 58.59 52.6801 58 54.0301C57.74 54.6301 57.03 56.1901 56.98 56.7501C56.93 57.2501 57.59 57.9101 57.82 58.3801C58.14 59.0101 58.45 59.7101 58.68 60.3801C58.77 61.2301 58.88 62.0601 58.95 62.9101C58.97 63.1601 58.91 63.4701 58.95 63.7101C58.96 63.8001 58.95 63.9101 59.01 63.9801L61.35 64.5101L61.48 63.5801C62.28 62.1101 62.59 60.0301 63.37 58.6201C63.45 58.4701 63.53 58.3501 63.69 58.2801C72.44 54.0601 82.48 51.1601 90.2 45.1501C91.58 44.0801 95.54 40.0901 96.78 39.7401C97.28 39.6001 98.64 39.8401 99.33 39.7701C101.07 39.5901 103.58 37.9401 105.2 37.1301C106.82 36.3201 108.73 35.7901 110.04 34.5201C110.51 34.0601 110.38 33.9701 109.8 34.1401C108.2 34.6101 106.48 35.9601 104.98 36.5101C104.04 36.8501 103.6 36.4401 104.11 35.5101C106.28 34.2201 109.09 33.5401 110.3 31.1301C110.04 30.9201 107.34 32.3301 106.88 32.5701C106.3 32.8701 104.62 34.0501 104.21 34.1601C103.57 34.3301 102.96 33.9301 103.37 33.3201C103.78 32.7101 106.64 31.4201 107.44 30.7401C107.61 30.5901 108.55 29.3101 107.97 29.5401C106.58 30.5901 104.97 31.3001 103.55 32.3001C102.84 32.8001 101.15 34.7501 100.39 33.7901C99.86 33.1301 100.73 32.4601 101.01 31.8901C101.38 31.1201 101.72 30.1301 101.59 29.2701C99.01 33.1101 95.68 36.3801 91.8 38.9001C90.02 40.0601 88.1 40.9301 86.22 41.9001L86.23 41.8801ZM17.2 34.8401C17.11 34.9401 17.75 36.9301 17.88 37.1401C18.14 37.5601 19.21 37.2101 19.64 37.0901C20.28 36.9101 22 36.0901 21.97 35.3001C21.96 34.9501 20.79 33.3001 20.58 32.8401C19.57 33.6801 18.54 34.6001 17.2 34.8401ZM22.25 37.4901L21.32 38.1601C21.32 38.1601 21.22 38.1401 21.19 38.1601C20.33 38.5301 19.45 38.8001 18.53 38.9601C18.91 39.8501 18.99 41.0001 19.59 41.7501C20.31 43.9701 21.18 46.4201 23.06 47.9201C27.26 51.2801 33.15 53.2301 37.81 55.9201L38.2 55.9701C38.42 55.3201 39.36 53.2701 40.2 53.6501C40.93 53.9801 40.43 54.6601 40.27 55.1801L44.4 50.9301C44.46 50.8301 44.51 50.6101 44.46 50.5401C44.38 50.4201 42.23 49.4701 41.89 49.3101C39.04 48.0301 35.93 47.1301 33.02 45.9401C31.37 45.2601 27.58 43.8201 26.5 42.6101C26.07 42.1301 25.65 41.4301 25.3 40.8901C24.48 39.6401 23.73 38.2901 23.04 36.9601C22.63 36.9301 22.48 37.2901 22.24 37.4901H22.25ZM41.67 56.6501C43 58.4701 44.53 60.1701 45.26 62.3701C45.61 62.4101 45.47 62.3701 45.53 62.1801C45.73 61.5101 45.83 61.0601 46.17 60.4201C46.49 59.8201 47.69 57.8301 48.53 58.5001C49.37 59.1701 46.98 60.9901 47.12 61.9701C47.48 62.0701 47.36 61.8101 47.52 61.6401C49.83 59.2501 52.16 57.5201 55.34 56.3501C55.78 55.2201 56.17 54.0701 56.68 52.9701C56.91 52.4801 58.45 49.8701 58.42 49.6901C58.39 49.5201 57.79 49.0901 57.63 48.8701C56.96 47.9101 57.4 46.6301 56.9 45.6101C54.87 47.8601 51.8 49.4901 48.72 49.4701C48.78 50.2101 48.77 51.6501 47.73 51.6101C47.17 51.5901 46.73 51.1201 46.06 51.4101C44.76 53.0601 42.96 54.5101 41.67 56.1301C41.61 56.2101 41.35 56.2301 41.41 56.4601C41.43 56.5701 41.64 56.6201 41.67 56.6601V56.6501ZM40.2 57.4501C40.11 57.3801 40.01 57.4501 39.93 57.5301C39.55 57.9301 38.85 58.8501 38.56 59.3201C35.41 64.3701 39.56 68.4701 44.59 65.5401C44.06 62.5001 42.43 59.9501 40.35 57.7701C40.25 57.6701 40.23 57.4501 40.22 57.4401L40.2 57.4501ZM55.75 58.1401C55.5 57.9901 53.65 58.8401 53.29 59.0201C51.5 59.9501 49.45 61.6901 48.3 63.3401C48 63.7701 46.92 65.3901 47.2 65.8301C47.62 66.5001 51.03 67.5501 51.87 67.5601C53.39 67.5801 54.8 66.5201 55.87 66.5001C56.44 66.4901 58.23 67.0701 59.06 67.1401C59.29 67.1601 60.51 67.2001 60.57 67.1501C60.61 67.1101 60.71 66.1601 60.84 65.9601C60.15 65.8101 57.61 65.5301 57.32 64.8901C57.12 64.4501 57.38 64.1501 57.38 63.7601C57.41 62.2101 57.24 60.6901 56.52 59.3001C56.44 59.1401 55.82 58.1701 55.76 58.1301L55.75 58.1401ZM81.31 66.5001C75.36 63.2801 67.28 66.1901 64.04 71.9101C63.72 72.4801 62.53 74.8901 62.75 75.4001C62.79 75.4901 63.16 75.9301 63.29 75.6701C64.36 73.9701 65.59 72.3001 67.15 71.0101C67.8 70.4801 70.29 68.7601 71.03 69.1001C72.62 69.8401 69.61 70.9001 69.17 71.1601C67.79 71.9901 65.03 74.8901 64.39 76.3601C64.33 76.5001 64.22 76.6901 64.31 76.8301C64.34 76.8901 65.33 77.6601 65.39 77.6801C65.82 77.8601 66.08 77.6401 66.46 77.4901C68.35 76.7401 70.37 75.4601 72 74.2501C71.48 73.9001 70.69 74.2201 70.2 73.9301C69.01 73.2301 71.27 72.3401 71.74 72.1301C72.48 71.8101 76.44 70.4401 76.66 70.0001C76.78 69.7701 76.5 69.8001 76.37 69.7601C75.64 69.5601 73.69 69.4601 74.54 68.2701L81.32 66.4701L81.31 66.5001ZM60.16 68.7601C59.83 68.7401 59.49 68.7901 59.16 68.7601C58.27 68.6601 56.45 68.1901 55.71 68.2401C55.12 68.2801 53.7 69.0201 52.74 69.1301C50.26 69.4001 47.66 68.2201 45.7 66.7901C44.18 67.7001 42.54 68.3701 40.73 68.2301C40.9 71.2401 42.38 73.7201 42.19 76.8101C42.06 79.0201 41.28 79.5801 43.4 81.1901C45.71 82.9401 49.29 83.0801 52.01 82.3701C55.5 81.4601 58.9 79.0801 60.93 76.1201C60.64 75.6201 60.22 75.2901 59.96 74.7301C59.16 72.9701 59.88 70.6001 60.14 68.7601H60.16ZM72.93 75.4101H78.05C78.15 75.4101 79 75.5901 79.16 75.6301C80.01 75.8801 80.36 76.4401 79.49 76.9801C76.98 76.8701 74.46 76.5301 71.95 76.8901C70.29 77.1301 69.36 77.8201 67.88 78.4701L77.65 81.2601C77.78 80.7001 76.88 79.8601 76.81 79.4301C76.61 78.2201 78.68 78.8801 79.32 79.0601C80.93 79.5101 82.34 80.5901 83.98 80.7201C84.16 80.5601 82.42 78.4001 83.91 78.3101C85.04 78.2501 89.51 81.1801 90.1 80.5801C89.52 75.7501 84.42 73.4301 80.05 73.0001C79.54 72.9501 79.24 73.0901 78.85 73.1201C78.78 73.1201 78.85 72.8901 78.6 72.8601C77.78 72.7601 76.67 72.9101 75.79 72.8801C75.22 72.8601 74.61 72.6301 74 72.7401C74.16 73.8201 73.6 74.6301 72.94 75.4001L72.93 75.4101ZM33.56 87.6501C33.28 88.0301 35.21 88.5901 35.42 88.6501C37.74 89.2501 39.88 89.0501 41.98 87.8901C42.41 87.6501 44.14 86.1301 44.34 87.1901C44.51 88.0901 43.55 88.6101 44.28 89.7801C45.5 91.7501 49.48 91.3001 51.13 89.9901C51.65 89.5701 52.4 88.4101 52.78 88.1901C53.7 87.6601 53.8 88.4901 54.25 89.0001C55.8 90.7401 59.13 91.7201 60.97 89.8701C61.8 89.0401 61.57 88.0101 62.09 87.1301C62.74 86.0201 63.23 87.0501 63.93 87.4301C65.48 88.2901 67.58 88.1901 69.21 87.6001C69.59 87.4601 70.95 86.8301 70.95 86.4001C70.95 86.2101 69.47 84.7201 69.22 84.4001C68.51 83.5101 67.91 82.5301 67.16 81.6701C66.65 81.0901 62.59 77.1401 62.24 77.1501C57.73 83.5001 47.32 87.6201 41.09 81.2701C39.67 83.3201 38.17 84.8701 36.09 86.2501C35.7 86.5101 33.66 87.5401 33.57 87.6601L33.56 87.6501ZM73.33 92.9701C72.07 91.7801 70.88 90.5501 69.91 89.1001C67.68 89.7901 65.4 89.9201 63.22 88.9801C62.04 93.5501 55.96 93.1901 53.17 90.3101C51.03 92.7501 47.12 93.6201 44.28 91.8801C43.5 91.4001 42.44 90.5001 42.46 89.5101C41.3 90.0401 40.27 90.3101 39 90.4401C37.59 90.5901 36.34 90.4801 34.94 90.1701C34.67 90.1901 34.69 90.3701 34.61 90.4401C34.27 90.7301 34.03 91.1201 33.68 91.4401C33.29 91.7901 31.31 93.1601 31.22 93.3701C30.89 94.0801 31.76 94.2601 32.22 94.4301C33.94 95.6301 36.49 95.8301 38.47 95.2301C38.87 95.1101 39.35 94.8901 39.71 94.6801C40.2 94.3901 40.73 93.5101 41.44 94.0301C41.66 94.1901 41.75 96.0401 41.99 96.5701C42.23 97.1001 42.55 97.2201 42.99 97.5001C43.08 97.5601 43.12 97.7101 43.39 97.8301C44.62 98.3901 46.81 98.2901 48.05 97.7601C48.09 97.7601 48.14 97.7601 48.18 97.7601C48.71 97.6801 48.76 97.6601 49.24 97.4901C50.69 96.9901 50.9 96.4601 51.99 95.7801C53.15 95.0501 53.59 96.1401 54.61 96.7101C56.92 98.0101 59.54 98.1601 61.79 96.6601C62.56 96.1501 64.34 94.0901 64.81 93.9401C65.31 93.7901 66.51 94.8001 67.21 94.9501C67.29 94.9701 67.39 94.9401 67.48 94.9501C67.56 94.9901 67.6 95.0501 67.75 95.0801C69.88 95.6001 72.48 95.0101 74.4 94.0101C74.48 93.6001 74.25 93.8101 74.13 93.7501C74.09 93.7301 74.05 93.6501 74 93.6201C73.93 93.4001 73.73 93.3401 73.6 93.2201C73.55 93.1801 73.51 93.1301 73.47 93.0901L73.34 92.9601L73.33 92.9701ZM85.44 141.39C85.86 141.79 86.45 140.35 86.57 140.2C86.8 139.92 87.42 139.76 87.64 140.05C87.99 140.53 86.71 141.62 87.76 141.67C88.81 141.72 88.72 140.21 89.46 139.89C90.29 139.53 90.32 140.51 90.15 141.12C91.93 138.99 90.79 136.05 90.37 133.58C90.14 132.18 90.09 129.65 89.28 128.55C88.31 127.23 86.35 126.94 85.24 125.94C83.13 124.06 80.85 120.11 79.03 117.78C76.12 114.05 72.7 110.82 69.19 107.67C68.35 105.42 68.26 103 67.82 100.65C67.72 100.12 67.1 96.8601 66.99 96.6901C66.92 96.5701 65.16 95.8601 65.01 95.8801C62.65 99.0901 58.67 100.14 54.95 98.6901C56.99 102.49 58.97 106.47 61.28 110.12C65.17 116.25 73.04 120.8 78.69 125.43C82.13 128.25 83.77 130.4 85.53 134.56C86.09 135.89 86.52 137.31 86.34 138.79C86.28 139.28 85.32 141.3 85.42 141.39H85.44ZM47.06 99.7501C46.25 99.8001 45.35 99.7501 44.53 99.7501C44.27 99.7501 43.13 99.4301 42.83 99.3201C41.61 98.8601 40.59 97.6601 40.2 96.4301C38.97 96.7501 37.7 97.2901 36.42 97.3501C36.06 97.3701 35.57 96.9701 35.3 97.4301C33.5 101.28 30.74 104.72 31.16 109.25C31.43 112.17 35.84 118.58 37.43 121.47C37.74 122.04 39.52 125.71 39.76 125.79C40.48 126.04 44.81 124.88 44.98 124.26C44.24 120.21 43.78 115.77 41.69 112.15C41.41 111.66 40.06 109.95 40.06 109.65L47.39 99.8001C47.41 99.3601 47.13 99.7301 47.06 99.7401V99.7501ZM41.55 129.81C43.03 129.64 44.52 129.43 45.87 128.76C45.6 128.13 45.61 126.59 45.33 126.09C45.21 125.87 45.16 126.03 45.04 126.07C43.57 126.59 42.19 127.5 40.47 127.29C40.28 127.48 41.47 129.4 41.55 129.81ZM35.15 141.12C36.93 141.19 38.7 140.9 40.29 140.08C41.04 139.69 41.75 139.09 42.51 138.7C43.99 137.95 48.34 137 48.69 135.3C48.98 133.87 47.17 131.59 46.46 130.4C45.02 130.58 43.59 131.33 42.07 131.27C41.97 133.97 40.19 135.79 38.07 137.18C36.85 137.97 35.44 138.49 34.26 139.23C33.91 139.45 33.4 139.73 33.42 140.19C33.97 140.69 35.94 138.26 36.89 138.92C37.08 139.05 37.07 139.6 36.95 139.8C36.74 140.14 35 140.23 35.15 141.13V141.12Z" fill="#040702"/>
<path d="M86.23 41.88C88.11 40.9 90.02 40.03 91.81 38.88C95.69 36.36 99.02 33.09 101.6 29.25C101.74 30.11 101.4 31.1 101.02 31.87C100.74 32.44 99.87 33.11 100.4 33.77C101.16 34.73 102.85 32.78 103.56 32.28C104.98 31.28 106.59 30.57 107.98 29.52C108.56 29.29 107.62 30.57 107.45 30.72C106.66 31.4 103.81 32.67 103.38 33.3C102.95 33.93 103.58 34.32 104.22 34.14C104.63 34.03 106.31 32.86 106.89 32.55C107.35 32.31 110.04 30.9 110.31 31.11C109.09 33.52 106.29 34.2 104.12 35.49C103.61 36.42 104.05 36.83 104.99 36.49C106.49 35.94 108.21 34.6 109.81 34.12C110.4 33.95 110.53 34.03 110.05 34.5C108.75 35.77 106.8 36.31 105.21 37.11C103.62 37.91 101.08 39.58 99.34 39.75C98.65 39.82 97.29 39.58 96.79 39.72C95.55 40.07 91.59 44.06 90.21 45.13C82.49 51.14 72.45 54.04 63.7 58.26C63.54 58.33 63.46 58.46 63.38 58.6C62.6 60.01 62.29 62.09 61.49 63.56C61.37 63.78 61.21 63.96 61.15 64.23L58.96 63.69C58.92 63.45 58.98 63.15 58.96 62.89C59.36 62.02 58.96 61.16 58.69 60.36C58.46 59.69 58.15 59 57.83 58.36C57.6 57.89 56.94 57.23 56.99 56.73C57.04 56.18 57.74 54.61 58.01 54.01C58.6 52.66 59.43 51.4 59.92 50C66.47 48.19 73.35 47.42 79.72 44.92C79.84 45.22 80.12 44.94 80.28 44.88C82.19 44.11 84.4 42.82 86.24 41.86L86.23 41.88Z" fill="#B0601C"/>
<path d="M47.0601 99.7502C47.1301 99.7502 47.4101 99.3802 47.3901 99.8102L40.0601 109.66C40.0601 109.96 41.4101 111.67 41.6901 112.16C43.7801 115.77 44.2401 120.22 44.9801 124.27C44.8101 124.89 40.4801 126.05 39.7601 125.8C39.5301 125.72 37.7501 122.04 37.4301 121.48C35.8301 118.59 31.4301 112.18 31.1601 109.26C30.7401 104.73 33.4901 101.29 35.3001 97.4402C35.5701 96.9802 36.0501 97.3802 36.4201 97.3602C37.7001 97.3002 38.9801 96.7602 40.2001 96.4402C40.6001 97.6702 41.6101 98.8702 42.8301 99.3302C43.1301 99.4402 44.2701 99.7602 44.5301 99.7602C45.3501 99.7602 46.2501 99.8102 47.0601 99.7602V99.7502Z" fill="#B1611D"/>
<path d="M60.16 68.7601C59.89 70.6001 59.17 72.97 59.98 74.73C60.23 75.28 60.65 75.6201 60.95 76.1201C58.91 79.0701 55.52 81.4601 52.03 82.3701C49.32 83.0801 45.74 82.9401 43.42 81.1901C41.3 79.5801 42.08 79.0201 42.21 76.8101C42.39 73.7201 40.92 71.24 40.75 68.23C42.56 68.37 44.2 67.7 45.72 66.79C47.67 68.22 50.28 69.4001 52.76 69.1301C53.72 69.0201 55.14 68.2801 55.73 68.2401C56.47 68.1901 58.29 68.6701 59.18 68.7601C59.51 68.8001 59.85 68.7401 60.18 68.7601H60.16ZM47.16 80.0301C47.33 80.1901 47.74 80.2401 47.96 80.1801C48.81 79.9401 48.15 76.8301 47.05 77.9301C46.7 78.2801 46.8 79.6901 47.16 80.0301Z" fill="#B0601C"/>
<path d="M33.56 87.6502C33.64 87.5302 35.69 86.5001 36.08 86.2401C38.16 84.8701 39.66 83.3102 41.08 81.2602C47.31 87.6102 57.7201 83.4802 62.2301 77.1402C62.5801 77.1302 66.65 81.0801 67.15 81.6601C67.91 82.5201 68.5 83.4902 69.21 84.3902C69.46 84.7102 70.9401 86.2002 70.9401 86.3902C70.9401 86.8202 69.5801 87.4502 69.2001 87.5902C67.5701 88.1802 65.4701 88.2801 63.9201 87.4201C63.2201 87.0301 62.73 86.0101 62.08 87.1201C61.56 88.0001 61.79 89.0301 60.96 89.8601C59.11 91.7101 55.79 90.7301 54.24 88.9901C53.79 88.4801 53.69 87.6601 52.77 88.1801C52.39 88.4001 51.64 89.5601 51.12 89.9801C49.48 91.3001 45.49 91.7502 44.27 89.7702C43.55 88.6002 44.5 88.0801 44.33 87.1801C44.13 86.1301 42.4001 87.6501 41.9701 87.8801C39.8701 89.0401 37.7301 89.2302 35.4101 88.6402C35.2001 88.5902 33.27 88.0302 33.55 87.6402L33.56 87.6502Z" fill="#A50F39"/>
<path d="M39.0101 90.44C40.2801 90.3 41.3101 90.04 42.4701 89.51C42.4501 90.5 43.5101 91.4 44.2901 91.88C47.1301 93.62 51.0401 92.76 53.1801 90.31C55.9601 93.19 62.0501 93.55 63.2301 88.98C65.4101 89.93 67.6901 89.8 69.9201 89.1C70.8901 90.54 72.0801 91.78 73.3401 92.97C73.3801 93.01 73.4301 93.06 73.4701 93.1C73.5101 93.14 73.5601 93.19 73.6001 93.23C73.6701 93.69 73.8601 93.55 74.0001 93.63C74.0601 93.66 74.0901 93.74 74.1301 93.76C74.2001 94.1 73.7201 94.17 73.5001 94.26C71.8401 94.91 70.2101 95.18 68.4401 95C68.2301 94.98 67.8901 94.85 67.7501 95.1C67.6001 95.06 67.5701 95 67.4801 94.97C67.4501 94.96 67.4101 94.79 67.2801 94.84L67.2101 94.97C66.5101 94.82 65.3101 93.8 64.8101 93.96C64.3401 94.11 62.5701 96.16 61.7901 96.68C59.5401 98.18 56.9201 98.02 54.6101 96.73C53.6001 96.16 53.1501 95.07 51.9901 95.8C50.9001 96.48 50.6901 97 49.2401 97.51C49.0501 97.28 48.4101 97.61 48.1801 97.78C48.1401 97.78 48.0901 97.78 48.0501 97.78C46.3401 98.05 44.6101 98.27 42.9901 97.51C42.5601 97.23 42.2301 97.12 41.9901 96.58C41.7501 96.04 41.6601 94.2 41.4401 94.04C40.7301 93.53 40.2001 94.41 39.7101 94.69C39.3501 94.9 38.8701 95.12 38.4701 95.24L35.3601 95.36C34.2801 95.17 33.2401 94.82 32.2201 94.44C31.7701 94.27 30.8901 94.09 31.2201 93.38C31.3201 93.17 33.3001 91.8 33.6801 91.45C34.0301 91.14 34.2701 90.74 34.6101 90.45C35.9601 90.5 37.1801 90.76 38.5401 90.72C38.8001 90.72 39.0701 90.86 39.0001 90.45L39.0101 90.44Z" fill="#A50F39"/>
<path d="M45.13 33.5001C45.27 33.5501 45.37 33.7601 45.57 33.7401C46.33 33.6801 46.58 32.5901 45.43 32.2001C44.38 31.8501 43.92 32.2001 43 32.6401L45.13 29.2501C45.33 29.2001 45.34 29.2801 45.45 29.3901C45.83 29.7701 46.05 30.1801 46.55 30.5601C48.62 32.1501 48.62 30.6201 49.19 28.8501C49.92 29.5901 51.61 31.3401 52.68 31.3501C52.89 31.3501 53.32 30.8801 53.45 30.7101C53.59 30.5101 53.65 29.8201 53.92 30.0501C54.03 30.1401 54.74 31.4402 55.05 31.7802C55.42 32.1902 57.02 33.2901 57.08 33.4001C57.42 34.0201 56.88 36.5201 58.37 36.3001C58.68 36.2601 59.15 35.6101 59.66 35.4501C62.38 34.6501 61.69 39.0201 60.08 40.0001C58.93 40.6901 58.91 39.6001 58.1 39.6101C57.04 39.6201 57.52 40.7302 57.52 41.2802C57.5 43.0502 55.55 45.2301 54.15 46.1701C49.83 49.0301 45.53 48.7801 43.28 43.7501L42.61 40.1001C42.47 37.9501 42.83 35.9002 43.01 33.7802C43.04 33.7702 43.22 33.7802 43.28 33.7802C44.07 33.9102 43.76 33.7801 44.4 33.6201C44.68 33.5501 44.95 33.6701 45.15 33.5101L45.13 33.5001ZM50.32 32.5701C50.23 32.6301 50.14 32.8701 50.05 32.9701C50.02 33.0101 49.71 32.8101 49.78 33.3101C49.82 33.6501 50 33.4601 50.05 33.5001C50.16 33.6101 50.17 33.8101 50.41 33.8801C50.83 34.0001 51.62 33.7002 52.24 33.7802C52.9 33.8702 53.79 34.7601 54.28 34.2701C54.7 33.8501 54.34 33.3201 54.05 32.9701C53.85 32.7301 53.63 32.5201 53.32 32.4401L53.25 32.5701C53.17 32.5301 53.06 32.4701 52.98 32.4401C52.95 32.4301 52.88 32.2901 52.72 32.2401C51.84 31.9301 51.06 32.0301 50.32 32.5801V32.5701ZM48.59 39.6201C48.59 39.6201 48.66 39.3901 48.51 39.3501C47.97 39.2201 47.05 39.6201 46.6 39.0901C46.99 38.2701 47.56 37.7201 47.99 36.9501C48.3 36.3801 48.58 35.3801 47.71 35.1201C46.64 34.8101 46.71 35.9101 46.46 36.4801C45.97 37.6101 44.47 38.3901 44.94 39.8901C45.09 40.3601 46.11 40.9501 46.54 40.9501H48.67C48.87 40.9501 49.03 40.4401 49.02 40.2201C49 39.7601 48.81 39.8301 48.61 39.6201H48.59ZM44.03 35.6601C43.28 35.8301 43.26 36.9401 43.93 37.1701C45.35 37.6501 45.78 35.2601 44.03 35.6601ZM51.08 36.0601C50.25 36.2401 50.41 37.5101 51.33 37.6201C52.83 37.8101 52.84 35.6701 51.08 36.0601ZM47.12 45.4801C48.06 46.0401 48.71 46.1501 49.78 45.8801C51.14 45.5301 52.36 44.7501 52.77 43.3501C53.93 39.4001 49.83 42.1901 48.08 42.2501C47.29 42.2701 45.98 41.6601 45.39 42.0901C44.18 42.9701 46.28 44.9801 47.12 45.4801Z" fill="#B0601C"/>
<path d="M22.2501 37.49C22.4901 37.29 22.63 36.92 23.05 36.96C23.74 38.28 24.4901 39.64 25.3101 40.89C25.6701 41.43 26.0901 42.14 26.5101 42.61C27.5901 43.82 31.3801 45.26 33.0301 45.94C35.9401 47.13 39.0501 48.03 41.9001 49.31C42.2401 49.46 44.3801 50.42 44.4701 50.54C44.5201 50.62 44.4701 50.83 44.4101 50.93L40.2801 55.18C40.4501 54.67 40.9401 53.99 40.2101 53.65C39.3701 53.27 38.4301 55.32 38.2101 55.97L37.8201 55.92C33.1601 53.23 27.2701 51.28 23.0701 47.92C21.1901 46.41 20.3201 43.97 19.6001 41.75C19.3201 40.88 19.08 39.97 18.8 39.09C19.39 38.99 20.0001 38.86 20.5701 38.66C20.7901 38.58 21.2701 38.49 21.2001 38.16C21.2401 38.14 21.3 38.18 21.33 38.16C21.85 37.92 21.8901 37.82 22.2601 37.49H22.2501Z" fill="#B0601C"/>
<path d="M41.67 56.1201C42.96 54.5001 44.77 53.0601 46.06 51.4001C46.72 51.1201 47.17 51.5801 47.73 51.6001C48.77 51.6401 48.78 50.2101 48.72 49.4601C51.8 49.4801 54.87 47.8501 56.9 45.6001C57.4 46.6201 56.96 47.9001 57.63 48.8601C57.78 49.0801 58.39 49.5101 58.42 49.6801C58.45 49.8601 56.91 52.4701 56.68 52.9601C56.17 54.0601 55.78 55.2201 55.34 56.3401C52.16 57.5101 49.83 59.2401 47.52 61.6301C47.36 61.7901 47.48 62.0601 47.12 61.9601C46.98 60.9801 49.39 59.1701 48.53 58.4901C47.67 57.8101 46.49 59.8101 46.17 60.4101C45.83 61.0501 45.73 61.5001 45.53 62.1701C45.47 62.3601 45.61 62.4101 45.26 62.3601C44.53 60.1601 43 58.4601 41.67 56.6401V56.1101V56.1201Z" fill="#B0601C"/>
<path d="M78.78 17.9401C78.56 18.1001 74.34 17.3101 73.65 17.2701C72.9 17.2401 72.15 17.4701 72.42 18.3701C72.53 18.7201 74.63 19.7801 73.86 20.2701C73.5 20.5001 70.46 20.5201 69.68 20.6201C69 20.7001 66.77 20.9401 66.56 21.6301C66.12 23.1101 69.26 22.65 68.39 23.6L59.95 26.73C59.78 26.71 58.57 25.5701 58.48 25.4001C58.41 25.2701 58.41 25.2601 58.48 25.1401C58.67 24.7701 60.45 23.2501 60.89 22.8801C62.4 21.6201 63.99 20.55 65.84 19.85C66.47 19.61 69.02 19.0101 69.28 18.7601C69.66 18.3901 69.46 17.7201 68.98 17.5801C68.55 17.4601 67.71 17.7801 67.24 17.9201C63.55 18.9801 60.23 21.3801 57.68 24.2001C56.77 25.2101 57.61 23.4001 57.82 23.0101C60.29 18.4201 65.27 14.65 70.6 14.23C73.41 14.01 77.28 15.4701 78.78 17.9501V17.9401Z" fill="#C51C51"/>
<path d="M72.93 75.4101C73.6 74.6401 74.16 73.8301 73.99 72.7501C74.6 72.6401 75.21 72.8701 75.78 72.8901C76.65 72.9201 77.77 72.7701 78.59 72.8701C78.84 72.9001 78.77 73.1401 78.84 73.1301C79.23 73.1101 79.54 72.9701 80.04 73.0101C84.41 73.4401 89.5 75.7601 90.09 80.5901C89.5 81.1901 85.04 78.2501 83.9 78.3201C82.41 78.4001 84.14 80.5601 83.97 80.7301C82.34 80.5901 80.92 79.5201 79.31 79.0701C78.68 78.8901 76.61 78.2301 76.8 79.4401C76.87 79.8701 77.77 80.7101 77.64 81.2701L67.87 78.4801C69.36 77.8301 70.28 77.1401 71.94 76.9001C74.44 76.5401 76.97 76.8701 79.48 76.9901C80.35 76.4501 80.01 75.8901 79.15 75.6401C78.99 75.5901 78.14 75.4201 78.04 75.4201H72.92L72.93 75.4101Z" fill="#C51C51"/>
<path d="M46.99 22.8601C45.53 20.9301 43.99 19.0801 42.06 17.6201C41.3 17.0401 38.66 15.1601 37.77 15.8001C37.54 15.9601 37.52 16.6001 37.72 16.8401C37.91 17.0601 39.54 17.7101 39.98 17.9701C42.44 19.4001 44.38 21.5101 45.91 23.8801L44.05 25.3301H43.66L36.34 21.0701C36.97 20.8601 38.74 20.9401 38.58 19.9001C38.43 18.9501 36.19 18.5301 35.36 18.3201C34.19 18.0301 32.97 17.9001 31.82 17.5401C31.7 16.6401 34.79 15.7701 33.36 14.8701C32.41 14.2801 29.25 14.8201 28.04 14.8801C27.83 14.8901 27.21 14.9901 27.3 14.6801C27.67 13.4501 30.71 12.2201 31.9 12.1001C38.26 11.4601 45.62 16.5501 46.98 22.8601H46.99Z" fill="#C51C51"/>
<path d="M52.84 22.86C52.54 22.7 51.3 22.79 51.24 22.51C51.54 19.36 51.12 15.93 50.25 12.89C50.07 12.27 49.37 9.97 48.99 9.62C48.44 9.1 47.79 9.62002 47.82 10.27C47.84 10.7 48.57 12.31 48.75 12.92C49.45 15.34 50.16 18.96 50.19 21.47C50.21 22.9 49.79 22.7 48.58 22.87C47.9 19.65 45.82 16.89 45.25 13.63C48.06 13.58 46.92 12.19 45.78 10.84C45.43 10.42 42.9 8.06002 43.39 7.58002C47.75 7.56002 42.97 3.66001 42.19 2.20001C42.1 2.04001 42.01 1.94998 42.06 1.72998C45.88 1.93998 48.5 5.16999 50.24 8.23999C52.73 12.64 53.24 17.9 52.83 22.88L52.84 22.86Z" fill="#C51C51"/>
<path d="M63.49 13.6802C63.59 13.7702 63.0501 14.4202 62.9501 14.5402C60.8401 17.1102 58.5201 18.7702 56.7301 21.7502C56.5501 22.0402 55.9701 23.4502 55.8901 23.5002C55.7001 23.6202 55.11 23.3202 54.84 23.3802C55.45 20.0902 57.11 16.5702 59.12 13.8902C59.53 13.3402 60.9501 11.9802 61.0401 11.5402C61.1401 11.0202 60.7 10.8002 60.24 10.8702C59.37 10.9902 56.66 15.3002 56.15 16.2402L54.58 19.5202C54.68 18.6002 54.36 17.7202 54.46 16.8102C55.08 11.0002 62.19 3.82017 68.31 4.66017C68.6 4.70017 69.81 4.96019 69.55 5.43019C69.16 6.15019 65.75 7.13023 64.86 7.53023C64.16 7.84023 63.1301 8.55022 64.1601 9.21022C64.8901 9.68022 67.4001 9.00021 65.6601 10.3202C64.8601 10.9302 61.97 12.0302 62.03 13.0602C62.07 13.8902 62.9 13.6502 63.49 13.6702V13.6802Z" fill="#C51C51"/>
<path d="M81.31 66.5001L74.53 68.3C73.69 69.49 75.6299 69.58 76.3599 69.79C76.4899 69.83 76.77 69.7901 76.65 70.0301C76.43 70.4701 72.47 71.85 71.73 72.16C71.25 72.37 69 73.2601 70.19 73.9601C70.68 74.2501 71.47 73.9401 71.99 74.2801C70.36 75.4901 68.34 76.7701 66.45 77.5201C66.06 77.6701 65.81 77.8901 65.38 77.7101C65.32 77.6801 64.33 76.91 64.3 76.86C64.21 76.71 64.32 76.5301 64.38 76.3901C65.01 74.9201 67.77 72.0201 69.16 71.1901C69.6 70.9301 72.62 69.8701 71.02 69.1301C70.27 68.7801 67.78 70.51 67.14 71.04C65.58 72.33 64.35 73.9901 63.28 75.7001C63.16 75.9501 62.78 75.52 62.74 75.43C62.53 74.91 63.71 72.5101 64.03 71.9401C67.27 66.2201 75.34 63.3101 81.3 66.5301L81.31 66.5001Z" fill="#C51C51"/>
<path d="M55.75 58.1401C55.81 58.1801 56.43 59.1501 56.51 59.3101C57.22 60.7001 57.4 62.2202 57.37 63.7702C57.37 64.1602 57.1 64.4602 57.31 64.9002C57.6 65.5402 60.14 65.8201 60.83 65.9701C60.7 66.1701 60.6 67.1201 60.56 67.1601C60.51 67.2101 59.28 67.1602 59.05 67.1502C58.22 67.0802 56.43 66.5001 55.86 66.5101C54.79 66.5301 53.38 67.5901 51.86 67.5701C51.03 67.5601 47.61 66.5102 47.19 65.8402C46.92 65.4002 47.99 63.7801 48.29 63.3501C49.44 61.7001 51.49 59.9602 53.28 59.0302C53.64 58.8402 55.49 58.0002 55.74 58.1502L55.75 58.1401Z" fill="#A50F39"/>
<path d="M35.15 141.12C34.99 140.22 36.74 140.14 36.95 139.79C37.07 139.6 37.08 139.05 36.89 138.91C35.94 138.25 33.97 140.68 33.42 140.18C33.4 139.72 33.91 139.44 34.26 139.22C35.44 138.49 36.85 137.97 38.07 137.17C40.19 135.78 41.98 133.96 42.07 131.26C43.59 131.31 45.02 130.57 46.46 130.39C47.17 131.58 48.98 133.86 48.69 135.29C48.34 136.99 43.99 137.94 42.51 138.69C41.76 139.07 41.05 139.68 40.29 140.07C38.7 140.89 36.93 141.18 35.15 141.11V141.12Z" fill="#B1611D"/>
<path d="M40.2001 57.4501C40.2001 57.4501 40.23 57.6801 40.33 57.7801C42.42 59.9601 44.0501 62.5101 44.5701 65.5501C39.5501 68.4801 35.3901 64.3801 38.5401 59.3301C38.8301 58.8601 39.5401 57.94 39.9101 57.54C40.0001 57.45 40.1 57.3801 40.18 57.4601L40.2001 57.4501Z" fill="#A50F39"/>
<path d="M54.1701 24.7201C56.9301 25.6401 59.35 28.0301 59.83 30.9701C59.89 31.3101 60.1201 33.7901 60.0201 33.9001C59.98 33.9401 59.01 34.0401 58.83 34.0401C58.75 29.5801 55.6101 26.9101 51.3801 26.3201C51.4501 25.9201 51.1801 26.0601 50.9201 26.0501C50.2801 26.0201 49.6301 26.0701 48.9901 26.0501C48.9701 26.2001 49.1201 26.1701 49.1201 26.1801C49.1101 26.3501 46.2701 26.9401 45.7601 27.1401C45.1301 27.3901 44.5601 27.7901 43.9301 28.0401C44.9001 26.5001 46.33 25.3301 48.05 24.7201C48.17 24.9701 48.4801 24.7701 48.6601 24.7301C49.8201 24.4701 50.9001 24.3501 52.1001 24.4501C52.7601 24.5101 53.5301 24.9101 54.1601 24.7101L54.1701 24.7201Z" fill="#A50F39"/>
<path d="M17.2 34.8401C18.55 34.6001 19.57 33.6801 20.58 32.8401C20.79 33.3001 21.96 34.95 21.97 35.3C22 36.09 20.28 36.9001 19.64 37.0901C19.2 37.2201 18.13 37.5701 17.88 37.1401C17.75 36.9301 17.11 34.9501 17.2 34.8401Z" fill="#B0601C"/>
<path d="M41.5501 129.81C41.4801 129.4 40.2801 127.48 40.4701 127.29C42.1901 127.5 43.5701 126.59 45.0401 126.07C45.1601 126.03 45.2101 125.87 45.3301 126.09C45.6101 126.59 45.6001 128.13 45.8701 128.76C44.5201 129.43 43.0301 129.64 41.5501 129.81Z" fill="#A50F39"/>
<path d="M7.88004 26.72C6.32004 26.38 4.61002 25.69 3.18002 24.97C2.66002 24.71 1.90002 24.44 1.77002 23.79C2.19002 23.92 2.65002 23.9001 3.08002 24.0101C3.68002 24.1801 5.64004 24.9801 6.20004 25.2801C6.76004 25.5801 7.38004 26.3101 7.89005 26.7101L7.88004 26.72Z" fill="#B1611D"/>
<path d="M43.2701 43.75C42.2301 41.43 42.2101 38.87 42.4701 36.37C42.5101 35.98 42.7701 33.87 43.0001 33.77C42.8201 35.89 42.4601 37.95 42.6001 40.09L43.2701 43.74V43.75Z" fill="#B1611D"/>
<path d="M54.1701 24.72C53.5401 24.92 52.77 24.5101 52.11 24.4601C50.91 24.3501 49.8301 24.48 48.6701 24.74C48.4901 24.78 48.1701 24.97 48.0601 24.73C50.0601 24.02 52.1701 24.06 54.1801 24.73L54.1701 24.72Z" fill="#C51C51"/>
<path d="M74.13 93.76C74.24 93.82 74.48 93.62 74.4 94.02C72.48 95.01 69.88 95.6 67.75 95.09C67.89 94.84 68.23 94.97 68.44 94.99C70.22 95.17 71.84 94.91 73.5 94.25C73.72 94.16 74.2 94.09 74.13 93.75V93.76Z" fill="#C51C51"/>
<path d="M38.48 95.2302C36.5 95.8302 33.95 95.6302 32.23 94.4302C33.25 94.8102 34.3 95.1602 35.37 95.3502L38.48 95.2302Z" fill="#C51C51"/>
<path d="M39.01 90.4402C39.08 90.8402 38.81 90.7002 38.55 90.7102C37.19 90.7602 35.97 90.4902 34.62 90.4402C34.7 90.3702 34.68 90.1902 34.95 90.1702C36.35 90.4802 37.6 90.5902 39.01 90.4402Z" fill="#C51C51"/>
<path d="M21.18 38.1602C21.25 38.4902 20.77 38.5802 20.55 38.6602C19.99 38.8602 19.37 38.9902 18.78 39.0902C19.06 39.9702 19.3 40.8802 19.58 41.7502C18.98 41.0002 18.89 39.8502 18.52 38.9602C19.44 38.8002 20.32 38.5302 21.18 38.1602Z" fill="#B1611D"/>
<path d="M48.05 97.76C46.81 98.29 44.62 98.38 43.39 97.83C43.12 97.71 43.08 97.55 42.99 97.5C44.61 98.26 46.34 98.04 48.05 97.77V97.76Z" fill="#C51C51"/>
<path d="M61.49 63.5701L61.36 64.5001L59.02 63.97C58.96 63.9 58.98 63.7901 58.96 63.7001L61.15 64.2401C61.21 63.9701 61.37 63.7901 61.49 63.5701Z" fill="#B1611D"/>
<path d="M58.9601 62.9001C58.9001 62.0501 58.7901 61.2201 58.6901 60.3701C58.9601 61.1701 59.3601 62.0301 58.9601 62.9001Z" fill="#B1611D"/>
<path d="M49.1201 26.1903C49.1201 26.1903 48.9601 26.2103 48.9901 26.0603C49.6301 26.0803 50.2801 26.0303 50.9201 26.0603C51.1801 26.0703 51.4501 25.9203 51.3801 26.3303C50.6201 26.2203 49.9001 26.1403 49.1201 26.2003V26.1903Z" fill="#C51C51"/>
<path d="M86.23 41.8801C84.39 42.8401 82.17 44.1201 80.27 44.9001C80.11 44.9601 79.83 45.2501 79.71 44.9401C81.95 44.0601 83.95 42.6801 86.23 41.8801Z" fill="#B1611D"/>
<path d="M45.13 33.5002C44.94 33.6502 44.66 33.5302 44.38 33.6102C43.74 33.7802 44.05 33.9003 43.26 33.7703C44.09 33.7103 44.28 33.1902 45.12 33.5002H45.13Z" fill="#B1611D"/>
<path d="M49.2501 97.4901C48.7601 97.6601 48.7201 97.6701 48.1901 97.7601C48.4301 97.6001 49.0701 97.2601 49.2501 97.4901Z" fill="#C51C51"/>
<path d="M41.6701 56.6501C41.6701 56.6501 41.43 56.5601 41.41 56.4501C41.35 56.2301 41.6101 56.2001 41.6701 56.1201V56.6501Z" fill="#B1611D"/>
<path d="M74.0001 93.63C73.8601 93.55 73.6701 93.69 73.6001 93.23C73.7301 93.35 73.9301 93.41 74.0001 93.63Z" fill="#C51C51"/>
<path d="M16.66 33.3702C16.91 32.9802 17.23 32.9202 17.21 32.3702C17.15 31.1302 15.96 32.2302 15.41 32.4402C14.63 32.7302 13.5 32.9403 12.65 33.1403C11.15 33.5003 9.55002 33.9003 8.02002 33.8903C8.26002 33.5003 8.72004 33.1402 9.13004 32.9402C9.75004 32.6302 12.86 31.9703 12.16 30.9003C11.59 30.0303 10.52 30.9503 9.93002 31.0803C9.15002 31.2403 7.45003 30.8002 6.62003 30.6002C5.33003 30.2802 3.85004 29.9102 2.98004 28.8502C4.45004 29.1702 6.36003 30.1302 7.84003 30.1802C8.40003 30.2002 8.95005 29.8402 8.64005 29.2402C8.50005 28.9602 6.08004 28.4003 5.54004 28.2103C4.35004 27.7903 2.71004 27.2002 1.92004 26.2402C3.00004 26.3502 3.94003 27.0003 4.94003 27.3403C5.73003 27.6103 8.15002 28.3902 8.83002 28.1002C8.94002 28.0502 9.03004 27.8402 9.20004 27.7902C9.96004 27.5602 11.1 28.9102 11.76 28.5002C12.05 28.3202 12.41 27.5502 12.17 27.1902C12.06 27.0202 10.15 26.2603 9.73004 26.0103C8.47004 25.2603 7.10003 24.0003 6.31003 22.7803C8.10003 23.1903 9.59004 24.3802 11.23 25.1802C14.32 26.7002 18.26 27.3802 19.64 31.0002C19.88 31.6302 19.48 31.9002 19.01 32.2902C18.38 32.8302 17.52 33.2602 16.68 33.3602L16.66 33.3702Z" fill="#B1611D"/>
<path d="M21.3201 38.1602L22.2501 37.4902C21.8801 37.8102 21.8401 37.9202 21.3201 38.1602Z" fill="#B1611D"/>
<path d="M67.48 94.9602C67.4 94.9502 67.29 94.9802 67.21 94.9602L67.28 94.8302C67.41 94.7802 67.45 94.9502 67.48 94.9602Z" fill="#C51C51"/>
<path d="M73.4601 93.1002C73.4601 93.1002 73.3701 93.0102 73.3301 92.9702L73.4601 93.1002Z" fill="#C51C51"/>
<path d="M85.44 141.39C85.34 141.3 86.3 139.27 86.36 138.79C86.55 137.32 86.12 135.9 85.55 134.56C83.79 130.4 82.15 128.25 78.71 125.43C73.06 120.8 65.19 116.25 61.3 110.12C58.99 106.48 57.01 102.49 54.97 98.6901C58.69 100.14 62.67 99.1001 65.03 95.8801C65.18 95.8601 66.93 96.5701 67.01 96.6901C67.12 96.8601 67.74 100.12 67.84 100.65C68.27 102.99 68.37 105.41 69.21 107.67C72.72 110.82 76.14 114.05 79.05 117.78C80.87 120.11 83.15 124.06 85.26 125.94C86.37 126.94 88.33 127.23 89.3 128.55C90.11 129.65 90.15 132.18 90.39 133.58C90.8 136.04 91.95 138.99 90.17 141.12C90.33 140.51 90.31 139.53 89.48 139.89C88.74 140.21 88.84 141.72 87.78 141.67C86.72 141.62 88.01 140.53 87.66 140.05C87.44 139.75 86.82 139.91 86.59 140.2C86.47 140.35 85.88 141.79 85.46 141.39H85.44Z" fill="#B1611D"/>
<path d="M47.16 80.0301C46.8 79.6901 46.7 78.28 47.05 77.93C48.14 76.83 48.81 79.94 47.96 80.18C47.74 80.24 47.33 80.1901 47.16 80.0301Z" fill="#040702"/>
<path d="M49.78 45.8702C48.86 45.9502 47.98 45.7502 47.12 45.4702C46.28 44.9702 44.19 42.9702 45.39 42.0802C45.98 41.6502 47.29 42.2602 48.08 42.2402C49.84 42.1902 53.93 39.3902 52.77 43.3402C52.36 44.7402 51.14 45.5202 49.78 45.8702ZM47.26 43.8802C47.37 44.0102 48.32 44.3502 48.56 44.3802C49.72 44.5502 51.24 44.1402 51.38 42.8202C50.19 43.3102 49.12 43.6202 47.83 43.7002C47.73 43.7002 46.93 43.4902 47.26 43.8802Z" fill="#040702"/>
<path d="M46.5901 39.0902C46.5901 39.0902 46.0701 39.3402 46.5401 39.4702C47.1201 39.6302 47.9701 39.3302 48.5801 39.6202C48.7801 39.8302 48.9701 39.7602 48.9901 40.2202C49.0001 40.4402 48.8501 40.9502 48.6401 40.9502H46.5101C46.0701 40.9502 45.0501 40.3602 44.9101 39.8902C44.4401 38.3902 45.9501 37.6102 46.4301 36.4802C46.6801 35.9102 46.6101 34.8102 47.6801 35.1202C48.5601 35.3802 48.2801 36.3802 47.9601 36.9502C47.5401 37.7202 46.9701 38.2702 46.5701 39.0902H46.5901Z" fill="#040702"/>
<path d="M52.9801 32.4402C53.0501 32.4702 53.1701 32.5302 53.2501 32.5702C53.5101 32.7102 53.77 32.8501 54.05 32.9701C54.35 33.3101 54.7001 33.8402 54.2801 34.2702C53.7901 34.7602 52.9001 33.8702 52.2401 33.7802C51.6201 33.7002 50.8301 34.0002 50.4101 33.8802C50.1801 33.8102 50.16 33.6102 50.05 33.5002V32.9701C50.14 32.8701 50.2301 32.6402 50.3201 32.5702C51.2201 32.2502 52.0501 32.2502 52.9801 32.4402Z" fill="#040702"/>
<path d="M51.08 36.06C52.84 35.68 52.83 37.82 51.33 37.62C50.41 37.5 50.25 36.24 51.08 36.06Z" fill="#040702"/>
<path d="M44.0301 35.6601C45.7801 35.2601 45.3501 37.6501 43.9301 37.1701C43.2601 36.9401 43.2901 35.8301 44.0301 35.6601Z" fill="#040702"/>
<path d="M52.9801 32.4401C52.0501 32.2501 51.2201 32.2501 50.3201 32.5701C51.0701 32.0201 51.8401 31.9201 52.7201 32.2301C52.8801 32.2901 52.9401 32.4201 52.9801 32.4301V32.4401Z" fill="#B1611D"/>
<path d="M46.5901 39.0901C47.0401 39.6201 47.9601 39.22 48.5001 39.35C48.6601 39.39 48.5601 39.6001 48.5801 39.6201C47.9601 39.3201 47.1101 39.62 46.5401 39.47C46.0701 39.34 46.5701 39.1301 46.5901 39.0901Z" fill="#B1611D"/>
<path d="M49.78 45.8702C48.71 46.1402 48.06 46.0302 47.12 45.4702C47.98 45.7502 48.86 45.9502 49.78 45.8702Z" fill="#B1611D"/>
<path d="M50.05 32.9702V33.5002C50.05 33.5002 49.82 33.6502 49.78 33.3102C49.72 32.8102 50.02 33.0102 50.05 32.9702Z" fill="#B1611D"/>
<path d="M54.04 32.9702C53.77 32.8502 53.51 32.7102 53.24 32.5702L53.31 32.4402C53.62 32.5202 53.83 32.7402 54.04 32.9702Z" fill="#B1611D"/>
<path d="M47.26 43.8801C46.93 43.4901 47.73 43.7101 47.83 43.7001C49.12 43.6201 50.19 43.3101 51.38 42.8201C51.23 44.1401 49.71 44.5501 48.56 44.3801C48.33 44.3501 47.37 44.0101 47.26 43.8801Z" fill="#FBFAF8"/>
</svg>
