<svg width="55" height="84" viewBox="0 0 55 84" fill="none" xmlns="http://www.w3.org/2000/svg">
<path d="M11.37 79.4699C9.91996 78.0399 9.34 76.34 9.52999 74.2999C11.3 65.6799 13.38 57.1199 15.06 48.4799C15.01 48.2199 14.25 47.75 14.01 47.52C7.66998 41.57 4.37996 29.66 2.17996 21.39C1.31996 18.16 -0.620037 11.7799 0.309963 8.66994C1.70996 3.96994 9.57995 2.18993 13.8 1.40993C22.26 -0.150066 32.32 -0.150047 40.78 1.42995C45.45 2.29995 53.8699 4.24994 54.3499 10.0399C54.6399 13.5799 52.74 19.68 51.74 23.21C49.49 31.2 46.37 41.96 40.2 47.71C39.99 47.9 39.37 48.2499 39.33 48.4799C41.04 57.1499 43.09 65.75 44.87 74.4C45.5 80.91 36.9099 83.12 31.9099 83.7C26.1399 84.37 15.7199 83.7999 11.3499 79.4699H11.37ZM13.34 3.96993C10.67 4.49993 7.22996 5.33995 4.92996 6.79995C2.97996 8.02995 2.22994 9.24999 4.40994 10.84C5.90994 11.93 8.11998 12.65 9.88998 13.15C16.13 14.91 22.79 15.1799 29.25 15.1599L31.49 14.96C31.87 14.96 32.26 14.96 32.64 14.96C34.3 14.93 36.27 14.6899 37.93 14.4699C41.42 14.0099 48.2 12.81 50.61 10.18C50.6399 10.15 50.68 10.12 50.71 10.08C50.81 9.95998 50.96 9.87998 51.02 9.76998C51.44 9.02998 51.33 8.59994 50.8 7.97994C50.77 7.94994 50.74 7.91997 50.7 7.87997C49.25 6.27997 46.8399 5.44994 44.7899 4.84994C41.3499 3.83994 36.11 2.92993 32.53 2.90993C32.5 2.90993 32.47 2.90993 32.43 2.90993C32.05 2.97993 31.69 2.82996 31.33 2.80996C25.45 2.51996 19.09 2.81998 13.3 3.95998L13.34 3.96993ZM51.87 12.38C48.35 15.02 43.68 16.0299 39.38 16.6699C31.45 17.8399 21.62 17.8799 13.7 16.4699C9.82998 15.7799 5.70998 14.7299 2.57998 12.2899C2.51998 14.0799 3.16995 15.04 4.66995 15.94C10.7999 19.63 23.8999 20.3 30.9799 19.94C35.6999 19.71 47.5399 18.4599 50.9099 15.1099C51.6999 14.3299 51.67 13.41 51.86 12.38H51.87ZM10.18 20.51C8.84996 20.16 7.50995 19.76 6.22995 19.24C5.34995 18.8899 4.51995 18.43 3.66995 18.02L5.91995 25.76L10.1699 20.5L10.18 20.51ZM50.7199 18.12L48 19.3599C46.76 19.7899 45.5199 20.26 44.2199 20.51L48.4799 25.6699L50.7299 18.12H50.7199ZM25.0999 22.4199C21.4799 22.2499 17.87 21.88 14.3 21.27L18.84 31.4L25.0999 22.4099V22.4199ZM40.11 21.37L32.89 22.2299L29.21 22.33L35.43 31.4099L35.63 31.3499L40.12 21.37H40.11ZM16.3 31.51L11.95 22.0499L7.03 28.07C9.79 29.96 13.09 30.77 16.3 31.51ZM47.2199 27.84C45.8499 26.06 44.18 24.06 42.69 22.38C42.63 22.32 42.36 22.0099 42.31 22.0399L38.0999 31.5C41.3299 30.82 44.6 29.88 47.37 28.06C47.45 27.82 47.2599 27.9 47.2199 27.84ZM33.32 32.37L27.25 23.6699L21.08 32.2299C23.62 32.6399 26.21 32.6599 28.78 32.6699L33.32 32.38V32.37ZM9.61996 36.4699C12.19 35.9099 14.28 36.25 16.56 37.51C18.37 38.52 19.45 39.87 21.76 39.39C23.86 38.96 25.5 37.3599 27.76 36.9699C32.27 36.1899 34.72 39.76 38.43 39.33C39.95 39.15 41.4 37.61 42.75 36.96C43.17 36.76 44.59 36.42 44.74 36.28C45.01 36.02 45.81 33.85 46.01 33.34C46.12 33.05 46.87 31.12 46.8 31.02C44.44 32.25 41.86 33.01 39.27 33.57C30.76 35.41 20.4699 35.2599 12.0999 32.7899C10.5299 32.3299 9.03998 31.69 7.50998 31.12L9.61996 36.46V36.4699ZM43.46 39.25C42.18 39.91 41.18 40.8999 39.78 41.3599C34.9 42.9399 32.3099 38.52 28.0399 39.28C25.8299 39.67 24 41.54 21.8 41.74C18.57 42.03 17.54 40.72 15.03 39.33C13.72 38.61 12.1099 38.2699 10.6599 38.7299C12.2599 42.0499 14.71 45.86 18.15 47.49C22.37 49.49 31.59 49.53 35.87 47.68C38.6 46.5 40.6099 44.1 42.1599 41.63C42.3199 41.38 43.55 39.35 43.46 39.25ZM21.6599 51.01C20.9399 50.87 20.14 50.7 19.44 50.5C18.67 50.28 17.9299 49.92 17.1699 49.76L14.9199 60.8499C15.0399 61.0999 17.05 61.92 17.43 62.07C23.27 64.25 30.9299 64.2599 36.7899 62.1699C37.7699 61.8199 38.69 61.37 39.63 60.94L37.24 49.76L34.37 50.7199C34.28 50.7299 34.16 50.6999 34.08 50.7199C33.96 50.7499 33.93 50.8 33.89 50.82L33.13 51.01C33.13 51.01 33.07 51.01 33.03 51.01C32.83 51.03 32.6099 50.99 32.4099 51.01L29.4 51.39C29.34 51.39 29.27 51.39 29.21 51.39C27.97 51.41 26.7199 51.41 25.4799 51.39C25.4199 51.39 25.3499 51.39 25.2899 51.39L21.6599 51.01ZM40.21 63.25C39.07 63.64 37.98 64.21 36.82 64.59C31.51 66.34 24.15 66.45 18.78 64.94C17.23 64.51 15.73 63.9 14.31 63.15L13.55 66.63C15.24 67.92 17.4 68.73 19.45 69.25C23.91 70.37 29.13 70.4299 33.64 69.5399C36.19 69.0399 38.66 68.13 40.88 66.78L40.2199 63.26L40.21 63.25ZM25.39 81.51C26.56 81.55 27.86 81.55 29.02 81.51C31.87 81.41 34.97 80.94 37.65 79.96C39.87 79.14 42.53 77.72 42.7 75.07L41.45 69.28C41.35 69.21 39.46 70.16 39.15 70.28C37.41 70.98 35.6 71.46 33.8 71.96L32.84 72.15C32.84 72.15 32.78 72.15 32.74 72.15C32.58 72.17 32.42 72.13 32.26 72.15C32.23 72.15 32.1999 72.15 32.1599 72.15C31.2999 72.24 30.46 72.4 29.58 72.44C29.48 72.44 29.3899 72.44 29.2899 72.44C28.2099 72.48 27.02 72.48 25.94 72.44C25.84 72.44 25.75 72.44 25.65 72.44C24.92 72.41 24.18 72.32 23.45 72.25C20.48 71.95 17.63 71.2999 14.88 70.1599C14.62 70.0499 12.94 69.18 12.84 69.28C12.79 71.11 11.81 73.1 11.7 74.89C11.57 77.16 13.92 78.72 15.74 79.53C18.6 80.81 22.24 81.41 25.37 81.52L25.39 81.51Z" fill="#020100"/>
<path d="M32.46 2.92004C32.46 2.92004 32.52 2.92004 32.56 2.92004C32.51 3.21004 32.71 3.10004 32.89 3.11004C37.24 3.26004 47.6599 4.73007 50.7299 7.89007C50.7599 7.92007 50.8 7.95005 50.83 7.99005C51.32 8.79005 51.0999 9.32008 50.7299 10.0901C50.6999 10.1201 50.66 10.1501 50.63 10.1901C48.39 12.0101 45.4 12.8901 42.62 13.5101C39.58 14.1801 36.0999 14.6901 32.9899 14.7801C32.8099 14.7801 32.6099 14.68 32.6599 14.97C32.2799 14.97 31.89 14.97 31.51 14.97C24.3 15.13 17.4199 14.8001 10.3599 13.1201C10.2199 13.0901 9.98998 12.9801 9.89998 13.1501C8.12998 12.6501 5.90994 11.9301 4.41994 10.8401C2.23994 9.25008 2.98996 8.03005 4.93996 6.80005C7.23996 5.35005 10.6799 4.50003 13.3499 3.97003C13.4399 4.15003 13.68 4.04008 13.83 4.02008C20.33 3.06008 25.9399 2.85004 32.4699 2.92004H32.46Z" fill="#FDBF07"/>
<path d="M21.6599 51.01C22.9399 51.26 24.0199 51.36 25.2899 51.39C25.3499 51.39 25.4199 51.39 25.4799 51.39C25.5799 51.55 25.8399 51.49 25.9999 51.49C26.8899 51.5 27.7899 51.49 28.6799 51.49C28.8399 51.49 29.11 51.55 29.2 51.39C29.26 51.39 29.33 51.39 29.39 51.39C29.79 51.39 30.32 51.43 30.78 51.39C31.53 51.33 32.3 51.19 33.03 51.01C33.06 51.01 33.0899 51.01 33.1299 51.01C33.4899 50.97 33.58 50.93 33.89 50.82C33.93 50.81 33.97 50.75 34.08 50.72C34.1 50.88 34.3099 50.84 34.3699 50.72L37.2399 49.76L39.6299 60.94C38.6899 61.37 37.7699 61.82 36.7899 62.17C30.9299 64.26 23.2699 64.25 17.4299 62.07C17.0399 61.93 15.0399 61.1 14.9199 60.85L17.1699 49.76C17.9399 49.92 18.6699 50.28 19.4399 50.5C20.1399 50.7 20.9399 50.86 21.6599 51.01Z" fill="#A12113"/>
<path d="M23.4699 72.2399C23.4199 72.5299 23.6199 72.4199 23.7999 72.4299C24.4099 72.4599 25.0999 72.6399 25.6699 72.4299C25.7699 72.4299 25.8599 72.4299 25.9599 72.4299C25.9099 72.7199 26.1099 72.6099 26.2899 72.6199C27.1499 72.6499 28.1099 72.6499 28.9799 72.6199C29.1599 72.6199 29.3599 72.7199 29.3099 72.4299C29.4099 72.4299 29.4999 72.4299 29.5999 72.4299C30.2899 72.6599 31.1499 72.45 31.8499 72.34C32.0299 72.31 32.2299 72.45 32.1799 72.15C32.2099 72.15 32.2399 72.15 32.2799 72.15C32.3399 72.3 32.6999 72.3 32.7599 72.15C32.7899 72.15 32.8199 72.15 32.8599 72.15C33.2999 72.11 33.4099 72.07 33.8199 71.96C35.6199 71.47 37.4399 70.99 39.1699 70.28C39.4799 70.16 41.3699 69.21 41.4699 69.28L42.7199 75.0699C42.5599 77.7299 39.8899 79.15 37.6699 79.96C34.9899 80.94 31.8899 81.4199 29.0399 81.5099C28.9399 81.3499 28.6799 81.4099 28.5199 81.4099C27.6599 81.3999 26.7999 81.4099 25.9399 81.4099C25.7799 81.4099 25.5099 81.3499 25.4199 81.5099C22.2999 81.3999 18.6499 80.7899 15.7899 79.5199C13.9699 78.7099 11.6199 77.1499 11.7499 74.8799C11.8499 73.0999 12.8299 71.0999 12.8899 69.2699C12.9899 69.1699 14.6699 70.04 14.9299 70.15C17.6899 71.29 20.5399 71.9399 23.4999 72.2399H23.4699Z" fill="#A12113"/>
<path d="M43.46 39.25C43.55 39.35 42.3199 41.38 42.1599 41.63C40.6099 44.1 38.6099 46.5 35.8699 47.68C31.5899 49.53 22.37 49.49 18.15 47.49C14.71 45.86 12.2599 42.0499 10.6599 38.7299C12.1099 38.2699 13.72 38.61 15.03 39.33C17.54 40.72 18.5699 42.02 21.7999 41.74C23.9999 41.54 25.8299 39.67 28.0399 39.28C32.2999 38.52 34.9 42.94 39.78 41.36C41.18 40.91 42.18 39.91 43.46 39.25Z" fill="#FCC007"/>
<path d="M9.62 36.47L7.51001 31.13C9.04001 31.7 10.53 32.34 12.1 32.8C20.47 35.28 30.76 35.42 39.27 33.58C41.87 33.02 44.44 32.25 46.8 31.03C46.88 31.13 46.12 33.06 46.01 33.35C45.82 33.86 45.01 36.02 44.74 36.29C44.59 36.44 43.16 36.77 42.75 36.97C41.39 37.62 39.94 39.16 38.43 39.34C34.72 39.77 32.27 36.21 27.76 36.98C25.5 37.37 23.86 38.97 21.76 39.4C19.45 39.88 18.37 38.53 16.56 37.52C14.28 36.25 12.19 35.92 9.62 36.48V36.47Z" fill="#BE2C1D"/>
<path d="M51.8699 12.3801C51.6799 13.4101 51.6999 14.32 50.9199 15.11C47.5499 18.46 35.7099 19.7101 30.9899 19.9401C23.8999 20.2901 10.8099 19.6201 4.67989 15.9401C3.18989 15.0401 2.52992 14.08 2.58992 12.29C5.71992 14.73 9.83992 15.78 13.7099 16.47C21.6199 17.88 31.4499 17.84 39.3899 16.67C43.6899 16.04 48.3599 15.0201 51.8799 12.3801H51.8699Z" fill="#FCC007"/>
<path d="M40.21 63.2499L40.8699 66.7699C38.6499 68.1199 36.1799 69.0199 33.6299 69.5299C29.1199 70.4199 23.8999 70.3699 19.4399 69.2399C17.3899 68.7199 15.2299 67.9099 13.5399 66.6199L14.2999 63.1399C15.7199 63.8899 17.22 64.4999 18.77 64.9299C24.15 66.4299 31.5099 66.3199 36.8099 64.5799C37.9699 64.1999 39.06 63.6299 40.2 63.2399L40.21 63.2499Z" fill="#FCC007"/>
<path d="M33.3199 32.3699L28.78 32.6599C26.21 32.6599 23.62 32.6299 21.08 32.2199L27.2499 23.6599L33.3199 32.3599V32.3699Z" fill="#FCC007"/>
<path d="M40.1099 21.3699L35.6199 31.3499L35.4299 31.4099L29.21 22.3299L32.89 22.2299L40.1099 21.3699Z" fill="#BE2C1D"/>
<path d="M25.0999 22.42L18.84 31.41L14.2999 21.28C17.8699 21.89 21.4799 22.25 25.0999 22.43V22.42Z" fill="#BE2C1D"/>
<path d="M16.3 31.5098C13.08 30.7698 9.78003 29.9498 7.03003 28.0698L11.95 22.0498L16.3 31.5098Z" fill="#FCC007"/>
<path d="M47.2199 27.8401C47.2699 27.9001 47.4499 27.8301 47.3699 28.0601C44.5899 29.8901 41.3299 30.8201 38.0999 31.5001L42.3099 22.04C42.3099 22.04 42.6299 22.3101 42.6899 22.3801C44.1799 24.0601 45.8599 26.0601 47.2199 27.8401Z" fill="#FCC007"/>
<path d="M10.1799 20.51L5.92993 25.77L3.67993 18.03C4.52993 18.44 5.35993 18.9 6.23993 19.25C7.51993 19.77 8.85994 20.16 10.1899 20.52L10.1799 20.51Z" fill="#BE2C1D"/>
<path d="M50.7199 18.1199L48.4699 25.6699L44.21 20.5099C45.51 20.2699 46.7499 19.7999 47.9899 19.3599L50.71 18.1199H50.7199Z" fill="#BE2C1D"/>
<path d="M31.5099 14.97L29.27 15.1701C22.81 15.1901 16.1499 14.9201 9.90991 13.1601C9.99991 12.9801 10.2299 13.0901 10.3699 13.1301C17.4299 14.8101 24.3 15.1401 31.52 14.9801L31.5099 14.97Z" fill="#FCC007"/>
<path d="M32.46 2.91999C25.93 2.84999 20.3199 3.07003 13.8199 4.02003C13.6699 4.04003 13.44 4.14998 13.34 3.96998C19.12 2.82998 25.4799 2.53002 31.3699 2.82002C31.7299 2.84002 32.0899 2.98999 32.4699 2.91999H32.46Z" fill="#FCC007"/>
<path d="M32.6499 14.9699C32.5999 14.6799 32.7999 14.78 32.9799 14.78C36.0899 14.68 39.5699 14.1799 42.6099 13.5099C45.3999 12.8899 48.3899 12.0099 50.6199 10.1899C48.2099 12.8199 41.4299 14.0199 37.9399 14.4799C36.2799 14.6999 34.3099 14.9399 32.6499 14.9699Z" fill="#FCC007"/>
<path d="M32.5599 2.91992C36.1399 2.93992 41.3799 3.84992 44.8199 4.85992C46.8599 5.45992 49.2799 6.28995 50.7299 7.88995C47.6599 4.72995 37.2399 3.25992 32.8899 3.10992C32.7099 3.10992 32.5099 3.20992 32.5599 2.91992Z" fill="#FCC007"/>
<path d="M29.3099 72.4299C29.3599 72.7199 29.1599 72.6199 28.9799 72.6199C28.1199 72.6499 27.1499 72.6499 26.2899 72.6199C26.1099 72.6199 25.9099 72.7199 25.9599 72.4299C27.0399 72.4699 28.2299 72.4699 29.3099 72.4299Z" fill="#BE2C1D"/>
<path d="M33.0399 51.0099C32.3099 51.1899 31.5399 51.3299 30.7899 51.3899C30.3399 51.4299 29.81 51.3899 29.4 51.3899L32.4099 51.0099C32.6099 50.9799 32.83 51.0299 33.03 51.0099H33.0399Z" fill="#BE2C1D"/>
<path d="M25.2899 51.39C24.0199 51.36 22.9299 51.26 21.6599 51.01L25.2899 51.39Z" fill="#BE2C1D"/>
<path d="M32.1799 72.1399C32.2299 72.4399 32.0299 72.2999 31.8499 72.3299C31.1499 72.4399 30.2799 72.6499 29.5999 72.4199C30.4799 72.3799 31.3199 72.2299 32.1799 72.1299V72.1399Z" fill="#BE2C1D"/>
<path d="M29.21 51.3899C29.11 51.5499 28.8499 51.4899 28.6899 51.4899C27.7999 51.4899 26.8999 51.4999 26.0099 51.4899C25.8499 51.4899 25.5799 51.5499 25.4899 51.3899C26.7299 51.4099 27.9799 51.4099 29.2199 51.3899H29.21Z" fill="#BE2C1D"/>
<path d="M29.02 81.51C27.85 81.55 26.55 81.55 25.39 81.51C25.49 81.35 25.7499 81.4099 25.9099 81.4099C26.7699 81.4099 27.6299 81.3999 28.4899 81.4099C28.6499 81.4099 28.9199 81.35 29.0099 81.51H29.02Z" fill="#BE2C1D"/>
<path d="M25.6699 72.43C25.0999 72.64 24.4099 72.46 23.7999 72.43C23.6199 72.42 23.4199 72.53 23.4699 72.24C24.1999 72.31 24.9399 72.4 25.6699 72.43Z" fill="#BE2C1D"/>
<path d="M50.8199 7.98999C51.3499 8.60999 51.4599 9.04003 51.0399 9.78003C50.9799 9.89003 50.8299 9.97003 50.7299 10.09C51.0999 9.32003 51.31 8.78999 50.83 7.98999H50.8199Z" fill="#FCC007"/>
<path d="M33.7999 71.95C33.3899 72.06 33.29 72.1 32.84 72.14L33.7999 71.95Z" fill="#BE2C1D"/>
<path d="M32.7499 72.1401C32.6899 72.2901 32.33 72.2901 32.27 72.1401C32.43 72.1201 32.5899 72.1601 32.7499 72.1401Z" fill="#BE2C1D"/>
<path d="M33.9 50.8198C33.58 50.9298 33.49 50.9698 33.14 51.0098L33.9 50.8198Z" fill="#BE2C1D"/>
<path d="M34.3699 50.7199C34.3099 50.8399 34.1 50.8799 34.08 50.7199C34.16 50.6999 34.2799 50.7299 34.3699 50.7199Z" fill="#BE2C1D"/>
</svg>
