<svg width="105" height="177" viewBox="0 0 105 177" fill="none" xmlns="http://www.w3.org/2000/svg">
<path d="M15.63 111.12C15.51 111.09 15.2 110.65 15.15 110.5C14.84 109.51 16.44 107.13 17.05 106.29C18.53 104.24 20.22 102.87 22.42 101.66C22.72 101.5 23.7 101.37 22.99 101.1C21.89 100.69 19.4799 101.06 20.3199 99.0899C20.3699 98.9699 21.45 97.9099 21.64 97.7599C24.62 95.3099 28.68 94.5799 32.43 95.1799C32.48 94.3999 32.08 93.54 31.68 92.88C31.1 91.92 30.07 91.6799 30.25 90.4199C30.5 88.7199 34.16 89.5799 35.28 89.8999C38.09 90.7099 40.36 92.7499 42.43 94.6999C42.63 93.5499 41.7 91.24 41.99 90.27C42.19 89.6199 43.2999 89.66 43.8299 89.6899C42.9899 88.0799 41.98 86.5099 41.64 84.6899C41.49 84.5799 39.2999 86.56 38.7199 86.6899C37.9999 86.85 37.5699 86.6399 37.3199 85.9699C36.5799 83.95 36.94 80.38 37.54 78.32C37.74 77.64 38.82 75.47 38.79 75.1C38.77 74.86 37.47 72.4699 37.24 71.9799C37.11 71.6999 37.0099 71.3999 36.9499 71.0899L34.9 75.8399C33.65 77.5199 32.79 75.78 32.3 74.57C31.23 71.93 31.1899 68.8899 31.4799 66.0899C30.6299 66.4499 29.7499 68.34 29.0899 68.63C27.9799 69.1199 27.6299 67.5799 27.5699 66.7999C27.2599 63.18 28.11 59.2299 29.92 56.0899C27.5 56.3399 23.59 59.4999 24.65 54.6499C25.54 50.6099 29.0599 46.9799 32.7299 45.2999C31.4899 44.38 29.63 44.18 28.12 44.21C27.29 44.23 26.01 44.7799 26.15 43.1899C26.23 42.34 28.65 39.82 29.37 39.21C32.07 36.92 35.58 35.6699 39.13 35.7599C38.17 34.5399 36.9 33.02 35.54 32.24C34.54 31.66 32.3999 31.5199 33.3399 29.8899C33.7099 29.2399 35.34 28.88 36.06 28.71C39.26 27.95 41.9699 28.2099 44.9699 29.5299C46.0499 29.9999 47.0399 31.02 48.1999 30.6C48.2699 30.33 48.0899 30.29 47.9699 30.13C45.9699 27.54 42.71 24.84 39.87 23.2199C38.27 22.3099 36.4899 21.6899 34.9599 20.6199C33.3899 19.5299 30.7499 17.09 32.9599 15.27C34.7399 13.81 36.88 15.52 38.67 16.05C37.05 12.61 35.2299 9.08995 35.0699 5.18995C34.9999 3.42995 35.38 0.489947 37.54 0.139947C39.93 -0.250053 40.5199 2.20995 40.9499 4.00995C41.6199 6.83995 41.8099 9.75995 43.4499 12.3C43.6499 10.45 45.45 6.88995 47.74 8.31995C50.26 9.88995 48.6299 15.5999 48.8399 18.1699C49.1099 21.5899 51.8899 24.9599 54.4699 26.9999C54.2899 26.3699 53.82 25.0699 53.38 24.6099C53.01 24.2299 51.71 23.9599 52.03 22.9299C52.71 20.7499 58.08 22.3299 59.62 22.8599C57.71 20.4399 54.59 18.84 52.75 16.44C51.72 15.1 50.8999 13.1099 52.5999 11.9199C54.5599 10.5499 56.0199 12.2499 57.5899 13.2399C57.4399 12.3299 57.06 11.4899 56.88 10.5899C56.4 8.17994 55.9599 2.92995 57.5899 0.969949C58.4499 -0.0700508 60.09 -0.37005 61.12 0.57995C62.81 2.12995 62.31 7.12995 62.62 9.39995C62.83 10.9699 63.3799 12.4899 63.6999 14.0299L65.0799 11.2699C67.3599 7.07994 71.38 7.98995 70.13 13.1899C69.2 17.08 66.93 19.1699 68 23.7299C68.16 24.4199 69.04 26.77 69.41 27.33C69.64 27.68 70.04 26.8399 70.14 26.6499C70.75 25.5699 71.02 24.4399 70.88 23.1999C70.78 22.2899 69.47 20.11 71.13 19.96C73.67 19.74 77.5299 24.81 77.4599 27.32C77.8299 27.42 77.7199 27.2199 77.8199 27.1199C78.6199 26.2299 79.15 24.5399 80.65 25.3099C83.08 26.5599 82.1399 33.16 80.5899 35.0499C83.5099 36.91 84.82 40.3699 83.76 43.6999C83.52 44.4399 83.05 45.0499 82.78 45.77C85.15 42.7799 89.73 41.99 92.53 44.85C93.18 45.52 93.57 46.7899 93.92 47.1399C94.08 47.2999 94.8 47.53 95.12 47.74C96 48.33 96.6699 49.0299 96.6999 50.1499C99.4399 50.0499 101.07 47.9799 99.1899 45.5399C97.0799 42.8099 94.51 42.12 94.99 37.74C95.27 35.2 97.5699 32.5099 100.33 33.1399C102.38 33.6099 99.85 36.16 99.52 36.96C98.28 39.98 101.76 41.32 103.33 43.27C106.91 47.7099 103.66 54.0399 98.28 54.6399C97.63 54.7099 95.71 54.5199 95.42 54.8999C95.23 55.1399 95.12 57.5499 94.63 58.4799C93.83 60.0099 92.28 60.27 91.77 60.9399C91.5 61.2899 91.19 62.7299 90.88 63.3299C88.58 67.6899 85.99 64.7199 86.06 61.0899C85.5 61.1899 84.1399 60.9099 83.7199 61.1699C83.2399 61.4699 82.0999 63.4799 81.4499 63.91C81.1899 64.2199 82.1 65.5899 82.25 65.6199C82.95 65.7799 83.9 63.3499 84.5 63.66C84.86 63.84 85.5499 64.8599 85.7299 65.2499C85.9999 65.8199 86.33 67.6699 86.4 67.7799C86.54 67.9599 87.4599 67.93 87.7099 68.74C88.0299 69.81 87.6199 72.5499 87.3299 73.6899C87.0399 74.8299 86.18 77.4599 84.61 76.9999C84.18 76.8699 84.2 76.3799 83.87 76.2499C83.34 78.1499 80.07 80.8199 78.13 80.0399C77.36 79.7299 77.5199 78.96 77.4599 78.91C77.3199 78.7599 75.11 80.07 73.91 79.57C71.96 78.78 73.4499 76.0899 74.3399 74.9999C69.7899 76.6199 67.04 71.9199 65.9 68.2799C64.59 68.6599 62.4399 69.16 61.2199 68.35C59.5099 67.22 61.96 66.2099 62.3 65.0899C61.92 64.6499 58.3299 62.0799 58.0899 62.3399C58.4099 67.5799 61.9 71.6899 65.67 74.9999C70.58 79.2999 76.2599 82.7899 80.5899 87.7499C81.5999 88.91 83.0499 91.5599 83.9499 92.3599C84.6199 92.9599 86.03 93.18 86.61 94.07C87.68 93.11 88.88 92.2799 89.78 91.1499C89.51 88.0499 88.56 85.16 90.01 82.16C91.22 79.66 94.44 78.0799 97.15 78.99C100.84 80.2299 95.83 82.38 95.9 84.38C96.87 83.9799 97.7599 83.2899 98.8299 83.1699C100.91 82.9299 103.98 84.6399 104.33 86.8099C104.71 89.1699 102.66 88.1799 101.33 88.4799C100.22 88.7299 98.37 90.9899 98.26 92.1399C98.22 92.5999 98.7399 94.16 99.0699 94.35C99.9299 94.85 103.2 92.42 103.09 95.38C102.92 99.8699 97.41 102.09 94.27 98.77C94.1 98.77 92.58 101.35 92.51 101.69C92.31 102.67 92.72 104.52 92.64 105.73C92.54 107.24 92.0499 108.94 91.4599 110.33C90.6399 112.24 89.7 113.64 88.65 110.8C87.94 111.42 87.13 113 86.03 112.81C85.1 112.65 85.31 111.49 84.74 110.96C82.51 114.69 79.19 117.79 75.28 119.72L79.42 125.97C82.58 122.39 88.2699 120.22 91.5999 124.89C92.3599 125.96 92.9799 128.49 91.9499 129.52C90.8799 130.57 89.9999 129.09 88.9399 128.65C88.5199 128.48 88.07 128.42 87.63 128.32C87.91 128.67 88.3 128.97 88.54 129.36C89.59 131.01 89.97 132.82 89.42 134.72C89.11 135.81 88 137.45 86.75 137.53C85.16 137.64 85.56 135.53 85.13 134.48C84.59 133.14 82.99 132.4 81.63 132.21C81.06 133.3 81.03 134.57 81.63 135.65C82.17 136.64 83.89 137.69 82.02 138.72C78.71 140.54 74.9099 136.45 75.4499 133.16C73.9199 133.85 69.3399 133.25 69.1899 131.2C69.0699 129.52 70.88 129.93 71.54 128.86C69.31 127.19 67.52 125.05 65.77 122.91C65.32 122.42 64.76 122.83 64.27 122.84C63.31 122.86 62.33 122.76 61.38 122.92C64.65 126.04 68.14 130.91 66.25 135.61C65.44 137.64 63.42 139.33 61.14 139.27C58.3 139.2 60.4099 136.93 60.5799 135.73C60.6799 134.99 60.6199 134.04 60.4399 133.32C60.1899 133.38 60.1799 133.78 59.9699 134.02C58.7499 135.53 56.75 136.37 54.81 136.13C55.48 137.28 56.08 138.47 56.66 139.67C56.99 140.34 57.57 142.19 57.93 142.62C58.2 142.95 59.2 143.28 59.64 143.57C64.4 146.63 68.25 151.66 64.41 157.22C63.57 158.44 62.2799 159.19 61.6899 160.52C64.8499 160.95 67.0599 158.41 70.0899 158.06C72.9199 157.74 76.29 158.75 77.39 161.61C77.89 162.9 78.3 165.6 76.15 165.2C75.47 165.07 74.6199 163.86 73.7199 163.96C75.1299 165.7 75.77 168.99 74.26 170.83C72.61 172.84 71.67 169.76 70.74 169.05C68.22 167.11 62.1199 166.22 58.9499 165.99C57.0399 165.85 53.5099 166.56 52.9599 163.85C52.3599 160.87 54.99 158.56 53.86 155.68C52.58 156.22 51.36 156.96 50.04 157.41C46.19 158.7 41.3699 158.34 37.4499 157.56L39.14 161.57C40.21 163.67 41.5499 163.01 43.4499 163.2C47.2599 163.59 50.1899 166.76 49.0999 170.69C48.8599 171.55 48.16 172.78 47.25 173.07C45.88 173.51 45.5999 171.32 44.9499 170.45C44.7299 170.15 43.61 169.09 43.31 168.97C43.22 168.93 43.0499 168.94 43.0799 169.05C43.1499 169.16 43.39 169.45 43.39 169.52V171.87C43.39 173.42 41.4299 176.02 39.8399 176.29C37.0799 176.76 38.23 174.84 38.06 173.3C37.95 172.31 37.1099 170.65 36.4399 169.92C33.9999 167.26 29.4399 168.08 26.4699 167.07C25.6599 166.8 25.2199 166.12 25.3499 165.27C25.6799 163.09 28.7699 161.98 30.7199 162.11C30.9199 161.93 29.79 160.98 29.63 160.78C28.41 159.29 27.52 157.67 26.77 155.9C5.63999 150.43 -6.05 125.61 4.53 105.98C6.49 102.35 9.24002 99.2099 11.18 95.5899C8.00002 94.8799 5.08002 93.4699 3.30002 90.6499C1.78002 88.2499 0.849922 85.34 5.07992 86.6C3.08992 83.9 2.55998 80.28 2.88998 76.99C3.27998 73.13 6.99001 75.32 8.67001 76.91C8.65001 74.8599 8.23992 71.3999 7.07992 69.6699C6.49992 68.7899 4.97 68.13 6.03 66.85C6.63 66.13 8.72995 66.4899 9.60995 66.6699C14.68 67.7199 17.8599 72.7599 18.1999 77.6999C18.4699 77.5299 18.67 76.9499 18.79 76.6499C19.17 75.6799 19.72 72.9699 20.16 72.3899C21.42 70.6999 23.37 73.7599 23.86 74.7799C25.33 77.8799 24.9 81.4699 23.68 84.5799C27.99 82.34 28.46 84.4499 27.12 88.2599C25.86 91.8499 22.7399 94.8399 18.9699 95.6199C17.4799 101.25 14.11 106.12 12.38 111.66C11.06 115.89 10.68 120.53 11.79 124.84C13.75 125.14 15.8 125.19 17.51 126.31C20.06 127.99 17.24 129.19 16.18 130.69C18.11 130.74 20.1999 131.03 21.9399 131.88C25.2799 133.52 22.67 134.27 21.41 135.85C20.93 136.45 19.95 138 20.56 138.74C20.77 138.99 22.24 139.87 22.64 140.1C24.13 140.96 25.8299 141.64 27.4699 142.15C28.3099 142.41 30.95 143.26 31.65 142.96C31.84 142.88 32.84 141.6 32.9 141.4C32.98 141.12 32.85 141.18 32.67 141.16C32.21 141.11 31.65 141.34 31.11 141.33C29.01 141.3 26.46 140.7 24.86 139.28C22.42 137.12 27.2 136.33 28.05 134.67C25.7 131.96 23.59 128.79 22.31 125.41C22.07 124.78 21.3499 121.65 21.1899 121.53C20.5999 121.11 18.3 121.86 17.64 122.22C17.25 122.43 16.5199 123.12 16.2199 123.16C14.7499 123.38 14.87 120.89 14.92 119.97C15.07 116.81 16.42 113.59 18.37 111.14C17.64 111.01 16.26 111.32 15.63 111.14V111.12ZM63.26 17.27C63.14 17.17 61.82 14.87 61.68 14.55C60.04 10.99 60.5699 8.05995 60.2299 4.42995C60.1599 3.62995 59.67 1.16995 58.99 2.98995C58.23 5.02995 58.7999 8.83995 59.3199 10.9599C59.6399 12.2299 60.92 15.03 60.37 16.1C59.14 18.48 54.5399 13.0299 53.8399 13.7099C54.4399 16.0099 57.1199 17.2799 58.8399 18.7899C61.4199 21.0499 62.8599 23.08 64.2299 26.2199C64.4799 26.7999 65.2 29.3099 65.66 29.4799C65.84 29.5399 67.67 29.74 67.74 29.66C67.34 27.02 65.74 25.1799 65.55 22.3899C65.29 18.5399 66.73 16.7999 67.78 13.5199C67.98 12.8999 68.66 11.1299 67.74 11.0599C66.35 12.8799 65.68 15.08 64.61 17.08C64.34 17.4699 63.58 17.56 63.24 17.27H63.26ZM55.0899 34.1999C55.4099 35.1099 55.05 36.0299 53.99 35.6899C52.99 35.3699 50.42 32.3599 49.86 32.3299C48.49 33.1099 45.53 32.7299 45.74 34.8599C46.01 37.4799 47.7999 39.1399 50.0899 40.0599C50.6999 40.3099 53.03 40.8499 53.18 41.3399C53.49 42.3599 52.0499 45.03 51.7299 46.24C49.1599 55.86 54.6399 57.6499 61.3399 61.8699C61.4699 61.9499 61.71 61.9999 61.92 62.1399C62.26 62.3599 63.4 63.47 63.68 63.27C63.78 63.2 64.31 61.2 64.27 61.02C64.24 60.85 62.4199 58.84 62.0799 58.38C60.6599 56.3899 59.22 53.7399 59.65 51.1899C60.02 48.9799 62.19 50.2199 63.41 50.9499C65.33 52.0999 66.2799 53.6399 68.8299 53.4199C69.9699 53.3199 70.9999 52.59 72.0699 52.21C73.9199 51.55 75.7499 51.2999 77.7099 51.3699C77.9599 50.1499 78.41 48.6499 79.55 47.9699C80.09 47.6499 80.8399 47.67 81.3199 47.24C81.3199 46.79 79.13 46.76 78.78 46.85C78.65 46.88 78.4999 47.36 78.1899 47.5499C77.8299 47.77 77.3099 47.7599 76.9499 48.0299C76.5899 48.2999 75.4 50.38 74.76 49.24C74.02 47.93 76.42 46.8899 76.63 46.4699C76.74 46.2499 75.79 45.9299 75.64 45.7899C75.02 46.0999 74.3799 46.38 73.8299 46.7999C73.3799 47.1499 72.1399 48.87 71.7099 47.96C71.1699 46.83 73.2499 44.59 74.4499 44.52C74.3099 43.7799 73.78 43.1799 73.68 42.3999C73.44 40.5399 73.7699 38.67 74.5999 37.02C73.7399 37.22 73.0799 36.2499 72.4599 36.1099C71.0899 35.8099 70.66 36.4099 69.53 34.9699C68.33 33.4299 68.4599 31.5199 65.6899 31.6999C67.7099 33.3499 69 35.09 69.68 37.63C70.13 39.2999 69.9799 38.7099 70.8499 40.0599C73.6499 44.4099 69.6999 49.85 64.4399 48.74C62.9899 48.44 61.1 47.06 60.38 45.77C59.27 43.7999 59.1999 41.6299 60.1999 39.6099C59.2299 38.8599 58.04 38.3699 57.25 37.3999C56.72 36.7499 55.9499 35.15 55.8399 34.35C55.7399 33.65 55.83 32.7799 56.3 32.2299C56.51 31.9899 56.87 32.09 56.77 31.77C53.72 29.38 50.48 26.91 48.42 23.55C46.61 20.59 46.61 18.7499 46.77 15.3599C46.84 13.8099 47.65 11.7 46.53 10.4399C45.39 10.4399 46.05 17.4899 42.93 15.2899C40.13 13.3099 39.4899 7.04995 38.7199 4.02995C37.9199 0.929947 37.1599 3.15995 37.2199 5.05995C37.3899 10.1199 40.23 13.3399 42.31 17.4799C44 20.8499 40.93 19.92 39 19.07C38.13 18.69 35.35 16.83 34.67 17.02C33.8 17.27 35.62 18.64 35.93 18.85C37.47 19.91 39.3 20.47 40.93 21.35C45.83 24.02 49.1899 28.3099 53.0899 32.1699C53.7299 32.7999 54.73 33.3099 55.05 34.1999H55.0899ZM79.27 28.3599C78.66 28.9299 77.9899 29.4199 77.4499 30.0599C76.9899 30.5999 75.9499 32.5399 75.4599 32.6099C73.9399 32.8299 75.48 29.3 75.56 28.63C75.71 27.26 75.33 25.92 74.61 24.77C74.46 24.52 73.01 22.6899 72.76 22.9499C73.06 24.0599 72.8 25.21 72.41 26.27C71.51 28.71 69.1899 29.8699 70.4599 32.8299C71.4799 35.2099 73.13 34.74 75.3 35.02C75.85 35.09 76.2099 35.43 76.8199 35.21C77.0899 35.11 78.64 34.0399 78.86 33.8099C80.09 32.4799 80.77 29.2699 79.88 27.6399C79.6 27.7999 79.47 28.1799 79.28 28.3599H79.27ZM63.38 30.6C62.61 28.77 62.28 27.0599 60.64 25.7599C59.1 24.5299 57.17 24.12 55.25 23.88C55.65 24.6 56.1 25.31 56.42 26.07C56.74 26.83 57.36 29.52 57.67 29.83C58.94 31.1 61.8 29.7699 63.38 30.6099V30.6ZM44.93 31.6999C42.32 30.8099 39.7599 29.6199 36.9599 30.6099L39.31 32.3999C40.11 33.1899 42.0599 35.9299 41.5699 37.0099C40.9999 38.2499 37.94 37.6699 36.74 37.8099C34.31 38.0899 30.76 40.1199 29.3 42.0899C31.35 42.3499 34.02 42.6599 35.3 44.5299C36.45 46.1899 35.38 46.1799 34.24 46.7299C32.26 47.6799 30.85 48.4899 29.37 50.1499C28.18 51.4799 27.11 53.0199 26.63 54.7599L30.92 53.8999C34.09 53.9699 32.31 55.8499 31.55 57.3399C30.56 59.2799 29.7399 61.19 29.4599 63.38C29.3799 64.03 29.58 64.7099 29.28 65.3099L31.7299 63.1499C32.2699 62.7599 32.86 62.7799 33.5 62.8099C33.36 66.2399 33.13 69.71 33.66 73.13C34.61 71.89 35.13 70.2999 36 68.9799C33.81 62.2499 32.8899 55.0499 35.4599 48.27C37.0999 43.93 39.9999 39.2199 43.9499 36.6699C43.6599 34.8999 43.47 33.0099 44.91 31.6999H44.93ZM67.5999 37.32C66.5199 34.57 63.66 31.5499 60.41 32.4799C60.4 32.7199 60.71 32.6699 60.88 32.8699C61.19 33.2199 62.36 34.7199 61.56 34.9699C60.92 35.1699 58.8999 33.9899 58.0699 34.1999C58.5599 35.6299 59.22 36.7 60.62 37.35C62.19 38.08 61.8199 37.6999 63.0999 37.2799C64.7699 36.7299 65.9299 36.78 67.5999 37.32ZM98.6999 35.13C97.5999 35.65 96.9499 36.6799 96.8299 37.8699C96.3999 42.1599 99.96 42.5799 101.42 45.6199C102.51 47.8899 101.52 50.6699 99.17 51.6199C98.97 51.6999 95.33 52.4899 97.06 52.7899C99.03 53.1299 101.6 51.4699 102.43 49.7199C105.64 42.9999 95.72 42.8299 97.89 36.7299C97.99 36.4499 98.7799 35.2099 98.6999 35.1199V35.13ZM78.03 36.5799C76.83 36.8999 75.6799 38.8699 75.5699 40.0599C75.3899 41.8999 76.2899 44.4399 78.3399 44.7899C83.3399 45.6499 83.29 38.43 79.56 36.85C79.11 36.66 78.51 36.4499 78.03 36.5799ZM33.99 163.65C33.67 165.07 32.15 164.08 31.24 163.98C30.02 163.84 27.69 163.82 27.42 165.37C30.82 165.92 35.18 165.89 37.66 168.65C38.35 169.42 38.6399 170.3 39.2199 171.12C40.7199 170.44 41.86 170.77 40.87 168.89C40.64 168.46 38.9 166.56 39.15 166.31C40.61 166.18 41.9999 166.65 43.3199 167.22C43.6699 167.37 44.24 167.88 44.54 167.87C44.84 167.86 46.7 166.45 46.49 166.16C45.74 165.74 45.16 165.35 44.3 165.14C42.5 164.69 39.4899 165.05 38.1999 163.66C37.3899 162.78 36.68 160.27 36.15 159.07C35.58 157.78 34.38 156.45 34.62 154.99C34.83 153.67 36.99 153.27 38 152.74C41.7 150.82 42.89 147.47 41.76 143.46C41.57 142.79 40.3899 141.15 41.5899 141.03C43.1299 140.88 44.03 144.51 44.13 145.62C44.36 148.16 43.3 151.27 41.25 152.87C40.71 153.29 40.0499 153.48 39.61 153.97C43.8699 153.92 47.57 150.66 47.42 146.24C47.09 136.32 32.51 131.29 31.5 121.2C30.73 113.45 35.95 110.44 42.89 113.09C43.52 113.33 46.75 115.08 47.11 114.73C47.17 113.36 49.3899 109.71 50.9799 110.47C51.8199 110.87 50.8699 111.53 50.5799 112.03C49.1799 114.4 48.2 116.81 48.54 119.64C49.1 124.4 54.44 124.33 57.43 126.77C57.28 127.41 57.36 128.5 57.26 129.18C57.1 130.19 56.72 131.08 56.52 132.06C57.53 132.47 57.85 134 58.75 132.7C59.72 131.32 59.18 129.55 59.5 128.13C59.8 126.8 60.58 128.27 60.9 128.85C61.64 130.17 62.12 131.82 62.13 133.33L64.78 132.85C64.75 129.19 62.25 126.29 59.78 123.89C59.69 123.8 59.5099 123.82 59.4799 123.79C58.6799 123.03 57.2399 121.21 56.2299 120.86C55.4899 120.6 54.79 121.03 55.01 119.72C55.12 119.09 56.3699 115.29 56.7299 115.02C58.0099 114.09 58.29 116.38 57.76 117.22C63.13 116.85 67.4 114.97 70.55 110.55C72.76 107.44 73.9999 102.67 73.3499 98.8899C71.9099 90.5199 58.84 82.6799 53.3 76.2599C49.9 72.3199 47.35 68.1399 46.81 62.8099C46.69 62.6899 44.4799 64.0499 43.7099 62.5599C42.9999 61.1899 44.3499 57.72 45.0999 56.41C44.1199 56.36 40.26 56.82 39.78 55.99C39.22 55.03 40.15 53.38 40.66 52.52C41.72 50.72 43.2999 49.2999 44.9499 48.0499C43.5699 47.3999 40.46 48.0499 41.29 45.63C41.41 45.27 42.57 44.11 42.92 43.82C44.36 42.63 46.2299 41.93 48.0799 41.71L46.9 40.7799L44.7199 38.4399C43.4299 39.5399 42.0499 40.7499 41.0699 42.1399C31.6099 55.5299 36.4499 71.5399 47.2099 82.38C51.2999 86.5 62.11 93.7299 62.75 99.5099C63.18 103.36 60.59 106 56.99 106.69C48.74 108.28 43.3499 99.0099 34.4399 100.55C25.7199 102.05 21.9 111.83 22.93 119.8C23.56 124.66 26.03 129.39 29.24 133.03C31.08 135.12 35.51 138.48 34.88 141.64C34.64 142.83 30.9999 146.87 30.0799 148.56C26.5699 155.02 29.6599 157.26 33.1999 162.22C33.4199 162.52 33.95 163.62 34.01 163.68L33.99 163.65ZM64.28 38.9199C62.97 39.1399 61.7 40.6499 61.52 41.9399C61.02 45.5599 65.35 48.47 68.31 46.07C71.88 43.17 68.63 38.1699 64.28 38.91V38.9199ZM51.1899 57.02C48.2599 52.81 49.1499 47.8299 50.7199 43.2599C48.2099 43.6299 45.37 43.8899 43.53 45.8399C44.42 45.9599 49.85 46.8699 47.99 48.5799C47.28 49.2299 45.77 49.8599 44.87 50.6099C43.68 51.5999 42.3799 52.9999 41.9699 54.5099H46.5799C46.7399 54.5099 48.1299 54.8999 48.1899 54.9999C48.6699 55.7799 46.5499 57.8599 46.0999 58.7199C45.7299 59.4499 45.42 60.23 45.4 61.07C45.52 61.2 46.33 60.5199 46.54 60.4199C47.86 59.7699 49.4 59.41 50.87 59.35C51.96 59.31 52.95 59.3499 54 59.66C52.85 58.82 52.0099 58.1899 51.1899 56.9999V57.02ZM90.7299 49.1999C90.3599 48.4899 91.9499 47.4599 91.9499 47.2499C91.9499 47.1899 91.44 46.3999 91.36 46.3099C89.5 44.2099 85.4499 45.0699 84.3399 47.5899L86.13 48.8899C86.77 49.8499 86.65 50.3399 85.41 50.0799C84.65 49.9199 83.9 49.2299 83.12 49.0899C81 48.7199 79.2899 50.3899 79.8299 52.5299C81.0299 57.2499 95.8299 57.8699 94.9599 50.5299C94.7999 49.1999 93.2 48.7499 92.06 48.8899C91.58 48.9499 91.24 49.28 90.74 49.21L90.7299 49.1999ZM76.3199 53.16C73.4999 53.29 69.96 54.44 68.15 56.71C65.79 59.64 66.55 64.8099 62.99 66.8699C62.98 67.4899 64.22 66.91 64.56 66.7199C66.13 65.84 66.27 63.79 66.86 62.2999C68.59 57.9199 70.17 54.97 75.2299 54.1C75.7199 54.02 77.52 53.9899 77.77 53.8299C78.08 53.6399 77.83 53.2999 77.61 53.1999C77.19 53.0099 76.7599 53.1499 76.3299 53.1699L76.3199 53.16ZM62.4399 55.9299C62.4399 55.9299 62.77 55.9899 62.91 56.1499C63.17 56.4399 64.5999 58.7399 64.9399 58.5099C66.1699 57.1199 64.3799 56.33 63.2099 55.85C63.0699 55.79 61.99 55.3999 62.43 55.9199L62.4399 55.9299ZM93.2299 56.71C90.3699 57.99 86.86 57.9199 83.79 57.4699C82.01 57.2099 80.7199 56.5699 79.2299 55.6099L74.3199 56.3899C75.4699 57.3699 77.2499 57.82 78.7199 58.16C81.6299 58.8299 89.16 59.9099 91.75 58.7499C92.4 58.4599 93.1999 57.43 93.2199 56.71H93.2299ZM81.18 68.8899C81.84 68.0999 79.18 64.9899 78.62 64.3699C76.64 62.1499 74.2199 60.1699 72.2199 57.9499C71.4699 57.4199 70.96 58.5699 70.42 58.9699C71.36 59.8099 73.29 62.4099 72.43 63.6499C72.27 63.8899 72.1 64.0099 71.81 63.8299C71.49 63.6199 70.43 60.8999 69.55 60.6199C69.38 60.6199 68.74 62.35 68.7299 62.6C68.71 63.15 70.05 65.02 70.49 65.4699C71.45 66.45 71.2399 65.7499 71.8199 65.0799C72.2999 64.52 72.8 63.8299 73.54 63.9699C75.69 64.3699 75.89 67.2199 76.29 68.9299C76.91 69.2199 80.94 69.1799 81.18 68.8999V68.8899ZM81.9799 60.6199L79.64 60.3099C79.67 61.1499 79.53 61.9999 79.8 62.8099C79.93 62.9099 81.57 61.3299 81.75 61.0899C81.87 60.9299 82.0499 60.8899 81.9799 60.6199ZM55.8399 61.91C55.6799 61.7599 53.64 61.2999 53.28 61.27C52.34 61.17 49.6899 61.1999 48.9399 61.7299C48.5499 61.9999 48.73 63.1199 48.93 63.4399C49.31 64.0499 53.1399 64.13 53.9399 64.07C54.2699 64.04 55.8499 63.78 55.9799 63.6C56.1499 63.36 56.08 62.13 55.86 61.91H55.8399ZM89.64 61.2499H87.92C87.86 61.9699 88.18 62.6199 88.39 63.2799C88.77 63.5599 89.79 61.6499 89.64 61.2499ZM86.04 69.6899C82.92 71.3599 78.97 71.6099 75.54 70.8899C74.37 70.6499 72.3699 69.9399 71.4499 69.1899C70.7599 68.63 68.41 65 68.15 64.99C67.13 66.27 67.27 66.74 67.8 68.16C68.74 70.7 71.02 74.5099 74.28 73.1499C74.84 72.9199 75.1499 72.3999 75.7299 72.3399C76.5399 74.2399 75.76 75.88 75.11 77.66C76.45 78.32 79.23 74.5199 79.56 74.5399C80.37 74.5899 79.62 77.3699 79.54 77.7999C79.51 77.96 79.3499 78.24 79.7099 78.13C80.7999 77.7999 82.72 75.4899 83 74.3899C83.14 73.8399 82.88 73.1499 83.4799 72.8299L85.18 74.38C85.68 74.14 86.17 70.3899 86.04 69.6899ZM56.5 65.3099C54.16 65.9999 51.8399 65.8099 49.4699 65.4699C49.0899 65.8499 51.25 70.4299 51.89 70.9499C53.2 72.0099 57.45 71.6199 59 70.9499C58.16 69.0799 57.02 67.33 56.5 65.32V65.3099ZM84.4799 65.7799C84.24 65.5399 84.2 65.8799 84.12 65.9799C83.94 66.2099 82.3199 68.6499 82.4499 68.7499L84.62 68.2599C84.73 68.0899 84.6199 65.9099 84.4799 65.7799ZM74.4799 68.5899C74.3599 68.0799 74.36 67.53 74.25 67.02C74.2 66.78 74.1199 66.1599 73.8499 66.0899L72.75 68.27C73.33 68.42 73.8499 68.81 74.4699 68.5799L74.4799 68.5899ZM13.4599 70.8399C12.2799 69.5699 10.5299 68.7099 8.82992 68.4399C9.12992 69.2999 9.58993 70.06 9.83993 70.9399C10.2199 72.2499 10.48 74.0299 10.55 75.3899C10.6 76.3699 10.6299 80.1499 10.1999 80.8399C9.60992 81.7999 8.82002 80.1099 8.43002 79.6899C7.41002 78.59 6.34996 77.54 4.98996 76.88C4.40996 79.59 5.08999 83.6899 7.01999 85.7899C7.79999 86.6299 10.5499 88.13 8.57992 89.0799C7.18992 88.9599 5.85997 88.5899 4.49997 88.3099C4.28997 88.2699 4.22001 88.2899 4.29001 88.52C4.41001 88.8999 4.99997 89.8499 5.24997 90.2199C6.84997 92.5399 9.29991 93.2199 11.9399 93.7599C12.5399 90.3299 11.03 85.0599 13.06 81.9799C14.49 79.8199 15.26 83.3899 15.66 84.3299C16.91 87.2199 18.67 90.0699 18.81 93.2899C22.67 92.7199 25.0999 89.4599 25.8399 85.7899C24.7899 85.5999 20.3199 89.13 20.0999 86.9399C20.0499 86.4299 21.52 84.5799 21.86 83.9199C23.04 81.6399 23.3499 78.8699 22.4799 76.41C22.3899 76.16 21.66 74.6899 21.54 74.6899C20.78 76.2999 19.63 79.97 18.01 80.85C15.95 81.9799 16.25 77.66 16.13 76.66C15.92 74.95 14.61 72.0899 13.43 70.8399H13.4599ZM53.38 73.13C54.44 74.32 55.39 75.6599 56.5 76.8099C56.88 77.2099 58.8 79.0499 59.15 79.16C60.58 79.6 64.26 78.6 65.56 77.74L59.99 72.38C57.86 73.27 55.66 73.5 53.37 73.13H53.38ZM38.8399 81.02C38.7299 82.0799 38.9199 83.2999 38.8399 84.38C39.6199 83.89 41.2 81.76 42.04 81.71C42.2 81.71 42.52 81.7799 42.65 81.8599C42.82 81.9699 43.7099 85.1099 43.9799 85.7299C44.5099 86.9599 45.25 88.0499 45.88 89.2199C46.3 88.6699 46.6 88.0399 47 87.4499C47.36 86.9299 47.7599 86.4399 48.2199 86.0099C45.2099 83.3799 42.55 80.3899 40.17 77.1799C39.83 77.1699 38.8899 80.5399 38.8399 81.0099V81.02ZM61.1899 80.7899C62.7999 82.5399 64.7199 83.99 66.4599 85.6C68.9199 85.51 71.5799 85.38 73.6899 83.99C73.6899 83.5799 67.9899 79.59 67.1899 79.1C65.2399 79.84 63.3199 80.6799 61.1899 80.7799V80.7899ZM95.89 80.63C95.32 80.25 92.22 81.4599 92.61 82.0299C92.67 82.1199 94.21 83.03 94.4799 83.13C94.24 82.61 96.05 80.77 95.89 80.63ZM91.36 92.8299C90.79 93.45 88.83 95.02 88.06 95.5499C86.97 96.2999 86.8299 96.41 85.5699 95.7999C85.6999 96.7299 86.03 97.6199 86.17 98.5599C86.38 99.9599 85.94 101.56 87.28 102.3C88.94 103.21 89.6 102.26 90.54 101.01C91.77 99.3899 92.75 97.1899 94.01 95.6399C94.14 95.4799 94.44 95.13 94.62 95.0799C95.94 94.7099 95.4699 96.2299 95.5799 96.96C95.7199 97.86 96.89 98.5099 97.76 98.4499V96.1799C97.76 96.0499 98.01 95.8499 97.89 95.4299C97.75 94.9499 96.65 94.4299 96.42 93.2899C95.87 90.6199 97.03 89.51 98.53 87.6C98.09 87.28 97.64 86.4999 97.3 86.1899C96.9 85.8299 96.4399 86.56 96.2199 86.82C95.9199 87.18 94.0499 90.9 93.8399 88.99C93.7799 88.43 93.69 87.35 93.68 86.7999C93.68 86.09 94 85.0799 93.81 84.4799C93.78 84.3699 92.15 83.0099 92.04 82.9699C91.78 82.8599 91.83 83.0699 91.77 83.1699C91.15 84.2199 91.0999 86.2 91.1999 87.41C91.2999 88.6199 92.19 90.9999 91.89 91.8999C91.87 91.9499 91.3699 92.7899 91.3299 92.8299H91.36ZM102.14 86.4199C101.19 85.1299 99.66 84.96 98.2299 85.49C98.4699 85.78 99.3099 86.7999 99.5899 86.8699C99.9399 86.9599 101.56 86.2499 102.14 86.4199ZM68.2199 87.1999C68.1499 87.4699 68.3299 87.5099 68.4499 87.6699C68.9599 88.3399 69.83 88.96 70.4 89.63C70.84 90.1499 73.0999 93.3599 73.3299 93.4299C75.9999 93.5799 78.8199 93.2499 81.1899 91.9699C81.2399 91.7499 79.1 88.9799 78.77 88.6099C78.36 88.1399 75.77 85.4999 75.41 85.3899C74.98 85.2599 73.39 86.17 72.79 86.38C71.34 86.8999 69.7699 87.2599 68.2199 87.1999ZM11.3299 108.15C11.4299 108.23 11.62 107.9 11.67 107.79C13.07 105.18 14.79 101.47 15.89 98.7199C17.67 94.27 17.15 92.11 15.26 87.88L13.9799 85.4799C13.9599 86.3699 13.7999 87.16 13.8199 88.07C13.8399 89.28 14.17 90.7499 14.14 91.9699C14.02 97.0299 9.37001 101.58 6.92001 105.86C3.59001 111.68 2.21002 116.94 2.56002 123.72C3.26003 137.21 13.46 150.33 26.64 153.65C26.49 151.54 27.4499 149.6 28.3299 147.76L30.2299 144.74C24.5799 143.65 19.21 141.21 15.54 136.68C10.51 130.47 8.11001 122.69 9.54001 114.7C9.74001 113.56 10.7699 110.83 10.6899 109.97C10.5799 108.78 9.89993 107.73 8.58993 107.84C8.08993 107.88 6.66 108.67 7.41 107.45C8.23 106.1 11.1999 106.29 11.3299 108.16V108.15ZM54.62 95.1699C54.71 94.3999 55.96 93.0499 55.64 92.3599L49.93 87.6699C50.4 88.9599 50.99 90.1299 51.68 91.3099C52.25 92.2899 53.48 94.2499 54.24 94.9999C54.37 95.1299 54.38 95.2199 54.62 95.1699ZM51.1899 100.18C51.9899 99.6699 52.21 97.78 53.53 98.38C54.25 98.71 55.7799 102.52 57.2299 103.59C58.3899 104.45 58.91 104.27 59.86 103.15C62.4 100.15 59.58 96.2999 57.36 94.0799C56.01 95.88 56.0999 99.7799 53.2199 96.6499C51.2399 94.4899 49.7599 91.5099 48.4499 88.9199L46.9699 91.8899C49.5999 93.6299 50.6299 97.1999 51.1899 100.18ZM44.31 92.5899C44.38 93.5299 44.31 94.5999 44.31 95.5599C44.31 96.3199 43.38 98.25 42.39 97.96C41.95 97.83 40.5699 95.6299 40.0899 95.0899C38.2199 92.9999 35.85 91.6599 33.05 91.2599C33.42 92.2999 34.02 93.26 34.26 94.35C34.39 94.95 34.71 96.9999 34.24 97.3699C33.73 97.7799 31.41 96.8299 30.61 96.7499C28.08 96.4799 24.97 97.49 23.05 99.0799C24.19 99.02 26.5899 100.78 26.3399 101.95C26.2999 102.13 23.46 103.22 22.99 103.48C21.8 104.13 20.61 105.11 19.68 106.11C19.32 106.5 17.2399 109.03 17.5699 109.4C18.6599 109.02 20.8199 109.16 20.6999 110.73C20.6499 111.45 19.47 112.61 19.03 113.29C17.88 115.09 16.75 117.62 16.78 119.79C16.78 120.07 16.65 120.4 17.02 120.34C17.45 120.28 18.2299 119.78 18.8199 119.63C19.4899 119.46 20.1599 119.34 20.8499 119.4C20.0499 110.89 24.1899 100.61 33.3199 98.8099C41.3299 97.2299 44.1299 100.93 50.5899 103.95C52.1899 104.7 53.9399 105 55.6999 105.01L54.4799 103.5L52.9699 100.95C52.3199 102.83 50.23 104.48 49.43 101.67C49.05 100.34 48.96 98.88 48.55 97.5499C47.81 95.13 46.4099 93.2999 44.2099 92.0399C43.9499 92.1699 44.28 92.4899 44.29 92.5899H44.31ZM84.4599 102.34C84.5299 99.2799 84.18 95.9399 82.14 93.52C79.61 94.59 76.92 95.1599 74.16 95.1699C74.83 97.1999 75.48 98.8299 75.41 101.03C75.4 101.43 75.05 101.94 75.41 102.29C75.85 102.72 78.53 103.12 79.24 103.15C81 103.22 82.7799 102.79 84.4599 102.34ZM100.89 96.1099L99.02 95.9499L98.86 98.2899C99.57 98.5999 101.07 96.26 100.89 96.1V96.1099ZM90.7299 103.93C90.66 103.85 89.63 104.47 89.37 104.52C88.32 104.72 87.28 104.42 86.36 103.93C86.36 105.5 85.9399 107.04 85.5899 108.55C85.7599 108.76 86.5099 110 86.5999 110.02C87.2599 110.18 87.6 107.38 88.12 107.15C89.52 106.54 89.28 108.33 90.27 108.61C90.5 107.05 90.84 105.51 90.74 103.92L90.7299 103.93ZM84.64 104.09C82.3 104.53 79.8 105.1 77.42 104.67C76.59 104.52 75.92 104.19 75.11 104.09C74.78 106.42 73.98 108.68 72.63 110.61C73.33 111.7 74.6099 112.65 75.8499 113.13C76.7499 113.47 79.6 114.05 80.42 113.71C80.7 113.59 81.9799 111.81 82.2099 111.43C83.5899 109.19 84.29 106.69 84.65 104.1L84.64 104.09ZM78.54 115.19C77.04 115.17 75.45 114.77 74.11 114.07C73.19 113.59 72.5099 112.81 71.5999 112.4C71.3499 112.45 68.89 115.15 68.38 115.58C68 115.9 66.18 117.01 66.18 117.29C66.18 118.12 68.86 119.5 69.62 119.65C70.66 119.86 72.2299 119.12 73.2199 118.7C75.0999 117.89 77.18 116.72 78.54 115.19ZM41.9499 114.58C40.0699 114 37.64 113.29 35.88 114.48C37.58 116.5 40.3999 117.22 42.8299 118L42.1999 116.44L41.9499 114.58ZM41.18 119.26C38.68 118.68 36.2099 117.49 34.6999 115.35C33.0699 116.8 32.83 121.31 33.93 123C34.67 124.14 38.7299 124.02 39.9399 123.72C42.2499 123.15 40.85 122.89 40.87 121.38C40.87 121.03 41.29 119.39 41.18 119.27V119.26ZM46.63 116.61C46.53 116.5 44.1699 115.82 43.8399 115.5C43.5999 116.84 44.88 117.48 45.27 118.6C45.49 118.62 46.45 118.67 46.5 118.63C46.57 118.56 46.7 116.69 46.64 116.61H46.63ZM67.29 120.5C66.26 119.67 65.21 118.87 64.54 117.7C62.3 118.69 59.8499 118.81 57.4399 118.94C58.1599 119.56 59.2499 120.82 60.1899 120.96C62.3599 121.27 65.13 120.87 67.29 120.5ZM46.78 120.85C46.59 120.66 43.3699 120.04 43.0799 120.21C42.8599 120.73 42.8299 121.39 42.9399 121.95C43.2399 123.55 46.46 126.89 47.67 128.16C48.88 129.43 50.1499 130.59 51.3499 131.83C52.8899 132.27 54.7999 131.39 55.3299 129.88C55.5299 129.31 55.6699 128.22 55.3299 127.7C55.1399 127.41 51.72 126.12 51.04 125.74C49.33 124.8 47.89 123.54 47.06 121.75C46.95 121.52 46.86 120.92 46.79 120.85H46.78ZM78.54 128.01C78.11 127.67 76.6599 125.54 76.2199 124.93C75.2499 123.57 74.34 122.13 73.51 120.68L67.91 122.22C67.85 122.46 67.97 122.48 68.06 122.61C70.41 125.97 73.7499 127.76 76.8199 130.19C78.1699 131.26 76.8499 132.87 77.4499 134.25C77.6299 134.37 79.1799 133.62 79.3299 133.41C79.5099 133.15 79.62 132.25 79.86 131.75C79.99 131.49 80.8 130.28 80.99 130.22C82.17 129.81 84.3399 131.27 85.3199 131.9C85.4999 131.87 86.77 130.46 86.81 130.24C86.86 129.9 85.71 129.09 85.37 128.91C84.63 128.51 83.56 128.43 83.02 128.13C81.78 127.43 84.6 126.44 85.18 126.44H87.4499C87.4499 124.4 88.28 123.79 85.67 124.11C82.99 124.44 81.84 126.87 80 127.98C79.51 128.28 79.01 128.38 78.54 128V128.01ZM34.93 125.04C34.84 125.13 35.44 126.04 35.55 126.22C36.17 127.22 37.98 129.85 38.99 130.28C40.67 131 44.6 130.42 46.18 129.34L42.18 124.58C39.8 125.85 37.46 125.84 34.93 125.04ZM90.7299 127.54C90.52 126.46 89.82 125.41 88.86 124.88C88.94 125.4 88.48 126.33 88.77 126.76C88.83 126.85 90.6499 127.61 90.7299 127.53V127.54ZM15.4499 128.53C15.6399 128.33 16.03 128.22 16.17 127.92C16.33 127.18 12.82 126.72 12.27 126.92C12.71 128.16 13.16 129.42 13.91 130.51C14.33 129.8 14.8899 129.13 15.4499 128.53ZM74.79 131.45C75.05 131.23 73.52 130.2 73.3 130.2C73.01 130.2 71.8299 131.41 71.1899 131.14C71.1499 131.37 71.49 131.34 71.65 131.38C72.78 131.61 73.65 131.57 74.78 131.45H74.79ZM40.87 132.23C41.91 133.45 43.1199 134.51 44.2299 135.67C45.5799 137.07 45.5499 138 47.8299 138.17C48.5999 138.23 52.9 137.88 53.06 137.15C51.61 134.69 49.56 132.64 47.49 130.7C45.43 131.72 43.16 132.19 40.87 132.24V132.23ZM87.5999 131.6C87.4399 131.43 86.2299 132.66 86.2099 132.79C86.1799 132.99 87.24 134.69 87.13 135.19L87.74 133.85L87.5999 131.6ZM17.8199 132.54C16.9399 132.46 15.9699 132.6 15.0799 132.54C15.9899 134.25 17.18 135.85 18.67 137.07C18.69 136.19 19.24 135.33 19.77 134.65C19.95 134.42 21.05 133.53 20.86 133.32C19.86 133.08 18.85 132.63 17.81 132.54H17.8199ZM56.81 133.79C56.73 133.69 55.6599 133.03 55.4499 132.87L53.53 133.32C53.11 133.71 54.9799 134.22 55.1899 134.24C55.4099 134.26 57.25 134.31 56.81 133.79ZM64.63 134.1L62.3 134.58C62.26 135.47 62.1899 136.41 61.8199 137.22C63.4299 137.11 64.33 135.51 64.63 134.1ZM79.62 135.05C79.41 134.87 77.76 135.64 77.76 135.74C78.41 136.6 79.25 137.37 80.41 137.22L79.62 135.04V135.05ZM32.12 139.26C32.16 138.57 29.5199 135.97 29.2299 135.97L28.37 136.99C28.18 137.24 26.69 137.98 26.81 138.24C26.95 138.55 29.05 139.26 29.39 139.26H32.13H32.12ZM54.15 138.64C52.05 139.61 49.74 139.94 47.43 139.89C47.91 140.94 48.5099 141.98 48.8299 143.1C49.0699 143.95 49.25 145.04 49.29 145.92C49.31 146.28 48.95 146.71 49.3 147C49.44 147.11 50.3 147.4 50.55 147.47C52.62 148.1 54.74 147.95 56.8 147.38C56.74 144.24 55.44 141.41 54.15 138.63V138.64ZM59.16 164.12C63 164.48 66.81 165.05 70.37 166.6C70.63 166.61 71.99 164.8 71.75 164.43C71.31 163.75 67.78 163.61 66.81 163.11C66.63 163.01 66.43 163.11 66.51 162.8C68.32 161.58 70.71 161.63 72.76 162.1C72.68 161.49 73.28 160.28 72.65 159.94C70.36 158.7 65.9999 161.95 63.5999 162.24C62.8799 162.33 60.87 162.27 60.26 161.94C59.4 161.49 59.4899 159.75 60.0999 159.05C61.1299 157.87 62.1999 157.37 63.0999 155.8C65.6699 151.26 62.31 147.61 58.54 145.38C59.02 147.91 58.3299 150.79 56.9399 152.93C56.6999 153.31 55.6099 154.44 55.5899 154.55C55.5499 154.74 55.97 155.71 56.01 156.11C56.29 158.49 55.0999 159.98 54.8199 162.07C54.6899 163.02 54.58 163.75 55.68 163.95C56.64 164.12 58.06 164.04 59.16 164.14V164.12ZM56.3399 149.27C54.9299 149.46 53.31 149.52 51.88 149.42C50.78 149.34 50.04 148.9 49 148.65C48.75 149.9 48.19 151 47.43 152.01C47.18 152.33 46.4 152.81 46.51 153.24C46.66 153.84 49.83 154.88 50.49 154.91C52.87 155.04 56.1599 151.67 56.3499 149.28L56.3399 149.27ZM48.06 155.84C47.19 156.1 45.39 154.29 45.02 154.28C44.81 154.28 42.6499 155.43 41.9699 155.6C41.0699 155.83 40.23 155.84 39.31 155.91C39.31 156.52 46.87 156.27 47.63 156.1C47.78 156.07 48.1 156.04 48.06 155.83V155.84ZM75.88 163.03C75.85 162.06 75.12 161.04 74.16 160.84C74.21 161.22 73.83 162.09 74.02 162.38C74.1 162.5 75.6 162.82 75.87 163.03H75.88ZM73.2199 169.28C73.5299 167.99 73.39 166.95 72.68 165.84C72.41 166.04 71.39 167.39 71.51 167.55C72.37 167.77 72.6 168.76 73.2299 169.27L73.2199 169.28ZM47.28 170.69C47.55 170.42 47.52 167.99 47.05 167.56L45.7199 168.58C45.7199 168.69 46.7599 170.22 46.9399 170.48C47.0099 170.59 47.04 170.93 47.29 170.68L47.28 170.69ZM41.5 171.63C41.23 171.71 39.7 172.19 39.64 172.27C39.48 172.49 39.95 173.87 39.78 174.28C40.77 173.82 41.55 172.74 41.5 171.62V171.63Z" fill="#020201"/>
<path d="M33.99 163.65C33.93 163.6 33.3901 162.49 33.1801 162.19C29.6401 157.24 26.5501 155 30.0601 148.53C30.9801 146.84 34.63 142.8 34.86 141.61C35.49 138.46 31.06 135.1 29.22 133C26.02 129.36 23.5401 124.62 22.9101 119.77C21.8801 111.81 25.7001 102.02 34.4201 100.52C43.3401 98.9899 48.73 108.25 56.97 106.66C60.57 105.96 63.15 103.32 62.73 99.4799C62.09 93.6999 51.28 86.4699 47.19 82.3499C36.43 71.5099 31.5901 55.4999 41.0501 42.1099C42.0301 40.7199 43.41 39.5099 44.7 38.4099L46.8801 40.7499L48.0601 41.6799C46.2101 41.8999 44.3401 42.5999 42.9001 43.7899C42.5501 44.0799 41.3901 45.2399 41.2701 45.5999C40.4401 48.0099 43.5501 47.3699 44.9301 48.0199C43.2901 49.2699 41.7101 50.6899 40.6401 52.4899C40.1301 53.3499 39.2001 55.0099 39.7601 55.9599C40.2501 56.7899 44.1 56.3299 45.08 56.3799C44.33 57.6899 42.99 61.1599 43.69 62.5299C44.46 64.0199 46.6801 62.6599 46.7901 62.7799C47.3201 68.1099 49.8701 72.2899 53.2801 76.2299C58.8201 82.6499 71.88 90.4899 73.33 98.8599C73.98 102.64 72.7401 107.41 70.5301 110.52C67.3801 114.94 63.11 116.82 57.74 117.19C58.27 116.35 57.99 114.06 56.71 114.99C56.35 115.25 55.1 119.06 54.99 119.69C54.77 121 55.47 120.57 56.21 120.83C57.22 121.18 58.66 123 59.46 123.76C58.91 124.37 57.6001 125.98 57.4301 126.73C54.4301 124.29 49.1001 124.36 48.5401 119.6C48.2101 116.76 49.18 114.35 50.58 111.99C50.87 111.5 51.82 110.83 50.98 110.43C49.39 109.67 47.17 113.32 47.11 114.69C46.76 115.04 43.5301 113.3 42.8901 113.05C35.9501 110.4 30.7301 113.41 31.5001 121.16C32.5101 131.25 47.0901 136.28 47.4201 146.2C47.5701 150.62 43.86 153.88 39.61 153.93C40.05 153.44 40.7101 153.25 41.2501 152.83C43.3001 151.23 44.3501 148.12 44.1301 145.58C44.0301 144.47 43.13 140.84 41.59 140.99C40.39 141.11 41.5701 142.75 41.7601 143.42C42.9001 147.44 41.7101 150.78 38.0001 152.7C36.9901 153.23 34.8301 153.63 34.6201 154.95C34.3801 156.41 35.5801 157.74 36.1501 159.03C36.6801 160.23 37.4 162.74 38.2 163.62C37.56 163.62 37.2201 164.24 36.5601 164.25C36.3501 164.25 34.08 163.7 33.98 163.62L33.99 163.65ZM42.59 62.4999C41.48 62.9699 39.89 62.2099 39.57 61.0699C39.47 60.7199 39.4701 58.6799 38.6701 59.7999C37.9901 60.7499 38.4701 62.5999 39.3101 63.3599C40.3301 64.2599 42.75 64.2899 42.58 62.5099L42.59 62.4999ZM46.34 67.9699C45.84 67.8399 45.7001 68.3299 45.3901 68.5099C44.2901 69.1299 43.3201 69.1999 42.6801 67.9599C42.4101 67.4399 42.21 65.3199 41.61 66.4599C40.9 67.8199 41.53 69.7699 42.99 70.3099C44.62 70.9099 46.71 69.8899 46.33 67.9799L46.34 67.9699ZM49.74 73.1699C49.53 72.9799 48.9401 72.8499 48.7601 73.1199C48.3701 73.6899 49.3001 74.7999 47.6401 75.4399C45.9501 76.0899 45.71 74.1999 44.86 74.0599C44.4 73.9899 44.4701 74.8899 44.5401 75.1599C44.9401 76.6899 46.8301 77.3599 48.2701 76.8399C49.5601 76.3699 50.8801 74.1799 49.7501 73.1599L49.74 73.1699ZM53.95 79.1199C53.67 78.8099 53.05 78.5699 52.74 78.9799C52.35 79.4699 52.83 80.0099 52.69 80.4799C52.43 81.3399 51.1601 81.1399 50.5301 80.8999C50.0001 80.7099 48.1001 79.1199 48.7601 81.1099C49.1901 82.4099 51.35 83.1199 52.6 82.7499C53.87 82.3699 54.94 80.1999 53.95 79.1199ZM57.9301 83.7799C57.4501 84.0799 58.4201 86.6799 56.5001 86.3599C55.8001 86.2399 55.37 85.6799 54.86 85.3299C54.24 84.8999 54.2801 85.7099 54.3901 86.1199C55.2501 89.2899 60.4801 87.7999 59.2901 84.6599C59.1001 84.1699 58.49 83.4399 57.94 83.7899L57.9301 83.7799ZM69.0001 96.2699C68.4301 96.3299 68.39 96.9199 67.86 97.2399C67.2 97.6399 66.5 97.6699 65.96 97.0399C65.75 96.7899 65.1001 94.8099 64.9201 96.3399C64.5201 99.7399 69.42 99.4999 68.99 96.2699H69.0001ZM39.99 104.45C40.32 104.13 41.5301 103.97 40.7801 103.48C39.3401 102.52 37.8401 104.16 37.9001 105.73C37.9501 107.12 39.3901 108.8 40.7701 108.15C41.3701 107.87 40.27 107.48 40.09 107.3C39.42 106.59 39.25 105.18 39.99 104.46V104.45ZM34.2701 104.28C33.8801 103.98 32.9401 104.19 32.5301 104.42C30.6601 105.46 30.9401 108.75 33.1701 109.21C33.8101 109.34 35.18 109.39 34.85 108.46C33.12 108.72 32.19 106.28 33.47 105.2C33.76 104.96 34.8501 104.73 34.2701 104.28ZM65.2501 104.08C64.9801 103.81 64.5601 104.42 64.5101 104.67C63.5701 109.14 69.36 109.34 69.47 105.18C68.66 104.99 68.82 105.59 68.44 106.11C67.86 106.9 66.94 107.24 66.1 106.59C65.26 105.94 65.34 104.18 65.24 104.08H65.2501ZM47.2801 106.74C47.8401 105.93 45.36 105.54 44.46 106.5C43.11 107.96 43.8001 111.3 46.1801 111.12C45.9801 109.86 44.8501 108.97 45.6801 107.57C46.0601 106.94 47.2201 106.82 47.2801 106.74ZM61.5001 109.4C59.5901 109.52 59.1001 112.91 60.7901 113.63C61.4801 113.93 62.92 113.94 63.07 112.99C60.55 112.85 61.2101 111.19 61.5101 109.39L61.5001 109.4ZM31.1801 112.22C30.3001 112.15 29.5501 112.74 28.6701 112.46C27.3601 112.04 27.5501 110.3 27.2801 110.1C26.4501 109.46 25.74 111.94 27.19 113.16C28.35 114.14 31.1401 114.17 31.1801 112.22ZM24.85 117.22C24.37 117.37 24.6601 118.92 24.8001 119.3C25.4901 121.13 28.2401 120.98 29.3001 119.49C29.6801 118.95 30.08 118 29.23 117.7C28.18 119.12 27.02 120 25.7 118.24C25.44 117.89 25.38 117.05 24.84 117.22H24.85ZM31.2 126.31C30.89 126.49 31.04 127.48 29.7 127.55C28.06 127.64 27.76 126.1 27.19 125.98C26.28 125.78 27.3 127.93 27.58 128.25C28.3 129.06 29.7201 129.15 30.6601 128.67C32.0401 127.96 32.07 125.82 31.19 126.31H31.2ZM32.3001 133.03C32.2201 133.08 32.1201 133.55 32.1301 133.7C32.2801 136 37.0401 136.15 37.4201 133.7C37.5601 132.84 37.4 132.43 36.73 131.91L36.19 133.52C35.14 134.45 34.2201 134.1 33.1501 133.45C32.9401 133.32 32.8001 132.7 32.3001 133.03Z" fill="#00A83C"/>
<path d="M11.33 108.15C11.21 106.28 8.23006 106.09 7.41006 107.44C6.67006 108.66 8.09999 107.87 8.58999 107.83C9.89999 107.72 10.58 108.77 10.69 109.96C10.77 110.82 9.75006 113.55 9.54006 114.69C8.11006 122.67 10.5101 130.46 15.5401 136.67C19.2101 141.2 24.58 143.64 30.23 144.73L28.33 147.75C27.44 149.59 26.49 151.53 26.64 153.64C13.46 150.31 3.26008 137.19 2.56008 123.71C2.21008 116.93 3.59007 111.68 6.92007 105.85C9.37007 101.57 14.01 97.02 14.14 91.96C14.17 90.74 13.84 89.27 13.82 88.06C13.81 87.15 13.96 86.36 13.98 85.47L15.26 87.87C17.14 92.1 17.66 94.26 15.89 98.71C14.79 101.47 13.0701 105.17 11.6701 107.78C11.6101 107.88 11.43 108.22 11.33 108.14V108.15ZM4.61001 116.12C5.70001 115.65 5.46004 114.89 6.89004 115.02C7.89004 115.11 8.3 116.19 8.6 116.12C9.37 115.96 8.65004 113.15 6.64004 113.53C5.50004 113.75 4.43001 114.93 4.61001 116.12ZM8.52004 122.85C8.48004 119.54 4.14007 120.05 4.17007 123.09C4.19007 125.14 5.45005 123.03 5.78005 122.69C7.02005 121.44 8.32004 123.07 8.52004 122.85ZM9.92007 129.41C10.3301 128.99 9.40997 128.12 8.93997 127.97C6.79997 127.27 4.98001 129.17 5.98001 131.09C6.60001 132.28 6.89001 130.52 7.11001 130.11C7.97001 128.5 9.67008 129.67 9.93008 129.41H9.92007ZM13.52 136.14C13.37 133.88 10.19 133.93 9.27004 135.72C8.94004 136.36 8.78999 138.01 9.45999 138.41C10.39 138.97 9.97997 137.62 10.19 136.95C10.81 134.95 13.38 136.29 13.52 136.14ZM15.71 145.21C15.63 144.43 15.66 142.55 16.6 142.27C17.14 142.11 18.31 142.56 18.22 141.69C18.1 140.62 14.63 140.52 14.32 142.95C14.2 143.92 14.54 145.27 15.71 145.2V145.21ZM25.4 145.52C21.46 143.01 19.46 149.51 23.84 149.74C23.63 148.76 22.75 148.19 23.09 147.04C23.43 145.89 25.33 146.87 25.4 145.53V145.52Z" fill="#00A83C"/>
<path d="M13.46 70.8399C14.63 72.0999 15.95 74.9599 16.16 76.6599C16.28 77.6599 15.98 81.9799 18.04 80.8499C19.66 79.9599 20.8099 76.2999 21.5699 74.6899C21.6899 74.6899 22.42 76.1599 22.51 76.4099C23.38 78.8699 23.07 81.6399 21.89 83.9199C21.55 84.5799 20.08 86.4299 20.13 86.9399C20.36 89.1299 24.83 85.5999 25.87 85.7899C25.13 89.4699 22.7 92.7199 18.84 93.2899C18.69 90.0599 16.9299 87.2199 15.6899 84.3299C15.2899 83.3999 14.51 79.8199 13.09 81.9799C11.06 85.0499 12.57 90.3199 11.97 93.7599C9.32996 93.2099 6.88002 92.5299 5.28002 90.2199C5.03002 89.8499 4.43994 88.8999 4.31994 88.5199C4.24994 88.2899 4.32002 88.2599 4.53002 88.3099C5.88002 88.5799 7.21998 88.9599 8.60998 89.0799C10.58 88.1299 7.83004 86.6399 7.05004 85.7899C5.12004 83.6899 4.44001 79.5899 5.02001 76.8799C6.38001 77.5399 7.43995 78.5899 8.45995 79.6899C8.84995 80.1099 9.63997 81.7999 10.23 80.8399C10.65 80.1399 10.6299 76.3699 10.5799 75.3899C10.4999 74.0299 10.25 72.2499 9.86999 70.9399C9.60999 70.0599 9.15998 69.2999 8.85998 68.4399C10.57 68.7099 12.31 69.5699 13.49 70.8399H13.46Z" fill="#F75200"/>
<path d="M44.3101 92.5899C44.3101 92.4899 43.97 92.1699 44.23 92.0399C46.43 93.2999 47.83 95.1299 48.57 97.5499C48.98 98.8899 49.07 100.35 49.45 101.67C50.25 104.48 52.33 102.83 52.99 100.95L54.5 103.5L55.72 105.01C53.96 104.99 52.21 104.69 50.61 103.95C44.15 100.93 41.34 97.2399 33.34 98.8099C24.2 100.61 20.06 110.89 20.87 119.4C20.18 119.35 19.5 119.47 18.84 119.63C18.26 119.78 17.4801 120.27 17.0401 120.34C16.6701 120.39 16.8001 120.07 16.8001 119.79C16.7801 117.62 17.9001 115.09 19.0501 113.29C19.4901 112.61 20.67 111.45 20.72 110.73C20.83 109.16 18.68 109.03 17.59 109.4C17.26 109.03 19.33 106.51 19.7 106.11C20.62 105.11 21.8101 104.13 23.0101 103.48C23.4801 103.23 26.32 102.13 26.36 101.95C26.61 100.77 24.21 99.0199 23.07 99.0799C24.99 97.4899 28.1001 96.4899 30.6301 96.7499C31.4201 96.8299 33.7501 97.7799 34.2601 97.3699C34.7301 96.9899 34.4101 94.9499 34.2801 94.3499C34.0501 93.2499 33.44 92.2999 33.07 91.2599C35.87 91.6599 38.24 92.9999 40.11 95.0899C40.59 95.6299 41.9601 97.8299 42.4101 97.9599C43.4001 98.2499 44.33 96.3299 44.33 95.5599C44.33 94.5999 44.4 93.5299 44.33 92.5899H44.3101Z" fill="#F75200"/>
<path d="M44.9301 31.6999C43.4901 33.0099 43.68 34.9099 43.97 36.6699C40.02 39.2099 37.12 43.93 35.48 48.27C32.92 55.04 33.83 62.2399 36.02 68.9799C35.15 70.2999 34.6301 71.8899 33.6801 73.13C33.1501 69.71 33.38 66.2399 33.52 62.8099C32.88 62.7799 32.29 62.7599 31.75 63.1499L29.3 65.3099C29.6 64.7099 29.39 64.03 29.48 63.38C29.76 61.19 30.5699 59.2799 31.5699 57.3399C32.3299 55.8499 34.1099 53.9699 30.9399 53.8999L26.65 54.7599C27.13 53.0199 28.2 51.4799 29.39 50.1499C30.87 48.4899 32.28 47.6799 34.26 46.7299C35.4 46.1799 36.4599 46.1999 35.3199 44.5299C34.0399 42.6699 31.3599 42.3599 29.3199 42.0899C30.7799 40.1099 34.33 38.0899 36.76 37.8099C37.95 37.6699 41.02 38.2499 41.59 37.0099C42.08 35.9299 40.13 33.1899 39.33 32.3999L36.98 30.6099C39.78 29.6199 42.34 30.8199 44.95 31.6999H44.9301Z" fill="#F75200"/>
<path d="M55.09 34.2L55.87 34.36C55.98 35.16 56.7601 36.76 57.2801 37.41C58.0701 38.38 59.26 38.87 60.23 39.62C59.23 41.64 59.3001 43.81 60.4101 45.78C60.0701 45.99 59.69 46.01 59.32 46.09C59.15 44.67 57.8 44.69 56.62 44.88C53.89 45.31 52.29 48.76 52.64 51.29C52.76 52.2 53.67 54.94 54.94 54.38C54.65 55.23 56.5801 57.11 57.0501 57.82L61.35 61.88C54.65 57.65 49.17 55.86 51.74 46.25C52.06 45.04 53.5 42.37 53.19 41.35C53.04 40.85 50.71 40.31 50.1 40.07C47.82 39.15 46.02 37.49 45.75 34.87C45.53 32.74 48.49 33.12 49.87 32.34C50.42 32.37 52.99 35.38 54 35.7C55.06 36.04 55.42 35.12 55.1 34.21L55.09 34.2ZM48.38 36.7C49.29 36.59 49.1601 35.83 50.1801 36.54C50.5201 36.78 52.6301 39.43 53.0501 38.16C53.4801 36.87 50.0801 34.5 48.9201 34.5C48.1101 34.5 48.28 36.07 48.38 36.7Z" fill="#00A83C"/>
<path d="M55.0899 34.2C54.7699 33.31 53.77 32.8 53.13 32.17C49.23 28.31 45.87 24.03 40.97 21.35C39.35 20.46 37.51 19.9 35.97 18.85C35.66 18.64 33.8399 17.27 34.7099 17.02C35.3799 16.82 38.17 18.69 39.04 19.07C40.97 19.91 44.05 20.85 42.35 17.48C40.27 13.34 37.43 10.12 37.26 5.06001C37.19 3.16001 37.96 0.930007 38.76 4.03001C39.53 7.05001 40.17 13.31 42.97 15.29C46.08 17.49 45.4299 10.44 46.5699 10.44C47.6899 11.7 46.88 13.82 46.81 15.36C46.66 18.76 46.6499 20.59 48.4599 23.55C50.5099 26.91 53.75 29.38 56.81 31.77C56.9 32.09 56.5499 31.99 56.3399 32.23C55.8599 32.78 55.78 33.65 55.88 34.35L55.1 34.19L55.0899 34.2Z" fill="#F75200"/>
<path d="M64.47 48.7399L68.85 53.4299C66.29 53.6399 65.3401 52.1099 63.4301 50.9599C62.2101 50.2299 60.0401 48.9999 59.6701 51.1999C59.2401 53.7499 60.68 56.3999 62.1 58.3899C62.43 58.8499 64.2501 60.8599 64.2901 61.0299C64.3201 61.2099 63.8 63.2099 63.7 63.2799C63.42 63.4699 62.28 62.3699 61.94 62.1499C61.73 62.0099 61.49 61.9599 61.36 61.8799L57.0601 57.8199C56.5901 57.1099 54.67 55.2199 54.95 54.3799C54.97 54.3199 55.42 54.1299 55.38 53.6999C55.35 53.3799 54.7801 52.5999 54.6401 52.0999C54.3001 50.8499 54.4501 49.5799 55.0201 48.4299C55.9701 46.4999 57.44 46.4899 59.32 46.0899C59.7 46.0099 60.0701 45.9899 60.4101 45.7799C61.1401 47.0699 63.03 48.4499 64.47 48.7499V48.7399Z" fill="#F49D00"/>
<path d="M60.25 161.93L59.16 164.12C58.06 164.02 56.64 164.1 55.68 163.93C54.58 163.73 54.6899 163 54.8199 162.05C55.1099 159.96 56.29 158.47 56.01 156.09C55.96 155.7 55.5499 154.72 55.5899 154.53C55.6099 154.43 56.6899 153.29 56.9399 152.91C58.3199 150.76 59.01 147.88 58.54 145.36C62.31 147.59 65.6699 151.25 63.0999 155.78C62.2099 157.36 61.1299 157.86 60.0999 159.03C59.4899 159.73 59.4 161.48 60.26 161.92L60.25 161.93Z" fill="#00A83C"/>
<path d="M90.73 49.1999C91.23 49.2799 91.57 48.9399 92.05 48.8799C93.19 48.7399 94.7899 49.1899 94.9499 50.5199C95.8299 57.8599 81.0199 57.2299 79.8199 52.5199C79.2799 50.3799 80.98 48.7099 83.11 49.0799C83.9 49.2199 84.64 49.9099 85.4 50.0699C86.64 50.3299 86.76 49.8399 86.12 48.8799L84.3299 47.5799C85.4399 45.0699 89.49 44.2099 91.35 46.2999C91.43 46.3899 91.9399 47.1899 91.9399 47.2399C91.9399 47.4499 90.34 48.4799 90.72 49.1899L90.73 49.1999ZM92.72 50.8099C91.72 49.5599 89.53 52.0399 90.23 53.6899C90.62 54.6299 92.4099 54.1099 92.8299 53.4099C93.1199 52.9299 93.04 51.2099 92.72 50.8099ZM82.48 51.2699C82.39 51.3599 82.19 51.9799 82.17 52.1299C81.85 54.5099 85.74 55.3299 85.84 53.3199C85.87 52.6399 84.4599 50.7199 83.8199 50.7899C83.6799 50.7999 82.55 51.2099 82.49 51.2699H82.48Z" fill="#F75200"/>
<path d="M64.47 48.74C69.73 49.85 73.68 44.4099 70.88 40.0599C70.02 38.7199 70.16 39.2999 69.71 37.6299C69.02 35.0899 67.73 33.3499 65.72 31.6999C68.49 31.5199 68.3601 33.4299 69.5601 34.9699C70.6801 36.4099 71.12 35.8099 72.49 36.1099C73.11 36.2499 73.78 37.2199 74.63 37.0199C73.79 38.6699 73.46 40.5399 73.71 42.3999C73.81 43.1799 74.34 43.7899 74.48 44.5199C73.28 44.5799 71.21 46.83 71.74 47.96C72.18 48.87 73.41 47.1499 73.86 46.7999C74.41 46.3799 75.06 46.0999 75.67 45.7899C75.81 45.9299 76.77 46.2499 76.66 46.4699C76.44 46.8899 74.05 47.94 74.79 49.24C75.43 50.3799 76.62 48.2999 76.98 48.0299C77.34 47.7599 77.86 47.7699 78.22 47.5499C78.53 47.3599 78.6801 46.89 78.8101 46.85C79.1701 46.76 81.35 46.79 81.35 47.24C80.86 47.67 80.12 47.6499 79.58 47.9699C78.44 48.6399 77.99 50.1499 77.74 51.3699C75.77 51.2999 73.95 51.56 72.1 52.21C71.02 52.59 69.99 53.3299 68.86 53.4199L64.48 48.7299L64.47 48.74Z" fill="#00A83C"/>
<path d="M63.26 17.27C63.6 17.56 64.36 17.47 64.63 17.08C65.69 15.08 66.37 12.88 67.76 11.06C68.68 11.14 68 12.91 67.8 13.52C66.76 16.8 65.3099 18.54 65.5699 22.39C65.7599 25.19 67.36 27.03 67.76 29.66C67.69 29.73 65.8601 29.54 65.6801 29.48C65.2101 29.32 64.5 26.8 64.25 26.22C62.88 23.08 61.45 21.04 58.86 18.79C57.13 17.28 54.46 16.01 53.86 13.71C54.56 13.03 59.16 18.48 60.39 16.1C60.94 15.03 59.66 12.24 59.34 10.96C58.81 8.84001 58.24 5.03001 59.01 2.99001C59.69 1.17001 60.17 3.63001 60.25 4.43001C60.59 8.06001 60.06 10.99 61.7 14.55C61.85 14.86 63.16 17.17 63.28 17.27H63.26Z" fill="#F75200"/>
<path d="M84.64 104.09C84.29 106.69 83.58 109.18 82.2 111.42C81.97 111.8 80.69 113.58 80.41 113.7C79.59 114.05 76.74 113.46 75.84 113.12C74.6 112.65 73.32 111.7 72.62 110.6C73.97 108.68 74.77 106.41 75.1 104.08C75.91 104.18 76.59 104.51 77.41 104.66C79.79 105.09 82.29 104.53 84.63 104.08L84.64 104.09Z" fill="#FCC300"/>
<path d="M86.04 69.69C86.17 70.39 85.6701 74.14 85.1801 74.38L83.48 72.83C82.88 73.15 83.14 73.84 83 74.39C82.72 75.49 80.8 77.8 79.71 78.13C79.35 78.24 79.51 77.96 79.54 77.8C79.62 77.36 80.3701 74.59 79.5601 74.54C79.2301 74.52 76.44 78.33 75.11 77.66C75.76 75.88 76.54 74.25 75.73 72.34C75.15 72.4 74.84 72.92 74.28 73.15C71.02 74.5 68.7401 70.69 67.8001 68.16C67.2801 66.75 67.14 66.28 68.15 64.99C68.42 64.99 70.77 68.63 71.45 69.19C72.37 69.93 74.37 70.64 75.54 70.89C78.97 71.6 82.93 71.35 86.04 69.69Z" fill="#F49D00"/>
<path d="M84.46 102.34C82.77 102.79 80.99 103.22 79.24 103.15C78.53 103.12 75.86 102.72 75.41 102.29C75.05 101.94 75.4 101.43 75.41 101.03C75.48 98.8299 74.83 97.1999 74.16 95.1699C76.91 95.1599 79.61 94.5899 82.14 93.5199C84.18 95.9499 84.53 99.2799 84.46 102.34Z" fill="#FCC300"/>
<path d="M50.87 59.3699C49.41 59.4299 47.87 59.7899 46.54 60.4399C46.33 60.5399 45.51 61.2199 45.4 61.0899C45.42 60.2599 45.73 59.4699 46.1 58.7399C46.54 57.8799 48.6599 55.7899 48.1899 55.0199C48.1299 54.9099 46.74 54.5299 46.58 54.5299H41.97C42.38 53.0099 43.68 51.6199 44.87 50.6299C45.78 49.8699 47.28 49.2499 47.99 48.5999C49.85 46.8899 44.42 45.9799 43.53 45.8599C45.37 43.9099 48.21 43.6599 50.72 43.2799C49.15 47.8399 48.2599 52.8299 51.1899 57.0399C50.9199 57.0799 51.3899 57.5899 51.4399 57.6499C51.8399 58.1199 52.36 58.4699 52.6 59.0699H50.65L50.88 59.3799L50.87 59.3699Z" fill="#F49D00"/>
<path d="M79.2701 28.3599C79.4701 28.1799 79.59 27.7999 79.87 27.6399C80.77 29.2699 80.09 32.4799 78.85 33.8099C78.64 34.0399 77.0801 35.1199 76.8101 35.2099C76.2001 35.4299 75.8401 35.0899 75.2901 35.0199C73.1201 34.7299 71.47 35.2099 70.45 32.8299C69.18 29.8699 71.5001 28.7099 72.4001 26.2699C72.7901 25.2099 73.05 24.0499 72.75 22.9499C72.99 22.6899 74.44 24.5299 74.6 24.7699C75.31 25.9199 75.7001 27.2699 75.5501 28.6299C75.4701 29.2999 73.93 32.8299 75.45 32.6099C75.94 32.5399 76.99 30.5999 77.44 30.0599C77.98 29.4199 78.65 28.9199 79.26 28.3599H79.2701Z" fill="#F75200"/>
<path d="M68.2199 87.1999C69.7699 87.2599 71.34 86.8899 72.79 86.3799C73.39 86.1699 74.98 85.2499 75.41 85.3899C75.77 85.4999 78.36 88.1399 78.77 88.6099C79.1 88.9799 81.2399 91.7499 81.1899 91.9699C78.8099 93.2499 75.9999 93.5799 73.3299 93.4299C73.0999 93.3599 70.85 90.1499 70.4 89.6299C69.83 88.9599 68.9599 88.3399 68.4499 87.6699C68.3299 87.5099 68.1499 87.4699 68.2199 87.1999Z" fill="#FCC300"/>
<path d="M54.15 138.64C55.45 141.42 56.74 144.25 56.8 147.39C54.74 147.96 52.62 148.11 50.55 147.48C50.3 147.4 49.44 147.12 49.3 147.01C48.95 146.73 49.3 146.29 49.29 145.93C49.25 145.05 49.07 143.96 48.83 143.11C48.51 141.99 47.9101 140.95 47.4301 139.9C49.7401 139.95 52.05 139.62 54.15 138.65V138.64Z" fill="#FCC300"/>
<path d="M91.36 92.83C91.36 92.83 91.9001 91.95 91.9201 91.9C92.2201 91 91.33 88.57 91.23 87.41C91.13 86.25 91.1801 84.22 91.8001 83.17C91.8601 83.07 91.81 82.86 92.07 82.97C92.18 83.02 93.81 84.37 93.84 84.48C94.03 85.08 93.7 86.09 93.71 86.8C93.71 87.35 93.8 88.43 93.87 88.99C94.08 90.9 95.95 87.18 96.25 86.82C96.47 86.55 96.93 85.83 97.33 86.19C97.67 86.49 98.1101 87.28 98.5601 87.6C97.0601 89.51 95.9 90.62 96.45 93.29C96.68 94.43 97.7801 94.95 97.9201 95.43C98.0401 95.85 97.7901 96.05 97.7901 96.18V98.45C96.9201 98.5 95.75 97.86 95.61 96.96C95.5 96.23 95.97 94.71 94.65 95.08C94.47 95.13 94.1701 95.48 94.0401 95.64C93.0001 94.86 92.27 93.76 91.38 92.83H91.36Z" fill="#FCC300"/>
<path d="M81.1801 68.8899C80.9401 69.1699 76.9101 69.2099 76.2901 68.9199C75.8901 67.2099 75.6901 64.3699 73.5401 63.9599C72.8001 63.8199 72.3 64.5099 71.82 65.0699C71.24 65.7399 71.44 66.4399 70.49 65.4599C70.06 65.0199 68.72 63.1499 68.73 62.5899C68.73 62.3399 69.3801 60.6099 69.5501 60.6099C70.4301 60.8899 71.4901 63.6099 71.8101 63.8199C72.1001 63.9999 72.2601 63.8799 72.4301 63.6399C73.2801 62.3999 71.3501 59.7999 70.4201 58.9599C70.9601 58.5499 71.47 57.4099 72.22 57.9399C74.23 60.1499 76.6401 62.1399 78.6201 64.3599C79.1801 64.9799 81.8401 68.0899 81.1801 68.8799V68.8899Z" fill="#F75200"/>
<path d="M38.21 163.65C39.49 165.05 42.5001 164.68 44.3101 165.13C45.1701 165.34 45.75 165.73 46.5 166.15C46.71 166.44 44.84 167.85 44.55 167.86C44.26 167.87 43.68 167.36 43.33 167.21C42.01 166.64 40.62 166.17 39.16 166.3C38.91 166.54 40.66 168.45 40.88 168.88C41.87 170.76 40.73 170.43 39.23 171.11C38.65 170.29 38.36 169.41 37.67 168.64C35.2 165.88 30.8301 165.91 27.4301 165.36C27.7001 163.8 30.03 163.83 31.25 163.97C32.16 164.07 33.67 165.06 34 163.64C34.1 163.72 36.37 164.27 36.58 164.27C37.24 164.27 37.58 163.64 38.22 163.64L38.21 163.65Z" fill="#FCC300"/>
<path d="M40.87 132.23C43.16 132.18 45.43 131.71 47.49 130.69C49.55 132.64 51.6101 134.68 53.0601 137.14C52.9001 137.87 48.6 138.22 47.83 138.16C45.56 137.99 45.58 137.06 44.23 135.66C43.12 134.5 41.91 133.44 40.87 132.22V132.23Z" fill="#FCC300"/>
<path d="M41.1801 119.26C41.2801 119.38 40.87 121.02 40.87 121.37C40.85 122.88 42.26 123.14 39.94 123.71C38.73 124.01 34.6601 124.13 33.9301 122.99C32.8301 121.3 33.07 116.79 34.7 115.34C36.21 117.48 38.6801 118.67 41.1801 119.25V119.26Z" fill="#FCC300"/>
<path d="M78.54 115.19C77.18 116.73 75.11 117.89 73.22 118.7C72.24 119.12 70.66 119.87 69.62 119.65C68.87 119.5 66.1901 118.12 66.1801 117.29C66.1801 117.01 68 115.9 68.38 115.58C68.89 115.15 71.35 112.45 71.6 112.4C72.5 112.81 73.19 113.58 74.11 114.07C75.44 114.77 77.03 115.17 78.54 115.19Z" fill="#FCC300"/>
<path d="M91.36 92.83C92.25 93.77 92.97 94.86 94.02 95.64C92.76 97.19 91.78 99.3799 90.55 101.01C89.61 102.25 88.95 103.21 87.29 102.3C85.95 101.56 86.4001 99.96 86.1801 98.56C86.0401 97.63 85.71 96.74 85.58 95.8C86.84 96.41 86.9799 96.3 88.0699 95.55C88.8399 95.02 90.79 93.44 91.37 92.83H91.36Z" fill="#00A83C"/>
<path d="M76.82 130.2C73.75 127.77 70.4201 125.98 68.0601 122.62C67.9701 122.49 67.8401 122.46 67.9101 122.23L73.51 120.69C74.34 122.14 75.25 123.58 76.22 124.94C76.66 125.55 78.1001 127.68 78.5401 128.02L76.82 130.21V130.2Z" fill="#00A83C"/>
<path d="M61.1899 80.79C63.3199 80.69 65.2299 79.84 67.1899 79.11C67.9999 79.6 73.6999 83.59 73.6899 84C71.5799 85.39 68.92 85.52 66.46 85.61C64.72 84 62.7999 82.54 61.1899 80.8V80.79Z" fill="#FCC300"/>
<path d="M53.38 73.13C55.67 73.5 57.87 73.27 60 72.38L65.5699 77.74C64.2699 78.59 60.58 79.6 59.16 79.16C58.81 79.05 56.89 77.21 56.51 76.81C55.4 75.66 54.45 74.32 53.39 73.13H53.38Z" fill="#FCC300"/>
<path d="M78.54 128.01C79.01 128.38 79.51 128.28 80 127.99C81.84 126.88 82.99 124.45 85.67 124.12C88.28 123.8 87.45 124.41 87.45 126.45H85.1801C84.6001 126.45 81.78 127.44 83.02 128.14C83.55 128.44 84.62 128.52 85.37 128.92C85.71 129.1 86.8601 129.91 86.8101 130.25C86.7801 130.47 85.4999 131.88 85.3199 131.91C84.3399 131.27 82.17 129.82 80.99 130.23C80.8 130.3 79.99 131.5 79.86 131.76C79.62 132.26 79.52 133.16 79.33 133.42C79.18 133.63 77.63 134.39 77.45 134.26C76.85 132.88 78.1699 131.27 76.8199 130.2L78.54 128.01Z" fill="#FCC300"/>
<path d="M56.5 65.3099C57.03 67.3199 58.16 69.0699 59 70.9399C57.44 71.6099 53.19 71.9999 51.89 70.9399C51.26 70.4299 49.09 65.8499 49.47 65.4599C51.85 65.7999 54.16 65.9899 56.5 65.2999V65.3099Z" fill="#FCC300"/>
<path d="M60.25 161.93C60.87 162.25 62.87 162.31 63.59 162.23C66 161.95 70.35 158.7 72.64 159.93C73.27 160.27 72.67 161.48 72.75 162.09C70.7 161.62 68.31 161.58 66.5 162.79C66.43 163.1 66.62 163.01 66.8 163.1C67.77 163.61 71.3 163.74 71.74 164.42C71.97 164.79 70.61 166.6 70.36 166.59C66.8 165.05 62.99 164.48 59.15 164.11L60.24 161.92L60.25 161.93Z" fill="#FCC300"/>
<path d="M59.47 123.78C59.47 123.78 59.68 123.78 59.77 123.88C62.24 126.28 64.74 129.18 64.77 132.84L62.12 133.32C62.12 131.81 61.63 130.16 60.89 128.84C60.57 128.26 59.79 126.79 59.49 128.12C59.17 129.54 59.71 131.3 58.74 132.69C57.83 133.98 57.52 132.45 56.51 132.05C56.71 131.07 57.09 130.17 57.25 129.17C57.36 128.49 57.28 127.4 57.42 126.76C57.59 126.01 58.9 124.4 59.45 123.79L59.47 123.78Z" fill="#FCC300"/>
<path d="M34.9301 125.04C37.4601 125.84 39.8001 125.85 42.1801 124.58L46.1801 129.34C44.6001 130.42 40.68 131 38.99 130.28C37.97 129.85 36.1701 127.22 35.5501 126.22C35.4401 126.04 34.8401 125.13 34.9301 125.04Z" fill="#FCC300"/>
<path d="M56.34 149.27C56.16 151.66 52.86 155.03 50.48 154.9C49.83 154.86 46.6601 153.83 46.5001 153.23C46.3901 152.8 47.1701 152.33 47.4201 152C48.1801 150.99 48.7401 149.9 48.9901 148.64C50.0301 148.89 50.7701 149.34 51.8701 149.41C53.3001 149.51 54.92 149.45 56.33 149.26L56.34 149.27Z" fill="#FCC300"/>
<path d="M64.28 38.92C68.63 38.18 71.88 43.18 68.31 46.08C65.36 48.48 61.02 45.57 61.52 41.95C61.7 40.66 62.97 39.15 64.28 38.93V38.92ZM65.37 40.79C62.42 41.2 62.8399 46.26 66.0999 45.75C68.8199 45.33 68.29 40.38 65.37 40.79Z" fill="#FEF9F2"/>
<path d="M38.8399 81.02C38.8899 80.56 39.82 77.18 40.17 77.19C42.55 80.4 45.2099 83.39 48.2199 86.02C47.7599 86.45 47.36 86.94 47 87.46C46.6 88.05 46.3 88.68 45.88 89.23C45.24 88.06 44.5099 86.97 43.9799 85.74C43.7099 85.12 42.82 81.98 42.65 81.87C42.52 81.78 42.2 81.71 42.04 81.72C41.2 81.76 39.6199 83.9 38.8399 84.39C38.9199 83.31 38.7299 82.09 38.8399 81.03V81.02Z" fill="#F75200"/>
<path d="M93.23 56.71C93.21 57.43 92.4 58.46 91.76 58.75C89.17 59.91 81.64 58.84 78.73 58.16C77.25 57.82 75.48 57.37 74.33 56.39L79.24 55.61C80.73 56.56 82.02 57.21 83.8 57.47C86.87 57.92 90.37 57.99 93.24 56.71H93.23Z" fill="#00A83C"/>
<path d="M63.38 30.6C61.8 29.77 58.94 31.09 57.67 29.82C57.36 29.51 56.73 26.81 56.42 26.06C56.11 25.31 55.65 24.59 55.25 23.87C57.17 24.11 59.1 24.52 60.64 25.75C62.28 27.06 62.6 28.76 63.38 30.59V30.6Z" fill="#F75200"/>
<path d="M67.6 37.32C65.93 36.77 64.77 36.73 63.1 37.28C61.81 37.7 62.19 38.08 60.62 37.35C59.21 36.7 58.5599 35.62 58.0699 34.2C58.9099 33.99 60.9201 35.17 61.5601 34.97C62.3701 34.71 61.2 33.22 60.88 32.87C60.71 32.68 60.4 32.72 60.41 32.48C63.66 31.55 66.51 34.57 67.6 37.32Z" fill="#F49D00"/>
<path d="M78.03 36.58C78.51 36.45 79.1101 36.66 79.5601 36.85C83.3001 38.43 83.34 45.6499 78.34 44.7899C76.29 44.4399 75.3899 41.8999 75.5699 40.0599C75.6799 38.8599 76.83 36.89 78.03 36.58ZM77.88 39.2299C75.48 39.6499 75.66 44.4699 78.6 44.1999C81.62 43.9199 80.89 38.7099 77.88 39.2299Z" fill="#FEF9F2"/>
<path d="M76.32 53.16C76.75 53.14 77.18 53 77.6 53.19C77.83 53.29 78.0701 53.63 77.7601 53.82C77.5101 53.98 75.71 54.01 75.22 54.09C70.17 54.97 68.58 57.92 66.85 62.29C66.26 63.79 66.1201 65.83 64.5501 66.71C64.2101 66.9 62.97 67.48 62.98 66.86C66.53 64.79 65.7801 59.63 68.1401 56.7C69.9601 54.44 73.4901 53.28 76.3101 53.15L76.32 53.16Z" fill="#F75200"/>
<path d="M98.6999 35.13C98.7799 35.22 97.99 36.46 97.89 36.74C95.72 42.84 105.64 43 102.43 49.73C101.6 51.48 99.03 53.14 97.06 52.8C95.32 52.5 98.97 51.71 99.17 51.63C101.52 50.67 102.52 47.9 101.42 45.63C99.95 42.59 96.3999 42.17 96.8299 37.88C96.9499 36.69 97.6099 35.66 98.6999 35.14V35.13Z" fill="#F75200"/>
<path d="M67.29 120.5C65.14 120.87 62.3599 121.27 60.1899 120.96C59.2499 120.83 58.1599 119.57 57.4399 118.94C59.8399 118.81 62.29 118.68 64.54 117.7C65.21 118.87 66.26 119.67 67.29 120.5Z" fill="#FCC300"/>
<path d="M90.73 103.93C90.83 105.51 90.49 107.06 90.26 108.62C89.27 108.34 89.51 106.55 88.11 107.16C87.6 107.38 87.25 110.19 86.59 110.03C86.5 110.01 85.75 108.77 85.58 108.56C85.94 107.04 86.36 105.5 86.35 103.94C87.27 104.43 88.31 104.73 89.36 104.53C89.63 104.48 90.65 103.86 90.72 103.94L90.73 103.93Z" fill="#F75200"/>
<path d="M55.84 61.9099C56.07 62.1299 56.13 63.3599 55.96 63.5999C55.84 63.7799 54.2601 64.0399 53.9201 64.0699C53.1301 64.1299 49.2901 64.0399 48.9101 63.4399C48.7201 63.1299 48.5401 61.9999 48.9201 61.7299C49.6801 61.1999 52.32 61.1699 53.26 61.2699C53.62 61.3099 55.66 61.7599 55.82 61.9099H55.84Z" fill="#FCC300"/>
<path d="M41.95 114.58L42.2 116.44L42.83 118C40.4 117.22 37.58 116.5 35.88 114.48C37.64 113.29 40.07 114 41.95 114.58Z" fill="#FCC300"/>
<path d="M54.62 95.1699C54.38 95.2299 54.37 95.1299 54.24 94.9999C53.48 94.2499 52.2501 92.2799 51.6801 91.3099C50.9901 90.1299 50.4001 88.9499 49.9301 87.6699L55.64 92.3599C55.96 93.0499 54.71 94.3999 54.62 95.1699Z" fill="#F75200"/>
<path d="M17.8199 132.54C18.8499 132.64 19.87 133.08 20.87 133.32C21.06 133.53 19.95 134.42 19.78 134.65C19.25 135.33 18.7001 136.19 18.6801 137.07C17.1801 135.84 16 134.24 15.09 132.54C15.98 132.6 16.95 132.46 17.83 132.54H17.8199Z" fill="#F75200"/>
<path d="M32.12 139.26H29.38C29.04 139.26 26.9401 138.55 26.8001 138.24C26.6801 137.98 28.17 137.24 28.36 136.99L29.22 135.97C29.51 135.97 32.15 138.56 32.11 139.26H32.12Z" fill="#F75200"/>
<path d="M48.0601 155.84C48.1001 156.05 47.78 156.08 47.63 156.11C46.87 156.27 39.3101 156.53 39.3101 155.92C40.2301 155.84 41.07 155.84 41.97 155.61C42.65 155.44 44.82 154.28 45.02 154.29C45.39 154.3 47.1901 156.11 48.0601 155.85V155.84Z" fill="#FCC300"/>
<path d="M15.45 128.53C14.89 129.13 14.33 129.79 13.91 130.51C13.16 129.42 12.71 128.15 12.27 126.92C12.82 126.72 16.33 127.18 16.17 127.92C16.03 128.22 15.64 128.33 15.45 128.53Z" fill="#F75200"/>
<path d="M46.63 116.61C46.7 116.69 46.5599 118.55 46.4899 118.63C46.4499 118.67 45.48 118.63 45.26 118.6C44.87 117.48 43.5899 116.84 43.8299 115.5C44.1599 115.82 46.5199 116.5 46.6199 116.61H46.63Z" fill="#FCC300"/>
<path d="M64.63 134.1C64.33 135.51 63.4299 137.12 61.8199 137.22C62.1899 136.4 62.26 135.47 62.3 134.58L64.63 134.1Z" fill="#FCC300"/>
<path d="M95.89 80.63C96.06 80.77 94.24 82.61 94.48 83.13C94.21 83.03 92.67 82.12 92.61 82.03C92.22 81.46 95.32 80.25 95.89 80.63Z" fill="#FCC300"/>
<path d="M102.14 86.42C101.57 86.25 99.94 86.96 99.59 86.87C99.31 86.8 98.47 85.77 98.23 85.49C99.65 84.96 101.19 85.14 102.14 86.42Z" fill="#FCC300"/>
<path d="M81.98 60.6199C82.05 60.8899 81.87 60.9299 81.75 61.0899C81.57 61.3299 79.9301 62.9099 79.8001 62.8099C79.5301 61.9999 79.67 61.1499 79.64 60.3099L81.98 60.6199Z" fill="#FEF9F2"/>
<path d="M84.48 65.7799C84.61 65.9099 84.73 68.0899 84.62 68.2599L82.45 68.7499C82.32 68.6499 83.95 66.1999 84.12 65.9799C84.2 65.8799 84.24 65.5499 84.48 65.7799Z" fill="#FEF9F2"/>
<path d="M79.62 135.05L80.41 137.23C79.25 137.38 78.41 136.6 77.76 135.75C77.76 135.65 79.41 134.87 79.62 135.06V135.05Z" fill="#FCC300"/>
<path d="M73.22 169.28C72.6 168.77 72.37 167.78 71.5 167.56C71.38 167.39 72.4 166.04 72.67 165.85C73.38 166.96 73.53 168 73.21 169.29L73.22 169.28Z" fill="#FCC300"/>
<path d="M87.6 131.6L87.74 133.85L87.13 135.19C87.24 134.69 86.17 132.99 86.21 132.79C86.23 132.66 87.44 131.43 87.6 131.6Z" fill="#FCC300"/>
<path d="M62.44 55.9299C61.99 55.4099 63.07 55.7999 63.22 55.8599C64.39 56.3299 66.17 57.1299 64.95 58.5199C64.62 58.7499 63.1901 56.4499 62.9201 56.1599C62.7701 55.9999 62.46 55.9599 62.45 55.9399L62.44 55.9299Z" fill="#F75200"/>
<path d="M47.28 170.69C47.03 170.94 47.0101 170.59 46.9301 170.49C46.7501 170.23 45.72 168.7 45.71 168.59L47.04 167.57C47.51 167.99 47.54 170.43 47.27 170.7L47.28 170.69Z" fill="#FCC300"/>
<path d="M41.4999 171.63C41.5499 172.74 40.77 173.83 39.78 174.29C39.95 173.87 39.48 172.5 39.64 172.28C39.7 172.2 41.2299 171.72 41.4999 171.64V171.63Z" fill="#FCC300"/>
<path d="M56.81 133.79C57.24 134.31 55.4099 134.26 55.1899 134.24C54.9799 134.22 53.11 133.71 53.53 133.32L55.4499 132.87C55.6599 133.03 56.73 133.69 56.81 133.79Z" fill="#FCC300"/>
<path d="M100.89 96.11C101.07 96.27 99.57 98.61 98.86 98.3L99.02 95.96L100.89 96.1199V96.11Z" fill="#FCC300"/>
<path d="M90.7299 127.54C90.6599 127.61 88.83 126.85 88.77 126.77C88.47 126.33 88.9399 125.41 88.8599 124.89C89.8299 125.41 90.5199 126.46 90.7299 127.55V127.54Z" fill="#FCC300"/>
<path d="M74.7901 131.45C73.6601 131.57 72.7901 131.6 71.6601 131.38C71.4901 131.35 71.16 131.38 71.2 131.14C71.84 131.41 73.0101 130.2 73.3101 130.2C73.5301 130.2 75.0601 131.23 74.8001 131.45H74.7901Z" fill="#F75200"/>
<path d="M74.48 68.59C73.86 68.82 73.34 68.43 72.76 68.28L73.86 66.1C74.13 66.17 74.21 66.79 74.26 67.03C74.37 67.54 74.37 68.09 74.49 68.6L74.48 68.59Z" fill="#FEF9F2"/>
<path d="M89.6401 61.25C89.7901 61.66 88.7701 63.56 88.3901 63.28C88.1801 62.62 87.8601 61.97 87.9201 61.25H89.6401Z" fill="#FEF9F2"/>
<path d="M75.88 163.03C75.61 162.82 74.11 162.51 74.03 162.38C73.84 162.08 74.2201 161.22 74.1701 160.84C75.1301 161.04 75.86 162.06 75.89 163.03H75.88Z" fill="#FCC300"/>
<path d="M51.1899 57.0199C52.0099 58.2099 52.85 58.8399 54 59.6799C52.95 59.3699 51.96 59.3299 50.87 59.3699L50.64 59.0599H52.59C52.36 58.4599 51.8301 58.1099 51.4301 57.6399C51.3801 57.5799 50.9101 57.0699 51.1801 57.0299L51.1899 57.0199Z" fill="#FCC300"/>
<path d="M53.95 79.12C54.94 80.2 53.87 82.38 52.6 82.75C51.34 83.12 49.19 82.41 48.76 81.11C48.1 79.13 50.0001 80.71 50.5301 80.9C51.1601 81.13 52.44 81.34 52.69 80.48C52.83 80.01 52.35 79.47 52.74 78.98C53.06 78.57 53.67 78.81 53.95 79.12Z" fill="#020201"/>
<path d="M49.7399 73.1699C50.8699 74.1899 49.55 76.3799 48.26 76.8499C46.83 77.3699 44.93 76.6999 44.53 75.1699C44.46 74.8999 44.3999 73.9899 44.8499 74.0699C45.6999 74.2099 45.94 76.0999 47.63 75.4499C49.29 74.8099 48.36 73.6999 48.75 73.1299C48.93 72.8599 49.5199 72.9899 49.7299 73.1799L49.7399 73.1699Z" fill="#020201"/>
<path d="M57.93 83.78C58.48 83.44 59.1 84.16 59.28 84.65C60.47 87.79 55.2399 89.27 54.3799 86.11C54.2699 85.7 54.2399 84.89 54.8499 85.32C55.3599 85.68 55.7899 86.24 56.4899 86.35C58.4099 86.67 57.44 84.08 57.92 83.77L57.93 83.78Z" fill="#020201"/>
<path d="M46.3399 67.97C46.7099 69.88 44.6199 70.9 42.9999 70.3C41.5399 69.76 40.9099 67.81 41.6199 66.45C42.2099 65.32 42.4199 67.44 42.6899 67.95C43.3299 69.19 44.3 69.12 45.4 68.5C45.71 68.33 45.8499 67.84 46.3499 67.96L46.3399 67.97Z" fill="#020201"/>
<path d="M34.27 104.28C34.86 104.73 33.76 104.96 33.47 105.2C32.19 106.28 33.12 108.72 34.85 108.46C35.18 109.39 33.81 109.34 33.17 109.21C30.94 108.75 30.66 105.46 32.53 104.42C32.94 104.19 33.88 103.98 34.27 104.28Z" fill="#020201"/>
<path d="M47.2801 106.74C47.2301 106.82 46.0601 106.94 45.6801 107.57C44.8501 108.97 45.9801 109.86 46.1801 111.12C43.8001 111.31 43.11 107.96 44.46 106.5C45.35 105.54 47.8401 105.92 47.2801 106.74Z" fill="#020201"/>
<path d="M32.3 133.03C32.81 132.71 32.95 133.33 33.15 133.45C34.21 134.1 35.1299 134.44 36.1899 133.52L36.73 131.91C37.41 132.42 37.56 132.84 37.42 133.7C37.03 136.15 32.27 135.99 32.13 133.7C32.13 133.56 32.22 133.08 32.3 133.03Z" fill="#020201"/>
<path d="M24.85 117.22C25.38 117.05 25.4499 117.89 25.7099 118.24C27.0299 119.99 28.19 119.11 29.24 117.7C30.09 118 29.69 118.96 29.31 119.49C28.25 120.98 25.5 121.13 24.81 119.3C24.67 118.93 24.38 117.37 24.86 117.22H24.85Z" fill="#020201"/>
<path d="M39.99 104.45C39.25 105.17 39.42 106.58 40.09 107.29C40.26 107.48 41.37 107.86 40.77 108.14C39.39 108.8 37.95 107.12 37.9 105.72C37.85 104.14 39.34 102.51 40.78 103.47C41.53 103.97 40.32 104.12 39.99 104.44V104.45Z" fill="#020201"/>
<path d="M65.25 104.08C65.35 104.18 65.27 105.93 66.11 106.59C66.95 107.25 67.87 106.9 68.45 106.11C68.83 105.59 68.67 104.99 69.48 105.18C69.37 109.34 63.58 109.14 64.52 104.67C64.57 104.42 64.99 103.82 65.26 104.08H65.25Z" fill="#020201"/>
<path d="M42.59 62.5C42.76 64.28 40.34 64.25 39.32 63.35C38.47 62.6 38.0001 60.7499 38.6801 59.7899C39.4701 58.6799 39.48 60.71 39.58 61.06C39.9 62.21 41.49 62.96 42.6 62.49L42.59 62.5Z" fill="#020201"/>
<path d="M31.18 112.22C31.14 114.17 28.3499 114.14 27.1899 113.16C25.7399 111.94 26.44 109.46 27.28 110.1C27.55 110.3 27.36 112.04 28.67 112.46C29.55 112.74 30.3 112.15 31.18 112.22Z" fill="#020201"/>
<path d="M31.2 126.31C32.07 125.81 32.0501 127.96 30.6701 128.67C29.7301 129.15 28.31 129.06 27.59 128.25C27.31 127.94 26.29 125.78 27.2 125.98C27.77 126.11 28.06 127.64 29.71 127.55C31.05 127.48 30.9 126.49 31.21 126.31H31.2Z" fill="#020201"/>
<path d="M61.5 109.4C61.2 111.2 60.5401 112.85 63.0601 113C62.9101 113.95 61.47 113.93 60.78 113.64C59.1 112.92 59.58 109.53 61.49 109.41L61.5 109.4Z" fill="#020201"/>
<path d="M69.0001 96.2699C69.4301 99.4999 64.5301 99.7399 64.9301 96.3399C65.1101 94.8099 65.76 96.7899 65.97 97.0399C66.5 97.6699 67.2 97.6399 67.87 97.2399C68.4 96.9199 68.4401 96.3299 69.0101 96.2699H69.0001Z" fill="#020201"/>
<path d="M25.4 145.52C25.32 146.87 23.45 145.83 23.09 147.03C22.73 148.23 23.63 148.75 23.84 149.73C19.47 149.5 21.47 143 25.4 145.51V145.52Z" fill="#020201"/>
<path d="M13.52 136.14C13.38 136.28 10.8099 134.95 10.1899 136.95C9.97994 137.63 10.39 138.97 9.45996 138.41C8.78996 138.01 8.95002 136.35 9.27002 135.72C10.19 133.93 13.37 133.88 13.52 136.14Z" fill="#020201"/>
<path d="M15.71 145.21C14.53 145.28 14.2 143.92 14.32 142.96C14.63 140.53 18.1 140.63 18.22 141.7C18.32 142.57 17.14 142.12 16.6 142.28C15.65 142.56 15.63 144.44 15.71 145.22V145.21Z" fill="#020201"/>
<path d="M8.52005 122.85C8.32005 123.07 7.02006 121.43 5.78006 122.69C5.45006 123.02 4.19008 125.14 4.17008 123.09C4.14008 120.05 8.48005 119.54 8.52005 122.85Z" fill="#020201"/>
<path d="M9.92004 129.41C9.67004 129.67 7.95997 128.5 7.09997 130.11C6.87997 130.52 6.58996 132.28 5.96996 131.09C4.97996 129.16 6.79005 127.27 8.93005 127.97C9.40005 128.12 10.32 128.99 9.91003 129.41H9.92004Z" fill="#020201"/>
<path d="M4.61003 116.12C4.43003 114.92 5.49005 113.74 6.64005 113.53C8.65005 113.15 9.37002 115.96 8.60002 116.12C8.30002 116.18 7.90005 115.1 6.89005 115.02C5.47005 114.9 5.70003 115.66 4.61003 116.12Z" fill="#020201"/>
<path d="M59.3101 46.0799C57.4301 46.4799 55.96 46.4899 55.01 48.4199C54.44 49.5699 54.3 50.8399 54.63 52.0899C54.76 52.5799 55.34 53.3699 55.37 53.6899C55.41 54.1199 54.9599 54.3099 54.9399 54.3699C53.6699 54.9299 52.76 52.1899 52.64 51.2799C52.29 48.7499 53.89 45.2999 56.62 44.8699C57.8 44.6799 59.1499 44.6699 59.3199 46.0799H59.3101Z" fill="#020201"/>
<path d="M48.38 36.7C48.28 36.08 48.1101 34.51 48.9201 34.5C50.0801 34.5 53.4801 36.87 53.0501 38.16C52.6301 39.43 50.5201 36.78 50.1801 36.54C49.1601 35.82 49.29 36.59 48.38 36.7Z" fill="#020201"/>
<path d="M82.48 51.27C82.54 51.21 83.6801 50.8 83.8101 50.79C84.4501 50.72 85.87 52.64 85.83 53.32C85.73 55.33 81.8401 54.52 82.1601 52.13C82.1801 51.98 82.39 51.35 82.47 51.27H82.48Z" fill="#020201"/>
<path d="M92.72 50.8099C93.04 51.2099 93.12 52.9299 92.83 53.4099C92.4 54.1199 90.62 54.6299 90.23 53.6899C89.53 52.0299 91.72 49.5599 92.72 50.8099Z" fill="#020201"/>
<path d="M65.37 40.79C68.29 40.38 68.82 45.33 66.1 45.75C62.84 46.26 62.42 41.2 65.37 40.79Z" fill="#020201"/>
<path d="M77.88 39.2299C80.89 38.7099 81.62 43.9099 78.6 44.1999C75.65 44.4799 75.48 39.6499 77.88 39.2299Z" fill="#020201"/>
</svg>
