<svg width="101" height="71" viewBox="0 0 101 71" fill="none" xmlns="http://www.w3.org/2000/svg">
<path d="M92.99 10.28C92.96 10.48 93.25 10.39 93.37 10.38C94.89 10.22 98.27 8.82 98.4 11.48C98.55 14.41 93.49 17.04 91.26 18.09C91.13 18.15 90.86 18.17 90.85 18.18C90.79 18.24 90.78 18.43 91.01 18.4C92.17 18.25 94.77 17.64 95.11 19.28C95.63 21.8 92.06 24.16 90.13 25.09C87.52 26.35 84.64 26.99 81.81 27.55C82.63 28.3 82.11 29.54 81.87 30.48C80.44 36.05 76.75 42.19 72.5 46.06L70.97 47.35C76.51 49.01 81.34 51.55 87.18 52.25C88.61 52.42 90.06 52.37 91.45 52.49C93.72 52.69 93.59 54.28 91.93 55.33C90.12 56.47 87.51 56.98 85.43 57.35C85.5 58.72 83.88 59.13 82.82 59.43C79.49 60.37 75.96 60.26 72.55 59.94C73.39 62.12 76.11 61.95 77.88 62.67C80.06 63.56 79.76 65.77 78 66.91C76.68 67.76 75.1 67.9 73.56 67.84C73.25 70.3 70.09 70.29 68.23 69.72C67.4 69.47 66.02 68.74 65.43 68.11C65.24 67.9 64.81 67.1 64.68 67.06C64.21 66.9 63.41 67.16 62.89 67.16C62.49 67.16 61.74 67.08 61.33 67.02C57.87 66.59 54.61 64.67 52.6 61.84C48.45 62.38 44.25 62.25 40.1 61.84C35.47 61.39 31.14 60.79 26.44 60.49C24.73 60.38 22.54 59.68 21.04 60.74C20.15 61.36 19.38 63.99 17.98 61.96C16.79 60.23 17.68 57.26 18.77 55.66C19.68 54.33 20.7 53.75 21.81 52.72C22.28 52.28 22.53 51.78 22.93 51.36C25.98 48.17 30.07 46.52 34.39 45.83C34.55 45.68 33.33 44.1 33.14 43.86C32.47 42.99 31.73 42.19 30.94 41.43C29.93 42.9 28.63 44.46 27.01 45.29C25.57 46.02 24.06 45.99 24.06 44.03C22.87 45.63 19.85 49.04 17.6 47.78C15.9 46.82 18.04 44.18 18.08 42.79C16.89 44.19 15.58 45.71 14.13 46.85C13 47.74 10.72 49.26 9.34 48.15C7.96 47.04 9.67 44.74 9.9 43.47C8.06 45.08 4.06999 47.85 1.54999 46.91C-0.400011 46.18 0.0200077 44.29 1.10001 42.96C2.42001 41.34 4.07 39.78 5.44 38.16C7.17 36.12 8.79001 33.7 10.57 31.78C13.21 28.93 18.36 29.01 22.02 28.9C31.69 28.6 41.59 29.74 50.64 33.19C51.83 29.82 52.41 26.28 52.88 22.74C53.49 18.25 52.65 16.52 57.11 14.1C68.55 7.87999 81.03 6.35 93.17 2.3C94.66 1.8 97.28 0.539995 98.68 0.359995C100.81 0.0899953 100.93 2.07 100.36 3.62C99.33 6.45 96.05 8.81 93.47 10.16C93.32 10.24 93.15 10.28 92.97 10.29L92.99 10.28ZM41.52 47.52C36.85 47.17 28.17 48.77 24.87 52.37C23.74 53.6 24.24 53.36 24.68 54.6C25.12 55.84 24.93 57.05 24.93 58.36C27.05 58.53 29.19 58.52 31.31 58.7C34.46 58.97 37.58 59.54 40.74 59.83C45.43 60.26 49.77 60.41 54.4 59.32C55.73 59.01 57.34 58.28 58.54 58.05C58.84 57.99 59.04 57.98 59.31 58.13C59.77 58.39 60.79 59.64 61.4 60.1C63.64 61.8 66.63 62.64 69.45 62.3C70.09 62.22 70.89 61.94 70.85 61.15C70.03 59.64 69.1 58.21 67.99 56.89C67.54 56.35 66.26 55.61 66.91 54.8C67.76 53.76 69.56 55.82 70.13 56.44C70.37 56.7 70.61 57.21 70.86 57.41C71.23 57.72 73.47 57.97 74.08 58.02C75.94 58.19 78.72 58.25 80.51 57.79C80.67 57.75 80.86 57.79 80.91 57.57C79.62 57.61 78.33 57.34 77.07 57.06C76.26 56.88 72.87 55.97 72.44 55.48C72.09 55.08 72.12 54.28 72.66 54.11C73.15 53.96 75.94 54.79 76.71 54.93C80.15 55.56 83.64 55.46 87 54.51L83.61 53.89C76.25 51.74 69.34 48.64 61.65 47.52C60.7 46.87 60.84 45.81 62.1 45.7C62.72 45.65 63.71 45.76 64.36 45.82C65.67 45.93 66.98 46.22 68.29 46.37L69.5 45.43C68.24 44.75 64.51 42.81 64.14 41.43C63.96 40.78 64.31 40.11 65.04 40.19C65.49 40.24 68.06 42.23 68.8 42.65C69.63 43.12 70.52 43.51 71.39 43.9C71.63 43.92 73.11 42.26 73.34 41.94C71.35 41.03 69.43 39.94 67.81 38.44C67.22 37.89 65.62 36.42 66.18 35.57C67 34.32 68.97 36.6 69.68 37.14C71.25 38.33 72.94 39.41 74.85 39.97L77.18 36.07C74.53 35.47 71.77 34.35 69.58 32.72C68.96 32.26 67.64 31.36 68.21 30.49C68.64 29.83 69.15 30.04 69.73 30.31C71.16 30.98 72.53 32.1 74.05 32.76C75.37 33.34 76.76 33.7 78.19 33.87C78.34 33.29 79.79 29.59 79.55 29.35C77.26 29.18 74.56 28.59 72.51 27.53C71.8 27.16 70.79 26.26 71.7 25.51C72.29 25.03 74.36 25.48 75.2 25.51C77.98 25.61 81.13 25.26 83.84 24.66C86.8 24 90 22.87 92.19 20.71C90.97 20.73 89.73 21.05 88.51 21.2C85.3 21.59 81.71 21.82 78.48 21.67C77.82 21.64 76.62 21.57 76.01 21.43C74.68 21.11 74.98 19.41 75.91 19.21C77.01 18.97 78.62 19 79.82 18.83C82.71 18.42 85.79 17.6 88.53 16.59C91.03 15.66 93.69 14.45 95.47 12.41C89.61 13.5 83.73 14.42 77.81 15.13C76.75 15.13 76.14 14.07 76.8 13.21C80.53 12.24 84.23 11.19 87.83 9.79C90.48 8.76999 93.86 7.40999 95.99 5.52999C96.31 5.24999 97.49 4.07999 97.62 3.77999C97.68 3.63999 97.59 3.57 97.45 3.61C88.29 7.4 78.31 8.52999 69 11.85C65.83 12.98 62.44 14.43 59.42 15.93C57.69 16.79 56.29 17.27 55.88 19.39C55.5 21.34 55.48 23.62 55.14 25.65C53.89 33.18 50.07 43.63 42.83 47.32C42.13 47.67 42.25 47.58 41.51 47.53L41.52 47.52ZM19.18 31.61C20.37 31.91 21.63 32.44 22.75 32.95C28.76 35.66 33.76 39.83 37.19 45.49C38.46 45.42 39.87 45.17 41.13 45.27C41.46 45.3 41.77 45.5 41.92 45.5C42.29 45.5 44.85 42.96 45.25 42.51C47.14 40.41 48.67 37.95 49.87 35.4C41.12 31.72 31.36 30.89 21.93 31.28L19.17 31.62L19.18 31.61ZM15.11 32.74C14.7 32.76 13.34 32.41 13.08 32.57C9.71999 36.81 6.25999 40.97 2.57999 44.93C6.34999 44.04 9.23001 41.1 11.54 38.15C12.53 36.89 13.59 35.41 14.43 34.04C14.56 33.84 15.22 32.86 15.11 32.74ZM20.42 34.66L17.6 33.53L11.55 45.94C15.6 43.22 18.13 38.86 20.41 34.66H20.42ZM25.04 36.7C24.39 36.57 23.77 35.97 23.2 35.76C23.08 35.72 23.08 35.6 22.96 35.78L19.46 45.71C22.36 43.57 24 40.06 25.04 36.69V36.7ZM29.45 39.85C29.11 39.82 27.49 38.17 27.31 38.38L26.29 43.46C27.56 42.49 28.78 41.34 29.45 39.85ZM23.01 54.52C21.08 55.38 19.86 57.4 19.63 59.49C20.72 58.63 22.06 58.12 23.47 58.14C23.66 56.85 23.56 55.72 23.02 54.53L23.01 54.52ZM66.24 64.23C63.27 63.71 60.64 62.54 58.6 60.29C57.33 60.48 56.15 61.19 54.84 61.29C56.93 63.74 60.73 65.13 63.93 64.91C64.6 64.86 65.75 64.69 66.24 64.23ZM77.42 64.57C75.9 64.51 74.56 64.27 73.17 63.69C72.95 63.6 72.22 63.13 72.15 63.12C72.04 63.1 70.9 64.22 70.42 64.01C70.18 64.27 71.57 65.04 71.73 65.12C73.05 65.73 74.86 65.91 76.26 65.51C76.69 65.38 77.46 65.13 77.41 64.58L77.42 64.57ZM68.27 64.46C67.86 64.19 67.54 65.46 67.35 65.74C67.19 65.98 66.93 66.13 66.8 66.32C66.69 66.48 66.66 66.37 66.8 66.55C67.47 67.39 71.04 68.46 71.72 67.51C71.78 67.43 71.84 67.31 71.72 67.28C70.63 66.88 69.52 66.41 68.8 65.47C68.62 65.23 68.32 64.5 68.28 64.47L68.27 64.46Z" fill="#0F0E09"/>
<path d="M41.52 47.52C42.26 47.58 42.14 47.67 42.84 47.31C50.08 43.62 53.9 33.17 55.15 25.64C55.49 23.61 55.51 21.33 55.89 19.38C56.3 17.26 57.7 16.79 59.43 15.92C62.44 14.42 65.84 12.97 69.01 11.84C78.32 8.53005 88.3 7.39005 97.46 3.60005C97.6 3.55005 97.69 3.63005 97.63 3.77005C97.5 4.08005 96.31 5.24005 96 5.52005C93.87 7.39005 90.49 8.75005 87.84 9.78005C84.24 11.17 80.55 12.22 76.81 13.2C76.15 14.06 76.76 15.1301 77.82 15.1201C83.74 14.4101 89.63 13.4901 95.48 12.4001C93.7 14.43 91.04 15.6501 88.54 16.5801C85.8 17.5901 82.72 18.41 79.83 18.82C78.63 18.99 77.02 18.96 75.92 19.2C74.99 19.4 74.69 21.1 76.02 21.42C76.62 21.57 77.83 21.6301 78.49 21.6601C81.73 21.8101 85.31 21.5801 88.52 21.1901C89.74 21.0401 90.98 20.71 92.2 20.7C90.01 22.86 86.81 23.9901 83.85 24.6501C81.14 25.2501 77.99 25.6 75.21 25.5C74.38 25.47 72.31 25.01 71.71 25.5C70.8 26.24 71.8 27.15 72.52 27.52C74.57 28.58 77.27 29.17 79.56 29.34C79.8 29.58 78.35 33.2801 78.2 33.8601C76.77 33.6901 75.38 33.33 74.06 32.75C72.54 32.08 71.17 30.9701 69.74 30.3001C69.16 30.0301 68.65 29.8201 68.22 30.4801C67.65 31.3501 68.97 32.25 69.59 32.71C71.78 34.34 74.54 35.46 77.19 36.06L74.86 39.96C72.95 39.39 71.26 38.32 69.69 37.13C68.98 36.59 67.01 34.31 66.19 35.56C65.63 36.41 67.23 37.8801 67.82 38.43C69.44 39.93 71.36 41.0101 73.35 41.93C73.12 42.25 71.64 43.91 71.4 43.89C70.53 43.5 69.64 43.1101 68.81 42.64C68.08 42.2201 65.51 40.23 65.05 40.18C64.33 40.1101 63.98 40.77 64.15 41.42C64.52 42.8 68.25 44.74 69.51 45.42L68.3 46.3601C66.99 46.21 65.68 45.93 64.37 45.81C63.72 45.75 62.73 45.6401 62.11 45.6901C60.85 45.8001 60.71 46.8601 61.66 47.5101C69.35 48.6301 76.26 51.73 83.62 53.88L87.01 54.5C83.65 55.4501 80.16 55.55 76.72 54.92C75.95 54.78 73.16 53.9501 72.67 54.1001C72.12 54.2701 72.1 55.07 72.45 55.4701C72.88 55.9601 76.27 56.8701 77.08 57.0501C78.34 57.3301 79.63 57.6 80.92 57.56C80.88 57.79 80.68 57.74 80.52 57.78C78.73 58.23 75.94 58.17 74.09 58.01C73.47 57.95 71.24 57.7 70.87 57.4C70.63 57.2 70.39 56.69 70.14 56.43C69.56 55.81 67.77 53.75 66.92 54.79C66.26 55.6 67.54 56.3401 68 56.8801C69.11 58.1901 70.03 59.6301 70.86 61.14C70.9 61.92 70.1 62.21 69.46 62.29C66.64 62.63 63.65 61.79 61.41 60.09C60.8 59.63 59.77 58.38 59.32 58.12C59.05 57.96 58.85 57.98 58.55 58.04C57.34 58.27 55.74 59 54.41 59.31C49.79 60.39 45.44 60.2501 40.75 59.8201C40.57 59.4701 40.41 59.08 40.17 58.76C40.05 58.6 39.59 58.3701 39.74 58.2401C39.78 58.2001 40.61 58.1201 40.84 58.0501C41.84 57.7401 42.36 57.28 42.22 56.15C42.12 55.31 41.16 54.7201 40.6 54.1901C40.33 53.9401 41.01 53.76 41.24 53.59C41.88 53.13 42.57 52.6701 42.44 51.7601C42.26 50.4601 40.34 50.49 39.4 50.17C39.56 49.58 41.77 48.77 41.86 48.63C42.04 48.34 41.8 47.74 41.54 47.52H41.52ZM47.93 49.3601C45.79 49.7001 45.62 51.8701 48.32 51.3301C49.04 51.1901 49.88 51.0101 49.76 50.0801C49.65 49.2101 48.57 49.2601 47.93 49.3601ZM43.92 53.53C43.76 53.69 43.73 54.35 43.8 54.56C43.97 55.05 46.49 55.5001 46.78 54.5201C47.18 53.1901 44.44 53.01 43.92 53.53ZM50.3 53.99C49.55 54.09 49.03 54.2701 49.2 55.14C49.37 56.01 52.25 55.9901 52.25 54.8001C52.25 53.9101 50.94 53.9001 50.3 53.9801V53.99Z" fill="#77451E"/>
<path d="M19.1799 31.61L21.9399 31.27C31.3699 30.89 41.1299 31.71 49.8799 35.39C48.6799 37.95 47.1499 40.4 45.2599 42.5C44.8599 42.95 42.2999 45.48 41.9299 45.49C41.7799 45.49 41.47 45.29 41.14 45.26C39.88 45.16 38.47 45.41 37.2 45.48C33.76 39.82 28.7699 35.66 22.7599 32.94C21.6299 32.43 20.3699 31.9 19.1899 31.6L19.1799 31.61Z" fill="#613714"/>
<path d="M41.52 47.52C41.78 47.74 42.02 48.34 41.84 48.63C41.75 48.77 39.54 49.58 39.38 50.17C40.32 50.49 42.24 50.46 42.42 51.76C42.55 52.67 41.86 53.13 41.22 53.59C40.99 53.76 40.31 53.93 40.58 54.19C41.14 54.72 42.1 55.31 42.2 56.15C42.33 57.27 41.82 57.74 40.82 58.05C40.59 58.12 39.76 58.21 39.72 58.24C39.57 58.38 40.04 58.61 40.15 58.76C40.39 59.08 40.55 59.46 40.73 59.82C37.58 59.53 34.45 58.96 31.3 58.69C29.18 58.51 27.04 58.52 24.92 58.35C24.92 57.04 25.12 55.86 24.67 54.59C24.22 53.32 23.74 53.59 24.86 52.36C28.16 48.76 36.84 47.16 41.51 47.51L41.52 47.52ZM31.68 52.52C30.93 51.77 30.1 53.48 29.27 53.61C28.29 53.76 27.64 53.13 27.27 53.18C26.56 53.29 26.51 54.13 26.96 54.58C27.85 55.48 29.74 55.31 30.73 54.61C31.24 54.25 32.33 53.16 31.68 52.51V52.52Z" fill="#EFD2B4"/>
<path d="M15.11 32.74C15.23 32.86 14.56 33.84 14.43 34.04C13.58 35.4 12.53 36.88 11.54 38.15C9.22998 41.11 6.34996 44.05 2.57996 44.93C6.25996 40.97 9.71996 36.81 13.08 32.57C13.34 32.41 14.7 32.76 15.11 32.74Z" fill="#613714"/>
<path d="M66.24 64.23C65.76 64.69 64.6 64.86 63.93 64.91C60.73 65.14 56.93 63.74 54.84 61.29C56.15 61.19 57.33 60.48 58.6 60.29C60.64 62.54 63.28 63.71 66.24 64.23Z" fill="#613714"/>
<path d="M23.01 54.52C23.55 55.71 23.66 56.84 23.46 58.13C22.05 58.11 20.72 58.63 19.62 59.48C19.85 57.39 21.07 55.38 23 54.51L23.01 54.52Z" fill="#EDA720"/>
<path d="M77.42 64.57C77.47 65.13 76.7 65.38 76.27 65.5C74.87 65.91 73.06 65.72 71.74 65.11C71.57 65.03 70.18 64.26 70.43 64C70.91 64.21 72.05 63.09 72.16 63.11C72.23 63.12 72.95 63.59 73.18 63.68C74.58 64.27 75.92 64.51 77.43 64.56L77.42 64.57Z" fill="#EDA720"/>
<path d="M68.27 64.46C68.27 64.46 68.61 65.22 68.79 65.46C69.51 66.41 70.62 66.87 71.71 67.27C71.84 67.3 71.78 67.42 71.71 67.5C71.03 68.45 67.46 67.38 66.79 66.54C66.65 66.36 66.68 66.47 66.79 66.31C66.92 66.12 67.18 65.96 67.34 65.73C67.52 65.45 67.85 64.18 68.26 64.45L68.27 64.46Z" fill="#EDA720"/>
<path d="M29.45 39.8499C28.79 41.3399 27.57 42.4899 26.29 43.4599L27.31 38.3799C27.5 38.1699 29.11 39.8299 29.45 39.8499Z" fill="#613714"/>
<path d="M25.04 36.7C24 40.07 22.36 43.57 19.46 45.72L22.96 35.79C23.09 35.61 23.08 35.72 23.2 35.77C23.77 35.98 24.39 36.57 25.04 36.71V36.7Z" fill="#613714"/>
<path d="M20.4201 34.66C18.1301 38.86 15.6101 43.22 11.5601 45.94L17.61 33.53L20.4301 34.66H20.4201Z" fill="#613714"/>
<path d="M47.93 49.3599C48.57 49.2599 49.65 49.2099 49.76 50.0799C49.88 51.0099 49.03 51.1899 48.32 51.3299C45.62 51.8699 45.79 49.6999 47.93 49.3599Z" fill="#0F0E09"/>
<path d="M43.92 53.53C44.44 53.01 47.18 53.19 46.78 54.52C46.49 55.5 43.97 55.04 43.8 54.56C43.73 54.35 43.77 53.69 43.92 53.53Z" fill="#0F0E09"/>
<path d="M50.3 53.99C50.94 53.91 52.25 53.92 52.25 54.81C52.25 55.99 49.37 56.0199 49.2 55.1499C49.03 54.2799 49.54 54.1 50.3 54V53.99Z" fill="#0F0E09"/>
<path d="M31.68 52.52C32.33 53.16 31.24 54.26 30.73 54.62C29.74 55.32 27.85 55.49 26.96 54.59C26.52 54.14 26.56 53.3 27.27 53.19C27.64 53.14 28.29 53.77 29.27 53.62C30.1 53.49 30.93 51.78 31.68 52.53V52.52Z" fill="#0F0E09"/>
</svg>
