<svg width="112" height="87" viewBox="0 0 112 87" fill="none" xmlns="http://www.w3.org/2000/svg">
<path d="M0.57992 38.1499C0.62992 36.3199 2.2899 36.7399 3.4399 36.5899C4.5899 36.4399 8.06995 35.4499 8.73995 34.6299C9.17995 34.0799 9.94996 30.2599 10.25 29.2499C11.87 23.7799 14.6499 15.4699 18.5899 11.3799C19.4499 10.4799 20.8 9.64991 21.55 8.79991C22.07 8.20991 22.5399 7.20991 23.0899 6.51991C27.7599 0.609912 36.5199 -1.13007 42.8599 3.22993C43.4799 3.64993 45.22 5.38992 45.67 5.46992C46.04 5.52992 46.62 5.48992 47.01 5.46992C49.42 5.37992 51.96 4.83993 54.39 4.72993C63.1 4.34993 73.52 4.43994 82.02 6.38994C94.18 9.17994 103.94 20.0999 106.22 32.2599C106.84 35.5499 106.99 42.3399 108.91 44.8199C109.82 45.9899 111.6 46.4799 111.27 48.3099C111.1 49.2599 110.14 49.4599 109.33 49.6299C109.21 49.7999 110.67 52.7399 110.25 53.5699C109.95 54.1599 108.66 53.8899 108.17 53.6799C106.07 52.7699 105.19 49.7799 104.91 47.7099C104.79 46.8599 104.88 45.7999 104.74 45.0499C104.6 44.2999 103.56 42.0099 103.19 41.1899C103.13 41.0499 103.1 40.7599 102.93 40.7799C102.65 46.9299 100.59 53.1299 100.83 59.2999C101.05 64.7699 102.63 70.0799 103.51 75.4499C103.88 77.6999 104.97 82.6599 103.11 84.3299C101.1 86.1399 93.8999 86.4999 91.3299 86.0199C90.1199 85.7899 88.54 85.2399 88.31 83.8699C87.95 81.7199 89.47 78.4499 89.74 76.1299C90.0099 73.8099 89.68 71.5699 88.63 69.3999L85.76 64.3999C85.56 64.3999 85.4899 67.3999 85.4499 67.7799C85.2699 69.7899 84.9599 71.7999 84.8399 73.8099C84.6899 76.1899 84.9099 78.8899 84.5899 81.1899C84.4099 82.4899 84.0599 83.3799 82.8599 84.0099C80.4299 85.2899 74.46 85.3399 71.8 84.7599C70.6 84.4999 69.74 84.1399 69.42 82.8299C68.83 80.3699 71.51 76.7699 72.25 74.2699C74.04 68.2599 72.07 64.9199 70.41 59.4499C70.29 59.0599 70.2 58.2099 70.05 57.9599C69.83 57.5899 68.31 57.7899 67.79 57.7499C65.25 57.5799 62.74 57.1899 60.29 56.5199C60.21 56.5199 60.03 57.8599 60 58.0799C59.29 63.2999 59.09 68.5599 59.49 73.8099C59.72 76.7799 60.7399 80.2799 60.4799 83.1699C60.3499 84.5999 59.51 85.2799 58.26 85.7399C55.36 86.8099 49.07 87.2799 46.28 85.9099C45.67 85.6099 45.37 85.3499 45.16 84.6999C44.49 82.6599 46.29 79.2299 46.67 77.0999C47.45 72.6599 45.06 68.1999 44.3 63.9099C42.53 68.0699 41.45 72.4899 41.16 77.0199C41.06 78.6499 41.21 80.5699 41.02 82.1699C40.91 83.0899 40.2699 83.8699 39.4699 84.3099C36.8899 85.7399 28.43 86.2699 26.27 84.0199C24.11 81.7699 27.9699 77.9299 28.6999 75.8699C30.2199 71.5599 30.0799 65.0799 30.5899 60.4099C31.1999 54.8299 32.45 49.3399 32.77 43.7399L29.92 42.5199C27.35 44.5199 23.91 47.1099 23.56 41.7599L21.5 42.7199L21.1899 43.0299C19.3899 48.0999 17.98 53.4899 18.14 58.9299C18.18 60.3899 18.4999 64.1299 20.2299 64.5899C21.7399 64.9899 21.37 63.5899 21.74 62.6399C22.57 60.5199 26.09 60.6299 27.03 62.8399C28.85 67.1499 24.6 71.9999 20.3 72.3899C7.16001 73.6099 6.49992 53.7299 6.94991 45.0099C6.96991 44.6099 7.29991 42.2299 7.19991 42.1199C5.16992 42.3599 0.50991 40.5399 0.56991 38.1299L0.57992 38.1499ZM37.53 8.40993C39.19 7.96993 41.3899 7.21993 42.8599 6.34993C42.9299 6.30993 43.1 6.34994 43.02 6.13994C42.94 5.92994 42.1799 5.40991 41.9499 5.23991C36.8599 1.52991 29.25 2.71992 25.18 7.36992C25.04 7.52992 24.1799 8.52993 24.3199 8.65993C28.6899 9.28993 33.23 9.53993 37.54 8.40993H37.53ZM58.55 14.9599C58.71 15.6899 59.4599 19.0399 59.1899 19.4899C59.0599 19.7099 57.99 19.9699 57.79 19.8399C57.53 19.6699 57.24 16.1099 57.14 15.5099C56.65 12.5399 55.8 9.78992 54.79 6.96992C54.41 6.65992 54.02 6.92992 53.65 6.93993C53.37 6.93993 51.61 6.85993 51.62 7.12993C52.65 9.34993 53.41 11.6899 54.05 14.0499C55.35 18.7999 57.04 24.4099 56.06 29.2699C56.54 33.0699 56.1499 37.4299 56.8499 41.1499C57.9899 47.1799 64.86 46.9799 69.77 47.1699C76.87 47.4499 88.1 48.7999 89.26 39.3399C90.12 32.3299 88.2899 20.2699 86.1099 13.4899C85.8499 12.6799 84.8599 9.81992 84.3599 9.33992C83.8599 8.85992 80.66 8.26991 79.81 8.10991C72.12 6.66991 64.11 6.83993 56.31 6.81993C57.07 9.52993 57.97 12.1999 58.56 14.9599H58.55ZM11.9499 41.1499C10.7099 38.3799 14.97 38.0799 16.63 37.4599C19.31 36.4599 19.5599 35.8599 21.4799 34.0699C24.7499 31.0399 28.7399 33.2099 27.1099 37.6099C26.7199 38.6499 25.7199 39.5999 25.5699 40.7499C25.4999 41.2699 25.5999 42.8299 26.3599 42.5299C27.1199 42.2299 28.6099 40.7199 29.2299 40.0999C29.6399 39.6899 30.45 38.2399 31.15 38.7899C31.58 39.1299 31.0699 40.2699 31.0799 40.7699L36.37 42.1899C43.11 44.2999 44.07 53.7699 45.43 59.5799C46.52 64.2299 49.8699 73.8699 48.8299 78.1499C48.5799 79.1799 47.9899 80.1099 47.6899 81.1299C48.2999 80.9699 49.5099 82.0999 49.8399 82.1099C50.0799 82.1099 50.7699 81.5699 51.1999 81.5099C52.5199 81.3099 53.87 82.0899 54.55 83.1799C55.1 84.0599 54.6599 84.4299 55.9699 84.3099C56.6899 84.2399 58.1399 83.8899 58.3199 83.0999C58.7399 81.2999 57.92 79.0099 57.66 77.2399C56.74 70.9199 56.94 63.4099 58.05 57.1199C58.24 56.0299 58.53 53.9999 58.9 53.0499C59.05 52.6799 59.2899 52.3499 59.6899 52.2499C61.1199 51.8799 60.3199 54.1299 60.4699 54.3099C60.5499 54.3999 62.47 54.8299 62.78 54.8999C67.58 55.9599 72.9999 55.8199 77.8599 55.1699C78.2799 55.1099 81.15 54.6999 81.24 54.5599C81.32 53.8299 80.95 53.1399 80.89 52.4199C80.82 51.6099 80.6899 50.4299 81.8399 50.9799C82.5099 51.2899 83.47 55.0599 83.78 55.9299C85.71 61.2699 89.81 65.4899 91.37 70.9699C92.28 74.1599 91.8299 77.4199 90.8399 80.5399C91.4599 80.4899 92.8299 81.5299 93.24 81.5199C93.45 81.5199 93.8199 81.1399 94.0899 81.0299C96.1999 80.1999 98.25 81.8699 98.79 83.8799C102.74 83.6799 102.2 80.3499 101.75 77.4499C101.01 72.6599 99.5499 67.8399 98.8499 62.9999C97.6799 54.9399 100.37 47.2399 100.92 39.1499C101.03 37.5499 100.87 35.6199 101.04 34.1099C101.12 33.3699 101.55 32.8499 102.31 33.2999C102.76 33.5699 103.76 37.0299 104.03 37.7699L105.23 40.5699C104.54 35.4699 103.93 30.7099 101.81 25.9699C99.34 20.4599 93.9399 13.4899 88.2099 11.1499C88.0999 11.1099 87.27 10.6999 87.39 11.1099C87.64 11.9399 88.13 12.8799 88.4 13.7899C90.41 20.4899 92.28 33.0399 91.43 39.8899C90.52 47.2499 84.5899 49.2399 77.9799 49.5699C73.3599 49.7999 62.6599 49.6999 58.7199 47.5399C54.0199 44.9599 54.36 39.6699 54.3 34.9799L54.05 31.8499C53.8 31.6199 50.16 34.2299 49.74 34.6199C48.05 36.1799 47.06 38.3899 45.18 39.7799C36.89 45.9299 34.89 30.1899 36.02 25.0799C36.42 23.2899 37.16 23.3999 37.9 24.9299C37.68 28.3599 37.81 31.8599 38.88 35.1499C39.21 36.1599 40.2199 38.5899 41.3399 38.8399C43.8299 39.4099 45.4499 36.1799 46.7299 34.6799C50.0099 30.8099 55.12 30.2699 54.27 23.9499C53.87 20.9999 50.4999 17.2999 48.3399 15.3599C47.6599 14.7499 44.5299 12.5399 44.3599 11.9499C44.2299 11.4899 44.53 10.9699 45.02 10.9399C47.14 10.7999 50.7 14.7999 52.27 16.0999L50.3599 9.63994C50.0899 9.20994 49.8 7.69991 49.31 7.60991C48.82 7.51991 47.2899 7.56991 46.7199 7.60991C44.0799 7.78991 41.1799 9.51993 38.6099 10.3199C34.6899 11.5399 31.1 11.5899 27.04 11.1799C25.89 11.0599 23.98 10.4599 22.91 10.7499C22.22 10.9299 19.6799 13.5299 19.0999 14.1999C16.6399 17.0499 15.31 21.2499 14.05 24.7799C11.75 31.2299 9.53997 38.7299 9.12997 45.5699C8.71997 52.4499 8.86002 62.0699 13.56 67.5899C16.26 70.7599 20.9599 71.5099 23.9599 68.2699C24.7099 67.4599 25.9099 64.4999 24.8299 63.7099C23.8299 62.9799 23.63 64.6899 23.39 65.2399C22.9 66.3699 22.38 66.7099 21.13 66.7899C17.5 67.0399 16.21 63.4699 16.02 60.4599C15.65 54.5899 17.0299 48.8399 18.7299 43.2899C16.9299 43.6999 12.74 43.0599 11.9 41.1999L11.9499 41.1499ZM25.3299 35.2699C24.9799 34.4399 24.0599 35.0099 23.5799 35.3599C22.3499 36.2499 21.35 37.3599 20.01 38.1899C19.15 38.5099 18.3399 38.9699 17.4799 39.2899C16.9699 39.4799 14.2299 40.1599 14.1099 40.2899C13.8999 40.4999 14.4999 40.6699 14.6099 40.7099C15.7499 41.1199 17.1 41.2199 18.3 41.1499C18.56 41.1299 18.74 41.0299 18.79 41.0299C18.91 41.0199 19.05 41.0499 19.16 41.0299C20.83 40.7399 22.4099 40.0299 23.5899 38.8199C24.5399 38.0899 25.8899 36.5799 25.3399 35.2799L25.3299 35.2699ZM3.27999 38.8699C3.27999 39.1199 5.69002 39.8399 6.06002 39.8999C6.26002 39.9299 7.40996 40.0499 7.49996 40.0199C7.87996 39.8999 8.17991 37.8999 8.19991 37.4499L3.27999 38.8599V38.8699ZM38.9499 80.8199C39.1299 78.7799 39.1099 76.7099 39.3199 74.6699C39.8299 69.8699 41.4099 65.2399 43.3499 60.8599C43.0599 55.8299 41.63 51.1499 38.88 46.9299C37.87 45.3799 37.0799 44.1799 35.0799 43.8499C34.8899 43.8899 34.81 44.5799 34.78 44.7799C34.14 49.5099 33.46 54.2999 32.92 59.0399C32.4 63.5799 32.33 68.4199 31.53 72.9099C31.07 75.4499 30.17 77.6199 28.87 79.8199C28.94 80.1299 30.58 80.7199 30.91 80.7199C31.24 80.7199 31.74 80.2699 32.24 80.2599C33.32 80.2299 34.7399 81.1299 35.1899 82.1099C35.3899 82.5499 35.3899 83.1199 35.6999 83.4499C35.8199 83.4899 37.79 82.8599 38.06 82.7599C38.21 82.6999 38.57 82.5499 38.66 82.4399C38.81 82.2599 38.9099 81.1399 38.9399 80.8099L38.9499 80.8199ZM81.81 56.7899C78.62 57.2399 75.41 57.7699 72.17 57.7599C72.92 61.0399 74.5999 64.0299 74.9799 67.4299C75.3199 70.4499 74.71 73.9799 73.54 76.7899C73.34 77.2799 72.18 79.1399 72.43 79.5199C72.48 79.5899 73.9899 80.1399 74.0799 80.1499C74.4699 80.1699 75.07 79.7899 75.55 79.7799C76.55 79.7699 77.93 80.4399 78.43 81.3299C78.65 81.7399 78.69 82.9699 79.02 83.0799C79.63 83.2899 81.9899 82.4699 82.3199 81.8599C82.7099 81.1299 82.46 79.1599 82.51 78.2399C82.6 76.5499 82.77 74.8299 82.88 73.1399C83.06 70.5599 83.42 67.9799 83.5 65.3899C83.52 64.8599 83.5 64.3199 83.5 63.7899C83.5 63.7499 83.5 63.7099 83.5 63.6699C83.5 63.5099 83.5 63.3399 83.5 63.1799C83.46 62.2999 83.43 61.4699 83.25 60.5999C83.14 60.0699 82.17 56.9099 81.81 56.7999V56.7899ZM71.4499 82.7199C71.5199 82.8099 72.73 82.9099 72.79 82.8499C72.94 81.8299 72.61 81.0999 71.56 80.8799C71.63 81.1799 71.3199 82.5599 71.4499 82.7099V82.7199ZM29.5999 83.3499C29.7499 82.7199 28.72 81.5699 28.16 81.5199C27.8 81.4899 27.65 82.7799 27.77 82.9599C27.85 83.0799 29.4799 83.4599 29.5999 83.3499ZM77.0899 83.0999C77.2599 81.9999 75.3899 81.5899 74.8599 82.2899C74.7399 82.4499 74.69 83.0399 74.75 83.0999C74.88 83.2199 76.9499 83.2499 77.0899 83.0999ZM92.4699 84.2099C92.5999 83.0999 91.61 82.0899 90.51 82.1199C89.78 84.1499 90.7499 84.0899 92.4699 84.2099ZM31.4499 83.5899C31.8399 83.5799 33.57 83.6999 33.66 83.2799C33.7 83.0999 33.5 82.9699 33.41 82.8499C33.28 82.6599 33.24 82.6099 33.04 82.4799C32.11 81.8899 31.6199 82.7099 31.4399 83.5899H31.4499ZM96.78 83.8999C96.93 83.0799 95.92 82.2999 95.17 82.5399C94.69 82.6899 94.0599 83.7799 94.3299 84.1899C94.5499 84.5299 96.67 84.5299 96.78 83.8999ZM48.92 83.9099C48.85 83.0499 47.09 82.0099 47.12 83.6799C47.12 84.3699 48.41 84.6699 48.79 84.4399C48.85 84.3999 48.94 84.0299 48.93 83.9099H48.92ZM53.2099 84.3799C53.7499 82.7799 50.44 83.4799 51.02 84.3199C51.18 84.5399 53.0699 84.7799 53.2099 84.3799Z" fill="#020101"/>
<path d="M79.8 8.1098C80.65 8.2698 83.86 8.87981 84.35 9.33981C84.84 9.79981 85.84 12.6798 86.1 13.4898C88.28 20.2698 90.11 32.3298 89.25 39.3398C88.09 48.7998 76.86 47.4498 69.76 47.1698C64.84 46.9798 57.98 47.1798 56.84 41.1498C56.14 37.4298 56.53 33.0698 56.05 29.2698C57.04 24.4098 55.34 18.7998 54.04 14.0498C53.4 11.6898 52.64 9.34982 51.61 7.12982C51.61 6.85982 53.37 6.94982 53.64 6.93982C54.01 6.93982 54.4 6.65982 54.78 6.96982C55.79 9.78982 56.64 12.5398 57.13 15.5098C57.23 16.1098 57.52 19.6798 57.78 19.8398C57.98 19.9698 59.0501 19.7098 59.1801 19.4898C59.4501 19.0398 58.7 15.6898 58.54 14.9598C57.95 12.1998 57.04 9.52982 56.29 6.81982C64.09 6.83982 72.1 6.6698 79.79 8.1098H79.8ZM85.1 32.5898C85.17 33.8998 85.14 35.4598 85.1 36.7798C85.08 37.4398 84.87 38.1598 84.97 38.8698C85 39.0498 84.9 39.0698 85.16 39.0498C85.71 39.0298 86.63 38.0698 86.76 37.5698C87.07 36.3698 86.6601 32.1398 86.4301 30.7498C86.3701 30.4098 86.06 28.6798 85.76 28.5998C85.55 28.6298 84.83 28.8398 84.75 28.9798C84.58 29.2898 85.06 31.9598 85.1 32.5798V32.5898Z" fill="#EC7700"/>
<path d="M38.67 82.4499C38.82 82.2699 38.92 81.1499 38.95 80.8199C39.13 78.7799 39.1099 76.7099 39.3199 74.6699C39.8299 69.8699 41.41 65.2398 43.35 60.8598C43.06 55.8298 41.63 51.1498 38.88 46.9298C37.87 45.3798 37.08 44.1799 35.08 43.8499C34.89 43.8899 34.81 44.5798 34.78 44.7798C34.14 49.5098 33.46 54.2999 32.92 59.0399C32.4 63.5799 32.33 68.4199 31.53 72.9099C31.07 75.4499 30.17 77.6199 28.87 79.8199C28.94 80.1299 30.58 80.7198 30.91 80.7198C31.24 80.7198 31.74 80.2699 32.24 80.2599C33.32 80.2299 34.7399 81.1298 35.1899 82.1098C35.3899 82.5498 35.39 83.1199 35.7 83.4499C35.82 83.4899 37.7901 82.8599 38.0601 82.7599C38.2101 82.6999 38.57 82.5499 38.66 82.4398L38.67 82.4499Z" fill="#5E5946"/>
<path d="M83.24 60.59C83.13 60.06 82.16 56.9 81.8 56.79C78.61 57.24 75.4 57.77 72.16 57.76C72.91 61.04 74.59 64.03 74.97 67.43C75.31 70.45 74.7 73.98 73.53 76.79C73.33 77.28 72.17 79.14 72.42 79.52C72.47 79.59 73.9799 80.14 74.0699 80.15C74.4599 80.17 75.06 79.79 75.54 79.78C76.54 79.77 77.92 80.44 78.42 81.33C78.64 81.74 78.68 82.97 79.01 83.08C79.62 83.29 81.9801 82.47 82.3101 81.86C82.7001 81.13 82.45 79.16 82.5 78.24C82.59 76.55 82.76 74.83 82.87 73.14C82.67 72.98 82.72 72.56 82.74 72.34C82.9 70.16 83.17 68.01 83.24 65.82C83.24 65.58 83.11 65.33 83.49 65.39C83.51 64.86 83.49 64.32 83.49 63.79L83.37 63.73L83.49 63.67C83.49 63.51 83.49 63.34 83.49 63.18L83.24 62.75V60.59Z" fill="#5E5946"/>
<path d="M24.31 8.66986C28.68 9.29986 33.22 9.54986 37.53 8.41986C39.19 7.97986 41.39 7.22983 42.86 6.35983C42.93 6.31983 43.1 6.35984 43.02 6.14984C42.94 5.93984 42.1799 5.41985 41.9499 5.24985C36.8599 1.53985 29.25 2.72985 25.18 7.37985C25.04 7.53985 24.1799 8.53986 24.3199 8.66986H24.31Z" fill="#EC7700"/>
<path d="M23.5699 35.37C22.3399 36.26 21.34 37.37 20 38.2C18.3 39.26 16.4 39.9 14.46 40.42L16.14 40.89C17.16 41.18 18.18 40.77 19.14 41.03C20.81 40.74 22.3899 40.03 23.5699 38.82C24.1899 38.18 25.3 36.85 25.3 35.93C25.3 35.38 25.05 34.76 24.4 35.04L23.5699 35.38V35.37Z" fill="#F8DAB7"/>
<path d="M8.19995 37.4599L3.28003 38.8699C3.28003 39.1199 5.69006 39.8399 6.06006 39.8999C6.26006 39.9299 7.41 40.0499 7.5 40.0199C7.88 39.8999 8.17995 37.9 8.19995 37.45V37.4599Z" fill="#F8DAB7"/>
<path d="M94.33 84.1899C94.55 84.5299 96.6701 84.5299 96.7801 83.8999C96.9301 83.0799 95.9201 82.3 95.1701 82.54C94.6901 82.69 94.06 83.7799 94.33 84.1899Z" fill="#F8DAB7"/>
<path d="M90.51 82.1198C89.78 84.1498 90.75 84.0898 92.47 84.2098C92.6 83.0998 91.61 82.0898 90.51 82.1198Z" fill="#F8DAB7"/>
<path d="M74.76 83.0999C74.89 83.2199 76.96 83.2499 77.1 83.0999C77.27 81.9999 75.4 81.5899 74.87 82.2899C74.75 82.4499 74.7 83.0399 74.76 83.0999Z" fill="#F8DAB7"/>
<path d="M48.78 84.4398C48.84 84.3998 48.9301 84.0298 48.9201 83.9098C48.8501 83.0498 47.09 82.0098 47.12 83.6798C47.12 84.3698 48.4101 84.6698 48.7901 84.4398H48.78Z" fill="#F8DAB7"/>
<path d="M27.7801 82.9598C27.8601 83.0798 29.49 83.4598 29.61 83.3498C29.76 82.7198 28.7301 81.5698 28.1701 81.5198C27.8101 81.4898 27.6601 82.7798 27.7801 82.9598Z" fill="#F8DAB7"/>
<path d="M51.02 84.3199C51.18 84.5399 53.07 84.7799 53.21 84.3799C53.75 82.7799 50.44 83.4799 51.02 84.3199Z" fill="#F8DAB7"/>
<path d="M71.56 80.8899C71.63 81.1899 71.3199 82.5699 71.4499 82.7199C71.5199 82.8099 72.73 82.9099 72.79 82.8499C72.94 81.8299 72.61 81.0999 71.56 80.8799V80.8899Z" fill="#F8DAB7"/>
<path d="M20.01 38.2C19.15 38.52 18.34 38.9799 17.48 39.2999C16.97 39.4899 14.23 40.1699 14.11 40.2999C13.9 40.5099 14.5 40.6799 14.61 40.7199C15.75 41.1299 17.1001 41.2299 18.3001 41.1599L18.7901 41.0399C18.9101 41.0299 19.0501 41.0599 19.1601 41.0399C18.2001 40.7799 17.1901 41.1899 16.1601 40.8999L14.48 40.4299C16.42 39.9099 18.3101 39.2799 20.0201 38.2099L20.01 38.2Z" fill="#FEF8F2"/>
<path d="M33.05 82.4899C32.92 82.7099 32.64 82.3599 32.39 82.3999C32 82.4599 31.5799 83.07 31.6899 83.48C31.9199 83.5 33.35 83.4199 33.41 83.3599C33.48 83.2999 33.22 82.92 33.41 82.87C33.28 82.68 33.24 82.63 33.04 82.5L33.05 82.4899Z" fill="#F8DAB7"/>
<path d="M83.49 65.39C83.12 65.32 83.25 65.58 83.24 65.82C83.17 68.01 82.9 70.16 82.74 72.34C82.72 72.57 82.67 72.99 82.87 73.14C83.05 70.56 83.41 67.98 83.49 65.39Z" fill="#79715A"/>
<path d="M83.24 60.5898V62.7498L83.49 63.1798C83.45 62.2998 83.42 61.4699 83.24 60.5999V60.5898Z" fill="#79715A"/>
<path d="M33.05 82.4899C32.12 81.8999 31.63 82.7199 31.45 83.5999C31.84 83.5899 33.57 83.7099 33.66 83.2899C33.7 83.1099 33.5 82.9799 33.41 82.8599C33.22 82.9199 33.48 83.2899 33.41 83.3499C33.35 83.4099 31.9099 83.4899 31.6899 83.4699C31.5799 83.0599 32 82.4599 32.39 82.3899C32.64 82.3499 32.91 82.6999 33.05 82.4799V82.4899Z" fill="#FEF8F2"/>
<path d="M23.5699 35.3699L24.4 35.0299C25.04 34.7499 25.3 35.3699 25.3 35.9199C25.3 36.8399 24.1899 38.1699 23.5699 38.8099C24.5199 38.0799 25.8699 36.5699 25.3199 35.2699C24.9699 34.4399 24.0499 35.0099 23.5699 35.3599V35.3699Z" fill="#FEF8F2"/>
<path d="M18.28 41.1498C18.54 41.1298 18.72 41.0298 18.77 41.0298L18.28 41.1498Z" fill="#F8DAB7"/>
<path d="M83.49 63.7899C83.49 63.7899 83.49 63.7099 83.49 63.6699L83.37 63.7299L83.49 63.7899Z" fill="#79715A"/>
<path d="M16.0601 60.41C16.2501 63.42 17.5401 66.98 21.1701 66.74C22.4201 66.66 22.9401 66.31 23.4301 65.19C23.6701 64.64 23.88 62.93 24.87 63.66C25.95 64.45 24.7501 67.41 24.0001 68.22C21.0001 71.46 16.31 70.71 13.6 67.54C8.89003 62.02 8.7601 52.4 9.1701 45.52C9.5801 38.67 11.79 31.18 14.09 24.73C15.35 21.2 16.6801 17 19.1401 14.15C19.7201 13.48 22.26 10.88 22.95 10.7C24.02 10.42 25.93 11.02 27.08 11.13C31.14 11.54 34.7301 11.49 38.6501 10.27C41.2201 9.46995 44.1301 7.73996 46.7601 7.55996C47.3301 7.51996 48.85 7.46996 49.35 7.55996C49.85 7.64996 50.1301 9.15996 50.4001 9.58996L52.3101 16.0499C50.7401 14.7499 47.1801 10.75 45.0601 10.89C44.5701 10.92 44.2601 11.45 44.4001 11.9C44.5701 12.49 47.7001 14.7 48.3801 15.31C50.5401 17.25 53.9101 20.95 54.3101 23.9C55.1701 30.23 50.0501 30.76 46.7701 34.63C45.5001 36.13 43.8801 39.36 41.3801 38.79C40.2601 38.54 39.2501 36.11 38.9201 35.1C37.8501 31.81 37.73 28.31 37.94 24.88C37.2 23.35 36.4501 23.24 36.0601 25.03C34.9301 30.14 36.93 45.87 45.22 39.73C47.1 38.34 48.0901 36.13 49.7801 34.57C50.1901 34.19 53.83 31.58 54.09 31.7999L54.34 34.93C54.4 39.62 54.0601 44.91 58.7601 47.49C62.7001 49.65 73.4001 49.76 78.0201 49.52C84.6301 49.1899 90.56 47.2 91.47 39.84C92.32 32.99 90.45 20.44 88.44 13.74C88.17 12.83 87.6701 11.89 87.4301 11.06C87.3101 10.66 88.1401 11.06 88.2501 11.1C93.9801 13.45 99.38 20.42 101.85 25.92C103.97 30.66 104.58 35.42 105.27 40.52L104.07 37.72C103.8 36.98 102.81 33.52 102.35 33.25C101.59 32.8 101.17 33.32 101.08 34.06C100.91 35.57 101.06 37.5 100.96 39.1C100.41 47.19 97.7201 54.89 98.8901 62.95C99.5901 67.79 101.05 72.61 101.79 77.4C102.24 80.31 102.78 83.63 98.83 83.8299C98.29 81.8299 96.2401 80.15 94.1301 80.98C93.8501 81.09 93.4901 81.47 93.2801 81.47C92.8701 81.48 91.5001 80.4399 90.8801 80.49C91.8601 77.3699 92.3201 74.12 91.4101 70.92C89.8501 65.44 85.75 61.21 83.82 55.88C83.51 55.02 82.5501 51.24 81.8801 50.93C80.7301 50.39 80.8601 51.56 80.9301 52.37C80.9901 53.09 81.3601 53.78 81.2801 54.51C81.1901 54.65 78.3201 55.07 77.9001 55.12C73.0501 55.77 67.62 55.91 62.82 54.85C62.52 54.78 60.5901 54.36 60.5101 54.26C60.3601 54.08 61.16 51.84 59.73 52.2C59.32 52.3 59.08 52.63 58.94 53C58.56 53.95 58.28 55.98 58.09 57.07C56.98 63.36 56.77 70.87 57.7 77.19C57.96 78.96 58.78 81.2599 58.36 83.0499C58.17 83.85 56.7301 84.2 56.0101 84.26C54.7001 84.38 55.13 84.01 54.59 83.13C53.91 82.03 52.55 81.26 51.24 81.46C50.81 81.52 50.1201 82.07 49.8801 82.06C49.5501 82.06 48.34 80.9199 47.73 81.0799C48.03 80.0699 48.62 79.14 48.87 78.1C49.92 73.81 46.56 64.17 45.47 59.53C44.11 53.73 43.1501 44.25 36.4101 42.14L31.12 40.72C31.12 40.22 31.62 39.08 31.19 38.74C30.5 38.19 29.6801 39.6399 29.2701 40.0499C28.6501 40.6699 27.1401 42.19 26.4001 42.48C25.6601 42.77 25.54 41.21 25.61 40.7C25.76 39.55 26.7601 38.61 27.1501 37.56C28.7801 33.16 24.7901 30.9799 21.5201 34.02C19.5901 35.81 19.3401 36.4 16.6701 37.41C15.0101 38.03 10.75 38.33 11.99 41.1C12.83 42.97 17.02 43.61 18.82 43.19C17.12 48.73 15.74 54.4899 16.11 60.3599L16.0601 60.41ZM21.87 21.91C21.53 22.91 22.4601 24.47 23.2901 25.01C24.4701 25.78 26.21 25.6 27.33 24.78C28.06 24.24 29.7501 22.1799 28.8101 21.3299C27.7501 20.3799 26.9001 22.6499 26.1601 23.1099C25.1601 23.7199 23.6801 23.21 23.0301 22.31C22.8901 22.11 22.8901 21.83 22.8101 21.73C22.6301 21.51 21.96 21.64 21.87 21.9V21.91Z" fill="#79715A"/>
<path d="M22.81 21.7399C22.63 21.5199 21.9599 21.6499 21.8699 21.9099C21.5299 22.9099 22.46 24.4699 23.29 25.0099C24.47 25.7799 26.2099 25.5999 27.3299 24.7799C28.0599 24.2399 29.75 22.1799 28.81 21.3299C27.75 20.3799 26.9 22.6499 26.16 23.1099C25.16 23.7199 23.68 23.2099 23.03 22.3099C22.89 22.1099 22.89 21.8299 22.81 21.7299V21.7399Z" fill="#020101"/>
<path d="M84.7501 28.9898C84.5801 29.2998 85.06 31.9698 85.1 32.5898C85.17 33.8998 85.14 35.4598 85.1 36.7798C85.08 37.4398 84.87 38.1598 84.97 38.8698C85 39.0498 84.9001 39.0698 85.1601 39.0498C85.7101 39.0298 86.6301 38.0699 86.7601 37.5699C87.0701 36.3699 86.6601 32.1398 86.4301 30.7498C86.3701 30.4098 86.0601 28.6799 85.7601 28.5999C85.5501 28.6299 84.8301 28.8399 84.7501 28.9799V28.9898Z" fill="#020101"/>
</svg>
