<svg width="62" height="86" viewBox="0 0 62 86" fill="none" xmlns="http://www.w3.org/2000/svg">
<path d="M1.18997 78.38C0.819973 78.11 0.459985 78.08 0.389985 77.47C0.269985 76.53 1.24997 74.3 1.68997 73.39C3.64997 69.24 7.40997 65.93 11.31 63.62C12.42 62.96 14.75 61.99 15.59 61.24C15.91 60.95 16.29 60.24 16.62 59.86C17.82 58.52 19.32 57.91 21.07 57.6C21.28 57 21.32 56.36 21.3 55.73C19.94 55.91 18.61 55.14 18.12 53.86C17.53 52.33 17.88 50.67 18.17 49.12C15.85 48.56 13.9 46.96 12.99 44.75C12.82 44.33 12.7 43.68 12.51 43.35C12.32 43.02 11.9 42.81 11.65 42.54C10.41 41.22 9.59996 39.52 9.60996 37.67C9.60996 37.29 9.82997 36.67 9.74997 36.31C9.69997 36.1 9.16997 35.33 9.02997 35C8.39997 33.52 8.38996 32.22 8.89996 30.7C9.00996 30.37 9.32997 29.87 9.33997 29.54C9.33997 29.23 9.05998 28.86 8.94998 28.55C8.24998 26.47 8.79998 24.12 10.13 22.43C10.25 22.27 10.65 21.97 10.69 21.83C10.77 21.56 10.68 21.07 10.71 20.76C10.96 18.13 12.36 15.99 14.56 14.58C13.95 14.18 12.42 13.13 12.63 12.29C12.83 11.51 14.51 10.55 15.23 10.24C16.3 9.77996 17.53 9.53997 18.69 9.52997C18.1 8.45997 17.64 7.22997 17.54 5.99997C17.4 4.29997 17.73 3.83996 19.42 4.26996C20.68 4.58996 21.85 5.23998 22.9 5.97998C22.85 5.22998 22.58 4.50998 22.54 3.75998C22.5 3.07998 22.62 1.16996 23.36 0.869963C24.01 0.609963 25.15 1.12996 25.74 1.42996C26.75 1.93996 27.62 2.68997 28.39 3.49997C29.27 2.60997 30.69 2.42998 31.84 2.81998C33.14 -0.740025 37.03 -0.340024 37.79 3.28998L38.26 2.63998C38.9 1.98998 39.53 1.31996 40.34 0.869963C41.47 0.229963 42 0.249968 42.53 1.49997C42.98 2.56997 43.21 3.87998 43.17 5.03998L44.96 4.02997C45.85 3.62997 47.47 3.07998 48.43 3.22998C48.85 3.28998 49.06 3.66998 49.12 4.06998C49.33 5.61998 48.74 7.28996 48.11 8.67996C48.48 8.56996 48.67 8.28998 49.05 8.13998C50.6 7.52998 52.28 8.19998 52.85 9.78998C53.17 10.69 52.85 10.89 52.83 11.63C52.81 12.16 53.79 12.24 54.21 12.57C56.05 13.99 55.62 16.26 53.7 17.37C53.51 17.48 53.02 17.58 52.93 17.77C52.9 17.84 52.96 18.55 52.98 18.66C53.05 18.96 53.47 19.12 53.69 19.33C54.49 20.08 55.28 20.95 55.68 21.98C55.95 22.65 56.18 23.32 55.38 23.71C54.18 24.3 52.46 23.94 51.21 23.65C51.87 24.89 51.97 26.3 51.94 27.68C51.94 27.97 51.8 28.3 51.82 28.59C51.85 28.97 52.3 31.04 52.44 31.38C52.61 31.79 52.87 31.84 52.88 32.47C52.89 33.1 52.6 33.33 52.46 33.8C52.17 34.73 52.24 35.59 52.15 36.47C52.12 36.76 51.99 36.93 52 37.27C52.02 38.05 52.38 39.05 52.44 39.88C52.71 43.85 50.95 47.52 49.81 51.19C48.87 54.21 48.65 57.6 45.27 58.93C44.17 59.36 43 59.35 41.84 59.38C41.89 59.91 41.67 60.4 41.88 60.91C42.78 61.15 43.72 61.49 44.52 61.96C45.19 62.35 45.82 62.97 46.49 63.34C48.07 64.2 49.97 64.78 51.62 65.69C55.49 67.82 58.94 71.39 60.9 75.36C61.57 76.72 62.34 77.86 60.93 78.99C60.78 79.01 60.7 78.95 60.6 78.85C60.39 78.64 59.88 77.14 59.69 76.71C57.32 71.6 53.3 67.93 48.12 65.77L49.26 67.9C50.66 70.72 52.46 75.39 52.59 78.52C52.6 78.83 52.48 79.24 52.11 78.99C51.96 78.89 51.88 78.59 51.81 78.42C49.91 73.78 48.02 66.13 43.58 63.34C43.18 63.09 42.75 62.9 42.35 62.64L43.81 65.13C46.72 69.97 48.25 75.5 49.35 81.01C49.46 81.55 49.82 83.06 49.73 83.5C49.7 83.64 49.58 83.78 49.53 83.92C48.25 84.25 46.98 84.48 45.68 84.72L45.61 84.65C45.88 84.6 48.37 84.2 48.37 84.03C48.3 83.96 48.21 83.9 48.17 83.79C47.97 83.2 47.9 82.17 47.77 81.51C47.2 78.73 46.5 75.98 45.76 73.24L44.79 73.83L44.6 74.11C44.6 74.11 44.54 74.17 44.53 74.18C43.75 74.25 43.14 75.01 42.35 75.12C42.05 75.16 41.57 75.06 41.41 75.41C40.78 75.49 40.17 75.68 39.55 75.76C39.3 75.79 38.98 75.69 38.8 75.91C38.45 75.75 38.27 75.91 38 75.91C34.49 75.96 31.69 75.56 28.41 74.31C28 74.16 27.85 73.85 27.32 74.17C27.47 74.48 27.64 74.79 27.8 75.1C27.86 75.21 27.96 75.18 27.97 75.19C28.02 75.27 28.12 75.66 28.22 75.85C29.97 79.09 31.86 82.28 33.2 85.72C34.16 85.66 35.14 85.7 36.1 85.66V85.73C34.57 85.79 33.06 85.8 31.53 85.8C29.91 82.54 28.42 79.12 26.55 76C24.27 72.2 21.05 67.49 19.77 63.28C19.71 62.62 19.58 61.98 19.62 61.32C19.83 60.68 20.19 60.06 20.49 59.47C20.5 59.34 20.49 59.36 20.38 59.36C19.21 59.32 17.4 61.25 17.15 62.34C16.97 63.12 17.08 63.84 17.3 64.59C17.82 66.4 18.98 68.42 19.96 70.03C20.51 70.93 21.29 71.9 21.75 72.82C21.88 73.09 22.15 73.52 21.74 73.7C21.44 73.84 20.87 73.14 20.65 72.9C19.21 71.32 17.78 69.07 16.73 67.2C16.24 66.15 15.82 65.14 15.57 64C15.53 63.83 15.5 63.3 15.39 63.27C9.89999 65.97 4.74998 69.48 2.62998 75.49C2.40998 76.1 2.05998 77.81 1.66998 78.16C1.54998 78.27 1.35998 78.34 1.19998 78.38H1.18997ZM36.99 9.22998C37.59 9.05998 38.14 9.25996 38.74 9.26996C38.87 8.95996 39 8.67997 39.18 8.40997C39.81 7.47997 41.06 6.90996 39.86 5.73996C39.16 5.05996 37.88 5.04995 37.11 5.60995C36.83 5.81995 36.57 6.28998 36.17 6.16998C36.14 6.16998 35.8 5.90998 35.79 5.88998C35.62 5.61998 36.01 5.08998 36.1 4.81998C36.47 3.74998 36.46 2.91995 35.57 2.10995C34.62 1.23995 33.2 2.42996 33.07 3.45996C33.02 3.82996 33.24 5.00997 33.01 5.15997C32.96 5.18997 32.59 5.31998 32.56 5.28998C32.54 5.27998 32.51 5.13995 32.45 5.07995C31.79 4.38995 31.35 4.10996 30.34 4.20996C29.33 4.30996 28.86 5.16997 29 6.12997C29.01 6.21997 29.06 6.45997 29.14 6.49997C29.19 6.52997 30 6.61998 30.21 6.66998C30.74 6.79998 31.43 7.06997 31.84 7.43997C31.98 7.56997 32.19 7.92996 32.31 7.98996C32.44 8.04996 32.4 7.93997 32.42 7.87997C33.07 5.72997 35.69 5.39997 36.83 7.37997C37.22 8.05997 37.31 8.46997 36.99 9.21997V9.22998ZM41.64 5.23996V3.89996L41.2 2.26996C41.06 2.13996 39.39 3.49995 39.38 3.82995C40.37 3.92995 41.02 4.51997 41.63 5.24997L41.64 5.23996ZM27.69 6.90997C27.75 6.55997 27.58 6.24996 27.55 5.92996C27.52 5.62996 27.6 5.26996 27.55 4.98996C27.48 4.62996 26.25 3.60995 25.91 3.35995C25.42 2.99995 24.81 2.63998 24.22 2.47998C23.93 2.68998 24.22 5.07998 24.47 5.38998C24.56 5.49998 25.13 5.48997 25.31 5.52997C25.35 5.48997 25.21 4.46998 25.53 4.53998C26.13 4.67998 27.14 6.29998 27.54 6.81998C27.59 6.87998 27.54 6.94997 27.71 6.90997H27.69ZM47.59 4.86996C47.44 4.71996 45.78 5.31997 45.51 5.43997C45.24 5.55997 43.78 6.31998 43.82 6.56998C43.83 6.64998 44.47 7.28997 44.4 7.55997C44.47 7.61997 45.25 6.88996 45.42 6.79996C45.61 6.70996 45.78 6.65996 45.99 6.67996C46.15 6.84996 45.4 8.13997 45.23 8.34997C45.02 8.60997 44.57 8.72997 44.94 9.21997C45.24 8.99997 45.84 8.95998 46.1 8.78998C46.22 8.70998 46.61 8.09997 46.7 7.93997C47.22 7.03997 47.58 5.90996 47.59 4.86996ZM21.3 9.88998C21.07 8.83998 21.1 7.95997 21.66 7.02997C21.61 6.79997 19.43 5.80997 19.05 5.74997C19.1 6.69997 19.45 7.59997 19.91 8.40997C20.03 8.62997 20.99 10.2 21.3 9.88998ZM26.53 10.83C26.19 9.37996 26.89 7.51996 24.97 6.98996C23.95 6.70996 22.78 7.65997 22.68 8.68997C22.58 9.71997 22.99 10.4 23.44 11.27C23.59 11.55 24.01 11.86 23.55 12.03C22.65 12.36 22.41 11.7 21.68 11.57C19.48 11.19 18.55 13.93 20.55 14.81C21.09 15.05 21.62 15.1 22.21 15.04C22.72 14.99 23.55 14.47 23.79 15.13C24.01 15.74 23.26 15.87 22.92 16.32C22.35 17.06 21.71 18.78 22.74 19.38C24.17 20.22 25.18 19.01 25.63 17.79C25.7 17.61 25.75 16.98 25.98 17C26.6 17.05 26.75 18.47 26.96 18.93C27.44 19.98 28.65 20.55 29.68 19.89C30.77 19.19 30.13 17.82 29.54 17C29.34 16.72 28.71 16.28 28.89 15.9C28.94 15.8 29.12 15.7 29.24 15.7C29.65 15.7 30.34 16.04 30.86 16.05C31.44 16.05 32.5 15.78 32.62 15.12C32.87 13.78 31.47 12.77 30.27 12.64C29.98 12.61 29.22 12.87 29.7 12.13C29.99 11.68 30.66 11.52 31.02 10.76C32.28 8.13998 28.32 6.61998 27.6 9.44998C27.55 9.63998 27.32 10.82 27.33 10.92C27.36 11.15 28.01 11.54 28.2 11.8C29.1 13.01 28.67 15.1 27.2 15.67C25.95 16.16 24.04 15.51 23.85 14.05C23.6 12.12 24.62 10.94 26.53 10.82V10.83ZM34.5 7.42996C32.95 7.65996 33.32 9.50998 34.63 9.50998C36.01 9.50998 35.71 7.24996 34.5 7.42996ZM43.02 12.28C43.02 12.28 42.87 11.73 42.87 11.67C42.89 11.37 43.3 10.71 43.36 10.27C43.5 9.23996 43.28 8.14998 42.09 7.94998C41.07 7.77998 40.04 9.13998 39.96 10.07C39.93 10.45 40.21 11.63 40.17 11.7C40.17 11.72 39.9 11.88 39.88 11.89C39.38 12.09 38.77 11.08 38.39 10.84C36.04 9.34997 34.26 12.74 36.62 13.77C36.92 13.9 37.87 13.99 37.91 14.04C37.93 14.06 37.99 14.51 37.98 14.58C37.98 14.99 37.22 15.02 36.9 15.16C35.98 15.58 35.45 16.47 35.92 17.45C36.53 18.71 37.98 18.29 38.83 17.52C38.98 17.38 39.27 16.93 39.41 16.94C39.44 16.94 39.43 17.04 39.5 17.08C39.57 17.11 39.68 17.08 39.77 17.16C39.97 17.34 39.77 18.44 39.8 18.8C39.84 19.31 40.08 19.84 40.49 20.14C41.19 20.65 41.65 20.25 41.97 19.59C42.33 18.83 42.07 18.14 42.42 17.38C43 17.49 43.18 18.19 43.54 18.54C44.59 19.58 46.31 18.66 45.91 17.26C45.47 15.75 44.14 16.2 43.58 14.98C44.55 14.94 46.58 14.46 46.49 13.2C46.42 12.23 44.99 11.39 44.09 11.67C43.86 11.74 43.31 12.55 43.01 12.29L43.02 12.28ZM47.45 16.57V18.06C47.45 18.44 46.93 19.17 46.65 19.44C46.59 19.5 46.45 19.54 46.44 19.55C46.22 19.93 47.25 20.15 47.74 19.5C48.12 18.98 47.98 18.57 48.14 18.08C48.27 17.66 48.77 18.02 48.94 18.23C49.36 18.75 49.35 20.09 50.25 20.19C50.74 20.25 51.11 20.13 51.34 19.68C51.88 18.66 51.21 17.59 50.58 16.79C50.6 16.11 51.53 16.45 52.06 16.4C53.3 16.29 54.62 15.17 53.68 13.91C52.98 12.97 51.85 13.1 50.86 13.43C50.48 12.14 52.14 11.47 51.4 10.09C50.97 9.30997 50.05 9.02995 49.33 9.60995C48.72 10.1 49 10.48 48.9 11.06C48.85 11.3 48.29 11.3 48.19 11.23C48.15 11.21 47.88 10.67 47.71 10.51C47.12 9.96998 46.35 10.08 45.71 10.48C46.35 10.89 47.05 11.17 47.51 11.8C47.62 11.96 47.86 12.52 47.9 12.54C48 12.6 48.65 12.52 48.86 12.56C50.47 12.81 50.78 15.11 49.66 16.12C48.99 16.72 48.29 16.67 47.44 16.55L47.45 16.57ZM34.37 10.98C33.88 10.87 33.43 10.62 33.06 10.29C32.93 10.18 32.89 10.03 32.77 9.95996C32.9 10.45 32.25 11.49 32.26 11.82C32.27 12.02 32.65 12.16 32.8 12.29C33.59 12.98 34.06 13.82 34.07 14.9L35.09 14.54C35.16 14.46 34.66 13.94 34.59 13.84C34.04 12.95 34.17 11.97 34.36 10.99L34.37 10.98ZM18.91 11.05C17.69 11.01 16.42 11.31 15.35 11.88C15.21 11.95 14.53 12.33 14.56 12.46C14.67 12.96 17.48 14.21 18.12 14.1C18.01 13.88 18.11 13.29 18.01 13.15C17.94 13.04 16.58 12.79 17.18 12.39C17.47 12.2 18.12 12.32 18.18 12.27C18.2 12.25 18.33 11.82 18.42 11.68C18.56 11.44 18.74 11.26 18.91 11.05ZM26.22 12.23C24.84 12.43 24.53 14.73 26.41 14.46C27.62 14.29 27.42 12.06 26.22 12.23ZM48.07 13.74C47.96 13.78 47.82 14.27 47.75 14.44C47.63 14.7 47.26 14.93 47.7 15.26C48.33 15.74 49.44 14.87 49 14.1C48.85 13.84 48.35 13.65 48.07 13.74ZM17.17 15.84C16.92 15.9 16.3 15.59 16.13 15.63C16 15.66 15.41 16.34 15.32 16.5C14.9 17.25 14.94 18.36 15.06 19.18L15.57 18.49C16.26 18.04 16.21 17.4 16.52 16.75C16.68 16.41 16.94 16.12 17.16 15.83L17.17 15.84ZM34.52 16.28C34.22 16.34 33.77 16.3 33.5 16.38C33.31 16.44 32.89 16.91 32.58 17.05C32.27 17.19 31.88 17.28 31.55 17.29L31.77 18.6L34.45 17.5L34.53 16.28H34.52ZM21.16 16.57C20.23 16.41 20.1 16.19 19.28 16.76C18.46 17.33 17.75 18.33 17.28 19.19C17.11 19.49 16.28 21.23 16.45 21.44C18.34 21.97 20.12 21.49 21.82 20.65C21.85 20.54 21.79 20.53 21.75 20.47C21.6 20.25 21.21 19.99 20.99 19.7C20.86 19.53 20.94 19.31 20.66 19.45C20.1 19.73 19.63 20.34 18.85 20.21C18.87 20.09 18.79 19.96 18.79 19.87C18.79 19.28 20.15 17.86 20.79 17.73L21.17 16.59L21.16 16.57ZM54.13 22.38C53.84 21.58 53.26 20.85 52.57 20.35C52.19 21.02 51.56 21.35 50.86 21.62C51.13 21.83 51.47 21.96 51.79 22.07C52 22.14 52.69 22.38 52.86 22.38H54.13ZM41.35 22.89C40.69 23 39.99 23.02 39.32 23.11C36.37 23.51 32.76 24.72 30.17 26.2C29.82 26.4 28.84 26.99 28.62 27.26C28.31 27.62 27.86 29.2 27.69 29.74C26.98 32.01 26.54 34.42 25.75 36.66C25.39 37.68 25.03 38.87 23.75 38.95C22.34 39.03 21.77 37.45 20.77 36.7C19.27 35.56 17 35.19 16.3 37.38C15.95 38.47 16.48 41.04 16.96 42.11C17.24 42.75 18.33 44.43 19.05 44.53C19.31 44.57 19.31 44.27 19.46 44.1C20.39 43.06 22.32 43.29 23.09 44.47C23.62 45.28 23.43 45.7 23.68 46.42C23.74 46.6 24.21 47.17 24.35 47.42C24.95 48.46 25.43 49.57 26.18 50.53C29.28 54.47 37.43 58.13 42.41 57.84C47.39 57.55 47.23 54.32 48.52 50.37C49.37 47.76 50.84 44.59 51.01 41.86C51.05 41.25 51.05 40.36 51.01 39.75C50.97 39.14 50.68 37.75 50.5 37.17C50.42 36.93 50.29 36.84 50.21 36.62L49.98 37.51C49.5 38.89 47.37 38.77 47.17 37.3C47.12 36.96 47.23 36.65 47.2 36.33C46.97 36.6 46.16 36.8 46.14 37.16C46.13 37.38 46.29 37.74 46.36 37.96C47.1 40.17 49.51 42.68 47.23 44.79C45.53 46.37 44.53 45.24 42.83 45.05C41.91 44.95 40.78 45.26 40.04 44.5C39.26 43.7 39.58 41.69 40.8 41.78C41.68 41.84 40.91 42.99 41.13 43.47C41.23 43.69 42.64 43.58 42.97 43.61C43.7 43.68 44.64 44.16 45.23 44.19C45.86 44.21 46.73 43.48 46.79 42.84C46.87 41.94 45.85 40.37 45.47 39.51C45.06 38.58 44.24 36.6 44.69 35.66C45.02 34.97 45.62 35.43 45.88 35.9C47.15 34.8 49.11 34.31 50.71 34.88C50.82 34.5 50.88 34.11 50.93 33.72C50.95 33.51 50.98 33.29 51 33.07C49.71 32.77 48.38 33.24 47.23 33.82C46.88 34 46.56 34.25 46.22 34.44C45.57 34.8 45.28 35.06 44.55 34.59C44.26 35.29 43.14 35.34 42.59 34.91C42.47 34.82 42.3 34.53 42.25 34.52C42.19 34.51 41.87 34.77 41.67 34.8C40.71 34.95 39.93 34.09 39.19 33.66C36.47 32.07 33.36 32.89 30.62 33.92C29.72 33.76 30.42 33 30.82 32.66C33.93 30.04 39.29 30.19 42.65 32.23C42.82 32.33 43.51 32.9 43.56 32.9C43.63 32.9 44.37 32.08 44.65 32.99L45.53 32.13C46.97 31.18 48.74 30.76 50.47 30.67C50.57 30.67 50.63 30.71 50.71 30.74C50.38 27.62 49.2 24.52 46.11 23.25C45 22.79 43.82 22.91 43.17 21.76C43.02 21.5 42.94 21.22 42.86 20.94C42.06 21.46 42.82 22.29 41.9 22.77C41.69 22.88 41.55 22.87 41.34 22.9L41.35 22.89ZM13.82 21C12.81 21.44 12.43 22.77 12.51 23.79C12.6 24.88 13.11 26.63 14.18 27.1C13.85 25.09 13.42 23.03 13.82 21ZM23.63 22.45C22.97 22.27 22.44 22.41 21.84 22.65C20.89 23.03 20.75 23.41 20.23 24.24C19.12 26.03 18.08 27.89 17.17 29.78C19.26 29.07 20.26 26.97 21.59 25.37L23.64 22.44L23.63 22.45ZM13.68 33.06C13.38 31.22 12.6 29.53 11.9 27.83C11.58 27.43 11.31 28.66 11.29 28.88C11.1 30.75 11.95 32.32 13.69 33.06H13.68ZM16.88 33.27C18.13 33.43 18.75 32.47 19.33 31.55C19.69 30.98 20.04 30.35 20.25 29.71C19.5 30.11 18.83 30.64 18.25 31.27L16.87 33.27H16.88ZM13.82 38.72C13.38 37.22 12.86 35.61 11.57 34.62C11.5 34.56 11.48 34.48 11.35 34.51C11.29 36.19 12.02 38.27 13.82 38.72ZM20.92 44.99C20.59 45.08 20.18 45.62 20.14 45.96C19.98 47.46 22.63 47.01 21.79 45.38C21.6 45.01 21.34 44.87 20.91 44.98L20.92 44.99ZM23.7 50.13C23.75 50.52 23.87 50.87 23.92 51.29C24.04 52.28 24.05 52.98 23.58 53.9C23.44 54.17 22.87 54.81 22.84 54.9C22.7 55.36 22.75 56.55 22.67 57.13C22.62 57.49 22.53 57.84 22.46 58.19C22.32 58.85 22.17 59.51 21.89 60.13C21.54 60.89 20.92 61.32 21.01 62.22C21.14 63.5 23.09 66.74 24.09 67.56C26.64 69.66 30.9 71.12 34.15 71.63C35.35 71.82 36.34 71.9 37.56 71.78C39.36 71.6 41.13 71.08 42.65 70.08C42.85 69.95 44.01 69.07 44.06 68.94C44.09 68.87 44.08 68.86 44.06 68.8C43.98 68.49 43.35 67.37 43.16 67.01C42.72 66.2 42.22 65.42 41.7 64.66C41.65 64.59 41.67 64.43 41.56 64.44C41.53 64.97 41.63 65.52 41.49 66.04C41.54 66.59 41.54 67.97 40.67 67.77C40.01 67.62 40.18 66.16 40.04 65.68C40.05 64.91 40.04 64.13 40.04 63.36L40.39 59.52C38.41 59.23 36.55 58.73 34.7 57.99C30.53 56.33 26.98 54.04 24.28 50.43L22.9 47.89C22.84 47.89 22.76 47.86 22.76 47.93C22.73 48.28 23.68 49.64 23.71 50.14L23.7 50.13ZM21.44 48.25C21.09 48.3 20.62 48.16 20.32 48.17C20.26 48.17 20.22 48.18 20.18 48.24C19.55 49.53 18.71 52.94 20 53.95C20.52 54.36 21.24 54.28 21.71 53.84C23.06 52.58 22.15 49.69 21.44 48.26V48.25ZM24.86 69.96L25.66 71.45C30.92 73.77 36.97 75.69 42.58 73.26C43.06 73.05 45.17 71.85 45.19 71.38C45.19 71.24 44.79 70.4 44.72 70.4C39.26 75.54 30.71 73.12 24.86 69.96Z" fill="#010100"/>
<path d="M17.17 62.33C17.42 61.24 19.2299 59.31 20.3999 59.35C20.5099 59.35 20.5199 59.33 20.5099 59.46C20.1999 60.05 19.84 60.68 19.64 61.31C19.44 61.94 19.5899 62.64 19.7899 63.27C21.0799 67.48 24.2999 72.18 26.5699 75.99C28.4399 79.11 29.9299 82.53 31.5499 85.79C31.3099 85.79 31.0699 85.79 30.8199 85.79C30.8599 85.57 30.7099 85.65 30.5699 85.64C28.2899 85.55 26.16 85.39 23.89 85.2C23.77 85.2 23.5599 85.16 23.4899 85.28C23.4399 85.28 23.3899 85.28 23.3399 85.28C23.3799 85.05 23.2299 85.16 23.0899 85.13C21.3099 84.82 19.51 84.64 17.7299 84.31C12.7299 83.37 8.50995 82.01 3.91995 79.89C3.85995 79.86 3.61993 79.71 3.57993 79.83C2.72993 79.38 1.95993 78.94 1.17993 78.38C1.33993 78.35 1.52993 78.27 1.64993 78.16C2.03993 77.81 2.38992 76.1 2.60992 75.49C4.73992 69.48 9.87993 65.97 15.3699 63.27C15.4799 63.29 15.5199 63.83 15.5499 64C15.4199 64.07 15.4899 64.26 15.5099 64.37C15.6999 65.34 16.2299 66.35 16.7099 67.2C17.7599 69.07 19.1999 71.32 20.6299 72.9C20.8499 73.14 21.4099 73.84 21.7199 73.7C22.1299 73.51 21.8699 73.08 21.7299 72.82C21.27 71.89 20.4899 70.93 19.9399 70.03C18.9599 68.42 17.7999 66.4 17.2799 64.59L17.14 63.39C17.04 63.05 17.32 62.64 17.14 62.34L17.17 62.33ZM11.4799 69.82C11.2599 69.86 10.9599 70.14 11.0199 70.39C11.1399 70.85 12.1299 72.08 12.4799 72.5C14.7899 75.24 17.76 78.44 20.39 80.85C20.69 81.12 21.8899 82.22 22.2099 82.22C22.4399 82.22 22.8899 81.75 22.8999 81.53C22.8999 81.37 22.6799 81.13 22.5699 80.99C21.4599 79.63 19.7499 78.17 18.4999 76.85C16.6299 74.88 14.88 72.76 12.95 70.85C12.78 70.68 12.03 69.96 11.89 69.88C11.75 69.8 11.65 69.78 11.4799 69.81V69.82Z" fill="#B41D46"/>
<path d="M49.55 83.8999C49.6 83.7599 49.72 83.6199 49.75 83.4799C49.84 83.0399 49.48 81.5299 49.37 80.9899C48.27 75.4699 46.74 69.9399 43.83 65.1099L42.37 62.6199C42.77 62.8699 43.2 63.0599 43.6 63.3199C48.04 66.1099 49.93 73.7599 51.83 78.3999C51.9 78.5699 51.98 78.8699 52.13 78.9699C52.5 79.2199 52.62 78.8099 52.61 78.4999C52.48 75.3699 50.68 70.6999 49.28 67.8799L48.14 65.7499C53.32 67.9099 57.34 71.5899 59.71 76.6899C59.91 77.1199 60.41 78.6099 60.62 78.8299C60.72 78.9299 60.8 78.9899 60.95 78.9699C58.25 81.1399 52.92 83.0499 49.55 83.9099V83.8999Z" fill="#B51D46"/>
<path d="M3.58997 79.8399C3.62997 79.7299 3.85996 79.8699 3.92996 79.8999C8.51996 82.0199 12.74 83.3799 17.74 84.3199C19.52 84.6499 21.32 84.8299 23.1 85.1399C23.24 85.1599 23.39 85.0599 23.35 85.2899C16.74 84.5199 9.49998 82.9599 3.59998 79.8399H3.58997Z" fill="#A7102D"/>
<path d="M45.63 84.6299L45.7 84.6999C42.47 85.2899 39.4 85.5899 36.11 85.7199V85.6499C39.26 85.4999 42.5 85.1799 45.62 84.6299H45.63Z" fill="#030101"/>
<path d="M23.48 85.2801C23.55 85.1701 23.77 85.1901 23.88 85.2001C26.15 85.3901 28.28 85.5501 30.56 85.6401C30.7 85.6401 30.85 85.5701 30.81 85.7901C30.57 85.7901 30.24 85.8201 30.01 85.7901C30.01 85.7601 29.97 85.7201 29.94 85.7201C29.05 85.6301 28 85.7101 27.07 85.6501C25.87 85.5701 24.67 85.4201 23.47 85.2901L23.48 85.2801Z" fill="#A7102D"/>
<path d="M30.0199 85.79C30.0199 85.79 29.96 85.75 29.95 85.72C29.98 85.72 30.0199 85.76 30.0199 85.79Z" fill="#B41D46"/>
<path d="M41.35 22.89C41.56 22.86 41.7 22.8699 41.91 22.7599C42.83 22.2799 42.07 21.4499 42.87 20.9299C42.94 21.2099 43.03 21.4899 43.18 21.7499C43.83 22.8999 45.01 22.7799 46.12 23.2399C49.21 24.5199 50.39 27.61 50.72 30.7299C50.63 30.7 50.58 30.6599 50.48 30.6599C48.76 30.7499 46.99 31.1699 45.54 32.1199L44.66 32.9799C44.38 32.08 43.64 32.89 43.57 32.89C43.51 32.89 42.82 32.3199 42.66 32.2199C39.3 30.1799 33.93 30.0299 30.83 32.6499C30.43 32.9899 29.73 33.7399 30.63 33.9099C33.38 32.8699 36.49 32.0599 39.2 33.6499C39.94 34.0799 40.72 34.9399 41.68 34.7899C41.88 34.7599 42.2 34.4899 42.26 34.5099C42.3 34.5099 42.48 34.8099 42.6 34.8999C43.15 35.3299 44.26 35.2799 44.56 34.5799C45.29 35.0599 45.58 34.7899 46.23 34.4299C46.29 34.6099 46.42 34.3999 46.49 34.3599C46.96 34.0499 48.89 33.1199 49.39 33.1199H50.95C50.88 33.2899 50.8 33.56 50.95 33.7C50.91 34.09 50.84 34.4799 50.73 34.8599C49.13 34.2799 47.17 34.7699 45.9 35.8799C45.64 35.3999 45.04 34.95 44.71 35.64C44.26 36.58 45.08 38.5699 45.49 39.4899C45.87 40.3499 46.89 41.9199 46.81 42.8199C46.75 43.4599 45.89 44.19 45.25 44.17C44.66 44.15 43.71 43.6599 42.99 43.5899C42.66 43.5599 41.25 43.67 41.15 43.45C40.93 42.97 41.7 41.8199 40.82 41.7599C39.6 41.6799 39.28 43.68 40.06 44.4799C40.84 45.2799 41.93 44.9299 42.85 45.0299C44.56 45.2199 45.55 46.3499 47.25 44.7699C49.53 42.6599 47.11 40.1499 46.38 37.9399C46.31 37.7199 46.15 37.35 46.16 37.14C46.18 36.78 46.99 36.5799 47.22 36.3099C47.25 36.6399 47.14 36.9399 47.19 37.2799C47.39 38.7499 49.52 38.8699 50 37.4899L50.23 36.5999C50.3 36.8199 50.44 36.9099 50.52 37.1499C50.7 37.7199 50.99 39.1299 51.03 39.7299C50.9 40.25 50.95 40.8899 50.96 41.4399C50.96 41.5599 50.91 41.7599 51.03 41.8399C50.86 44.5699 49.39 47.7499 48.54 50.3499C47.25 54.2999 47.56 57.5199 42.43 57.8199C37.3 58.1199 29.3 54.4499 26.2 50.5099C25.45 49.5599 24.97 48.4499 24.37 47.3999C24.23 47.1599 23.76 46.5799 23.7 46.3999C23.45 45.6799 23.64 45.26 23.11 44.45C22.34 43.27 20.42 43.0399 19.48 44.0799C19.32 44.2499 19.32 44.5399 19.07 44.5099C18.35 44.4099 17.26 42.7199 16.98 42.0899C16.51 41.0199 15.98 38.4499 16.32 37.3599C17.02 35.1699 19.28 35.5399 20.79 36.6799C21.79 37.4299 22.36 39.0199 23.77 38.9299C25.05 38.8599 25.41 37.66 25.77 36.64C26.55 34.4 27 31.9899 27.71 29.7199C27.88 29.1799 28.34 27.5999 28.64 27.2399C28.87 26.9699 29.85 26.3799 30.19 26.1799C32.78 24.6999 36.39 23.4999 39.34 23.0899C39.41 23.1999 39.62 23.18 39.74 23.17C40.25 23.13 40.74 23.0499 41.26 23.0199C41.44 23.0099 41.5 23.0699 41.37 22.8699L41.35 22.89ZM40.01 35.8399C38.73 34.5199 36.59 34.3799 34.93 34.9599C34.24 35.1999 32.27 36.2699 32.08 36.9699C31.81 37.9699 33.25 37.18 33.62 36.9799C34.2 36.66 34.73 36.2299 35.39 36.0199C34.58 39.0599 38.69 39.3499 38.37 36.3099C38.9 36.5899 39.61 37.7199 40.3 37.1099C40.71 36.7399 40.32 36.1299 40.02 35.8299L40.01 35.8399ZM18.91 41.2699C19.1 41.6299 19.31 41.81 19.64 41.42C19.94 41.05 19.82 40.5999 19.86 40.5499C19.97 40.3999 19.99 40.5999 20.01 40.6499C20.26 41.1399 20.47 41.9799 21.22 41.5799C21.56 41.3999 21.66 41.0299 21.6 40.6599C21.54 40.2599 20.61 38.3599 20.33 38.0099C19.87 37.4399 19.11 37.1199 18.38 37.2099C17.95 37.2599 17.2 37.7099 17.43 38.2199C17.69 38.7899 18.69 37.9899 19.05 38.7099C19.21 39.0399 18.92 39.18 18.81 39.45C18.52 40.16 18.57 40.6099 18.92 41.2699H18.91ZM39.39 50.3499L40.41 50.9999C40.22 51.4899 40.39 51.6999 40.74 52.0099C41.81 52.9699 43.54 53.1799 44.88 52.7399C45.59 52.5099 46.63 51.79 46.29 50.92C46.37 50.37 46.73 49.9299 47.16 49.6099C47.39 49.6799 47.51 49.7199 47.74 49.5699C48.41 49.1399 47.36 48.0399 46.89 47.8099C46.05 47.4099 45.4 47.8199 44.58 47.7899C43.85 47.7599 43.21 47.57 42.41 47.64C41.43 47.73 40.63 48.2499 39.74 48.5299C39.26 48.6799 37.95 48.7999 37.76 49.2399C37.39 50.1099 38.78 50.3999 39.39 50.3299V50.3499Z" fill="#F3A36C"/>
<path d="M24.28 50.42C26.98 54.02 30.53 56.31 34.7 57.98C36.56 58.72 38.41 59.23 40.39 59.51L40.04 63.35L39.97 62.88V66C40.09 66.12 40.04 65.71 40.04 65.67C40.18 66.16 40.01 67.61 40.67 67.76C41.54 67.96 41.54 66.58 41.49 66.03L41.63 66.47C41.67 65.88 41.54 65.23 41.7 64.65C42.22 65.41 42.72 66.19 43.16 67C43.36 67.36 43.99 68.48 44.06 68.79C44.08 68.85 44.08 68.87 44.06 68.93C44.01 69.06 42.85 69.93 42.65 70.07C41.13 71.07 39.36 71.59 37.56 71.77L34.15 71.62C30.9 71.11 26.65 69.65 24.09 67.55C23.09 66.72 21.15 63.48 21.01 62.21C20.92 61.32 21.54 60.88 21.89 60.12C22.17 59.5 22.32 58.84 22.46 58.18C22.66 58.22 22.6 58.08 22.63 57.95C22.69 57.65 22.78 57.27 22.82 56.97C22.89 56.39 22.82 55.39 22.99 54.89C23.05 54.73 23.48 54.29 23.61 54.05C24.11 53.14 24.17 52.39 24.07 51.38C24.05 51.21 24.13 51.14 23.93 51.27C23.88 50.85 23.77 50.49 23.71 50.11C23.71 50.11 23.78 50.06 23.77 49.95C23.76 49.81 23.66 49.66 23.67 49.53C23.84 49.85 24.07 50.11 24.29 50.4L24.28 50.42Z" fill="#F3A36C"/>
<path d="M44.61 74.1L44.8 73.82L45.77 73.23C46.51 75.96 47.21 78.72 47.78 81.5C47.92 82.16 47.99 83.2 48.18 83.78C48.22 83.89 48.3 83.94 48.38 84.02C48.38 84.19 45.89 84.59 45.62 84.64C42.5 85.19 39.26 85.5 36.11 85.66C35.15 85.71 34.17 85.66 33.21 85.72C31.87 82.28 29.98 79.09 28.23 75.85C28.13 75.67 28.03 75.28 27.98 75.19C28.43 75.12 28.59 74.72 28.42 74.32C31.7 75.57 34.49 75.97 38.01 75.92C37.21 76.62 38.24 77.56 38.95 76.97C39.31 76.67 39.22 76.1 38.81 75.92C38.99 75.69 39.31 75.8 39.56 75.77C40.19 75.68 40.79 75.49 41.42 75.42C40.71 76.93 43.59 76.57 42.36 75.13C43.15 75.01 43.75 74.26 44.54 74.19C44.17 74.87 45.25 75.26 45.7 74.74C46.23 74.13 45.28 73.47 44.61 74.12V74.1ZM30.58 75.28C29.81 75.45 30.15 76.87 31.08 76.5C31.79 76.22 31.48 75.07 30.58 75.28ZM34.25 76.08C33.92 76.38 34 77.09 34.55 77.15C36.19 77.33 35.21 75.2 34.25 76.08Z" fill="#001827"/>
<path d="M26.53 10.8299C24.62 10.9499 23.6 12.13 23.85 14.06C24.04 15.53 25.95 16.1699 27.2 15.6799C28.66 15.1099 29.1 13.02 28.2 11.81C28.01 11.56 27.36 11.1599 27.33 10.9299C27.32 10.8199 27.55 9.64995 27.6 9.45995C28.32 6.63995 32.27 8.14994 31.02 10.7699C30.66 11.5299 29.99 11.68 29.7 12.14C29.22 12.88 29.98 12.6199 30.27 12.6499C31.47 12.7799 32.87 13.79 32.62 15.13C32.5 15.78 31.44 16.07 30.86 16.06C30.35 16.06 29.65 15.7199 29.24 15.7099C29.12 15.7099 28.94 15.81 28.89 15.91C28.7 16.29 29.33 16.72 29.54 17.01C30.13 17.83 30.77 19.1999 29.68 19.8999C28.64 20.5599 27.44 19.99 26.96 18.94C26.75 18.48 26.6 17.06 25.98 17.01C25.75 16.99 25.69 17.6199 25.63 17.7999C25.18 19.0199 24.16 20.24 22.74 19.39C21.72 18.78 22.36 17.0599 22.92 16.3299C23.27 15.8799 24.02 15.75 23.79 15.14C23.55 14.48 22.73 14.9899 22.21 15.0499C21.62 15.1099 21.09 15.05 20.55 14.82C18.55 13.94 19.48 11.1999 21.68 11.5799C22.41 11.6999 22.65 12.37 23.55 12.04C24 11.87 23.59 11.56 23.44 11.28C22.99 10.41 22.58 9.71997 22.68 8.69997C22.78 7.67997 23.95 6.71995 24.97 6.99995C26.89 7.52995 26.19 9.38995 26.53 10.84V10.8299Z" fill="#D72C28"/>
<path d="M43.0199 12.2799C43.3199 12.5399 43.87 11.7399 44.1 11.6599C45 11.3799 46.4299 12.2199 46.4999 13.1899C46.5899 14.4499 44.5599 14.9299 43.5899 14.9699C44.1499 16.1899 45.47 15.7399 45.92 17.2499C46.33 18.6399 44.5999 19.5599 43.5499 18.5299C43.1899 18.1699 42.9999 17.4799 42.4299 17.3699C42.0799 18.1299 42.35 18.8099 41.98 19.5799C41.66 20.2499 41.1999 20.6499 40.4999 20.1299C40.0799 19.8199 39.8499 19.2999 39.8099 18.7899C39.7799 18.4299 39.9699 17.3299 39.7799 17.1499C39.6899 17.0699 39.57 17.1099 39.51 17.0699C39.44 17.0299 39.45 16.9299 39.42 16.9299C39.29 16.9299 38.9899 17.3799 38.8399 17.5099C37.9899 18.2799 36.5399 18.6999 35.9299 17.4399C35.4599 16.4599 35.9899 15.5699 36.9099 15.1499C37.2299 14.9999 37.9799 14.9799 37.9899 14.5699C37.9899 14.5099 37.93 14.0499 37.92 14.0299C37.87 13.9799 36.92 13.8899 36.63 13.7599C34.27 12.7299 36.0399 9.3299 38.3999 10.8299C38.7799 11.0699 39.39 12.0799 39.89 11.8799C39.91 11.8799 40.1699 11.6999 40.1799 11.6899C40.2199 11.6199 39.9399 10.4399 39.9699 10.0599C40.0499 9.12991 41.08 7.75992 42.1 7.93992C43.29 8.13992 43.5099 9.23993 43.3699 10.2599C43.3099 10.6999 42.9 11.3599 42.88 11.6599C42.88 11.7199 43.0099 12.2499 43.0299 12.2699L43.0199 12.2799ZM40.6 12.2999C39.13 12.5499 38.63 14.6899 39.35 15.8399C40.01 16.8899 41.8199 17.0999 42.5599 16.0099C43.7199 14.3299 42.8799 11.9099 40.5899 12.2999H40.6Z" fill="#F5A70F"/>
<path d="M47.45 16.57C48.3 16.68 48.99 16.7401 49.67 16.1401C50.79 15.1401 50.47 12.84 48.87 12.58C48.65 12.55 48.01 12.63 47.91 12.56C47.87 12.54 47.64 11.98 47.52 11.82C47.06 11.19 46.35 10.91 45.72 10.5C46.36 10.1 47.13 10 47.72 10.53C47.89 10.69 48.16 11.22 48.2 11.25C48.31 11.32 48.87 11.32 48.91 11.08C49.02 10.49 48.73 10.12 49.34 9.63005C50.06 9.05005 50.98 9.32003 51.41 10.11C52.16 11.48 50.49 12.1601 50.87 13.4501C51.86 13.1201 52.99 12.99 53.69 13.93C54.63 15.19 53.31 16.3101 52.07 16.4201C51.55 16.4701 50.61 16.12 50.59 16.81C51.22 17.61 51.89 18.6801 51.35 19.7001C51.11 20.1501 50.75 20.26 50.26 20.21C49.36 20.11 49.37 18.77 48.95 18.25C48.78 18.04 48.28 17.68 48.15 18.1C48 18.59 48.14 19 47.75 19.52C47.27 20.17 46.23 19.95 46.45 19.57C46.45 19.56 46.6 19.51 46.66 19.46C46.94 19.19 47.46 18.46 47.46 18.08V16.59L47.45 16.57Z" fill="#D72C28"/>
<path d="M36.9899 9.23002C37.3099 8.48002 37.2199 8.07003 36.8299 7.39003C35.6899 5.40003 33.0699 5.73003 32.4199 7.89003C32.3999 7.94003 32.4399 8.05001 32.3099 8.00001C32.1899 7.95001 31.9799 7.58003 31.8399 7.45003C31.4399 7.08003 30.7399 6.81001 30.2099 6.68001C30.0099 6.63001 29.1899 6.54002 29.1399 6.51002C29.0699 6.46002 29.0199 6.23003 28.9999 6.14003C28.8599 5.19003 29.3399 4.32001 30.3399 4.22001C31.3399 4.12001 31.7899 4.40001 32.4499 5.09001C32.5099 5.15001 32.5499 5.29 32.5599 5.3C32.5899 5.32 32.9599 5.20003 33.0099 5.17003C33.2399 5.02003 33.0199 3.83001 33.0699 3.47001C33.1999 2.44001 34.6199 1.25001 35.5699 2.12001C36.4499 2.93001 36.4599 3.76 36.0999 4.83C36.0099 5.1 35.6199 5.63001 35.7899 5.90001C35.7999 5.92001 36.1399 6.17001 36.1699 6.18001C36.5699 6.30001 36.8299 5.83001 37.1099 5.62001C37.8799 5.06001 39.1599 5.07001 39.8599 5.75001C41.0599 6.92001 39.7999 7.49003 39.1799 8.42003C38.9899 8.70003 38.8599 8.97001 38.7399 9.28001C38.1499 9.28001 37.5899 9.06 36.9899 9.24V9.23002Z" fill="#D72C28"/>
<path d="M24.86 69.96C30.71 73.11 39.26 75.54 44.72 70.4C44.79 70.4 45.2 71.25 45.19 71.38C45.16 71.85 43.05 73.06 42.58 73.26C36.98 75.69 30.93 73.76 25.66 71.45L24.86 69.96Z" fill="#F5A90E"/>
<path d="M21.44 48.2499C22.15 49.6799 23.06 52.5799 21.71 53.8299C21.24 54.2699 20.52 54.3399 20 53.9399C18.72 52.9399 19.55 49.5199 20.18 48.2299C20.22 48.1799 20.26 48.1699 20.32 48.1599C20.62 48.1599 21.09 48.2899 21.44 48.2399V48.2499Z" fill="#F5A70F"/>
<path d="M21.1599 16.57L20.7799 17.71C20.1399 17.84 18.7799 19.26 18.7799 19.85C18.7799 19.94 18.8599 20.08 18.8399 20.19C19.6299 20.32 20.0999 19.72 20.6499 19.43C20.9299 19.29 20.8499 19.51 20.9799 19.68C21.1999 19.96 21.5899 20.22 21.7399 20.45C21.7799 20.51 21.8399 20.52 21.8099 20.63C20.1099 21.47 18.3299 21.96 16.4399 21.42C16.2699 21.22 17.0999 19.48 17.2699 19.17C17.7399 18.31 18.4699 17.31 19.2699 16.74C20.0699 16.17 20.2199 16.39 21.1499 16.55L21.1599 16.57Z" fill="#006C3A"/>
<path d="M23.6299 22.45L21.5799 25.3799C20.2499 26.9799 19.2499 29.0799 17.1599 29.7899C18.0799 27.8999 19.1099 26.0299 20.2199 24.2499C20.7299 23.4199 20.8699 23.0399 21.8299 22.6599C22.4399 22.4199 22.9699 22.2699 23.6199 22.4599L23.6299 22.45Z" fill="#2C2A2B"/>
<path d="M47.59 4.86986C47.59 5.90986 47.22 7.03987 46.7 7.93987C46.61 8.09987 46.22 8.70987 46.1 8.78987C45.84 8.95987 45.24 8.99987 44.94 9.21987C44.57 8.72987 45.02 8.60987 45.23 8.34987C45.4 8.13987 46.15 6.84986 45.99 6.67986C45.78 6.65986 45.61 6.70985 45.42 6.79985C45.24 6.87985 44.46 7.61986 44.4 7.55986C44.47 7.28986 43.84 6.64987 43.82 6.56987C43.78 6.31987 45.24 5.55987 45.51 5.43987C45.78 5.31987 47.44 4.71986 47.59 4.86986Z" fill="#006C3A"/>
<path d="M27.6899 6.90997C27.5199 6.94997 27.5699 6.87998 27.5199 6.81998C27.1199 6.30998 26.1199 4.67998 25.5099 4.53998C25.1899 4.46998 25.3299 5.48997 25.2899 5.52997C25.1099 5.47997 24.5499 5.49998 24.4499 5.38998C24.1899 5.07998 23.9099 2.68998 24.1999 2.47998C24.7899 2.64998 25.3999 2.99995 25.8899 3.35995C26.2299 3.60995 27.4699 4.62996 27.5299 4.98996C27.5799 5.26996 27.5099 5.62996 27.5299 5.92996C27.5599 6.25996 27.7399 6.55997 27.6699 6.90997H27.6899Z" fill="#006C3A"/>
<path d="M18.91 11.0499C18.74 11.2599 18.56 11.4399 18.42 11.6799C18.33 11.8299 18.2 12.2499 18.18 12.2699C18.12 12.3299 17.46 12.1999 17.18 12.3899C16.58 12.7799 17.94 13.0399 18.01 13.1499C18.1 13.2899 18.01 13.8799 18.12 14.0999C17.48 14.2099 14.68 12.9599 14.56 12.4599C14.53 12.3299 15.22 11.9599 15.35 11.8799C16.42 11.3099 17.69 10.9999 18.91 11.0499Z" fill="#006C3A"/>
<path d="M13.68 33.0599C11.95 32.3299 11.1 30.7599 11.28 28.8799C11.3 28.6599 11.5701 27.4299 11.8901 27.8299C12.5901 29.5299 13.3701 31.2199 13.6701 33.0599H13.68Z" fill="#2C2A2B"/>
<path d="M21.2999 9.89001C20.9899 10.21 20.0299 8.63 19.9099 8.41C19.4499 7.59 19.0999 6.7 19.0499 5.75C19.4299 5.81 21.5999 6.8 21.6599 7.03C21.1099 7.96 21.0799 8.85001 21.2999 9.89001Z" fill="#006C3A"/>
<path d="M13.82 21C13.42 23.03 13.85 25.09 14.18 27.1C13.11 26.63 12.6 24.88 12.51 23.79C12.42 22.77 12.8 21.44 13.82 21Z" fill="#2C2A2B"/>
<path d="M34.37 10.9799C34.18 11.9699 34.05 12.9399 34.6 13.8299C34.66 13.9299 35.17 14.4499 35.1 14.5299L34.08 14.89C34.08 13.81 33.6 12.9699 32.81 12.2799C32.66 12.1499 32.28 12.0099 32.27 11.8099C32.25 11.4799 32.9 10.44 32.78 9.94995C32.9 10.02 32.94 10.1599 33.07 10.2799C33.44 10.6099 33.89 10.8699 34.38 10.9699L34.37 10.9799Z" fill="#D72C28"/>
<path d="M13.82 38.7199C12.02 38.2699 11.29 36.1799 11.35 34.5099C11.48 34.4799 11.5 34.5599 11.57 34.6199C12.86 35.6099 13.38 37.2199 13.82 38.7199Z" fill="#2C2A2B"/>
<path d="M26.22 12.2299C27.42 12.0599 27.62 14.2899 26.41 14.4599C24.52 14.7299 24.84 12.4299 26.22 12.2299Z" fill="#F5A70F"/>
<path d="M16.88 33.27L18.26 31.27C18.84 30.64 19.51 30.12 20.26 29.71C20.05 30.35 19.7 30.98 19.34 31.55C18.76 32.47 18.14 33.43 16.89 33.27H16.88Z" fill="#2C2A2B"/>
<path d="M34.52 16.28L34.44 17.5L31.76 18.6L31.54 17.29C31.87 17.29 32.27 17.19 32.57 17.05C32.87 16.91 33.3 16.43 33.49 16.38C33.76 16.3 34.21 16.34 34.51 16.28H34.52Z" fill="#006C3A"/>
<path d="M17.17 15.84C16.94 16.13 16.69 16.42 16.53 16.76C16.22 17.4 16.27 18.04 15.58 18.5L15.07 19.19C14.95 18.37 14.91 17.25 15.33 16.51C15.42 16.35 16.01 15.6801 16.14 15.6401C16.31 15.6001 16.93 15.91 17.18 15.85L17.17 15.84Z" fill="#2C2A2B"/>
<path d="M54.13 22.3801H52.86C52.69 22.3801 52 22.1501 51.79 22.0701C51.48 21.9601 51.13 21.8201 50.86 21.6201C51.56 21.3501 52.19 21.0201 52.57 20.3501C53.25 20.8501 53.84 21.5901 54.13 22.3801Z" fill="#006C3A"/>
<path d="M34.5 7.42989C35.71 7.24989 36.01 9.5099 34.63 9.5099C33.33 9.5099 32.96 7.65989 34.5 7.42989Z" fill="#F5A70F"/>
<path d="M41.64 5.23993C41.03 4.50993 40.38 3.91995 39.39 3.81995C39.39 3.48995 41.07 2.12995 41.21 2.25995L41.65 3.88995V5.22995L41.64 5.23993Z" fill="#006C3A"/>
<path d="M20.9199 44.9898C21.3499 44.8798 21.5999 45.0099 21.7999 45.3899C22.6399 47.0199 19.9899 47.4698 20.1499 45.9698C20.1899 45.6298 20.5899 45.0898 20.9299 44.9998L20.9199 44.9898Z" fill="#F5A90E"/>
<path d="M48.0699 13.7399C48.3399 13.6499 48.8499 13.84 48.9999 14.1C49.4399 14.87 48.3299 15.74 47.6999 15.26C47.2599 14.93 47.6399 14.7 47.7499 14.44C47.8199 14.28 47.9599 13.7799 48.0699 13.7399Z" fill="#F5A70F"/>
<path d="M38.7999 75.91C39.2099 76.09 39.2999 76.66 38.9399 76.96C38.2299 77.55 37.1999 76.61 37.9999 75.91C38.2699 75.91 38.4499 75.75 38.7999 75.91Z" fill="#F5A90E"/>
<path d="M42.3599 75.1099C43.5899 76.5499 40.7099 76.9099 41.4199 75.3999C41.5899 75.0499 42.0699 75.1499 42.3599 75.1099Z" fill="#F5A90E"/>
<path d="M44.54 74.17C44.54 74.17 44.59 74.12 44.61 74.1C45.28 73.45 46.23 74.11 45.7 74.72C45.24 75.24 44.17 74.85 44.54 74.17Z" fill="#F5A90E"/>
<path d="M28.42 74.3201C28.59 74.7301 28.44 75.1201 27.98 75.1901C27.98 75.1901 27.87 75.2101 27.81 75.1001C27.64 74.7901 27.48 74.4901 27.33 74.1701C27.86 73.8501 28.01 74.1601 28.42 74.3101V74.3201Z" fill="#F5A90E"/>
<path d="M23.7 50.1299C23.67 49.6199 22.7299 48.2699 22.7499 47.9199C22.7499 47.8499 22.84 47.8899 22.89 47.8799L24.2699 50.4199C24.0599 50.1299 23.8299 49.8699 23.6499 49.5499C23.6299 49.6799 23.7299 49.8299 23.7499 49.9699C23.7499 50.0699 23.69 50.1199 23.69 50.1299H23.7Z" fill="#F3A36C"/>
<path d="M46.2099 34.4398C46.5499 34.2498 46.8699 33.9998 47.2199 33.8198C48.3699 33.2398 49.6999 32.7698 50.9899 33.0698C50.9699 33.2798 50.95 33.4998 50.92 33.7198C50.77 33.5798 50.85 33.2998 50.92 33.1398H49.3599C48.8599 33.1398 46.9299 34.0598 46.4599 34.3798C46.3999 34.4198 46.27 34.6298 46.2 34.4498L46.2099 34.4398Z" fill="#F5BA7B"/>
<path d="M23.92 51.29C24.13 51.15 24.0499 51.23 24.0599 51.4C24.1599 52.41 24.0999 53.16 23.5999 54.07C23.4699 54.31 23.0399 54.74 22.9799 54.91C22.8099 55.41 22.8799 56.41 22.8099 56.99C22.7699 57.29 22.6899 57.67 22.6199 57.97C22.5899 58.1 22.65 58.24 22.45 58.2C22.52 57.85 22.6099 57.49 22.6599 57.14C22.7399 56.56 22.6899 55.37 22.8299 54.91C22.8599 54.82 23.4299 54.18 23.5699 53.91C24.0299 52.99 24.0199 52.29 23.9099 51.3L23.92 51.29Z" fill="#F5BA7B"/>
<path d="M37.5699 71.7699C36.3499 71.8899 35.3599 71.8099 34.1599 71.6199L37.5699 71.7699Z" fill="#F3A36C"/>
<path d="M41.3499 22.8899C41.4799 23.0899 41.4199 23.0299 41.2399 23.0399C40.7199 23.0699 40.2299 23.1499 39.7199 23.1899C39.5999 23.1899 39.3899 23.2299 39.3199 23.1099C39.9899 23.0199 40.6999 22.9999 41.3499 22.8899Z" fill="#F5BA7B"/>
<path d="M40.04 63.3499C40.04 64.1199 40.05 64.8999 40.04 65.6699C40.04 65.7099 40.09 66.1199 39.97 65.9999V62.8799L40.04 63.3499Z" fill="#F5BA7B"/>
<path d="M17.3099 64.5801C17.0899 63.8301 16.9899 63.1001 17.1599 62.3301C17.3499 62.6301 17.0599 63.0401 17.1599 63.3801L17.2999 64.5801H17.3099Z" fill="#B51D46"/>
<path d="M19.7799 63.2701C19.5899 62.6401 19.4199 61.9601 19.6299 61.3101C19.5799 61.9701 19.7199 62.6201 19.7799 63.2701Z" fill="#B51D46"/>
<path d="M41.71 64.6499C41.55 65.2199 41.68 65.8699 41.64 66.4699L41.5 66.0299C41.64 65.5099 41.54 64.9599 41.57 64.4299C41.68 64.4199 41.66 64.5699 41.71 64.6499Z" fill="#F5BA7B"/>
<path d="M51 41.85C50.88 41.77 50.93 41.57 50.93 41.45C50.93 40.9 50.88 40.27 51 39.74C51.04 40.35 51.04 41.23 51 41.85Z" fill="#F5BA7B"/>
<path d="M16.73 67.2C16.25 66.35 15.7199 65.34 15.5299 64.37C15.5099 64.26 15.44 64.07 15.57 64C15.83 65.14 16.24 66.15 16.73 67.2Z" fill="#B51D46"/>
<path d="M11.48 69.8201C11.65 69.7801 11.74 69.8201 11.89 69.8901C12.04 69.9601 12.78 70.6901 12.95 70.8601C14.88 72.7701 16.64 74.8801 18.5 76.8601C19.75 78.1801 21.46 79.6301 22.57 81.0001C22.68 81.1401 22.91 81.3801 22.9 81.5401C22.89 81.7601 22.43 82.2301 22.21 82.2301C21.89 82.2301 20.69 81.1301 20.39 80.8601C17.76 78.4401 14.78 75.2401 12.48 72.5101C12.13 72.1001 11.14 70.8601 11.02 70.4001C10.96 70.1501 11.26 69.8801 11.48 69.8301V69.8201Z" fill="#010100"/>
<path d="M40.01 35.84C40.31 36.14 40.7 36.76 40.29 37.12C39.61 37.73 38.9 36.6 38.36 36.32C38.68 39.36 34.57 39.07 35.38 36.03C34.72 36.23 34.2 36.67 33.61 36.99C33.24 37.19 31.8 37.98 32.07 36.98C32.26 36.27 34.24 35.21 34.92 34.97C36.58 34.39 38.71 34.53 40 35.85L40.01 35.84Z" fill="#030101"/>
<path d="M47.1599 49.6199C46.8799 49.5399 46.5499 49.3499 46.2499 49.3399C45.6899 49.3199 45.0899 49.7899 44.5099 49.8399C43.7299 49.9099 42.8699 49.5899 42.0399 49.6199C40.9599 49.6699 40.2199 50.2499 39.3899 50.3499C38.7799 50.4199 37.3899 50.1299 37.7599 49.2599C37.9499 48.8199 39.2599 48.6999 39.7399 48.5499C40.6299 48.2699 41.4299 47.7499 42.4099 47.6599C43.2099 47.5899 43.8499 47.7799 44.5799 47.8099C45.3999 47.8399 46.0499 47.4299 46.8899 47.8299C47.3599 48.0499 48.4099 49.1499 47.7399 49.5899C47.5099 49.7399 47.3899 49.6999 47.1599 49.6299V49.6199Z" fill="#030101"/>
<path d="M18.9099 41.2699C18.5599 40.6099 18.5099 40.1699 18.7999 39.4499C18.9099 39.1799 19.1999 39.0299 19.0399 38.7099C18.6899 37.9899 17.68 38.7899 17.42 38.2199C17.19 37.7099 17.9399 37.2699 18.3699 37.2099C19.0999 37.1199 19.8599 37.4399 20.3199 38.0099C20.5999 38.3599 21.5299 40.2599 21.5899 40.6599C21.6499 41.0299 21.5499 41.3899 21.2099 41.5799C20.4599 41.9799 20.2499 41.1499 19.9999 40.6499C19.9699 40.5999 19.9599 40.3999 19.8499 40.5499C19.8099 40.5999 19.9399 41.0499 19.6299 41.4199L18.8999 41.2699H18.9099Z" fill="#030101"/>
<path d="M40.3999 51.0001C41.9599 50.8001 42.9899 51.5801 44.6099 51.1101C44.9799 51.0001 46.0599 50.3601 46.2799 50.9301C46.6199 51.7901 45.5699 52.5201 44.8699 52.7501C43.5299 53.1901 41.8 52.9801 40.73 52.0201C40.38 51.7101 40.2099 51.5001 40.3999 51.0101V51.0001Z" fill="#030101"/>
<path d="M47.16 49.62C46.73 49.94 46.37 50.38 46.29 50.93C46.07 50.36 44.99 51.01 44.62 51.11C42.99 51.58 41.97 50.8 40.41 51L39.39 50.35C40.22 50.26 40.96 49.67 42.04 49.62C42.86 49.58 43.73 49.91 44.51 49.84C45.09 49.79 45.68 49.32 46.25 49.34C46.55 49.35 46.88 49.54 47.16 49.62Z" fill="#D12821"/>
<path d="M19.6299 41.41C19.2999 41.81 19.0899 41.62 18.8999 41.26L19.6299 41.41Z" fill="#2C2A2B"/>
<path d="M34.25 76.08C35.21 75.2 36.19 77.33 34.55 77.15C33.99 77.09 33.92 76.38 34.25 76.08Z" fill="#F5A90E"/>
<path d="M30.58 75.28C31.48 75.08 31.79 76.22 31.08 76.5C30.15 76.87 29.81 75.45 30.58 75.28Z" fill="#F5A90E"/>
<path d="M40.6 12.3C42.89 11.92 43.72 14.33 42.57 16.01C41.83 17.09 40.02 16.89 39.36 15.84C38.63 14.69 39.14 12.55 40.61 12.3H40.6ZM40.89 13.61C39.78 13.8 40.18 15.76 41.37 15.39C41.86 15.24 42.11 13.39 40.89 13.61Z" fill="#030101"/>
<path d="M40.89 13.6099C42.11 13.3999 41.86 15.24 41.37 15.39C40.18 15.75 39.78 13.7999 40.89 13.6099Z" fill="#F5A90E"/>
</svg>
