<svg width="76" height="62" viewBox="0 0 76 62" fill="none" xmlns="http://www.w3.org/2000/svg">
<path d="M6.46991 39.99C7.12991 40.08 7.73993 40.5401 8.35993 40.6901C9.38993 40.9401 10.66 40.91 11.59 40.37C12.25 39.99 12.42 39.71 12.64 38.99C13.24 37.09 13.6099 35.05 14.2199 33.12C14.7599 31.42 15.3899 29.76 16.0699 28.12C14.3599 25.99 12.5499 24.1501 10.4099 22.4501C7.81991 20.4001 3.59991 17.9301 2.40991 14.7601C2.21991 14.2501 2.17995 13.6401 2.00995 13.2101C1.82995 12.7301 1.20994 12.1701 0.969942 11.5001C-0.190058 8.31005 1.98994 6.28006 4.61994 5.07006C6.00994 4.43006 8.64996 3.75006 9.76996 3.01006C9.98996 2.87006 10.32 2.36006 10.58 2.13006C13.69 -0.649942 17.66 -0.729947 20.65 2.25005C21.52 3.12005 21.7599 4.08007 23.0999 4.33007C26.4999 4.98007 26.58 5.26008 29.15 7.34008C31.29 9.08008 36.4699 11.0601 39.1599 11.8901C42.8899 13.0501 46.7799 13.47 50.4099 14.5601C54.5399 15.8101 58.5199 20.44 61.4399 23.6C64.4899 26.9 67.61 30.44 70.08 34.18C76.81 35.82 76.3499 42.27 72.9899 47.04C69.8799 51.46 65.7999 52.61 62.1299 55.92C60.4599 57.43 60.2699 58.3201 59.2299 60.1401C56.9599 64.1301 51.87 60.51 55.21 57.41C55.33 57.3 56.4599 56.53 56.2999 56.36C54.6299 56.99 52.9299 57.5801 51.2899 58.2601C49.5199 59.0001 47.3299 60.5901 45.3799 59.6401C44.3699 59.1401 43.8299 58.02 44.1299 56.92C44.6199 55.11 46.7999 54.7501 48.3799 54.5001L46.9 54.3201C44.07 53.4101 44.95 49.8001 48.01 50.1401C49.92 50.3601 50.4599 50.91 52.6099 50.35C53.2599 50.18 52.3499 50.04 52.1099 49.93C51.4399 49.64 50.82 49.2501 50.27 48.7701C46.63 49.0901 43.0499 48.07 39.6099 47.0601C37.9699 49.9401 36.3999 53.4301 33.8699 55.6401C32.3299 56.9801 31.49 56.8501 29.76 57.5201C27.66 58.3301 27.0099 60.07 25.3199 61.18C21.9599 63.39 19.7999 59.3001 22.6299 57.5201L23.6299 57.0201C23.0399 57.0201 22.44 57.23 21.89 57.42C20.44 57.92 18.43 59.25 16.96 59.12C14.21 58.88 13.9499 54.93 16.8199 54.37C17.6999 54.2001 18.5899 54.3201 19.4699 54.2701C20.0899 54.2301 20.88 54.13 21.45 53.91C20.15 53.51 18.2599 53.13 18.0599 51.47C17.7999 49.29 19.9899 48.23 21.8199 49.17C23.4599 50.02 23.7 50.84 25.9 51.24C28.64 51.73 28.8099 50.85 29.7999 48.66C30.5299 47.04 31.0999 45.34 31.9699 43.79C27.9099 41.52 24.72 38.1101 21.65 34.6901C21.48 34.6601 21.56 34.73 21.52 34.8C21.18 35.57 18.9 40.3101 19.03 40.7001C19.1 40.9001 20.4199 41.14 20.6799 41.16C21.9199 41.25 23.32 40.6201 24.4 41.4001C25.71 42.3501 25.51 44.4801 24.08 45.2101C21.95 46.2801 19.4099 44.04 17.7299 44.92C16.5299 45.55 17.07 47.16 16.27 48.24C14.61 50.48 10.9699 48.9701 11.9999 46.1501C12.0499 46.0001 12.4999 45.3201 12.4699 45.2801C11.9699 45.4701 11.5099 45.7201 11.0499 46.0101C9.86993 46.7401 8.81991 48.12 7.46991 48.42C5.20991 48.92 3.55996 46.7401 5.13996 44.8801C5.29996 44.7001 5.47994 44.61 5.61994 44.48C5.68994 44.41 5.68992 44.4201 5.66992 44.3101C2.42992 43.9201 3.25994 39.5101 6.49994 39.9601L6.46991 39.99ZM9.89997 4.95007C7.85997 6.01007 3.70992 6.72006 2.78992 9.01006C2.36992 10.0701 2.63997 11.3101 3.58997 11.9601C4.70997 12.7301 6.62997 13.5701 7.89997 14.2001C11.25 15.8801 15.9999 18.46 19.6799 18.85C23.8199 19.29 27.3599 17.1901 31.6299 17.9001C34.0099 18.3001 35.3399 19.4101 37.3799 20.3201C38.4499 20.8001 40.3299 21.24 40.9799 19.93C42.0199 17.86 38.4699 16.84 37.1899 16.05C35.8399 15.21 34.91 13.88 35.07 12.22C33.3699 11.59 31.8 10.6701 30.15 9.94005C30.24 10.9901 30.3299 12.3501 29.8599 13.3301C29.6799 13.7001 28.9999 14.5401 28.6199 13.9401C28.3499 13.5201 28.6499 11.95 28.6199 11.36C28.3599 6.20004 23.04 5.31004 18.95 6.55004C18.68 6.63004 18.2999 6.88005 18.0399 6.93005C17.3899 7.05005 16.5 6.85003 16.9 6.04003C17.21 5.42003 19.1999 4.68006 19.8699 4.44006C19.2099 3.12006 17.5999 1.98003 16.1099 1.85003C14.8999 1.75003 13.5099 2.14004 12.5399 2.86004C11.5899 3.56004 11.02 4.35006 9.88996 4.94006L9.89997 4.95007ZM33.83 21.05C30.73 18.7 25.54 20.83 22.03 20.8C18.99 20.77 16.1199 19.8101 13.3499 18.6301C10.1499 17.2701 7.09994 15.56 3.93994 14.12C5.36994 17.03 8.41996 18.68 10.89 20.6C13.36 22.52 15.36 24.4701 17.33 26.7801C18.41 25.6001 19.77 25.1701 21.34 25.4401C22.12 25.5701 22.8399 25.9401 23.6199 26.0701C26.2099 26.5101 27.2099 23.4601 30.1799 24.1301C32.3399 24.6201 36.29 29.1301 37.77 30.9001C39.43 32.9001 43.0699 37.16 42.7899 39.8C42.6099 41.44 41.0599 43.5701 40.5599 45.1401C40.5299 45.2201 40.5 45.3001 40.53 45.3801C43.25 46.3501 46.09 47.2101 49.02 47.0801C48.86 46.4101 48.53 45.7801 48.46 45.0901C48.31 43.6101 48.6999 42.53 49.1799 41.18C50.2099 38.23 50.83 35.9301 53.64 34.1901C55.44 33.0701 56.9399 33.1001 58.3099 31.2601C59.4099 29.7801 60.25 27.3001 62.53 27.5101L59.9399 24.5601C58.0199 24.4101 56.29 25.9001 55.65 27.6301C55.33 28.5101 55.2899 29.44 54.6799 30.22C53.9699 31.11 52.5799 31.4401 51.6299 32.0301C49.4799 33.3601 50.09 35.9801 47.39 36.9401C42.07 38.8301 40.5899 31.7501 44.3599 28.6501C45.1699 27.9801 46.24 27.6901 47.03 27.0301C48.22 26.0301 48.8299 24.0401 49.6599 22.7001C50.7599 20.9401 52.3199 19.4001 54.4399 19.0201C53.0899 17.4801 51.1399 16.61 49.1799 16.11V17.4501C49.1799 17.6901 48.9199 18.5201 48.8099 18.7801C47.9099 20.9601 45.2999 20.9 44.4399 22.91C44.1999 23.49 44.0999 24.1101 43.7899 24.6901C42.7899 26.5601 40.0999 27.4201 38.1599 26.6301C35.4199 25.5201 35.7999 22.5601 33.82 21.0601L33.83 21.05ZM32.58 36.2101C33.18 36.8201 35.3899 38.59 35.5399 39.24C35.7099 39.95 35.3699 40.4601 35.0999 41.0801C34.1799 43.1901 33.1199 45.26 32.1599 47.36C31.5399 48.71 30.61 51.58 29.46 52.43C27.69 53.75 24.17 52.76 22.45 51.67C21.93 51.34 20.91 50.2701 20.39 50.2501C19.75 50.2201 19.4099 50.7101 19.5699 51.3201C19.8499 52.3901 23.3799 52.2401 23.8599 53.3401C24.0799 53.8401 23.4199 54.33 23.0599 54.6C22.1799 55.24 20.68 55.7401 19.59 55.8301C18.75 55.9001 16.1199 55.4301 16.2499 56.8201C16.3999 58.4601 19.1899 56.9201 19.9899 56.6301C21.4099 56.1401 25.1799 54.6701 26.4799 55.3201C26.7799 55.4701 26.7999 55.6901 26.7299 56.0101C26.6199 56.4901 25.3099 57.18 25.01 57.68C24.63 58.16 23.1199 58.8601 22.9299 59.3201C22.7399 59.7801 22.9999 60.3201 23.5499 60.2701C24.7199 60.1601 26.3799 57.73 27.3799 56.97C28.9999 55.73 30.8 55.84 32.34 54.72C35 52.79 38.2099 46.0001 39.6199 42.9001C40.0599 41.9301 41.0099 40.12 40.9199 39.11C40.8599 38.36 40.0999 36.9601 39.6799 36.3101C39.3499 35.8001 38.6599 34.7601 38.0499 34.7001C36.6499 34.5601 36.02 36.0001 34.89 36.1501C33.54 36.3301 32.4599 35.56 31.7499 34.49C31.7299 34.45 31.6199 34.4701 31.6199 34.4601C31.4999 34.2601 31.16 33.1401 31.14 32.8801C30.96 31.0901 31.9599 29.7101 33.8099 29.6401C33.2099 29.0301 32.61 28.41 31.95 27.86C31.02 27.07 29.8099 25.9001 28.5499 26.6501C26.4699 27.8801 28.3 30.75 29.26 32.17C29.88 33.09 30.6199 33.82 31.2999 34.62C31.7199 35.1101 32.11 35.7101 32.59 36.2001L32.58 36.2101ZM22.33 30.0801C21.38 32.0901 23.8299 34.56 25.0999 35.93C27.3599 38.36 29.9199 40.56 32.7899 42.24C32.9099 42.24 33.72 40.2401 33.76 40.0601C33.79 39.9501 33.84 39.85 33.76 39.74L31.8599 37.92C29.4399 35.42 27.15 32.83 25.83 29.55C25.67 29.35 25.01 28.97 24.76 28.92C23.84 28.75 22.74 29.23 22.33 30.1V30.0801ZM15.45 34.85C14.97 36.45 14.6799 38.2101 14.1299 39.7601C13.2099 42.3801 10.2099 42.89 7.78992 42.22C7.06992 42.02 6.18992 41.2401 5.47992 41.6301C4.99992 41.8901 5.00993 42.73 5.60993 42.86L9.54993 42.8101C10.3599 42.8101 10.6099 43.4501 9.97992 43.9601C9.10992 44.6701 6.19992 44.9401 6.03992 46.2501C6.00992 46.5101 6.08996 46.79 6.32996 46.92C7.26996 47.45 8.41995 45.96 9.06995 45.47C9.71995 44.98 12.8199 43.34 13.5399 43.22C15.1099 42.96 14.3999 45.2801 13.9199 46.0301C13.7999 46.2101 13.5899 46.3301 13.4799 46.5601C13.0399 47.4201 13.77 48.1601 14.64 47.6401C15.37 47.2101 15.27 45.56 15.7 44.74C16.65 42.92 18.6299 43.03 20.3599 43.41C21.0399 43.56 24.1899 44.7301 23.6599 42.9401C23.3999 42.0601 21.4499 42.79 20.7999 42.79C19.6199 42.79 17.12 42.24 17.28 40.66C17.92 38.08 19.32 35.76 20.27 33.29L17.2 29.7701C16.62 31.4601 15.9599 33.13 15.4399 34.85H15.45ZM64.6299 32.6501C64.66 33.0101 65.29 34.4501 65.64 34.4601L67.95 34.1401C67.9799 34.0001 67.8799 33.9301 67.8199 33.8301C67.2999 32.9701 66.0699 31.4301 65.3599 30.7001C65.2699 30.6101 65.19 30.4801 65.03 30.5001C64.91 31.1701 64.5699 31.9501 64.6199 32.6401L64.6299 32.6501ZM61.96 47.3301C64.71 46.2301 66.77 45.05 68.96 43.04C69.41 42.63 70.4899 41.3101 70.9999 41.1901C72.0299 40.9601 71.4899 42.31 71.2199 42.79C69.0899 46.57 62.21 49.57 58.09 50.3C57.46 50.41 56.49 50.4001 55.95 50.5901C54.85 50.9601 54.0799 51.63 52.7499 51.92C50.7899 52.34 50.0799 52.18 48.2299 51.72C48.0499 51.67 47.8399 51.7401 47.6899 51.7001C47.5999 51.6801 47.6699 51.5301 47.5999 51.5301C47.5299 51.5301 47.6 51.6901 47.51 51.7001C47.38 51.7101 47.26 51.5701 47.08 51.6501C46.54 51.8801 46.6399 52.87 47.3599 52.98C48.1999 53.11 50.16 53.04 51.08 52.98C52.32 52.91 53.7799 52.49 54.9699 52.49C55.5999 52.49 55.87 52.9901 55.45 53.4601C55.22 53.7201 53.19 54.43 52.71 54.6C51.06 55.18 49.4499 55.5201 47.7999 56.0001C46.9199 56.2501 45.28 56.5001 45.59 57.7601C45.9 59.0201 47.87 58.1401 48.58 57.8201C51.06 56.7201 53.5399 55.46 56.1799 54.74C57.5999 54.35 58.6999 54.1701 58.1799 56.0901C57.6899 57.9101 56.26 57.7401 55.78 58.9501C55.3 60.1601 56.43 60.6801 57.34 60.0201C57.99 59.5501 58.39 58.0501 58.89 57.2801C62.47 51.7301 69.8099 50.75 72.9399 43.73C75.8199 37.27 70.7399 34.29 64.9099 36.6C64.7999 36.64 64.6499 36.6 64.6699 36.8C64.3899 36.74 63.4 37.21 63.08 37.35C61.84 37.88 60.6599 38.5501 59.4099 39.0601C60.3399 40.4701 60.5999 42.3501 59.5599 43.7801C57.8599 46.1201 54.8799 45.22 54.3099 42.54L53.6599 43.5901C52.5399 44.7601 51.7399 44.0401 52.3799 42.5901C53.8299 39.2901 58.81 37.4401 61.84 35.9401C61.02 35.3201 59.65 35.2101 58.65 35.3401C57.16 35.5401 53.73 37.7701 52.58 38.8101C50.52 40.6901 49.24 43.4901 50.51 46.2101C51.57 48.4701 54.03 48.74 56.26 48.68C58.42 48.62 60.03 48.09 62.01 47.3L61.96 47.3301Z" fill="#161616"/>
<path d="M16.1199 1.85996C17.6099 1.98996 19.22 3.12999 19.88 4.44999C19.2 4.67999 17.2099 5.42997 16.9099 6.04996C16.5099 6.85996 17.3999 7.06998 18.0499 6.93998C18.3199 6.88998 18.69 6.63997 18.96 6.55997C23.05 5.31997 28.36 6.19997 28.63 11.37C28.66 11.97 28.37 13.53 28.63 13.95C29.01 14.55 29.6899 13.71 29.8699 13.34C30.3399 12.36 30.2499 11 30.1599 9.94999C31.8199 10.67 33.39 11.59 35.08 12.23C34.92 13.88 35.85 15.22 37.2 16.06C38.47 16.85 42.0199 17.87 40.9899 19.94C40.3299 21.25 38.46 20.81 37.39 20.33C35.34 19.42 34.02 18.3099 31.64 17.91C27.37 17.1899 23.8299 19.3 19.6899 18.86C16.0099 18.47 11.2599 15.89 7.90992 14.21C6.63992 13.57 4.71992 12.7399 3.59992 11.9699C2.64992 11.3099 2.37993 10.08 2.79993 9.02C3.70993 6.73 7.86992 6.02 9.90992 4.96C11.0399 4.37 11.6099 3.57998 12.5599 2.87998C13.5299 2.15998 14.93 1.76997 16.13 1.86997L16.1199 1.85996ZM18.4199 14.44C20.6299 16.89 25.4399 16.64 26.8499 13.48C28.8699 8.95996 21.9899 5.55997 18.6199 8.67997C17.0099 10.17 16.9699 12.83 18.4199 14.43V14.44ZM6.64997 10.03C6.42997 10.84 7.00993 11.45 7.79993 11.02C8.53994 10.62 8.79997 9.34997 7.83997 9.23997C7.41997 9.18997 6.74997 9.63001 6.64997 10.03Z" fill="#EE3E03"/>
<path d="M38.17 26.6201C38.54 28.0701 38.13 29.5101 37.77 30.9101C39.43 32.9101 43.07 37.1701 42.79 39.8101C44.79 40.8301 46.9 42.6401 49.18 41.1901C50.21 38.2401 50.83 35.9401 53.64 34.2001C55.44 33.0801 56.94 33.1101 58.31 31.2701C59.41 29.7901 60.25 27.3101 62.53 27.5201L59.94 24.5701C58.02 24.4201 56.29 25.9101 55.65 27.6401C55.33 28.5201 55.29 29.4501 54.68 30.2301C53.97 31.1201 52.58 31.4501 51.63 32.0401C49.48 33.3701 50.09 35.9901 47.39 36.9501C42.07 38.8401 40.59 31.7601 44.36 28.6601C45.17 27.9901 46.24 27.7001 47.03 27.0401C48.22 26.0401 48.83 24.0501 49.66 22.7101C50.76 20.9501 52.32 19.4102 54.44 19.0302C53.09 17.4902 51.14 16.6201 49.18 16.1201V17.4601C49.18 17.7001 48.92 18.5301 48.81 18.7901C47.91 20.9701 45.3 20.9101 44.44 22.9201C44.2 23.5001 44.1 24.1201 43.79 24.7001C42.79 26.5701 40.1 27.4301 38.16 26.6401L38.17 26.6201Z" fill="#F5AF04"/>
<path d="M61.96 47.33C64.71 46.23 66.77 45.05 68.96 43.04C69.41 42.63 70.4899 41.31 70.9999 41.19C72.0299 40.96 71.4899 42.31 71.2199 42.79C69.0899 46.57 62.21 49.57 58.09 50.3C57.46 50.41 56.4899 50.4001 55.9499 50.5901C54.8499 50.9601 54.0799 51.63 52.7499 51.92C50.7899 52.34 50.0799 52.18 48.2299 51.72C48.0499 51.67 47.8399 51.74 47.6899 51.7C47.5999 51.68 47.6699 51.5301 47.5999 51.5301C47.5299 51.5301 47.5999 51.69 47.5099 51.7C47.3799 51.71 47.26 51.5701 47.08 51.6501C46.54 51.8801 46.6399 52.87 47.3599 52.98C48.1999 53.11 50.16 53.04 51.08 52.98C52.32 52.91 53.7799 52.49 54.9699 52.49C55.5999 52.49 55.8699 52.99 55.4499 53.46C55.2199 53.72 53.19 54.43 52.71 54.6C51.06 55.18 49.4499 55.52 47.7999 56C46.9199 56.25 45.28 56.5 45.59 57.76C45.9 59.02 47.87 58.14 48.58 57.82C51.06 56.72 53.5399 55.46 56.1799 54.74C57.5999 54.35 58.6999 54.1701 58.1799 56.0901C57.6899 57.9101 56.26 57.74 55.78 58.95C55.3 60.16 56.43 60.68 57.34 60.02C57.99 59.55 58.39 58.0501 58.89 57.2801C62.47 51.7301 69.8099 50.75 72.9399 43.73C75.8199 37.27 70.7399 34.29 64.9099 36.6C64.7999 36.64 64.6499 36.6 64.6699 36.8C64.8799 36.84 65.4999 37.53 65.7199 37.69C67.2599 37.91 67.9599 40.11 67.8199 41.45C67.6199 43.42 65.4699 45.43 63.4499 45.05C63.1699 45.93 62.6099 46.64 61.9899 47.32L61.96 47.33Z" fill="#0195A5"/>
<path d="M37.7599 30.9101C38.1199 29.5101 38.5399 28.0701 38.1599 26.6201C35.4199 25.5101 35.7999 22.5501 33.8199 21.0501C30.7199 18.7001 25.53 20.8301 22.02 20.8001C18.98 20.7701 16.11 19.8101 13.34 18.6301C10.14 17.2701 7.08993 15.5601 3.92993 14.1201C5.35993 17.0301 8.40994 18.6801 10.8799 20.6001C13.3499 22.5201 15.3499 24.4702 17.3199 26.7802C18.3999 25.6002 19.76 25.1701 21.33 25.4401C22.11 25.5701 22.8299 25.9401 23.6099 26.0701C26.1999 26.5101 27.1999 23.4601 30.1699 24.1301C32.3299 24.6201 36.2799 29.1301 37.7599 30.9001V30.9101Z" fill="#0195A5"/>
<path d="M31.61 34.4699L31.29 34.6299C31.71 35.1199 32.1 35.72 32.58 36.21C33.18 36.82 35.39 38.5899 35.54 39.2399C35.71 39.9499 35.37 40.46 35.1 41.08C34.18 43.19 33.12 45.2599 32.16 47.3599C31.54 48.7099 30.61 51.5799 29.46 52.4299C27.69 53.7499 24.17 52.7599 22.45 51.6699C21.93 51.3399 20.91 50.2699 20.39 50.2499C19.75 50.2199 19.41 50.7099 19.57 51.3199C19.85 52.3899 23.38 52.24 23.86 53.34C24.08 53.84 23.42 54.3299 23.06 54.5999C22.18 55.2399 20.68 55.74 19.59 55.83C18.75 55.9 16.12 55.4299 16.25 56.8199C16.4 58.4599 19.19 56.9199 19.99 56.6299C21.41 56.1399 25.18 54.6699 26.48 55.3199C26.78 55.4699 26.8 55.6899 26.73 56.0099C26.62 56.4899 25.31 57.1799 25.01 57.6799C24.63 58.1599 23.12 58.8599 22.93 59.3199C22.74 59.7799 23 60.32 23.55 60.27C24.72 60.16 26.38 57.7299 27.38 56.9699C29 55.7299 30.8 55.8399 32.34 54.7199C35 52.7899 38.21 46 39.62 42.9C40.06 41.93 41.01 40.1199 40.92 39.1099C40.86 38.3599 40.1 36.9599 39.68 36.3099C39.35 35.7999 38.66 34.76 38.05 34.7C36.65 34.56 36.02 36 34.89 36.15C33.54 36.33 32.46 35.5599 31.75 34.4899C31.73 34.4499 31.62 34.47 31.62 34.46L31.61 34.4699Z" fill="#0195A5"/>
<path d="M17.2099 29.77C16.6299 31.46 15.9699 33.13 15.4499 34.85C14.9699 36.45 14.6799 38.21 14.1299 39.76C13.2099 42.38 10.2099 42.89 7.78988 42.22C7.06988 42.02 6.18989 41.24 5.47989 41.63C4.99989 41.89 5.00989 42.73 5.60989 42.86L9.54989 42.81C10.3599 42.81 10.6099 43.45 9.97989 43.96C9.10989 44.67 6.19988 44.94 6.03988 46.25C6.00988 46.51 6.08992 46.79 6.32992 46.92C7.26992 47.45 8.41991 45.96 9.06991 45.47C9.71991 44.98 12.8199 43.34 13.5399 43.22C15.1099 42.96 14.3999 45.28 13.9199 46.03C13.7999 46.21 13.5899 46.33 13.4799 46.56C13.0399 47.42 13.7699 48.16 14.6399 47.64C15.3699 47.21 15.2699 45.56 15.6999 44.74C16.6499 42.92 18.6299 43.03 20.3599 43.41C21.0399 43.56 24.1899 44.73 23.6599 42.94C23.3999 42.06 21.4499 42.79 20.7999 42.79C19.6199 42.79 17.1199 42.24 17.2799 40.66C17.9199 38.08 19.3199 35.76 20.2699 33.29L17.1999 29.77H17.2099Z" fill="#01737F"/>
<path d="M64.6299 36.8101C64.3499 36.7501 63.3599 37.22 63.0399 37.36C61.7999 37.89 60.6199 38.5601 59.3699 39.0701C60.2999 40.4801 60.5599 42.36 59.5199 43.79C57.8199 46.13 54.8399 45.23 54.2699 42.55L53.6199 43.6C53.5899 44.01 53.4099 44.45 53.3799 44.86C53.2099 46.87 54.3799 48.1401 56.2099 48.7001C58.3699 48.6401 59.9799 48.1101 61.9599 47.3201C62.5799 46.6501 63.1299 45.94 63.4199 45.05C64.1099 42.88 62.4099 41.02 62.9599 39.29C63.3199 38.16 64.5399 37.5301 65.6899 37.6901C65.4699 37.5301 64.8499 36.84 64.6399 36.8L64.6299 36.8101Z" fill="#F5AF04"/>
<path d="M24.76 28.9002C23.84 28.7302 22.74 29.2102 22.33 30.0802C21.38 32.0902 23.8299 34.5601 25.0999 35.9301C27.3599 38.3601 29.9199 40.5601 32.7899 42.2401C32.9099 42.2401 33.72 40.2401 33.76 40.0601C33.79 39.9501 33.84 39.8501 33.76 39.7401L31.8599 37.9201C29.4399 35.4201 27.15 32.8301 25.83 29.5501C25.67 29.3501 25.01 28.9701 24.76 28.9201V28.9002Z" fill="#0195A5"/>
<path d="M56.2099 48.71C54.3799 48.14 53.2099 46.8699 53.3799 44.8699C53.4099 44.4599 53.5899 44.0299 53.6199 43.6099C52.4999 44.7799 51.7 44.0599 52.34 42.6099C53.79 39.3099 58.7699 37.46 61.7999 35.96C60.9799 35.34 59.6099 35.2299 58.6099 35.3599C57.1199 35.5599 53.6899 37.7899 52.5399 38.8299C50.4799 40.7099 49.1999 43.5099 50.4699 46.2299C51.5299 48.4899 53.9899 48.7599 56.2199 48.6999L56.2099 48.71Z" fill="#0195A5"/>
<path d="M42.78 39.8101C42.6 41.4501 41.05 43.5801 40.55 45.1501C40.52 45.2301 40.49 45.3101 40.52 45.3901C43.24 46.3601 46.08 47.2201 49.01 47.0901C48.85 46.4201 48.52 45.79 48.45 45.1C48.3 43.62 48.69 42.5401 49.17 41.1901C46.89 42.6401 44.77 40.8401 42.78 39.8101Z" fill="#0195A5"/>
<path d="M31.2899 34.6301L31.6099 34.47C31.4899 34.27 31.1499 33.1501 31.1299 32.8901C30.9499 31.1001 31.9499 29.7201 33.7999 29.6501C33.1999 29.0401 32.5999 28.4201 31.9399 27.8701C31.0099 27.0801 29.7999 25.91 28.5399 26.66C26.4599 27.89 28.2899 30.7601 29.2499 32.1801C29.8699 33.1001 30.6099 33.8301 31.2899 34.6301Z" fill="#F5AF04"/>
<path d="M65.03 30.5001C64.91 31.1701 64.57 31.9501 64.62 32.6401C64.65 33.0001 65.28 34.4401 65.63 34.4501L67.94 34.1301C67.97 33.9901 67.87 33.9201 67.81 33.8201C67.29 32.9601 66.06 31.4201 65.35 30.6901C65.26 30.6001 65.18 30.4701 65.02 30.4901L65.03 30.5001Z" fill="#0195A5"/>
<path d="M26.8599 13.4901C25.4499 16.6401 20.6299 16.9001 18.4299 14.4501C16.9799 12.8401 17.0199 10.1801 18.6299 8.70013C21.9999 5.58013 28.8899 8.97012 26.8599 13.5001V13.4901ZM22.5899 11.2501C23.8899 11.3401 23.8099 9.76014 22.5599 9.65014C21.3099 9.54014 21.4199 11.1701 22.5899 11.2501Z" fill="#161616"/>
<path d="M7.83995 9.23998C7.41995 9.18998 6.74995 9.63002 6.64995 10.03C6.42995 10.84 7.00991 11.45 7.79991 11.02C8.53991 10.62 8.79995 9.34998 7.83995 9.23998Z" fill="#161616"/>
<path d="M65.6799 37.7002C64.5399 37.5402 63.3099 38.1701 62.9499 39.3001C62.4099 41.0301 64.1098 42.8901 63.4098 45.0601C65.4298 45.4401 67.5799 43.4302 67.7799 41.4602C67.9199 40.1202 67.2199 37.9102 65.6799 37.7002Z" fill="#161616"/>
<path d="M22.57 9.64009C21.32 9.53009 21.43 11.1601 22.6 11.2401C23.9 11.3301 23.82 9.75009 22.57 9.64009Z" fill="#FEFEFE"/>
</svg>
