<svg width="99" height="158" viewBox="0 0 99 158" fill="none" xmlns="http://www.w3.org/2000/svg">
<path d="M14.71 25.7999C13.36 25.1999 11.52 24.0299 10.17 23.6699C9.17997 23.4099 8.10001 23.5399 7.08001 23.3099C3.03001 22.4099 -0.919992 19.9699 1.08001 15.2299C3.63001 9.19987 10.9 10.8399 16.08 10.0999L23.92 7.6999C24.32 7.4399 24.67 6.0599 24.67 5.5699C24.67 4.2099 23.41 3.03991 24.34 1.66991C24.82 0.959905 26.04 0.519881 26.85 0.769881C27.65 1.01988 27.98 2.41991 27.9 3.16991C27.82 3.91991 27.19 4.38992 27.1 4.89992C26.93 5.80992 27.22 7.13987 27.09 8.09987C27.43 8.23987 28.51 8.73991 28.76 8.51991C28.89 8.39991 30.51 5.87991 30.6 5.63991C31.05 4.48991 30.84 2.17988 32.47 1.98988C33.95 1.80988 35.38 3.38987 35.09 4.84987C34.76 6.49987 33.28 6.50989 32.45 7.49989C32.17 7.82989 31.46 8.96989 31.32 9.36989C31.27 9.51989 31.15 9.61988 31.34 9.73988C31.65 9.93988 32.88 9.09988 33.3 8.92988C36.24 7.76989 40.65 7.97992 43.53 9.27992C44.13 9.54992 45.32 10.1399 45.46 10.7999C45.83 12.4599 44.58 13.5599 43.4 14.4499C41.42 15.9399 38.98 17.0599 36.51 17.3999C37.41 25.1699 37.91 33.0199 38.94 40.7999C39.84 47.5299 41.36 59.3699 45.77 64.5799C51.62 71.4799 65.43 74.7599 73.51 79.2899C77.4 81.4699 79.69 83.7799 82.86 86.7299C85.38 89.0799 88.98 91.6499 92.64 90.2899C97.74 88.3999 97.36 82.2199 94.77 78.3799C94.5 78.1299 93.2 78.3199 92.71 78.2599C91.38 78.0899 89.57 76.9499 88.73 75.9099C88.18 75.2299 87.19 73.5499 88.04 72.8099C88.72 72.2199 89.51 73.1499 90.11 73.3799C89.53 71.8599 88.59 69.9899 89.36 68.3699C89.54 67.9999 90.01 67.4199 90.45 67.6199C90.99 67.8699 91.96 70.6599 92.7 71.1299C92.77 70.0199 92.28 68.9699 92.83 67.9199C93.89 65.8899 95.89 68.7399 96.46 69.7899C97.32 71.3499 97.73 73.0699 97.33 74.8399C97.21 75.3599 96.49 76.7999 96.58 77.1499C96.6 77.2399 97.45 78.3199 97.62 78.6499C101.52 86.3899 96.45 95.3099 87.34 92.3899C86.22 92.0299 85.29 91.4099 84.26 90.8699C85.56 93.6299 86.36 96.8499 86.89 99.8599C87.77 104.95 87.7 110.03 88.06 115.15C88.87 126.8 92.08 138.44 94.9 149.73C95.29 151.27 95.73 151.69 95.39 153.44C95.02 155.29 92.9 157.51 90.99 156.18C89.56 155.18 88.87 150.87 88.37 149.14C86.98 144.37 85.53 139.15 83.77 134.52C81.93 129.7 79.12 125.96 76.99 121.39C76.43 120.19 76.05 118.87 75.34 117.75C74.92 120.02 74.77 122.64 74.93 124.95C75.03 126.38 75.63 127.84 75.5 129.3C73.34 137.32 72.14 145.6 70.02 153.62C68.9 155.25 67.65 156.66 65.47 156.4C62.57 156.06 63.76 152.52 64.17 150.64C65.94 142.38 67.72 133.01 65.69 124.66C64.86 121.24 63.59 117.77 62.92 114.31C62.8 113.7 62.45 109.76 62.22 109.7C58.33 109.76 54.43 109.44 50.67 108.44C50.46 108.68 51.17 113.62 51.24 114.37C51.98 122.42 52.56 130.48 53.08 138.53C53.35 142.62 53.95 147.1 53.77 151.19C53.64 154.25 53.03 158.05 49 157.45C46.35 157.05 47.26 153.97 47.33 152.23C47.4 150.7 47.21 149.45 47.1 147.97C46.26 137.12 44.21 126 41.95 115.38C41.57 113.58 41.38 111.73 40.94 109.94C40.84 109.55 40.41 107.84 40.16 107.72C39.73 107.51 38.94 107.44 38.46 107.18C38.09 108.18 37.68 109.15 37.37 110.17C36.36 113.4 34.12 121.62 34.32 124.73C34.48 127.21 35.64 131.19 36.22 133.76C37.16 137.91 38.23 142.03 39.24 146.16C39.45 148.22 39.33 151.56 36.46 151.24C34.55 151.03 33.66 148.85 33.05 147.29C31.41 143.05 30.01 137.91 28.65 133.51C26.98 128.1 25.47 124.72 26.39 118.88C27.31 113.04 29.14 106.63 29.58 100.79C29.79 98.0599 29.27 96.5299 28.82 93.9799C27.95 88.9899 26.91 83.9599 26.37 78.9399C24.71 63.3699 23.97 47.4199 21.9 31.9799C21.72 30.6299 21.54 29.2699 21.43 27.9099C19.07 27.8099 16.81 26.7999 14.68 25.8599L14.71 25.7999ZM63.28 86.1799C58.45 85.7199 55.99 82.2599 56.67 77.5199C56.82 76.4499 57.14 75.5399 57.81 74.6899L51.49 71.5799C50.54 75.3099 45.57 76.9899 42.33 75.1699C39.64 73.6599 38.34 70.8099 39.51 67.8199C40.14 66.2199 41.58 65.3699 42.97 64.5099C41.39 61.8999 40.39 58.9799 39.53 56.0499C39.25 56.0399 39.15 56.3099 38.87 56.3699C37.92 56.5899 36.67 56.0199 35.92 55.4499C32.26 52.6499 32.17 44.6099 37.33 43.3799C36.94 40.1999 36.25 37.0199 36.17 33.7999C35.43 33.3699 34.61 33.0299 34 32.3999C32.18 30.5199 32.01 26.6399 33.09 24.3599C33.34 23.8299 33.92 23.2999 34.11 22.8499C34.79 21.1799 34.28 19.3299 34.34 17.6199C33.64 17.4999 32.83 17.2399 32.41 16.6199C31.53 15.2999 33.62 15.8099 34.29 15.7799C36.57 15.6699 39.31 14.6199 41.21 13.3899C41.52 13.1899 43.5 11.7799 43.6 11.6399C43.81 11.3599 42.53 11.0499 42.39 10.9999C40 10.2799 36.79 9.83991 34.39 10.7099C33.3 11.0999 31.99 12.5199 30.81 11.9999C30.32 11.7899 29.08 10.6399 28.97 10.6099C28.8 10.5699 28.62 10.7199 28.44 10.6899C28.3 10.6599 27.96 10.3599 27.7 10.2799C23.32 8.80992 19.83 11.8899 15.85 12.5299C12.75 13.0199 7.12998 12.1099 4.73998 14.1899C3.52998 15.2499 2.12 17.3599 3.07 18.9299C4.3 20.9699 7.28998 21.1099 9.29998 20.2599C10.03 19.9499 12.11 18.2699 12.52 19.6099C12.83 20.6299 11.22 21.2699 10.59 21.7799C10.49 21.8599 10.56 21.9199 10.64 21.9499C10.94 22.0799 11.38 22.0699 11.75 22.2199C15.26 23.5699 18.42 25.8299 22.43 25.5799C23.19 25.5299 25.26 24.8599 25.57 25.8899C25.9 26.9899 23.93 27.5199 23.17 27.7099C23.44 28.8599 23.66 30.0199 23.83 31.1899C24.98 38.7699 25.27 46.4399 26.3 54.0399C26.41 54.3799 27.44 54.1999 27.82 54.2399C32.12 54.7899 34.53 60.5499 34.21 64.4099C33.95 67.5999 31.04 70.9699 27.66 69.6499C28.12 73.3299 28.47 77.0299 28.71 80.7399L30.77 92.1999C31.82 91.0899 34.31 91.2699 35.37 92.3699C37.38 94.4699 36.82 98.7299 33.77 99.5099L32.61 99.6199C34.28 101.63 36.59 104.16 39.09 105.11C39.27 105.18 40.01 105.5 39.97 105.15C39.87 104.35 38.77 101.08 40.38 101.16C40.81 101.18 41.12 101.83 41.3 102.21C42.06 103.78 41.99 105.01 42.31 106.61C42.55 107.8 42.99 108.94 43.08 110.15C45.09 109.74 47.21 111.33 47.71 113.28C48.18 115.1 47.52 119.4 45.03 119.47C45.75 124.76 46.83 130.01 47.55 135.31C48.26 140.56 48.68 145.86 49.34 151.12C49.59 151.5 51.3 151.6 51.63 151.36C52.03 151.07 51.71 148.82 51.7 148.3C51.61 144.22 51.46 140.16 51.13 136.1C51.02 134.78 50.81 133.46 50.79 132.13C49.44 132.18 48.03 130.74 47.57 129.54C46.7 127.3 47.21 123.52 50.22 123.5L49.3 113.78C48.88 110.42 48.26 106.81 48.33 103.42C48.35 102.64 48.59 100.61 49.77 101.69C50.54 102.4 50.33 105.37 50.79 106.42C53.21 106.89 55.62 107.5 58.09 107.63C61.62 107.81 65.87 107.73 69.31 106.99C69.84 106.88 71.36 106.57 71.75 106.35C72.16 106.12 72.03 105.14 72.42 104.8C73.29 104.04 73.79 105.71 73.99 106.32C74.45 107.72 74.69 109.29 75.12 110.72C76.11 114.05 77.6 117.76 79.07 120.92C80.43 123.86 82.37 126.34 83.71 129.16C86.47 134.96 88.51 142.31 90.21 148.54C90.33 148.97 90.42 149.91 90.61 150.22C90.89 150.69 92.53 150.3 93 150.06L87.94 127.86C86.25 128.32 84.95 127.28 84.03 125.96C82.14 123.27 83.1 119.51 86.2 118.29C86.2 115.63 85.92 112.97 85.75 110.32C85.6 107.9 85.55 105.49 85.29 103.07C85.03 100.65 84.74 98.2999 84.14 95.9899C83.96 96.0099 83.96 96.2499 83.8 96.3999C80.74 99.1199 76.99 98.7799 74.3 95.7599C71.47 92.5799 72.5 87.0299 76.2 84.9999L77.35 84.4899C76.33 83.9499 75.47 83.0999 74.51 82.4399C72.87 81.3099 70.96 80.1599 69.07 79.5399C69.04 80.1299 69.11 80.7399 69.07 81.3199C68.86 84.2599 66.22 86.4799 63.27 86.1999L63.28 86.1799ZM32.36 116.6C32.1 117.25 31 118.51 30.42 118.92C30.07 119.17 28.56 119.73 28.49 119.81C28.43 119.88 28.14 121.45 28.12 121.68C27.9 124.58 29.61 129.44 30.48 132.33C31.81 136.71 33.39 141.01 34.58 145.43C35.02 145.48 36.84 145.43 37.05 145.1L37.08 144.84C36.65 143.54 36.29 142.21 35.96 140.89C34.85 136.49 33.56 131.81 32.67 127.38C31.73 122.67 33.28 117.11 34.6 112.51C35.21 110.4 36.04 108.36 36.87 106.32C34.89 105.13 32.92 103.67 31.64 101.72C31.48 101.72 31.4 102.55 31.37 102.71C31.02 104.94 30.77 107.19 30.43 109.42C32.86 110.29 33.19 114.54 32.36 116.59V116.6ZM72.67 131.73C72.88 130.94 73.36 130.09 73.44 129.28C73.56 127.98 73.05 126.83 72.97 125.55C68.8 124.97 68.92 118.4 72.41 116.97C72.67 116.86 73.25 116.82 73.31 116.78C73.42 116.71 73.87 114.81 74.11 114.53C73.43 112.43 72.93 110.22 72.12 108.19L70.35 108.77C70.42 111.73 68.45 114.79 65.5 115.49C65.85 119.11 67.35 122.58 68.12 126.1C69.2 131.05 68.43 137.49 67.68 142.51C67.26 145.28 66.41 148.04 66.43 150.87H68.85C70.17 144.57 71 137.95 72.68 131.74L72.67 131.73Z" fill="#020101"/>
<path d="M69.08 79.5199C70.97 80.1399 72.88 81.2898 74.52 82.4198C75.48 83.0798 76.34 83.9298 77.36 84.4698L76.21 84.9798C72.51 87.0098 71.48 92.5598 74.31 95.7398C77 98.7598 80.75 99.0998 83.81 96.3798C83.97 96.2398 83.97 95.9898 84.15 95.9698C84.75 98.2698 85.05 100.68 85.3 103.05C85.55 105.42 85.6 107.88 85.76 110.3C85.93 112.96 86.21 115.62 86.21 118.27C83.11 119.49 82.15 123.25 84.04 125.94C84.96 127.25 86.26 128.3 87.95 127.84L93.01 150.04C92.54 150.28 90.9 150.68 90.62 150.2C90.44 149.89 90.34 148.95 90.22 148.52C88.51 142.29 86.48 134.93 83.72 129.14C82.38 126.32 80.44 123.83 79.08 120.9C77.62 117.74 76.12 114.03 75.13 110.7C74.71 109.27 74.46 107.7 74 106.3C73.8 105.68 73.3 104.01 72.43 104.78C72.04 105.12 72.18 106.1 71.76 106.33C71.37 106.55 69.85 106.85 69.32 106.97C65.88 107.71 61.62 107.79 58.1 107.61C55.63 107.48 53.21 106.87 50.8 106.4C50.34 105.35 50.55 102.38 49.78 101.67C48.61 100.59 48.36 102.63 48.34 103.4C48.27 106.79 48.89 110.39 49.31 113.76L50.23 123.48C47.22 123.5 46.71 127.28 47.58 129.52C48.04 130.71 49.45 132.15 50.8 132.11C50.82 133.44 51.04 134.76 51.14 136.08C51.47 140.14 51.62 144.2 51.71 148.28C51.72 148.8 52.04 151.05 51.64 151.34C51.31 151.58 49.6 151.48 49.35 151.1C48.69 145.84 48.27 140.54 47.56 135.29C46.84 130 45.77 124.74 45.04 119.45C47.53 119.38 48.19 115.08 47.72 113.26C47.22 111.31 45.09 109.72 43.09 110.13C42.99 108.92 42.55 107.78 42.32 106.59C42 105 42.07 103.76 41.31 102.19C41.13 101.81 40.83 101.16 40.39 101.14C38.79 101.06 39.89 104.33 39.98 105.13C40.02 105.48 39.28 105.16 39.1 105.09C36.6 104.14 34.29 101.61 32.62 99.5998L33.78 99.4898C36.83 98.7098 37.4 94.4498 35.38 92.3498C34.32 91.2398 31.84 91.0598 30.78 92.1798L28.72 80.7198C28.48 77.0098 28.13 73.3098 27.67 69.6298C31.06 70.9498 33.96 67.5798 34.22 64.3898C34.54 60.5298 32.12 54.7698 27.83 54.2198C27.45 54.1698 26.42 54.3498 26.31 54.0198C25.28 46.4198 25 38.7498 23.84 31.1698C23.66 30.0098 23.44 28.8398 23.18 27.6898C23.93 27.4998 25.91 26.9698 25.58 25.8698C25.27 24.8498 23.21 25.5198 22.44 25.5598C18.43 25.8098 15.27 23.5498 11.76 22.1998C11.39 22.0598 10.95 22.0598 10.65 21.9298C10.57 21.8998 10.5 21.8398 10.6 21.7598C11.23 21.2498 12.84 20.6099 12.53 19.5899C12.12 18.2499 10.04 19.9298 9.30998 20.2398C7.29998 21.0998 4.31 20.9498 3.08 18.9098C2.13 17.3498 3.53998 15.2298 4.74998 14.1698C7.12998 12.0898 12.76 12.9998 15.86 12.5098C19.84 11.8798 23.33 8.79984 27.71 10.2598C27.97 10.3498 28.32 10.6498 28.45 10.6698C28.63 10.6998 28.8 10.5599 28.98 10.5899C29.09 10.6099 30.33 11.7598 30.82 11.9798C32 12.4998 33.31 11.0798 34.4 10.6898C36.8 9.81983 40.01 10.2598 42.4 10.9798C42.54 11.0198 43.82 11.3298 43.61 11.6198C43.5 11.7598 41.53 13.1698 41.22 13.3698C39.32 14.5998 36.58 15.6598 34.3 15.7598C33.63 15.7898 31.54 15.2798 32.42 16.5998C32.84 17.2198 33.65 17.4798 34.35 17.5998C34.29 19.2998 34.8 21.1598 34.12 22.8298C33.94 23.2798 33.36 23.8099 33.1 24.3399C32.02 26.6199 32.19 30.4998 34.01 32.3798C34.62 33.0098 35.43 33.3499 36.18 33.7799C36.25 36.9999 36.95 40.1798 37.34 43.3598C32.18 44.5898 32.27 52.6298 35.93 55.4298C36.68 55.9998 37.92 56.5698 38.88 56.3498C39.15 56.2898 39.26 56.0199 39.54 56.0299C40.39 58.9499 41.4 61.8798 42.98 64.4898C41.59 65.3498 40.15 66.2098 39.52 67.7998C38.35 70.7798 39.65 73.6299 42.34 75.1499C45.59 76.9799 50.55 75.2998 51.5 71.5598L57.82 74.6698C57.15 75.5198 56.84 76.4298 56.68 77.4998C56 82.2398 58.46 85.6998 63.29 86.1598C66.24 86.4398 68.87 84.2199 69.09 81.2799C69.13 80.6899 69.06 80.0798 69.09 79.4998L69.08 79.5199ZM37.48 11.6598C36.38 11.4398 34.92 11.5298 33.92 12.0698C32.74 12.6998 31.79 14.0298 33.82 14.1598L39.26 12.9798C39.96 12.2998 37.88 11.7299 37.48 11.6499V11.6598ZM18.69 15.3598C18.8 18.2498 21.88 19.7698 24.36 18.3898C25.05 17.9998 26.43 16.6398 25.47 15.9398C24.64 15.3398 23.76 16.2898 22.94 16.5198C21.71 16.8598 21.15 16.9099 20.76 15.5899C20.55 14.8699 20.85 13.6398 19.75 13.4898C19.04 13.3898 18.66 14.7798 18.68 15.3698L18.69 15.3598ZM4.54997 16.6198C4.56997 17.0598 4.86997 17.4198 5.29997 17.4898C5.67997 17.5498 6.94001 17.5498 7.28001 17.4098C7.88001 17.1698 8.12997 15.9498 7.73997 15.5698C7.14997 14.9898 4.51997 15.7798 4.54997 16.6198ZM28.22 44.1798C28.53 44.2898 29.34 44.3298 29.69 44.3098C33.53 44.0698 33.3 38.2598 31.72 35.8298C30.53 33.9898 27.65 34.0498 26.67 36.1198C25.69 38.1898 25.85 42.8098 28.09 44.0198C28.12 44.0398 28.12 44.1498 28.22 44.1898V44.1798ZM30.2 78.4198C29.04 82.1198 30.71 87.2798 35.38 86.1398C41.13 84.7298 38.57 75.6599 34.03 75.6499C32.26 75.6499 30.72 76.7398 30.19 78.4198H30.2ZM43.69 85.4698C42.08 90.4098 47.32 98.3898 52.73 94.9798C57.81 91.7798 54.94 82.2898 48.85 82.0798C46.7 81.9998 44.36 83.3998 43.69 85.4798V85.4698ZM60.96 94.4698C60.21 95.9098 59.91 97.4498 60.81 98.8798C62.16 101.04 63.64 101.85 66.24 101.59C72.65 100.94 71.89 92.7898 65.07 92.3198C63.19 92.1898 61.84 92.7798 60.96 94.4698ZM81.24 104.85C80.52 104.87 79.17 105.56 78.67 106.09C77.41 107.44 77.38 110.51 78.21 112.08C79.05 113.69 81.48 113.66 82.76 112.59C84.7 110.97 84.39 107.72 82.95 105.9C82.69 105.58 81.67 104.84 81.24 104.85Z" fill="#FDC200"/>
<path d="M68.85 150.85C70.17 144.55 71 137.93 72.68 131.72C72.89 130.93 73.37 130.08 73.45 129.27C73.57 127.97 73.06 126.82 72.98 125.54C68.81 124.96 68.93 118.39 72.42 116.96C72.68 116.85 73.26 116.81 73.32 116.77C73.43 116.7 73.88 114.8 74.12 114.52C73.44 112.42 72.94 110.21 72.13 108.18L70.36 108.76C70.43 111.72 68.46 114.78 65.51 115.48C65.86 119.1 67.36 122.57 68.13 126.09C69.21 131.04 68.44 137.48 67.69 142.5C67.27 145.27 66.42 148.03 66.44 150.86H68.86L68.85 150.85Z" fill="#FDC200"/>
<path d="M30.43 109.43C32.86 110.3 33.19 114.55 32.36 116.6C32.1 117.25 31 118.51 30.42 118.92C30.07 119.17 28.56 119.73 28.49 119.81C28.43 119.88 28.14 121.45 28.12 121.68C27.9 124.58 29.61 129.44 30.48 132.33C31.81 136.71 33.39 141.01 34.58 145.43C35.02 145.48 36.84 145.43 37.05 145.1L37.08 144.84C36.65 143.54 36.29 142.21 35.96 140.89C34.85 136.49 33.56 131.81 32.67 127.38C31.73 122.67 33.28 117.11 34.6 112.51C35.21 110.4 36.04 108.36 36.87 106.32C34.89 105.13 32.92 103.67 31.64 101.72C31.48 101.72 31.4 102.55 31.37 102.71C31.02 104.94 30.77 107.19 30.43 109.42V109.43Z" fill="#FDC200"/>
<path d="M48.85 82.0799C46.7 81.9999 44.36 83.3999 43.69 85.4799C42.08 90.4199 47.32 98.3999 52.73 94.9899C57.81 91.7899 54.94 82.2999 48.85 82.0899V82.0799Z" fill="#020101"/>
<path d="M65.07 92.3198C63.19 92.1898 61.84 92.7798 60.96 94.4698C60.21 95.9098 59.91 97.4498 60.81 98.8798C62.16 101.04 63.64 101.85 66.24 101.59C72.65 100.94 71.89 92.7898 65.07 92.3198Z" fill="#020101"/>
<path d="M34.03 75.6499C32.26 75.6499 30.72 76.7399 30.19 78.4199C29.03 82.1199 30.7 87.2799 35.37 86.1399C41.12 84.7299 38.56 75.6599 34.02 75.6499H34.03Z" fill="#020101"/>
<path d="M28.08 44.0098C28.08 44.0098 28.11 44.1398 28.21 44.1798C28.52 44.2898 29.33 44.3298 29.68 44.3098C33.52 44.0698 33.29 38.2598 31.71 35.8298C30.52 33.9898 27.64 34.0498 26.66 36.1198C25.68 38.1898 25.84 42.8098 28.08 44.0198V44.0098Z" fill="#020101"/>
<path d="M82.96 105.9C82.7 105.58 81.68 104.84 81.25 104.85C80.53 104.87 79.18 105.56 78.68 106.09C77.42 107.44 77.39 110.51 78.22 112.08C79.06 113.69 81.49 113.66 82.77 112.59C84.71 110.97 84.4 107.72 82.96 105.9Z" fill="#020101"/>
<path d="M19.76 13.49C19.05 13.39 18.67 14.78 18.69 15.37C18.8 18.26 21.88 19.78 24.36 18.4C25.05 18.01 26.43 16.65 25.47 15.95C24.64 15.35 23.76 16.3 22.94 16.53C21.71 16.87 21.15 16.92 20.76 15.6C20.55 14.88 20.85 13.65 19.75 13.5L19.76 13.49Z" fill="#020101"/>
<path d="M39.26 12.9798C39.96 12.2998 37.88 11.7298 37.48 11.6498C36.38 11.4298 34.92 11.5198 33.92 12.0598C32.74 12.6898 31.79 14.0198 33.82 14.1498L39.26 12.9698V12.9798Z" fill="#020101"/>
<path d="M7.74 15.57C7.15 14.99 4.52 15.78 4.55 16.62C4.57 17.06 4.87 17.4199 5.3 17.4899C5.68 17.5499 6.94004 17.5499 7.28004 17.4099C7.88004 17.1699 8.13 15.95 7.74 15.57Z" fill="#020101"/>
</svg>
