<svg width="80" height="63" viewBox="0 0 80 63" fill="none" xmlns="http://www.w3.org/2000/svg">
<path d="M4.51996 29.5701C1.91996 29.2901 -0.280039 26.7501 1.45996 24.2801C2.55996 22.7301 4.38997 22.2501 6.08997 21.6401C6.08997 20.7601 5.96996 19.8801 6.01996 19.0001C6.34996 13.7701 10.71 9.39009 14.87 6.71009C28.99 -2.37991 53.6 -1.82993 67.25 8.01007C71.45 11.0401 75.18 16.0601 74.15 21.5301C76.6 21.6301 79.73 23.1201 79.27 26.0401C78.91 28.3101 76.0599 29.2701 74.0399 29.1401C74.5099 31.0901 74.8199 33.1001 73.7199 34.9001C74.4599 35.4801 75.1499 36.0601 75.6599 36.8601C76.6599 38.4601 77.3 40.9101 74.5 40.4301C74.95 41.8001 74.92 43.2001 74.26 44.5001C74.1 44.8201 73.5899 45.3601 73.5999 45.6201C73.6199 45.9501 74.4 47.2501 74.55 47.9201C76.95 58.6501 61.44 60.4901 54.17 61.3301C42.41 62.6901 27.61 62.4201 16.11 59.4801C9.24995 57.7301 2.99997 53.9501 6.58997 45.8601C5.14997 44.1801 4.96997 42.3101 5.46997 40.2101C1.50997 40.7101 3.33998 37.1701 4.84998 35.5101C5.06997 35.2701 6.20998 34.3101 6.22998 34.2001C6.25998 34.0601 5.94996 33.0801 5.92996 32.7501C5.84996 31.6701 6.16995 30.6201 6.35995 29.5801C5.76995 29.5401 5.09998 29.6401 4.50998 29.5801L4.51996 29.5701ZM37.33 1.97008C27.68 2.40008 12.71 6.20008 8.49997 15.9901C5.00997 24.1301 12.15 25.3101 18.29 26.3001C28.09 27.8901 39.13 28.0001 49.04 27.5501C54.51 27.3001 65.45 26.7801 70.09 24.1001C74.45 21.5801 72.52 16.0301 70.01 12.8401C63.33 4.36007 47.55 1.50009 37.32 1.96009L37.33 1.97008ZM23.79 28.6001C23.5 28.4301 18.13 27.9101 17.19 27.7501C14.57 27.3101 9.28997 26.2801 7.52997 24.2001C6.81997 23.3701 7.31996 23.0401 6.04996 23.3901C4.65996 23.7701 1.44998 25.1901 2.88998 27.0501C4.03998 28.5401 6.63997 27.6401 8.18997 28.2401C9.82997 28.8701 9.78996 30.9501 11.65 31.7201C14.81 33.0301 18.18 30.3201 21.47 30.9601C24.25 31.5101 26.57 33.7901 29.47 34.0401C33.47 34.3901 36.55 31.4801 40.77 31.8001C44.76 32.1001 47.99 35.1001 52.23 33.8701C54.44 33.2301 56.4 30.9601 58.67 30.6901C62 30.3001 67.9199 33.5801 70.3499 30.2901C71.2799 29.0201 70.44 27.7901 72.55 27.5601C74.06 27.4001 76.2099 27.8201 77.2899 26.3701C78.9199 24.1801 74.87 23.1101 73.38 22.9601C73.08 24.1101 72.11 24.8001 71.14 25.3701C68.9 26.6801 66.08 27.2801 63.55 27.7401C54.5 29.3801 44.83 29.5401 35.61 29.3501C31.91 29.2701 28.23 28.8401 24.54 28.6601C24.04 28.6401 24.25 28.8701 23.78 28.5901L23.79 28.6001ZM40.93 33.6001H39.2C37.49 33.6001 34.26 35.1901 32.32 35.5601C27.71 36.4401 26.69 34.7301 22.99 33.1301C19.36 31.5601 18.17 33.3001 14.91 33.6001C12.22 33.8401 9.91997 33.2601 8.49997 30.8401C8.41997 30.7001 8.18998 29.8201 7.91998 30.0201C7.83998 30.0801 7.48997 31.4301 7.46997 31.6401C7.22997 34.6901 10.16 35.4901 12.53 36.2001C19.21 38.2001 35.3 38.7401 40.78 33.8501C40.85 33.7801 40.99 33.8501 40.92 33.5901L40.93 33.6001ZM40.37 36.4001C44.06 37.2101 47.84 37.4501 51.61 37.5201C57.25 37.6301 63.53 37.4501 68.95 35.7301C71.6 34.8901 73.01 34.2101 72.68 31.1001C72.66 30.9001 72.56 30.3301 72.36 30.2501C71.51 32.9701 68.33 33.5401 65.81 33.3901C62.6 33.1901 60.26 31.3801 57.07 33.1401C54.76 34.4101 53.4 35.8101 50.49 35.9501C47.84 36.0801 45.55 34.8701 43.11 34.1601L40.37 36.4001ZM60.4799 39.0501C60.38 39.1001 58.65 39.0801 58.33 39.0901C53.01 39.2401 47.38 39.2101 42.14 38.2701C41.31 38.1201 38.73 37.3001 38.21 37.3301C37.66 37.3601 35.78 38.0701 35 38.2501C29.33 39.5401 22.01 39.6401 16.28 38.7301C13.09 38.2301 9.85996 37.3701 7.17996 35.5201C6.18996 36.2701 5.22998 37.2601 4.78998 38.4701C10.41 38.6201 16.11 39.3801 21.59 40.5801C27.87 41.9401 33.88 44.1301 39.43 47.3401C41.32 46.3901 43.1 45.2501 45.02 44.3601C51.6 41.3001 60.14 39.4601 67.38 38.8601C69.9 38.6501 72.42 38.7601 74.93 38.8601C74.8 38.0401 73.22 36.0101 72.42 36.0701C72.1199 36.0901 71.15 36.7001 70.74 36.8501C68.45 37.7301 65.77 38.2601 63.34 38.6201C62.42 38.7601 61.1999 38.7101 60.4699 39.0501H60.4799ZM7.15997 40.2201C4.71997 45.6501 12.86 47.1101 16.52 47.7801C30.36 50.3101 49.5 50.5301 63.31 47.8801C66.16 47.3301 73.06 45.9401 73.27 42.2901C73.3 41.8301 73.15 40.4201 72.65 40.3301C71.99 40.2101 70.17 40.2901 69.4 40.3301C61.66 40.6401 51.76 42.8801 44.81 46.2801C43.75 46.8001 40.91 48.7101 40.09 48.8301C38.42 49.0601 36.16 47.3601 34.6 46.6201C27.21 43.1101 19.11 41.4001 11.01 40.4501L7.15997 40.2401V40.2201ZM72.25 46.7001C67.45 49.1201 61.96 49.8801 56.65 50.5001C51.96 51.0401 47.51 51.1301 42.77 51.1701C33.18 51.2601 19.48 51.0601 10.44 47.9301C10.06 47.8001 8.11996 46.9001 7.98996 46.9301C7.30996 47.0901 7.19997 50.0801 7.24997 50.6701C7.78997 56.5101 16.92 58.1601 21.55 58.9701C29.31 60.3401 37.71 60.6701 45.57 60.3501C51.92 60.0901 65.87 58.9901 70.74 54.8601C73.11 52.8501 73.81 49.4301 72.24 46.7001H72.25Z" fill="#030201"/>
<path d="M37.3299 1.97004C47.5599 1.51004 63.3399 4.36005 70.0199 12.85C72.5299 16.04 74.4499 21.59 70.0999 24.11C65.4599 26.79 54.5199 27.31 49.0499 27.56C39.1399 28.01 28.0999 27.9 18.2999 26.31C12.1599 25.32 5.00991 24.13 8.50991 16C12.7199 6.20004 27.6899 2.41004 37.3399 1.98004L37.3299 1.97004ZM35.4299 4.99005C33.7299 5.14005 31.0399 6.30004 32.2199 8.47004C33.0199 9.92004 35.1399 9.18004 36.2199 8.47004C38.2799 7.12004 38.5699 4.71005 35.4199 4.99005H35.4299ZM48.2599 5.14004C46.1199 5.20004 45.6699 7.59004 47.3799 8.75004C48.8599 9.75004 53.3499 10.08 52.0599 7.20004C51.5599 6.09004 49.4399 5.11004 48.2499 5.14004H48.2599ZM24.0099 8.34004C22.9999 8.51004 21.3399 9.91004 20.9199 10.84C19.9399 13.02 21.6899 14.15 23.6299 13.21C24.8099 12.64 26.6199 10.32 25.8799 8.99005C25.5099 8.33005 24.7099 8.22004 24.0099 8.34004ZM41.3499 10.25C39.1699 10.62 40.7499 13.46 41.6099 14.41C43.9399 16.99 47.3099 14.91 44.9599 11.95C44.2099 11.01 42.5899 10.03 41.3499 10.24V10.25ZM57.9099 10.25C55.1699 10.62 56.2099 13.3 58.1599 14.08C59.6799 14.69 62.7699 14.86 62.2699 12.43C61.9399 10.83 59.3199 10.06 57.9099 10.25ZM33.9599 13.72C33.4999 13.3 32.4199 13.36 31.8599 13.51C30.3399 13.92 27.4299 16.37 28.9599 17.99C29.8899 18.98 31.3899 18.66 32.3699 17.93C33.2799 17.25 35.0499 14.72 33.9599 13.71V13.72Z" fill="#FF891D"/>
<path d="M72.25 46.7001C73.82 49.4301 73.11 52.85 70.75 54.86C65.88 58.99 51.93 60.0901 45.58 60.3501C37.72 60.6701 29.32 60.3401 21.56 58.9701C16.94 58.1601 7.80001 56.5001 7.26001 50.6701C7.21001 50.0801 7.32 47.0901 8 46.9301C8.13 46.9001 10.07 47.8001 10.45 47.9301C19.49 51.0601 33.19 51.2501 42.78 51.1701C47.52 51.1301 51.97 51.0501 56.66 50.5001C61.97 49.8901 67.46 49.1201 72.26 46.7001H72.25Z" fill="#FF891D"/>
<path d="M7.15992 40.2201L11.0099 40.4301C19.1099 41.3801 27.2099 43.0901 34.5999 46.6001C36.1599 47.3401 38.4199 49.0401 40.0899 48.8101C40.9199 48.7001 43.7499 46.7801 44.8099 46.2601C51.7599 42.8601 61.6699 40.6201 69.3999 40.3101C70.1699 40.2801 71.9799 40.1901 72.6499 40.3101C73.1499 40.4001 73.2899 41.8201 73.2699 42.2701C73.0699 45.93 66.1699 47.32 63.3099 47.86C49.4999 50.51 30.3599 50.3001 16.5199 47.7601C12.8499 47.0901 4.71992 45.6301 7.15992 40.2001V40.2201Z" fill="#873C1A"/>
<path d="M23.79 28.6001C24.26 28.8801 24.04 28.6401 24.55 28.6701C28.24 28.8401 31.92 29.2801 35.62 29.3601C44.84 29.5501 54.5 29.3901 63.56 27.7501C66.09 27.2901 68.91 26.6901 71.15 25.3801C72.12 24.8101 73.09 24.1201 73.39 22.9701C74.88 23.1201 78.93 24.1901 77.3 26.3801C76.22 27.8301 74.07 27.4101 72.56 27.5701C70.46 27.8001 71.3 29.0301 70.36 30.3001C67.93 33.6001 62.01 30.3101 58.68 30.7001C56.4 30.9701 54.45 33.2401 52.24 33.8801C47.99 35.1101 44.77 32.1001 40.78 31.8101C36.56 31.4901 33.48 34.4001 29.48 34.0501C26.59 33.8001 24.27 31.5201 21.48 30.9701C18.19 30.3201 14.82 33.0301 11.66 31.7301C9.79999 30.9601 9.84 28.8801 8.2 28.2501C6.65 27.6501 4.04998 28.5601 2.89998 27.0601C1.45998 25.2001 4.66998 23.7701 6.05998 23.4001C7.32998 23.0601 6.83999 23.3801 7.53999 24.2101C9.29999 26.2801 14.58 27.3101 17.2 27.7601C18.13 27.9201 23.51 28.4401 23.8 28.6101L23.79 28.6001Z" fill="#479A29"/>
<path d="M60.4799 39.05C61.1999 38.71 62.4299 38.76 63.3499 38.62C65.7799 38.26 68.4599 37.73 70.7499 36.85C71.1599 36.69 72.1299 36.09 72.4299 36.07C73.2299 36.02 74.8099 38.04 74.9399 38.86C72.4299 38.76 69.91 38.66 67.39 38.86C60.15 39.45 51.6099 41.3 45.0299 44.36C43.1099 45.25 41.3299 46.39 39.4399 47.34C33.8799 44.12 27.8799 41.94 21.5999 40.58C16.1099 39.39 10.4099 38.62 4.79993 38.47C5.23993 37.26 6.18994 36.27 7.18994 35.52C9.86994 37.37 13.0999 38.23 16.2899 38.73C22.0299 39.63 29.3499 39.54 35.0099 38.25C35.7799 38.07 37.6599 37.36 38.2199 37.33C38.7399 37.3 41.3199 38.12 42.1499 38.27C47.3999 39.21 53.03 39.24 58.34 39.09C58.66 39.09 60.3899 39.09 60.4899 39.05H60.4799Z" fill="#FFCC29"/>
<path d="M40.93 33.6C41 33.86 40.86 33.79 40.79 33.86C35.32 38.74 19.22 38.2 12.54 36.21C10.17 35.5 7.24002 34.7 7.48002 31.65C7.50002 31.44 7.85001 30.09 7.93001 30.03C8.20001 29.83 8.42002 30.71 8.51002 30.85C9.93002 33.27 12.23 33.85 14.92 33.61C18.18 33.32 19.37 31.58 23 33.14C26.69 34.74 27.71 36.45 32.33 35.57C34.26 35.2 37.5 33.61 39.21 33.61H40.94L40.93 33.6Z" fill="#E1331A"/>
<path d="M40.37 36.4001L43.11 34.1601C45.56 34.8701 47.84 36.0801 50.49 35.9501C53.4 35.8001 54.77 34.4101 57.07 33.1401C60.26 31.3801 62.6 33.1901 65.81 33.3901C68.33 33.5501 71.51 32.9801 72.36 30.2501C72.56 30.3301 72.66 30.9001 72.68 31.1001C73 34.2101 71.6 34.8901 68.95 35.7301C63.53 37.4501 57.24 37.6301 51.61 37.5201C47.84 37.4501 44.06 37.2101 40.37 36.4001Z" fill="#E1331A"/>
<path d="M33.9599 13.72C35.0499 14.72 33.2799 17.26 32.3699 17.94C31.3899 18.67 29.8899 18.98 28.9599 18C27.4399 16.38 30.3399 13.93 31.8599 13.52C32.4199 13.37 33.4999 13.31 33.9599 13.73V13.72ZM32.5399 14.92C31.7899 14.7 29.8499 16.38 30.2499 17.05C30.3199 17.17 30.8899 17.05 30.9999 17.02C31.6499 16.79 32.5899 15.65 32.5399 14.93V14.92Z" fill="#030201"/>
<path d="M41.35 10.2501C42.59 10.0401 44.2 11.0201 44.96 11.9601C47.31 14.9101 43.94 16.9901 41.61 14.4201C40.75 13.4701 39.18 10.6301 41.35 10.2601V10.2501ZM42.36 11.8201C41.44 11.4201 42.21 12.8201 42.5 13.1801C43.73 14.7201 45.09 14.2001 43.73 12.7401C43.38 12.3601 42.91 12.2401 42.47 12.0101C42.4 11.9701 42.39 11.8401 42.36 11.8201Z" fill="#030201"/>
<path d="M48.2599 5.14008C49.4399 5.11008 51.5699 6.09007 52.0699 7.20007C53.3599 10.0801 48.8699 9.75008 47.3899 8.75008C45.6699 7.59008 46.1299 5.19008 48.2699 5.14008H48.2599ZM49.6099 7.02008C48.6199 6.52008 46.9999 6.74007 48.3599 7.54007C49.0299 7.93007 49.7399 7.89007 50.4899 7.87007C50.5099 7.71007 50.2099 7.45008 50.0999 7.36008C50.0699 7.33008 49.6299 7.03008 49.5999 7.02008H49.6099Z" fill="#030201"/>
<path d="M24.0099 8.34009C24.6999 8.22009 25.5099 8.3401 25.8799 8.9901C26.6199 10.3301 24.8199 12.6401 23.6299 13.2101C21.6899 14.1501 19.9399 13.0201 20.9199 10.8401C21.3399 9.91009 22.9999 8.51009 24.0099 8.34009ZM22.7299 10.7101C21.2399 12.2201 22.7699 12.4101 23.8699 11.1201C24.3599 10.5401 24.9899 9.39009 23.6699 10.0301C23.4199 10.1501 22.9199 10.5201 22.7299 10.7101Z" fill="#030201"/>
<path d="M57.9099 10.25C59.3199 10.06 61.94 10.83 62.27 12.43C62.77 14.86 59.6799 14.69 58.1599 14.08C56.2099 13.3 55.1699 10.62 57.9099 10.25ZM60.84 12.9C60.54 12.09 59.57 11.72 58.78 11.67C56.97 11.55 57.8199 12.44 58.8799 12.8C59.5199 13.02 60.18 13.13 60.84 12.91V12.9Z" fill="#030201"/>
<path d="M35.4299 4.99007C38.5799 4.71007 38.28 7.12007 36.23 8.47007C35.15 9.18007 33.02 9.92007 32.23 8.47007C31.05 6.31007 33.73 5.14007 35.44 4.99007H35.4299ZM36.01 6.42006C35.54 6.24006 33.36 6.95007 33.44 7.47007C34.16 8.29007 35.68 7.25006 36.01 6.42006Z" fill="#030201"/>
<path d="M32.54 14.9201C32.59 15.6501 31.65 16.7801 31 17.0101C30.89 17.0501 30.32 17.1601 30.25 17.0401C29.86 16.3701 31.79 14.7001 32.54 14.9101V14.9201Z" fill="#E8F3AE"/>
<path d="M42.36 11.8201C42.36 11.8201 42.4 11.9701 42.47 12.0101C42.91 12.2501 43.38 12.3601 43.73 12.7401C45.09 14.2001 43.73 14.7301 42.5 13.1801C42.21 12.8201 41.44 11.4201 42.36 11.8201Z" fill="#E8F3AE"/>
<path d="M49.61 7.02011C49.61 7.02011 50.07 7.3301 50.11 7.3601C50.22 7.4501 50.52 7.7201 50.5 7.8701C49.75 7.8901 49.04 7.9301 48.37 7.5401C47.01 6.7501 48.63 6.52011 49.62 7.02011H49.61Z" fill="#E8F3AE"/>
<path d="M22.73 10.7101C22.92 10.5201 23.42 10.1501 23.67 10.0301C24.98 9.39007 24.35 10.5401 23.87 11.1201C22.78 12.4101 21.25 12.2201 22.73 10.7101Z" fill="#E8F3AE"/>
<path d="M60.84 12.9001C60.18 13.1301 59.52 13.0101 58.88 12.7901C57.82 12.4301 56.96 11.5401 58.78 11.6601C59.57 11.7101 60.55 12.0901 60.84 12.8901V12.9001Z" fill="#E8F3AE"/>
<path d="M36.01 6.42014C35.69 7.25014 34.17 8.29014 33.44 7.47014C33.36 6.95014 35.54 6.24014 36.01 6.42014Z" fill="#E8F3AE"/>
</svg>
