<svg width="95" height="111" viewBox="0 0 95 111" fill="none" xmlns="http://www.w3.org/2000/svg">
<path d="M50.28 13.76C52.7 12.8 55.25 12.03 57.85 11.7C67.06 10.54 72.06 13.37 78.97 18.8C81.96 21.15 86.32 24.72 87.19 28.55C88.32 33.51 85.13 38.08 81.74 41.32C81.32 41.72 80.72 42.04 80.35 42.5C80.05 42.87 79.87 43.39 79.55 43.78C79.35 44.02 78.62 44.53 78.63 44.71C78.64 44.83 79.22 45.58 79.33 45.89C79.67 46.88 79.34 47.26 79.03 48.16C80.75 51.64 81.72 55.41 82.52 59.2C82.87 60.86 83.29 62.75 83.52 64.42C83.7 65.72 83.4 65.99 82.58 66.94C82.95 67.54 83.32 68.14 83.6 68.79C83.93 69.56 84.1 70.77 84.4 71.35C84.73 72.01 85.86 73.12 86.36 73.93C88.52 77.43 88.99 81.45 90.68 85.22C92.25 88.73 95.67 92.66 94.1 96.67C93.95 97.05 93.56 97.55 93.48 97.83C93.35 98.25 94.22 100.73 94.38 101.39C94.62 102.41 95.18 104.21 94.53 105.09C93 107.15 91.01 103.98 90.22 102.78C90.04 102.5 89.19 100.89 89.1 100.83C89.03 100.78 87.8 101 87.47 100.99C80.57 100.68 82.25 91.25 78.34 87.6C76.23 85.63 74.9 84.8 73.26 82.21C72.79 81.47 72.13 79.88 71.66 79.36C71.39 79.06 70.69 78.74 70.33 78.42C68.81 77.06 67.89 74.77 67.42 72.83C66.62 72.62 65.8 72.58 65.1 72.09C64.26 71.49 63.58 69.68 63.04 68.72C62.23 67.3 61.34 65.69 60.35 64.39C60.16 64.14 58.86 62.61 58.7 62.57C58.47 62.51 57.42 63.28 57.16 63.46C55.5 64.63 54.01 66.07 52.8 67.7C52.05 68.7 50.59 71.42 49.65 71.96C49.37 72.12 48.92 72.26 48.59 72.24C48.32 73.57 49.13 74.2 49.69 75.24C50.63 76.96 51.15 78.7 51.52 80.62C51.65 81.28 51.67 82.5 51.87 83.04C51.96 83.29 52.43 83.45 52.64 83.66C53.66 84.67 53.77 86.98 54.25 88.37C55.27 91.33 57.11 93.38 55.36 96.65C55.24 96.87 54.81 97.31 54.81 97.49C54.81 97.81 56.08 98.89 56.34 99.22C59.28 102.78 54.93 104.14 52.26 105.12C48.72 106.42 43.78 107.79 40.04 108.01C35.51 108.27 34.28 105.59 36.24 101.74C36.01 101.35 35.68 101.19 35.43 100.77C35.27 100.49 35.03 99.95 34.98 99.64C34.3 95.27 38.36 94.52 40.88 92.16C41.46 91.61 41.83 91.18 42.06 90.38L40.48 87.52C38.91 85.89 37.07 84.08 35.86 82.16C35.67 81.87 35.01 80.44 34.93 80.38C34.74 80.23 34.01 80.2 33.81 79.77L19.9 92.01C18.21 93.46 16.45 94.36 14.17 94.36C11.51 94.36 2.91996 91.95 0.979964 90.18C-0.960036 88.41 0.339973 85.51 1.62997 83.71C4.18997 80.15 7.27997 83.25 10.16 84.64C12.15 85.6 15.39 87.19 17.5 86.15C19.26 85.28 22.91 81.75 24.58 80.29C26.34 78.75 28.08 77.2 29.8 75.62C29.86 75.39 29.02 74.42 28.84 74.14C27.87 72.63 27.07 70.92 26.58 69.19C26.43 68.64 26.17 66.78 26.01 66.5C25.96 66.41 25.12 65.87 24.93 65.7C23.87 64.74 22.77 63.3 22.8 61.8C22.8 61.38 23.22 60.28 23.16 60.07C23.11 59.9 22.5 59.27 22.33 59.02C19.88 55.45 20.03 52.85 19.53 48.78C18.78 42.71 16.5 36.75 18.78 30.71C20.29 26.7 23.62 24.2 27.12 22L26.19 17.82C25.64 17.52 25.36 17.48 25.03 16.9C24.31 15.6 24.16 12.83 24.7 11.45C24.97 10.74 25.51 10.49 25.74 10.02C25.95 9.60004 26.06 8.71004 26.25 8.16004C28.64 1.37004 37.99 -1.25996 44.03 2.13004C47.93 4.32004 49.78 9.51004 50.25 13.74L50.28 13.76ZM38.73 9.41004C35.81 9.55004 29.96 10.17 27.35 11.31C25.57 12.08 26.2 14.52 26.75 15.94C29.59 15.13 32.44 14.35 35.36 13.89C36.69 13.68 38.14 13.47 39.48 13.37C40.2 13.31 41.47 13.16 42.12 13.29C44.12 13.7 43.61 19.06 45.7 19.39C48.91 19.89 48.87 15.96 48.59 13.83C48.12 10.18 46.02 4.73003 42.38 3.25003C37.18 1.13003 29.51 3.67004 27.77 9.32004C29.68 8.81004 31.62 8.37004 33.58 8.07004C35.25 7.81004 36.99 7.66003 38.63 7.45003H43.17C44.21 7.85003 44.21 8.98003 43.17 9.33004C42.41 9.35004 41.65 9.31003 40.9 9.33004C40.75 9.33004 40.11 9.29003 40.11 9.43003C39.65 9.45003 39.19 9.41003 38.73 9.43003V9.41004ZM80.2 40.14C80.35 40.18 80.36 40.1 80.45 40.04C81.17 39.55 82.7 37.75 83.25 37.01C89.52 28.48 82.11 23.41 75.75 18.66C70.34 14.62 66.13 12.72 59.12 13.37C56.17 13.64 53.05 14.48 50.39 15.76C50.47 16.29 50.26 16.98 50.28 17.46C50.31 18.07 50.67 19.07 50.76 19.76C51.52 25.87 47.95 32.72 41.05 32.14C40.45 32.09 39.77 31.75 39.27 31.74C38.77 31.73 38.18 31.97 37.68 32.03C32.67 32.62 30.34 30.11 28.44 25.88C28.18 25.3 27.99 24.48 27.69 23.96C27.65 23.89 27.71 23.78 27.53 23.84C27.24 23.95 25.85 25 25.5 25.27C23.23 27.02 21.28 29.06 20.28 31.81C18.54 36.61 20.31 41.88 21.03 46.72C21.58 50.44 21.38 54.39 23.53 57.65C23.64 57.82 24.1 58.51 24.25 58.51C24.46 58.51 25.42 57.39 25.68 57.17C27.52 55.62 30.65 54.75 33.04 54.85C33.33 54.86 34.76 55.18 34.87 54.98C35.15 54.49 34.75 52.72 34.52 52.18C33.71 50.31 30.83 49.06 28.9 48.91C27.97 48.84 27.05 49.01 26.13 49.01C25.4 48.68 25.57 47.7 26.28 47.38C28.04 46.59 31.35 47.47 33 48.37C33.21 48.48 34.51 49.38 34.58 49.31C34.65 47.56 34.76 45.81 34.54 44.07C32.69 42.47 31.04 40.65 29.83 38.51C29.58 38.07 28.97 37.07 28.95 36.61C28.93 35.99 29.57 35.61 30.11 35.85C30.65 36.09 32.33 39.05 32.9 39.77C34.67 42.02 37.03 43.68 39.58 44.94C40.07 45.18 41.7 45.72 41.94 46.03C42.43 46.64 41.89 47.53 41.09 47.32C41.57 48.72 43.1 49.71 44.41 50.27C47.57 51.62 51.69 51.7 55.05 51.16C55.79 51.04 58.87 50.44 59.22 49.89C59.36 49.67 59.06 49.37 59 49.12C58.08 45.88 59.79 42.17 62.13 39.96C62.55 39.56 63.56 38.92 63.86 38.53C64.1 38.21 64.43 36.76 64.68 36.19C65.37 34.68 66.4 33.29 68.05 32.8L66.24 31.79C63.31 30.16 61.69 27.06 61.43 23.76C61.37 23.04 61.23 21.77 62.12 21.58C63.48 21.29 63.15 23.44 63.21 24.16C63.49 27.4 65.85 30.45 69.12 31.01C70.2 29.26 71.82 27.61 73.59 26.54C73.87 26.37 74.55 25.92 74.83 25.89C75.55 25.82 76.18 26.79 75.63 27.44C75.34 27.79 74.04 28.41 73.56 28.77C72.16 29.82 70.86 31.32 70.14 32.9C74.59 33.11 78.97 35.65 80.21 40.11L80.2 40.14ZM41.58 14.95C41.46 14.85 39.84 15.24 39.56 15.24C39.32 15.24 39.1 15.12 38.87 15.13C38.68 15.13 38.77 15.34 38.58 15.35C36.94 15.45 35.63 15.54 33.97 15.86C31.94 16.25 29.94 16.82 27.96 17.41C29.14 23.03 30.72 32.13 38.61 30.08C41.47 29.34 43.17 26.91 43.56 24.06C43.67 23.22 43.91 21.07 43.77 20.32C43.73 20.13 43.01 19.18 42.84 18.78C42.31 17.57 42.05 16.18 41.59 14.94L41.58 14.95ZM46.53 21.07C46.35 21.1 45.48 21.03 45.44 21.07C45.3 21.21 45.32 24.52 45.05 25.02C45.28 25.07 45.37 24.75 45.46 24.59C46.1 23.52 46.37 22.3 46.53 21.07ZM41.79 30.45C45.66 30.5 48.58 26.51 49.09 22.98C49.13 22.7 49.3 21.44 49.11 21.31C48.92 21.18 48.19 21.31 47.92 21.27C47.9 23.13 47.22 24.96 46.13 26.44C45.14 27.78 43.78 28.68 42.64 29.86L41.8 30.45H41.79ZM65.88 38.26C70.09 38.49 73.95 40.68 76.51 43.98C78.46 42.74 79.25 42.15 78.21 39.8C76.73 36.45 72.66 34.42 69.09 34.52C67.17 34.58 66.2 36.62 65.88 38.25V38.26ZM73.75 43.53C72.32 42.21 70.3 41.07 68.43 40.5C67.74 40.29 65.58 39.78 64.97 39.95C64.79 40 63.49 41.1 63.27 41.31C61.61 42.91 60.14 45.7 60.47 48.07C60.62 49.11 61.23 48.33 61.65 47.88C62.55 46.9 62.35 46.84 62.6 45.67C62.85 44.5 63.9 44.8 64.33 45.79C65.01 47.32 65.29 50.14 64.82 51.75C64.46 53 63.65 53.43 62.76 54.23C62.71 54.27 62.48 54.3 62.63 54.45C62.66 54.49 63.46 54.72 63.58 54.74C65.78 55.04 66.73 53.57 67.23 51.69C67.35 51.22 67.44 49.98 67.72 49.71C68.05 49.39 68.72 49.46 68.95 49.87C69.37 50.63 68.54 52.74 68.27 53.56C69.42 53.19 70.4 52.18 70.88 51.09C71.26 50.22 71.22 48.64 72.54 49.04C73.33 49.28 72.6 51.09 72.41 51.59C72.47 51.66 73.17 51.08 73.25 51C74.1 50.16 74.93 48.67 75.2 47.52C75.31 47.06 75.55 45.73 75.35 45.33C75.15 44.93 74.12 43.87 73.74 43.52L73.75 43.53ZM39 46.68C38.87 46.5 36.68 45.63 36.36 45.27C36.33 46.76 36.43 48.27 36.25 49.75C36.2 50.16 35.95 50.69 35.96 51.04C35.97 51.48 36.45 52.78 36.56 53.52C36.58 53.67 36.56 53.77 36.71 53.86L40.3 49.65C40.02 49.12 39.64 48.66 39.4 48.1C39.28 47.81 39.05 46.74 39 46.67V46.68ZM76.85 47.64C76.99 47.79 77.72 46.87 77.74 46.7C77.81 46.2 77.09 45.49 77.05 45.82C77.1 46.45 77.02 47.05 76.85 47.65V47.64ZM62.72 49.22C62.72 49.22 62.66 49.29 62.62 49.32C62.58 49.35 62.55 49.39 62.52 49.42C62.45 49.48 62.38 49.57 62.32 49.62L61.92 50.02C55.48 55.65 49 61.22 42.66 66.96C42.35 67.23 43.04 67.36 43.3 67.61C43.44 67.74 43.9 68.5 43.99 68.5C48.06 64.94 52.17 61.41 56.19 57.78C58.3 55.88 60.8 53.81 62.76 51.81C62.89 51.68 63.14 51.37 63.2 51.21C63.34 50.82 63.37 50 63.2 49.63C63.2 49.57 63.2 49.49 63.2 49.43V49.03C63.27 48.98 63.2 48.95 63.2 48.93C63.19 48.86 63.24 48.73 63.15 48.73L62.71 49.22H62.72ZM77.83 49.32C77.76 49.25 76.14 50.09 76 50.21C74.99 51.05 74.72 52.26 73.18 53.12C72.31 53.6 71.6 53.4 71.12 53.62C70.98 53.68 70.37 54.3 70.1 54.48C68.82 55.33 68.42 55.08 67.14 55.37C66.88 55.43 66.33 55.95 65.91 56.12C64.37 56.74 62.45 56.62 61.19 55.46L45.83 69.29C46.29 69.35 48.67 70.58 48.88 70.46C51.05 66.8 53.72 63.26 57.58 61.28C56.77 60.54 57.37 59.27 58.41 59.81C58.55 59.88 59.35 60.62 59.51 60.78C61.95 63.21 63.49 66.02 65.14 68.98C65.7 69.99 65.7 70.8 67.03 71.05C71.2 71.81 78.71 68.78 81.54 65.63C81.69 65.46 81.88 65.22 81.89 64.99C81.92 64.33 81.48 62.54 81.34 61.78C80.54 57.53 79.35 53.38 77.83 49.33V49.32ZM56.11 52.78C52.1 53.55 47.13 53.5 43.37 51.74C42.77 51.46 42.25 51.04 41.66 50.81C40.97 51.53 40.26 52.25 39.62 53.02C39.23 53.49 37.59 55.48 37.46 55.91C37.37 56.21 37.62 56.13 37.79 56.33C38.48 57.12 38.7 58.9 38.73 59.94C38.74 60.3 38.59 61.25 38.62 61.41C38.63 61.47 39.19 61.81 39.32 61.92C39.59 62.17 39.93 62.49 40.16 62.76C40.67 63.36 41.22 64.54 41.69 64.99C41.76 65.05 41.8 65.15 41.92 65.12L56.11 52.78ZM36.95 60.49V58.96C36.95 58.76 36.68 57.76 36.54 57.59C36.18 57.13 34.61 56.82 34.02 56.75C31.97 56.49 29.42 56.87 27.63 57.94C26.48 58.63 24.59 60.5 24.59 61.92C24.59 62.68 25.71 64.21 26.32 64.64C26.4 64.7 26.42 64.78 26.57 64.74C26.6 64.53 26.71 64.33 26.83 64.16C28.98 61.07 33.27 59.26 36.94 60.5L36.95 60.49ZM40.6 66.61C39.41 64.53 38.22 62.44 35.67 61.91C33.07 61.38 29.55 62.93 28.24 65.26C28.11 65.5 27.81 66.03 27.8 66.28C27.71 67.43 28.73 70.12 29.23 71.22C29.73 72.32 30.4 73.54 31.29 74.41L32.41 73.48C32.04 72.72 29.56 70.51 30.74 69.73C30.93 69.6 31.2 69.55 31.43 69.62C31.81 69.73 33.47 72.22 33.94 72.74C34.64 73.51 36.11 75.01 37.15 73.97C38.52 72.61 36.79 71.08 36.31 69.87C35.83 68.66 35.71 67.44 35.01 66.13C34.66 65.47 33.44 64.2 34.23 63.55C35.07 62.86 35.77 64.26 36.16 64.88C36.85 65.99 37.5 67.39 37.64 68.69C37.79 68.73 37.8 68.67 37.88 68.58C38.72 67.73 39.36 66.95 40.6 66.61ZM84.25 73.92C84.07 74.7 83.26 77.66 82.03 76.69C81.26 76.08 82.16 74.96 82.41 74.2C82.57 73.7 82.89 72.49 82.88 72C82.88 71.41 81.84 68.19 81.33 68.1C77.94 70.89 73.64 72.58 69.24 72.84C69.88 75.44 71.27 77.85 74.06 78.44C74.77 78.59 76.5 78.44 76.14 79.68C75.93 80.38 74.53 80.23 73.99 80.19C75.28 82.36 76.97 84.64 79.09 86.05C79.34 86.22 79.76 86.53 80.05 86.57C81.75 86.8 84.45 85.96 85.78 84.88C86.35 84.42 87.46 83.04 87.59 82.34C87.65 82.02 87.14 80.07 87.01 79.61C86.45 77.62 85.62 75.48 84.25 73.92ZM42.38 72.93C43.48 72.07 43.3 70.91 42.69 69.8C42.04 68.62 41.27 67.97 40.01 68.88C41.67 69.51 42.18 71.33 42.38 72.93ZM39.42 75.8C40.57 75.36 40.91 73.8 40.79 72.7C40.68 71.74 39.75 69.67 38.53 70.42C39.55 72.05 39.56 73.95 39.42 75.8ZM46.81 71.27L44.65 70.37C45 71.86 44.45 73.34 43.26 74.26C43 74.46 42.43 74.7 42.28 74.86C41.76 75.4 41.62 76.3 40.71 77.04C40.09 77.54 39.3 77.67 38.88 77.97C38.67 78.12 38.15 79.03 37.85 79.31C37.61 79.54 37.18 79.88 36.86 79.95C36.7 80.15 38.44 82.66 38.7 83C39.4 83.94 40.35 85.14 41.16 85.98C41.74 86.57 41.87 86.69 42.74 86.77C44.75 86.94 48.28 86.12 49.85 84.79C50.2 84.49 50.41 84.34 50.4 83.86C50.35 81.93 49.38 78.13 48.44 76.43C48.15 75.91 47.06 74.53 46.96 74.15C46.88 73.83 47.05 73.45 47.04 73.09C47.03 72.52 46.75 71.89 46.82 71.28L46.81 71.27ZM5.53998 84.1C4.46998 83.62 4.27996 83.38 3.36996 84.3C3.33996 84.33 3.29996 84.36 3.26996 84.4C3.18996 84.49 3.18998 84.58 3.16998 84.6C2.59998 85.33 1.97997 86.34 1.73997 87.27C1.35997 88.75 2.24996 89.16 3.42996 89.73C5.76996 90.85 9.39996 91.96 11.96 92.41C12.51 92.51 12.98 92.58 13.54 92.61C13.61 92.61 13.67 92.61 13.74 92.61C15.14 92.65 16.2 92.54 17.42 91.82L18.19 91.13C18.19 91.13 18.27 91.15 18.29 91.13C18.33 91.1 18.36 91.05 18.39 91.03C19.76 90.03 21.15 88.74 22.44 87.62C26.35 84.23 30.16 80.71 34.05 77.3C34.37 76.86 34.82 75.88 34.45 75.41C34.42 75.37 33.74 74.79 33.7 74.77C33.53 74.68 33.39 74.83 33.26 74.92C29.01 78.55 24.96 82.46 20.62 85.98C19.79 86.65 18.81 87.55 17.81 87.91C14.12 89.24 8.86998 85.6 5.56998 84.11L5.53998 84.1ZM37.84 75.6C37.64 75.6 37.53 75.76 37.33 75.83C37.09 75.91 36.27 76 36.21 76.09C36.17 76.15 35.95 77.23 35.85 77.5C35.76 77.73 35.3 78.46 35.29 78.52C35.21 79.04 36.23 78.43 36.44 78.28C37.34 77.65 37.75 76.66 37.85 75.59L37.84 75.6ZM88.6 84.2C88.45 84.04 88.43 84.27 88.38 84.33C88.26 84.5 87.55 85.46 87.55 85.54C87.55 85.7 87.91 86.14 88 86.34C88.66 87.83 89.52 89.32 90.13 90.82C90.52 91.77 90.89 92.67 89.85 93.31C89.5 93.52 85.96 94.85 85.54 94.93C84.38 95.15 84.1 94.32 83.88 93.32C83.81 93 83.86 92.49 83.81 92.31C83.6 91.54 82.91 89.98 82.57 89.2C82.42 88.87 82.31 88.53 82.27 88.17L80.89 88.26C82.75 90.8 82.67 94.6 84.17 97.18C85.92 100.18 89.85 99.77 91.85 97.3C94.56 93.95 91.12 90.18 89.69 87.11C89.32 86.31 89.01 85.47 88.68 84.66C88.63 84.53 88.6 84.23 88.58 84.21L88.6 84.2ZM48.7 89.83C48.66 90.37 48.76 90.98 48.7 91.51C48.51 93.17 47.22 94.93 45.83 95.8C43.83 97.04 43.4 95.84 41.63 95.08C41.39 94.98 40.69 94.65 40.48 94.69C38.91 95.95 36.55 96.41 36.55 98.87C36.55 100.54 37.78 100.62 39.17 100.7C43.28 100.94 45.32 99.82 48.84 98.31C49.94 97.84 52.83 96.97 53.58 96.34C55.88 94.38 53.18 90.48 52.53 88.33C52.22 87.3 52.06 86.22 51.76 85.19C50.84 86.34 49.51 87.06 48.15 87.56C48.07 87.68 48.64 89.5 48.7 89.84V89.83ZM86.81 87.45C86.91 87.29 86.64 86.63 86.46 86.58C86.33 86.54 84.45 87.48 84.06 87.61C83.95 87.65 83.68 87.64 83.67 87.66C83.59 87.74 83.65 88.65 83.99 88.63C84.14 88.63 86.73 87.58 86.81 87.45ZM45.74 88.25C45.74 88.25 45.67 88.25 45.64 88.25C44.69 88.32 43.74 88.39 42.78 88.35C42.73 88.39 43.35 89.36 43.4 89.41C43.57 89.55 43.85 89.55 44.06 89.54C44.09 89.54 44.13 89.54 44.16 89.54C45.13 89.54 46.08 89.6 47.02 89.34L46.72 87.96L45.74 88.26V88.25ZM86.33 89.24C86.09 89.32 84.55 89.85 84.49 89.93C84.45 89.98 84.52 91.16 84.95 91.08C85.17 91.04 87.01 90.24 87.02 90.13L88 89.82C88.11 89.66 87.72 88.64 87.41 88.69C87.16 88.73 86.68 89.22 86.33 89.24ZM43.96 91.01C43.96 91.01 43.89 91.01 43.86 91.01C43.64 91.03 43.36 91.26 43.37 91.5C44.54 91.91 45.75 92.4 47.01 92.28C47.01 92.05 47.15 91.85 47.19 91.63C47.2 91.57 47.12 91.51 47.12 91.5C47.13 91.35 47.28 91.21 47.21 90.97C47.15 90.75 46.99 90.87 46.82 90.91L43.96 91.01ZM88.89 92.1C89.11 91.98 88.92 91 88.56 91.12L85.25 92.41C85.25 92.41 85.25 92.54 85.24 92.59C85.23 92.75 85.33 93.47 85.49 93.48C86.48 92.95 87.6 92.71 88.6 92.2L88.8 92.1C88.8 92.1 88.87 92.11 88.9 92.1H88.89ZM42.48 92.89C42.34 93 42.28 93.1 42.18 93.19C42.15 93.22 42.12 93.26 42.08 93.29C41.98 93.38 41.72 93.39 41.69 93.59C41.97 93.71 42.31 93.78 42.58 93.89C42.9 94.15 43.3 94.29 43.67 94.48C43.84 94.57 44.35 94.97 44.49 94.96C44.97 94.75 45.29 94.44 45.64 94.09C45.76 93.97 45.98 93.89 46.04 93.7C45.83 93.72 45.64 93.64 45.45 93.6C45.02 93.5 44.59 93.4 44.17 93.3C43.85 93.14 43.5 93.09 43.16 92.97C42.74 92.83 42.91 92.56 42.49 92.9L42.48 92.89ZM54.13 99.41C53.91 99.21 53.52 98.51 53.27 98.44C52.94 98.35 52.31 98.76 51.96 98.83C52.29 99.73 52.23 100.71 51.86 101.59C51.83 101.63 51.79 101.65 51.76 101.69C51.72 101.74 51.62 101.83 51.56 101.89C51.51 101.94 51.41 102.05 51.36 102.09C49.32 102.9 47.17 103.51 45.04 104.07C44.42 104.23 43.78 104.41 43.16 104.56C42.29 104.51 41.44 104.91 40.69 104.26C40.67 104.23 40.42 103.82 40.39 103.77C40.34 103.24 40.41 102.79 40.59 102.29L37.92 102.24C37.33 103.03 36.31 105.35 37.45 105.97C38.9 106.76 42.78 106.04 44.43 105.65C44.78 105.57 45.11 105.44 45.42 105.35C46.41 105.28 47.43 104.93 48.38 104.66C49.48 104.34 50.5 103.99 51.54 103.57C52.59 103.21 54.65 102.69 55.39 101.89C55.83 101.42 55.8 101.38 55.49 100.8C55.42 100.67 55.39 100.61 55.29 100.5C55.26 100.47 55.22 100.43 55.19 100.4C55.12 100.06 54.77 99.96 54.5 99.81C54.37 99.68 54.24 99.55 54.1 99.41H54.13ZM50.58 99.41C48.61 100.08 46.93 101.23 44.85 101.73C44.34 101.86 42.88 101.98 42.58 102.12C42.45 102.18 42 102.97 42.09 103.06C43.19 102.86 44.29 102.63 45.37 102.34C46.62 102.01 48.96 101.43 50.06 100.9C50.81 100.54 50.71 100.14 50.58 99.4V99.41ZM92.25 99.81C92.2 99.67 92.22 99.37 92.02 99.43C91.95 99.45 90.94 100.05 90.83 100.12C90.74 100.19 90.67 100.2 90.68 100.34C90.73 100.86 92.32 102.9 92.74 103.37C92.89 103.54 92.98 103.89 93.23 103.86C93.11 102.53 92.68 101.08 92.24 99.81H92.25Z" fill="#020201"/>
<path d="M12.34 99.74C14.58 99.7 20.63 99.96 21.04 102.93C21.14 103.69 21.16 105.46 21.15 106.28C21.13 107.56 20.46 108.47 19.34 109.02C16.33 110.51 8.98 110.59 6.11 108.78C5.55 108.43 4.87002 107.78 4.70002 107.12C4.53002 106.46 4.61 103.24 4.77 102.55C5.33 100.23 10.42 99.78 12.33 99.74H12.34Z" fill="#020201"/>
<path d="M80.2 40.14C78.95 35.68 74.57 33.14 70.13 32.93C70.85 31.35 72.1599 29.84 73.5499 28.8C74.0399 28.44 75.33 27.81 75.62 27.47C76.17 26.82 75.55 25.85 74.82 25.92C74.54 25.95 73.8599 26.4 73.5799 26.57C71.8099 27.65 70.1899 29.29 69.1099 31.04C65.8399 30.48 63.48 27.42 63.2 24.19C63.14 23.47 63.4699 21.32 62.1099 21.61C61.2199 21.8 61.37 23.07 61.42 23.79C61.67 27.09 63.3 30.19 66.23 31.82L68.04 32.83C66.38 33.33 65.35 34.71 64.67 36.22C64.41 36.78 64.09 38.24 63.85 38.56C63.56 38.95 62.55 39.59 62.12 39.99C59.78 42.2 58.07 45.91 58.9899 49.15C59.0599 49.39 59.3499 49.7 59.2099 49.92C58.86 50.47 55.78 51.07 55.04 51.19C51.68 51.73 47.57 51.65 44.4 50.3C43.09 49.74 41.5599 48.75 41.0799 47.35C41.8799 47.56 42.41 46.67 41.93 46.06C41.68 45.75 40.06 45.21 39.57 44.97C37.02 43.71 34.66 42.04 32.89 39.8C32.32 39.08 30.64 36.11 30.1 35.88C29.56 35.65 28.92 36.02 28.94 36.64C28.95 37.1 29.57 38.1 29.82 38.54C31.04 40.68 32.68 42.5 34.53 44.1C34.75 45.85 34.65 47.59 34.57 49.34C34.5 49.41 33.1999 48.51 32.9899 48.4C31.3399 47.51 28.0399 46.62 26.2699 47.41C25.5599 47.73 25.4 48.71 26.12 49.04C27.04 49.04 27.96 48.87 28.89 48.94C30.82 49.08 33.7 50.34 34.51 52.21C34.75 52.75 35.1399 54.52 34.8599 55.01C34.7499 55.2 33.32 54.89 33.03 54.88C30.64 54.78 27.51 55.65 25.67 57.2C25.41 57.42 24.4499 58.54 24.2399 58.54C24.0899 58.54 23.6299 57.85 23.5199 57.68C21.3699 54.42 21.5699 50.47 21.0199 46.75C20.2999 41.91 18.5299 36.64 20.2699 31.84C21.2599 29.1 23.2199 27.05 25.4899 25.3C25.8399 25.03 27.2299 23.98 27.5199 23.87C27.6999 23.8 27.64 23.91 27.68 23.99C27.98 24.51 28.17 25.33 28.43 25.91C30.33 30.13 32.66 32.65 37.67 32.06C38.17 32 38.76 31.75 39.26 31.77C39.76 31.79 40.44 32.12 41.04 32.17C47.94 32.75 51.51 25.89 50.75 19.79C50.66 19.1 50.2999 18.11 50.2699 17.49C50.2499 17.01 50.46 16.32 50.38 15.79C53.04 14.52 56.1599 13.68 59.1099 13.4C66.1199 12.75 70.3299 14.65 75.7399 18.69C82.0999 23.43 89.5099 28.51 83.2399 37.04C82.6899 37.79 81.16 39.58 80.44 40.07C80.36 40.13 80.34 40.21 80.19 40.17L80.2 40.14Z" fill="#61A1D8"/>
<path d="M77.83 49.3201C79.34 53.3601 80.54 57.5101 81.34 61.7701C81.48 62.5401 81.92 64.32 81.89 64.98C81.88 65.21 81.69 65.46 81.54 65.62C78.71 68.77 71.2 71.81 67.03 71.04C65.7 70.8 65.7 69.98 65.14 68.97C63.49 66.01 61.95 63.1901 59.51 60.7701C59.35 60.6101 58.54 59.87 58.41 59.8C57.37 59.26 56.78 60.5301 57.58 61.2701C53.72 63.2501 51.05 66.79 48.88 70.45C48.68 70.57 46.29 69.33 45.83 69.28L61.19 55.45C62.44 56.61 64.37 56.73 65.91 56.11C66.33 55.94 66.88 55.42 67.14 55.36C68.43 55.07 68.83 55.32 70.1 54.47C70.37 54.29 70.98 53.67 71.12 53.61C71.61 53.39 72.32 53.59 73.18 53.11C74.72 52.25 74.99 51.04 76 50.2C76.14 50.08 77.75 49.24 77.83 49.31V49.3201Z" fill="#BE2B12"/>
<path d="M38.6299 7.44002C36.9799 7.65002 35.2499 7.80002 33.5799 8.06002C31.6199 8.36002 29.6799 8.81002 27.7699 9.31002C29.5199 3.66002 37.1799 1.12003 42.3799 3.24003C46.0199 4.72003 48.1199 10.17 48.5899 13.82C48.8599 15.95 48.9 19.88 45.7 19.38C43.61 19.05 44.1199 13.69 42.1199 13.28C41.4699 13.15 40.2 13.3 39.48 13.36C38.14 13.46 36.6899 13.67 35.3599 13.88C32.4399 14.34 29.5899 15.12 26.7499 15.93C26.1999 14.51 25.58 12.08 27.35 11.3C29.96 10.16 35.82 9.54002 38.73 9.40002C39.15 9.62002 39.7499 9.44002 40.2099 9.50002C40.2299 9.39002 40.1099 9.41002 40.1099 9.40002C40.1099 9.26002 40.7499 9.31002 40.8999 9.30002C40.9999 9.46002 41.2699 9.40002 41.4399 9.40002C41.9999 9.40002 42.66 9.47002 43.17 9.30002C44.21 8.95002 44.21 7.83002 43.17 7.42002C42.7 7.24002 39.6399 7.25002 38.9599 7.31002C38.7699 7.33002 38.6499 7.41002 38.6199 7.42002L38.6299 7.44002ZM47.7099 16.72C47.8099 16.51 47.9299 16.23 47.7099 16.03V15.83C47.9599 15.58 47.7599 15.19 47.7099 14.94C47.5499 14.18 47.38 13.16 46.51 12.93C44.46 12.41 44.9599 15.81 45.4399 16.87C45.9199 17.93 47.2299 17.74 47.7199 16.72H47.7099Z" fill="#326EAA"/>
<path d="M84.25 73.9201C85.61 75.4801 86.45 77.6201 87.01 79.6101C87.14 80.0701 87.65 82.0201 87.59 82.3401C87.46 83.0401 86.35 84.4201 85.78 84.8801C84.45 85.9601 81.75 86.8001 80.05 86.5701C79.76 86.5301 79.34 86.2201 79.09 86.0501C76.97 84.6401 75.28 82.3601 73.99 80.1901C74.53 80.2301 75.93 80.3801 76.14 79.6801C76.51 78.4501 74.78 78.5901 74.06 78.4401C71.27 77.8401 69.88 75.4301 69.24 72.8401C73.64 72.5901 77.94 70.8901 81.33 68.1001C81.84 68.1901 82.87 71.4101 82.88 72.0001C82.88 72.4901 82.57 73.7001 82.41 74.2001C82.17 74.9601 81.26 76.0901 82.03 76.6901C83.27 77.6601 84.07 74.7101 84.25 73.9201Z" fill="#61A1D8"/>
<path d="M41.5799 14.95C42.0399 16.19 42.2999 17.58 42.8299 18.79C43.0099 19.19 43.7299 20.14 43.7599 20.33C43.8999 21.08 43.6699 23.23 43.5499 24.07C43.1599 26.92 41.4599 29.34 38.5999 30.09C30.7099 32.14 29.13 23.04 27.95 17.42C29.93 16.83 31.9199 16.26 33.9599 15.87C35.6199 15.55 36.9299 15.46 38.5699 15.36C38.7599 15.35 38.6699 15.14 38.8599 15.14C39.0899 15.14 39.3099 15.26 39.5499 15.25C39.8199 15.25 41.4399 14.86 41.5699 14.96L41.5799 14.95ZM37.7699 16.46C36.9199 17.24 37.4499 19.03 38.6099 19.18C39.3599 19.28 39.7199 18.27 39.7199 17.66C39.7199 16.74 38.5999 15.7 37.7699 16.46ZM30.2999 17.63C29.1499 17.89 29.4399 20.34 30.6199 20.63C32.2799 21.03 32.2499 17.18 30.2999 17.63ZM33.4699 19.31C32.3499 19.46 32.0099 21.7 32.1099 22.6C32.3599 24.75 35.2599 24.63 36.5999 23.54C37.0599 23.16 37.6699 22.26 36.8499 21.92C36.0999 21.6 35.3499 22.81 34.2299 22.66C32.9299 22.49 34.2999 20.6 34.2799 20.05C34.2599 19.6 33.9199 19.26 33.4699 19.32V19.31ZM39.7899 23.16C39.1499 23.22 38.9499 23.97 38.6299 24.37C37.6799 25.55 36.2799 25.83 34.8299 25.7C34.2699 25.65 33.07 25.09 32.95 26.08C32.79 27.41 35.7099 27.35 36.5099 27.28C37.9599 27.16 40.3699 25.85 40.6599 24.32C40.7699 23.73 40.4499 23.09 39.7899 23.15V23.16Z" fill="#F5BA82"/>
<path d="M5.53996 84.1001C8.83996 85.5901 14.09 89.23 17.78 87.9C18.78 87.54 19.77 86.6401 20.59 85.9701C24.93 82.4501 28.99 78.5401 33.23 74.9101C33.36 74.8201 33.5 74.6701 33.67 74.7601C33.71 74.7801 34.39 75.36 34.42 75.4C34.79 75.87 34.3399 76.84 34.0199 77.29C30.1299 80.7 26.33 84.2201 22.41 87.6101C21.12 88.7301 19.7299 90.0201 18.3599 91.0201L18.26 90.9201V91.1201C18.26 91.1201 18.18 91.1 18.16 91.1201C17.52 91.5701 16.87 92.0301 16.07 92.2401L13.72 92.6101C13.65 92.6101 13.5899 92.6101 13.5199 92.6101C13.5699 92.3001 13.3599 92.4301 13.1799 92.4201C12.7999 92.3801 12.26 92.2201 11.94 92.4201C9.38996 91.9601 5.74996 90.8601 3.40996 89.7401C2.22996 89.1701 1.32996 88.7601 1.71996 87.2801C1.95996 86.3501 2.57995 85.3401 3.14995 84.6101L3.24996 84.4101C3.24996 84.4101 3.31996 84.3401 3.34996 84.3101C3.64996 84.1201 3.92994 83.8701 4.29994 83.8201L5.51994 84.1101L5.53996 84.1001Z" fill="#FFCC29"/>
<path d="M46.8099 71.27C46.7399 71.88 47.0199 72.51 47.0299 73.08C47.0299 73.44 46.8699 73.83 46.9499 74.14C47.0499 74.52 48.1399 75.9 48.4299 76.42C49.3699 78.12 50.3399 81.92 50.3899 83.85C50.3999 84.34 50.1899 84.48 49.8399 84.78C48.2799 86.1 44.7399 86.93 42.7299 86.76C41.8499 86.68 41.7299 86.57 41.1499 85.97C40.3399 85.14 39.3899 83.94 38.6899 82.99C38.4399 82.65 36.6899 80.14 36.8499 79.94C37.1699 79.87 37.5999 79.53 37.8399 79.3C38.1399 79.02 38.6599 78.11 38.8699 77.96C39.2899 77.66 40.0899 77.53 40.6999 77.03C41.6099 76.29 41.7599 75.39 42.2699 74.85C42.4199 74.69 42.9999 74.46 43.2499 74.25C44.4399 73.33 44.9899 71.84 44.6399 70.36L46.7999 71.26L46.8099 71.27Z" fill="#61A1D8"/>
<path d="M56.11 52.7801L41.92 65.1201C41.8 65.1501 41.76 65.0501 41.69 64.9901C41.22 64.5401 40.67 63.3701 40.16 62.7601C39.93 62.4901 39.59 62.1701 39.32 61.9201C39.2 61.8101 38.64 61.4601 38.62 61.4101C38.58 61.2501 38.74 60.3001 38.73 59.9401C38.7 58.9001 38.48 57.1301 37.79 56.3301C37.62 56.1301 37.36 56.2201 37.46 55.9101C37.59 55.4901 39.22 53.5001 39.62 53.0201C40.26 52.2501 40.97 51.5301 41.66 50.8101C42.25 51.0401 42.77 51.4601 43.37 51.7401C47.13 53.4901 52.1 53.5501 56.11 52.7801Z" fill="#BE2B12"/>
<path d="M73.75 43.5301C74.13 43.8801 75.15 44.9201 75.36 45.3401C75.57 45.7601 75.31 47.0701 75.21 47.5301C74.94 48.6701 74.1 50.1701 73.26 51.0101C73.18 51.0901 72.4801 51.6701 72.4201 51.6001C72.6101 51.1001 73.34 49.2901 72.55 49.0501C71.23 48.6501 71.2701 50.2301 70.8901 51.1001C70.4101 52.1901 69.43 53.2001 68.28 53.5701C68.55 52.7501 69.38 50.6301 68.96 49.8801C68.73 49.4701 68.07 49.3901 67.73 49.7201C67.46 49.9901 67.37 51.2301 67.24 51.7001C66.74 53.5801 65.79 55.0501 63.59 54.7501C63.48 54.7301 62.6801 54.5001 62.6401 54.4601C62.4901 54.3001 62.72 54.2801 62.77 54.2401C63.66 53.4401 64.47 53.0101 64.83 51.7601C65.3 50.1501 65.02 47.3301 64.34 45.8001C63.9 44.8201 62.85 44.5301 62.61 45.6801C62.37 46.8301 62.56 46.9201 61.66 47.8901C61.25 48.3401 60.63 49.1101 60.48 48.0801C60.15 45.7101 61.62 42.9201 63.28 41.3201C63.5 41.1101 64.8 40.0101 64.98 39.9601C65.59 39.7801 67.75 40.3001 68.44 40.5101C70.31 41.0801 72.33 42.2201 73.76 43.5401L73.75 43.5301Z" fill="#BE2B12"/>
<path d="M48.7 91.5101L48.7999 91.5601C48.8199 90.9601 48.82 90.4101 48.7 89.8301C48.63 89.5001 48.0699 87.6701 48.1499 87.5501C49.5199 87.0501 50.8399 86.3301 51.7599 85.1801C52.0599 86.2101 52.2199 87.2901 52.5299 88.3201C53.1799 90.4701 55.8699 94.3701 53.5799 96.3301C52.8299 96.9701 49.9399 97.8301 48.8399 98.3001C45.3199 99.8101 43.28 100.94 39.17 100.69C37.78 100.61 36.5499 100.53 36.5499 98.8601C36.5499 96.4001 38.9099 95.9401 40.4799 94.6801C40.6899 94.6401 41.3899 94.9701 41.6299 95.0701C43.3999 95.8301 43.8299 97.0301 45.8299 95.7901C47.2199 94.9301 48.52 93.1601 48.7 91.5001V91.5101Z" fill="#326EAA"/>
<path d="M40.6 66.6101C39.36 66.9501 38.72 67.7401 37.88 68.5801C37.8 68.6601 37.79 68.7201 37.64 68.6901C37.5 67.3901 36.85 66.0001 36.16 64.8801C35.77 64.2501 35.07 62.8601 34.23 63.5501C33.44 64.2001 34.66 65.4701 35.01 66.1301C35.7 67.4401 35.81 68.6 36.31 69.87C36.81 71.14 38.52 72.6101 37.15 73.9701C36.11 75.0001 34.64 73.5101 33.94 72.7401C33.46 72.2201 31.8 69.73 31.43 69.62C31.2 69.55 30.94 69.61 30.74 69.73C29.56 70.51 32.04 72.7101 32.41 73.4801L31.29 74.4101C30.41 73.5401 29.75 72.3501 29.23 71.2201C28.71 70.0901 27.71 67.4301 27.8 66.2801C27.82 66.0301 28.11 65.5 28.24 65.26C29.55 62.93 33.07 61.3801 35.67 61.9101C38.23 62.4301 39.41 64.5301 40.6 66.6101Z" fill="#BE2B12"/>
<path d="M88.5999 84.2C88.5999 84.2 88.6499 84.52 88.6999 84.65C89.0299 85.47 89.3399 86.31 89.7099 87.1C91.1399 90.17 94.5699 93.94 91.8699 97.29C89.8699 99.76 85.9399 100.18 84.1899 97.17C82.6899 94.59 82.7799 90.79 80.9099 88.25L82.2899 88.16C82.3299 88.52 82.4499 88.86 82.5899 89.19C82.9299 89.97 83.6299 91.52 83.8299 92.3C83.8799 92.49 83.8299 92.99 83.8999 93.31C84.1099 94.31 84.3899 95.14 85.5599 94.92C85.9799 94.84 89.5199 93.52 89.8699 93.3C90.9099 92.67 90.5399 91.76 90.1499 90.81C89.5299 89.31 88.6699 87.81 88.0199 86.33C87.9299 86.13 87.5599 85.69 87.5699 85.53C87.5699 85.46 88.2799 84.5 88.3999 84.32C88.4399 84.26 88.4599 84.03 88.6199 84.19L88.5999 84.2Z" fill="#326EAA"/>
<path d="M65.88 38.26C66.2 36.62 67.17 34.58 69.09 34.53C72.66 34.43 76.73 36.46 78.21 39.81C79.25 42.16 78.46 42.75 76.51 43.99C73.95 40.69 70.09 38.5 65.88 38.27V38.26Z" fill="#BE2B12"/>
<path d="M62.72 49.22C62.86 49.13 62.95 48.99 63.11 49.02C63.04 49.18 63.2 49.34 63.21 49.42C63.21 49.48 63.21 49.55 63.21 49.62C63.25 50.18 63.04 50.74 63.21 51.2C63.15 51.36 62.9 51.67 62.77 51.8C60.81 53.8 58.31 55.87 56.2 57.77C52.18 61.39 48.08 64.93 44 68.49C43.91 68.49 43.45 67.74 43.31 67.6C43.05 67.36 42.36 67.22 42.67 66.95C49.01 61.21 55.5 55.64 61.93 50.01C62.09 49.87 62.21 49.72 62.33 49.61C62.39 49.56 62.46 49.48 62.53 49.41L62.63 49.31C62.63 49.31 62.69 49.24 62.73 49.21L62.72 49.22Z" fill="#FFCC29"/>
<path d="M36.95 60.4901C33.28 59.2501 28.98 61.06 26.84 64.15C26.72 64.33 26.61 64.5201 26.58 64.7301C26.43 64.7701 26.42 64.6901 26.33 64.6301C25.71 64.2001 24.6 62.6801 24.6 61.9101C24.6 60.4901 26.49 58.61 27.64 57.93C29.43 56.86 31.98 56.4801 34.03 56.7401C34.62 56.8101 36.19 57.1201 36.55 57.5801C36.69 57.7601 36.96 58.7501 36.96 58.9501V60.4801L36.95 60.4901Z" fill="#BE2B12"/>
<path d="M54.1299 99.4101C54.2699 99.5401 54.3899 99.6801 54.5299 99.8101C54.7399 100.01 55.0799 100.26 55.2199 100.4C55.2499 100.43 55.2899 100.46 55.3199 100.5C55.3199 100.64 55.3799 100.75 55.5199 100.8C55.8299 101.38 55.86 101.42 55.42 101.89L54.0599 102.55C53.1899 102.78 52.3899 103.24 51.5699 103.56C50.5299 103.98 49.5099 104.33 48.4099 104.65C48.3099 104.46 48.0799 104.59 47.9399 104.62C47.1099 104.83 46.27 105.12 45.45 105.34C45.14 105.42 44.8099 105.55 44.4599 105.64C44.3599 105.46 44.0999 105.54 43.9399 105.57C42.1599 105.82 40.3999 106.3 38.5799 106.14C36.1799 105.93 37.26 103.81 37.95 102.4L40.2099 102.48C40.1799 103 40.1699 103.3 40.4099 103.76C40.4399 103.82 40.6799 104.22 40.7099 104.25C41.3299 105.06 42.3299 104.76 43.1799 104.55C43.7999 104.4 44.4399 104.22 45.0599 104.06C45.1499 104.25 45.3899 104.13 45.5399 104.09C46.3099 103.91 47.2799 103.66 48.0399 103.43C48.9799 103.15 50.6999 102.66 51.3799 102.08C51.4299 102.04 51.5199 101.94 51.5799 101.88C51.7899 101.9 51.7999 101.89 51.7799 101.68C51.8099 101.64 51.8499 101.62 51.8799 101.58C52.5099 100.77 52.4799 99.8701 52.1799 98.9201C53.3899 98.3301 53.3699 98.6501 54.1499 99.4101H54.1299Z" fill="#F5BA82"/>
<path d="M41.79 30.45L42.63 29.86C43.77 28.67 45.14 27.78 46.12 26.44C47.21 24.96 47.9 23.13 47.91 21.27C48.19 21.32 48.91 21.18 49.1 21.31C49.29 21.44 49.12 22.7 49.08 22.98C48.57 26.51 45.66 30.5 41.78 30.45H41.79Z" fill="#F5BA82"/>
<path d="M39.42 75.8C39.56 73.95 39.56 72.04 38.53 70.42C39.75 69.67 40.68 71.75 40.79 72.7C40.91 73.8 40.56 75.36 39.42 75.8Z" fill="#BE2B12"/>
<path d="M42.38 72.93C42.18 71.33 41.67 69.51 40.01 68.88C41.27 67.98 42.05 68.62 42.69 69.8C43.29 70.9 43.48 72.07 42.38 72.93Z" fill="#BE2B12"/>
<path d="M92.7499 103.36C92.3199 102.89 90.7399 100.85 90.6899 100.33C90.6799 100.19 90.7499 100.18 90.8399 100.11C90.9399 100.04 91.9599 99.4401 92.0299 99.4201C92.2299 99.3601 92.2099 99.6601 92.2599 99.8001C92.0699 99.9001 92.1899 100.13 92.2299 100.27C92.4799 101.19 92.9299 102.29 93.0399 103.22C93.0799 103.56 92.9799 103.51 92.7499 103.36Z" fill="#F5BA82"/>
<path d="M44.1599 93.29C44.5899 93.39 45.0099 93.49 45.4399 93.59C45.3899 93.84 45.5299 93.8 45.7399 93.79L45.64 94.09C45.29 94.44 44.9599 94.75 44.4899 94.96C44.3499 94.97 43.84 94.57 43.67 94.48C43.91 94.39 43.5799 94.34 43.4999 94.3C43.1799 94.15 42.9099 94.02 42.5799 93.89C42.3099 93.78 41.9699 93.71 41.6899 93.59C41.7199 93.4 41.9899 93.38 42.0799 93.29L42.1799 93.19C42.2799 93.1 42.3299 93.01 42.4799 92.89C42.9899 92.92 43.4499 93.27 43.9399 93.37C44.0699 93.4 44.1499 93.28 44.1599 93.29Z" fill="#F5BA82"/>
<path d="M86.33 89.24C86.33 89.24 86.33 89.35 86.38 89.33C86.56 89.27 87.57 88.8 87.62 88.85C88 89.71 87.83 89.89 86.93 90.04C86.94 90.08 87.03 90.13 87.03 90.14C87.02 90.25 85.18 91.05 84.96 91.09C84.53 91.17 84.46 89.99 84.5 89.94C84.56 89.86 86.09 89.33 86.34 89.25L86.33 89.24Z" fill="#F5BA82"/>
<path d="M37.84 75.6001C37.74 76.6701 37.33 77.6601 36.43 78.2901C36.22 78.4301 35.2 79.0401 35.28 78.5301C35.28 78.4701 35.75 77.7401 35.84 77.5101C35.95 77.2301 36.16 76.1601 36.2 76.1001C36.26 76.0101 37.09 75.9201 37.32 75.8401C37.52 75.7701 37.63 75.6101 37.83 75.6101L37.84 75.6001Z" fill="#BE2B12"/>
<path d="M45.74 88.25C45.93 88.24 46.59 88.13 46.62 88.15C46.69 88.2 46.9 89.11 46.81 89.22C46.66 89.4 44.74 89.41 44.39 89.42C44.26 89.42 44.16 89.52 44.15 89.52C44.12 89.52 44.08 89.52 44.05 89.52C44.1 89.15 43.69 89.41 43.46 89.27C43.36 89.21 43.03 88.56 43.06 88.53C43.89 88.51 44.87 88.6 45.63 88.23C45.66 88.23 45.7 88.23 45.73 88.23L45.74 88.25Z" fill="#F5BA82"/>
<path d="M85.2399 92.5901C85.7699 92.5401 88.4199 91.1301 88.6899 91.3101C88.7399 91.3401 88.8999 91.9601 88.8999 92.0901C88.8799 92.1001 88.8299 92.0801 88.7999 92.0901C88.7299 92.1201 88.6699 92.1501 88.5999 92.1901C87.5999 92.7001 86.4799 92.9401 85.4899 93.4701C85.3399 93.4701 85.2299 92.7401 85.2399 92.5801V92.5901Z" fill="#F5BA82"/>
<path d="M86.81 87.4501C86.73 87.5801 84.14 88.6201 83.99 88.6301C83.65 88.6501 83.59 87.7401 83.67 87.6601C83.69 87.6401 83.95 87.6501 84.06 87.6101C84.46 87.4801 86.34 86.5401 86.46 86.5801C86.63 86.6301 86.91 87.2901 86.81 87.4501Z" fill="#F5BA82"/>
<path d="M46.5299 21.0701C46.3699 22.3001 46.0999 23.5201 45.4599 24.5901C45.3699 24.7501 45.2799 25.0701 45.0499 25.0201C45.3199 24.5201 45.3099 21.2101 45.4399 21.0701C45.4799 21.0301 46.3499 21.1001 46.5299 21.0701Z" fill="#F5BA82"/>
<path d="M47.1199 91.51C46.7799 91.63 47.0599 92.19 46.6799 92.2L43.5599 91.51L43.8599 91.0201C43.8599 91.0201 43.9299 91.0201 43.9599 91.0201C45.0699 91.0801 45.6599 91.2 46.8199 90.92C46.9899 90.88 47.1399 90.76 47.2099 90.98C47.2799 91.22 47.1299 91.37 47.1199 91.51Z" fill="#F5BA82"/>
<path d="M44.4499 105.63C42.7999 106.03 38.9199 106.74 37.4699 105.95C36.3199 105.33 37.3499 103.01 37.9399 102.22L40.6099 102.27C40.4299 102.77 40.3699 103.22 40.4099 103.75C40.1699 103.28 40.1899 102.99 40.2099 102.47L37.9499 102.39C37.2599 103.79 36.1799 105.91 38.5799 106.13C40.3999 106.29 42.1599 105.82 43.9399 105.56C44.0999 105.54 44.3599 105.46 44.4599 105.63H44.4499Z" fill="#F5BA82"/>
<path d="M76.85 47.64C77.01 47.04 77.09 46.44 77.05 45.81C77.09 45.48 77.82 46.2 77.74 46.69C77.71 46.86 76.99 47.78 76.85 47.63V47.64Z" fill="#BE2B12"/>
<path d="M51.3699 102.08C50.6899 102.67 48.9799 103.15 48.0299 103.43C47.2699 103.66 46.2999 103.91 45.5299 104.09C45.3899 104.12 45.1499 104.24 45.0499 104.06C47.1799 103.5 49.3299 102.89 51.3699 102.08Z" fill="#F5BA82"/>
<path d="M92.25 99.8101C92.69 101.08 93.12 102.53 93.24 103.86C92.99 103.89 92.9 103.54 92.75 103.37C92.97 103.52 93.08 103.57 93.04 103.23C92.93 102.3 92.48 101.2 92.23 100.28C92.19 100.14 92.07 99.9001 92.26 99.8101H92.25Z" fill="#F5BA82"/>
<path d="M43.86 91.01L43.56 91.5L46.68 92.19C47.06 92.19 46.77 91.63 47.12 91.5C47.12 91.51 47.2 91.57 47.19 91.63C47.15 91.85 47.02 92.05 47.01 92.28C45.75 92.4 44.54 91.9 43.37 91.5C43.37 91.26 43.64 91.02 43.86 91.01Z" fill="#F5BA82"/>
<path d="M45.7399 88.2501L46.7199 87.9501L47.0199 89.3301C46.0799 89.5901 45.1199 89.5401 44.1599 89.5301C44.1699 89.5301 44.2699 89.4301 44.3999 89.4301C44.7499 89.4201 46.6699 89.4001 46.8199 89.2301C46.9099 89.1201 46.6999 88.2101 46.6299 88.1601C46.5899 88.1301 45.9299 88.2401 45.7499 88.2601L45.7399 88.2501Z" fill="#F5BA82"/>
<path d="M54.13 99.41C53.34 98.66 53.37 98.33 52.16 98.92C52.46 99.87 52.49 100.77 51.86 101.58C52.23 100.7 52.29 99.72 51.96 98.82C52.31 98.75 52.93 98.35 53.27 98.43C53.53 98.5 53.91 99.2 54.13 99.4V99.41Z" fill="#F5BA82"/>
<path d="M45.64 88.25C44.88 88.61 43.9 88.53 43.07 88.55C43.04 88.58 43.37 89.23 43.47 89.29C43.71 89.43 44.12 89.17 44.06 89.54C43.85 89.55 43.57 89.55 43.4 89.41C43.35 89.37 42.73 88.39 42.78 88.35C43.74 88.39 44.69 88.32 45.64 88.25Z" fill="#F5BA82"/>
<path d="M43.17 7.44001H38.63C38.63 7.44001 38.78 7.35001 38.97 7.33001C39.64 7.27001 42.71 7.25001 43.18 7.44001H43.17Z" fill="#326EAA"/>
<path d="M18.18 91.1101L17.41 91.8001C16.19 92.5201 15.13 92.6301 13.73 92.5901L16.08 92.2201C16.89 92.0101 17.53 91.5501 18.17 91.1001L18.18 91.1101Z" fill="#FFCC29"/>
<path d="M46.82 90.91C45.66 91.19 45.07 91.07 43.96 91.01L46.82 90.91Z" fill="#F5BA82"/>
<path d="M43.17 104.55C42.32 104.76 41.32 105.06 40.7 104.25C41.44 104.89 42.29 104.49 43.17 104.55Z" fill="#F5BA82"/>
<path d="M11.96 92.4C12.28 92.21 12.81 92.37 13.2 92.4C13.39 92.42 13.6 92.28 13.54 92.59C12.98 92.56 12.51 92.49 11.96 92.39V92.4Z" fill="#FFCC29"/>
<path d="M85.2399 92.59C85.2399 92.53 85.2099 92.4401 85.2499 92.4101L88.5599 91.12C88.9199 91.01 89.1099 91.9901 88.8899 92.1001C88.8899 91.9601 88.7299 91.3501 88.6799 91.3201C88.4199 91.1301 85.7599 92.5401 85.2299 92.6001L85.2399 92.59Z" fill="#F5BA82"/>
<path d="M48.3999 104.65C47.4399 104.93 46.4299 105.27 45.4399 105.34C46.2599 105.12 47.0999 104.82 47.9299 104.62C48.0699 104.58 48.2999 104.45 48.3999 104.65Z" fill="#F5BA82"/>
<path d="M43.1699 9.30997C42.6599 9.47997 41.9999 9.41998 41.4399 9.40998C41.2699 9.40998 40.9999 9.46997 40.8999 9.30997C41.6499 9.28997 42.4199 9.32997 43.1699 9.30997Z" fill="#326EAA"/>
<path d="M55.42 101.88C54.68 102.68 52.6199 103.2 51.5699 103.56C52.3899 103.24 53.1899 102.78 54.0599 102.55L55.42 101.89V101.88Z" fill="#F5BA82"/>
<path d="M63.22 51.2C63.05 50.74 63.26 50.18 63.22 49.62C63.39 49.99 63.36 50.81 63.22 51.2Z" fill="#FFCC29"/>
<path d="M48.6999 89.8301C48.8099 90.4101 48.8199 90.9601 48.7999 91.5601L48.6999 91.5101C48.7599 90.9801 48.6599 90.3701 48.6999 89.8301Z" fill="#61A1D8"/>
<path d="M44.16 93.29C44.16 93.29 44.08 93.4 43.94 93.37C43.45 93.27 42.99 92.92 42.48 92.89C42.9 92.55 42.73 92.8201 43.15 92.9601C43.48 93.0701 43.84 93.12 44.16 93.29Z" fill="#F5BA82"/>
<path d="M5.54001 84.1L4.32001 83.81C3.95001 83.86 3.67 84.11 3.37 84.3C4.29 83.38 4.48001 83.62 5.54001 84.1Z" fill="#FFCC29"/>
<path d="M86.3299 89.24C86.6799 89.22 87.1599 88.73 87.4099 88.69C87.7099 88.64 88.1099 89.66 87.9999 89.82L87.0199 90.13C87.0199 90.13 86.93 90.08 86.92 90.03C87.83 89.88 87.9899 89.7 87.6099 88.84C87.5599 88.79 86.5599 89.26 86.3699 89.32C86.3099 89.34 86.3299 89.23 86.3199 89.23L86.3299 89.24Z" fill="#F5BA82"/>
<path d="M40.11 9.41007C40.11 9.41007 40.23 9.40006 40.21 9.51006C39.74 9.46006 39.15 9.64007 38.73 9.41007C39.19 9.39007 39.65 9.43007 40.11 9.41007Z" fill="#326EAA"/>
<path d="M45.44 93.5801C45.64 93.6201 45.83 93.6901 46.03 93.6801C45.98 93.8701 45.75 93.9601 45.63 94.0701L45.73 93.7701C45.52 93.7801 45.38 93.8201 45.43 93.5701L45.44 93.5801Z" fill="#F5BA82"/>
<path d="M63.22 48.93V49.03V49.43C63.21 49.35 63.06 49.19 63.12 49.03C62.96 49 62.86 49.14 62.73 49.23L63.17 48.74C63.26 48.74 63.21 48.87 63.22 48.94V48.93Z" fill="#F5BA82"/>
<path d="M54.53 99.8101C54.8 99.9601 55.15 100.06 55.22 100.4C55.08 100.25 54.73 100 54.53 99.8101Z" fill="#F5BA82"/>
<path d="M51.7599 101.68C51.7799 101.89 51.7699 101.9 51.5599 101.88C51.6199 101.82 51.7199 101.73 51.7599 101.68Z" fill="#FEFEFE"/>
<path d="M42.58 93.88C42.91 94.01 43.18 94.14 43.5 94.29C43.57 94.33 43.91 94.38 43.67 94.47C43.31 94.28 42.9 94.14 42.58 93.88Z" fill="#F5BA82"/>
<path d="M18.38 91.01C18.38 91.01 18.32 91.08 18.28 91.11V90.91L18.38 91.01Z" fill="#F5BA82"/>
<path d="M3.16992 84.59C3.16992 84.59 3.1899 84.49 3.2699 84.39L3.16992 84.59Z" fill="#F5BA82"/>
<path d="M55.5099 100.79C55.3699 100.75 55.3099 100.64 55.3099 100.49C55.4099 100.6 55.4399 100.66 55.5099 100.79Z" fill="#FEFEFE"/>
<path d="M88.8 92.1001L88.6 92.2001C88.67 92.1601 88.72 92.1401 88.8 92.1001Z" fill="#FEFEFE"/>
<path d="M63.22 49.0301V48.9301C63.22 48.9301 63.29 48.9701 63.22 49.0301Z" fill="#FFCC29"/>
<path d="M61.9299 50.02L62.3299 49.62C62.2099 49.73 62.0899 49.88 61.9299 50.02Z" fill="#F5BA82"/>
<path d="M62.53 49.4201C62.53 49.4201 62.59 49.3501 62.63 49.3201L62.53 49.4201Z" fill="#F5BA82"/>
<path d="M42.08 93.2901C42.08 93.2901 42.14 93.2201 42.18 93.1901L42.08 93.2901Z" fill="#FEFEFE"/>
<path d="M47.71 14.94V15.83V16.03V16.72C47.22 17.75 45.91 17.95 45.43 16.87C44.95 15.79 44.46 12.41 46.5 12.93C47.37 13.15 47.54 14.18 47.7 14.94H47.71Z" fill="#020201"/>
<path d="M47.71 15.8301V14.9401C47.76 15.1901 47.96 15.5801 47.71 15.8301Z" fill="#326EAA"/>
<path d="M47.71 16.72V16.03C47.93 16.23 47.81 16.51 47.71 16.72Z" fill="#326EAA"/>
<path d="M39.7899 23.16C40.4499 23.1 40.7799 23.74 40.6599 24.33C40.3699 25.87 37.9599 27.17 36.5099 27.29C35.7099 27.36 32.7899 27.42 32.9499 26.09C33.0699 25.09 34.2699 25.66 34.8299 25.71C36.2799 25.83 37.6799 25.55 38.6299 24.38C38.9499 23.98 39.1399 23.23 39.7899 23.17V23.16Z" fill="#020201"/>
<path d="M33.47 19.31C33.92 19.25 34.26 19.59 34.28 20.04C34.3 20.6 32.93 22.49 34.23 22.65C35.35 22.79 36.1 21.59 36.85 21.91C37.68 22.26 37.06 23.16 36.6 23.53C35.26 24.63 32.36 24.75 32.11 22.59C32.01 21.69 32.35 19.44 33.47 19.3V19.31Z" fill="#020201"/>
<path d="M30.3 17.63C32.26 17.18 32.28 21.03 30.62 20.63C29.44 20.34 29.14 17.89 30.3 17.63Z" fill="#020201"/>
<path d="M37.7699 16.46C38.5999 15.7 39.71 16.74 39.72 17.66C39.72 18.26 39.3599 19.27 38.6099 19.18C37.4599 19.03 36.9299 17.24 37.7699 16.46Z" fill="#020201"/>
</svg>
