<svg width="80" height="67" viewBox="0 0 80 67" fill="none" xmlns="http://www.w3.org/2000/svg">
<path d="M69.29 48.2899L69.84 52.6599C70.79 52.5399 71.78 52.66 72.74 52.58C73.45 52.52 75.92 51.4599 75.93 52.7999C75.93 53.9199 73.37 54.2599 72.47 54.3699C67.74 54.9199 64.09 52.8499 59.49 53.1099C54.89 53.3699 51.28 56.0699 46.38 55.0399C42.97 54.3199 39.77 52.15 36.37 51.53C32.91 50.9 29.75 52.1099 26.21 51.6699C21.67 51.1099 17.29 48.1199 12.93 47.4099C9.27999 46.8199 6.02001 48.4999 2.33001 47.7999C1.19001 47.5899 0.0499665 46.95 1.40997 45.95C2.32997 45.95 3.26 46.2199 4.19 46.2199C4.93 46.2199 5.92999 46.1 6.67999 46.03C8.09999 45.88 9.50999 45.57 10.93 45.4C14.21 37 17.65 28.66 21.07 20.32C21.74 19.28 24.86 18.7 26.04 18.26C29.7 13.32 33.35 8.35993 37.02 3.41993C37.53 2.73993 38.57 0.839934 39.37 0.669934C40.14 0.509934 40.49 1.03993 40.96 1.53993C43.51 4.24993 45.91 7.56995 48.34 10.44C49.03 11.26 49.6 11.58 50.08 12.64C50.87 14.4 51.48 16.39 52.23 18.19C52.38 18.54 53.3 20.74 53.43 20.83C53.56 20.92 53.57 20.85 53.66 20.78C54.07 20.5 54.66 19.8 55.09 19.44C55.82 18.82 56.93 17.59 57.9 18.32C61.09 23.71 64.07 29.2999 67.1 34.7999C67.8 38.5099 68.3 42.27 68.87 46.01C70.66 46.86 73.06 47.23 75.04 47.09C76.17 47.01 77.34 46.4699 78.45 46.4699C79.34 46.4699 79.56 47.2099 79.02 47.8499C78.64 48.2999 76.57 48.69 75.92 48.78C73.65 49.08 71.49 48.66 69.27 48.26L69.29 48.2899ZM37.25 31.9199C38.58 29.5199 39.98 27.1399 41.29 24.7299C42 23.4299 42.71 22.11 43.34 20.78C42.18 15.15 40.61 9.57996 39.4 3.94996L39.26 3.63997C38.25 5.03997 37.25 6.45998 36.21 7.83998C33.22 11.81 30.17 15.7699 27.09 19.6599C26.16 20.2899 25 20.46 24 20.96L37.24 31.9199H37.25ZM60.97 27.71C60.18 25.59 58.49 23.2599 57.45 21.1699C57.32 20.8999 57.16 20.5799 57.13 20.2899C56.97 20.2699 56.85 20.3799 56.73 20.4699C55.83 21.1499 54.98 22.04 54.05 22.7C54.01 22.81 54.11 23.03 54.14 23.15C54.74 25.19 55.98 27.3499 56.55 29.4199C56.63 29.7299 56.72 29.8799 56.65 30.2299C56.51 30.9899 55.45 32.93 55.06 33.75C53.23 37.61 51.08 42.54 48.91 46.13C48.58 46.67 48.26 47.43 47.51 47.32C46.6 47.18 47.23 45.75 47.44 45.2C48.54 42.37 50.4 39.32 51.74 36.52C52.81 34.29 53.83 32.03 54.78 29.75L48.25 13.01C46.71 11.22 45.05 9.52996 43.47 7.75996C42.86 7.07996 42.35 6.27996 41.64 5.69996L45.13 20.5999L45.09 21.7199C43.22 24.7899 41.71 28.0899 39.87 31.1699C39.41 31.9399 38.73 33.0999 38.15 33.75C36.4 35.7099 33.6 37.6199 31.62 39.4799C29.49 41.4799 29.34 42.25 28.27 44.9C27.59 46.58 26.95 48.29 26.34 50C29.67 50.2999 32.87 49.2399 36.22 49.6599C41.02 50.2499 44.77 53.83 49.66 53.5C52.3 53.32 54.83 51.82 57.49 51.57C59.94 46.12 62.63 40.8 65.26 35.44C65.28 35.21 64.65 34.0499 64.49 33.75C63.72 32.29 62.46 29.8899 61.52 28.6199C61.46 28.5399 61.49 28.4999 61.34 28.3499C61.27 28.1499 61.23 27.7599 60.98 27.8099C60.98 27.7799 60.98 27.7499 60.98 27.7199L60.97 27.71ZM24.45 49.45C25.65 46.81 26.56 43.97 27.75 41.34C28.46 39.77 29.13 39.27 30.36 38.13C32.17 36.46 34.18 34.98 35.81 33.13L22.3 21.9799L12.9 45.52C16.85 46.49 20.58 48.18 24.44 49.46L24.45 49.45ZM65.98 38.1799L59.54 51.33C62.46 51.18 65.29 51.9499 68.13 52.4899L65.98 38.1699V38.1799Z" fill="#020202"/>
<path d="M45.91 59.6298C45.55 59.9898 44.61 59.7898 44.16 59.6898C41.02 58.9898 38.07 56.9499 34.61 56.7099C31.57 56.4899 28.92 57.6798 26.02 57.5098C21.55 57.2598 17.35 54.0998 13.02 52.9698C10.22 52.2398 7.68001 52.7198 4.90001 53.2198C4.17001 53.1998 4.00999 52.1698 4.43999 51.7198C4.86999 51.2698 7.65 50.7799 8.39 50.7099C14.24 50.0999 17.99 53.3298 23.15 55.0998C27.68 56.6498 30.95 54.4398 35.32 54.9198C38.9 55.3098 42.2 57.4098 45.72 58.1198C46.2 58.3198 46.21 59.3198 45.9 59.6398L45.91 59.6298Z" fill="#020202"/>
<path d="M48.19 66.08C47.8 66.44 46.98 66.27 46.5 66.17C44.08 65.68 41.51 64.32 39.04 64.14C36.02 63.92 32.9 65.26 29.92 64.58C29.56 64.5 29.13 64.3 29.07 63.91C28.77 62.03 31.02 62.93 32.06 62.98C33.88 63.07 35.7 62.37 37.52 62.27C40.94 62.07 44.54 63.94 47.86 64.64C48.44 64.82 48.61 65.7 48.19 66.09V66.08Z" fill="#020202"/>
<path d="M69.53 58.25C70.1 58.95 69.15 59.69 68.44 59.74C65.15 59.99 61.88 57.9 58.24 58.31C55.99 58.56 53.75 59.85 51.7 60.09C50.92 60.18 49.82 60.18 50.07 59.09C50.16 58.71 50.86 58.49 51.22 58.36C53.21 57.64 56.82 56.51 58.87 56.43C61.93 56.32 64.77 57.66 67.82 57.95C68.32 58 69.18 57.8 69.54 58.24L69.53 58.25Z" fill="#020202"/>
<path d="M61.51 28.5999C62.45 29.8699 63.71 32.2699 64.48 33.7299C64.64 34.0299 65.27 35.1899 65.25 35.4199C62.62 40.7799 59.93 46.0999 57.48 51.5499C54.82 51.7999 52.29 53.2999 49.65 53.4799C44.76 53.8099 41.01 50.24 36.21 49.64C32.86 49.23 29.66 50.2799 26.33 49.9799C26.94 48.2699 27.58 46.5599 28.26 44.8799C29.33 42.2299 29.48 41.46 31.61 39.46C33.6 37.6 36.39 35.6899 38.14 33.7299C38.72 33.0899 39.4 31.92 39.86 31.15C41.71 28.07 43.22 24.77 45.08 21.7L45.12 20.58L41.63 5.67993C42.35 6.25993 42.85 7.05993 43.46 7.73993C45.03 9.49993 46.69 11.1899 48.24 12.9899L54.77 29.7299C53.82 31.9999 52.8 34.2699 51.73 36.4999C50.39 39.2899 48.53 42.3399 47.43 45.1799C47.22 45.7299 46.59 47.1599 47.5 47.2999C48.24 47.4099 48.57 46.6499 48.9 46.1099C51.06 42.5199 53.22 37.5899 55.05 33.7299C55.44 32.9099 56.49 30.97 56.64 30.21C56.7 29.87 56.62 29.72 56.54 29.4C55.98 27.33 54.73 25.1599 54.13 23.1299C54.09 23.0099 54 22.7899 54.04 22.6799C54.97 22.0099 55.82 21.13 56.72 20.45C56.84 20.36 56.96 20.25 57.12 20.27C57.16 20.57 57.31 20.89 57.44 21.15C58.49 23.25 60.18 25.5699 60.96 27.6899C60.83 27.6099 60.7 27.4999 60.6 27.3799C59.97 26.5599 59.61 25.3899 59.03 24.5599C58.54 23.8599 58.35 23.3699 57.95 22.5999C57.85 22.4099 57.7 22.2499 57.6 22.0599C57.43 21.7199 57.16 20.79 56.66 21.03C56.3 21.54 54.82 22.1699 54.65 22.6899C54.6 22.8499 54.56 22.97 54.65 23.14C55.35 25.14 56.54 27 56.8 29.14C57.51 29.85 56.83 30.2599 56.6 30.8199C56.32 31.5199 56.08 32.4199 55.76 33.1099C55.61 33.4299 55.29 33.7099 55.21 33.9099C54.17 36.4499 52.84 38.88 51.64 41.34C50.81 43.03 50.14 44.7599 49.29 46.4199C48.9 47.1899 48.62 47.2299 48.03 47.6699C47.76 47.8699 47.29 48.7599 47.35 49.0499C47.37 49.1599 47.82 49.16 47.89 49.33C47.91 49.42 47.44 49.8399 47.53 50.3099C47.57 50.5399 47.76 50.5099 47.84 50.6299C47.87 50.6699 48.09 51.2299 48.07 51.2499C47.34 51.1999 48.29 52.05 48.33 52.21C48.38 52.4 48.1 52.55 48.16 52.77C48.54 52.69 48.84 52.91 49.19 52.95C50.46 53.08 51.35 52.69 52.52 52.34C53.69 52 54.89 51.6299 56.08 51.4299C56.38 51.3799 57.09 51.43 57.33 51.15C57.38 51.09 57.87 49.9699 57.98 49.7399C58.43 48.7999 59 47.79 59.39 46.77C60.19 44.68 61.23 42.7299 62.23 40.7499C62.31 40.5899 62.27 40.3899 62.35 40.2399C62.45 40.0399 62.98 39.4299 63 39.3699C63.05 39.2299 62.98 38.95 63.02 38.9C63.05 38.87 63.22 38.93 63.29 38.84C63.36 38.75 63.42 38.3999 63.48 38.2399C63.8 37.4599 64.19 36.8099 64.53 35.9799C64.62 35.7599 64.81 35.58 64.88 35.34C64.64 34.99 64.59 34.5699 64.42 34.2199C64.27 33.8999 63.97 33.5699 63.86 33.2599C63.8 33.0799 63.86 32.8499 63.8 32.7399C63.75 32.6499 63.27 32.27 63.16 32.09C63.03 31.88 63.09 31.6099 63.06 31.5599C62.88 31.2799 62.47 30.9799 62.3 30.5399C62.24 30.3799 62.23 29.9999 62.2 29.9699C62.17 29.9399 61.99 29.9399 61.9 29.8699C61.76 29.7599 61.31 28.8299 61.5 28.6099L61.51 28.5999Z" fill="#FCFBF7"/>
<path d="M24.45 49.45C20.59 48.17 16.86 46.48 12.91 45.51L22.31 21.97L35.82 33.12C34.19 34.97 32.17 36.45 30.37 38.12C29.14 39.26 28.47 39.75 27.76 41.33C26.57 43.96 25.66 46.8 24.46 49.44L24.45 49.45Z" fill="#FFEAD6"/>
<path d="M37.25 31.9199L24.01 20.9599C25.01 20.4599 26.16 20.2999 27.1 19.6599C30.18 15.7699 33.23 11.8099 36.22 7.8399C37.26 6.4599 38.26 5.03989 39.27 3.63989L39.41 3.94989C40.62 9.57989 42.18 15.1399 43.35 20.7799C42.73 22.1199 42.01 23.4299 41.3 24.7299C39.99 27.1399 38.58 29.5099 37.26 31.9199H37.25Z" fill="#F6D1C2"/>
<path d="M61.51 28.6C61.32 28.82 61.77 29.75 61.91 29.86C62 29.93 62.18 29.92 62.21 29.96C62.24 29.99 62.25 30.3701 62.31 30.5301C62.48 30.9701 62.89 31.27 63.07 31.55C63.11 31.61 63.05 31.87 63.17 32.08C63.28 32.27 63.76 32.65 63.81 32.73C63.87 32.84 63.81 33.07 63.87 33.25C63.98 33.56 64.28 33.89 64.43 34.21C64.6 34.57 64.64 34.99 64.89 35.33C64.82 35.56 64.63 35.75 64.54 35.97C64.2 36.8 63.81 37.45 63.49 38.23C63.43 38.38 63.36 38.74 63.3 38.83C63.23 38.92 63.06 38.86 63.03 38.89C62.98 38.94 63.05 39.22 63.01 39.36C62.99 39.41 62.46 40.03 62.36 40.23C62.28 40.38 62.32 40.58 62.24 40.74C61.24 42.72 60.2 44.67 59.4 46.76C59.01 47.78 58.44 48.79 57.99 49.73C57.88 49.96 57.39 51.08 57.34 51.14C57.11 51.41 56.4 51.37 56.09 51.42C54.89 51.62 53.7 51.99 52.53 52.33C51.36 52.67 50.47 53.07 49.2 52.94C48.85 52.9 48.55 52.69 48.17 52.76C48.11 52.54 48.39 52.39 48.34 52.2C48.3 52.04 47.35 51.19 48.08 51.24C48.1 51.22 47.88 50.66 47.85 50.62C47.77 50.5 47.58 50.53 47.54 50.3C47.45 49.83 47.92 49.41 47.9 49.32C47.83 49.15 47.38 49.15 47.36 49.04C47.3 48.75 47.77 47.86 48.04 47.66C48.63 47.23 48.91 47.18 49.3 46.41C50.15 44.75 50.82 43.02 51.65 41.33C52.86 38.87 54.18 36.44 55.22 33.9C55.3 33.71 55.62 33.43 55.77 33.1C56.09 32.41 56.33 31.51 56.61 30.81C56.84 30.25 57.52 29.84 56.81 29.13C56.55 27 55.36 25.14 54.66 23.13C54.58 22.96 54.62 22.85 54.66 22.68C54.83 22.16 56.31 21.53 56.67 21.02C57.17 20.78 57.43 21.71 57.61 22.05C57.71 22.25 57.86 22.41 57.96 22.59C58.36 23.36 58.55 23.85 59.04 24.55C59.62 25.37 59.98 26.55 60.61 27.37C60.71 27.49 60.83 27.6 60.97 27.68C60.97 27.71 60.97 27.74 60.97 27.77C61.13 28.24 61.11 28.09 61.33 28.31C61.48 28.46 61.45 28.5 61.51 28.58V28.6Z" fill="#FEF9F2"/>
<path d="M65.98 38.1799L68.13 52.4999C65.29 51.9599 62.46 51.18 59.54 51.34L65.98 38.1899V38.1799Z" fill="#FFEAD6"/>
<path d="M60.97 27.7998C61.22 27.7498 61.25 28.1398 61.33 28.3398C61.12 28.1298 61.13 28.2698 60.97 27.7998Z" fill="#FCFBF7"/>
</svg>
