<svg width="103" height="102" viewBox="0 0 103 102" fill="none" xmlns="http://www.w3.org/2000/svg">
<path d="M6.21996 23.42C5.57996 21.99 7.40997 21.34 8.50997 21.31C11.46 21.23 13.72 21.87 16.29 23.21C23 23.29 29.76 23.15 36.44 23.1C37.65 23.1 38.83 23.24 40.02 23.17C40.2099 23.04 40.1 22.07 40.12 21.78C40.41 17.31 40.5599 8.99998 42.1699 5.06998C44.6999 -1.10002 58.1899 -1.18004 61.0399 4.70996C62.0399 6.77996 62.4 11.61 62.62 14.01C62.8 16 62.8199 18.05 63.0399 19.99C63.1299 20.76 63.1 21.6 63.26 22.33C64.56 22.52 65.8599 22.85 67.1699 23C71.0599 23.46 75.13 23.24 78.99 23.22C81.36 23.22 84.27 23.44 86.57 23.22C88.08 23.08 90.42 21.92 92.14 21.64C92.95 21.51 96.07 21.29 96.59 21.83C96.93 22.18 96.8099 23.31 96.9799 23.41C98.5099 23.53 100.44 23.08 101.71 24.17C103.53 25.74 102.42 27.28 101.64 28.9C101.46 29.27 101.41 29.7 101.21 30.07C100.2 32 95.8199 33.21 93.7899 33.52C91.1699 33.93 88.52 33.83 85.88 33.93C85.4 34.14 85.1499 36 84.9699 36.54C84.7599 37.15 83.96 39.11 83.4 39.34C82.96 39.52 82.37 39.38 81.89 39.43C80.72 39.56 79.5199 39.79 78.3499 39.94C74.7099 40.39 71.06 40.69 67.44 41.23C67.47 43.99 67.56 46.74 67.5499 49.5C67.5399 55.23 67.7599 61.11 67.8599 66.88C67.8699 67.59 68.12 68.1299 67.87 68.9099C67.76 69.2699 67.49 69.44 67.43 69.86C67.35 70.56 67.5299 71.24 67.5399 71.88C67.5599 72.84 67.5099 73.81 67.5399 74.77C67.5599 75.92 68.2799 78.67 66.5999 78.77C66.7699 83.26 67.57 87.71 67.87 92.19C68.62 92.08 70.58 91.9199 71.21 92.2899C71.91 92.7 71.8599 95.2499 71.9199 95.9699C72.0099 96.9899 72.21 98.16 72.24 99.17C72.28 100.22 72.25 100.92 71.01 101.04L31.51 100.98C31.2 100.76 30.9099 100.66 30.8599 100.24C30.7999 99.75 30.8399 98.84 30.8599 98.32C30.9199 96.92 31.07 94.8999 31.2999 93.5399C31.3499 93.2299 31.45 92.6199 31.66 92.4099C32.05 92.0299 34.11 92.17 34.69 92.3C34.94 89.62 35.0999 86.93 35.3299 84.25C35.5599 81.57 35.76 79.0699 35.97 76.4699C36.22 73.4399 36.7299 70.21 36.8299 67.2C36.8799 65.71 36.12 65.95 35.98 65.06C35.7 63.23 36.44 59.14 35.67 57.69C35.38 57.14 34.71 57.0799 34.68 56.2199C34.68 55.9899 34.79 55.79 34.79 55.58C34.85 50.8 34.98 46 34.99 41.2L34.8299 41.04C32.4999 40.68 30.16 40.55 27.82 40.26C26.28 40.07 24.76 39.68 23.22 39.53C22.41 39.45 21.4 39.65 20.6 39.37C19.56 39.01 18.6 36.48 18.21 35.47C18.09 35.16 18.01 34.29 17.7 34.16C17.17 33.94 15.02 34.13 14.26 34.09C11.05 33.92 4.12996 33.1 2.27996 30.18C1.95996 29.67 1.97996 29.14 1.77996 28.65C1.26996 27.4 0.469952 27.14 0.989952 25.4C1.23995 24.55 2.61995 23.42 3.48995 23.42H6.20995H6.21996ZM49.94 2.52997C49.18 2.65997 48.35 2.66996 47.59 2.95996C47.13 3.13996 46.5399 3.54997 46.0999 3.80997C46.0499 3.83997 45.98 3.85999 45.89 3.91999C45.85 3.94999 45.82 3.99997 45.78 4.02997C45.75 4.04997 45.6999 4.00997 45.6699 4.02997C45.3699 4.22997 45.39 4.22996 45.14 4.45996C45.1 4.48996 45.07 4.52998 45.03 4.56998C44.99 4.60998 44.9499 4.63997 44.9199 4.67997C44.8899 4.71997 44.84 4.74998 44.81 4.78998C44.78 4.82998 44.73 4.85997 44.7 4.89997C44.64 4.98997 44.62 5.06996 44.59 5.10996C43.64 6.57996 43.59 7.20998 43.52 8.94998C43.5 9.55998 43.49 10.27 43.52 10.87C43.69 13.77 44.82 18.38 45.75 21.16C45.96 21.8 46.4599 22.51 46.6699 23.13C46.7199 23.27 46.5899 23.44 46.6699 23.56C46.7099 23.62 46.87 23.65 46.94 23.74C47.02 23.84 47 24.02 47.15 24.14C48.07 24.85 53.39 24.83 54.63 24.59C55.42 24.44 55.7699 24.32 56.2299 23.63C57.2699 22.04 58.8199 16.83 58.9799 14.92C59.1299 14.8 59.06 14.62 59.09 14.49C59.09 14.46 59.09 14.42 59.09 14.38C59.1 14.29 59.17 14.18 59.2 13.95C59.2 13.91 59.2 13.88 59.2 13.84C59.32 13.7 59.4099 13.37 59.4099 13.2C59.4099 13.13 59.4099 13.06 59.4099 12.99L59.52 11.92C59.79 10.79 59.77 9.82998 59.74 8.65998C59.7 6.89998 59.57 5.91996 58.24 4.60996C57.34 3.71996 56.43 3.30996 55.15 2.95996C54.67 2.82996 54.4799 2.77997 53.9799 2.74997C53.9399 2.74997 53.91 2.74997 53.87 2.74997C53.87 2.69997 53.81 2.64999 53.76 2.63999C53.22 2.58999 52.66 2.53999 52.13 2.41999C52.04 2.39999 52.09 2.22996 51.9 2.20996C51.44 2.14996 50.4199 2.44998 49.9199 2.53998L49.94 2.52997ZM43.96 22.68L42.77 16.14L42.4699 15.96L42.1699 22.61C42.2799 22.95 42.73 22.69 42.95 22.68C43.29 22.67 43.63 22.68 43.96 22.68ZM60.49 17.35C60.2 17.3 60.31 17.4 60.25 17.58C60.07 18.16 60.0499 18.82 59.9099 19.38C59.6999 20.24 59.33 21.06 59.21 21.93L60.9199 22.04L60.49 17.35ZM12.2999 23.85C11.0199 23.38 9.38997 23.34 8.03997 23.32C7.98997 23.69 8.19997 24.12 8.56997 24.23C9.00997 24.37 10.99 24.36 11.19 24.7C11.42 25.09 11.16 26.2 10.65 26.3C10.36 26.36 9.22997 26.22 8.84997 26.18C7.17997 26 5.74997 25.54 4.12997 25.35C3.80997 25.54 3.16996 25.3 2.96996 25.43C2.78996 25.55 2.54995 26.04 2.60995 26.23C2.71995 26.58 5.23996 26.76 5.71996 26.86C6.26996 26.97 10.14 28.07 10.28 28.29C10.47 28.59 10.4199 29.42 10.0799 29.6C9.01995 30.16 4.28997 28.34 3.97997 28.64C3.95997 29.55 4.47997 29.54 5.03997 29.87C6.67997 30.86 9.11996 31.36 11.09 31.61C13.03 31.85 14.94 31.73 16.84 31.78C16.93 31.78 17.0199 31.94 17.0499 31.93C17.08 31.93 17.42 31.58 17.42 31.56C17.43 31.1 16.9499 29.77 16.8299 29.17C16.6099 28.02 16.51 26.85 16.25 25.72C15.3 25.28 14.4 24.74 13.47 24.26C13.1 24.07 12.7399 23.79 12.2999 23.83V23.85ZM90.34 24.28C90.28 24.3 90.2399 24.38 90.2299 24.39C90.1999 24.39 90.16 24.39 90.12 24.39C89.83 24.47 89.39 24.44 89.27 24.71C88.87 24.79 87.6899 24.85 87.4799 25.21C87.1699 25.73 87.05 28.07 86.9 28.89C86.78 29.52 86.2099 31.21 86.2899 31.69C86.3699 32.17 86.96 31.86 87.2999 31.85C89.46 31.78 90.96 31.83 93.09 31.46C95.22 31.09 96.9299 30.91 98.6599 29.68C98.8199 29.56 99.08 29.55 99.19 29.46C99.33 29.34 99.53 28.74 99.2999 28.66C99.1899 28.62 98.97 28.66 98.84 28.68L98.77 28.77C98.7 28.77 98.63 28.77 98.56 28.77C98.26 28.77 97.8699 28.95 97.5999 29.09C96.8299 29.19 96.3299 29.36 95.5999 29.49C94.8699 29.62 93.6799 29.96 93.1699 29.41C92.2399 28.4 94.1 27.85 94.7999 27.63C95.7199 27.34 97.39 26.86 98.28 26.74C98.83 26.67 99.49 26.77 100.09 26.63C100.19 26.61 100.76 26.44 100.79 26.42C100.82 26.4 100.82 25.94 100.79 25.84C100.66 25.17 98.84 25.42 98.31 25.5C97.12 25.67 95.86 26.1 94.65 26.21C94.3 26.24 92.5599 26.27 92.4099 26.1C92.1399 25.77 91.91 24.98 92.19 24.61C92.5 24.21 94.48 24.27 94.81 24.03C94.98 23.9 94.9099 23.63 94.9099 23.44C94.4099 23.52 93.88 23.6 93.39 23.7C92.39 23.9 91.33 24.05 90.33 24.3L90.34 24.28ZM59.21 59.25C59.21 59.36 59.21 59.46 59.21 59.57C59.21 59.68 59.21 59.78 59.21 59.89C59.21 59.96 59.21 60.0299 59.21 60.0999C59.21 60.3799 59.21 60.67 59.21 60.95C59.2 61.82 59.03 62.66 59.21 63.51C59.18 63.64 59.01 63.71 59.13 64.02C59.21 64.21 60.33 64.78 60.59 64.9C61.13 65.15 61.82 65.41 62.4 65.5399C63.26 65.9199 64.14 66.24 65 66.62C65.34 66.77 65.4999 67.12 65.9199 67.03C65.8899 64.99 65.87 62.94 65.82 60.89C65.58 51.88 65.44 42.71 65.28 33.65C65.28 33.26 65.28 32.87 65.28 32.48C65.27 31.62 65.3 30.75 65.28 29.92C65.26 28.69 65.2099 27.43 65.1699 26.19C65.1599 25.88 65.21 24.89 64.94 24.77C64.59 24.62 62.61 24.41 62.12 24.39C61.91 24.38 61.69 24.52 61.51 24.49C61.44 24.48 61.45 24.28 61.37 24.27C61.16 24.23 60.93 24.41 60.76 24.39C60.68 24.39 60.7499 24.19 60.5399 24.16C60.2999 24.13 58.7299 24 58.6699 24.06C58.6899 25.36 58.73 26.66 58.77 27.96C59.1 38.35 59.25 48.83 59.2 59.25H59.21ZM50.15 30.03C47.79 28.83 46.99 27.12 45.44 25.3C44.72 24.46 44.89 24.78 44 24.88C43.82 24.9 43.6 24.77 43.39 24.81C43.31 24.83 43.3699 25.01 43.1699 25.03C42.7699 25.09 42.4099 24.91 42.0999 24.92C41.5599 24.93 40.84 25.1 40.29 25.13C36.74 25.33 33.16 25.32 29.63 25.34C25.81 25.36 21.98 25.34 18.16 25.34C18.43 26.66 18.63 28 18.94 29.31C19.38 31.17 20.01 33.73 20.65 35.49C20.81 35.94 21.32 37 21.68 37.28C22.16 37.66 22.7499 37.45 23.3299 37.49C23.4999 37.5 23.66 37.5799 23.81 37.5999C24.94 37.7099 26.05 37.87 27.18 38.01C29.05 38.24 30.93 38.35 32.76 38.77C32.63 38.26 32.17 38.26 31.91 38.07C30.7 37.11 29.33 36.09 28.17 35.15L28.06 35.04C27.96 34.96 27.92 34.84 27.74 34.72L27.53 34.51C27.53 34.51 27.45 34.44 27.42 34.4C27.34 34.29 27.23 34.23 27.1 34.19C26.33 33.4 25.65 33.08 25.81 31.79C25.87 31.27 26.83 31.56 27.17 31.72C28.53 32.35 30.88 34.62 32.22 35.63C33.12 36.31 34.09 36.92 34.99 37.61C35.16 37.61 35.09 37.37 35.1 37.24C35.16 36.28 35.17 35.27 35.21 34.31C35.26 32.8 33.31 32.16 33.29 30.73C33.27 29.39 34.3199 29.55 35.1099 30.26C35.1499 30.29 35.18 30.33 35.22 30.37C37.06 32.13 37.98 33.98 40.44 35.33C44.17 37.38 49.2699 36.01 52.9099 34.36C54.0999 34.36 52.9499 35.64 52.5399 36.03C51.4399 37.1 49.2399 37.96 47.7899 38.26L45.12 38.37C45.05 38.37 44.9799 38.37 44.9099 38.37C44.1199 38.37 43.35 38.29 42.56 38.26L42.51 38.15C42.31 38.11 42.3399 38.18 42.3499 38.36C42.2399 38.91 42.4699 39.5 42.4699 40.01C42.4699 40.24 42.3499 40.47 42.3499 40.54V42.14C42.3499 42.37 42.3499 42.6 42.3499 42.83C42.3499 42.94 42.3499 43.04 42.3499 43.15C42.3499 43.86 42.3499 44.57 42.3499 45.28C41.9699 48.81 42.2 53.03 42.25 56.63C42.26 57.37 42.3599 58.9699 42.2199 59.5999C42.1899 59.7299 42.12 59.84 42.03 59.94C41.52 60.54 40.64 61.14 40.1 61.73C39.57 61.96 39.2 62.4 38.71 62.69C38.56 62.78 38.07 62.86 38 62.99C37.88 63.21 37.8799 64.06 38.0799 64.31C39.3699 65.14 40.53 66.13 41.85 66.94C46.12 69.54 50.43 71.2 55.15 72.83C58.59 74.02 62.0999 74.99 65.5399 76.2C65.8699 76.27 65.6 75.94 65.59 75.88C65.56 75.32 65.59 74.74 65.59 74.17C65.57 73.03 65.5299 71.9 65.4799 70.76C65.2299 70.52 63.6 71.82 63.28 72.02C63.01 72.18 61.98 72.82 61.78 72.87C61.23 73 60.44 72.83 60.14 72.31C59.67 71.51 61.23 70.91 61.69 70.44L64.2999 69.01L64.03 68.53L59.5399 66.7299C58.9699 66.3299 57.5299 65.9899 57.2999 65.3499C57.1499 64.9299 57.28 64.72 57.27 64.37C57.27 64.26 57.27 64.16 57.27 64.05C57.15 59.34 57.27 54.62 57.27 49.87C57.27 49.73 57.27 49.59 57.27 49.44C57.27 49.33 57.27 49.23 57.27 49.12C57.27 48.23 57.27 47.34 57.27 46.45C57.27 46.38 57.27 46.31 57.27 46.24C57.27 46.06 57.27 45.88 57.27 45.71C57.27 45.64 57.27 45.57 57.27 45.5C57.27 45.15 57.27 44.79 57.27 44.43C57.27 44.32 57.27 44.22 57.27 44.11C57.27 44.04 57.27 43.97 57.27 43.9C57.27 43.83 57.27 43.76 57.27 43.69C57.27 43.58 57.27 43.48 57.27 43.37C57.27 43.26 57.27 43.16 57.27 43.05C57.27 42.78 57.3499 42.37 57.1599 42.2C57.4399 38.32 57.11 34.41 56.94 30.53C56.89 29.4 56.99 28.41 56.84 27.27V25.88C56.69 25.85 56.7299 25.95 56.7299 26.09C56.7099 26.11 56.64 26.07 56.62 26.09C56.58 26.12 56.55 26.16 56.51 26.2C56.17 26.51 55.88 26.84 55.5499 27.16C55.4399 27.26 55.3299 27.38 55.2299 27.48C54.3699 28.29 53.6599 28.91 52.6699 29.51C51.6799 30.11 51.3499 30.43 50.1099 30.04L50.15 30.03ZM67.0999 25.34C66.9799 26.14 67.0999 27.55 67.0999 28.43C67.0999 29.14 67.0999 29.85 67.0999 30.56C67.1199 31.98 67.19 33.4 67.21 34.82C67.21 34.89 67.21 34.96 67.21 35.03C67.21 35.17 67.21 35.31 67.21 35.46C67.21 35.67 67.19 35.8899 67.21 36.0999C67.2 36.2399 67.1099 36.4 67.0999 36.53C67.0999 36.69 67.06 36.94 67.15 37.06C67.45 37.49 67.53 36.92 67.63 36.8C68.12 36.21 69.6 35.29 70.24 34.71C70.46 34.51 70.64 34.25 70.83 34.07L71.3599 33.54C71.7599 33.15 72.2 32.79 72.59 32.37C73.19 31.72 74.7 29.51 75.31 29.22C76.14 28.83 76.63 29.82 76.38 30.61C76.16 31.32 74.4899 33.44 73.9199 34.07C73.8899 34.11 73.85 34.14 73.81 34.18C73.57 34.45 73.23 34.75 72.96 35.03C72.93 35.07 72.8899 35.1 72.8499 35.14C71.6999 36.33 70.4599 37.45 69.2299 38.55C69.3099 38.65 70.54 38.57 70.78 38.55C71.79 38.47 72.85 38.21 73.82 38.12C74.4 38.07 75.05 38.17 75.63 38.12C75.92 38.1 76.1899 38.04 76.4799 38.01C77.2899 37.95 78.14 37.88 78.93 37.69C79.94 37.63 80.94 37.55 81.95 37.48C83.32 35.19 83.71 32.45 84.5499 29.93L85.43 25.32C81.44 25.24 77.42 25.43 73.43 25.32C72.45 25.29 71.43 25.26 70.44 25.21C69.88 25.19 67.51 24.85 67.19 25.04C67.09 25.11 67.11 25.21 67.09 25.31L67.0999 25.34ZM40.23 37.82C40.2 37.73 40.3 37.58 40.17 37.49C39.75 37.22 38.9 36.96 38.45 36.67C38.26 36.54 37.36 35.57 37.14 35.79C37.12 36.27 37.16 36.75 37.14 37.23C36.96 41.71 36.93 46.23 36.93 50.77L36.6 55.34C36.63 55.47 38.44 56 38.72 56.12C38.82 56.17 39.35 56.6299 39.41 56.6599C39.49 56.6999 40.14 56.62 40.34 56.9C40.28 56.46 40.4 56.01 40.41 55.59C40.43 54.9 40.34 54.2 40.34 53.49C40.34 48.81 40.39 44.1399 40.34 39.4699C40.34 38.7999 40.45 38.57 40.24 37.82H40.23ZM37.89 58.18C37.81 58.66 37.96 59.17 37.97 59.62C37.97 59.85 37.83 60.08 37.88 60.36C37.99 61 38.46 60.2699 38.68 60.0999C38.92 59.9199 39.79 59.42 39.78 59.19C39.76 58.95 38.88 58.82 38.62 58.67C38.29 58.47 38.27 58.13 37.88 58.18H37.89ZM38.74 67.67C38.5 67.89 38.54 68.23 38.53 68.52C38.5 69.08 38.55 69.66 38.53 70.2299C38.34 71.8699 38.23 73.57 38.1 75.24C38.07 75.6 38.02 75.95 37.99 76.31C37.98 76.49 38 76.67 37.99 76.84C37.97 77.17 37.9 77.48 37.88 77.8C37.81 78.95 37.81 80.07 37.77 81.21C37.43 81.13 37.58 81.46 37.56 81.74C37.44 83.34 37.34 84.9399 37.24 86.5399C37.2 87.2 37.02 87.89 37.03 88.57C37.03 88.68 37.03 88.78 37.03 88.89C36.87 89.05 36.94 89.24 36.92 89.42C36.86 90.0499 36.89 90.82 36.81 91.39C36.79 91.55 36.4 92.0799 36.72 92.2899C36.8 92.34 38.32 92.32 38.5799 92.31C38.7199 92.31 38.82 92.2 38.84 92.2C38.91 92.2 38.9799 92.2 39.0499 92.2C40.04 92.18 41.0399 92.2 42.0399 92.2C42.1099 92.2 42.18 92.2 42.25 92.2C42.75 92.2 43.25 92.2 43.74 92.2C50.5 92.14 57.52 91.98 64.26 92.2C64.68 92.21 65.71 92.38 65.71 91.83C65.71 91.18 65.44 90.1899 65.39 89.4799C65.17 86.78 64.98 84.11 64.64 81.43C64.62 80.97 64.66 80.4999 64.64 80.0399C64.64 79.8999 64.55 79.73 64.53 79.56C64.5 79.17 64.64 78.26 64.37 78.01C64.2 77.85 62.75 77.48 62.4 77.37C61.83 77.19 61.28 76.96 60.69 76.84C60.65 76.82 60.5799 76.77 60.4799 76.7299C60.4299 76.71 60.33 76.74 60.27 76.7299C60.19 76.71 60.1 76.6 59.95 76.62C59.79 76.64 59.85 76.76 59.84 76.88C59.78 77.49 59.83 78.33 59.84 78.96C59.86 79.77 59.91 80.5999 59.95 81.4099C59.97 81.9999 60.03 82.6199 60.06 83.2199C60.11 84.5799 60.25 85.97 60.28 87.32C60.29 87.99 60.4 90.3899 60.01 90.7899C59.43 91.3899 59.01 90.19 58.89 89.83C58.89 89.65 58.89 89.47 58.89 89.3C58.89 89.19 58.89 89.09 58.89 88.9799C58.86 88.5499 58.81 88.14 58.78 87.7C58.78 87.63 58.78 87.56 58.78 87.49C58.73 86.6 58.7099 85.71 58.6699 84.82C58.6499 84.43 58.6799 84.04 58.6699 83.65C58.6399 82.7 58.6 81.73 58.56 80.77C58.55 80.36 58.47 79.96 58.45 79.55C58.41 78.6 58.59 77.13 58.32 76.26C58.1 75.55 55.31 75.05 54.64 74.61L54.08 74.58C54.17 75.43 54.16 76.28 54.19 77.14C54.21 77.73 54.14 78.38 54.19 78.95C54.21 79.16 54.29 79.33 54.2999 79.38C54.2999 80.02 54.2999 80.66 54.2999 81.3V81.62C54.2999 81.69 54.2999 81.76 54.2999 81.83C54.2999 83.71 54.36 85.56 54.4 87.43C54.41 88.04 54.66 90.37 54.27 90.76C53.71 91.32 53.0899 90.56 53.0399 89.96C52.7799 84.66 52.85 79.3499 52.75 74.0399L48.01 72.56C47.93 72.74 47.9 72.93 47.89 73.13C47.75 75.03 47.88 77.33 47.89 79.27C47.58 79.53 47.89 80.08 47.89 80.28V84.86C47.89 85.22 47.79 85.84 47.78 86.3C47.75 87.36 47.85 88.51 47.78 89.56C47.77 89.78 47.67 90.66 47.62 90.78C47.43 91.19 46.84 90.9 46.64 90.64C46.59 90.57 46.3299 89.69 46.2899 89.5C46.3299 86.61 46.2299 83.7 46.2899 80.81C46.2999 80.23 46.39 79.58 46.4 78.95C46.4 78.88 46.4 78.81 46.4 78.74C46.43 77.57 46.47 76.3999 46.51 75.2199C46.53 74.3799 46.7 73.0399 46.62 72.2899C46.51 71.2399 45.73 71.48 45 71.14C44.8 71.05 43.39 70.13 43.32 70.21C43.32 71.24 43.14 72.27 43.21 73.3C43.08 73.42 43.1099 73.5699 43.0999 73.7299C43.0699 74.7199 43.03 75.7199 42.99 76.7199C42.97 77.2899 42.91 77.86 42.88 78.43C42.75 81.11 42.69 83.7999 42.56 86.4799C42.51 87.52 42.51 89.01 42.33 89.99C42.3 90.14 42.01 91 41.95 91.02C41.44 91.16 41.01 90.89 40.89 90.38C40.66 89.41 40.92 87.82 40.96 86.81C41.12 82.51 41.37 78.24 41.7 73.96L42.02 69.8C42 69.69 41.97 69.5799 41.91 69.4799C41.78 69.2599 41.78 69.33 41.59 69.27C41.56 69.26 41.52 69.27 41.48 69.27C41.45 69.23 41.42 69.1799 41.37 69.1599C41.34 69.1499 41.29 69.1699 41.26 69.1599C40.58 68.5099 39.62 68.22 38.88 67.65C38.7 67.49 38.76 67.6199 38.7 67.67H38.74ZM69.77 94L33.27 94.21C32.97 94.28 33.12 96.14 33.1 96.51C33.07 97.04 32.74 98.8299 32.98 99.1599C33.03 99.2299 33.07 99.24 33.15 99.2299L70.2 99.01L69.77 94Z" fill="#121212"/>
<path d="M21.6799 37.2801C21.3199 36.9901 20.8099 35.9401 20.6499 35.4901C20.0099 33.7201 19.3799 31.1701 18.9399 29.3101C18.6299 28.0001 18.4399 26.6601 18.1599 25.3401C21.9799 25.3401 25.7999 25.3501 29.6299 25.3401C33.1599 25.3201 36.7299 25.3401 40.2899 25.1301C40.8399 25.1001 41.5699 24.9301 42.0999 24.9201C42.4199 24.9201 42.7699 25.0901 43.1699 25.0301C43.3699 25.0001 43.3099 24.8201 43.3899 24.8101C43.5999 24.7701 43.8099 24.9001 43.9999 24.8801C44.8799 24.7901 44.7199 24.4601 45.4399 25.3001C46.9899 27.1301 47.7899 28.8301 50.1499 30.0301C51.0399 30.4801 51.2299 30.4601 52.0999 30.0101C52.2699 29.9201 52.7399 29.7301 52.7099 29.5001C53.6999 28.9001 54.4099 28.2901 55.2699 27.4701L55.5899 27.1501C55.9199 26.8301 56.2099 26.5001 56.5499 26.1901L56.6599 26.0801C56.6599 26.0801 56.7499 26.1001 56.7699 26.0801C56.7999 26.3701 56.7299 26.7201 56.7699 27.0001C56.7899 27.1501 56.8799 27.2401 56.8799 27.2501C57.0299 28.3901 56.9299 29.3801 56.9799 30.5101C57.1499 34.3901 57.4799 38.3001 57.1999 42.1801C57.1799 42.4301 57.1299 42.8701 57.3099 43.0301C57.3099 43.1401 57.3099 43.24 57.3099 43.35C57.1499 43.36 57.1499 43.6501 57.3099 43.6701C57.3099 43.7401 57.3099 43.8101 57.3099 43.8801L57.1999 44.04L57.3099 44.0901C57.3099 44.2001 57.3099 44.3 57.3099 44.41C57.1299 44.63 57.1299 45.24 57.3099 45.48C57.3099 45.55 57.3099 45.6201 57.3099 45.6901C57.0999 45.8401 56.9299 46.31 57.3099 46.22C57.3099 46.29 57.3099 46.3601 57.3099 46.4301C57.1199 47.0501 57.1899 47.8501 57.1999 48.5101C57.1999 48.6901 57.1299 48.9801 57.3099 49.0901C57.3099 49.2001 57.3099 49.3 57.3099 49.41C57.1399 49.45 57.1499 49.8001 57.3099 49.8401C57.3099 54.5901 57.1899 59.3101 57.3099 64.0201C56.9899 63.9301 56.9699 64.4201 57.3099 64.3401C57.3099 64.6901 57.1899 64.9101 57.3399 65.3201C57.5699 65.9601 59.0199 66.2901 59.5799 66.7001L64.0699 68.5001L64.3399 68.98L61.7299 70.41C61.2699 70.88 59.7099 71.4801 60.1799 72.2801C60.4799 72.8001 61.2699 72.9701 61.8199 72.8401C62.0199 72.7901 63.0499 72.1501 63.3199 71.9901C63.6499 71.7901 65.2799 70.49 65.5199 70.73C65.5599 71.87 65.6099 73.0001 65.6299 74.1401C65.4499 74.5701 65.4499 75.39 65.6299 75.85C65.6299 75.91 65.9099 76.2401 65.5799 76.1701C62.1399 74.9701 58.6299 73.9901 55.1899 72.8001C50.4799 71.1701 46.1599 69.5 41.8899 66.91C40.5699 66.11 39.4099 65.1101 38.1199 64.2801C37.9299 64.0401 37.9199 63.1901 38.0399 62.9601C38.1099 62.8301 38.6099 62.75 38.7499 62.66C39.2399 62.37 39.6099 61.9301 40.1399 61.7001C40.6799 61.1001 41.5599 60.51 42.0699 59.91C42.1599 59.81 42.2299 59.7001 42.2599 59.5701C42.3999 58.9401 42.2999 57.34 42.2899 56.6C42.2399 53 42.0099 48.7801 42.3899 45.2501C42.3899 45.2301 42.4899 45.0901 42.4999 44.8901C42.5399 44.3901 42.5399 43.6001 42.3899 43.1201C42.3899 43.0101 42.3899 42.9101 42.3899 42.8001C42.7099 42.8601 42.5999 42.6401 42.5999 42.4301C42.6499 41.1001 42.5599 39.7601 42.5999 38.4301C42.7099 38.3201 44.6399 38.5901 44.9499 38.3201C45.0199 38.3201 45.0899 38.3201 45.1599 38.3201C46.0399 38.6001 46.9599 38.3901 47.8299 38.2101C49.2799 37.9101 51.4799 37.0401 52.5799 35.9801C52.9799 35.5901 54.1399 34.3001 52.9499 34.3101C49.2999 35.9601 44.2099 37.3301 40.4799 35.2801C38.0199 33.9301 37.0999 32.0801 35.2599 30.3201L35.1499 30.2101C34.3599 29.5001 33.3199 29.3401 33.3299 30.6801C33.3499 32.1001 35.2999 32.7501 35.2499 34.2601C34.9299 34.2001 35.0399 34.4201 35.0399 34.6301C34.9999 35.6101 35.0699 36.5901 35.0399 37.5701C34.1499 36.8801 33.1799 36.2701 32.2699 35.5901C30.9299 34.5801 28.5799 32.3201 27.2199 31.6801C26.8799 31.5201 25.9199 31.2301 25.8599 31.7501C25.6999 33.0501 26.3799 33.3601 27.1499 34.1501C27.2399 34.2401 27.2499 34.3901 27.4699 34.3601C27.4999 34.4001 27.5499 34.4301 27.5799 34.4701C27.5999 34.5001 27.5499 34.6601 27.5799 34.6801C27.6099 34.7001 27.7599 34.6601 27.7899 34.6801C27.9699 34.8001 28.0099 34.9201 28.1099 35.0001C28.1499 35.0301 28.1799 35.0701 28.2199 35.1101C29.3799 36.0501 30.7399 37.0701 31.9599 38.0301C32.2099 38.2301 32.6699 38.22 32.8099 38.7301C30.9699 38.3101 29.0899 38.2 27.2299 37.97C26.0999 37.83 24.9899 37.6701 23.8599 37.5601C23.9199 37.2401 23.6999 37.35 23.4899 37.35C22.8999 37.33 22.3099 37.3501 21.7299 37.2401L21.6799 37.2801ZM50.7899 51.7801C49.3499 49.2801 48.0899 46.6901 46.8299 44.0701C46.5899 43.5801 45.9099 41.5001 45.3899 41.4601C45.1599 41.4401 45.0199 41.5001 45.0399 41.7601C46.2299 41.7201 45.1799 42.1101 45.1399 42.5601C45.2599 43.0201 45.3699 43.5901 45.4999 44.0301C46.6799 48.0301 48.8999 52.8101 51.0999 56.3401C52.1299 58.0001 52.7899 59.5101 54.6599 60.3301C54.7399 60.3701 54.7399 60.53 54.8099 60.54C55.2499 60.59 55.3899 60.2801 55.2299 59.8901C54.1199 57.9801 52.8299 56.1101 51.8699 54.1401C52.0999 53.8701 51.7099 53.6201 51.6699 53.5201C51.5799 53.3101 51.6099 52.7201 51.2299 52.7501C51.2199 52.7201 51.2399 52.6701 51.2299 52.6401C51.0799 52.2801 50.9999 52.12 50.7999 51.79L50.7899 51.7801ZM47.3099 56.97C46.3999 55.08 45.8499 53.1501 45.0499 51.2801C44.5499 50.1001 43.7099 49.5601 43.7399 51.3001C43.7399 51.8201 43.9699 52.5601 44.0999 53.0801C45.0999 57.2601 48.6399 64.8301 52.1199 67.3401C52.4699 67.6001 53.2199 68.2701 53.6999 68.2001C53.7299 68.2001 54.1799 67.7401 54.1899 67.7001C54.2899 67.2401 50.9799 63.2901 50.4899 62.5801C49.3199 60.8701 48.1899 58.7901 47.3099 56.9601V56.97Z" fill="#BBBBBB"/>
<path d="M41.3 69.1599C41.3 69.1599 41.37 69.1499 41.41 69.1599C41.43 69.2099 41.47 69.25 41.52 69.27C41.55 69.27 41.6 69.26 41.63 69.27C41.58 69.56 41.7 69.4899 41.95 69.4799C42.01 69.5799 42.04 69.6899 42.06 69.7999C41.74 69.7399 41.85 69.9599 41.85 70.1699C41.82 71.0699 41.69 71.95 41.64 72.84C41.62 73.17 41.56 73.68 41.75 73.96C41.42 78.24 41.17 82.5099 41.01 86.8099C40.97 87.8199 40.71 89.4099 40.94 90.3799C41.06 90.8899 41.5 91.16 42 91.02C42.05 91.01 42.35 90.1399 42.38 89.9899C42.56 89.0199 42.56 87.5199 42.61 86.4799C42.74 83.7999 42.79 81.0999 42.93 78.4299C43.25 78.4899 43.14 78.2699 43.14 78.0599C43.16 77.6599 43.22 77.0799 43.03 76.7199C43.07 75.7299 43.11 74.7299 43.14 73.7299C43.59 73.7899 43.25 73.3999 43.25 73.2999C43.18 72.2699 43.36 71.24 43.36 70.21C43.43 70.13 44.84 71.05 45.04 71.14C45.78 71.47 46.55 71.2399 46.66 72.2899C46.74 73.0399 46.58 74.3799 46.55 75.2199C46.23 75.1599 46.34 75.38 46.34 75.59C46.31 76.43 46.33 77.3099 46.34 78.1599C46.34 78.3399 46.27 78.6299 46.45 78.7399C46.45 78.8099 46.45 78.88 46.45 78.95C46.13 78.89 46.24 79.1099 46.24 79.3199C46.15 81.4699 45.91 87.7399 46.35 89.5099C46.4 89.6999 46.65 90.58 46.7 90.65C46.9 90.91 47.49 91.1999 47.68 90.7899C47.74 90.6699 47.83 89.7899 47.84 89.5699C47.91 88.5199 47.81 87.3799 47.84 86.3099C48.16 86.3699 48.05 86.1499 48.05 85.9399C48.14 83.7199 47.96 81.45 47.94 79.27C47.92 77.33 47.8 75.0399 47.94 73.1299C47.95 72.9299 47.98 72.7399 48.06 72.5599L52.8 74.0399C52.9 79.3399 52.82 84.66 53.09 89.96C53.14 90.56 53.76 91.3199 54.32 90.7599C54.7 90.3699 54.46 88.0399 54.45 87.4299C54.41 85.5599 54.35 83.71 54.35 81.83L54.46 81.6699L54.35 81.6199V81.2999C54.51 80.8899 54.51 80.1699 54.46 79.7399C54.44 79.5499 54.35 79.3999 54.35 79.3799C54.35 79.3399 54.26 79.16 54.24 78.95C54.56 79.01 54.45 78.79 54.45 78.58C54.46 78.23 54.46 77.8599 54.45 77.4999C54.45 77.2899 54.56 77.0699 54.24 77.1299C54.22 76.2699 54.22 75.4199 54.13 74.5699L54.69 74.5999C55.36 75.0399 58.15 75.5399 58.37 76.2499C58.64 77.1099 58.46 78.5899 58.5 79.5399C58.52 79.9499 58.59 80.3499 58.61 80.7599C58.43 80.8699 58.5 81.16 58.5 81.34C58.5 81.98 58.48 82.63 58.5 83.27C58.5 83.48 58.39 83.7 58.71 83.64C58.72 84.03 58.69 84.4199 58.71 84.8099C58.53 84.9199 58.6 85.21 58.6 85.39C58.6 86.02 58.46 86.9699 58.82 87.4699C58.82 87.5399 58.82 87.6099 58.82 87.6799C58.66 87.7899 58.67 88.91 58.71 88.96C58.72 88.98 58.86 88.95 58.92 88.96C58.92 89.06 58.92 89.17 58.92 89.28C58.65 89.44 58.87 89.6699 58.92 89.8099C59.04 90.1699 59.46 91.37 60.04 90.77C60.43 90.37 60.32 87.9699 60.31 87.2999C60.28 85.9499 60.14 84.56 60.09 83.2C60.28 82.8 60.21 82.1999 60.2 81.7599C60.2 81.5499 60.31 81.33 59.99 81.39C59.96 80.58 59.9 79.7499 59.88 78.9399C60.12 78.2199 59.92 77.35 59.99 76.59C60.14 76.57 60.23 76.68 60.31 76.7L60.47 76.8099L60.53 76.7C60.64 76.74 60.7 76.7899 60.74 76.8099C61.15 76.9599 61.57 77.1699 61.99 77.3199C62.11 77.3599 62.37 77.5399 62.44 77.3499C62.79 77.4599 64.25 77.8299 64.41 77.9899C64.68 78.2399 64.54 79.1499 64.57 79.5399C64.58 79.7099 64.67 79.88 64.68 80.02C64.52 80.22 64.54 80.7699 64.57 81.0499C64.59 81.2399 64.68 81.3699 64.68 81.4099C65.02 84.0899 65.21 86.76 65.43 89.46C65.49 90.17 65.75 91.1599 65.75 91.8099C65.75 92.3699 64.72 92.1999 64.3 92.1799C57.56 91.9499 50.54 92.1099 43.78 92.1799C43.42 91.9999 42.67 91.9999 42.29 92.1799C42.22 92.1799 42.15 92.1799 42.08 92.1799C41.35 91.9899 40.45 92.0599 39.68 92.0699C39.5 92.0699 39.21 91.9999 39.1 92.1799C39.03 92.1799 38.96 92.1799 38.89 92.1799C38.91 92.1599 38.87 92.0699 38.84 92.0699C38.72 92.0699 38.84 92.2299 38.89 92.1799C38.88 92.1799 38.77 92.2899 38.63 92.2899C38.37 92.2899 36.85 92.32 36.77 92.27C36.45 92.06 36.83 91.5399 36.86 91.3699C36.94 90.7999 36.91 90.03 36.97 89.4C37.43 89.47 37.09 88.9999 37.08 88.8699C37.08 88.7599 37.08 88.6599 37.08 88.5499C37.42 88.6099 37.26 88.3799 37.29 88.1799C37.36 87.6699 37.54 87.01 37.29 86.53C37.39 84.93 37.49 83.3299 37.61 81.7299C37.94 81.8099 37.81 81.48 37.82 81.2C37.86 80.05 37.86 78.9399 37.93 77.7899C38.28 77.9199 38.2 77.05 38.04 76.83C38.05 76.65 38.03 76.4699 38.04 76.2999C38.39 76.4299 38.31 75.4599 38.15 75.2299C38.27 73.5599 38.39 71.8599 38.58 70.2199C38.58 70.1999 38.68 70.0599 38.69 69.8599C38.72 69.4799 38.74 68.82 38.58 68.52C38.6 68.23 38.55 67.8899 38.79 67.6699C39.63 68.1099 40.49 68.7799 41.35 69.1599H41.3Z" fill="#BBBBBB"/>
<path d="M59.21 59.2499C59.26 48.8299 59.11 38.3499 58.78 27.9599C58.74 26.6599 58.6999 25.3599 58.6799 24.0599C58.7499 23.9899 60.3099 24.1299 60.5499 24.1599C60.7499 24.1899 60.69 24.3799 60.77 24.3899C60.94 24.4099 61.1699 24.2299 61.3799 24.2699C61.4599 24.2799 61.44 24.4799 61.52 24.4899C61.71 24.5199 61.9199 24.3799 62.1299 24.3899C62.6099 24.4199 64.6 24.6199 64.95 24.7699C65.23 24.8899 65.1699 25.8799 65.1799 26.1899C64.7999 26.4599 65.07 26.8399 65.08 27.1999C65.1 27.9799 65.05 28.7699 65.08 29.5499C65.08 29.7599 64.9699 29.9799 65.2899 29.9199C65.3099 30.7499 65.2799 31.6199 65.2899 32.4799C65.1099 32.7299 65.1099 33.3799 65.2899 33.6499C65.4499 42.7099 65.58 51.8799 65.83 60.8899C65.89 62.9299 65.9099 64.9799 65.9299 67.0299C65.5099 67.1199 65.3499 66.7699 65.0099 66.6199C64.1499 66.2399 63.2699 65.9199 62.4099 65.5399C61.9499 65.3399 61.49 65.1399 61.03 64.9499C60.92 64.8999 60.6599 64.6899 60.5999 64.8999C60.3399 64.7799 59.22 64.2099 59.14 64.0199C59.01 63.7199 59.1899 63.6499 59.2199 63.5099C59.3899 62.7599 59.3999 61.7199 59.2199 60.9499C59.2199 60.6699 59.2199 60.3799 59.2199 60.0999L59.33 59.9399L59.2199 59.8899C59.2199 59.7799 59.2199 59.6799 59.2199 59.5699C59.5399 59.6599 59.5599 59.1699 59.2199 59.2499H59.21Z" fill="#BBBBBB"/>
<path d="M49.9399 2.53002C50.4399 2.45002 51.4599 2.14004 51.9199 2.20004C52.1099 2.23004 52.06 2.39003 52.15 2.41003C52.68 2.53003 53.24 2.58003 53.78 2.63003C53.8 2.68003 53.84 2.73001 53.89 2.74001C53.92 2.74001 53.9599 2.74001 53.9999 2.74001C54.2899 2.88001 54.8999 3.14004 55.1699 2.95004C56.4499 3.30004 57.3599 3.71003 58.2599 4.60003C59.5899 5.91003 59.7199 6.89002 59.7599 8.65002C59.7899 9.81002 59.8099 10.78 59.5399 11.91C59.3899 12.53 59.4499 12.44 59.4299 12.98C59.4299 13.05 59.4299 13.12 59.4299 13.19C59.0799 13.1 59.2399 13.53 59.2199 13.83C59.2199 13.87 59.2199 13.9 59.2199 13.94L59.1099 14.37C59.1099 14.37 59.1099 14.44 59.1099 14.48C58.7799 14.67 59.0099 14.88 58.9999 14.91C58.8399 16.82 57.2899 22.03 56.2499 23.62C55.7999 24.31 55.44 24.43 54.65 24.58C53.41 24.82 48.0899 24.83 47.1699 24.13C47.0199 24.01 47.04 23.84 46.96 23.73C46.88 23.62 46.7299 23.61 46.6899 23.55C46.6199 23.43 46.7399 23.26 46.6899 23.12C46.4899 22.51 45.99 21.79 45.77 21.15C44.84 18.36 43.7099 13.76 43.5399 10.86C43.7199 10.32 43.7199 9.47003 43.5399 8.94003C43.5999 7.20003 43.6599 6.57003 44.6099 5.10003L44.7199 4.89004C44.7199 4.89004 44.8 4.82002 44.83 4.78002L44.9399 4.67004C44.9399 4.67004 45.0099 4.60002 45.0499 4.56002L45.1599 4.45004C45.4099 4.22004 45.3899 4.22001 45.6899 4.02001L45.7399 4.12002L45.7899 4.02001C45.7899 4.02001 45.86 3.94003 45.9 3.91003L46.1099 3.80001C46.5499 3.54001 47.1399 3.12004 47.5999 2.95004C47.6899 3.14004 47.9499 3.00003 48.0999 2.97003C48.7099 2.85003 49.38 2.75002 49.95 2.53002H49.9399ZM52.9199 15.64C53.6499 15.63 54.2599 15.91 54.4999 14.92C54.8699 13.33 54.32 11.77 54.46 10.19C54.6 9.99003 56.9399 10.32 57.5099 10.15C57.9899 10.01 58.6599 9.30001 58.5699 8.77001C58.5499 8.64001 58.14 7.99004 58.03 7.92004C57.49 7.53004 53.21 7.53004 52.71 7.92004C52.04 8.44004 52.5699 10.11 52.5999 10.79C52.6299 11.39 52.6899 12.83 52.5999 13.35C52.5799 13.44 52.5199 13.62 52.4399 13.62H50.7899C50.8799 13.09 50.7 12.46 50.7 11.97C50.7 11 51.2399 8.72001 50.5699 8.02001C50.2999 7.74001 49.6299 7.67004 49.2399 7.64004C48.3999 7.58004 46.0199 7.54004 45.3499 7.92004C44.8799 8.19004 44.7099 8.79001 44.8099 9.30001C44.8299 9.42001 45.4299 9.96003 45.5599 10.04C46.2699 10.42 48.13 10.16 48.96 10.1C48.95 11.6 48.3899 13.33 48.7499 14.79C48.4999 14.87 48.7599 15.1 48.8599 15.22C48.8799 15.24 49.1599 15.53 49.1799 15.54C49.5899 15.84 49.88 15.95 50.4 15.86C50.49 15.84 50.5499 15.76 50.5599 15.76C50.9199 15.7 51.13 15.67 51.52 15.65C51.86 15.83 52.5899 15.83 52.9099 15.65L52.9199 15.64ZM50.89 17.35C50.35 17.38 49.5999 17.5 49.0599 17.59C48.7699 17.64 47.3999 17.85 47.6099 18.29C47.6199 18.32 47.9099 18.29 47.7999 18.63L47.59 18.42C47.43 19.01 47.82 19.31 48.39 19.38C49.45 19.51 50.6099 19.11 51.8599 19.27C51.8899 19.27 52.0199 19.37 52.2199 19.38C52.5599 19.41 53.19 19.43 53.46 19.27C53.53 19.27 53.6099 19.26 53.6699 19.27C53.6799 19.32 53.73 19.37 53.78 19.38C54.34 19.45 55.0199 19.65 55.4399 19.17C55.6499 18.92 55.6799 18.2 55.4999 17.95C55.4199 17.84 53.1899 17.37 52.9299 17.35C52.3499 17.17 51.48 17.17 50.9 17.35H50.89Z" fill="#BBBBBB"/>
<path d="M67.0999 25.34C67.1199 25.24 67.0999 25.14 67.1999 25.07C67.5199 24.87 69.8899 25.21 70.4499 25.24C71.4399 25.28 72.4599 25.32 73.4399 25.35C77.4299 25.45 81.4499 25.26 85.4399 25.35L84.5599 29.96C83.7199 32.48 83.33 35.22 81.96 37.51C80.95 37.58 79.9499 37.66 78.9399 37.72C78.2499 37.76 77.5499 37.78 76.8599 37.83C76.6599 37.84 76.4299 37.72 76.4899 38.04C76.1999 38.06 75.9299 38.12 75.6399 38.15C75.2099 37.95 74.58 38.04 74.09 38.04C74.01 38.04 73.5399 37.99 73.8199 38.15C72.8499 38.23 71.79 38.49 70.78 38.58C70.54 38.6 69.3199 38.68 69.2299 38.58C70.4699 37.48 71.6999 36.36 72.8499 35.17L72.96 35.06C73.23 34.78 73.5699 34.47 73.8099 34.21L73.9199 34.1C74.4799 33.47 76.1599 31.35 76.3799 30.64C76.6299 29.85 76.1399 28.86 75.3099 29.25C74.6999 29.54 73.2 31.74 72.59 32.4C72.2 32.82 71.7599 33.18 71.3599 33.57C71.1899 33.74 71 33.94 70.83 34.1C70.64 34.28 70.4599 34.54 70.2399 34.74C69.5999 35.32 68.1199 36.24 67.6299 36.83C67.5299 36.95 67.45 37.53 67.15 37.09C67.06 36.97 67.0899 36.71 67.0999 36.56C67.5499 36.62 67.21 36.23 67.21 36.13C67.19 35.92 67.21 35.7 67.21 35.49C67.38 35.45 67.37 35.1 67.21 35.06C67.21 34.99 67.21 34.92 67.21 34.85C67.39 34.74 67.3199 34.45 67.3199 34.27C67.3299 33.17 67.3499 32.05 67.3199 30.96C67.3199 30.75 67.4299 30.53 67.1099 30.59C67.1099 29.88 67.1099 29.17 67.1099 28.46C67.2999 27.69 67.2299 26.76 67.2199 25.95C67.2199 25.77 67.2899 25.48 67.1099 25.37L67.0999 25.34Z" fill="#BBBBBB"/>
<path d="M69.77 94L70.2 99.01L33.15 99.23C33.07 99.24 33.03 99.23 32.98 99.16C32.74 98.82 33.07 97.03 33.1 96.51C33.12 96.14 32.98 94.28 33.27 94.21L69.77 94Z" fill="#BBBBBB"/>
<path d="M12.3 23.8499C12.64 23.9699 13.07 24.2399 13.42 24.3799L13.47 24.2798C14.4 24.7598 15.3 25.2998 16.25 25.7398C16.51 26.8598 16.6 28.0299 16.83 29.1898C16.95 29.7898 17.43 31.1198 17.42 31.5798C17.42 31.6098 17.07 31.9499 17.05 31.9499C17.02 31.9499 16.93 31.7998 16.84 31.7998C14.94 31.7498 13.03 31.8699 11.09 31.6299C9.12999 31.3799 6.68001 30.8899 5.04001 29.8899C4.48001 29.5499 3.97001 29.5599 3.98001 28.6599C4.29001 28.3599 9.01998 30.1698 10.08 29.6198C10.42 29.4398 10.47 28.6098 10.28 28.3098C10.14 28.0798 6.26 26.9899 5.72 26.8799C5.24 26.7799 2.70998 26.6098 2.60998 26.2498C2.54998 26.0598 2.79 25.5699 2.97 25.4499C3.17 25.3099 3.81 25.5498 4.13 25.3698C5.75 25.5598 7.18 26.0199 8.85 26.1999C9.22 26.2399 10.36 26.3799 10.65 26.3199C11.16 26.2199 11.42 25.1198 11.19 24.7198C10.99 24.3798 9.01 24.3798 8.57 24.2498C8.2 24.1398 7.99001 23.7098 8.04001 23.3398C9.39001 23.3698 11.03 23.4098 12.3 23.8698V23.8499Z" fill="#BBBBBB"/>
<path d="M40.34 53.4899C40.34 54.1999 40.43 54.8999 40.41 55.5899C40.4 56.0099 40.28 56.4599 40.34 56.8999C40.14 56.6299 39.49 56.6999 39.41 56.6599C39.35 56.6299 38.82 56.1699 38.72 56.1199C38.45 55.9899 36.63 55.4699 36.6 55.3399L36.93 50.7699C36.93 46.2299 36.96 41.7099 37.14 37.2299C37.16 36.7499 37.12 36.2699 37.14 35.7899C37.35 35.5699 38.26 36.5399 38.45 36.6699C38.9 36.9599 39.76 37.2199 40.17 37.4899C40.3 37.5799 40.21 37.7299 40.23 37.8199L40.34 53.4899Z" fill="#BBBBBB"/>
<path d="M90.3399 24.2799C91.3399 24.0299 92.3999 23.8799 93.3999 23.6799C93.8899 23.5799 94.4199 23.5099 94.9199 23.4199C94.9199 23.5999 94.9799 23.8799 94.8199 24.0099C94.4999 24.2599 92.5099 24.1899 92.1999 24.5899C91.9099 24.9599 92.1399 25.7599 92.4199 26.0799C92.5599 26.2499 94.3099 26.2199 94.6599 26.1899C95.8699 26.0799 97.1299 25.6499 98.3199 25.4799C98.8399 25.3999 100.66 25.1499 100.8 25.8199C100.82 25.9199 100.82 26.3799 100.8 26.3999C100.78 26.4199 100.2 26.5899 100.1 26.6099C99.4999 26.7499 98.8399 26.6499 98.2899 26.7199C97.3999 26.8399 95.7299 27.3199 94.8099 27.6099C94.1099 27.8299 92.2499 28.3899 93.1799 29.3899C93.6799 29.9399 94.9099 29.5899 95.6099 29.4699C96.3099 29.3499 96.8399 29.1699 97.6099 29.0699C97.8799 29.0299 98.6199 29.1399 98.5699 28.7499C98.6399 28.7499 98.7099 28.7499 98.7799 28.7499C98.8599 28.7499 99.1699 29.0599 99.3099 28.6399C99.5399 28.7199 99.3399 29.3199 99.1999 29.4399C99.0899 29.5299 98.8399 29.5499 98.6699 29.6599C96.9299 30.8899 95.1799 31.0799 93.0999 31.4399C91.0199 31.7999 89.4699 31.7699 87.3099 31.8299C86.9599 31.8399 86.3799 32.1699 86.2999 31.6699C86.2199 31.1699 86.7999 29.4999 86.9099 28.8699C87.0599 28.0499 87.1799 25.7099 87.4899 25.1899C87.6999 24.8299 88.8799 24.7699 89.2799 24.6899C89.5699 24.6299 89.9299 24.6199 90.1299 24.3699C90.1599 24.3699 90.1999 24.3699 90.2399 24.3699L90.3499 24.2599L90.3399 24.2799Z" fill="#BBBBBB"/>
<path d="M43.96 22.68C43.62 22.68 43.28 22.67 42.95 22.68C42.72 22.68 42.2799 22.95 42.1699 22.61L42.4699 15.96L42.77 16.14L43.96 22.68Z" fill="#BBBBBB"/>
<path d="M60.4899 17.35L60.9199 22.04L59.21 21.93C59.33 21.05 59.6999 20.24 59.9099 19.38C60.0499 18.82 60.0599 18.16 60.2499 17.58C60.3099 17.4 60.1999 17.3 60.4899 17.35Z" fill="#BBBBBB"/>
<path d="M37.8899 58.1799C38.2799 58.1199 38.2999 58.4699 38.6299 58.6699C38.8899 58.8199 39.7699 58.9499 39.7899 59.1899C39.8099 59.4199 38.9299 59.9199 38.6899 60.0999C38.4699 60.2699 37.9899 60.9999 37.8899 60.3599C37.8399 60.0699 37.9799 59.8399 37.9799 59.6199C37.9699 59.1699 37.8099 58.6599 37.8999 58.1799H37.8899Z" fill="#BBBBBB"/>
<path d="M40.34 53.4901L40.23 37.8201C40.44 38.5701 40.32 38.79 40.33 39.47C40.39 44.15 40.33 48.8201 40.33 53.4901H40.34Z" fill="#BBBBBB"/>
<path d="M46.4199 78.9699C46.4099 79.5999 46.3199 80.25 46.3099 80.83C46.2599 83.73 46.3599 86.63 46.3099 89.52C45.8699 87.75 46.12 81.49 46.2 79.33C46.2 79.12 46.0899 78.9 46.4099 78.96L46.4199 78.9699Z" fill="#BBBBBB"/>
<path d="M44.9199 38.35C44.6099 38.62 42.6799 38.35 42.5699 38.46C42.5299 39.79 42.6199 41.13 42.5699 42.46C42.5699 42.67 42.6799 42.89 42.3599 42.83C42.3599 42.6 42.3599 42.37 42.3599 42.14V40.54C42.3599 40.47 42.4799 40.24 42.4799 40.01C42.4799 39.5 42.2599 38.91 42.3599 38.36L42.5699 38.25C43.3599 38.28 44.1299 38.35 44.9199 38.36V38.35Z" fill="#BBBBBB"/>
<path d="M47.91 79.29C47.93 81.47 48.1 83.7401 48.02 85.9601C48.02 86.1701 48.13 86.3901 47.81 86.3301C47.82 85.8701 47.92 85.2501 47.92 84.8901V80.3101C47.92 80.1101 47.61 79.55 47.92 79.3L47.91 79.29Z" fill="#BBBBBB"/>
<path d="M42.0499 69.8001L41.73 73.9601C41.55 73.6801 41.6 73.1701 41.62 72.8401C41.67 71.9501 41.7999 71.0701 41.8299 70.1701C41.8299 69.9601 41.7199 69.7401 42.0399 69.8001H42.0499Z" fill="#BBBBBB"/>
<path d="M67.0999 30.5701C67.4199 30.5101 67.3099 30.7301 67.3099 30.9401C67.3499 32.0401 67.3299 33.1501 67.3099 34.2501C67.3099 34.4301 67.38 34.7201 67.2 34.8301C67.19 33.4101 67.11 31.9801 67.09 30.5701H67.0999Z" fill="#BBBBBB"/>
<path d="M46.52 75.24C46.49 76.41 46.44 77.58 46.41 78.76C46.23 78.65 46.3 78.36 46.3 78.18C46.3 77.33 46.27 76.46 46.3 75.61C46.3 75.4 46.19 75.18 46.51 75.24H46.52Z" fill="#BBBBBB"/>
<path d="M65.2899 29.9299C64.9699 29.9899 65.08 29.7699 65.08 29.5599C65.05 28.7799 65.1 27.9899 65.08 27.2099C65.08 26.8599 64.8 26.48 65.18 26.2C65.22 27.44 65.2599 28.6999 65.2899 29.9299Z" fill="#BBBBBB"/>
<path d="M37.25 86.54C37.49 87.02 37.31 87.68 37.25 88.19C37.22 88.39 37.39 88.62 37.04 88.56C37.04 87.89 37.21 87.2 37.25 86.53V86.54Z" fill="#BBBBBB"/>
<path d="M35.22 34.3C35.19 35.26 35.1699 36.27 35.1099 37.23C35.1099 37.36 35.17 37.6 35 37.6C35.03 36.62 34.96 35.6401 35 34.6601C35 34.4501 34.8899 34.2301 35.2099 34.2901L35.22 34.3Z" fill="#BBBBBB"/>
<path d="M54.2 77.1599C54.52 77.0999 54.41 77.32 54.41 77.53C54.42 77.88 54.42 78.2499 54.41 78.6099C54.41 78.8199 54.52 79.0399 54.2 78.9799C54.15 78.4099 54.22 77.7499 54.2 77.1699V77.1599Z" fill="#BBBBBB"/>
<path d="M58.78 87.5001C58.42 87.0001 58.56 86.05 58.56 85.42C58.56 85.24 58.49 84.9501 58.67 84.8401C58.7 85.7301 58.73 86.6201 58.78 87.5101V87.5001Z" fill="#BBBBBB"/>
<path d="M59.21 63.5099C59.03 62.6599 59.2 61.82 59.21 60.95C59.39 61.72 59.38 62.7499 59.21 63.5099Z" fill="#BBBBBB"/>
<path d="M78.93 37.71C78.14 37.9 77.29 37.97 76.48 38.03C76.42 37.7 76.64 37.8299 76.85 37.8199C77.54 37.7799 78.24 37.76 78.93 37.71Z" fill="#BBBBBB"/>
<path d="M58.6799 83.66C58.3599 83.72 58.4699 83.5 58.4699 83.29C58.4499 82.65 58.4699 82 58.4699 81.36C58.4699 81.18 58.4 80.89 58.58 80.78C58.62 81.74 58.6499 82.71 58.6899 83.66H58.6799Z" fill="#BBBBBB"/>
<path d="M67.1 28.4298C67.1 27.5498 66.98 26.1398 67.1 25.3398C67.28 25.4498 67.21 25.7399 67.21 25.9199C67.21 26.7299 67.29 27.6598 67.1 28.4298Z" fill="#BBBBBB"/>
<path d="M42.0499 92.1899C41.0599 92.1899 40.0599 92.1699 39.0599 92.1899C39.1699 92.0099 39.46 92.08 39.64 92.08C40.41 92.08 41.3099 91.9999 42.0399 92.1899H42.0499Z" fill="#BBBBBB"/>
<path d="M47.8 38.24C46.94 38.42 46.01 38.63 45.13 38.35L47.8 38.24Z" fill="#BBBBBB"/>
<path d="M49.9399 2.53003C49.3699 2.76003 48.7 2.85003 48.09 2.97003C47.95 3.00003 47.68 3.14004 47.59 2.95004C48.35 2.66004 49.1699 2.65002 49.9399 2.52002V2.53003Z" fill="#BBBBBB"/>
<path d="M57.2899 49.1199C57.1099 49.0099 57.1799 48.7199 57.1799 48.5399C57.1799 47.8799 57.0999 47.08 57.2899 46.46C57.2899 47.35 57.2899 48.2399 57.2899 49.1299V49.1199Z" fill="#BBBBBB"/>
<path d="M21.6799 37.28C22.2699 37.38 22.8499 37.37 23.4399 37.39C23.6499 37.39 23.8699 37.28 23.8099 37.6C23.6599 37.59 23.4999 37.51 23.3299 37.49C22.7499 37.44 22.1499 37.66 21.6799 37.28Z" fill="#BBBBBB"/>
<path d="M59.8499 78.9698C59.8299 78.3398 59.7899 77.4999 59.8499 76.8899C59.8599 76.7699 59.8 76.6499 59.96 76.6299C59.9 77.3899 60.0999 78.2599 59.8499 78.9799V78.9698Z" fill="#BBBBBB"/>
<path d="M43 76.73C43.19 77.09 43.12 77.67 43.11 78.07C43.11 78.28 43.22 78.5 42.9 78.44C42.93 77.87 42.98 77.31 43.01 76.73H43Z" fill="#BBBBBB"/>
<path d="M52.71 29.5C52.75 29.73 52.27 29.93 52.1 30.01C51.23 30.46 51.04 30.48 50.15 30.03C51.39 30.42 51.73 30.09 52.71 29.5Z" fill="#BBBBBB"/>
<path d="M42.37 45.2799C42.37 44.5699 42.37 43.8599 42.37 43.1499C42.53 43.6299 42.53 44.4199 42.48 44.9199C42.46 45.1199 42.37 45.2599 42.37 45.2799Z" fill="#BBBBBB"/>
<path d="M59.96 81.4199C60.28 81.3599 60.1699 81.5799 60.1699 81.7899C60.1799 82.2299 60.2499 82.8399 60.0599 83.2299C60.0399 82.6299 59.98 81.9999 59.95 81.4199H59.96Z" fill="#BBBBBB"/>
<path d="M54.3099 81.3199C54.3099 80.6799 54.3099 80.0399 54.3099 79.3999C54.3099 79.4199 54.3999 79.5699 54.4199 79.7599C54.4599 80.1899 54.4599 80.9099 54.3099 81.3199Z" fill="#BBBBBB"/>
<path d="M75.6299 38.14C75.0399 38.19 74.3999 38.09 73.8199 38.14C73.5299 37.99 73.9999 38.03 74.0899 38.03C74.5699 38.03 75.1999 37.94 75.6399 38.14H75.6299Z" fill="#BBBBBB"/>
<path d="M43.5399 10.8399C43.5099 10.2399 43.5199 9.52992 43.5399 8.91992C43.7199 9.44992 43.7199 10.2999 43.5399 10.8399Z" fill="#BBBBBB"/>
<path d="M65.61 75.8799C65.43 75.4299 65.43 74.6099 65.61 74.1699C65.61 74.7399 65.58 75.3099 65.61 75.8799Z" fill="#BBBBBB"/>
<path d="M38.53 70.23C38.55 69.67 38.5 69.09 38.53 68.52C38.69 68.83 38.68 69.49 38.64 69.86C38.62 70.06 38.53 70.2 38.53 70.22V70.23Z" fill="#BBBBBB"/>
<path d="M58.8899 88.9899C58.8299 88.9899 58.6899 89.0099 58.6799 88.9899C58.6399 88.9399 58.6299 87.82 58.7899 87.71C58.8099 88.14 58.8599 88.5599 58.8999 88.9899H58.8899Z" fill="#BBBBBB"/>
<path d="M55.16 2.95001C54.89 3.14001 54.28 2.86999 53.99 2.73999C54.5 2.76999 54.69 2.82001 55.16 2.95001Z" fill="#BBBBBB"/>
<path d="M98.5499 28.75C98.5999 29.14 97.86 29.03 97.59 29.07C97.86 28.93 98.2499 28.76 98.5499 28.75Z" fill="#BBBBBB"/>
<path d="M59.4199 12.9699C59.4399 12.4399 59.38 12.5299 59.53 11.8999L59.4199 12.9699Z" fill="#BBBBBB"/>
<path d="M43.75 92.1899C43.25 92.1899 42.75 92.1899 42.26 92.1899C42.64 92.0099 43.4 92.0099 43.75 92.1899Z" fill="#BBBBBB"/>
<path d="M37.99 76.8401C38.16 77.0601 38.23 77.93 37.88 77.8C37.9 77.48 37.96 77.1701 37.99 76.8401Z" fill="#BBBBBB"/>
<path d="M38.1 75.24C38.26 75.47 38.35 76.43 37.99 76.31C38.01 75.96 38.07 75.6 38.1 75.24Z" fill="#BBBBBB"/>
<path d="M64.65 81.42C64.65 81.42 64.55 81.25 64.54 81.06C64.51 80.78 64.49 80.24 64.65 80.03C64.67 80.49 64.63 80.96 64.65 81.42Z" fill="#BBBBBB"/>
<path d="M56.8699 27.2599C56.8699 27.2599 56.78 27.1599 56.76 27.0099C56.72 26.7299 56.8 26.3799 56.76 26.0899C56.76 25.9499 56.7099 25.8399 56.8699 25.8799V27.2699V27.2599Z" fill="#BBBBBB"/>
<path d="M65.2899 33.66C65.1099 33.39 65.1099 32.74 65.2899 32.49C65.2899 32.88 65.2899 33.27 65.2899 33.66Z" fill="#BBBBBB"/>
<path d="M37.78 81.2099C37.78 81.4999 37.89 81.8199 37.57 81.7399C37.59 81.4599 37.45 81.1299 37.78 81.2099Z" fill="#BBBBBB"/>
<path d="M57.2899 45.4899C57.1099 45.2499 57.1099 44.6399 57.2899 44.4199C57.2899 44.7699 57.2899 45.1299 57.2899 45.4899Z" fill="#BBBBBB"/>
<path d="M37.0299 88.8899C37.0299 89.0199 37.38 89.4999 36.92 89.4199C36.94 89.2399 36.8599 89.0399 37.0299 88.8899Z" fill="#BBBBBB"/>
<path d="M99.3 28.65C99.16 29.07 98.85 28.7601 98.77 28.7601L98.84 28.6701C98.97 28.6601 99.19 28.61 99.3 28.65Z" fill="#BBBBBB"/>
<path d="M57.29 43.0399C57.12 42.8799 57.17 42.4399 57.18 42.1899C57.37 42.3699 57.28 42.7799 57.29 43.0399Z" fill="#BBBBBB"/>
<path d="M57.29 46.2399C56.91 46.3199 57.08 45.86 57.29 45.71C57.29 45.89 57.29 46.0699 57.29 46.2399Z" fill="#BBBBBB"/>
<path d="M59.4199 13.1899C59.4199 13.3599 59.3199 13.6899 59.2099 13.8299C59.2299 13.5299 59.0699 13.0999 59.4199 13.1899Z" fill="#BBBBBB"/>
<path d="M13.4699 24.28L13.42 24.38C13.06 24.25 12.6399 23.98 12.2999 23.85C12.7399 23.81 13.1099 24.09 13.4699 24.28Z" fill="#BBBBBB"/>
<path d="M90.13 24.3799C89.92 24.6299 89.57 24.6399 89.28 24.6999C89.4 24.4299 89.84 24.4599 90.13 24.3799Z" fill="#BBBBBB"/>
<path d="M43.22 73.3201C43.22 73.4201 43.57 73.8101 43.11 73.7501C43.11 73.5901 43.08 73.4501 43.22 73.3201Z" fill="#BBBBBB"/>
<path d="M67.21 36.1099C67.21 36.2099 67.56 36.5999 67.1 36.5399C67.1 36.4099 67.19 36.2499 67.21 36.1099Z" fill="#BBBBBB"/>
<path d="M58.9999 14.89C58.9999 14.89 58.7799 14.66 59.1099 14.46C59.0799 14.59 59.1599 14.76 58.9999 14.89Z" fill="#BBBBBB"/>
<path d="M57.2899 64.0399C57.2899 64.1499 57.2899 64.2499 57.2899 64.3599C56.9499 64.4399 56.9699 63.9499 57.2899 64.0399Z" fill="#BBBBBB"/>
<path d="M59.21 59.2501C59.55 59.1701 59.53 59.6601 59.21 59.5701C59.21 59.4601 59.21 59.3601 59.21 59.2501Z" fill="#BBBBBB"/>
<path d="M58.89 89.85C58.84 89.71 58.62 89.4801 58.89 89.3201C58.89 89.5001 58.89 89.68 58.89 89.85Z" fill="#BBBBBB"/>
<path d="M41.9399 69.48C41.6899 69.48 41.5699 69.55 41.6199 69.27C41.8099 69.34 41.8099 69.27 41.9399 69.48Z" fill="#BBBBBB"/>
<path d="M67.21 35.47C67.21 35.33 67.21 35.19 67.21 35.04C67.37 35.07 67.38 35.42 67.21 35.47Z" fill="#BBBBBB"/>
<path d="M42.58 38.24L42.37 38.35C42.36 38.17 42.33 38.1001 42.53 38.1401L42.58 38.25V38.24Z" fill="#BBBBBB"/>
<path d="M59.1 14.3599L59.21 13.9299C59.19 14.1499 59.12 14.2699 59.1 14.3599Z" fill="#BBBBBB"/>
<path d="M62.4099 77.3701C62.3399 77.5601 62.08 77.3801 61.96 77.3401C61.54 77.1901 61.12 76.9801 60.71 76.8301C61.29 76.9501 61.8499 77.18 62.4199 77.36L62.4099 77.3701Z" fill="#BBBBBB"/>
<path d="M57.2899 49.8599C57.1299 49.8299 57.1199 49.4799 57.2899 49.4299C57.2899 49.5699 57.2899 49.7099 57.2899 49.8599Z" fill="#BBBBBB"/>
<path d="M27.76 34.72C27.76 34.72 27.57 34.75 27.55 34.72C27.53 34.69 27.57 34.54 27.55 34.51L27.76 34.72Z" fill="#BBBBBB"/>
<path d="M57.2899 43.6799C57.1299 43.6699 57.1299 43.3799 57.2899 43.3599C57.2899 43.4699 57.2899 43.5699 57.2899 43.6799Z" fill="#BBBBBB"/>
<path d="M62.41 65.5399C61.83 65.4099 61.13 65.1499 60.6 64.8999C60.66 64.6899 60.92 64.8999 61.03 64.9499C61.49 65.1399 61.95 65.3399 62.41 65.5399Z" fill="#BBBBBB"/>
<path d="M44.6 5.07986C44.6 5.07986 44.64 4.95987 44.71 4.86987L44.6 5.07986Z" fill="#BBBBBB"/>
<path d="M59.21 60.0999C59.21 60.0299 59.21 59.9599 59.21 59.8899L59.3199 59.9399L59.21 60.0999Z" fill="#BBBBBB"/>
<path d="M27.44 34.3999C27.22 34.4299 27.21 34.2799 27.12 34.1899C27.25 34.2299 27.36 34.2999 27.44 34.3999Z" fill="#BBBBBB"/>
<path d="M41.3 69.1599C40.44 68.7799 39.58 68.0999 38.74 67.6699C38.8 67.6099 38.74 67.4899 38.92 67.6499C39.66 68.2299 40.62 68.5199 41.3 69.1599Z" fill="#BBBBBB"/>
<path d="M54.3099 81.8499C54.3099 81.7799 54.3099 81.7099 54.3099 81.6399L54.4199 81.6899L54.3099 81.8499Z" fill="#BBBBBB"/>
<path d="M46.1 3.80005L45.89 3.91006C45.98 3.85006 46.05 3.83005 46.1 3.80005Z" fill="#BBBBBB"/>
<path d="M57.2899 44.1099L57.1799 44.0599L57.2899 43.8999C57.2899 43.9699 57.2899 44.0399 57.2899 44.1099Z" fill="#BBBBBB"/>
<path d="M60.49 76.7299L60.43 76.84L60.27 76.7299C60.34 76.7399 60.43 76.7099 60.48 76.7299H60.49Z" fill="#BBBBBB"/>
<path d="M56.5499 26.1901C56.5499 26.1901 56.6199 26.1201 56.6599 26.0801L56.5499 26.1901Z" fill="#BBBBBB"/>
<path d="M72.86 35.15C72.86 35.15 72.93 35.08 72.97 35.04L72.86 35.15Z" fill="#BBBBBB"/>
<path d="M70.83 34.08C71 33.92 71.1899 33.72 71.3599 33.55L70.83 34.08Z" fill="#BBBBBB"/>
<path d="M55.27 27.4699C55.37 27.3699 55.48 27.2499 55.59 27.1499L55.27 27.4699Z" fill="#BBBBBB"/>
<path d="M35.22 30.35C35.22 30.35 35.15 30.28 35.11 30.24L35.22 30.35Z" fill="#BBBBBB"/>
<path d="M41.5099 69.27C41.5099 69.27 41.4199 69.2099 41.3999 69.1599C41.4399 69.1799 41.4799 69.23 41.5099 69.27Z" fill="#BBBBBB"/>
<path d="M45.03 4.54993C45.03 4.54993 45.1 4.47994 45.14 4.43994L45.03 4.54993Z" fill="#BBBBBB"/>
<path d="M53.88 2.73987C53.83 2.72987 53.79 2.67988 53.77 2.62988C53.82 2.62988 53.87 2.68987 53.88 2.73987Z" fill="#BBBBBB"/>
<path d="M90.24 24.38C90.24 24.38 90.28 24.29 90.35 24.27L90.24 24.38Z" fill="#BBBBBB"/>
<path d="M45.6699 4.02002C45.6699 4.02002 45.75 4.04002 45.78 4.02002L45.7299 4.12003L45.6799 4.02002H45.6699Z" fill="#BBBBBB"/>
<path d="M73.8199 34.1901C73.8199 34.1901 73.8899 34.1201 73.9299 34.0801L73.8199 34.1901Z" fill="#BBBBBB"/>
<path d="M28.19 35.15C28.19 35.15 28.12 35.08 28.08 35.04L28.19 35.15Z" fill="#BBBBBB"/>
<path d="M44.8199 4.75992C44.8199 4.75992 44.8999 4.6899 44.9299 4.6499L44.8199 4.75992Z" fill="#BBBBBB"/>
<path d="M47.3099 56.9701C48.1899 58.8001 49.3099 60.8701 50.4899 62.5901C50.9799 63.3001 54.2899 67.2501 54.1899 67.7101C54.1899 67.7401 53.7399 68.2001 53.6999 68.2101C53.2199 68.2901 52.4699 67.6101 52.1199 67.3501C48.6399 64.8301 45.0999 57.2601 44.0999 53.0901C43.9699 52.5701 43.7499 51.8301 43.7399 51.3101C43.7099 49.5701 44.5499 50.1101 45.0499 51.2901C45.8499 53.1601 46.3999 55.0901 47.3099 56.9801V56.9701Z" fill="#121212"/>
<path d="M51.8499 54.13C52.8099 56.1 54.1 57.97 55.21 59.88C55.38 60.27 55.2399 60.58 54.7899 60.53C54.7199 60.53 54.72 60.36 54.64 60.32C52.76 59.5 52.11 57.99 51.08 56.33C48.88 52.8 46.6599 48.02 45.4799 44.02C45.3499 43.58 45.2399 43.0099 45.1199 42.5499C45.1699 42.0999 46.21 41.71 45.02 41.75C45 41.48 45.1399 41.43 45.3699 41.45C45.8899 41.49 46.5799 43.57 46.8099 44.06C48.0699 46.68 49.33 49.27 50.77 51.77L51.2 52.62C51.2 52.62 51.19 52.6999 51.2 52.7299C51.41 53.1999 51.61 53.65 51.84 54.12L51.8499 54.13Z" fill="#121212"/>
<path d="M51.21 52.7399C51.59 52.6999 51.56 53.3 51.65 53.51C51.69 53.61 52.0799 53.86 51.8499 54.13C51.6299 53.67 51.42 53.2199 51.21 52.7399Z" fill="#BBBBBB"/>
<path d="M51.21 52.6401L50.78 51.79C50.97 52.13 51.05 52.2801 51.21 52.6401Z" fill="#BBBBBB"/>
<path d="M38.85 92.1901C38.8 92.2401 38.6799 92.0901 38.7999 92.0801C38.8399 92.0801 38.88 92.1601 38.85 92.1901Z" fill="#BBBBBB"/>
<path d="M48.76 14.7901C48.41 13.3301 48.9599 11.6001 48.9699 10.1001C48.1399 10.1601 46.28 10.4201 45.57 10.0401C45.43 9.9701 44.84 9.42008 44.82 9.30008C44.72 8.79008 44.8899 8.1901 45.3599 7.9201C46.0199 7.5401 48.4099 7.58011 49.2499 7.64011C49.6399 7.67011 50.31 7.74008 50.58 8.02008C51.25 8.72008 50.71 11.0001 50.71 11.9701C50.71 12.4601 50.8899 13.0901 50.7999 13.6201H52.45C52.52 13.6201 52.5899 13.4401 52.6099 13.3501C52.7099 12.8301 52.6499 11.3801 52.6099 10.7901C52.5699 10.1101 52.0499 8.4401 52.7199 7.9201C53.2199 7.5301 57.4999 7.5301 58.0399 7.9201C58.1499 8.0001 58.56 8.64008 58.58 8.77008C58.67 9.30008 58 10.0101 57.52 10.1501C56.95 10.3201 54.6099 9.99009 54.4699 10.1901C54.3299 11.7701 54.88 13.3301 54.51 14.9201C54.28 15.9101 53.6699 15.6201 52.9299 15.6401C52.4699 15.6401 51.9999 15.6201 51.5399 15.6401C51.1499 15.6601 50.94 15.6901 50.58 15.7501C50.1 15.8101 49.6499 15.6501 49.1899 15.5401C49.1699 15.5301 48.8899 15.2401 48.8699 15.2201C48.8399 15.0801 48.8 14.9401 48.76 14.7901Z" fill="#121212"/>
<path d="M50.89 17.3499C51.33 17.3199 52.43 17.3199 52.92 17.3499C53.18 17.3699 55.41 17.8399 55.49 17.9499C55.66 18.1999 55.64 18.9199 55.43 19.1699C55.01 19.6499 54.33 19.4499 53.77 19.3799C53.76 19.3299 53.71 19.2799 53.66 19.2699C53.6 19.2599 53.52 19.2699 53.45 19.2699C52.92 19.2499 52.38 19.2799 51.85 19.2699C50.6 19.1099 49.44 19.5099 48.38 19.3799C47.81 19.3099 47.43 19.0099 47.58 18.4199L47.79 18.6299C47.9 18.2999 47.61 18.3199 47.6 18.2899C47.39 17.8599 48.75 17.6499 49.05 17.5899C49.59 17.4899 50.35 17.3799 50.88 17.3499H50.89Z" fill="#121212"/>
<path d="M52.92 17.3498C52.44 17.3198 51.34 17.3198 50.89 17.3498C51.46 17.1698 52.33 17.1698 52.92 17.3498Z" fill="#BBBBBB"/>
<path d="M53.45 19.26C53.18 19.42 52.56 19.4 52.21 19.37C52.01 19.35 51.88 19.26 51.85 19.26C52.38 19.27 52.92 19.24 53.45 19.26Z" fill="#BBBBBB"/>
<path d="M52.92 15.64C52.6 15.82 51.88 15.82 51.53 15.64C51.99 15.62 52.46 15.64 52.92 15.64Z" fill="#BBBBBB"/>
<path d="M50.5699 15.75C50.5699 15.75 50.4999 15.84 50.4099 15.85C49.8799 15.94 49.5899 15.84 49.1899 15.53C49.6499 15.65 50.09 15.8 50.58 15.74L50.5699 15.75Z" fill="#BBBBBB"/>
<path d="M48.87 15.21C48.78 15.1 48.52 14.87 48.76 14.78C48.79 14.92 48.83 15.06 48.87 15.21Z" fill="#BBBBBB"/>
<path d="M53.77 19.37C53.77 19.37 53.6699 19.31 53.6599 19.26C53.7099 19.27 53.75 19.32 53.77 19.37Z" fill="#BBBBBB"/>
</svg>
