<svg width="51" height="80" viewBox="0 0 51 80" fill="none" xmlns="http://www.w3.org/2000/svg">
<path d="M10.38 7.76991C10.19 7.22991 9.71999 6.74994 9.71999 6.13994C9.70999 2.90994 14.29 2.00993 16.77 1.56993C22.26 0.579933 30.21 0.459924 35.65 1.77992C38.09 2.36992 40.64 3.68993 39.74 6.65993C41.45 6.40993 43.08 6.72994 44.51 7.69994C47.37 9.63994 47.3 13.3399 46.52 16.3599C45.95 18.5699 44.68 20.3299 45.92 22.6399C46.97 24.5999 48.15 25.8399 48.98 28.1199C54.27 42.5099 42.21 60.4499 33.83 71.3999C32.34 73.3499 30.56 75.7699 28.92 77.5399C26.96 79.6499 25.01 79.8899 22.97 77.7299C21.03 75.6599 19.15 72.8799 17.35 70.6199C14.45 66.9799 11.53 63.5099 8.95003 59.5999C2.78003 50.2499 -2.91995 36.5899 3.34005 25.9499C4.06005 24.7199 4.71002 24.3499 4.81002 22.7699C5.03002 19.3499 2.01005 17.3799 3.09005 12.9699C3.66005 10.6499 6.32999 7.76991 8.84999 7.76991H10.38ZM12 5.19994C10.89 6.38994 12.84 7.54993 13.76 7.96993C18.44 10.0899 29.22 9.94994 34.12 8.50994C35.36 8.13994 39.35 6.58993 37.69 4.74993C37.09 4.07993 34.91 3.59994 34 3.41994C30.74 2.77994 26.55 2.58991 23.25 2.82991C21.41 2.96991 19.65 3.00993 17.8 3.31993C16.51 3.53993 12.83 4.28992 12 5.17992V5.19994ZM43.64 20.7799C43.52 19.2599 44.3 17.9099 44.71 16.5099C45.44 13.9799 45.77 10.4399 43.17 8.84993C41.23 7.66993 39.65 7.89993 37.89 9.21993C37.29 9.66993 36.87 10.0899 36.67 10.8399C37.44 10.5099 38.17 10.0599 38.99 9.86992C41.93 9.16992 43.91 11.2499 43.73 14.1399C43.62 15.8699 42.78 17.0199 42.27 18.5299C42.14 18.9099 41.89 19.5199 42.24 19.8099L43.64 20.7799ZM14.19 12.0399C13.67 9.20993 10.04 8.61994 7.75002 9.72994C4.62002 11.2499 4.15001 14.4199 5.18001 17.4799C5.72001 19.0599 6.82 20.4899 6.67 22.2599C8.84 20.8599 7.28003 19.1199 6.64003 17.4099C5.72003 14.9399 6.30001 12.6599 8.74001 11.4699C10.63 10.5499 12.53 10.7999 14.19 12.0399ZM35.1 10.0899C31.05 11.3999 26.74 11.4499 22.51 11.3899C21.98 11.3899 20.97 11.4499 20.56 11.3899C20.39 11.3699 20.44 11.2199 20.36 11.1999C19.76 11.0699 18.85 11.0999 18.17 10.9899C17.21 10.8299 16.26 10.5899 15.31 10.3699C16.12 11.8699 16.17 13.9599 15.75 15.5899C15.09 18.1399 12.75 19.4499 10.9 21.0499C7.36004 24.1199 4.78 25.9899 3.42 30.7599C-0.419998 44.2799 10.97 59.5799 18.84 69.5799C20.55 71.7599 22.49 74.3399 24.32 76.3599C25.17 77.2999 26.32 77.3999 27.29 76.5499C33.28 68.8399 39.53 61.0499 43.84 52.2299C48.23 43.2599 51.46 29.1299 42.24 22.0299C40.78 20.9099 39.06 20.0899 37.54 19.0199C37.22 18.7999 36.54 18.1299 36.31 18.0199C36.12 17.9299 35.99 18.2399 35.88 18.3299C32.44 20.9999 20.44 21.2899 16.83 19.0199C16.51 18.8199 15.59 18.1099 16.37 17.9799C18.02 18.4799 19.77 18.7499 21.49 18.9099C24.9 19.2299 31.71 19.2399 34.65 17.3899C35.59 16.7999 34.97 16.4399 34.76 15.5799C34.32 13.7999 34.53 11.7999 35.1 10.0799V10.0899ZM40.58 18.7299C41.15 16.8299 42.78 14.1099 41.62 12.1599C40.64 10.5099 38.13 11.4999 37.01 12.5099C36.19 13.2399 36.2 13.6999 36.43 14.7599C36.87 16.8199 38.88 17.8499 40.59 18.7299H40.58ZM9.46004 19.7499C9.53004 19.8099 10.03 19.4399 10.14 19.3599C11.68 18.2799 15.59 15.4899 13.32 13.4299C12.19 12.4099 10.2 12.2799 8.95003 13.1499C6.49003 14.8599 9.05004 17.6699 9.46004 19.7499Z" fill="#0C0B08"/>
<path d="M35.1 10.09C34.52 11.81 34.31 13.81 34.76 15.59C34.97 16.45 35.59 16.8 34.65 17.4C31.71 19.25 24.91 19.24 21.49 18.92C19.77 18.76 18.02 18.5 16.37 17.99C15.59 18.12 16.5 18.82 16.83 19.03C20.44 21.31 32.44 21.01 35.88 18.34C36 18.25 36.12 17.94 36.31 18.03C36.55 18.14 37.22 18.81 37.54 19.03C39.06 20.1 40.79 20.91 42.24 22.04C51.47 29.14 48.23 43.27 43.84 52.24C39.52 61.06 33.28 68.85 27.29 76.56C26.32 77.41 25.17 77.31 24.32 76.37C22.49 74.34 20.55 71.76 18.84 69.59C10.98 59.59 -0.420024 44.29 3.41998 30.77C4.77998 26 7.35002 24.12 10.9 21.06C12.75 19.46 15.08 18.14 15.75 15.6C16.17 13.97 16.12 11.88 15.31 10.38C16.26 10.61 17.21 10.84 18.17 11C18.84 11.11 19.76 11.08 20.36 11.21C20.43 11.23 20.38 11.38 20.56 11.4C20.98 11.46 21.98 11.39 22.51 11.4C26.74 11.46 31.05 11.4 35.1 10.1V10.09ZM36.46 42.39C39.88 39.14 37.31 32.11 31.81 34.54C27.1 36.62 24.68 44.25 29.4 47.61C32.65 49.92 36.81 48.3 39.28 45.63C45.64 38.76 41.82 26.48 31.29 29.37C22.11 31.89 17.35 47.25 26.43 52.62C31.61 55.69 38.23 53.34 41.12 48.3C41.33 47.93 42.44 45.91 41.2 46.34C41.02 46.4 40.38 47.59 40.19 47.84C34.56 55.5 22.86 53.15 23.3 43.02C23.57 36.65 27.94 30.64 34.68 30.71C39.43 30.76 41.38 36.13 40.46 40.12C39.61 43.83 35.48 48.22 31.36 46.77C26.44 45.04 28.55 36.89 32.96 35.78C36.9 34.79 37.13 40.34 35.04 41.57C34.16 42.08 33.12 41.6 33.34 40.52C33.51 39.67 34.83 41.13 34.63 39.69C34.51 38.81 33.41 38.74 32.75 39.1C31.65 39.68 31.48 41.33 32.11 42.31C33.15 43.92 35.22 43.57 36.46 42.4V42.39ZM8.34002 49.39C8.07002 49.58 8.76997 51.32 8.90997 51.65C11.05 56.67 16.45 63.08 20.18 67.13C20.36 67.32 21.82 68.89 21.58 67.87C21.47 67.4 20.96 66.68 20.68 66.26C18.62 63.18 15.8 60.24 13.56 57.21C12.32 55.54 11.15 53.83 10.09 52.04C9.71002 51.4 9.14 50.05 8.76 49.57C8.67 49.46 8.46997 49.29 8.34997 49.38L8.34002 49.39ZM36.58 57.84C36.64 57.78 36.58 57.32 36.35 57.38C35.99 57.46 36.37 58.06 36.58 57.84ZM33.98 62.12C33.64 62.07 33.57 62.27 33.61 62.58C33.95 62.63 34.02 62.43 33.98 62.12Z" fill="#AF4A0C"/>
<path d="M12 5.19992C12.83 4.29992 16.51 3.5499 17.8 3.3399C19.65 3.0299 21.41 2.97991 23.25 2.84991C26.55 2.60991 30.74 2.79991 34 3.43991C34.91 3.61991 37.09 4.0999 37.69 4.7699C39.35 6.6099 35.37 8.15991 34.12 8.52991C29.21 9.96991 18.43 10.0999 13.76 7.9899C12.83 7.5699 10.89 6.40991 12 5.21991V5.19992ZM15.01 4.81991C13.83 4.97991 14.26 5.86989 15.06 6.29989C16.94 7.29989 20.9899 7.2399 23.1599 7.3099C26.3899 7.4199 29.69 7.53991 32.89 6.90991C33.66 6.75991 36.4999 6.10992 36.4099 5.03992C36.3599 4.45992 35.29 5.10991 34.98 5.18991C31.5 6.06991 26.76 5.83992 23.17 5.72992C21.42 5.67992 17.7 5.79989 16.17 5.29989C15.72 5.14989 15.57 4.74991 15.02 4.81991H15.01Z" fill="#AF4A0C"/>
<path d="M14.19 12.04C12.53 10.8 10.63 10.55 8.74 11.47C6.3 12.66 5.72002 14.95 6.64002 17.41C7.28002 19.12 8.83999 20.86 6.66999 22.26C6.81999 20.49 5.72 19.06 5.18 17.48C4.14 14.42 4.62001 11.25 7.75001 9.72997C10.04 8.61997 13.68 9.20997 14.19 12.04Z" fill="#AF4A0C"/>
<path d="M43.64 20.7799L42.24 19.8099C41.88 19.5099 42.14 18.8999 42.27 18.5299C42.78 17.0199 43.62 15.8799 43.73 14.1399C43.92 11.2499 41.94 9.16991 38.99 9.86991C38.17 10.0699 37.43 10.5099 36.67 10.8399C36.87 10.0899 37.29 9.66991 37.89 9.21991C39.65 7.89991 41.23 7.66992 43.17 8.84992C45.77 10.4299 45.44 13.9799 44.71 16.5099C44.3 17.9099 43.53 19.2699 43.64 20.7799Z" fill="#AF4A0C"/>
<path d="M36.46 42.39C35.22 43.57 33.15 43.9099 32.11 42.2999C31.48 41.3199 31.65 39.67 32.75 39.09C33.42 38.74 34.51 38.81 34.63 39.68C34.83 41.11 33.5 39.66 33.34 40.51C33.13 41.6 34.17 42.08 35.04 41.56C37.14 40.33 36.9 34.7799 32.96 35.7699C28.55 36.8799 26.44 45.03 31.36 46.76C35.48 48.21 39.61 43.8299 40.46 40.1099C41.38 36.1099 39.43 30.74 34.68 30.7C27.94 30.63 23.57 36.65 23.3 43.01C22.87 53.14 34.57 55.4899 40.19 47.8299C40.38 47.5799 41.02 46.3899 41.2 46.3299C42.44 45.8999 41.33 47.92 41.12 48.29C38.24 53.33 31.61 55.6799 26.43 52.6099C17.35 47.2399 22.1 31.8799 31.29 29.3599C41.82 26.4699 45.64 38.75 39.28 45.62C36.81 48.29 32.65 49.91 29.4 47.6C24.68 44.24 27.1 36.61 31.81 34.53C37.31 32.1 39.88 39.13 36.46 42.38V42.39Z" fill="#0C0B08"/>
<path d="M8.34 49.3899C8.47 49.2999 8.65997 49.4698 8.74997 49.5798C9.13997 50.0598 9.70999 51.4198 10.08 52.0498C11.14 53.8398 12.31 55.5499 13.55 57.2199C15.79 60.2399 18.6 63.1898 20.67 66.2698C20.95 66.6898 21.46 67.4099 21.57 67.8799C21.81 68.8999 20.35 67.3299 20.17 67.1399C16.43 63.0899 11.03 56.6799 8.9 51.6599C8.76 51.3299 8.05999 49.5898 8.32999 49.3998L8.34 49.3899Z" fill="#0C0B08"/>
<path d="M33.98 62.12C34.02 62.44 33.95 62.64 33.61 62.58C33.57 62.26 33.64 62.06 33.98 62.12Z" fill="#0C0B08"/>
<path d="M36.58 57.8398C36.37 58.0498 35.99 57.4598 36.35 57.3798C36.58 57.3298 36.64 57.7798 36.58 57.8398Z" fill="#0C0B08"/>
<path d="M15.01 4.81991C15.57 4.73991 15.71 5.14989 16.16 5.29989C17.68 5.79989 21.41 5.68991 23.16 5.72991C26.76 5.82991 31.49 6.0699 34.9699 5.1899C35.2799 5.1099 36.35 4.45991 36.4 5.03991C36.49 6.11991 33.65 6.75991 32.88 6.90991C29.69 7.53991 26.38 7.4199 23.15 7.3099C20.98 7.2399 16.93 7.30989 15.05 6.29989C14.24 5.86989 13.82 4.97991 15 4.81991H15.01Z" fill="#0C0B08"/>
</svg>
