<svg width="129" height="120" viewBox="0 0 129 120" fill="none" xmlns="http://www.w3.org/2000/svg">
<path d="M113.44 12.0501C114.92 12.3101 116.36 12.8901 117.6 13.7301C118.22 14.1501 118.75 14.7301 119.36 15.1601C121.97 16.9801 124.85 18.1701 127.75 19.4501C128.72 20.3301 128.58 23.3201 128.25 24.5401C128.11 25.0501 127.72 25.9801 127.39 26.3801C126.94 26.9301 125.83 27.3501 125.6 27.6501C125.48 27.8101 125.45 28.3601 125.25 28.7001C123.77 31.3301 118.88 29.2801 116.57 29.3801C114.63 29.4601 112.6 30.5601 110.61 30.5801C110.15 32.5101 109.6 34.4301 109.23 36.3801C108.41 40.6601 108.35 44.7001 107.19 48.9501C106.57 51.2101 106.65 52.9301 106.51 55.2601C106.45 56.2201 106.17 57.3301 106.18 58.3001C106.26 64.6001 112.4 74.6201 108.54 80.0401C107.54 81.4401 103.75 84.2201 102.54 81.9601C102.11 81.1601 102.58 80.5101 102.51 80.2401C102.47 80.0901 101.57 79.8801 101.46 79.2301C101.39 78.8201 101.62 78.1201 101.8 77.7401C102.26 76.7601 103.95 75.3001 103.74 74.2501C103.61 73.6201 102.63 71.7201 102.29 71.0201C101.39 69.1301 100.27 67.3501 99.27 65.5101C98.75 64.5501 98.19 63.0301 97.63 62.2201C97.53 62.0801 97.47 61.9101 97.25 61.9501C97.08 61.9801 95.51 63.3001 95.53 63.5501C95.69 65.4701 97.8 68.8001 98.62 70.6901C100.71 75.4901 100.93 81.6901 95.22 83.9401C93.75 84.5201 90.14 85.2001 89.78 82.9601C89.59 81.7201 90.4599 81.3101 90.4499 81.2101C90.4499 81.1201 89.97 80.9801 89.85 80.8601C89.42 80.4201 89.3599 79.5801 89.6899 79.0701C90.3199 78.1001 94.37 77.5301 94.1 75.8001C94.07 75.6201 92.39 73.1201 92.13 72.7401C91.63 72.0201 91.03 71.2301 90.48 70.5501C90 69.9601 87.8599 67.4001 87.3299 67.2301C86.9799 67.1201 85.3201 68.0301 84.8101 68.2301C83.55 68.7101 82.24 69.0601 81 69.5801C80.19 71.1601 79.6399 72.8501 78.8299 74.4201C74.8199 82.2701 64.6099 86.3401 59.8199 93.9001C58.9199 95.3201 57.45 97.5801 59.21 98.8701C61.49 100.53 65.5599 101.78 68.1999 103.28C71.5599 105.19 75.47 108.55 76.54 112.4C77.59 116.17 75.51 118.28 72.28 115.6L69.05 112.78C69.64 114.39 70.23 116.93 69.54 118.58C69.06 119.71 67.55 119.85 66.55 119.38C65.63 118.94 63.75 117.14 62.9 116.37C59.91 113.68 57.47 110.81 53.76 109.02C50.76 107.57 41.5999 104.64 40.1999 101.95C38.6099 98.8901 42.69 95.3301 44.38 93.0601C46.71 89.9301 49.28 86.1601 50.91 82.6201C51.66 80.9901 53.03 77.9101 51.51 76.3901C51.4 76.2801 50.08 75.3801 49.99 75.3901C49.74 75.4001 47.81 76.3101 47.46 76.5101C42.36 79.2801 39.87 85.6101 36.37 90.1101C30.02 98.2801 17.98 108.88 9.45996 114.86C8.04996 115.85 4.51996 118.07 2.95996 118.46C1.19996 118.9 -0.0800187 118.01 0.609981 116.17C6.89998 107.36 15.44 100.22 22.25 91.8401C30.81 81.3101 30.94 70.3101 35.21 58.1701C40.47 43.2501 50.28 37.1801 66.01 36.5901C77.52 36.1601 90.38 40.2701 96.34 27.1901C97.79 24.0101 98.34 20.7301 99.29 17.3901C96.3 15.8801 94.18 13.1201 93.12 9.96011C91.64 5.58011 91.1 2.49012 96.92 4.03012C99.71 4.77012 102.75 6.71008 104.34 9.12008C104.58 9.48008 104.74 10.0401 104.97 10.3701C105.32 10.8701 105.43 9.91007 105.59 9.55007C106.57 7.33007 107.4 5.6501 108.79 3.6401C109.21 3.0301 109.63 2.37009 110.06 1.75009C111.14 0.230087 113.4 -0.0999281 114.04 1.86007C114.39 2.92007 114.92 5.28007 114.96 6.36007C115.04 8.40007 113.95 10.1401 113.44 12.0501ZM112.14 3.49008C111.7 3.47008 111.47 3.90011 111.23 4.21011C110.48 5.17011 109.43 6.56008 108.86 7.62008C108.61 8.10008 107.54 10.4401 107.48 10.8301C107.44 11.0901 107.52 11.1701 107.75 11.2901C109.66 11.0701 110.52 12.2701 111.69 10.3001C112.95 8.18007 112.8 5.77007 112.13 3.48007L112.14 3.49008ZM101.28 49.0401L101.5 51.1901C101.53 51.5101 100.97 53.5001 100.83 53.9501L99.3 57.6601C100.39 56.4001 101.77 55.2001 102.67 53.8001C105.79 48.9601 105.79 44.2201 106.57 38.8001C106.98 35.9801 107.7 33.2001 108.31 30.4201C108.3 30.1401 106.87 29.6901 106.48 29.4401C105.7 28.9501 103.87 27.0901 104.68 26.2001C105.38 25.4301 106.57 27.3401 107.31 27.7901C110.37 29.6401 113.7 27.2601 116.9 27.2501C118.73 27.2501 120.8 28.1201 122.71 27.9101C122.92 27.7401 122.59 27.7501 122.48 27.7201C121.51 27.4701 118.36 26.5501 118.6 25.2101C118.84 23.8701 120.67 25.1901 121.3 25.4201C123.12 26.0601 125.95 26.3601 126.27 23.8401C126.16 23.5301 123.53 23.4801 123.15 21.9001C122.98 21.2201 123.21 20.4601 123.96 20.3501C122.44 19.3401 120.62 18.7401 119.07 17.6901C118.31 17.1801 117.66 16.4801 116.92 15.9601C113.87 13.8301 109.91 13.2301 106.26 13.2101C106.95 14.3001 106.22 15.8501 104.88 15.1801C104.67 15.0701 103.07 11.5701 102.69 10.9601C101.97 9.78011 101.33 8.91011 100.19 8.09011C99.5099 7.60011 95.0999 5.20007 94.5699 5.86007C95.1599 8.91007 96.0099 12.0401 98.4399 14.1501C99.0899 14.7201 101.82 16.2301 101.89 16.9401C101.94 17.4301 101.15 18.8801 100.95 19.4901C99.4299 24.2401 99.16 28.8801 95.61 32.9401C87.85 41.8101 75.1 38.2801 64.84 38.9101C54.04 39.5701 45.57 42.9401 40.14 52.6301C34.31 63.0301 34.45 75.6001 28.74 86.0401C24.4 93.9901 17.09 100.55 10.99 107.18C9.26999 109.05 7.63005 111.05 5.93005 112.91C4.98005 113.95 3.85995 114.87 3.07995 116.05C5.69995 114.79 8.09 113.15 10.38 111.38C20.2 103.8 30.83 94.5301 37.77 84.2301C38.53 83.1001 39.16 81.7701 39.93 80.6501C41.0401 79.0501 42.3699 77.6201 43.8199 76.3201C43.1099 75.8901 42.2 74.3401 42.85 73.6201C43.71 72.6601 44.4999 75.0001 45.1999 75.1101C45.5599 75.1601 47.35 73.9101 47.91 73.8701C46.4 72.3001 45.01 69.9201 44.38 67.8201C44.1 66.8701 43.59 64.0501 45.15 64.0501C45.99 64.0501 45.71 65.4201 45.86 66.1601C46.33 68.4201 48.2801 71.5601 50.0601 73.0201C52.2501 74.8101 54.4 74.6201 54.37 78.4201C54.34 82.8601 48.55 91.0101 45.85 94.6201C44.87 95.9301 41.92 98.8501 41.99 100.38C42.03 101.37 44.38 102.58 45.24 103.03C47.53 104.22 50.0799 105.01 52.4499 106.04C56.1399 107.66 59.39 109.57 62.33 112.33C63.02 110.25 64.17 113.02 64.72 113.76C64.48 112.9 64.6 111.95 64.1 111.17C65.06 110.94 65.5299 111.15 66.1999 111.79L67.5799 113.61C67.3999 112.97 66.92 112.26 66.52 111.72C63.15 107.08 57.41 105.05 52.98 101.81C51.18 100.49 50.32 99.3501 51.01 97.0301C52.66 91.5101 60.87 84.5901 64.85 80.3301C71.32 73.4101 73.97 63.9301 67.8 55.7501C66.72 54.3201 65.54 53.9001 64.47 52.8101C63.4 51.7301 64.01 50.9001 65.37 51.3901C70.62 53.2901 73.48 60.8101 73.59 65.9601C73.61 66.9401 73.2799 67.8801 73.3299 68.8601C77.4599 68.0401 81.56 67.1401 85.46 65.5101C84.49 63.9901 84.09 63.2201 84.55 61.4001C85.34 58.2301 87.15 54.8401 87.98 51.6101C88.26 50.5701 89.71 49.7001 89.89 51.2401C89.98 52.0601 88.85 55.8601 88.52 56.8701C88.05 58.3301 86.43 61.5101 86.66 62.8601C86.89 64.2101 89.4599 66.0401 90.4499 67.1001C92.1399 68.9101 94.8899 72.4601 95.8299 74.7101C96.8699 77.2001 95.39 78.8801 93.1 79.7201L94.79 79.9001C96.14 80.2601 94.8499 81.3001 94.1899 81.6801L92.4 82.4401C96.47 82.2001 98.63 78.8001 97.93 74.9401C97.31 71.5401 92.6599 65.2101 93.1999 62.4501C93.2599 62.1501 95.4099 59.8101 95.8199 59.2501C97.2699 57.2501 98.62 54.6701 99.3 52.3001C99.67 51.0201 99.45 48.8901 101.28 49.0201V49.0401ZM105.85 79.6801C106.78 79.4001 107.48 77.9401 107.69 77.0401C108.5 73.4801 105.55 66.2801 104.55 62.6001C103.87 60.0801 103.86 57.6001 104.29 55.0301L102.56 57.2401L99.35 60.0901C99.26 60.1701 99.23 60.2501 99.24 60.3701C99.25 60.4901 100.1 62.2901 100.24 62.5801C101.86 65.9601 104.22 69.2801 105.53 72.8001C106.27 74.7801 106.35 75.7601 104.78 77.3201C105.19 77.3901 105.94 76.8801 106.24 77.4101C106.67 78.1701 106.22 78.9901 105.86 79.6601L105.85 79.6801ZM78.24 70.2001C76.39 70.4901 74.56 70.9101 72.76 71.3901C71.94 73.3901 71.05 75.8601 69.84 77.6501C65.75 83.6601 59.01 88.0501 54.73 94.2001C53.65 95.7601 52.06 98.3001 53.92 99.8901C55.62 101.34 58.75 102.83 60.74 104.16C63.06 105.72 65.28 107.43 67.42 109.22L71.42 111.96C71.54 111.26 70.13 109.56 70.78 109.15C71.58 108.65 72.24 109.7 72.76 110.15L74.3199 112.22C74.1799 111.05 73.2299 109.84 72.4399 108.98C68.5299 104.76 63.71 103.63 58.84 101.17C55.01 99.2401 56 96.3701 57.88 93.3201C61.43 87.5401 67.5 83.7001 72.36 79.1701C75.07 76.6501 77.14 73.7401 78.25 70.1801L78.24 70.2001Z" fill="#020201"/>
<path d="M105.85 79.6801C106.21 79.0101 106.65 78.2001 106.23 77.4301C105.93 76.9001 105.18 77.4101 104.77 77.3401C106.35 75.7801 106.26 74.8001 105.52 72.8201C104.21 69.3001 101.85 65.98 100.23 62.6C100.09 62.3 99.24 60.5101 99.23 60.3901C99.22 60.2701 99.25 60.18 99.34 60.11L102.55 57.2601L104.28 55.05C103.85 57.62 103.86 60.1001 104.54 62.6201C105.54 66.3001 108.48 73.4901 107.68 77.0601C107.48 77.9601 106.77 79.4201 105.84 79.7001L105.85 79.6801Z" fill="#C55000"/>
<path d="M112.14 3.48999C112.81 5.77999 112.96 8.19 111.7 10.31C110.53 12.28 109.68 11.09 107.76 11.3C107.53 11.18 107.45 11.1 107.49 10.84C107.54 10.45 108.61 8.11 108.87 7.63C109.43 6.57 110.48 5.17997 111.24 4.21997C111.48 3.90997 111.71 3.48 112.15 3.5L112.14 3.48999Z" fill="#EC8100"/>
<path d="M101.28 49.0401C99.45 48.9101 99.68 51.0401 99.3 52.3201C98.61 54.6901 97.2599 57.2701 95.8199 59.2701C95.4099 59.8301 93.2599 62.1701 93.2 62.4701C92.66 65.2201 97.3101 71.5501 97.9301 74.9601C98.6301 78.8201 96.47 82.2201 92.4 82.4601L94.1899 81.7001C94.8499 81.3101 96.13 80.2801 94.79 79.9201L93.1 79.7401C95.39 78.9001 96.87 77.2201 95.83 74.7301C94.89 72.4901 92.14 68.9401 90.45 67.1201C89.46 66.0601 86.88 64.2201 86.66 62.8801C86.44 61.5401 88.05 58.3501 88.52 56.8901C88.85 55.8801 89.98 52.0801 89.89 51.2601C89.72 49.7201 88.27 50.5801 87.98 51.6301C87.15 54.8601 85.34 58.2501 84.55 61.4201C84.09 63.2401 84.49 64.0101 85.46 65.5301C81.57 67.1601 77.46 68.0601 73.33 68.8801C73.28 67.9001 73.61 66.9601 73.59 65.9801C73.48 60.8301 70.62 53.3101 65.37 51.4101C64.01 50.9201 63.4 51.7501 64.47 52.8301C65.54 53.9101 66.72 54.3401 67.8 55.7701C73.97 63.9401 71.32 73.4201 64.85 80.3501C60.87 84.6101 52.66 91.5301 51.01 97.0501C50.32 99.3701 51.18 100.51 52.98 101.83C57.41 105.07 63.15 107.1 66.52 111.74C66.92 112.29 67.4 112.99 67.58 113.63L66.2 111.81C65.53 111.17 65.06 110.96 64.1 111.19C64.6 111.98 64.48 112.92 64.72 113.78C64.17 113.04 63.01 110.27 62.33 112.35C59.39 109.59 56.1399 107.67 52.45 106.06C50.09 105.02 47.54 104.24 45.24 103.05C44.38 102.6 42.03 101.4 41.99 100.4C41.93 98.8701 44.87 95.9501 45.85 94.6401C48.55 91.0301 54.33 82.8801 54.37 78.4401C54.4 74.6401 52.2501 74.8401 50.0601 73.0401C48.2701 71.5701 46.32 68.4401 45.86 66.1801C45.71 65.4501 45.99 64.0801 45.15 64.0701C43.59 64.0701 44.1 66.8901 44.38 67.8401C45 69.9301 46.4 72.3201 47.91 73.8901C47.34 73.9401 45.5499 75.1901 45.2 75.1301C44.5 75.0301 43.71 72.6901 42.85 73.6401C42.2 74.3601 43.1099 75.9001 43.8199 76.3401C42.3699 77.6401 41.0401 79.0701 39.9301 80.6701C39.1601 81.7801 38.53 83.1201 37.77 84.2501C30.83 94.5501 20.2 103.82 10.38 111.4C8.09 113.17 5.69996 114.81 3.07996 116.07C3.85996 114.88 4.98005 113.97 5.93005 112.93C7.63005 111.07 9.26999 109.07 10.99 107.2C17.09 100.57 24.4 94.0101 28.74 86.0601C34.45 75.6101 34.31 63.0501 40.14 52.6501C45.57 42.9601 54.04 39.5901 64.84 38.9301C75.11 38.3001 87.85 41.8301 95.61 32.9601C99.16 28.9001 99.43 24.2701 100.95 19.5101C101.15 18.8901 101.94 17.4501 101.89 16.9601C101.81 16.2501 99.0899 14.7401 98.4399 14.1701C96.0099 12.0601 95.1599 8.93011 94.5699 5.88011C95.0999 5.22011 99.5099 7.62009 100.19 8.11009C101.33 8.92009 101.97 9.80009 102.69 10.9801C103.07 11.6001 104.66 15.1001 104.88 15.2001C106.23 15.8701 106.96 14.3201 106.26 13.2301C109.91 13.2501 113.87 13.8601 116.92 15.9801C117.66 16.4901 118.32 17.1901 119.07 17.7101C120.61 18.7601 122.43 19.3701 123.96 20.3701C123.21 20.4801 122.98 21.2401 123.15 21.9201C123.54 23.5001 126.16 23.5601 126.27 23.8601C125.95 26.3801 123.12 26.0801 121.3 25.4401C120.66 25.2101 118.83 23.9401 118.6 25.2301C118.37 26.5201 121.51 27.4901 122.48 27.7401C122.58 27.7701 122.91 27.7601 122.71 27.9301C120.79 28.1401 118.73 27.2601 116.9 27.2701C113.7 27.2901 110.37 29.6701 107.31 27.8101C106.57 27.3601 105.38 25.4501 104.68 26.2201C103.87 27.1101 105.7 28.9701 106.48 29.4601C106.87 29.7101 108.3 30.1601 108.31 30.4401C107.7 33.2201 106.98 36.0001 106.57 38.8201C105.79 44.2401 105.79 48.9701 102.67 53.8201C101.77 55.2201 100.38 56.4201 99.3 57.6801L100.83 53.9701C100.97 53.5201 101.54 51.5301 101.5 51.2101L101.28 49.0601V49.0401ZM97.58 8.10008C97.19 8.22008 96.95 8.64009 97.01 9.04009C97.95 10.4701 99.56 11.4201 100.46 12.9401C100.89 13.6701 101.24 15.4201 102.24 15.4501C102.67 15.4601 103.03 15.3601 103.07 14.8701C103.24 12.8901 100.27 9.31012 98.62 8.32012C98.24 8.09012 98.05 7.95008 97.58 8.10008ZM111.88 17.5701C110.15 18.0901 110.42 20.9001 112.35 20.9901C115.21 21.1201 114.54 16.7701 111.88 17.5701ZM60.75 42.3301C59.25 42.7301 59.9 44.0001 61.03 43.9401C62.9 43.8401 63.12 41.7001 60.75 42.3301ZM50.5699 47.8301C51.4499 48.1501 53.83 46.2801 53.2 45.4501C52.4799 44.5001 49.8299 46.6101 50.5699 47.8301ZM57.86 48.0801C57.55 47.6901 55.4901 48.0801 55.4301 48.8001C55.2801 50.5301 57.84 49.4201 57.95 48.9401C57.9799 48.7901 57.95 48.1801 57.86 48.0801ZM49.98 54.1701C51.3 55.0001 53.56 50.9601 51.58 51.3601C50.65 51.5501 49.65 53.2301 49.98 54.1701ZM45.33 53.8601C45.47 53.6201 46.47 53.7201 46.17 52.7001C46.02 52.1901 45.3599 52.2001 44.9399 52.4601C44.8499 52.5201 43.82 53.5701 43.77 53.6701C42.89 55.2301 44.67 56.2301 45.23 54.6001C45.31 54.3601 45.28 53.9501 45.33 53.8601ZM51.08 58.5901C50.46 58.8501 49.92 60.6901 50.6 60.8401C51.9 61.1301 52.92 57.8201 51.08 58.5901ZM40.99 59.9101C39.81 60.2901 39.11 65.0901 41.03 63.3801C41.82 62.6801 42.35 59.4701 40.99 59.9101ZM49.6801 93.6101C49.1101 92.9601 47.6 95.1001 47.29 95.5301C46.48 96.6401 45.32 98.4601 45.42 99.8601C45.47 100.62 45.83 101.75 46.78 101.48C47.38 101.31 46.7499 100.61 46.6899 100.01C46.5899 99.0601 47.15 97.9901 47.61 97.1901C47.91 96.6801 50.0201 94.0001 49.6801 93.6101Z" fill="#EC8100"/>
<path d="M78.2399 70.2002C77.1199 73.7602 75.0499 76.6702 72.3499 79.1902C67.4999 83.7202 61.4299 87.5602 57.8699 93.3402C55.9899 96.3902 55.0099 99.2602 58.8299 101.19C63.6999 103.65 68.52 104.78 72.43 109C73.22 109.85 74.17 111.07 74.31 112.24L72.7499 110.17C72.2299 109.72 71.57 108.67 70.77 109.17C70.12 109.58 71.53 111.27 71.41 111.98L67.41 109.24C65.26 107.45 63.0399 105.74 60.7299 104.18C58.7499 102.85 55.61 101.36 53.91 99.9102C52.06 98.3202 53.6399 95.7802 54.7199 94.2202C59.0099 88.0702 65.7499 83.6802 69.8299 77.6702C71.0499 75.8802 71.9299 73.4102 72.7499 71.4102C74.5499 70.9302 76.3899 70.5102 78.2299 70.2202L78.2399 70.2002Z" fill="#C55000"/>
<path d="M97.58 8.10005C98.05 7.95005 98.24 8.09008 98.62 8.32008C100.27 9.31008 103.24 12.8901 103.07 14.8701C103.03 15.3501 102.67 15.4601 102.24 15.4501C101.23 15.4201 100.89 13.6701 100.46 12.9401C99.57 11.4201 97.96 10.4701 97.01 9.04005C96.94 8.65005 97.18 8.23005 97.58 8.10005Z" fill="#020201"/>
<path d="M49.6801 93.61C50.0201 94 47.91 96.68 47.61 97.19C47.15 97.98 46.59 99.06 46.69 100.01C46.75 100.6 47.3801 101.31 46.7801 101.48C45.8201 101.75 45.4701 100.62 45.4201 99.86C45.3301 98.46 46.4901 96.64 47.2901 95.53C47.6001 95.1 49.1101 92.96 49.6801 93.61Z" fill="#020201"/>
<path d="M111.88 17.57C114.53 16.77 115.21 21.12 112.35 20.99C110.42 20.9 110.15 18.09 111.88 17.57Z" fill="#020201"/>
<path d="M40.99 59.9101C42.35 59.4801 41.8201 62.6901 41.0301 63.3801C39.1001 65.0901 39.8 60.2801 40.99 59.9101Z" fill="#020201"/>
<path d="M45.33 53.8599C45.28 53.9499 45.31 54.3599 45.23 54.5999C44.67 56.2299 42.8901 55.2299 43.7701 53.6699C43.8201 53.5799 44.85 52.52 44.94 52.46C45.36 52.2 46.0201 52.19 46.1701 52.7C46.4701 53.72 45.47 53.6199 45.33 53.8599Z" fill="#020201"/>
<path d="M49.98 54.17C49.64 53.23 50.64 51.55 51.58 51.36C53.56 50.96 51.3 55 49.98 54.17Z" fill="#020201"/>
<path d="M50.57 47.83C49.84 46.62 52.48 44.51 53.2 45.45C53.83 46.27 51.45 48.15 50.57 47.83Z" fill="#020201"/>
<path d="M57.86 48.08C57.94 48.18 57.9799 48.7899 57.9499 48.9399C57.8399 49.4199 55.28 50.5299 55.43 48.7999C55.49 48.0799 57.55 47.69 57.86 48.08Z" fill="#020201"/>
<path d="M60.75 42.3302C63.12 41.7002 62.9001 43.8301 61.0301 43.9401C59.9001 44.0001 59.25 42.7302 60.75 42.3302Z" fill="#020201"/>
<path d="M51.0799 58.5901C52.9199 57.8201 51.9 61.1301 50.6 60.8401C49.91 60.6901 50.4599 58.8501 51.0799 58.5901Z" fill="#020201"/>
</svg>
