<svg width="64" height="145" viewBox="0 0 64 145" fill="none" xmlns="http://www.w3.org/2000/svg">
<path d="M9.16994 29.99C9.25994 30.14 10.1999 30.56 10.4899 31.01C10.6799 31.3 10.81 32.17 10.94 32.25C11.08 32.34 11.42 32.27 11.65 32.34C12.14 32.48 12.73 33.1 12.89 33.59C13.18 34.48 13.24 36.38 12.69 37.17C12.33 37.68 11.32 38.11 11.27 38.19C11.22 38.27 11.25 39.01 11.21 39.27C11.02 40.38 10.1899 41.8 9.15993 42.31C9.17993 42.76 10.83 45.34 11.01 45.34C11.8 44.21 12.4299 42.97 12.9199 41.68C14.1599 38.43 14.41 34.73 16.77 32C19.52 28.82 23.43 28.26 27.27 27.12C27.35 26.62 26.85 26.76 26.52 26.63C24.57 25.89 22.9099 23.59 22.7899 21.5C22.7599 21.02 22.9 20.4999 22.88 20.1099C22.79 18.0099 22.38 15.92 22.82 13.76C22.91 13.3 23.2299 12.86 23.2899 12.53C23.3799 12.05 23.3199 11.35 23.4099 10.85C24.2899 5.45997 27.6199 1.60997 33.2899 1.22997C36.9699 0.979974 41.42 3.65995 42.45 7.29995C42.5 7.48995 42.5399 8.23995 42.5999 8.29995C42.7699 8.47995 42.77 8.22997 42.81 8.15997C43.57 6.67997 44.06 5.34995 46.03 5.20995C46.91 5.14995 49.1499 5.39995 48.5499 6.73995C48.3799 7.11995 47.6699 6.83995 47.4699 7.20995C47.9299 7.13995 49.02 7.46996 49.25 7.86996C49.37 8.07996 49.39 8.57996 49.19 8.70996C48.87 8.90996 47.69 8.81996 47.27 9.05996C48.21 9.58996 49.46 10.07 49.06 11.4C48.25 11.57 47.62 11.15 46.9 11.03C45.75 10.84 44.55 10.74 43.39 10.81C43.41 11.23 43.2199 11.63 43.2999 12.05C43.3699 12.41 43.92 12.83 44.06 13.28C44.54 14.71 44.29 16.58 43.53 17.87C43.37 18.14 42.66 18.95 42.64 19.06C42.61 19.18 42.98 20.2 43 20.52C43.1 22.22 41.84 24.15 40.14 24.52C39.9 24.57 39.38 24.47 39.26 24.64C39.16 24.79 39.11 25.83 39.46 25.84C40.49 25.85 41.0199 25.28 42.2999 25.7C44.7399 26.5 46.7299 26.98 48.7199 28.73C50.2099 30.04 50.95 31.49 52.15 32.96C54.12 35.36 56.2099 37.52 58.1099 40.03C60.2799 42.89 64.2899 48.09 63.9799 51.77C63.6699 55.45 57.97 61.54 55.38 64.17C54.62 64.93 53.46 65.7499 52.84 66.6099C52.39 67.2299 52.16 68.34 51.82 69.07C51.34 70.08 50.62 71.01 49.75 71.71C49.98 73.41 49.7999 75.15 49.8499 76.87C50.1399 86.16 51.0599 95.45 51.5399 104.74C51.6399 106.65 51.9799 109.05 51.8499 110.91C51.6699 113.43 49.98 113.82 47.88 114.45C47.94 116.06 47.75 117.66 47.76 119.27C47.77 121.62 47.9699 124.01 48.1599 126.33C48.2699 127.67 48.23 129.31 48.57 130.6C48.85 131.68 49.92 133.02 50.2 134.14C50.34 134.7 50.4899 135.34 50.6199 135.91C51.1299 138.17 49.75 139.39 48.09 140.59C44.31 143.32 38.88 145.16 34.2 144.27C30.66 143.59 28.8399 140.9 31.5399 137.87C32.6599 136.61 34.17 136.11 35.51 135.18C36.55 134.46 37.52 133.5 38.46 132.65C38.89 132.26 39.2 132.22 39.45 131.55C40.43 128.97 38.8699 123.71 38.6099 120.85C38.4899 119.58 38.51 118.29 38.51 117.02C36.96 117.47 35.5099 118.2 33.9899 118.71C31.3199 119.61 28.5099 120.14 25.6799 120.1C25.6499 120.74 25.7099 121.4 25.6799 122.05C25.5899 123.87 25.25 125.91 25.27 127.71C25.29 128.89 25.7499 131.54 25.9799 132.78C26.1899 133.94 26.76 134.15 26.34 135.64C25.59 138.33 20.4 139.06 18.03 139.77C14.63 140.79 11.1999 142.36 7.53993 141.56C2.78993 140.52 4.43994 135.23 7.91994 133.54C10.1699 132.45 11.94 131.86 14.02 130.28C14.26 130.1 15.5599 129.07 15.6599 128.94C16.4699 127.87 16.6099 124.4 16.6199 123.03C16.6199 121.85 16.4799 120.67 16.4699 119.49C15.2499 119.21 12.78 119.13 12.26 117.72C12.13 117.36 12.03 116.09 12.03 115.66C11.98 111.19 12.7099 106.42 12.7299 101.92C13.3299 95.4 14.2699 88.93 14.6199 82.41C14.8999 77.18 13.91 71.93 14.63 66.7C14.75 65.84 15.24 65 15.32 64.4C15.43 63.48 15.1399 62.17 15.1099 61.22C15.0699 59.88 15.1499 58.53 15.1099 57.18C13.8299 58.37 12.4699 59.48 10.6099 59.04C9.98994 58.89 9.62993 58.52 9.03993 58.37C9.01993 60.28 9.05993 62.19 9.03993 64.1C8.87993 85.21 9.08998 106.52 8.83998 127.69C8.82998 128.89 9.04994 130.1 7.98994 130.93C6.74994 131.89 4.33997 130.69 4.26997 129.08C4.16997 126.86 4.42996 124.46 4.43996 122.23C4.53996 100.22 4.62995 78.01 4.55995 55.95C4.55995 54.23 4.70995 52.13 4.55995 50.47C4.48995 49.69 3.93997 49.0099 3.63997 48.2999C2.93997 46.6199 2.63997 45.14 2.13997 43.43C1.66997 41.85 0.999959 40.54 0.879959 38.82C0.649959 35.56 0.849955 30.59 4.74995 29.71C4.64995 28.94 4.63998 28.16 4.64998 27.37C4.67998 25.73 4.89994 23.81 4.85994 22.2C4.84994 21.68 4.32997 21.22 4.19997 20.66C4.07997 20.19 4.14996 19.51 4.00996 19.06C3.78996 18.32 2.26997 16.63 1.88997 15.51C1.04997 13.07 2.82993 9.47998 3.65993 7.16998C4.14993 5.79998 5.35998 1.51996 6.39998 0.749963C7.78998 -0.280037 8.57994 1.52997 9.04994 2.56997C10.2899 5.31997 11.0599 8.39997 11.7399 11.32C12.0699 12.7 12.54 13.81 12.06 15.28C11.66 16.52 10.42 17.9 9.99995 19.09C9.68995 19.98 9.85996 20.92 9.12996 21.7L9.14998 29.99H9.16994ZM8.04994 18.26C8.22994 18.3 8.24997 18.21 8.32997 18.1C8.63997 17.69 9.83997 15.51 10.02 15.02C10.29 14.28 10.33 13.75 10.19 12.99C9.86996 11.3 9.09996 8.92995 8.56996 7.23995C8.24996 6.23995 7.79994 4.68996 7.35994 3.77996C7.30994 3.66996 7.26994 3.49997 7.10994 3.53997C6.37994 4.96997 5.99996 6.53995 5.43996 8.04995C4.78996 9.82995 3.15997 12.89 3.76997 14.75C4.09997 15.74 5.32996 17.49 5.93996 18.45C5.99996 18.55 5.93993 18.6299 6.15993 18.58C6.15993 18.03 6.15993 17.48 6.15993 16.93C6.15993 14.95 6.15993 12.75 6.46993 10.78C6.51993 10.44 6.87996 8.66997 7.43996 9.03997C7.78996 11.63 7.91998 14.23 7.83998 16.85L8.03993 18.29L8.04994 18.26ZM30.9 16.3C31.23 16.73 31.14 17.88 31.32 18.12C31.39 18.21 32.3399 18.61 32.6099 18.82C33.3299 19.37 33.35 19.9 34.46 19.96C35.36 20.01 36.33 19.59 37.03 19.04C37.93 18.35 38.2399 16.84 39.5399 16.68C40.4299 16.57 41.13 17.41 41.52 17.37C42.1 17.32 42.6799 15.44 42.6799 14.93C42.6799 14.67 42.33 13.62 42.13 13.48C41.87 13.29 40.8699 13.24 40.5499 13.31C39.9899 13.44 39.6 14.25 39.14 14.29C38.25 14.38 38.2599 13.17 38.2899 12.54C38.3599 10.59 39.2899 8.40997 38.9799 6.47997C38.6999 4.69997 35.1799 3.68997 33.6699 3.62997C32.8899 3.59997 32.14 3.82996 31.38 3.92996C30.54 4.03996 30.1 3.85995 29.21 4.23995C27.98 4.76995 26.6099 6.49996 26.3599 7.80996C27.1399 7.86996 27.8499 7.86996 27.9299 8.77996C27.9899 9.42996 27.4699 9.98996 26.8599 10.15C26.4299 10.26 25.42 10.09 25.19 10.32C25.04 10.47 24.69 12.14 24.81 12.29C24.87 12.37 25.6099 12.48 25.8499 12.64C26.0899 12.8 26.12 13.17 26.39 13.07C26.86 12.89 27.27 11.18 28.09 11.09C28.71 11.02 28.95 11.34 28.94 11.95C28.94 12.32 27.88 13.75 27.63 14.22C27.32 14.79 26.63 15.96 26.9 16.57C27.19 17.22 29.23 17.2 29.76 16.78C29.96 16.62 30.3 15.53 30.89 16.31L30.9 16.3ZM26.06 13.59C25.44 13.76 24.92 14.09 24.26 14.14L23.6799 18.3599C23.8199 18.3699 23.94 18.37 24.08 18.31C24.14 18.28 25.1999 17.53 25.2299 17.47C25.3299 17.27 25.1599 16.47 25.1699 16.12C25.1699 15.9 25.2399 15.47 25.2999 15.25C25.4399 14.71 25.85 14.1 26.07 13.58L26.06 13.59ZM26.2299 18.78C25.1899 18.99 24.4999 20.32 24.9799 21.28C25.2299 21.79 26.03 22.59 26.59 22.76C27.23 22.95 27.5499 22.74 28.0999 22.73C29.4599 22.72 30.59 23.13 31.77 22.22C32.65 21.54 32.39 20.35 31.56 19.77C30.93 19.64 30.3499 19.58 29.7199 19.42C28.6299 19.14 27.4199 18.53 26.2299 18.77V18.78ZM39.6699 18.88C39.2399 18.93 38.34 19.89 38.2 20.3C37.28 22.92 41.02 23.57 41.19 21.01C41.25 20.18 40.6599 18.76 39.6699 18.88ZM8.04994 20.15C7.67994 20.11 6.37998 20.04 6.20998 20.35C6.15998 20.44 6.12993 20.72 6.15993 20.75C6.23993 20.83 8.26994 20.76 8.04994 20.15ZM6.45998 23.09C6.44998 25.23 6.45998 27.37 6.45998 29.51H7.25996C7.39996 27.69 6.96998 25.68 7.14998 23.88C7.20998 23.34 7.78998 22.44 6.70998 22.64C6.24998 22.73 6.45998 22.93 6.45998 23.09ZM16.71 46.23C16.78 45.46 16.8099 44.75 17.1199 44C17.2499 43.68 17.8599 42.84 17.8699 42.68C17.8799 42.52 17.7699 42.3 17.7899 42.09C17.8799 40.86 17.8 38.5 18.25 37.46C18.6 36.64 19.59 36.66 19.59 37.51V41.39C19.59 41.79 20.44 41.14 20.56 41.06C23.73 38.96 26.45 36.46 29.28 34.01C31.99 31.66 34.69 29.32 37.69 27.34C38.19 26.8 37.56 26.23 37.45 25.62C37.38 25.24 37.4499 23.53 37.0499 23.43C36.7599 23.36 35.6699 24.67 35.3699 24.91C34.59 25.53 31.63 26.9 30.7 26.9H29.06C29.01 27.52 29.28 28 29.26 28.64C29.25 29.12 29.0599 30.87 28.3599 30.74C27.4499 30.57 27.95 28.65 27.34 28.71C27.21 28.72 26.4799 29.11 26.2299 29.19C21.2999 30.89 18.23 31.5399 16.15 36.8299C14.86 40.1299 14.31 43.7599 11.96 46.5799C12.29 47.7099 13.7899 49.66 13.7399 50.8299C13.6899 51.9999 12.43 50.57 12.09 50.19C11.09 49.07 10.41 47.7 9.50996 46.5C9.33996 46.28 9.15993 46.47 9.15993 46.7V55.66C10.0499 57.17 11.72 57.71 13.14 56.41C14.78 54.91 14.83 53.22 15.84 51.64C16 51.38 16.49 51.06 16.57 50.88C16.75 50.48 16.7099 49.28 16.7199 48.79C16.7399 47.93 16.6999 47.06 16.7199 46.2L16.71 46.23ZM17.1099 63.75C17.2699 63.78 17.3999 63.7 17.5399 63.64C19.4199 62.83 22.0499 60.91 23.6199 59.57C28.2699 55.58 32.53 49.35 35.53 44.01C38.03 39.57 39.37 34.62 41.21 29.88C41.4 29.38 41.95 28.45 42.06 28.04C42.31 27.12 41.18 27.17 40.64 27.52C39.86 28.02 38.79 31.07 38.32 32.07C35.31 38.38 30.51 43.9899 25.27 48.5799C23.79 49.8799 21.56 51.84 19.83 52.7C18.92 53.15 17.88 53.3 16.95 53.71C16.93 54.12 16.8199 54.54 16.7999 54.95C16.6799 57.09 16.75 59.1899 16.9 61.3299C16.96 62.1399 16.8399 62.97 17.0999 63.77L17.1099 63.75ZM39.0999 58.67C39.0999 58.67 38.97 58.24 39.02 58.15C40.53 53.78 42.19 49.27 43.13 44.74C43.93 40.93 44.0199 36.8 45.0999 33.07C45.4499 31.86 45.74 30.64 46.96 30.05C47.01 29.83 45.86 28.95 45.64 28.79C45.37 28.59 43.9299 27.58 43.6799 27.82C43.6399 27.86 43.47 28.73 43.38 28.96C41.74 33.37 40.35 37.8599 38.32 42.1099C34.52 50.0799 26.46 62.68 17.76 65.64C17.33 65.79 16.8699 65.84 16.4199 65.94C15.6899 71.3 16.91 76.65 16.71 82.01C16.44 89.22 14.86 96.59 14.52 103.8C14.37 107.01 14.47 110.25 14.32 113.46C14.28 114.31 13.85 116.04 14.33 116.73C14.81 117.42 16.39 117.3 17.15 117.39C22.28 118.05 28.0199 118.46 32.9699 116.79C35.8199 115.83 38.61 114.4 41.5 113.48C44 112.68 46.53 112.53 49.02 111.85C49.28 111.78 49.63 111.77 49.76 111.5C49.91 111.18 49.85 109.46 49.84 108.98C49.65 100.07 48.31 91.21 47.94 82.31L47.84 72.9C46.41 73.12 44 75.07 42.59 74.52C42.15 74.35 41.85 73.6799 41.57 73.5499C41.29 73.42 40.83 73.45 40.44 73.29C39.84 73.03 39.52 72.36 39.28 72.26C39.07 72.17 38.78 72.21 38.53 72.12C37.76 71.83 37.7199 70.37 37.7999 69.68C37.8399 69.32 38.16 68.77 38.09 68.49C38.07 68.41 37.53 68.25 37.34 68.02C36.59 67.1099 36.93 65.93 37.59 65.09C38.82 63.51 41.41 62.3 43.31 61.75C44.83 61.31 46.5899 61.28 47.7899 60.16C47.9299 57.76 47.77 55.34 47.84 52.94C47.88 51.27 48.11 49.54 48.15 47.87C48.17 47.17 48.13 46.47 48.15 45.78C48.11 45.55 46.3899 43.74 46.1099 43.54C45.9399 43.42 45.69 43.22 45.51 43.44C44.5 47 43.43 50.58 41.9 53.96C41.32 55.25 40.4499 57.05 39.6699 58.2C39.5699 58.36 39.34 58.83 39.09 58.67H39.0999ZM18.0999 51.21C18.6199 51.57 21.6 49.05 22.13 48.62C28.67 43.25 34.14 36.68 38.15 29.22C33.91 32.02 30.43 35.79 26.5 38.97C23.99 41 21.28 42.76 18.69 44.7C18.58 44.81 18.52 44.9499 18.5 45.1099C18.33 46.2299 18.48 47.96 18.39 49.18C18.34 49.85 18.24 50.56 18.09 51.22L18.0999 51.21ZM43.57 72.81C43.57 72.81 44.1699 72.81 44.2899 72.79C44.9699 72.65 48.68 70.28 49.19 69.73C50.03 68.82 50.6 67 51.31 65.88C52.18 64.49 53.3999 63.47 54.4699 62.27C56.2799 60.22 61.7499 54.15 61.9799 51.67C62.1699 49.61 59.96 46.2899 58.82 44.5799C56.24 40.7299 53.08 37.4 50.14 33.85C49.78 33.41 48.0299 30.77 47.7899 30.72C47.5999 30.68 47.5299 30.97 47.4699 31.09C46.9199 32.29 46.7399 33.88 46.4699 35.16L45.88 40.7999C47.57 42.66 49.44 44.35 51.14 46.19C52.33 47.48 53.79 49.04 54.64 50.5499C54.86 50.95 55.33 51.82 55.31 52.25C55.27 53.16 53.3199 56.04 52.7299 56.94C50.9499 59.63 49.41 62.31 46.08 63.13C43.58 63.74 41.7899 63.75 39.5999 65.41C39.3599 65.6 38.4699 66.35 38.3699 66.57C38.2599 66.82 38.28 67.12 38.63 67.03C38.79 66.99 40.03 65.8 40.46 65.57C41.16 65.19 44.2399 63.95 44.3699 65.31C44.4399 66.09 43.39 66.15 42.95 66.37C41.63 67.03 40.27 68.02 39.53 69.32C39.35 69.63 38.9299 70.84 39.5999 70.48C39.6999 70.42 40.65 69.28 40.94 69.04C41.62 68.47 43.2199 67.38 44.0499 67.17C45.1499 66.89 46.4599 67.13 45.1199 68.24C44.07 69.1 42.59 69.66 41.44 70.63C40.94 71.06 40.63 71.76 41.57 71.56L45.03 69.25C47.68 68.41 47.2899 69.6 45.6599 70.87C45.2599 71.18 43.8599 71.91 43.6699 72.17C43.5799 72.3 43.52 72.77 43.58 72.82L43.57 72.81ZM9.24995 39.3599C8.30995 39.4499 7.16994 39.55 6.22994 39.45C5.37994 39.36 3.70993 38.63 5.03993 37.79C6.03993 37.82 7.07995 37.63 8.05995 37.81C8.30995 37.86 9.16993 38.18 9.28993 38.15C9.71993 38.05 9.26993 37.35 9.09993 37.16C8.20993 36.17 7.09996 36.79 5.93996 36.64C5.71996 36.61 4.93998 36.42 4.77998 36.31C4.50998 36.14 4.31996 35.51 4.56996 35.32C4.89996 35.07 7.66996 34.84 8.18996 34.89C8.53996 34.92 9.15993 35.35 9.15993 34.73C9.15993 33.72 6.74995 34.04 6.11995 33.98C5.70995 33.94 4.36994 33.68 4.16994 33.34C4.00994 33.07 3.98993 32.51 4.34993 32.41C5.33993 32.39 6.31995 32.21 7.30995 32.29C7.85995 32.33 9.72997 33.07 9.19997 31.89C8.85997 31.14 6.72997 31.23 6.01997 31.29C4.88997 31.39 3.88997 31.98 3.32997 32.98C2.17997 35.04 2.75996 39.65 3.37996 41.89C3.63996 42.82 4.00996 43.73 4.37996 44.63C4.53996 44.78 4.55997 44.62 4.57997 44.48C4.67997 43.8 4.75994 42.77 4.66994 42.1C4.59994 41.61 4.16995 41.29 4.61995 40.84C5.59995 39.86 9.14995 41.62 9.24995 39.35V39.3599ZM10.7999 33.7C10.5199 33.79 10.67 34.46 10.64 34.73C10.6 35.06 10.25 35.95 10.26 36.01C10.29 36.19 10.7 36.39 10.89 36.37C11.64 36.29 11.91 33.32 10.81 33.69L10.7999 33.7ZM6.25996 128.64C6.25996 128.64 6.14998 128.75 6.14998 128.89C6.14998 129.34 6.64996 129.43 6.75996 128.94C6.85996 128.51 6.93998 127.75 6.95998 127.3C7.19998 122.97 7.01995 118.14 7.05995 113.76C7.28995 90.27 7.41994 66.9 7.35994 43.38C7.31994 43.24 7.28995 42.47 7.24995 42.44C7.20995 42.4 6.50993 42.47 6.34993 42.44C6.23993 44.81 6.25995 47.18 6.24995 49.56C6.14995 68.73 6.20997 87.99 5.94997 107.18C6.33997 113.78 5.44997 120.96 5.94997 127.49C5.97997 127.94 6.24995 128.4 6.24995 128.63L6.25996 128.64ZM49.64 58.0799C49.81 58.0199 49.92 57.85 50.02 57.71C50.82 56.69 52.32 54.34 52.96 53.19C53.13 52.89 53.33 52.61 53.33 52.25C53.33 51.05 50.53 48.7 49.89 47.62L49.64 58.07V58.0799ZM45.8599 114.71C45.6899 114.54 42.13 115.62 41.63 115.8C41.24 115.94 40.27 116.25 40.15 116.61C39.97 117.15 40.22 118.58 40.31 119.2C40.9 122.98 41.94 126.75 41.56 130.66C41.4799 131.51 41.12 132.29 40.88 133.1C42.33 133.67 43.7799 134.61 44.7999 135.79C45.0299 136.06 45.69 137.17 45.89 137.19C46.31 137.23 48.11 135.93 48.33 135.55C48.54 135.19 48.3099 134.76 48.1699 134.4C47.9099 133.7 47.4499 132.99 47.1799 132.31C45.3999 127.77 45.5599 120.27 45.7299 115.34C45.7299 115.12 45.83 114.92 45.83 114.7L45.8599 114.71ZM23.8699 119.98C22.0299 119.98 20.1799 119.77 18.3499 119.57C18.2099 119.57 18.07 119.58 18.01 119.74C17.95 119.92 18.2799 121.52 18.2999 121.91C18.4099 123.77 18.3499 126.14 17.9699 127.96C17.7999 128.76 17.42 129.49 17.2 130.28C17.22 130.43 18.2 131.62 18.38 131.89C18.61 132.24 19.9 134.58 20.06 134.61C20.26 134.66 20.45 134.56 20.63 134.49C21.12 134.3 22.34 133.52 22.81 133.19C22.99 133.06 24.02 132.24 24.06 132.15C24.2 131.75 23.5299 129.02 23.4799 128.29C23.3899 126.97 23.51 125.16 23.58 123.8C23.65 122.53 23.86 121.25 23.88 119.97L23.8699 119.98ZM15.9799 131.24C15.8799 131.27 14.8899 132.07 14.9099 132.17C15.7599 132.78 16.47 133.45 17 134.36C17.18 134.67 17.44 135.51 17.64 135.71C17.82 135.89 18.33 135.59 18.38 135.44C18.46 135.17 17.2699 132.82 17.0399 132.43C16.8799 132.17 16.2999 131.15 15.9699 131.24H15.9799ZM13.4 133.04C13.26 133.08 12.3 133.61 12.33 133.76C12.35 133.85 13.3899 134.86 13.5999 135.18C13.7399 135.4 13.9299 135.7 14.0399 135.94C14.1799 136.24 14.22 136.97 14.56 137C14.9 137.03 16.23 136.82 16.09 136.28C16.03 136.05 15.1 134.57 14.9 134.28C14.6 133.86 13.94 132.9 13.4 133.04ZM24.6599 134.33C24.3999 134.15 23.6299 134.96 23.3499 135.14C20.2399 137.16 11.3999 140.37 7.84993 139.55C7.40993 139.45 7.06996 139.23 6.68996 139.12C6.53996 139.08 6.41998 139.04 6.45998 139.25C7.15998 139.91 7.72997 140.22 8.69997 140.3C13.36 140.66 18.3799 137.6 22.8499 136.54C23.3699 136.25 23.9999 136.08 24.3699 135.58C24.5399 135.35 24.9399 134.54 24.6599 134.35V134.33ZM11.01 136.38C10.86 136.53 10.4499 136.47 10.2399 136.55C9.87994 136.68 7.58994 137.95 8.98994 137.9C9.50994 137.88 11.82 137.54 12.27 137.39C12.76 137.23 12.6299 137.03 12.4099 136.67C12.2099 136.34 10.93 134.58 10.71 134.49C10.37 134.35 9.50998 134.71 9.14998 134.87C8.18998 135.27 6.88993 136.02 6.65993 137.11C7.28993 137.18 7.61993 136.53 8.15993 136.17C8.80993 135.74 10.4 135.07 11.07 135.6C11.21 135.72 11.13 136.27 11.01 136.38ZM44.46 138.38C44.67 138.04 43.4 136.68 43.13 136.4C42.46 135.71 41.1899 134.54 40.2399 134.42C39.3899 134.31 38.3099 134.74 38.1099 135.6C39.7199 135.83 41.19 136.6 42.52 137.51C42.82 137.72 43.64 138.48 43.88 138.55C44 138.58 44.4399 138.42 44.4699 138.38H44.46ZM41.96 139.58C42.01 139.49 41.99 139.36 41.96 139.27C41.88 139.04 40.39 137.91 40.09 137.75C37.87 136.55 35.2299 136.97 33.3699 138.6C32.9699 138.95 31.91 139.8 32.64 140.24C33.29 140.63 33.55 139.86 34.02 139.45C34.53 139.01 35.8099 138.25 36.4699 138.21C36.5899 138.21 37.37 138.37 37.4 138.41C37.75 138.93 36.55 139.23 36.32 139.36C35.72 139.69 34.9699 140.15 34.9199 140.89C35.2299 140.91 35.74 141.11 36.02 140.94C36.09 140.9 36.6299 139.91 36.9099 139.64C37.2899 139.27 39.26 137.62 39.65 138.4C40 139.1 39.2399 139.44 38.9099 139.85C38.6299 140.18 38.4299 140.59 38.1099 140.89C38.6999 140.86 41.7599 139.94 41.9699 139.58H41.96ZM48.25 138.1C48.15 138 46.44 139.23 46.19 139.37C42.37 141.59 39.1599 142.79 34.6599 142.58C34.2499 142.56 33.76 142.44 33.34 142.41C33.23 142.41 33 142.29 33.02 142.48C36.26 143.72 39.5999 142.92 42.6699 141.63C44.0999 141.03 47.0899 139.61 48.0499 138.45C48.1399 138.34 48.29 138.29 48.25 138.1Z" fill="#020101"/>
<path d="M39.0999 58.6698C39.3499 58.8398 39.57 58.3598 39.68 58.1998C40.46 57.0498 41.3199 55.2398 41.9099 53.9598C43.4399 50.5798 44.52 46.9998 45.52 43.4398C45.7 43.2198 45.94 43.4198 46.12 43.5398C46.4 43.7398 48.1099 45.5498 48.1599 45.7798C48.1499 46.4798 48.1799 47.1798 48.1599 47.8698C48.1199 49.5398 47.8999 51.2598 47.8499 52.9398C47.7899 55.3398 47.95 57.7598 47.7999 60.1598C46.5999 61.2798 44.84 61.3098 43.32 61.7498C41.43 62.2998 38.8399 63.5098 37.5999 65.0898C36.9399 65.9298 36.5999 67.1098 37.3499 68.0198C37.5399 68.2398 38.0799 68.4098 38.0999 68.4898C38.1699 68.7698 37.85 69.3198 37.81 69.6798C37.73 70.3698 37.7699 71.8198 38.5399 72.1198C38.7899 72.2198 39.0799 72.1698 39.2899 72.2598C39.5199 72.3698 39.85 73.0398 40.45 73.2898C40.84 73.4598 41.3 73.4298 41.58 73.5498C41.86 73.6698 42.1599 74.3398 42.5999 74.5198C44.0099 75.0798 46.4099 73.1198 47.8499 72.8998L47.95 82.3098C48.32 91.1998 49.6599 100.07 49.8499 108.98C49.8599 109.46 49.93 111.18 49.77 111.5C49.64 111.77 49.29 111.78 49.03 111.85C46.54 112.53 44.01 112.68 41.51 113.48C38.62 114.4 35.8399 115.84 32.9799 116.79C28.0299 118.45 22.2899 118.05 17.1599 117.39C16.3999 117.29 14.83 117.42 14.34 116.73C13.85 116.04 14.29 114.31 14.33 113.46C14.48 110.25 14.37 107.01 14.53 103.8C14.87 96.5798 16.4499 89.2198 16.7199 82.0098C16.9199 76.6498 15.69 71.2998 16.43 65.9398C16.87 65.8398 17.33 65.7799 17.77 65.6399C26.47 62.6799 34.53 50.0798 38.33 42.1098C40.36 37.8498 41.75 33.3698 43.39 28.9598C43.48 28.7198 43.65 27.8598 43.69 27.8198C43.94 27.5798 45.38 28.5898 45.65 28.7898C45.87 28.9498 47.0199 29.8298 46.9699 30.0498C45.7399 30.6398 45.4599 31.8598 45.1099 33.0698C44.0299 36.7998 43.94 40.9298 43.14 44.7398C42.19 49.2798 40.53 53.7798 39.03 58.1498C38.99 58.2398 39.0899 58.6598 39.1099 58.6698H39.0999ZM36.4099 73.5998C36.1899 73.5998 35.93 73.5299 35.76 73.6998C32.64 78.7698 30.0199 84.3198 26.1099 88.8298C24.5699 90.6098 22.33 92.3398 20.99 94.0598C19.95 95.3898 21.52 94.7699 22.21 94.3899C27.78 91.2899 33.4299 82.6498 35.6099 76.7398C35.7599 76.3398 36.59 73.7898 36.4 73.5998H36.4099ZM39.15 79.5798C38.92 79.7998 38.6799 80.0798 38.5499 80.3798C37.9399 81.7898 37.55 83.8698 37.01 85.4098C34.71 91.8898 30.07 101.26 25.62 106.46C25.24 106.91 24.33 107.57 24.15 108.08C24.1 108.21 24.0099 108.28 24.1699 108.4C24.7399 108.61 25.1999 108.15 25.6099 107.85C31.2199 103.67 35.9599 93.0698 37.9699 86.4698C38.4199 85.0098 39.56 81.2898 39.4 79.9298C39.38 79.7598 39.38 79.5798 39.15 79.5898V79.5798Z" fill="#E43600"/>
<path d="M43.5699 72.8101C43.5199 72.7601 43.5699 72.2901 43.6599 72.1601C43.8399 71.9001 45.2499 71.18 45.6499 70.8601C47.2799 69.5801 47.6699 68.4001 45.0199 69.2401L41.5599 71.5501C40.6199 71.7601 40.9299 71.0501 41.4299 70.6201C42.5799 69.6501 44.0599 69.0801 45.1099 68.2301C46.4599 67.1201 45.1499 66.8901 44.0399 67.1601C43.2099 67.3701 41.6099 68.4501 40.9299 69.0301C40.6399 69.2701 39.69 70.4201 39.59 70.4701C38.92 70.8301 39.3499 69.6201 39.5199 69.3101C40.2599 68.0101 41.6299 67.03 42.9399 66.3601C43.3799 66.14 44.4299 66.0801 44.3599 65.3001C44.2299 63.9301 41.1499 65.1701 40.4499 65.5601C40.0299 65.7901 38.7899 66.9801 38.6199 67.0201C38.2799 67.1101 38.2499 66.8201 38.3599 66.5601C38.4599 66.3301 39.34 65.5801 39.59 65.4001C41.78 63.7401 43.5699 63.7301 46.0699 63.1201C49.3999 62.3101 50.9399 59.6201 52.7199 56.9301C53.3099 56.0401 55.2599 53.1501 55.2999 52.2401C55.3199 51.8101 54.8499 50.9401 54.6299 50.5401C53.7899 49.0201 52.3199 47.4601 51.1299 46.1801C49.4299 44.3401 47.5599 42.6401 45.8699 40.7901L46.4599 35.1501C46.7399 33.8701 46.9199 32.2801 47.4599 31.0801C47.5199 30.9601 47.59 30.6701 47.78 30.7101C48.01 30.7601 49.7699 33.4001 50.1299 33.8401C53.0599 37.3901 56.2299 40.7201 58.8099 44.5701C59.9499 46.2801 62.1599 49.6001 61.9699 51.6601C61.7399 54.1501 56.2699 60.2101 54.4599 62.2601C53.3999 63.4601 52.1799 64.4801 51.2999 65.8701C50.5899 66.9901 50.0199 68.8201 49.1799 69.7201C48.6699 70.2701 44.96 72.6401 44.28 72.7801C44.15 72.8101 43.5799 72.8301 43.5599 72.8001L43.5699 72.8101Z" fill="#7A4421"/>
<path d="M9.1499 46.73C9.1499 46.5 9.32988 46.31 9.49988 46.53C10.3999 47.73 11.0899 49.09 12.0799 50.22C12.4199 50.6 13.6699 52.06 13.7299 50.86C13.7899 49.66 12.2799 47.74 11.9499 46.61C14.2999 43.79 14.8499 40.15 16.1399 36.86C18.2099 31.57 21.2798 30.92 26.2198 29.22C26.4698 29.13 27.1999 28.75 27.3299 28.74C27.9399 28.68 27.4399 30.61 28.3499 30.77C29.0499 30.9 29.2399 29.15 29.2499 28.67C29.2699 28.03 29.0099 27.55 29.0499 26.93H30.6899C31.6199 26.93 34.5899 25.56 35.3599 24.94C35.6699 24.69 36.7499 23.39 37.0399 23.46C37.4499 23.55 37.3799 25.27 37.4399 25.65C37.5499 26.26 38.1799 26.83 37.6799 27.37C34.6799 29.35 31.9799 31.69 29.2699 34.04C26.4399 36.49 23.7199 39 20.5499 41.09C20.4299 41.17 19.5799 41.82 19.5799 41.42V37.54C19.5799 36.69 18.5899 36.67 18.2399 37.49C17.7999 38.52 17.8799 40.89 17.7799 42.12C17.7599 42.33 17.8799 42.55 17.8599 42.71C17.8399 42.87 17.2399 43.71 17.1099 44.03C16.7899 44.77 16.7699 45.49 16.6999 46.26C16.6399 46.95 16.5899 47.59 16.5999 48.3C16.5999 48.47 16.5399 48.74 16.6999 48.85C16.6899 49.34 16.7299 50.54 16.5499 50.94C16.4699 51.12 15.9899 51.45 15.8199 51.7C14.8099 53.27 14.7599 54.96 13.1199 56.47C11.6999 57.77 10.0299 57.23 9.13989 55.72V46.76L9.1499 46.73Z" fill="#7A4421"/>
<path d="M17.11 63.75C16.85 62.96 16.9599 62.12 16.9099 61.31C16.7599 59.18 16.68 57.08 16.81 54.93C16.83 54.52 16.94 54.1 16.96 53.69C17.89 53.28 18.92 53.14 19.84 52.68C21.56 51.82 23.8 49.86 25.28 48.56C30.52 43.98 35.32 38.37 38.33 32.05C38.8 31.06 39.87 28.01 40.65 27.5C41.19 27.15 42.32 27.11 42.07 28.02C41.96 28.43 41.4099 29.36 41.2199 29.86C39.3799 34.59 38.0399 39.54 35.5399 43.99C32.5399 49.33 28.28 55.55 23.63 59.55C22.06 60.9 19.43 62.81 17.55 63.62C17.41 63.68 17.28 63.76 17.12 63.73L17.11 63.75Z" fill="#E43600"/>
<path d="M30.9 16.2999C30.31 15.5299 29.97 16.6099 29.77 16.7699C29.23 17.1999 27.2 17.2199 26.91 16.5599C26.63 15.9499 27.33 14.7699 27.64 14.2099C27.9 13.7399 28.95 12.3199 28.95 11.9399C28.95 11.3399 28.72 11.0099 28.1 11.0799C27.28 11.1699 26.87 12.8799 26.4 13.0599C26.13 13.1699 26.11 12.7999 25.86 12.6299C25.61 12.4599 24.87 12.3599 24.82 12.2799C24.7 12.1199 25.05 10.4599 25.2 10.3099C25.43 10.0799 26.44 10.2499 26.87 10.1399C27.48 9.97988 28 9.41986 27.94 8.76986C27.86 7.84986 27.15 7.84986 26.37 7.79986C26.62 6.48986 27.98 4.75988 29.22 4.22988C30.11 3.84988 30.55 4.01988 31.39 3.91988C32.15 3.81988 32.9 3.58986 33.68 3.61986C35.19 3.67986 38.72 4.68987 38.99 6.46987C39.29 8.39987 38.37 10.5799 38.3 12.5299C38.28 13.1599 38.26 14.3699 39.15 14.2799C39.61 14.2299 40 13.4199 40.56 13.2999C40.88 13.2299 41.88 13.2799 42.14 13.4699C42.33 13.6099 42.69 14.6599 42.69 14.9199C42.69 15.4399 42.11 17.3099 41.53 17.3599C41.14 17.3899 40.44 16.5599 39.55 16.6699C38.24 16.8299 37.94 18.3399 37.04 19.0299C36.33 19.5699 35.37 19.9999 34.47 19.9499C33.36 19.8899 33.34 19.3599 32.62 18.8099C32.34 18.5999 31.39 18.1999 31.33 18.1099C31.15 17.8699 31.24 16.7299 30.91 16.2899L30.9 16.2999ZM30.56 9.87987C30.75 10.0999 31.99 9.97986 32.36 10.0199C33.13 10.0899 34.46 10.7199 35.11 10.4499C35.92 10.1099 35.2 9.05986 34.77 8.70986C34.03 8.10986 31.65 7.82987 30.89 8.30987C30.45 8.58987 30.26 9.52987 30.57 9.87987H30.56ZM34.21 12.7999C34.01 12.5699 30.94 12.3299 30.64 12.6399C30.18 13.1099 31.2 14.1099 31.63 14.2399C32.2 14.4099 34.01 13.9299 34.2 13.3199C34.23 13.2199 34.26 12.8599 34.21 12.7999ZM41.86 14.7599C42.17 14.2299 41.55 13.6799 40.99 13.8299C40.36 13.9999 39.5 14.9199 39.72 15.6099C39.82 15.9399 40.75 16.3899 41.13 16.2599C41.52 16.1199 41.37 15.3399 41.47 15.1099C41.58 14.8599 41.84 14.8199 41.87 14.7599H41.86Z" fill="#7A4421"/>
<path d="M45.8599 114.71C45.8599 114.93 45.7599 115.13 45.7599 115.35C45.5899 120.28 45.43 127.79 47.21 132.32C47.48 133.01 47.9499 133.71 48.1999 134.41C48.3299 134.77 48.5699 135.19 48.3599 135.56C48.1299 135.95 46.3399 137.24 45.9199 137.2C45.7099 137.18 45.05 136.07 44.83 135.8C43.81 134.61 42.3599 133.68 40.9099 133.11C41.1499 132.3 41.51 131.52 41.59 130.67C41.96 126.75 40.93 122.99 40.34 119.21C40.24 118.59 39.9999 117.16 40.1799 116.62C40.2999 116.25 41.2599 115.95 41.6599 115.81C42.1599 115.62 45.72 114.55 45.89 114.72L45.8599 114.71Z" fill="#7A4421"/>
<path d="M18.0999 51.21C18.2399 50.55 18.3499 49.84 18.3999 49.17C18.4899 47.95 18.3299 46.22 18.5099 45.1C18.5299 44.94 18.5899 44.81 18.6999 44.69C21.2899 42.76 23.9999 41 26.5099 38.96C30.4399 35.78 33.9199 32.01 38.1599 29.21C34.1399 36.68 28.6799 43.24 22.1399 48.61C21.6099 49.04 18.6299 51.56 18.1099 51.2L18.0999 51.21Z" fill="#E43600"/>
<path d="M6.25986 128.64C6.25986 128.41 5.98987 127.94 5.95987 127.5C5.45987 120.96 6.34987 113.79 5.95987 107.19C6.21987 87.9999 6.15986 68.74 6.25986 49.57C6.26986 47.19 6.24984 44.82 6.35984 42.45C6.51984 42.48 7.21986 42.41 7.25986 42.45C7.28986 42.48 7.31985 43.25 7.36985 43.39C7.42985 66.91 7.29986 90.2799 7.06986 113.77C7.02986 118.15 7.20982 122.98 6.96982 127.31C6.94982 127.76 6.85987 128.51 6.76987 128.95L6.26987 128.65L6.25986 128.64Z" fill="#C2511D"/>
<path d="M23.8699 119.98C23.8499 121.26 23.6299 122.53 23.5699 123.81C23.4999 125.17 23.3799 126.97 23.4699 128.3C23.5199 129.03 24.1899 131.76 24.0499 132.16C24.0199 132.26 22.9799 133.08 22.7999 133.2C22.3299 133.53 21.1099 134.31 20.6199 134.5C20.4399 134.57 20.2599 134.66 20.0499 134.62C19.8899 134.58 18.5999 132.25 18.3699 131.9C18.1899 131.63 17.2099 130.44 17.1899 130.29C17.4099 129.5 17.79 128.78 17.96 127.97C18.35 126.15 18.3999 123.79 18.2899 121.92C18.2699 121.52 17.9399 119.93 17.9999 119.75C18.0499 119.59 18.2 119.58 18.34 119.58C20.17 119.78 22.0199 119.99 23.8599 119.99L23.8699 119.98Z" fill="#7A4421"/>
<path d="M8.04993 18.2599L7.84991 16.8199C7.91991 14.1999 7.79995 11.5999 7.44995 9.00988C6.88995 8.63988 6.52992 10.4199 6.47992 10.7499C6.16992 12.7199 6.17992 14.9199 6.16992 16.8999C6.16992 17.4499 6.16992 17.9999 6.16992 18.5499C5.93992 18.5999 6.00995 18.5199 5.94995 18.4199C5.33995 17.4599 4.10997 15.7199 3.77997 14.7199C3.16997 12.8599 4.79995 9.79986 5.44995 8.01986C5.99995 6.51986 6.37993 4.94988 7.11993 3.50988C7.27993 3.46988 7.31993 3.63987 7.36993 3.74987C7.80993 4.65987 8.26996 6.20986 8.57996 7.20986C9.10995 8.88986 9.87995 11.2699 10.2 12.9599C10.34 13.7199 10.31 14.2599 10.03 14.9899C9.84997 15.4799 8.64996 17.6599 8.33996 18.0699C8.24996 18.1799 8.23994 18.2699 8.05994 18.2299L8.04993 18.2599Z" fill="#A69488"/>
<path d="M9.24994 39.3598C9.14994 41.6298 5.58993 39.8699 4.61993 40.8499C4.16993 41.2999 4.59992 41.6098 4.66992 42.1098C4.75992 42.7798 4.66995 43.8098 4.57995 44.4898C4.55995 44.6298 4.53994 44.7899 4.37994 44.6399C4.00994 43.7499 3.63994 42.8398 3.37994 41.8998C2.74994 39.6598 2.16995 35.0498 3.32995 32.9898C3.88995 31.9898 4.88996 31.3998 6.01996 31.2998C6.72996 31.2398 8.85995 31.1498 9.19995 31.8998C9.72995 33.0798 7.85994 32.3398 7.30994 32.2998C6.31994 32.2198 5.33991 32.3999 4.34991 32.4199C3.98991 32.5199 4.00992 33.0799 4.16992 33.3499C4.36992 33.6899 5.70993 33.9498 6.11993 33.9898C6.74993 34.0498 9.14991 33.7298 9.15991 34.7398C9.15991 35.3598 8.54994 34.9298 8.18994 34.8998C7.65994 34.8598 4.89994 35.0798 4.56994 35.3298C4.31994 35.5198 4.50997 36.1499 4.77997 36.3199C4.93997 36.4199 5.71994 36.6198 5.93994 36.6498C7.09994 36.7998 8.20991 36.1799 9.09991 37.1699C9.26991 37.3599 9.71992 38.0499 9.28992 38.1599C9.16992 38.1899 8.30994 37.8599 8.05994 37.8199C7.07994 37.6299 6.04992 37.8198 5.03992 37.7998C3.70992 38.6398 5.36992 39.3698 6.22992 39.4598C7.17992 39.5598 8.30994 39.4598 9.24994 39.3698V39.3598Z" fill="#7A4421"/>
<path d="M26.2298 18.7801C27.4198 18.5301 28.6298 19.1501 29.7198 19.4301C30.3498 19.5901 30.9299 19.6501 31.5599 19.7801C32.3899 20.3701 32.6499 21.5501 31.7699 22.2301C30.5899 23.1401 29.4598 22.7201 28.0998 22.7401C27.5498 22.7401 27.2299 22.9601 26.5899 22.7701C26.0299 22.6001 25.2398 21.8001 24.9798 21.2901C24.5098 20.3301 25.1998 19.0001 26.2298 18.7901V18.7801ZM25.8299 19.7701C24.9999 20.0201 26.2399 20.9501 26.5799 21.0701C27.0399 21.2301 27.2198 21.2901 27.6598 21.4901C28.6798 21.9301 29.2499 21.5101 30.1399 21.2001C30.4399 21.0901 30.8599 21.2601 30.9399 20.8001C31.0599 20.0901 30.2499 20.0901 29.6999 20.0501C29.0099 20.0001 28.3199 20.1801 27.7099 20.1601C27.1599 20.1401 26.2699 19.6501 25.8399 19.7801L25.8299 19.7701Z" fill="#7A4421"/>
<path d="M41.96 139.58C41.75 139.93 38.6899 140.86 38.0999 140.89C38.4199 140.59 38.62 140.18 38.9 139.85C39.24 139.45 39.99 139.1 39.64 138.4C39.25 137.62 37.28 139.27 36.9 139.64C36.62 139.91 36.08 140.9 36.01 140.94C35.73 141.11 35.2199 140.91 34.9099 140.89C34.9699 140.15 35.71 139.69 36.31 139.36C36.54 139.23 37.74 138.93 37.39 138.41C37.36 138.37 36.58 138.2 36.46 138.21C35.8 138.24 34.52 139.01 34.01 139.45C33.53 139.86 33.28 140.63 32.63 140.24C31.91 139.8 32.97 138.95 33.36 138.6C35.23 136.97 37.87 136.55 40.08 137.75C40.38 137.91 41.87 139.04 41.95 139.27C41.98 139.36 42 139.49 41.95 139.58H41.96Z" fill="#7A4421"/>
<path d="M24.6599 134.33C24.9399 134.53 24.5399 135.34 24.3699 135.56C23.9999 136.06 23.3699 136.23 22.8499 136.52C18.3799 137.59 13.3599 140.65 8.69992 140.28C7.72992 140.2 7.15992 139.9 6.45992 139.23C6.41992 139.02 6.53991 139.06 6.68991 139.1C7.06991 139.21 7.41988 139.43 7.84988 139.53C11.3999 140.35 20.2399 137.14 23.3499 135.12C23.6299 134.94 24.3999 134.13 24.6599 134.31V134.33Z" fill="#7A4421"/>
<path d="M44.4599 138.38C44.4599 138.38 43.9999 138.59 43.8699 138.55C43.6299 138.48 42.8199 137.72 42.5099 137.51C41.1799 136.6 39.7099 135.83 38.0999 135.6C38.2999 134.74 39.3799 134.31 40.2299 134.42C41.1899 134.54 42.4599 135.71 43.1199 136.4C43.3899 136.68 44.6599 138.04 44.4499 138.38H44.4599Z" fill="#7A4421"/>
<path d="M39.6699 18.88C40.6599 18.76 41.2499 20.17 41.1899 21.01C41.0099 23.57 37.2799 22.92 38.1999 20.3C38.3399 19.89 39.2399 18.93 39.6699 18.88Z" fill="#C2511D"/>
<path d="M11.0099 136.38C11.1299 136.26 11.2099 135.71 11.0699 135.6C10.3999 135.06 8.79991 135.74 8.15991 136.17C7.61991 136.53 7.28991 137.17 6.65991 137.11C6.88991 136.02 8.17996 135.28 9.14996 134.87C9.50996 134.72 10.38 134.36 10.71 134.49C10.93 134.58 12.2199 136.35 12.4099 136.67C12.6299 137.03 12.76 137.23 12.27 137.39C11.81 137.54 9.50993 137.88 8.98993 137.9C7.58993 137.95 9.87993 136.68 10.2399 136.55C10.4599 136.47 10.8599 136.53 11.0099 136.38Z" fill="#7A4421"/>
<path d="M13.4 133.04C13.93 132.9 14.6 133.86 14.9 134.28C15.1 134.56 16.03 136.05 16.09 136.28C16.23 136.82 14.91 137.02 14.56 137C14.21 136.98 14.18 136.24 14.04 135.94C13.93 135.7 13.75 135.4 13.6 135.18C13.39 134.86 12.35 133.85 12.33 133.76C12.3 133.62 13.26 133.08 13.4 133.04Z" fill="#7A4421"/>
<path d="M48.25 138.1C48.29 138.29 48.14 138.34 48.05 138.45C47.1 139.61 44.11 141.03 42.67 141.63C39.6 142.92 36.26 143.72 33.02 142.48C33 142.29 33.23 142.4 33.34 142.41C33.76 142.45 34.25 142.57 34.66 142.58C39.16 142.79 42.37 141.59 46.19 139.37C46.44 139.23 48.15 138 48.25 138.1Z" fill="#7A4421"/>
<path d="M26.0599 13.5898C25.8399 14.1098 25.4299 14.7099 25.2899 15.2599C25.2299 15.4699 25.1699 15.8999 25.1599 16.1299C25.1399 16.4799 25.3099 17.2799 25.2199 17.4799C25.1899 17.5399 24.1399 18.2899 24.0699 18.3199C23.9399 18.3799 23.8199 18.3798 23.6699 18.3698L24.2499 14.1498C24.9099 14.0898 25.4299 13.7699 26.0499 13.5999L26.0599 13.5898Z" fill="#7A4421"/>
<path d="M15.98 131.24C16.31 131.15 16.89 132.17 17.05 132.43C17.28 132.82 18.47 135.17 18.39 135.44C18.35 135.59 17.83 135.88 17.65 135.71C17.45 135.51 17.19 134.67 17.01 134.36C16.47 133.45 15.77 132.78 14.92 132.17C14.9 132.07 15.88 131.27 15.99 131.24H15.98Z" fill="#7A4421"/>
<path d="M6.45995 23.09C6.45995 22.94 6.24995 22.73 6.70995 22.64C7.78995 22.43 7.19995 23.34 7.14995 23.88C6.95995 25.68 7.39993 27.68 7.25993 29.51H6.45995C6.45995 27.37 6.44995 25.23 6.45995 23.09Z" fill="#C2511D"/>
<path d="M10.8 33.6999C11.9 33.3299 11.63 36.2999 10.88 36.3799C10.69 36.3999 10.29 36.1998 10.25 36.0198C10.24 35.9498 10.59 35.0698 10.63 34.7398C10.66 34.4698 10.5099 33.7998 10.7899 33.7098L10.8 33.6999Z" fill="#7A4421"/>
<path d="M8.04992 20.1499C8.26992 20.7599 6.22991 20.8199 6.15991 20.7499C6.12991 20.7199 6.15996 20.4399 6.20996 20.3499C6.38996 20.0499 7.67992 20.1099 8.04992 20.1499Z" fill="#C2511D"/>
<path d="M16.71 48.82C16.54 48.72 16.61 48.44 16.61 48.27C16.61 47.56 16.65 46.91 16.71 46.23C16.69 47.09 16.73 47.96 16.71 48.82Z" fill="#C2511D"/>
<path d="M6.75989 128.94C6.64989 129.43 6.1499 129.33 6.1499 128.89C6.1499 128.76 6.25989 128.66 6.25989 128.64L6.75989 128.94Z" fill="#7A4421"/>
<path d="M39.1499 79.58C39.3799 79.58 39.3799 79.7501 39.3999 79.9201C39.5599 81.2801 38.4199 85.0001 37.9699 86.4601C35.9599 93.0601 31.2199 103.66 25.6099 107.84C25.1999 108.15 24.7399 108.6 24.1699 108.39C24.0099 108.27 24.0999 108.2 24.1499 108.07C24.3199 107.56 25.2299 106.9 25.6199 106.45C30.0699 101.25 34.7099 91.8801 37.0099 85.4001C37.5499 83.8601 37.9399 81.7801 38.5499 80.3701C38.6799 80.0801 38.9099 79.7901 39.1499 79.5701V79.58Z" fill="#020101"/>
<path d="M36.4099 73.5999C36.5899 73.7799 35.7699 76.3299 35.6199 76.7399C33.4299 82.6399 27.7899 91.2899 22.2199 94.3899C21.5299 94.7699 19.9599 95.3999 20.9999 94.0599C22.3399 92.3399 24.5899 90.6099 26.1199 88.8299C30.0199 84.3199 32.6499 78.7699 35.7699 73.6999C35.9399 73.5399 36.1999 73.6099 36.4199 73.5999H36.4099Z" fill="#020101"/>
<path d="M30.5599 9.87996C30.2499 9.52996 30.4399 8.58995 30.8799 8.30995C31.6399 7.82995 34.0299 8.09995 34.7599 8.70995C35.1899 9.06995 35.9098 10.11 35.0998 10.45C34.4498 10.72 33.1198 10.0899 32.3498 10.0199C31.9698 9.97995 30.7298 10.1 30.5498 9.87996H30.5599Z" fill="#020101"/>
<path d="M34.21 12.7999C34.26 12.8599 34.23 13.2099 34.2 13.3199C34.01 13.9299 32.19 14.4099 31.63 14.2399C31.2 14.1099 30.17 13.1099 30.64 12.6399C30.94 12.3299 34.02 12.5699 34.21 12.7999Z" fill="#020101"/>
<path d="M41.86 14.76C41.83 14.82 41.57 14.86 41.46 15.11C41.36 15.34 41.52 16.12 41.12 16.26C40.75 16.39 39.81 15.94 39.71 15.61C39.5 14.92 40.36 14 40.98 13.83C41.54 13.68 42.16 14.23 41.85 14.76H41.86Z" fill="#020101"/>
<path d="M25.8299 19.7701C26.2699 19.6401 27.1499 20.1401 27.6999 20.1501C28.3099 20.1701 28.9999 20.0001 29.6899 20.0401C30.2399 20.0801 31.0499 20.0801 30.9299 20.7901C30.8499 21.2501 30.4399 21.0801 30.1299 21.1901C29.2499 21.5001 28.6799 21.9301 27.6499 21.4801C27.2099 21.2901 27.0399 21.2301 26.5699 21.0601C26.2299 20.9401 24.9899 20.0101 25.8199 19.7601L25.8299 19.7701Z" fill="#020101"/>
</svg>
