<svg width="69" height="80" viewBox="0 0 69 80" fill="none" xmlns="http://www.w3.org/2000/svg">
<path d="M31.8101 69.0101C31.8601 70.0801 32.03 71.1501 32.29 72.1901C32.51 73.0801 33.04 74.11 32.99 75.0201C32.73 79.72 21.63 80.3101 20.03 76.6901C19.72 75.9701 19.93 75.7901 19.9 75.2001C19.74 71.7401 19.1399 68.2601 18.8199 64.8101C18.6899 64.4801 17.59 63.8101 17.24 63.5001C12.87 59.7301 9.33005 51.9001 12.1801 46.3401C12.8701 44.9901 13.88 44.1101 15.2 43.3901L15.01 40.7101C12.38 38.1701 10.49 34.6501 10.88 30.8901L8.48999 31.1701C6.26999 31.1801 7.64995 29.4501 8.44995 28.5401C6.40995 28.6101 4.34 28.2601 2.38001 27.7001C1.41 27.4201 -0.249961 27.1701 1.04004 25.9601C2.82004 24.2901 5.83004 23.9801 8.17004 24.0201C7.82004 23.4801 6.84004 20.6801 7.42004 20.3101C8.40004 19.6901 10.93 21.7201 11.6 22.4401C11.85 22.7101 12.0601 23.0801 12.3101 23.3601L12.96 24.4701C12.95 24.0701 12.98 23.6601 12.96 23.2501C12.84 20.6601 12.61 16.7501 11.98 14.3001C11.75 13.4001 11.11 12.4501 11.27 11.5301C11.32 11.2701 11.52 11.0501 11.52 10.7901C11.55 9.02006 10.57 6.55007 10.52 4.74007C10.46 2.67007 14.2699 1.99006 15.8199 1.81006C17.8299 1.58006 22.73 1.23006 22.98 4.01006C23.15 5.89006 22.96 8.23006 23.26 10.0501C23.32 10.4201 23.72 10.6301 23.79 11.1501C24.06 13.1401 24.03 15.2101 24.35 17.2701C24.37 17.4201 24.38 17.8101 24.52 17.8701C24.6 15.1901 25.3 12.4601 26.67 10.1501C25.04 8.89006 24.07 6.93007 24.46 4.85007C25.22 0.760068 30.4699 -0.729942 33.1899 2.48006C33.3299 2.64006 33.73 3.39006 33.87 3.40006C38.66 1.69006 44.3 1.55006 49.12 3.25006C51.87 -1.79994 59.5 0.0600586 59.02 6.09006C58.91 7.45006 58.17 8.60006 57.3 9.61006C58.44 11.6601 59.26 13.9001 59.62 16.2301C59.98 18.5601 59.99 20.6301 59.51 22.9301C59.41 23.4201 59.09 24.1201 59.05 24.5501C58.89 26.3901 62.65 33.1701 63.6 35.2701C65.47 39.3601 67.25 43.8501 68.1 48.2901C70.6 61.3501 62.26 67.3201 50.55 69.2401C44.32 70.2601 38.02 70.2201 31.83 68.9801L31.8101 69.0101ZM55.8199 7.61006C58.0299 4.05006 54.0401 1.06006 51.3101 4.31006C52.4401 4.96006 53.5701 5.62006 54.5601 6.48006C54.7401 6.64006 55.6799 7.71006 55.8199 7.61006ZM31.8101 4.89006C31.8901 4.78006 31.09 4.00006 30.95 3.90006C28.9 2.38006 26.22 4.14007 27.02 6.57007C27.15 6.96007 27.77 8.07006 28.23 7.97006C29.25 6.77006 30.4201 5.64006 31.8101 4.89006ZM20.51 4.54006C18.65 4.11006 16.62 4.16006 14.76 4.59006C14.45 4.66006 13.4 4.93006 13.21 5.11006C12.97 5.33006 13.87 8.99006 13.75 9.58006C14.45 9.51006 15.1101 9.26006 15.8101 9.15006C17.5201 8.88006 19.09 8.97007 20.79 9.21007L20.51 4.52007V4.54006ZM40.8101 4.65006C34.5501 5.03006 30.07 7.35005 27.83 13.4301C24.96 21.1801 27.92 29.6201 36.39 31.6001C46.99 34.0801 59.41 29.0501 57.13 16.3701C55.57 7.74006 49.2899 4.15007 40.8199 4.66007L40.8101 4.65006ZM22.6 25.4901L21.29 12.1201C19.05 11.0401 16.2201 11.4301 13.9301 12.2101C14.3101 13.6001 14.65 14.9701 14.83 16.4101C15.04 18.1201 15.17 20.0101 15.28 21.7401C15.35 22.7401 15.37 23.7601 15.37 24.7601C17.84 24.2001 20.29 24.4501 22.59 25.4801L22.6 25.4901ZM11.9399 25.5801C11.4799 24.0901 10.21 22.6601 8.78003 22.0601C9.09003 23.7701 10.4099 24.9201 11.9399 25.5801ZM10.95 26.7501C8.47995 25.1001 5.23002 24.9001 2.65002 26.4401C5.32002 27.2901 8.22995 27.5201 10.95 26.7501ZM53.29 32.5301C53.15 32.4101 51.35 33.3401 51.03 33.4701C43.27 36.6201 33.9 35.7801 26.76 31.4801C23.56 29.5501 19.78 25.6601 15.71 27.5701C11.8 29.4001 13.57 34.8801 15.74 37.4401C22.45 45.3701 33.2299 43.8201 41.8199 40.2401C45.2999 38.7901 50.72 35.7501 53.11 32.8401C53.19 32.7401 53.33 32.6901 53.29 32.5201V32.5301ZM11.49 28.2901C10.54 28.4501 9.58005 28.9201 9.05005 29.7301C9.18005 29.8301 10.8799 29.6101 11.0699 29.4701C11.1599 29.4101 11.38 28.4801 11.49 28.2901ZM53.83 65.9401C58.74 64.7801 63.47 62.1901 65.3 57.2301C66.7001 53.4201 65.8801 48.9701 64.8 45.1701C63.42 40.3101 61.2201 35.7301 58.9301 31.2601C57.6301 35.5701 55.08 39.6601 51.62 42.5501C46.08 47.1601 38.0201 48.1701 31.05 47.3301C29.97 47.2001 28.91 46.9401 27.83 46.8001L28.2 50.5801C32.74 52.8101 37.56 53.4101 42.59 53.2201C45.12 53.1201 47.5201 52.6301 50.05 53.2401C55.18 54.4801 57.6 59.6001 54.92 64.2901L53.8199 65.9501L53.83 65.9401ZM49.5699 39.1401C49.1699 39.2201 47.93 40.1901 48.6 40.5301C49.31 40.8801 50.9699 38.8701 49.5699 39.1401ZM44.51 42.1201C44.22 42.1501 43.2299 42.6601 43.2 42.9701C43.1199 43.8101 44.84 43.1001 44.97 42.6701C45.07 42.3201 44.86 42.0901 44.51 42.1201ZM25.4 49.0601C25.34 48.6301 25.25 46.2801 25.04 46.1201C23.36 45.6801 21.71 45.1001 20.16 44.3201C19.3 43.8901 18.51 43.3101 17.63 42.9201C17.75 43.4401 17.63 43.8701 18.04 44.2701C19.01 45.2401 21.38 46.7001 22.61 47.4701C23.51 48.0401 24.43 48.6001 25.4 49.0601ZM38.01 43.9301C36.85 44.1201 36.4799 45.1601 37.7 44.9701C38.79 44.8001 39.34 43.7201 38.01 43.9301ZM43.09 55.7401C40.82 55.8001 38.63 55.9101 36.37 55.6501C30.69 54.9901 25.2099 52.2001 20.4399 49.1901C19.1299 48.3601 17.76 47.2301 16.45 46.5001C15.65 46.0501 15.38 46.1601 14.79 46.9101C13.13 49.0501 13.76 53.0701 14.65 55.4401C15.79 58.4601 18.55 61.8401 21.51 63.2001C21.97 63.4101 24.29 64.2201 24.2 63.2201C24.14 62.5701 21.7199 61.5801 22.0699 60.4201C22.3099 59.6401 24.3 60.5301 24.87 60.6601C30.77 61.9401 34.27 58.9201 39.36 56.9501L43.09 55.7601V55.7401ZM46.05 59.1901C45.71 59.2201 44.3099 59.5501 44.5699 60.0701C44.7999 60.5201 46.5701 60.0501 46.6801 59.6401C46.8101 59.1801 46.37 59.1501 46.04 59.1901H46.05ZM37.88 61.1301C38.13 61.3501 40.03 61.1501 39.92 60.5801C39.78 59.8501 37.12 60.4801 37.88 61.1301ZM29.62 63.7101C29.4 63.4901 28.09 63.2901 27.84 63.5501C27.22 64.1601 29.42 64.7201 29.7 64.1401C29.76 64.0101 29.73 63.8101 29.63 63.7101H29.62ZM32.95 63.5201C32.79 63.5601 32.52 63.7301 32.52 63.9101C32.52 64.6001 35.0701 64.6101 34.5601 63.7701C34.4101 63.5201 33.24 63.4601 32.95 63.5201ZM44.0699 64.7501C44.1299 64.6501 44.11 64.2501 44 64.1701C43.71 63.9701 41.94 64.1701 42 64.8101C42.06 65.4501 43.9699 64.9101 44.0699 64.7501ZM36.97 64.8801C36.17 65.6501 38.8799 65.8701 38.9399 65.1701C38.9999 64.5201 37.26 64.6001 36.97 64.8801ZM29.1801 68.5701C26.6001 67.9401 24.06 67.1501 21.61 66.1201L22.24 71.8601C23.41 72.4201 24.51 72.4401 25.77 72.2201C26.45 72.1001 27.8 71.5301 28.34 71.5401C28.84 71.5401 29.22 72.0801 28.84 72.4901C28.63 72.7201 27.0899 73.1301 26.6899 73.2301C25.2399 73.5801 23.75 73.7501 22.34 73.1701C22.47 73.6501 22.32 75.3901 22.51 75.6601C22.86 76.1501 25.02 76.4801 25.63 76.5101C26.9 76.5601 29.44 76.2601 30.24 75.1601C30.65 74.5901 30.16 74.1101 29.99 73.5101C29.53 71.8901 29.3099 70.2601 29.1899 68.5701H29.1801Z" fill="#010101"/>
<path d="M40.8101 4.65002C49.2801 4.14002 55.57 7.73002 57.12 16.36C59.41 29.04 46.99 34.08 36.38 31.59C27.91 29.61 24.9499 21.17 27.8199 13.42C30.0699 7.35002 34.54 5.02002 40.8 4.64002L40.8101 4.65002ZM54.0699 12.15C50.8699 8.90002 45.06 8.65002 45.73 14.58C46.28 19.5 54.74 22.92 55.97 17.56C56.4 15.68 55.3699 13.48 54.0699 12.15ZM36.75 10.16C32.8 10.61 28.11 16.05 30.99 19.75C33.34 22.77 37.75 20.96 39.79 18.53C42.66 15.13 42.26 9.53003 36.74 10.16H36.75ZM43.8101 23.09V25.3C43.0801 25.36 42.35 25.19 41.74 24.8C41.25 24.49 40.3499 23.29 39.6999 23.94C39.0499 24.59 40.25 25.63 40.75 25.97C42.59 27.23 45.04 27.21 47.03 26.31C47.7 26.01 49.4099 25 48.9399 24.09C48.4199 23.09 47.6701 24.27 47.0601 24.62C46.8301 24.75 45.48 25.34 45.34 25.21C45.21 24.47 45.25 23.71 45.26 22.96C46.65 23.02 48.56 19.96 46.79 19.47C46.03 19.26 43.51 19.25 42.68 19.34C42.17 19.39 41.6699 19.69 41.5699 20.22C41.3299 21.55 42.7801 22.57 43.8101 23.09Z" fill="#FCFAF2"/>
<path d="M53.83 65.94L54.9301 64.28C57.6001 59.59 55.1901 54.47 50.0601 53.23C47.5301 52.62 45.13 53.11 42.6 53.21C37.57 53.41 32.75 52.81 28.21 50.57L27.84 46.79C28.91 46.93 29.9801 47.19 31.0601 47.32C38.0301 48.16 46.09 47.16 51.63 42.54C55.1 39.65 57.6499 35.56 58.9399 31.25C61.2299 35.72 63.4301 40.3 64.8101 45.16C65.8901 48.96 66.7101 53.41 65.3101 57.22C63.4801 62.18 58.75 64.78 53.84 65.93L53.83 65.94ZM59.59 39.41C58.96 39.55 59.24 40.31 59.37 40.77C59.51 41.27 59.9099 42.32 60.5699 41.66C60.9199 41.31 60.58 39.19 59.59 39.42V39.41ZM55.98 46.68C56.39 46.29 55.82 44.16 55.46 43.95C55.21 43.8 54.67 43.91 54.53 44.2C54.37 44.53 54.7499 46.02 54.9399 46.37C55.1399 46.74 55.64 47 55.98 46.68ZM49.66 47.91C49.5 47.76 48.9 47.74 48.73 47.88C48.36 48.17 48.86 49.89 49.14 50.19C49.51 50.59 50.3501 50.59 50.3101 49.84C50.2901 49.49 49.89 48.13 49.66 47.91ZM60.77 51.06C60.54 50.92 60.07 51.06 59.95 51.34C59.85 51.58 59.95 52.74 59.98 53.07C60.12 54.22 61.12 54.21 61.24 53.26C61.28 52.92 61.01 51.21 60.77 51.06ZM54.53 51.15C53.94 51.33 54.5901 53.21 55.0601 53.47C56.4301 54.19 55.76 51.47 55.09 51.18C54.92 51.11 54.7 51.1 54.52 51.15H54.53ZM60.85 57.38C60.34 57.5 59.3401 59.91 60.3101 60.06C61.1401 60.19 62.23 57.07 60.85 57.38Z" fill="#FCFAF2"/>
<path d="M53.29 32.5301C53.33 32.7001 53.19 32.7401 53.11 32.8501C50.72 35.7701 45.2999 38.8001 41.8199 40.2501C33.2299 43.8301 22.45 45.3801 15.74 37.4501C13.57 34.8901 11.8 29.4101 15.71 27.5801C19.79 25.6701 23.56 29.5601 26.76 31.4901C33.91 35.7901 43.27 36.6401 51.03 33.4801C51.35 33.3501 53.15 32.4101 53.29 32.5401V32.5301Z" fill="#591901"/>
<path d="M43.0899 55.7401L39.3599 56.9301C34.2699 58.9001 30.77 61.9201 24.87 60.6401C24.3 60.5201 22.3099 59.6201 22.0699 60.4001C21.7199 61.5601 24.1399 62.5501 24.1999 63.2001C24.2999 64.2101 21.98 63.4001 21.51 63.1801C18.54 61.8201 15.78 58.4401 14.65 55.4201C13.76 53.0601 13.13 49.0301 14.79 46.8901C15.37 46.1401 15.6399 46.0301 16.4499 46.4801C17.7599 47.2201 19.1299 48.3501 20.4399 49.1701C25.2099 52.1901 30.69 54.9701 36.37 55.6301C38.63 55.8901 40.8299 55.7801 43.0899 55.7201V55.7401ZM16.6999 50.2401C16.1499 50.4301 17.1999 52.8801 18.0899 52.4401C18.4999 52.2401 18.0899 51.6601 17.9499 51.4101C17.7499 51.0501 17.1999 50.0701 16.7099 50.2401H16.6999ZM23.39 55.9901C23.62 55.7701 23.3699 55.3701 23.1899 55.2001C23.0699 55.0801 21.7399 54.1901 21.6099 54.1501C21.2099 54.0301 20.93 54.3501 21.03 54.7201C21.18 55.2301 22.91 56.4401 23.39 55.9801V55.9901ZM17.8299 55.9301C17.2699 56.2801 18.7099 57.9401 19.4799 57.8101C20.3299 57.6701 19.3799 56.7501 19.0799 56.5001C18.8299 56.2901 18.1599 55.7201 17.8299 55.9301ZM29.0699 56.6701C28.7999 56.3401 26.31 55.5501 26.76 56.8601C26.88 57.2001 28.5099 57.5301 28.8599 57.4601C29.2299 57.3901 29.28 56.9401 29.06 56.6801L29.0699 56.6701Z" fill="#591901"/>
<path d="M22.6 25.49C20.3 24.45 17.85 24.21 15.38 24.77C15.38 23.76 15.35 22.75 15.29 21.75C15.18 20.02 15.05 18.13 14.84 16.42C14.66 14.98 14.3199 13.61 13.9399 12.22C16.2299 11.44 19.05 11.04 21.3 12.13L22.61 25.5L22.6 25.49ZM17.89 21.95C17.94 21.91 18.09 21.23 18.09 21.1C18.09 20.2 17.94 18.78 17.79 17.87C17.7 17.31 17.56 15.85 16.78 15.99C16.15 16.1 16.65 17.16 16.71 17.51C16.78 17.94 16.87 18.41 16.91 18.84C17 19.69 16.91 20.84 17.11 21.62C17.2 21.97 17.65 22.1 17.89 21.95Z" fill="#A3BF3D"/>
<path d="M29.1801 68.5701C29.3001 70.2501 29.51 71.8901 29.98 73.5101C30.15 74.1101 30.64 74.5901 30.23 75.1601C29.43 76.2601 26.89 76.5601 25.62 76.5101C25.01 76.4801 22.85 76.1501 22.5 75.6601C22.3 75.3901 22.46 73.6501 22.33 73.1701C23.74 73.7501 25.2401 73.5901 26.6801 73.2301C27.0801 73.1301 28.62 72.7201 28.83 72.4901C29.21 72.0701 28.83 71.5401 28.33 71.5401C27.79 71.5401 26.44 72.1001 25.76 72.2201C24.51 72.4401 23.4 72.4201 22.23 71.8601L21.6 66.1201C24.05 67.1501 26.59 67.9401 29.17 68.5701H29.1801Z" fill="#A3BF3D"/>
<path d="M20.51 4.54006L20.79 9.23006C19.09 8.98006 17.5201 8.89006 15.8101 9.17006C15.1201 9.28006 14.45 9.53007 13.75 9.60007C13.87 9.00007 12.97 5.35007 13.21 5.13007C13.4 4.95007 14.45 4.68006 14.76 4.61006C16.62 4.18006 18.65 4.13006 20.51 4.56006V4.54006Z" fill="#A3BF3D"/>
<path d="M25.4 49.06C24.43 48.6 23.51 48.04 22.61 47.47C21.38 46.7 19.01 45.2401 18.04 44.2701C17.64 43.8701 17.75 43.43 17.63 42.92C18.51 43.31 19.3 43.8901 20.16 44.3201C21.71 45.1001 23.36 45.68 25.04 46.12C25.25 46.28 25.33 48.63 25.4 49.06Z" fill="#A3BF3D"/>
<path d="M31.81 4.89006C30.42 5.64006 29.25 6.77006 28.23 7.97006C27.77 8.07006 27.15 6.96006 27.02 6.57007C26.22 4.14006 28.9099 2.38005 30.9499 3.90005C31.0899 4.00005 31.88 4.78006 31.81 4.89006Z" fill="#591901"/>
<path d="M55.8199 7.61004C55.6799 7.71004 54.7401 6.64004 54.5601 6.48004C53.5701 5.62004 52.4401 4.96004 51.3101 4.31004C54.0401 1.06004 58.0299 4.04004 55.8199 7.61004Z" fill="#591901"/>
<path d="M10.95 26.7501C8.21995 27.5101 5.32002 27.2901 2.65002 26.4401C5.24002 24.9101 8.48995 25.1001 10.95 26.7501Z" fill="#A3BF3D"/>
<path d="M11.9399 25.5801C10.4099 24.9201 9.09003 23.7701 8.78003 22.0601C10.21 22.6601 11.4799 24.0901 11.9399 25.5801Z" fill="#A3BF3D"/>
<path d="M11.49 28.29C11.39 28.48 11.1599 29.41 11.0699 29.47C10.8799 29.61 9.18005 29.83 9.05005 29.73C9.57005 28.92 10.54 28.44 11.49 28.29Z" fill="#A3BF3D"/>
<path d="M46.05 59.1901C46.38 59.1601 46.8199 59.1901 46.6899 59.6401C46.5699 60.0401 44.8099 60.5201 44.5799 60.0701C44.3099 59.5501 45.72 59.2201 46.06 59.1901H46.05Z" fill="#591901"/>
<path d="M44.07 64.75C43.97 64.91 42.06 65.42 42 64.81C41.94 64.2 43.71 63.97 44 64.17C44.11 64.24 44.13 64.65 44.07 64.75Z" fill="#591901"/>
<path d="M37.8801 61.1301C37.1201 60.4801 39.7801 59.8501 39.9201 60.5801C40.0301 61.1501 38.1401 61.3501 37.8801 61.1301Z" fill="#591901"/>
<path d="M36.97 64.8801C37.26 64.6001 39 64.52 38.94 65.17C38.88 65.86 36.17 65.6501 36.97 64.8801Z" fill="#591901"/>
<path d="M32.95 63.52C33.24 63.45 34.4101 63.52 34.5601 63.77C35.0701 64.61 32.53 64.6 32.52 63.91C32.52 63.73 32.79 63.56 32.95 63.52Z" fill="#591901"/>
<path d="M49.57 39.14C50.97 38.87 49.31 40.88 48.6 40.53C47.89 40.18 49.17 39.22 49.57 39.14Z" fill="#591901"/>
<path d="M29.62 63.7101C29.72 63.8101 29.7499 64.0101 29.6899 64.1401C29.4199 64.7201 27.2099 64.1701 27.8299 63.5501C28.0899 63.2901 29.3999 63.4901 29.6099 63.7101H29.62Z" fill="#591901"/>
<path d="M44.51 42.1201C44.86 42.0901 45.07 42.3301 44.97 42.6701C44.84 43.1001 43.12 43.8101 43.2 42.9701C43.23 42.6601 44.22 42.1401 44.51 42.1201Z" fill="#591901"/>
<path d="M38.01 43.93C39.33 43.72 38.79 44.8001 37.7 44.9701C36.49 45.1601 36.86 44.12 38.01 43.93Z" fill="#591901"/>
<path d="M36.75 10.16C42.27 9.54 42.66 15.14 39.8 18.53C37.75 20.95 33.35 22.76 31 19.75C28.11 16.05 32.8 10.61 36.76 10.16H36.75ZM38.33 15.89C38.78 16.25 39.22 15.86 39.21 15.33C39.16 13.13 35.96 12.82 35.04 14.77C34.81 15.25 34.56 16.5 35.42 16.24C36.15 16.02 35.93 14.57 37.36 14.74C38.12 14.83 37.96 15.59 38.33 15.89Z" fill="#010101"/>
<path d="M54.0699 12.15C55.3699 13.47 56.3999 15.68 55.9699 17.56C54.7399 22.92 46.2799 19.5 45.7299 14.58C45.0599 8.65002 50.8699 8.90001 54.0699 12.15ZM49.5699 13.14C48.6199 13.3 47.5 15.01 48.28 15.56C49.17 16.19 49.0499 14.3 49.9999 14.3C50.8399 14.3 50.9699 15.74 51.7199 15.74C52.1999 15.74 52.1599 15.24 52.1199 14.88C51.9699 13.77 50.6399 12.96 49.5799 13.13L49.5699 13.14Z" fill="#010101"/>
<path d="M43.8101 23.09C42.7801 22.57 41.33 21.5501 41.57 20.2201C41.67 19.6901 42.1701 19.39 42.6801 19.34C43.5201 19.25 46.0301 19.2601 46.7901 19.4701C48.5601 19.9601 46.65 23.0201 45.26 22.9601C45.25 23.7101 45.21 24.4701 45.34 25.2101C45.47 25.3401 46.8301 24.75 47.0601 24.62C47.6701 24.27 48.42 23.09 48.94 24.09C49.41 24.99 47.7001 26 47.0301 26.31C45.0401 27.21 42.59 27.2301 40.75 25.9701C40.25 25.6301 39.06 24.5801 39.7 23.9401C40.34 23.3001 41.25 24.4901 41.74 24.8001C42.35 25.1901 43.0801 25.3601 43.8101 25.3001V23.09Z" fill="#010101"/>
<path d="M55.9799 46.68C55.6499 46.99 55.1399 46.74 54.9399 46.37C54.7399 46 54.38 44.54 54.53 44.2C54.66 43.91 55.2099 43.8 55.4599 43.95C55.8099 44.17 56.3899 46.29 55.9799 46.68Z" fill="#010101"/>
<path d="M49.6601 47.9101C49.8901 48.1301 50.2901 49.5001 50.3101 49.8401C50.3501 50.5901 49.5101 50.5801 49.1401 50.1901C48.8501 49.8801 48.36 48.1601 48.73 47.8801C48.91 47.7401 49.5101 47.7601 49.6601 47.9101Z" fill="#010101"/>
<path d="M60.77 51.06C61.01 51.21 61.28 52.91 61.24 53.26C61.13 54.21 60.12 54.2201 59.98 53.0701C59.94 52.7401 59.85 51.58 59.95 51.34C60.07 51.06 60.54 50.92 60.77 51.06Z" fill="#010101"/>
<path d="M60.85 57.3801C62.23 57.0601 61.1401 60.1801 60.3101 60.0601C59.3401 59.9101 60.34 57.5001 60.85 57.3801Z" fill="#010101"/>
<path d="M54.53 51.15C54.7 51.1 54.93 51.11 55.1 51.18C55.77 51.46 56.4399 54.19 55.0699 53.47C54.5899 53.22 53.95 51.33 54.54 51.15H54.53Z" fill="#010101"/>
<path d="M59.59 39.41C60.58 39.19 60.92 41.31 60.57 41.65C59.91 42.31 59.51 41.26 59.37 40.76C59.24 40.31 58.96 39.55 59.59 39.4V39.41Z" fill="#010101"/>
<path d="M23.39 55.9901C22.91 56.4501 21.18 55.2401 21.03 54.7301C20.92 54.3501 21.2099 54.0301 21.6099 54.1601C21.7299 54.2001 23.0599 55.0901 23.1899 55.2101C23.3699 55.3901 23.63 55.7801 23.39 56.0001V55.9901Z" fill="#010101"/>
<path d="M29.0699 56.6701C29.2899 56.9301 29.24 57.3801 28.87 57.4501C28.52 57.5201 26.88 57.1901 26.77 56.8501C26.32 55.5501 28.7999 56.3301 29.0799 56.6601L29.0699 56.6701Z" fill="#010101"/>
<path d="M16.6999 50.2401C17.1899 50.0701 17.7399 51.0501 17.9399 51.4101C18.0799 51.6601 18.4899 52.2401 18.0799 52.4401C17.1899 52.8801 16.1399 50.4201 16.6899 50.2401H16.6999Z" fill="#010101"/>
<path d="M17.8299 55.9301C18.1599 55.7201 18.8299 56.2901 19.0799 56.5001C19.3799 56.7501 20.33 57.6801 19.48 57.8101C18.71 57.9301 17.2699 56.2801 17.8299 55.9301Z" fill="#010101"/>
<path d="M17.8901 21.9501C17.6501 22.1001 17.2 21.9701 17.11 21.6201C16.91 20.8401 17.0001 19.6901 16.9101 18.8401C16.8601 18.4101 16.78 17.9401 16.71 17.5101C16.65 17.1601 16.1501 16.1101 16.7801 15.9901C17.5701 15.8501 17.7001 17.3101 17.7901 17.8701C17.9401 18.7701 18.09 20.2001 18.09 21.1001C18.09 21.2301 17.9501 21.9101 17.8901 21.9501Z" fill="#010101"/>
<path d="M38.33 15.8901C37.96 15.5901 38.12 14.8301 37.36 14.7401C35.93 14.5701 36.15 16.0101 35.42 16.2401C34.55 16.5101 34.81 15.2501 35.04 14.7701C35.96 12.8201 39.16 13.1301 39.21 15.3301C39.22 15.8601 38.78 16.2501 38.33 15.8901Z" fill="#FAF4EF"/>
<path d="M49.57 13.1401C50.63 12.9601 51.97 13.7801 52.11 14.8901C52.16 15.2501 52.19 15.7401 51.71 15.7501C50.96 15.7501 50.83 14.3101 49.99 14.3101C49.04 14.3101 49.16 16.2001 48.27 15.5701C47.49 15.0201 48.6101 13.3101 49.5601 13.1501L49.57 13.1401Z" fill="#FAF4EF"/>
</svg>
