<svg width="52" height="86" viewBox="0 0 52 86" fill="none" xmlns="http://www.w3.org/2000/svg">
<path d="M28.85 2.65014C32.86 5.96014 32.08 12.1601 33.45 16.6801C34.39 19.8001 36.36 22.2501 37.89 25.0301C43.71 35.6801 44.07 46.9201 45.77 58.6601C46.45 63.3101 47.77 67.9301 49.95 72.1001C50.22 72.6201 50.99 73.6701 51.13 74.1301C51.3 74.6701 51.11 75.4001 50.48 75.5001C49.49 75.6501 47.94 75.4401 47.15 74.7801C47.22 75.1901 46.99 75.6001 46.59 75.7101C45.91 75.8901 44.33 75.7201 43.63 75.5301C41.95 75.0701 40.75 73.9701 39.31 73.1001C38.72 74.1001 37.75 74.7801 36.79 75.4001C36.46 77.7001 38.33 80.0401 36.22 81.9101C33.84 84.0101 28.77 85.3701 25.64 85.4901C23.57 85.5701 23.78 84.4001 24.88 83.1601C24.09 83.2601 21.78 83.4501 21.35 82.6301C21 81.9601 21.49 81.1701 22.02 80.7501C24.36 78.9201 26.82 78.6801 29.38 77.6501C30.04 77.3801 31.15 76.8701 31.07 76.0401C31.03 75.5801 29.93 74.3101 29.58 73.9101C29.42 73.7301 28.41 72.6201 28.33 72.5901C28.04 72.4601 27.01 72.5801 26.6 72.5501C26.27 72.5201 25.94 72.3601 25.59 72.3901C25.63 73.5601 26.38 75.7701 25.74 76.7701C25.71 76.8201 25.33 77.2101 25.27 77.2601C24.75 77.6801 23.24 78.6801 22.65 78.9801C20.88 79.8901 17.36 80.2301 15.35 80.3701C14.79 80.4101 12.73 80.3801 12.45 79.8001C12.19 79.2601 12.88 78.4901 12.81 78.4301C12 78.2901 11.12 78.3401 10.33 78.1301C9.54004 77.9201 8.42 77.3301 9.11 76.3801C9.64 75.6501 13.17 74.3401 14.16 74.0301C15.93 73.4801 18.21 73.1301 19.89 72.4401C20.73 72.0901 20.59 71.1401 20.53 70.3601C20.36 68.3401 19.49 66.6301 18.87 64.7801C18.31 63.0901 17.99 61.3301 17.4 59.6501C15.68 54.7801 13.1 50.2101 11.36 45.3301C8.83 38.1901 7.64003 31.3001 10.26 23.9501C11.17 21.3801 12.87 19.3501 13.97 16.9601C14.65 15.4901 15.03 14.1701 14.16 12.6701C13.47 11.4801 12.67 10.7601 11.4 10.2801C8.27004 9.10014 4.73004 9.32009 1.52004 10.0401C-0.0799624 9.48009 1.44001 8.21012 2.18001 7.63012C5.58001 4.96012 8.66001 5.22012 12.43 3.82012C14.45 3.07012 15.88 1.66011 17.9 1.00011C21.28 -0.109889 26.06 0.350085 28.87 2.66008L28.85 2.65014ZM23.01 15.1601C25.45 16.8801 23.74 20.0801 23.29 22.4001C22.77 25.0601 22.93 27.7601 24.14 30.2101C24.27 30.2301 24.21 30.1001 24.22 30.0101C24.24 29.5601 24.18 29.0401 24.76 28.9401C25.72 28.7701 25.85 29.7601 25.9 30.4901C26.35 36.0401 24.89 41.7301 25.26 47.3001C25.49 50.8201 27.28 55.2801 29.56 57.9601C30.17 58.6801 32.21 60.7501 33.02 61.0201C34.15 61.4001 33.79 60.3701 33.68 59.6301C33.5 58.4101 33.09 57.2301 32.86 56.0301C32.02 51.6301 32.19 47.3401 33.18 42.9901C33.57 41.2801 34.36 39.5801 34.27 37.8001C34.19 36.0601 32.92 33.9701 32.41 32.2501C32.26 31.7401 32.12 30.8801 32.81 30.7201C33.48 30.5601 33.74 30.9101 34.01 31.4501C34.59 32.6101 35.31 34.3001 35.62 35.5501C36.59 39.3901 34.8 42.4701 34.27 46.1801C33.95 48.3801 33.77 50.7801 34.12 52.9901C34.53 55.5701 36.24 56.8901 37.41 59.0301C39.11 62.1301 39.09 65.1101 38.5 68.5101C38.3 69.6701 38 70.8101 37.72 71.9501C38.1 71.8101 38.28 71.4301 38.66 71.2401C39.2 70.9701 39.48 71.0601 40 71.3201C40.43 71.5401 42.66 73.5701 42.95 73.3201C42.95 72.6801 43.29 71.7401 44.07 72.2401C44.75 72.6701 44.65 73.1001 45.74 73.3001C46.28 73.4001 46.03 73.0401 46.4 72.7901C46.91 72.4401 48.02 73.3001 48.66 73.2801C46.28 69.1401 44.92 64.2201 44.17 59.5101C42.48 48.8801 42.4 38.9601 37.87 28.9601C35.66 24.0901 32.26 20.4301 31.31 15.0101C30.63 11.1301 30.75 5.77008 26.92 3.47008C24.12 1.79008 20.72 1.5801 17.7 2.8001C16.33 3.3501 15.21 4.3701 13.84 4.9301L14.62 5.2401C17.31 6.7201 16.75 8.46014 14.19 9.59014C14.11 9.62014 14.05 9.54008 14.08 9.72008C14.9 10.5601 15.58 11.5201 16.18 12.5201C16.57 13.1701 16.51 13.6901 17.36 13.9201C18.93 14.3501 20.64 14.1701 22.28 14.8301C22.53 14.9301 22.41 15.1201 23 15.1501L23.01 15.1601ZM4.51003 7.84014C6.12003 7.73014 7.76002 7.43013 9.38002 7.52013C10.51 7.58013 11.7 7.68013 12.83 7.77013C13.33 7.81013 14.05 8.17009 14.48 7.73009C15.09 7.12009 13.97 6.78008 13.53 6.66008C11.56 6.15008 7.13004 6.68013 5.21004 7.46013C4.99004 7.55013 4.66003 7.66014 4.51003 7.84014ZM35 58.2901C35.19 59.2301 35.67 60.1501 35.55 61.1401C35.48 61.7401 34.97 62.5201 34.35 62.6801C33.29 62.9501 32.39 62.5801 31.51 62.0601C27.32 59.5801 24.69 54.0301 23.84 49.3801C22.92 44.3301 24.34 38.9601 24.21 33.8801C21.99 30.8001 21.03 27.4101 21.41 23.5901C21.57 21.9501 22.72 19.2301 22.49 17.7401C22.09 15.2101 18.09 16.2301 16.41 15.4901C15.73 18.1301 13.9 20.2701 12.69 22.6801C10.59 26.8801 10.11 32.0701 10.79 36.6801C11.91 44.2501 15.86 50.7301 18.54 57.7301C19.29 59.6801 19.63 61.6101 20.29 63.5401C20.84 65.1401 23.19 69.1601 24.58 70.0301C25.3 70.4801 25.75 70.3001 26.54 70.4501L25.18 67.5901C25.15 66.5301 25.97 66.6101 26.5 67.3201C27.24 68.3201 27.74 69.5201 28.6 70.5301C29.26 71.3101 30.08 71.9701 30.81 72.6601C31.75 73.5401 32.23 74.4401 33.67 74.5501C34.02 74.5801 35.48 74.5001 35.62 74.1701C35.66 74.0801 35.74 73.6701 35.77 73.5201C36.39 70.9801 37.37 66.9901 37.24 64.4501C37.14 62.3601 36.34 59.9001 34.99 58.3001L35 58.2901ZM14.81 78.6401C17.12 78.6301 19.49 78.5201 21.62 77.5301C22.14 77.2901 24.06 76.1301 24.29 75.6901C24.6 75.0901 24.22 74.1401 24.15 73.5201C24.11 73.1301 24.11 71.7901 23.99 71.5901C23.9 71.4401 23.25 71.0201 23.06 70.8301C22.7 70.4801 22.42 70.0501 22.06 69.7001C22.07 70.1001 22.21 70.5501 22.22 70.9401C22.28 72.6601 21.45 73.7001 19.87 74.2201C17.94 74.8601 15.81 75.2401 13.86 75.8501C13.23 76.0501 12.63 76.3101 12.01 76.5301C12.01 76.6501 12.29 76.6701 12.38 76.6801C13.3 76.8101 14.17 76.7201 15.08 76.5901C15.81 76.4901 18.26 75.8001 18.76 76.1801C19.06 76.4001 18.89 76.9801 18.69 77.2201C18.16 77.8401 15.87 78.1201 15.04 78.3201L14.82 78.6301L14.81 78.6401ZM43.08 73.3401V73.4201C43.13 73.3901 43.13 73.3701 43.08 73.3401ZM35.07 76.0701C34.24 76.2501 33.5 76.3401 32.66 76.1501C33 77.8401 31.48 78.5001 30.19 79.0301C28.11 79.8701 25.74 80.1801 23.9 81.5401C24.89 81.4301 25.9 81.3801 26.89 81.2001C27.64 81.0601 29.51 80.3401 30.08 80.7001C30.38 80.8901 30.42 81.5201 30.2 81.7801C29.66 82.4201 27.25 82.4701 26.78 83.5501C27.9 83.4501 28.98 83.4001 30.08 83.1101C31.18 82.8201 34.31 81.3201 35.11 80.5701C36.21 79.5401 34.94 77.3401 35.07 76.0601V76.0701Z" fill="#030303"/>
<path d="M35 58.29C36.35 59.89 37.15 62.36 37.25 64.44C37.38 66.98 36.4 70.97 35.78 73.51C35.74 73.66 35.67 74.07 35.63 74.16C35.49 74.49 34.03 74.56 33.68 74.54C32.24 74.43 31.77 73.53 30.82 72.65C30.08 71.96 29.26 71.3 28.61 70.52C27.76 69.51 27.26 68.3 26.51 67.31C25.98 66.6 25.16 66.52 25.19 67.58L26.55 70.44C25.76 70.3 25.32 70.47 24.59 70.02C23.19 69.15 20.84 65.13 20.3 63.53C19.64 61.6 19.29 59.67 18.55 57.72C15.88 50.72 11.92 44.24 10.8 36.67C10.12 32.06 10.6 26.87 12.7 22.67C13.9 20.27 15.74 18.12 16.42 15.48C18.09 16.21 22.1 15.2 22.5 17.73C22.73 19.21 21.58 21.93 21.42 23.58C21.04 27.4 22.01 30.79 24.22 33.87C24.35 38.95 22.93 44.32 23.85 49.37C24.7 54.02 27.34 59.57 31.52 62.05C32.4 62.57 33.3 62.94 34.36 62.67C34.97 62.51 35.48 61.73 35.56 61.13C35.68 60.15 35.2 59.22 35.01 58.28L35 58.29Z" fill="#F5F1E8"/>
<path d="M14.81 78.6402L15.03 78.3302C15.86 78.1302 18.15 77.8502 18.68 77.2302C18.88 76.9902 19.05 76.4102 18.75 76.1902C18.25 75.8102 15.81 76.5002 15.07 76.6002C14.16 76.7302 13.28 76.8302 12.37 76.6902C12.28 76.6802 11.99 76.6602 12 76.5402C12.62 76.3102 13.22 76.0502 13.85 75.8602C15.8 75.2502 17.94 74.8702 19.86 74.2302C21.44 73.7002 22.28 72.6702 22.21 70.9502C22.2 70.5602 22.06 70.1102 22.05 69.7102C22.41 70.0602 22.69 70.4902 23.05 70.8402C23.24 71.0202 23.89 71.4502 23.98 71.6002C24.1 71.8002 24.1 73.1402 24.14 73.5302C24.21 74.1502 24.59 75.1002 24.28 75.7002C24.05 76.1402 22.13 77.2902 21.61 77.5402C19.48 78.5302 17.11 78.6402 14.8 78.6502L14.81 78.6402Z" fill="#FB8F12"/>
<path d="M35.07 76.0701C34.94 77.3501 36.21 79.5501 35.11 80.5801C34.32 81.3201 31.17 82.8301 30.08 83.1201C28.99 83.4101 27.9 83.4601 26.78 83.5601C27.25 82.4701 29.65 82.43 30.2 81.79C30.42 81.53 30.38 80.9101 30.08 80.7101C29.51 80.3401 27.64 81.0701 26.89 81.2101C25.9 81.3901 24.89 81.45 23.9 81.55C25.75 80.18 28.12 79.88 30.19 79.04C31.49 78.51 33.01 77.85 32.66 76.16C33.5 76.35 34.24 76.2601 35.07 76.0801V76.0701Z" fill="#FB8F12"/>
<path d="M23.01 15.1602C22.42 15.1302 22.54 14.9403 22.29 14.8403C23.48 14.3203 24.28 13.1503 24.8 12.0003C25.22 11.0603 25.46 9.23027 26.83 9.38027C27.63 9.46027 28.4 10.7303 28.55 11.4503C28.97 13.5503 27.2 14.8603 25.31 15.0803C24.71 15.1503 23.62 15.2002 23.02 15.1702L23.01 15.1602Z" fill="#FD8E11"/>
<path d="M4.51001 7.84026C4.66001 7.66026 4.99002 7.55026 5.21002 7.46026C7.13002 6.68026 11.56 6.15021 13.53 6.66021C13.97 6.77021 15.09 7.12022 14.48 7.73022C14.05 8.16022 13.33 7.81026 12.83 7.77026C11.69 7.68026 10.51 7.58026 9.38 7.52026C7.76 7.44026 6.12001 7.74026 4.51001 7.84026Z" fill="#FB8F12"/>
<path d="M22.29 14.8401C20.64 14.1801 18.94 14.36 17.37 13.93C16.52 13.7 16.59 13.1801 16.19 12.5301C15.59 11.5301 14.91 10.56 14.09 9.73001C14.06 9.56001 14.12 9.64001 14.2 9.60001C16.76 8.47001 17.31 6.73003 14.63 5.25003L13.85 4.94003C15.22 4.38003 16.34 3.36003 17.71 2.81003C20.73 1.59003 24.13 1.80001 26.93 3.48001C30.76 5.78001 30.64 11.1401 31.32 15.0201C32.27 20.4401 35.68 24.1 37.88 28.97C42.41 38.97 42.49 48.89 44.18 59.5201C44.93 64.23 46.29 69.16 48.67 73.29C48.03 73.32 46.93 72.45 46.41 72.8C46.04 73.05 46.29 73.41 45.75 73.31C44.65 73.11 44.76 72.68 44.08 72.25C43.3 71.75 42.95 72.69 42.96 73.33C42.67 73.58 40.44 71.55 40.01 71.33C39.5 71.07 39.21 70.98 38.67 71.25C38.29 71.44 38.11 71.8201 37.73 71.9601C38.01 70.8201 38.31 69.6801 38.51 68.5201C39.1 65.12 39.12 62.13 37.42 59.04C36.25 56.9 34.54 55.57 34.13 53C33.78 50.8 33.96 48.4 34.28 46.19C34.81 42.48 36.6 39.41 35.63 35.56C35.31 34.31 34.6 32.6201 34.02 31.4601C33.75 30.9201 33.49 30.57 32.82 30.73C32.13 30.89 32.27 31.75 32.42 32.26C32.93 33.98 34.19 36.06 34.28 37.81C34.37 39.59 33.58 41.29 33.19 43C32.2 47.35 32.03 51.64 32.87 56.04C33.1 57.25 33.51 58.42 33.69 59.64C33.8 60.38 34.16 61.4101 33.03 61.0301C32.23 60.7601 30.18 58.69 29.57 57.97C27.29 55.28 25.5 50.83 25.27 47.31C24.9 41.74 26.36 36.04 25.91 30.5C25.85 29.77 25.72 28.78 24.77 28.95C24.19 29.05 24.25 29.5701 24.23 30.0201C24.23 30.1101 24.28 30.24 24.15 30.22C22.94 27.77 22.79 25.07 23.3 22.41C23.75 20.09 25.46 16.89 23.02 15.17C23.62 15.2 24.71 15.15 25.31 15.08C27.2 14.87 28.97 13.55 28.55 11.45C28.4 10.73 27.64 9.46004 26.83 9.38004C25.46 9.24004 25.23 11.06 24.8 12C24.28 13.15 23.48 14.3201 22.29 14.8401ZM19.85 4.88004C18.69 5.10004 18.8 7.57005 20.14 7.52005C21.66 7.46005 21.15 4.63004 19.85 4.88004Z" fill="#323232"/>
<path d="M43.08 73.3401C43.13 73.3701 43.13 73.39 43.08 73.42V73.3401Z" fill="#323232"/>
<path d="M19.85 4.88014C21.16 4.63014 21.66 7.46015 20.14 7.52015C18.8 7.57015 18.69 5.11014 19.85 4.88014Z" fill="#030303"/>
</svg>
