<svg width="111" height="77" viewBox="0 0 111 77" fill="none" xmlns="http://www.w3.org/2000/svg">
<path d="M104.93 73.42C100.64 76.09 93.51 76.47 88.63 75.27C82.95 73.88 86.09 68.58 88.96 66.04C89.36 65.69 89.88 65.51 90.26 65.11C92.62 62.64 89.98 57.84 88.83 55.29C88.51 55.24 88.68 55.44 88.64 55.62C87.35 61.97 87.55 70.73 80.09 73.14C77.14 74.09 69.17 74.45 66.58 72.69C64.08 70.99 65.23 67.03 67.28 65.44C67.94 64.93 69.9 64.32 70.17 63.98C70.42 63.66 70.46 62.93 70.66 62.54C71.21 58.47 70.27 54.42 69.76 50.4C69.52 50.01 67.51 49.88 66.89 49.73C66.06 49.54 65.3 49.19 64.47 49.01C64.6 49.81 64.51 50.63 64.54 51.43C64.76 57.77 64.54 70.03 58.68 74.01C55.1 76.44 44.97 77.29 41.09 75.67C37.05 73.98 39.32 68.74 42.31 67.07C43.9 66.18 44.75 66.82 45.11 64.76C45.86 60.46 44.29 52.95 42.82 48.78C42.4 47.59 42.13 46.82 40.76 46.52C39.92 53.45 39.38 60.72 36.52 67.18C33.7 73.55 28.34 74.95 21.75 74.7C18.71 74.58 12.69 74.05 13.05 69.78C13.27 67.15 15.66 65.97 17.68 64.84C18.08 64.62 19.33 64.14 19.53 63.94C19.94 63.55 20.48 61.09 20.61 60.43C21.65 54.77 21.44 48.23 20.63 42.54C20.46 41.35 20.28 39.61 19.96 38.49C19.92 38.35 19.86 38.14 19.73 38.06C19.09 37.68 15.28 38.32 14.29 38.39C11.02 38.62 8.76004 38.49 5.84004 36.89C0.470036 33.94 -0.999969 28.44 2.96003 23.53C3.16003 23.28 3.78998 22.81 3.84998 22.58C3.95998 22.19 3.63998 21.64 3.59998 21.17C3.47998 19.56 3.74003 17.76 4.33003 16.25C4.76003 15.15 5.72003 14.06 5.83003 12.91C5.90003 12.24 5.76998 11.51 5.84998 10.83C6.11998 8.50001 7.40002 7.54001 9.70002 7.73001C10.02 7.76001 10.19 7.94001 10.38 7.97001C10.77 8.03001 12.55 6.73001 13.14 6.46001C17.06 4.66001 23.58 5.56001 28.15 4.96001C34.61 4.12001 39.47 1.42001 46.23 2.11001C52.08 2.71001 55.24 4.38001 61.53 3.36001C71.59 1.73001 80.64 -1.69999 90.92 1.70001C113.61 9.20001 111.44 34.89 110.37 54.17C110.11 58.89 110.35 67.74 107.35 71.46C106.63 72.36 105.86 72.82 104.91 73.41L104.93 73.42ZM93.22 73.37C93.13 71.98 94.1 69.58 95.85 70.15C96.34 70.31 96.48 70.98 96.34 71.44C96.22 71.84 94.62 72.95 95.78 73.64C99.26 73.38 104.05 72.61 106.12 69.43C108.19 66.25 107.99 58.02 108.16 54.04C108.93 35.97 111.33 9.96001 89.37 3.67001C82.6 1.73001 74.88 2.95001 68.05 4.24001C65.2 4.78001 62.27 5.74001 59.37 5.91001C51.53 6.35001 45.66 2.88001 37.65 5.02001C34.19 5.95001 31.13 6.90001 27.51 7.32001C21.96 7.97001 15.9 6.19001 11.35 10.28C10.26 11.25 6.94002 15.43 6.39002 16.72C5.84002 18.01 5.84998 19.35 5.84998 20.7C7.18998 19.94 8.23999 21.01 7.28999 22.34C6.51999 23.43 4.96003 24.66 4.02003 25.88C3.92003 26.01 3.4 26.64 3.49 26.73C5.17 26.05 7.71004 25.65 8.84004 27.47C9.44004 28.44 9.35998 30.01 8.59998 30.85C8.29998 31.18 7.40001 31.54 7.31001 31.79C7.25001 31.97 7.23999 33.07 7.35999 33.16C7.51999 33.27 8.77 33.52 9.05 33.54C10.74 33.65 12.14 32.77 13.19 31.51C13.87 30.68 14.13 29.12 15.42 29.53C16.47 29.87 16.1 31.17 15.68 31.9C14.76 33.5 12.8 35.17 10.97 35.57L9.00001 35.89C9.74001 35.91 10.57 36.12 11.29 36.15C13.44 36.26 15.57 35.73 17.71 35.63C21.08 35.47 25.33 36.41 28.43 37.74L40.9 44.14C41.13 43.03 39.19 40.99 40.39 40.22C41.2 39.7 41.78 40.26 42.17 40.91C42.96 42.23 44.09 45.4 44.64 46.96C46.43 52.02 48.39 60.72 47.09 65.92C46.44 68.51 45.45 67.85 43.5 68.88C42.05 69.65 40.77 71.29 41.1 73.03C41.19 73.49 41.74 73.6 42.14 73.62C42.01 72.08 43.45 69.51 45.28 70.28C45.71 70.46 46.18 71.35 45.77 71.75C45.27 72.25 44.23 71.75 44.11 73.44C44.03 74.5 45.45 73.74 46.13 74.15C46.15 72.97 47.7 69.79 49.21 70.94C50.58 71.98 48.06 72.85 48.42 74.02C52.08 74.09 57.2 73.62 59.4 70.26C62.81 65.06 62.75 52.03 61.87 45.95C61.75 45.1 60.96 42.07 61.19 41.53C61.38 41.08 62.01 40.89 62.47 41.03C63.84 41.44 63.51 45.73 64.48 46.49C65.25 47.09 67.41 47.5 68.41 47.67C71.45 48.17 74.61 48.25 77.69 48.21L83.26 47.56C81.73 45.42 80.45 43.15 79.66 40.62C79.37 39.7 78.64 37.21 78.67 36.36C78.7 35.42 79.6 34.75 80.42 35.38C80.88 35.73 81.74 39.75 82.09 40.69C83.69 45.07 86.5 47.57 89.01 51.19C90.87 53.87 93.76 60.12 93.49 63.35C93.22 66.58 90.98 66.71 89.24 68.8C88.3 69.92 86.3 72.74 89.03 72.85C89.03 71.42 90.12 69.12 91.84 69.45C92.5 69.58 92.81 70.63 92.36 71.15C92.15 71.39 91.78 71.37 91.53 71.76C91.41 71.95 91.04 73.18 91.12 73.25L93.22 73.38V73.37ZM8.97999 9.83001C8.16999 9.69001 7.86 10.28 7.93 11.01C8.1 10.92 9.13999 9.97001 8.97999 9.83001ZM5.18 33.41C5.13 32.39 5.14 31.61 3.87 31.84C3.66 32.27 5.04 33.57 5.18 33.41ZM38.58 45.35C33.11 43.01 28.08 39.35 22.08 38.4C23.17 43.63 23.61 48.97 23.4 54.32C23.29 57.08 22.71 64.35 20.24 65.97C19.66 66.35 18.68 66.59 17.98 66.98C16.28 67.94 13.27 70.29 16.5 71.54C17.02 70.24 18.2 68.04 19.89 68.43C20.48 68.56 20.82 69.19 20.62 69.76C20.53 70.02 19.97 70.13 19.73 70.31C19.41 70.55 18.47 71.62 18.55 71.99C18.65 72.45 20.61 72.51 21.03 72.46C21.02 71.21 21.73 69.7 22.91 69.16C23.71 68.79 25.05 68.85 24.81 70C24.67 70.7 22.6 71.24 23.13 72.59C25.99 72.56 28.59 72.26 31.06 70.76C34.3 68.79 35.27 64.83 36.19 61.35C37.55 56.2 37.98 50.63 38.58 45.35ZM73.96 71.67C77.78 71.88 81.87 71.24 83.77 67.53C85.99 63.2 85.74 57.47 87.18 52.87C87.18 52.52 85.32 49.9 84.96 49.73C84.6 49.56 81.89 50.22 81.21 50.3C78.19 50.69 75.14 50.61 72.12 50.45C72.17 54.81 73.58 59.3 72.53 63.63C72.38 64.23 72.02 65.39 71.53 65.78C70.7 66.45 69.1 66.26 68.06 67.42C67.34 68.21 66.46 70.89 68.06 71.02C68.12 69.68 69.24 67.8 70.68 67.67C71.45 67.6 72 68.17 71.84 68.96C71.7 69.69 70.96 69.49 70.55 69.94C70.32 70.2 69.97 71 70.02 71.34L71.86 71.68C71.41 70.23 73.89 67.13 75.21 68.53C76.31 69.7 73.6 70.29 73.96 71.68V71.67Z" fill="#0E0D0C"/>
<path d="M93.22 73.37L91.12 73.24C91.04 73.17 91.4101 71.94 91.5301 71.75C91.7801 71.36 92.15 71.38 92.36 71.14C92.8 70.62 92.4901 69.57 91.8401 69.44C90.1201 69.11 89.0301 71.42 89.0301 72.84C86.3001 72.73 88.3 69.91 89.24 68.79C90.98 66.71 93.21 66.66 93.49 63.34C93.77 60.02 90.8701 53.86 89.0101 51.18C86.5001 47.56 83.6801 45.06 82.0901 40.68C81.7501 39.74 80.89 35.72 80.42 35.37C79.6 34.74 78.7 35.42 78.67 36.35C78.64 37.2 79.37 39.69 79.66 40.61C80.46 43.14 81.7301 45.41 83.2601 47.55L77.69 48.2C74.61 48.24 71.46 48.16 68.41 47.66C67.41 47.5 65.24 47.08 64.48 46.48C63.51 45.72 63.84 41.43 62.47 41.02C62.01 40.88 61.38 41.07 61.19 41.52C60.96 42.07 61.75 45.09 61.87 45.94C62.75 52.02 62.8101 65.04 59.4001 70.25C57.2001 73.6 52.08 74.07 48.42 74.01C48.05 72.84 50.5701 71.97 49.2101 70.93C47.6901 69.78 46.14 72.96 46.1301 74.14C45.4601 73.73 44.04 74.5 44.11 73.43C44.23 71.75 45.2701 72.24 45.7701 71.74C46.1701 71.34 45.7001 70.45 45.2801 70.27C43.4501 69.5 42.0101 72.06 42.1401 73.61C41.7301 73.59 41.19 73.48 41.1 73.02C40.76 71.28 42.04 69.64 43.5 68.87C45.44 67.84 46.4401 68.5 47.0901 65.91C48.4001 60.71 46.4301 52.01 44.6401 46.95C44.0901 45.39 42.96 42.22 42.17 40.9C41.78 40.26 41.2001 39.7 40.3901 40.21C39.1901 40.97 41.1301 43.01 40.9001 44.13L28.43 37.73C25.33 36.4 21.0801 35.45 17.7101 35.62C15.5701 35.72 13.44 36.25 11.29 36.14C10.57 36.1 9.74004 35.89 9.00004 35.88L10.97 35.56C12.8 35.16 14.76 33.49 15.68 31.89C16.1 31.17 16.47 29.86 15.42 29.52C14.13 29.11 13.87 30.66 13.19 31.5C12.15 32.77 10.75 33.64 9.05003 33.53C8.78003 33.51 7.53003 33.26 7.36003 33.15C7.23003 33.06 7.24004 31.96 7.31004 31.78C7.39004 31.53 8.30002 31.17 8.60002 30.84C9.36002 29.99 9.44007 28.42 8.84007 27.46C7.72007 25.64 5.18003 26.03 3.49003 26.72C3.39003 26.63 3.92006 26 4.02006 25.87C4.96006 24.65 6.52002 23.42 7.29002 22.33C8.24002 21 7.19002 19.94 5.85002 20.69C5.85002 19.34 5.85006 17.96 6.39006 16.71C6.93006 15.46 10.26 11.24 11.35 10.27C15.91 6.18004 21.9701 7.96004 27.5101 7.31004C31.1401 6.88004 34.1901 5.93004 37.6501 5.01004C45.6501 2.86004 51.53 6.34004 59.37 5.90004C62.27 5.74004 65.2 4.77004 68.05 4.23004C74.87 2.94004 82.59 1.72004 89.37 3.66004C111.33 9.95004 108.93 35.96 108.16 54.03C107.99 58.01 108.22 66.18 106.12 69.42C104.02 72.66 99.2701 73.37 95.7801 73.63C94.6201 72.94 96.2201 71.83 96.3401 71.43C96.4801 70.97 96.34 70.3 95.85 70.14C94.11 69.57 93.13 71.97 93.22 73.36V73.37ZM73.67 8.68004C73.13 8.78004 72.7401 9.20004 72.7701 9.77004C72.8301 10.75 75.74 11.74 75.67 10.17C75.64 9.38004 74.39 8.55004 73.66 8.68004H73.67ZM83.0901 8.68004C82.6701 8.81004 82.54 9.52004 82.61 9.89004C82.75 10.64 84.9901 11.93 85.3301 10.39C85.5401 9.44004 83.9601 8.41004 83.0901 8.68004ZM29.5201 9.08004C28.5201 9.21004 27.09 9.82004 26.29 10.43C25.63 10.94 24.38 12.16 25.5 12.9C26.62 13.64 27.0101 12.3 27.7601 11.9C28.9301 11.26 30.21 11.02 31.38 11.74C33.22 12.87 33.64 14.55 32.31 16.31C31.58 17.28 29.73 17.39 30.31 18.83C30.92 20.33 33.18 18.83 33.88 18.02C37.0401 14.28 34.3201 8.47004 29.5201 9.08004ZM92.2701 9.07004C91.8401 9.20004 91.67 9.96004 91.85 10.35C92.17 11.04 94.2001 12.51 94.4001 10.93C94.5201 10.01 93.1301 8.80004 92.2701 9.07004ZM42.35 9.75004C41.39 8.83004 40.0401 9.99004 40.7601 11.01C41.8401 12.55 43.72 11.05 42.35 9.75004ZM65.0201 9.47004C64.0801 9.63004 63.4701 10.82 64.6301 11.24C67.4201 12.25 67.6601 9.02004 65.0201 9.47004ZM54.0101 11.95C53.8501 12 53.47 12.38 53.42 12.54C53.04 13.78 55.7001 14.81 56.0901 13.63C56.4801 12.45 55.0901 11.63 54.0101 11.95ZM29.7801 13.27C29.4401 13.33 28.7501 13.7 28.4601 13.92C27.0801 14.99 27.8001 16.79 29.2601 16.16C29.6401 16 29.7001 15.54 30.0301 15.36C30.5601 15.06 31.35 15.42 31.69 14.66C32.17 13.56 30.67 13.12 29.79 13.28L29.7801 13.27ZM46.62 16.68C45.85 17.63 48.12 19.71 48.81 18.55C49.28 17.78 48.12 16.32 47.3 16.37C47.11 16.38 46.73 16.55 46.62 16.68ZM7.37004 16.8C5.93004 17.01 5.83002 20.44 8.23002 19.89C9.20002 19.67 9.60007 17.64 8.71007 17.11C8.49007 16.98 7.60004 16.76 7.37004 16.8ZM77.5901 17.07C76.2401 17.47 77.91 19.86 79.0701 19.33C80.2501 18.79 79.0201 16.65 77.5901 17.07ZM66.72 17.33C66.56 17.37 66.42 17.45 66.3 17.56C64.88 18.79 69.41 20.38 68.99 18.16C68.85 17.43 67.34 17.19 66.73 17.33H66.72ZM17.3401 17.46C15.1601 17.78 15.3601 21.63 17.9501 21.35C20.4001 21.09 19.9001 17.09 17.3401 17.46ZM88.73 17.45C87.17 17.78 88.9101 20.67 89.9501 20.39C91.2801 20.03 89.85 17.22 88.73 17.45ZM98.3 19.68C96.94 19.96 98.28 22.78 99.16 22.65C100.57 22.43 99.78 19.37 98.3 19.68ZM57.0301 21.12C55.4801 21.45 56.9401 23.81 58.6401 23.26C60.2101 22.76 58.4001 20.82 57.0301 21.12ZM70.4001 24.27C69.8301 24.35 69.2901 24.71 69.3801 25.35C69.5201 26.33 72.7501 26.96 72.5201 25.24C72.4201 24.43 71.0701 24.18 70.4001 24.27ZM83.62 27.35C84.43 26.48 82.57 24.88 81.44 25.62C80.05 26.52 82.6 28.44 83.62 27.35ZM94.37 28.59C92.94 28.77 93.38 30.65 94.66 30.99C97.19 31.66 95.63 28.43 94.37 28.59ZM55.2001 51.65C54.1201 51.87 54.4701 54.37 55.3301 54.62C56.9501 55.09 56.9901 51.29 55.2001 51.65ZM57.8201 58.59C56.9101 58.75 56.14 61.54 57.66 61.59C59.02 61.64 59.4801 58.29 57.8201 58.59Z" fill="#FBF5ED"/>
<path d="M38.58 45.35C37.99 50.63 37.55 56.2 36.19 61.35C35.27 64.83 34.29 68.79 31.06 70.76C28.59 72.26 25.99 72.56 23.13 72.59C22.61 71.24 24.67 70.7 24.81 70C25.05 68.85 23.7099 68.79 22.9099 69.16C21.7299 69.7 21.02 71.2 21.03 72.46C20.61 72.51 18.65 72.45 18.55 71.99C18.47 71.62 19.41 70.55 19.73 70.31C19.97 70.13 20.53 70.01 20.62 69.76C20.82 69.19 20.48 68.57 19.89 68.43C18.2 68.04 17.02 70.25 16.5 71.54C13.26 70.3 16.27 67.94 17.98 66.98C18.68 66.59 19.66 66.35 20.24 65.97C22.71 64.35 23.29 57.09 23.4 54.32C23.61 48.97 23.17 43.63 22.08 38.4C28.08 39.35 33.11 43.01 38.58 45.35ZM29.12 48.11C28.36 48.34 28.72 50.69 28.93 51.26C29.12 51.77 30.11 51.77 30.4 51.35C30.84 50.71 30.64 49.46 30.38 48.76C30.17 48.17 29.75 47.91 29.12 48.11ZM32.6599 54.13C31.6599 54.29 31.23 57.03 32.07 57.42C33.86 58.25 34.3599 53.86 32.6599 54.13ZM26.7 62.59C27.62 63.46 29.63 61.37 28.37 60.47C27.04 59.51 25.93 61.86 26.7 62.59Z" fill="#DCC6BC"/>
<path d="M73.96 71.67C73.6 70.28 76.31 69.69 75.21 68.52C73.89 67.12 71.41 70.22 71.86 71.67L70.02 71.33C69.97 70.99 70.32 70.19 70.55 69.93C70.96 69.48 71.7 69.67 71.84 68.95C71.99 68.16 71.45 67.59 70.68 67.66C69.25 67.79 68.12 69.67 68.06 71.01C66.46 70.88 67.34 68.2 68.06 67.41C69.11 66.25 70.7 66.44 71.53 65.77C72.02 65.38 72.38 64.23 72.53 63.62C73.58 59.29 72.17 54.8 72.12 50.44C75.14 50.6 78.19 50.68 81.21 50.29C81.89 50.2 84.58 49.54 84.96 49.72C85.34 49.9 87.17 52.51 87.18 52.86C85.74 57.46 85.99 63.19 83.77 67.52C81.87 71.23 77.78 71.87 73.96 71.66V71.67ZM80.74 58.2C79.47 58.58 79.61 61.68 81.29 60.72C82.62 59.96 82.19 57.77 80.74 58.2Z" fill="#DCC6BC"/>
<path d="M5.17996 33.4101C5.03996 33.5701 3.65997 32.2701 3.86997 31.8401C5.13997 31.6101 5.12996 32.4001 5.17996 33.4101Z" fill="#FBF5ED"/>
<path d="M8.97998 9.83002C9.14998 9.97002 8.09999 10.92 7.92999 11.01C7.85999 10.28 8.16998 9.69002 8.97998 9.83002Z" fill="#FBF5ED"/>
<path d="M29.52 9.08007C34.32 8.47007 37.04 14.2801 33.88 18.0201C33.18 18.8401 30.92 20.3401 30.31 18.8301C29.72 17.3901 31.58 17.2701 32.31 16.3101C33.64 14.5401 33.22 12.8601 31.38 11.7401C30.21 11.0201 28.94 11.2601 27.76 11.9001C27.01 12.3101 26.58 13.6101 25.5 12.9001C24.42 12.1901 25.63 10.9401 26.29 10.4301C27.09 9.81007 28.52 9.20007 29.52 9.08007Z" fill="#0E0D0C"/>
<path d="M17.34 17.4601C19.9 17.0901 20.39 21.0901 17.95 21.3501C15.36 21.6201 15.16 17.7701 17.34 17.4601Z" fill="#0E0D0C"/>
<path d="M29.78 13.27C30.66 13.11 32.1599 13.54 31.6799 14.65C31.3499 15.41 30.55 15.05 30.02 15.35C29.7 15.53 29.6299 15.99 29.2499 16.15C27.7899 16.78 27.07 14.98 28.45 13.91C28.73 13.69 29.43 13.33 29.77 13.26L29.78 13.27Z" fill="#0E0D0C"/>
<path d="M7.36995 16.8C7.59995 16.77 8.48998 16.98 8.70998 17.11C9.59998 17.64 9.19994 19.67 8.22994 19.89C5.82994 20.44 5.92995 17.01 7.36995 16.8Z" fill="#0E0D0C"/>
<path d="M70.4001 24.2701C71.0701 24.1801 72.4201 24.4301 72.5201 25.2401C72.7401 26.9601 69.5101 26.3301 69.3801 25.3501C69.2901 24.7101 69.8401 24.3501 70.4001 24.2701Z" fill="#0E0D0C"/>
<path d="M83.09 8.67998C83.96 8.40998 85.55 9.43998 85.33 10.39C84.98 11.93 82.75 10.64 82.61 9.88998C82.54 9.51998 82.67 8.80998 83.09 8.67998Z" fill="#0E0D0C"/>
<path d="M73.6701 8.67995C74.4001 8.53995 75.6501 9.37995 75.6801 10.1699C75.7401 11.7499 72.8401 10.7499 72.7801 9.76995C72.7401 9.19995 73.1401 8.77995 73.6801 8.67995H73.6701Z" fill="#0E0D0C"/>
<path d="M57.8201 58.5901C59.4801 58.2901 59.03 61.6401 57.66 61.5901C56.14 61.5401 56.9101 58.7501 57.8201 58.5901Z" fill="#0E0D0C"/>
<path d="M55.2 51.65C56.99 51.29 56.95 55.09 55.33 54.62C54.47 54.37 54.12 51.87 55.2 51.65Z" fill="#0E0D0C"/>
<path d="M88.7299 17.4501C89.8499 17.2101 91.28 20.0201 89.95 20.3901C88.91 20.6701 87.1699 17.7801 88.7299 17.4501Z" fill="#0E0D0C"/>
<path d="M54.01 11.95C55.08 11.63 56.49 12.43 56.09 13.63C55.69 14.83 53.05 13.78 53.42 12.54C53.47 12.38 53.85 12 54.01 11.95Z" fill="#0E0D0C"/>
<path d="M98.3001 19.68C99.7801 19.37 100.57 22.43 99.16 22.65C98.28 22.78 96.9401 19.96 98.3001 19.68Z" fill="#0E0D0C"/>
<path d="M92.27 9.07C93.13 8.81 94.52 10.01 94.4 10.93C94.2 12.51 92.17 11.04 91.85 10.35C91.67 9.96 91.83 9.2 92.27 9.07Z" fill="#0E0D0C"/>
<path d="M57.03 21.12C58.41 20.83 60.21 22.76 58.64 23.26C56.94 23.8 55.47 21.45 57.03 21.12Z" fill="#0E0D0C"/>
<path d="M94.3701 28.59C95.6301 28.43 97.1901 31.67 94.6601 30.99C93.3901 30.65 92.9401 28.77 94.3701 28.59Z" fill="#0E0D0C"/>
<path d="M66.7199 17.33C67.3299 17.19 68.8399 17.43 68.9799 18.16C69.3999 20.38 64.8799 18.79 66.2899 17.56C66.4099 17.45 66.55 17.37 66.71 17.33H66.7199Z" fill="#0E0D0C"/>
<path d="M83.6199 27.35C82.5899 28.45 80.0499 26.53 81.4399 25.62C82.5799 24.88 84.4399 26.48 83.6199 27.35Z" fill="#0E0D0C"/>
<path d="M65.0201 9.47004C67.6601 9.02004 67.4201 12.25 64.6301 11.24C63.4701 10.82 64.0801 9.63004 65.0201 9.47004Z" fill="#0E0D0C"/>
<path d="M46.62 16.68C46.73 16.54 47.11 16.38 47.3 16.37C48.12 16.32 49.28 17.78 48.81 18.55C48.11 19.71 45.84 17.63 46.62 16.68Z" fill="#0E0D0C"/>
<path d="M77.59 17.07C79.02 16.65 80.25 18.79 79.07 19.33C77.92 19.86 76.24 17.47 77.59 17.07Z" fill="#0E0D0C"/>
<path d="M42.3499 9.75002C43.7199 11.06 41.8399 12.55 40.7599 11.01C40.0399 9.99002 41.3799 8.83002 42.3499 9.75002Z" fill="#0E0D0C"/>
<path d="M29.12 48.11C29.75 47.92 30.17 48.18 30.38 48.76C30.63 49.46 30.84 50.71 30.4 51.35C30.11 51.77 29.12 51.77 28.93 51.26C28.72 50.69 28.36 48.34 29.12 48.11Z" fill="#0E0D0C"/>
<path d="M32.66 54.13C34.36 53.86 33.8701 58.25 32.0701 57.42C31.2301 57.03 31.66 54.29 32.66 54.13Z" fill="#0E0D0C"/>
<path d="M26.6999 62.59C25.9299 61.86 27.0399 59.51 28.3699 60.47C29.6299 61.38 27.6299 63.47 26.6999 62.59Z" fill="#0E0D0C"/>
<path d="M80.74 58.2C82.19 57.76 82.62 59.96 81.29 60.72C79.61 61.68 79.47 58.58 80.74 58.2Z" fill="#0E0D0C"/>
</svg>
