<svg width="129" height="134" viewBox="0 0 129 134" fill="none" xmlns="http://www.w3.org/2000/svg">
<path d="M39.46 9.17005C40.69 7.65005 41.45 3.76005 44.07 4.15005C44.75 4.25005 45.32 4.77005 45.6 5.38005C46.81 7.97005 44.6401 11.1501 43.7901 13.5901C42.2701 17.9601 41.68 22.7501 42.21 27.3501C44.95 25.4801 47.8701 22.5901 48.6201 19.2401C49.1601 16.8101 48.8601 10.4801 51.8101 9.61005C53.2201 9.20006 54.3001 9.87006 54.6301 11.2801C55.0401 13.0201 54.5301 14.1701 54.5301 15.7501C54.5301 16.0001 54.4301 16.2301 54.7801 16.1601C55.8001 15.9801 57.53 13.4601 57.97 12.5401C58.84 10.7301 59.1301 6.79005 61.7601 7.07005C64.1501 7.32005 64.2001 11.2001 63.9101 12.9601C63.3801 16.0801 61.3101 18.4801 58.9201 20.3801C60.9201 20.0201 64.14 19.1001 65.57 21.1101C67.43 23.7201 63.16 25.4201 61.11 25.5801C58.1 25.8201 55.8201 25.1701 52.8001 26.3601C50.7801 27.1501 46.7 30.4901 45.36 32.2301C45.24 32.3901 45.0501 32.4401 45.1201 32.7201C47.6801 33.7901 50.5001 33.7501 53.1501 34.5001C58.7001 36.0901 63.4401 40.8801 69.7801 38.4801C74.4901 36.6901 74.81 30.9601 77.94 29.7601C80.61 28.7401 81.7501 31.0201 80.8901 33.3601C80.5501 34.2901 78.13 38.0501 78.7 38.7201C81.25 38.2301 85.4901 36.0901 87.7901 37.9901C88.6401 38.6901 88.86 39.6601 88.36 40.6801C87.18 43.1301 80.67 43.3501 78.2 43.8301C74.13 44.6201 70.5601 46.3301 66.2701 46.0301C60.4901 45.6301 55.55 41.5801 50.21 39.6901C47.23 38.6401 43.6301 37.6001 40.5501 38.7201C41.5301 39.5601 42.8 40.3101 43.95 40.9201C45.57 41.7701 49.0801 42.3501 46.6401 44.8901C44.5101 47.1201 41.09 47.8901 38.11 47.3201C38.59 51.8201 41.5101 56.9601 44.9201 59.9001C45.4901 60.3901 47.3701 61.8301 48.0001 62.0201C48.5901 62.2001 50.47 61.8701 51.34 61.9201C54.24 62.1001 57.72 63.5901 60.6 64.3501C65.42 65.6101 70.4201 66.5101 75.37 67.1001C80.64 67.73 86.64 67.6001 91.69 69.1101C93.51 69.6501 94.7801 70.5501 96.7601 70.6901C99.2801 70.8801 101.96 70.4401 104.26 69.4101C106.38 68.4701 108.98 66.0301 108.51 70.5801C108.38 71.8401 107.12 73.76 107.1 74.2001C107.1 74.4 107.4 74.6701 107.41 75.1401C107.45 77.2101 104.5 79.8 102.53 80.1001C103.39 82.6301 103.7 85.1301 103.5 87.8101C103.31 90.5001 101.65 93.8601 102.27 96.5001C102.89 99.1401 108.42 99.7601 110.3 101.29C111.5 102.27 113.19 106.93 114.12 108.66C116.88 113.78 120.57 119.01 124.34 123.43C125.94 125.3 127.31 126.28 128.07 128.95C129.18 132.85 126.15 133.1 123.34 131.73C115.96 128.14 111.36 117.66 105.85 111.58C103.46 108.94 102.59 109.4 99.48 108.38C96.67 107.46 94.02 106.27 91.57 104.6C91.47 104.6 91.32 105.35 91.32 105.49C91.35 107.95 92.76 111.3 91.84 113.64C91.05 115.65 85.56 119.55 83.69 121.23C82.46 122.34 81.08 123.59 79.96 124.8C79.04 125.8 77.6201 128.09 76.8001 128.78C76.4201 129.1 75.98 129.04 75.58 129.5C74.67 130.53 74.8001 132.1 73.3001 133.07C71.9101 133.97 66.5201 134.22 65.0301 133.57C63.6601 132.96 64.18 131.75 64.87 130.81C66.29 128.89 68.6501 127.42 70.3001 125.7C72.5901 123.32 74.6201 120.28 76.7901 117.74C78.0301 116.28 80.06 114.52 81.09 113.12C81.64 112.38 81.6901 111.63 81.5401 110.73C81.2601 109.08 77.6 104.73 76.48 102.97C75.83 101.95 75.2 100.89 74.74 99.7601L67.5501 100.55C63.2001 100.66 58.8001 100.33 54.6401 99.0001C53.0201 98.4801 51.53 97.6401 49.95 97.1501C48.79 99.6301 46.72 101.86 45.47 104.28C44.55 106.06 44.8001 106.18 46.0401 107.61C47.8901 109.76 50.8 111.91 53.2 113.43C53.76 113.78 56.28 115.41 56.69 115.47C57.8 115.65 59.3901 114.22 60.5601 114.84C62.1701 116.22 64.13 117.56 65.69 118.96C68.18 121.21 67.12 122.36 64.23 123.02C57.03 124.67 54.5 121.68 48.82 118.63C45.44 116.82 41.81 115.48 38.48 113.55C33.61 110.72 33.44 109.1 34.61 103.62C35.27 100.52 36.45 97.5201 36.96 94.3701C35.25 96.4701 33.68 98.7001 31.85 100.7C29.6 103.16 26.0401 105.8 24.1401 108.24C20.7701 112.58 17.9 119.92 14.08 123.82C13.77 124.14 13.2201 124.34 13.1501 124.43C13.0401 124.57 12.7001 125.78 12.4301 126.23C11.2201 128.25 9.60003 128.63 7.35003 128.78C4.40003 128.97 -0.299974 128.73 3.22003 124.98C4.16003 123.97 6.35008 122.47 7.03008 121.48C9.84008 117.39 12.98 113.83 15.24 109.25C16.33 107.05 17.2701 103.31 18.6201 101.6C19.0501 101.05 19.7101 100.59 20.1601 100.06C22.9501 96.7501 25.51 93.23 27.8701 89.59C26.3601 87.55 25.3001 85.2201 24.8701 82.6901L24.6301 82.5301C23.8901 85.1801 22.5401 83.2901 21.8901 81.7801C20.5401 78.59 20.71 75.0501 20.73 71.6601C20.42 71.8301 20.3201 72.2501 19.9101 72.3901C18.0501 73.0001 18.5401 68.4501 18.6701 67.5701C18.9101 65.9001 21.9901 55.3201 21.5301 54.8001C18.5901 54.3401 16.0801 52.6701 13.3001 51.7501C8.8101 50.2601 3.19006 50.9501 1.25006 45.7801C1.00006 45.1101 0.21006 42.7901 0.13006 42.1901C-0.35994 38.6501 1.88005 37.4201 5.06005 37.2501C7.78005 37.1001 10.8401 37.4501 13.6701 37.2501C19.3901 36.8501 24.9801 34.0701 30.5301 36.6101C31.3701 35.4701 32.89 34.7301 34.19 34.1601C30.21 31.1501 25.16 26.7201 25.96 21.1401C26.14 19.9001 27.0501 18.6601 28.4301 18.7401C29.7001 18.8101 30.5601 20.0801 31.1801 21.0301C32.0201 22.3101 34.3601 27.4801 35.2901 27.9601C35.5501 28.0901 35.8501 28.1701 36.1401 28.1601C36.2501 24.4701 36.1801 21.0601 35.4101 17.4501C34.6201 13.7501 33.0501 10.6101 33.4001 6.68005C33.5801 4.66005 35.1701 -0.389946 37.9301 0.320054C40.7301 1.04005 39.2801 7.12005 39.3901 9.17005H39.46ZM43.35 6.58005C42.36 7.84005 41.1701 11.7801 39.9301 12.4901C39.3201 12.8401 38.48 12.7201 37.99 12.1901C36.61 10.6801 37.8 5.16005 37.49 3.12005C37.34 2.58005 36.89 3.21005 36.73 3.45005C34.04 7.41005 37.25 14.2601 37.95 18.5601C38.43 21.4901 38.8101 25.8201 38.3101 28.7201C37.9601 30.7501 35.7501 30.6301 34.2901 29.8501C32.3401 28.8001 30.7201 24.2201 29.4101 22.2401C28.9601 21.5601 28.25 20.3701 28.11 21.9201C27.72 26.0301 32.12 29.9101 35.1 32.1301C36.12 32.8901 37.18 32.9601 36.46 34.6601C35.72 36.4301 33.1301 36.4001 32.1601 38.0701C33.3401 38.1501 34.6601 37.7401 35.8101 37.7301C36.4601 37.7301 37.6101 38.0901 38.0601 38.0201C38.3301 37.9801 39.1 37.2401 39.48 37.0301C46.21 33.4101 55.78 40.5801 61.86 42.8501C68.24 45.2301 71.4101 43.0201 77.4101 41.8501C79.6701 41.4101 82.0801 41.3601 84.2901 40.7801C84.6701 40.6801 86.55 40.0501 86.69 39.8501C87.16 39.1801 84.9201 39.1801 84.6601 39.2001C81.7201 39.3901 75.9001 43.2701 76.6801 37.5401C76.9801 35.3001 79.11 33.8001 79.07 31.5801C78.94 31.4201 78.08 32.1501 77.94 32.3101C76.98 33.3601 76.2501 35.3801 75.3101 36.6601C71.3801 42.0601 65.03 41.9701 59.33 39.5601C57.65 38.8501 56.04 37.7601 54.33 37.0901C51.5 35.9901 48.74 36.0201 45.97 35.2301C37.67 32.8601 39.5301 19.4001 41.6401 13.2101C42.2901 11.2901 43.94 8.64005 43.7 6.67005L43.3801 6.59005L43.35 6.58005ZM61.69 9.17005C61.32 9.11005 61.1701 9.47005 61.0101 9.71005C60.3101 10.7501 59.9901 12.5901 59.4001 13.7801C58.5301 15.5301 56.65 17.6401 54.72 18.1801C51.05 19.2101 52.5901 16.1001 52.7701 14.1201C52.8101 13.6901 52.9801 11.2301 52.2801 11.6801C51.3201 12.3101 51.0301 17.7701 50.7701 19.1001C50.0201 22.9701 47.72 25.6101 44.82 28.0801C44.52 28.3401 43.01 29.3501 42.94 29.4601C42.71 29.8201 43.34 30.7601 43.6 31.0801C47.13 27.4601 50.56 23.8901 55.94 23.4601C57.92 23.3001 59.74 23.8101 61.74 23.4201C63.08 23.1601 65.42 22.0301 62.6 21.8301C61.05 21.7201 57.4001 22.9301 56.5301 21.2501C55.6101 19.4701 57.6201 18.7701 58.6201 17.8601C61.1001 15.6101 62.73 12.6001 61.7 9.18005L61.69 9.17005ZM82.46 93.0701C81.77 91.3301 80.6 87.48 80.85 85.7001C80.93 85.1701 81.2601 84.2901 81.9001 84.7801C82.3501 85.12 83.39 89.36 83.71 90.2701C86.39 97.9301 91.38 103.32 99.09 106.05C100.77 106.64 102.81 106.92 104.36 107.59C108.28 109.28 114.96 120.86 118 124.62C118.24 124.92 119.14 126 119.37 126.17C119.88 126.57 119.71 126.17 119.94 125.92C120.27 125.57 122.08 123.91 122.04 123.67C118.02 118.82 114.07 113.29 111.31 107.61C110.72 106.39 110.16 104.4 109.53 103.38C108.82 102.23 106.28 101.79 105.01 101.24C96.3901 97.5201 101.76 92.0701 101.61 85.4901C101.58 83.98 101.07 82.0001 100.5 80.6001C100.18 79.8101 98.51 77.6201 99.82 77.2101C100.89 76.8701 101.11 78.2601 101.66 78.2501C102.58 78.2401 104.35 76.9901 104.86 76.1701C104.22 76.4201 102.5 76.3901 102.77 75.3101C102.85 74.9901 105.08 73.4501 105.58 72.7501C105.97 72.2001 106.33 71.3301 106.4 70.6501C104.18 71.8901 101.62 72.5301 99.09 72.7501C98.8 72.7801 97.6001 72.6901 97.5501 72.7501C97.4401 72.8601 97.8401 74.0101 96.6701 73.8901C96.1801 73.84 94.36 72.2801 93.6 71.9101C89.05 69.7001 82.2101 69.8801 77.1801 69.34C72.4901 68.84 67.57 68.0601 62.98 66.9901C59.58 66.2001 55.23 64.37 51.98 64.0301C50.68 63.8901 48.5101 64.3201 47.5601 64.0701C46.9601 63.9101 45.2401 62.7001 44.6601 62.2701C40.0501 58.8501 36.5 52.6901 35.98 46.9401C35.77 46.6201 33.1101 46.8301 33.0001 45.5501C32.8301 43.6401 36.6 45.0101 37.61 45.1501C39.55 45.4101 41.7301 45.5401 43.5201 44.6101C43.7701 44.4801 45.0301 43.6301 44.8101 43.3901C41.8601 42.5801 39.61 40.0501 36.45 39.8201C34.69 39.6901 32.17 40.6601 30.7 39.7301C30.16 39.3901 30.0101 38.68 29.7701 38.5101C29.5201 38.3301 27.86 37.8701 27.45 37.7901C23.95 37.0701 20.2901 38.5301 16.7901 38.9901C13.7501 39.3901 10.78 39.2701 7.74005 39.4901C6.99005 41.6301 4.71007 43.0401 2.45007 42.9101C3.64007 45.9101 7.30003 44.8301 9.66003 45.1901C10.33 45.2901 10.74 45.8601 10.17 46.3301C9.34004 47.0101 4.99007 46.6001 3.83007 46.1601C5.31007 48.4201 8.51007 48.2801 10.8901 48.8301C11.8801 49.0601 12.98 49.3601 13.94 49.6801C17.62 50.9101 20.66 53.5601 24.72 52.6001C25.56 52.4001 28.1601 50.6501 28.5601 51.7801C28.8901 52.7301 27.5301 53.4601 26.8001 53.7801C26.2801 54.0101 23.8901 54.4601 23.7901 54.5901C23.6301 54.8001 23 59.0101 22.82 59.7901C22.27 62.2401 21.0801 65.3001 20.8001 67.6801C20.7801 67.8501 20.68 68.1101 20.95 68.0701C21.09 67.5501 22.1601 65.6901 22.5301 65.4701C23.0801 65.1401 23.72 65.2401 23.85 65.9201C24 66.69 22.9801 70.1401 22.9001 71.3901C22.7101 74.1701 22.9101 77.19 23.4001 79.9201L24.4101 76.7901C24.7001 76.1101 25.2701 74.5101 26.2801 75.0801C26.8701 75.4201 26.43 78.3601 26.47 79.1901C26.6 81.9201 27.4 84.6201 28.59 87.0501L29.0401 84.0101C30.1901 81.8201 31.12 85.2901 31.7 86.2901C33.14 88.7501 34.9501 89.9101 37.2701 91.4301C37.5601 91.2001 37.6401 90.9001 37.6801 90.5401C37.9401 88.3201 37.61 85.6601 37.19 83.4801C37.05 82.7801 35.67 78.5201 37.6 80.3901C43.16 85.7901 37.03 99.9201 36.24 106.3C35.9 109.05 36.41 109.85 38.71 111.26C42.07 113.32 45.86 114.7 49.35 116.53C52.34 118.09 55.0001 120.34 58.2901 121.13C58.5501 120.85 57.3001 118.29 57.0001 117.96C56.3501 117.26 52.5601 115.41 51.3901 114.64C49.3701 113.31 44.0001 109.24 43.1701 107.12C42.6201 105.73 42.9401 104.67 43.5601 103.38C46.7701 99.2501 49.2801 93.6501 52.6201 89.7301C52.8901 89.4101 53.8001 88.4401 54.1201 88.3001C55.0801 87.8801 55.56 88.5701 55.34 89.5201C55.3 89.7001 54.7201 90.55 54.5601 90.7701C53.6701 92.0201 52.3201 93.34 51.6701 94.7801C51.5901 94.9601 51.4001 95.09 51.5501 95.3201C51.8401 95.7701 55.4301 97.0101 56.1501 97.2201C65.2201 99.8201 74.64 97.9401 83.45 95.3201C83.73 95.0001 82.61 93.3801 82.48 93.0501L82.46 93.0701ZM35.5601 92.5801C33.9201 91.9201 32.4801 90.7601 31.4201 89.3301C31.3701 90.8301 30.97 90.8201 29.59 90.8201C27.97 93.3001 26.2601 95.7501 24.4301 98.0701C23.1401 99.7001 21.0601 101.65 20.0101 103.23C19.2401 104.39 18.5501 106.98 17.9001 108.42C15.6301 113.46 13.11 116.68 9.85003 120.98C9.70003 121.18 9.34008 121.49 9.59008 121.69C9.69008 121.77 11.8901 122.81 12.0201 122.84C12.1401 122.87 12.23 122.95 12.35 122.84C13.96 120.64 15.48 118.37 16.96 116.08C18.77 113.29 20.7101 109.33 22.6701 106.86C24.7101 104.29 28.27 101.64 30.61 99.0601C32.43 97.05 34.0701 94.8301 35.5601 92.5701V92.5801ZM84.7 97.1501L76.7801 99.2301C77.3501 100.29 77.94 101.35 78.6 102.36C80.39 105.14 84.09 108.68 83.74 112.11C83.52 114.31 80.67 116.46 79.22 118.14C77.12 120.56 75.0501 123.1 73.0501 125.6C72.9301 125.76 72.11 126.71 72.24 126.81C72.95 126.55 75.15 127.37 75.61 127.1C75.8 126.99 77.78 124.17 78.24 123.65C78.85 122.97 79.5901 122.25 80.2601 121.61C82.9201 119.07 86.82 116.54 89.19 113.99C89.73 113.41 90.2401 112.61 90.2501 111.8C90.2701 110.28 89.5301 108.1 89.4301 106.45C89.3601 105.3 89.4301 104.15 89.7701 103.06C87.7601 101.43 86 99.3701 84.7 97.1401V97.1501Z" fill="#100F10"/>
<path d="M26.8001 53.8C27.5301 53.48 28.8901 52.75 28.5601 51.8C28.1701 50.67 25.56 52.42 24.72 52.62C20.67 53.58 17.62 50.93 13.94 49.7C12.98 49.38 11.8801 49.08 10.8901 48.85C8.51008 48.3 5.31008 48.44 3.83008 46.18C4.99008 46.62 9.34004 47.03 10.17 46.35C10.74 45.88 10.33 45.32 9.66003 45.21C7.30003 44.85 3.64007 45.93 2.45007 42.93C4.71007 43.06 6.99005 41.65 7.74005 39.51C10.7801 39.29 13.7501 39.41 16.7901 39.01C20.2901 38.55 23.94 37.09 27.45 37.81C27.86 37.89 29.5101 38.35 29.7701 38.53C30.0101 38.7 30.16 39.41 30.7 39.75C32.17 40.68 34.69 39.71 36.45 39.84C39.61 40.07 41.8601 42.6 44.8101 43.41C45.0301 43.66 43.7701 44.51 43.5201 44.63C41.7301 45.56 39.55 45.43 37.61 45.17C36.6 45.03 32.8301 43.66 33.0001 45.57C33.1101 46.85 35.77 46.65 35.98 46.96C36.51 52.71 40.0501 58.87 44.6601 62.29C45.2401 62.72 46.9601 63.94 47.5601 64.09C48.5101 64.34 50.68 63.91 51.98 64.05C55.22 64.39 59.58 66.22 62.98 67.01C67.57 68.08 72.4901 68.85 77.1801 69.36C82.2101 69.9 89.05 69.72 93.6 71.93C94.35 72.3 96.1801 73.86 96.6701 73.91C97.8301 74.03 97.4401 72.89 97.5501 72.77C97.6001 72.71 98.8 72.79 99.09 72.77C101.62 72.55 104.17 71.9 106.4 70.67C106.32 71.35 105.97 72.21 105.58 72.77C105.08 73.47 102.85 75.01 102.77 75.33C102.49 76.41 104.21 76.44 104.86 76.19C104.36 77.01 102.59 78.25 101.66 78.27C101.11 78.27 100.89 76.89 99.82 77.23C98.51 77.64 100.18 79.84 100.5 80.62C101.08 82.02 101.58 84 101.61 85.51C101.76 92.09 96.4001 97.53 105.01 101.26C106.28 101.81 108.82 102.25 109.53 103.4C110.16 104.42 110.71 106.41 111.31 107.63C114.07 113.31 118.02 118.84 122.04 123.69C122.08 123.93 120.27 125.6 119.94 125.94C119.71 126.18 119.89 126.59 119.37 126.19C119.14 126.01 118.25 124.94 118 124.64C114.97 120.88 108.28 109.3 104.36 107.61C102.81 106.94 100.76 106.66 99.09 106.07C91.38 103.34 86.4 97.95 83.71 90.29C83.39 89.38 82.3501 85.14 81.9001 84.8C81.2601 84.31 80.93 85.19 80.85 85.72C80.59 87.49 81.77 91.35 82.46 93.09C80.85 92.73 79.2 92.55 77.59 92.2C75.74 91.79 74.03 90.92 72.08 91.14C71.88 91.77 73.13 92.34 73.21 92.69C73.35 93.33 70.8501 93.43 70.3801 93.41C68.6501 93.34 66.82 92.63 65.1 92.44L65.7501 94.22C65.2001 94.82 60.1101 93.25 59.1701 92.93C57.6601 92.41 55.8401 91.73 54.5501 90.82C54.7101 90.6 55.28 89.75 55.33 89.57C55.55 88.61 55.07 87.93 54.11 88.35C53.79 88.49 52.88 89.46 52.61 89.78C49.26 93.7 46.7601 99.31 43.5501 103.43C42.9401 104.71 42.6201 105.78 43.1601 107.17C43.9901 109.29 49.3601 113.36 51.3801 114.69C52.5501 115.46 56.3301 117.31 56.9901 118.01C57.2901 118.33 58.5501 120.9 58.2801 121.18C54.9901 120.39 52.33 118.14 49.34 116.58C45.85 114.76 42.06 113.38 38.7 111.31C36.41 109.9 35.89 109.1 36.23 106.35C37.02 99.97 43.16 85.84 37.59 80.44C35.66 78.57 37.0401 82.83 37.1801 83.53C31.8501 81.05 29.5701 75.23 28.7401 69.74C27.8401 69.9 28.1101 71.35 27.2801 71.69C26.4001 68.79 26.13 65.78 26.47 62.76L25.5001 62.84L26.8001 53.84V53.8ZM23.6601 40.71C21.2101 40.74 20.19 44.38 22.82 44.23C25.11 44.09 26.2401 40.69 23.6601 40.71ZM40.4201 43.88C41.2001 42.77 37.3 41.71 36.6 41.64C35.62 41.55 33.8601 41.86 35.4001 42.68C35.8201 42.9 39.2801 43.97 39.7401 44.02C39.8901 44.04 40.3601 43.95 40.4201 43.88ZM34.2401 61.07C34.5501 60.58 33.5501 58.51 33.0101 58.36C31.2401 57.87 32.5401 62.22 34.2401 61.07ZM41.2 64.63C41.45 64.39 41.37 64.07 41.22 63.8C41.11 63.61 39.5601 61.88 39.3701 61.75C38.3801 61.05 37.5101 61.63 38.1801 62.77C38.6201 63.51 40.27 65.51 41.19 64.62L41.2 64.63ZM53.5501 68.38C54.0301 67.62 52.9501 67.02 52.3901 66.75C51.8301 66.48 50.6001 65.92 50.2501 66.62C49.6601 67.77 53.1901 68.97 53.5601 68.38H53.5501ZM40.0601 68.59C39.9201 68.63 39.76 68.76 39.7 68.89C38.95 70.42 42.3901 72.46 42.5501 70.75C42.6001 70.25 40.7401 68.4 40.0601 68.59ZM31.44 68.74C30.15 69.12 31.89 73.47 33.19 73.1C33.91 72.9 32.7401 71.27 32.5601 70.83C32.3601 70.34 32.15 68.52 31.44 68.73V68.74ZM60.33 70.37C59.99 70.48 60.01 70.93 60.09 71.21C60.33 72 64.9901 72.87 64.0401 71C63.7601 70.44 60.89 70.19 60.33 70.38V70.37ZM53.5501 74.06C53.6301 73.93 53.5901 73.4 53.5401 73.22C53.3301 72.55 48.69 70.66 49.6 72.62C49.95 73.37 53.2301 74.59 53.5601 74.06H53.5501ZM77.08 72.48C76.96 72.29 73.19 71.16 73.19 72.54C73.19 73.47 75.8001 73.69 76.5401 73.6C77.1401 73.53 77.34 72.89 77.08 72.48ZM87.7701 74.36C89.0001 72.93 84.5201 72.82 84.3901 73.37C84.0501 74.83 87.4201 74.76 87.7701 74.36ZM66.5101 73.95C65.9701 74.11 65.9601 74.66 66.3001 75.07C66.8001 75.66 71.2 76.84 70.59 75C70.41 74.45 67.1201 73.77 66.5101 73.95ZM93.7901 75.1C93.0801 75.15 90.9601 75.4 91.6301 76.52C92.0201 77.17 94.76 76.56 94.94 75.92C95.18 75.07 94.3801 75.07 93.7901 75.11V75.1ZM58.3901 75.9C58.1001 75.99 57.92 76.28 57.94 76.59C58.04 77.63 62.41 78.33 61.6 76.68C61.32 76.11 59.0001 75.72 58.3801 75.9H58.3901ZM78.44 77.29C79 77.85 82.45 77.98 82.11 76.63C81.85 75.58 78.6601 75.67 78.3101 76.35C78.1801 76.6 78.24 77.09 78.44 77.29ZM44.7501 77.2C44.4801 77.23 43.9901 77.59 43.9901 77.89C43.9901 78.75 47.4201 80.33 47.2501 78.54C47.2101 78.11 45.1601 77.15 44.7501 77.2ZM71.7801 79.78C70.9001 81.21 75.2701 81.96 75.6201 80.95C76.3001 78.97 72.1101 79.25 71.7801 79.78ZM88.7901 79.43C88.2401 79.44 86.0801 79.3 85.8901 79.86C85.3801 81.32 88.6001 81 88.7701 80.47C88.8701 80.18 88.7601 79.75 88.7901 79.43ZM95.22 82.37C94.7 82.55 94.36 86.33 95.84 86.09C96.93 85.91 96.84 81.8 95.22 82.37Z" fill="#B76416"/>
<path d="M43.35 6.58005L43.6701 6.66005C43.9101 8.62005 42.2601 11.2701 41.6101 13.2001C39.5101 19.4001 37.65 32.8501 45.94 35.2201C48.71 36.0101 51.4701 35.9801 54.3001 37.0801C56.0001 37.7401 57.6201 38.8401 59.3001 39.5501C65.0001 41.9601 71.3501 42.0501 75.2801 36.6501C76.2101 35.3701 76.9501 33.34 77.9101 32.3001C78.0501 32.1401 78.9101 31.4101 79.0401 31.5701C79.0801 33.7901 76.9501 35.3001 76.6501 37.5301C75.8701 43.2601 81.6901 39.3701 84.6301 39.1901C84.8901 39.1701 87.1301 39.1701 86.6601 39.8401C86.5201 40.0401 84.6401 40.6701 84.2601 40.7701C82.0501 41.3501 79.6401 41.4001 77.3801 41.8401C71.3901 43.0101 68.21 45.2201 61.83 42.8401C55.76 40.5701 46.18 33.4001 39.45 37.0201C39.07 37.2301 38.3001 37.9701 38.0301 38.0101C37.5801 38.0801 36.4301 37.7201 35.7801 37.7201C34.6301 37.7201 33.3101 38.1401 32.1301 38.0601C33.1001 36.3901 35.6901 36.4201 36.4301 34.6501C37.1401 32.9501 36.09 32.8801 35.07 32.1201C32.08 29.9001 27.69 26.0201 28.08 21.9101C28.23 20.3601 28.9301 21.5501 29.3801 22.2301C30.7001 24.2101 32.3101 28.8001 34.2601 29.8401C35.7201 30.6201 37.9301 30.7401 38.2801 28.7101C38.7801 25.8101 38.4001 21.4801 37.9201 18.5501C37.2201 14.2401 34 7.40005 36.7 3.44005C36.86 3.20005 37.32 2.57005 37.46 3.11005C37.77 5.15005 36.58 10.6701 37.96 12.1801C38.45 12.7201 39.2901 12.8301 39.9001 12.4801C41.1401 11.7701 42.34 7.84005 43.32 6.57005L43.35 6.58005Z" fill="#793A04"/>
<path d="M84.7 97.15C86 99.38 87.7601 101.44 89.7701 103.07C89.4201 104.16 89.3601 105.31 89.4301 106.46C89.5201 108.11 90.2601 110.28 90.2501 111.81C90.2501 112.62 89.73 113.42 89.19 114C86.82 116.55 82.9301 119.08 80.2601 121.62C79.5901 122.26 78.8501 122.98 78.2401 123.66C77.7801 124.18 75.7901 127 75.61 127.11C75.15 127.38 72.9401 126.56 72.2401 126.82C72.1201 126.71 72.9301 125.76 73.0501 125.61C75.0501 123.1 77.12 120.57 79.22 118.15C80.67 116.48 83.5201 114.32 83.7401 112.12C84.0901 108.68 80.38 105.15 78.6 102.37C77.95 101.36 77.3501 100.3 76.7801 99.24L84.7 97.16V97.15Z" fill="#793A04"/>
<path d="M26.8001 53.8L25.5 62.8L26.47 62.72C26.13 65.74 26.41 68.74 27.28 71.65C28.1 71.31 27.83 69.87 28.74 69.7C29.57 75.2 31.8501 81.01 37.1801 83.49C37.6001 85.67 37.9301 88.33 37.6701 90.55C37.6301 90.91 37.55 91.2 37.26 91.44C34.94 89.92 33.1299 88.76 31.6899 86.3C31.11 85.3 30.17 81.83 29.03 84.02L28.58 87.06C27.39 84.63 26.59 81.93 26.46 79.2C26.42 78.38 26.86 75.43 26.27 75.09C25.25 74.51 24.69 76.12 24.4 76.8L23.39 79.93C22.91 77.2 22.71 74.18 22.89 71.4C22.97 70.15 23.99 66.7 23.84 65.93C23.71 65.24 23.07 65.15 22.52 65.48C22.15 65.7 21.0799 67.56 20.9399 68.08C20.6799 68.12 20.77 67.86 20.79 67.69C21.07 65.32 22.2501 62.26 22.8101 59.8C22.9801 59.02 23.62 54.81 23.78 54.6C23.88 54.48 26.27 54.02 26.79 53.79L26.8001 53.8Z" fill="#F5CC9B"/>
<path d="M35.5601 92.5801C34.0701 94.8401 32.44 97.0601 30.61 99.0701C28.27 101.65 24.7101 104.3 22.6701 106.87C20.7101 109.34 18.78 113.3 16.96 116.09C15.47 118.38 13.96 120.65 12.35 122.85C12.24 122.96 12.1401 122.88 12.0201 122.85C11.8901 122.82 9.69006 121.78 9.59006 121.7C9.34006 121.5 9.70001 121.19 9.85001 120.99C13.11 116.69 15.6301 113.47 17.9001 108.43C18.5501 106.99 19.24 104.39 20.01 103.24C21.06 101.66 23.1401 99.7201 24.4301 98.0801C26.2601 95.7501 27.97 93.3101 29.59 90.8301C30.98 90.8301 31.3801 90.8301 31.4201 89.3401C32.4701 90.7601 33.9201 91.9301 35.5601 92.5901V92.5801Z" fill="#793A04"/>
<path d="M54.5501 90.79C55.8401 91.7 57.6601 92.38 59.1701 92.9C60.1101 93.22 65.2 94.79 65.75 94.19L65.1 92.41C66.82 92.6 68.64 93.31 70.38 93.38C70.85 93.4 73.35 93.31 73.21 92.66C73.13 92.31 71.88 91.74 72.08 91.11C74.03 90.88 75.74 91.76 77.59 92.17C79.2 92.52 80.85 92.7 82.46 93.06C82.59 93.39 83.7201 95.01 83.4301 95.33C74.6201 97.95 65.2 99.83 56.13 97.23C55.41 97.02 51.8201 95.78 51.5301 95.33C51.3801 95.1 51.5701 94.97 51.6501 94.79C52.3101 93.35 53.6501 92.03 54.5401 90.78L54.5501 90.79Z" fill="#F5CC9B"/>
<path d="M61.69 9.17008C62.72 12.6001 61.09 15.6001 58.61 17.8501C57.61 18.7601 55.6001 19.4601 56.5201 21.2401C57.3901 22.9201 61.04 21.7201 62.59 21.8201C65.41 22.0201 63.07 23.1401 61.73 23.4101C59.73 23.8001 57.9201 23.3001 55.9301 23.4501C50.5601 23.8801 47.12 27.4501 43.59 31.0701C43.33 30.7501 42.7101 29.8101 42.9301 29.4501C43.0001 29.3401 44.5001 28.3301 44.8101 28.0701C47.7101 25.6001 50.0101 22.9601 50.7601 19.0901C51.0201 17.7601 51.3101 12.3001 52.2701 11.6701C52.9701 11.2101 52.8001 13.6801 52.7601 14.1101C52.5901 16.1001 51.04 19.2001 54.71 18.1701C56.64 17.6301 58.5201 15.5101 59.3901 13.7701C59.9901 12.5801 60.3001 10.7501 61.0001 9.70008C61.1601 9.46008 61.3101 9.10008 61.6801 9.16008L61.69 9.17008Z" fill="#793A04"/>
<path d="M23.6601 40.71C26.2301 40.68 25.1 44.09 22.82 44.23C20.2 44.38 21.2101 40.74 23.6601 40.71Z" fill="#100F10"/>
<path d="M40.4201 43.88C40.3701 43.95 39.8901 44.04 39.7401 44.02C39.2801 43.97 35.8201 42.9 35.4001 42.68C33.8601 41.86 35.62 41.56 36.6 41.64C37.3 41.7 41.2001 42.76 40.4201 43.88Z" fill="#100F10"/>
<path d="M66.5101 73.95C67.1201 73.76 70.41 74.45 70.59 75C71.2 76.84 66.8001 75.66 66.3001 75.07C65.9601 74.67 65.9701 74.11 66.5101 73.95Z" fill="#793A04"/>
<path d="M71.7801 79.78C72.1101 79.24 76.3 78.97 75.62 80.95C75.27 81.96 70.9001 81.21 71.7801 79.78Z" fill="#793A04"/>
<path d="M41.2 64.63C40.28 65.52 38.63 63.51 38.19 62.78C37.51 61.64 38.3801 61.05 39.3801 61.76C39.5701 61.89 41.12 63.62 41.23 63.81C41.38 64.08 41.45 64.4 41.21 64.64L41.2 64.63Z" fill="#793A04"/>
<path d="M53.5501 74.06C53.2201 74.59 49.94 73.3701 49.59 72.6201C48.69 70.6601 53.3301 72.5601 53.5301 73.2201C53.5901 73.4001 53.6201 73.93 53.5401 74.06H53.5501Z" fill="#793A04"/>
<path d="M78.4401 77.2901C78.2401 77.1001 78.1802 76.6001 78.3102 76.3501C78.6602 75.6701 81.8501 75.5801 82.1101 76.6301C82.4501 77.9801 79.0001 77.8501 78.4401 77.2901Z" fill="#793A04"/>
<path d="M60.33 70.37C60.89 70.19 63.76 70.43 64.04 70.99C64.98 72.87 60.33 72 60.09 71.2C60 70.92 59.99 70.47 60.33 70.36V70.37Z" fill="#793A04"/>
<path d="M95.2201 82.37C96.8501 81.81 96.9301 85.91 95.8401 86.09C94.3601 86.33 94.7001 82.55 95.2201 82.37Z" fill="#793A04"/>
<path d="M77.08 72.4801C77.34 72.8901 77.1401 73.5301 76.5401 73.6001C75.7901 73.6901 73.19 73.4701 73.19 72.5401C73.19 71.1601 76.96 72.2901 77.08 72.4801Z" fill="#793A04"/>
<path d="M31.44 68.7401C32.15 68.5301 32.3601 70.3501 32.5601 70.8401C32.7401 71.2801 33.91 72.9001 33.19 73.1101C31.89 73.4801 30.15 69.1301 31.44 68.7501V68.7401Z" fill="#100F10"/>
<path d="M40.0601 68.5901C40.7401 68.4001 42.5901 70.2501 42.5501 70.7501C42.3901 72.4601 38.95 70.4201 39.7 68.8901C39.76 68.7601 39.9201 68.6301 40.0601 68.5901Z" fill="#793A04"/>
<path d="M58.39 75.9C59.01 75.72 61.33 76.1 61.61 76.68C62.42 78.33 58.04 77.64 57.95 76.59C57.92 76.28 58.1 75.99 58.4 75.9H58.39Z" fill="#793A04"/>
<path d="M53.5502 68.38C53.1802 68.97 49.6601 67.77 50.2401 66.62C50.6001 65.92 51.8501 66.5 52.3801 66.75C52.9401 67.02 54.0201 67.61 53.5401 68.38H53.5502Z" fill="#793A04"/>
<path d="M93.7901 75.1C94.3701 75.06 95.18 75.06 94.94 75.91C94.76 76.55 92.0201 77.16 91.6301 76.51C90.9601 75.4 93.0801 75.14 93.7901 75.09V75.1Z" fill="#793A04"/>
<path d="M44.7501 77.2001C45.1701 77.1601 47.2201 78.1201 47.2501 78.5401C47.4101 80.3301 43.9901 78.7501 43.9901 77.8901C43.9901 77.5901 44.4801 77.2301 44.7501 77.2001Z" fill="#793A04"/>
<path d="M87.7701 74.36C87.4201 74.76 84.0501 74.8301 84.3901 73.3701C84.5201 72.8201 89.0001 72.93 87.7701 74.36Z" fill="#793A04"/>
<path d="M34.24 61.0701C32.54 62.2201 31.25 57.8701 33.01 58.3601C33.55 58.5101 34.55 60.5801 34.24 61.0701Z" fill="#793A04"/>
<path d="M88.7901 79.4301C88.7601 79.7501 88.8601 80.1801 88.7701 80.4701C88.5901 81.0001 85.3801 81.3201 85.8901 79.8601C86.0801 79.3101 88.2401 79.4501 88.7901 79.4301Z" fill="#793A04"/>
</svg>
