<svg width="71" height="90" viewBox="0 0 71 90" fill="none" xmlns="http://www.w3.org/2000/svg">
<path d="M34.6 49.55C34.66 49.72 34.92 49.78 35.07 49.75C35.34 49.7 36.24 49.08 36.66 48.92C40.65 47.43 45.23 48.06 48.1 51.33C48.4 51.67 48.97 52.61 49.28 52.8C49.76 53.09 51.05 53.36 51.69 53.65C54.79 55.04 57.17 57.91 57.49 61.36C58.65 62.07 60.11 62.94 60.83 64.13C61.1 64.58 61.27 65.33 61.63 65.66C61.99 65.99 63.55 66.43 64.11 66.68C67.58 68.21 71.98 71.41 69.49 75.69C68.45 77.48 66.06 79.15 64.24 80.1C63.39 80.54 62.05 80.93 61.33 81.4C60.86 81.7 60.29 82.46 59.84 82.86C55.25 86.89 49.2999 88.11 43.41 88.85C33.95 90.03 19.83 89.45 11.91 83.55C11.12 82.96 10.03 81.61 9.38999 81.24C8.92999 80.97 8.06 80.72 7.52 80.46C5.96 79.71 4.46996 78.89 3.16996 77.72C-2.98004 72.18 3.98 67.3 9.34 65.79C9.87 63.62 11.42 60.92 13.32 59.69C13.85 59.35 15.36 58.79 15.67 58.46C15.93 58.18 16.38 57.08 16.65 56.63C17.27 55.62 18.07 54.66 19.02 53.94C19.42 53.64 20.7 53.06 20.88 52.85C21.07 52.63 21.05 52.24 21.15 51.95C22.01 49.63 25.45 48.14 27.76 47.98C28.21 47.95 29.52 48.08 29.82 47.94C29.98 47.87 30.51 47.32 30.81 47.14C31.61 46.67 32.44 46.57 33.21 45.96C34.33 45.06 35.34 43.1 35.19 41.65C35.19 41.57 35.07 41 35.04 40.98C35.02 40.96 34.56 41.1 34.53 41.13C34.48 41.19 34.3 41.92 34.2 42.12C33.55 43.44 31.69 44.14 32.2 42.14C32.28 41.85 32.8899 41.08 32.7199 40.85C32.5999 40.7 31.95 40.43 31.78 40.54C31.7 40.59 31.3599 41.29 31.2199 41.46C30.9199 41.85 30.44 42.24 29.91 42.02C28.8699 41.59 30.53 39.68 30.45 39.57L29.41 39.1C29.27 39.11 28.48 41.35 27.53 40.66C26.91 40.21 27.41 39.05 27.74 38.53C27.87 38.33 28.31 37.88 28.34 37.72C28.37 37.53 28.09 37.29 28.04 37.03C27.97 36.6 28.07 36.11 28.31 35.76C28.43 35.58 28.82 35.32 28.87 35.16C28.97 34.84 28.81 34.55 28.81 34.25C28.81 33.98 29.04 33.38 29.21 33.16C29.5 32.76 30.16 32.68 30.2 32.63C30.25 32.58 30.19 31.53 29.94 31.54C28.09 31.16 26.2 30.6 24.76 29.33C20.48 25.57 23.51 18.86 29.16 19.33C30.42 19.43 33.18 20.47 33.16 22.01C33.15 22.71 32.35 23.87 31.69 24.12C30.37 24.61 29.43 23.45 28.11 23.81C26.29 24.3 27.2 25.91 28.35 26.61C29.29 27.18 32.09 27.86 33.23 28.04C33.34 28.06 33.54 28.1 33.63 28.04C33.73 27.98 34.16 26.63 34.28 26.39C35.58 23.55 39.01 23.19 40.71 20.76L50.19 0.970026C51.06 -0.419974 54.36 -0.209988 55.24 1.05001C56.54 2.91001 54.88 4.75001 53.88 6.30001C50.52 11.55 46.91 16.64 43.54 21.88C42.37 24.33 44.21 26.82 43 29.44C42.79 29.9 41.27 32.07 41.28 32.23C41.28 32.36 41.81 33 41.91 33.23C42.36 34.17 42.5499 35.94 41.66 36.67C41.47 36.82 40.75 37.15 40.68 37.25C40.57 37.43 40.68 38.16 40.64 38.45C40.52 39.32 39.72 39.79 39.1 40.26C39.85 44.03 37.88 47.75 34.57 49.55H34.6ZM30.48 21.21C28.4 20.48 25.52 21.11 24.61 23.31C23.31 26.46 25.94 29.01 28.76 29.83C31.39 30.59 36.93 31.56 38.78 33.51C39.29 34.04 39.7399 34.76 40.2199 35.34C40.3299 35.47 40.27 35.65 40.49 35.45C41.32 34.73 40.47 33.4 39.94 32.73C38.47 30.87 34.77 30.03 32.53 29.4C30.26 28.76 26.92 28.53 25.82 26.07C24.52 23.17 27.86 21.61 30.26 22.29C30.41 22.36 31.15 22.77 31.23 22.75C31.38 22.55 31.68 21.9 31.51 21.7C31.41 21.59 30.68 21.26 30.5 21.19L30.48 21.21ZM36.77 29.07C36.8 28.8 37.31 28.27 37.24 28.04C37.21 27.94 36.5 27.49 36.36 27.52C36.29 27.53 35.62 28.6 35.69 28.69L36.77 29.08V29.07ZM39.09 28.93C38.95 28.96 38.46 29.69 38.51 29.87C38.55 30.02 39.16 30.32 39.32 30.45C39.56 30.26 39.95 29.73 39.91 29.42C39.88 29.19 39.27 28.89 39.1 28.92L39.09 28.93ZM31.95 32.58C31.84 32.74 31.59 33.17 31.87 33.28C33.55 34.2 35.93 34.66 37.28 36.08C37.64 36.46 37.84 36.93 38.14 37.32C38.27 37.49 38.8 38.15 38.98 38.1C39.33 37.75 39.29 37.15 39.15 36.7C38.98 36.16 37.92 34.78 37.45 34.43C36.59 33.79 33.75 32.58 32.71 32.32C32.49 32.26 32.29 32.25 32.06 32.27C31.83 32.29 31.98 32.46 31.95 32.58ZM32.03 48.38C32.03 48.38 32.7 48.74 32.79 48.75C33.32 48.84 34.23 48.26 34.67 47.94C37.83 45.64 38.56 41.35 36.95 37.89C36.17 36.21 33.66 35.66 32.06 34.92C31.77 34.79 31.02 34.25 30.75 34.28C30.62 34.29 30.24 34.66 30.24 34.79C30.24 35.24 32.28 36.17 32.71 36.38C34.97 37.45 35.98 37.35 36.65 40.15C37.31 42.9 35.85 46.28 33.36 47.65C33.02 47.84 32.42 47.99 32.16 48.17C32.09 48.22 31.97 48.3 32.03 48.39V48.38ZM34.29 39.43C34.46 38.55 33.47 38.39 32.89 38.07C32 37.59 31.12 37.1 30.25 36.59C29.67 36.39 29.3 36.79 29.7 37.29C30.07 37.76 32.79 39.17 33.42 39.33C33.7 39.4 34 39.45 34.29 39.43ZM37.09 56.24C36.59 53.7 35.1 51.45 32.81 50.2C29.83 48.58 26.19 49.11 23.7 51.37C23.57 51.49 22.81 52.2 22.92 52.34C23.63 52.09 24.49 52.08 25.19 51.85C26.36 51.47 27.07 50.74 28.48 50.63C32.38 50.31 34.67 53 35.76 56.39C35.85 56.66 36.11 57.89 36.18 57.95C36.27 58.02 37.63 58.38 37.7 58.33C37.65 58.04 37.5399 57.76 37.4699 57.47C37.4499 57.39 37.4 57.33 37.39 57.31C37.39 57.29 37.39 57.26 37.39 57.23C37.3 56.93 37.28 56.56 37.08 56.3C37.08 56.28 37.08 56.25 37.08 56.22L37.09 56.24ZM36.78 50.33C36.65 50.39 36.13 50.6 36.16 50.75C36.18 50.81 36.86 51.58 36.94 51.62C37.11 51.69 37.21 51.55 37.33 51.5C40.19 50.84 42.93 50.57 45.31 52.59C46.22 53.36 47.31 55.06 47.6 56.21C47.7 56.59 47.72 57.75 47.83 57.92C47.98 58.16 48.86 58.29 49.16 58.42V57.06C49.16 56.15 48.33 54.12 47.82 53.34C45.53 49.76 40.6 48.71 36.78 50.33ZM34.6 57.65C34.22 55.54 33.28 53.95 31.48 52.79C30.53 52.18 29.74 51.64 28.59 51.99C28.43 52.04 27.64 52.31 27.67 52.47C27.75 52.84 29.26 53.25 29.61 53.41C30.83 53.94 31.92 54.88 32.6 56.02C32.74 56.26 33.29 57.65 33.38 57.65H34.59H34.6ZM37.87 52.9C37.8 52.93 37.64 52.88 37.65 53.08C37.65 53.16 37.97 53.86 38.02 53.94C38.18 54.14 38.4 54.04 38.57 53.92C40.61 53.68 42.94 53.78 44.13 55.72C44.55 56.4 44.71 57.2 45.07 57.89H46.2C46.02 55.36 44.81 53.46 42.35 52.67C41.19 52.3 39 52.44 37.87 52.91V52.9ZM17.4 58.19C17.02 58.83 16.63 60.69 16.7 61.43C16.76 62.12 16.88 62.05 17.4 61.85C17.58 61.83 17.99 61.79 18.13 61.7C18.22 61.64 18.17 61.54 18.18 61.46C18.18 61.43 18.18 61.41 18.18 61.38C18.43 60.72 18.36 59.99 18.55 59.29C19.18 56.86 22.18 54.63 24.69 54.75C26.5 54.84 28.42 55.78 29.63 57.09C29.81 57.28 30.45 58.16 30.59 58.16C30.71 58.16 31.64 57.9 31.65 57.83C31.58 57.69 31.3 56.95 31.19 56.93C30.82 56.06 30.1 55.45 29.35 54.92C25.07 51.91 20.49 53.52 17.71 57.57C17.59 57.75 17.41 57.94 17.42 58.17L17.4 58.19ZM54.53 60.45C54.55 60.5 54.5 60.6 54.54 60.67C54.61 60.77 55.58 60.73 55.77 60.76C55.79 60.37 55.69 59.96 55.58 59.59C55.55 59.51 55.47 59.46 55.46 59.44C54.77 57.55 53.52 56.43 51.83 55.41C51.28 55.08 50.64 54.7 50.02 54.58C50.25 54.94 50.25 55.88 50.45 56.17C50.52 56.28 51.53 56.81 51.76 56.97C52.46 57.46 53.12 58.08 53.59 58.8C53.94 59.33 54.13 59.96 54.54 60.46L54.53 60.45ZM38.96 55.47C38.78 55.52 38.56 55.53 38.41 55.67C38.41 55.72 38.58 56.52 38.61 56.56C38.71 56.69 38.91 56.63 39.04 56.64C39.17 56.65 39.3 56.64 39.43 56.64C39.46 56.64 39.48 56.64 39.51 56.64C40.5 56.71 41.4 56.85 42 57.73C42.03 57.81 42.24 58.19 42.29 58.2C42.47 58.24 43.37 58.04 43.48 57.88C43.52 57.82 43.56 57.87 43.53 57.73C43.47 57.49 43.06 56.86 42.89 56.64C41.88 55.35 40.5299 55.07 38.9699 55.47H38.96ZM19.81 61.62C19.9 61.71 21.01 61.84 21.12 61.76C21.31 61.64 21.13 61.23 21.13 61.15C21.13 61.1 21.13 61.05 21.13 60.99C21.13 60.93 21.13 60.89 21.13 60.83C21.24 59.29 22.68 57.99 24.15 57.74C25.09 57.58 26.02 58.01 26.81 58.5C27.11 58.68 27.41 59.11 27.78 59.13C28.02 59.14 28.82 58.92 28.91 58.7C28.8899 58.65 28.81 58.64 28.75 58.58C28.72 58.55 28.7 58.53 28.67 58.5C28.64 58.47 28.62 58.45 28.59 58.42C27.53 57.24 26.18 56.19 24.51 56.32C22.08 56.51 20.1 58.17 19.8 60.64C19.78 60.77 19.73 61.5 19.74 61.57C19.74 61.6 19.77 61.62 19.8 61.61L19.81 61.62ZM39.29 58.14C39.21 58.21 38.9699 58.69 38.9699 58.79C38.9699 59.48 40.53 58.9 40.59 58.61C40.65 58.32 39.71 57.8 39.29 58.14ZM53.05 60.68C52.64 59.58 51.68 58.63 50.64 58.11C50.44 59.44 50.9299 59.33 51.7199 59.94C51.8499 60.04 51.89 60.2 52 60.29C52.17 60.43 52.88 60.9 53.05 60.68ZM24 59.3C22.91 59.48 22.65 60.52 22.8 61.48C22.85 61.82 23.03 62.37 23.45 62.17C24.25 61.79 23.89 61.2 24.46 60.76C24.75 60.53 25.84 60.26 25.89 59.93C25.92 59.74 25.2 59.38 25.02 59.33C24.72 59.25 24.31 59.24 24 59.3ZM42.15 59.75C42.08 59.78 42.05 59.8 41.99 59.83C41.87 59.81 41.78 59.87 41.68 59.91C41.38 60.02 41.09 60.15 40.82 60.34C40.85 60.41 41.52 61.21 41.57 61.23C41.81 61.31 42.0199 61.13 42.2199 61.08C42.3299 61.06 42.42 61.01 42.45 61C42.47 61 42.5 61 42.53 61C44.15 60.66 46.49 60.39 48.03 61.06C49.85 61.85 52.01 63.63 52.82 65.46C52.97 65.8 53.48 67.59 53.58 67.66C53.84 67.83 54.3 67.62 54.46 67.36C54.92 66.63 54.02 64.74 53.63 64.03C52.56 62.1 50.16 60.25 48.08 59.54C46.63 59.04 43.61 59.22 42.15 59.75ZM42.85 66.83C42.35 64.62 40.56 61.94 38.62 60.74C33.49 57.59 27.47 60.06 23.7 64.06C23.31 64.48 21.9 66.1 21.74 66.54C21.71 66.64 21.66 66.72 21.68 66.83L23.65 66.43C26.55 62.9 30.47 60.03 35.3 61.03C37.81 61.55 40.25 63.66 41.13 66.05C41.27 66.43 41.42 66.8 41.44 67.21C41.49 67.26 42.77 67.19 42.83 67.13C42.84 67.12 42.85 66.84 42.83 66.82L42.85 66.83ZM11.1 65.12C10.85 65.62 10.38 67.09 10.75 67.53C10.85 67.65 10.82 67.59 10.91 67.53C11.08 67.42 11.69 66.26 11.88 65.97C12.76 64.63 13.71 63.63 14.88 62.54L15.23 60.21C13.21 61.16 11.86 63.06 11.11 65.12H11.1ZM42.54 62.63C42.58 62.82 43.09 63.56 43.24 63.56H45.2199C47.4699 63.74 49.26 64.73 50.23 66.8C50.4 67.17 50.48 67.59 50.71 67.92C50.79 68.2 50.93 68.45 51.07 68.7C51.21 68.62 52 68.43 52.03 68.38C52.13 68.22 51.91 67.78 51.88 67.61C51.55 65.86 51.04 65.01 49.66 63.87C48.32 62.77 47.32 62.16 45.54 62.07C44.84 62.03 43.09 62.07 42.54 62.5C42.4 62.61 42.54 62.6 42.54 62.61V62.63ZM60.67 69.4C60.57 67.95 60.78 66.71 60.03 65.41C58.91 63.46 56.57 62 54.29 62.09C54.17 62.2 55 63.23 55.01 63.47C57.29 63.83 59.05 65.36 59.27 67.73C59.31 68.16 59.19 68.62 59.34 69.04L60.67 69.4ZM39.43 66.21C38.62 64.2 36.73 62.66 34.56 62.4C30.76 61.93 28.36 63.79 25.88 66.29C25.77 66.4 25.61 66.48 25.57 66.68C26.17 66.67 27.06 67.54 27.44 66.84C27.76 66.48 28.12 66.07 28.49 65.75C31.32 63.3 35.66 62.93 37.94 66.29C38.26 66.76 38.5 67.28 38.77 67.78L39.89 67.54C39.94 67.49 39.5 66.21 39.42 66.22L39.43 66.21ZM11.8 71.35C11.8 71.35 11.7299 71.37 11.7199 71.43C11.7199 71.5 11.7199 71.59 11.7199 71.66C11.7599 72.04 12.1199 72.17 12.4699 72.2C12.8199 72.23 12.8299 72.18 12.9699 71.89C13.2599 71.3 13.18 70.52 13.32 69.86C14 66.53 16.5 64.35 19.94 64.49C20.2 64.5 20.92 64.68 21.09 64.64C21.18 64.62 21.76 63.96 21.85 63.84C21.9 63.77 21.96 63.76 21.93 63.65C20.08 62.78 17.3 63.11 15.6 64.21C13.28 65.72 12.04 68.69 11.81 71.36L11.8 71.35ZM49.23 69.09C49.08 67.63 48.18 65.93 46.76 65.37C45.79 64.99 44.87 65.05 43.86 65.2L44.26 66.35C46.03 66.3 47.18 66.81 47.75 68.54C47.8 68.7 47.79 68.91 47.84 69.03C47.92 69.23 49.0599 69.78 49.2199 69.4C49.2199 69.38 49.2199 69.35 49.2199 69.32C49.2199 69.25 49.2199 69.15 49.2199 69.09H49.23ZM29.31 67.14C28.91 67.48 28.79 67.61 29.23 68.04C29.54 68.34 30.12 68.72 30.4 68.23C30.43 68.18 30.45 68.13 30.48 68.07C30.56 68 30.66 67.88 30.71 67.84C32.14 66.67 34.28 66.36 35.46 68C35.51 68.14 35.76 68.57 35.9 68.61C36.09 68.67 36.92 68.51 37 68.38C37.23 68 36.49 66.98 36.24 66.68C35.08 65.33 34.02 65.3 32.31 65.51C31.19 65.65 30.01 66.25 29.31 67.14ZM56.24 67.61C57.2 67.72 58.1399 68.38 57.4699 66.88C57.1899 66.24 56.57 65.55 55.85 65.43C55.92 66.17 56.28 66.85 56.24 67.61ZM19.73 65.98C16.86 65.73 14.5599 68.54 14.91 71.27C15.05 71.3 14.96 71.16 14.99 71.11C14.99 71.11 15.05 71.11 15.07 71.11C15.11 71.11 15.11 71.21 15.3 71.16C15.57 71.08 15.79 70.87 16 70.72C16.17 70.6 16.21 70.66 16.39 70.41C16.41 70.39 16.5 70.38 16.53 70.28C16.66 69.81 16.57 69.29 16.9 68.78C17.16 68.38 18.36 67.46 18.8 67.3C18.82 67.3 18.85 67.3 18.88 67.3C19.01 67.25 19.15 67.25 19.27 67.22C19.36 67.19 19.42 67.25 19.54 67.14C19.82 66.89 20 66.41 20.2 66.09C20.08 66.02 19.87 65.97 19.73 65.97V65.98ZM9.15 67.53C8.31 67.61 7.49999 68.05 6.75999 68.45C5.28999 69.24 3.32 70.66 2.71 72.26C2.44 72.97 2.43998 73.31 2.68998 74.04C4.05998 77.99 11.93 80.24 15.6 81.22C29.28 84.88 47.71 84.5 61.01 79.51C63.96 78.4 70.6099 75.17 67.7199 71.21C66.4799 69.51 64.13 68.18 62.16 67.54C62.2299 68.49 62.29 69.44 62.49 70.37C63.64 71.25 65.07 71.47 64.7 73.31C64.21 75.72 58.6 77.52 56.5 78.11C45.09 81.32 28.84 81.29 17.33 78.56C14.81 77.96 11.72 77.18 9.29996 76.32C7.75996 75.78 6.35 73.87 6.21 72.24C6.12 71.15 6.83 70 7.65 69.34C7.9 69.14 9.14999 68.47 9.19999 68.39C9.24999 68.31 9.07995 67.71 9.15995 67.53H9.15ZM53.44 69.4C51.62 70.03 50.51 71.3 48.38 70.84C47.09 70.56 46.33 69.3 44.94 68.91C40.55 67.69 36.8 70.77 32.39 70.57C29.94 70.46 28.2099 68.93 25.91 68.33C23.82 67.79 21.84 68 19.98 69.13C18.8 69.85 18.48 70.78 17.48 71.53C16.82 72.03 15.97 72.33 15.35 72.82C14.46 73.53 13.75 74.74 13.52 75.85C17.17 76.92 20.91 77.72 24.7 78.18C30.62 78.9 36.88 79.02 42.82 78.58C44.1 78.48 45.84 78.37 47.06 78.08C49.76 77.43 50.75 74.61 51.38 72.2C52.05 71.76 52.71 71.32 53.44 70.99C53.56 70.94 53.93 70.88 53.91 70.79H53.99C54.05 70.79 54.12 70.72 54.15 70.71C54.82 70.61 55.5 70.63 56.17 70.63C58.05 70.95 60.22 72.68 62.24 73.28C62.24 73.28 62.23 73.34 62.28 73.36C62.49 73.42 62.72 73.45 62.94 73.44C62.9 73.17 63.01 72.72 62.93 72.48C62.88 72.33 62.73 72.38 62.71 72.35C62.28 71.97 61.71 71.69 61.21 71.4C59.2 70.26 57.07 68.89 54.7 69.08C54.26 69.12 53.87 69.25 53.45 69.39L53.44 69.4ZM34.13 69.09C34.17 67.95 32.42 68.13 32.11 69.01C32.23 68.96 32.4 69.09 32.46 69.09H34.13ZM10.4699 69.64C8.60995 70.1 6.99999 71.97 8.44999 73.8C9.17999 74.71 10.76 75.24 11.89 74.99C12.3 74.9 12.5 74.14 12.26 73.95C12.04 73.78 10.56 73.69 10.08 73.48C9.09999 73.06 9.12 72.35 9.77 71.61C9.9 71.46 10.1 71.37 10.19 71.26C10.49 70.9 10.63 70.08 10.46 69.63L10.4699 69.64ZM53.36 72.67C53.06 72.86 52.39 73.56 52.27 73.88C52.21 74.04 52.37 73.99 52.46 73.99C52.72 73.97 52.97 73.83 53.21 73.76C54.17 73.71 55.24 73.57 56.18 73.78C56.52 73.86 58.22 74.59 58.5 74.77C58.5 74.77 58.48 74.89 58.55 74.93C58.68 75 59.4199 75.39 59.4699 75.39C59.5799 75.39 60.8699 74.84 60.91 74.77C60.9599 74.7 60.88 74.63 60.83 74.58C60.61 74.37 60.03 74.16 59.74 73.99C57.89 72.92 55.52 71.32 53.36 72.67ZM57.23 75.96C57.23 75.96 56.5699 75.56 56.4699 75.52C55.5299 75.12 54.71 75.25 53.74 75.44C53.28 75.53 52.0899 75.83 51.7199 76.07C51.5299 76.2 50.6 77.46 50.71 77.58C52.34 77.16 54.04 76.99 55.68 76.59C55.89 76.54 57.2 76.24 57.25 76.17C57.26 76.16 57.25 75.99 57.23 75.95V75.96ZM56.86 82.79C51.44 84.29 45.86 84.99 40.24 85.28C34.62 85.57 28.95 85.39 23.36 84.65C20.21 84.23 17.11 83.55 14.05 82.75C17.74 85.28 22.24 86.33 26.63 86.91C34.63 87.97 48.02 87.74 55.23 83.85L56.86 82.8V82.79Z" fill="#020101"/>
<path d="M53.44 69.4001C53.78 69.4801 53.61 69.6401 53.69 69.7701C53.71 69.8101 53.84 69.8101 53.89 69.9201C53.99 70.1201 53.95 70.5101 54.14 70.7201C54.11 70.7201 54.04 70.8001 53.98 70.8001C53.72 70.6101 53.9 70.7901 53.9 70.8001C53.92 70.8801 53.55 70.9401 53.43 71.0001C52.7 71.3301 52.04 71.7701 51.37 72.2101C50.74 74.6101 49.75 77.4401 47.05 78.0901C45.82 78.3801 44.09 78.5001 42.81 78.5901C36.87 79.0301 30.61 78.9101 24.69 78.1901C20.9 77.7301 17.16 76.9301 13.51 75.8601C13.74 74.7501 14.45 73.5401 15.34 72.8301C15.96 72.3301 16.81 72.0301 17.47 71.5401C18.47 70.7901 18.79 69.8601 19.97 69.1401C21.83 68.0101 23.81 67.7901 25.9 68.3401C28.2 68.9401 29.93 70.4701 32.38 70.5801C36.8 70.7801 40.55 67.7001 44.93 68.9201C46.32 69.3101 47.08 70.5701 48.37 70.8501C50.5 71.3101 51.61 70.0301 53.43 69.4101L53.44 69.4001ZM22.36 70.4301C21.57 70.5901 21.88 71.1701 22.21 71.6401C22.51 72.0801 23.67 73.3001 24.08 72.4601C24.34 71.9201 23.95 71.2201 23.56 70.8401C23.21 70.5001 22.87 70.3301 22.37 70.4301H22.36ZM41.98 70.6601C41.73 70.2601 39.86 70.9801 39.74 71.6301C39.51 72.8701 40.9 72.2801 41.44 71.8501C41.73 71.6301 42.21 71.0301 41.98 70.6601ZM28.59 72.4601C27.19 72.7001 29.12 75.0801 29.73 74.0701C30.15 73.3701 29.4 72.3201 28.59 72.4601ZM46.32 72.4401C46.23 72.4601 45.8 73.0801 45.77 73.2101C45.64 73.6901 45.73 74.2001 46.01 74.6101C46.09 74.7201 46.43 75.0801 46.55 75.0801C46.88 75.0801 47.11 74.2201 47.1 73.9601C47.1 73.6601 46.6 72.3701 46.32 72.4301V72.4401ZM18.02 74.8501C18.44 74.9201 19.4 74.7501 19.5 74.2601C19.65 73.5101 18.92 73.3101 18.45 73.7501C18.32 73.8701 17.95 74.7701 18.02 74.8401V74.8501ZM36.22 73.7001C35.35 73.4601 32.93 74.6301 33.7 75.7101C34.24 76.4601 35.86 75.1701 36.14 74.5701C36.26 74.3101 36.36 73.9601 36.21 73.6901L36.22 73.7001ZM26.02 75.5001C25.96 75.4201 25.43 75.0501 25.32 75.0001C24.74 74.7401 23.02 74.8201 23.71 75.6001C24.13 76.0801 25.24 76.3701 25.85 76.2601C26.19 76.2001 26.21 75.7401 26.02 75.5101V75.5001ZM40.65 75.1801C40.42 75.2601 40.3 75.7201 40.41 75.9401C40.61 76.3801 41.91 76.2601 41.76 75.5301C41.67 75.1201 40.97 75.0701 40.66 75.1701L40.65 75.1801Z" fill="#ED1A03"/>
<path d="M9.14997 67.53C9.07997 67.71 9.23995 68.31 9.18995 68.39C9.13995 68.47 7.88996 69.13 7.63996 69.34C6.81996 70 6.10996 71.15 6.19996 72.24C6.32996 73.86 7.74992 75.77 9.28992 76.32C11.7099 77.18 14.8099 77.96 17.32 78.56C28.82 81.29 45.0799 81.32 56.4899 78.11C58.5899 77.52 64.1999 75.72 64.6899 73.31C65.0599 71.47 63.6299 71.26 62.4799 70.37C62.2899 69.44 62.22 68.49 62.15 67.54C64.12 68.18 66.47 69.5 67.71 71.21C70.6 75.17 63.9499 78.41 60.9999 79.51C47.6999 84.5 29.27 84.88 15.59 81.22C11.92 80.24 4.05994 78 2.67994 74.04C2.42994 73.31 2.42996 72.98 2.69996 72.26C3.30996 70.66 5.28994 69.24 6.74994 68.45C7.48994 68.05 8.28996 67.61 9.13996 67.53H9.14997Z" fill="#FEFBF5"/>
<path d="M56.86 82.79L55.23 83.84C48.03 87.74 34.6401 87.96 26.6301 86.9C22.2401 86.32 17.74 85.27 14.05 82.74C17.12 83.54 20.21 84.22 23.36 84.64C28.95 85.39 34.6301 85.56 40.2401 85.27C45.8501 84.98 51.44 84.28 56.86 82.78V82.79Z" fill="#FEFBF5"/>
<path d="M42.85 66.83C42.85 66.83 42.71 66.85 42.69 66.83C42.66 66.79 42.61 65.94 42.45 65.83C42.4 65.8 41.35 65.72 41.26 65.74C41.17 65.76 41.26 66.02 41.14 66.06C40.26 63.67 37.82 61.5501 35.31 61.0401C30.48 60.0501 26.56 62.9101 23.66 66.4401L21.69 66.84C21.67 66.73 21.72 66.65 21.75 66.55C21.91 66.12 23.32 64.4901 23.71 64.0701C27.48 60.0701 33.5 57.6001 38.63 60.7501C40.57 61.9401 42.36 64.63 42.86 66.84L42.85 66.83Z" fill="#F8B000"/>
<path d="M30.48 21.21L29.62 21.13C29.49 21.32 29.8101 21.96 29.7801 21.99C29.7401 22.03 29.45 21.9 29.47 22.07C29.67 22.07 29.94 22.09 30.12 22.17C30.22 22.21 30.24 22.3 30.25 22.31C27.85 21.63 24.51 23.19 25.81 26.09C26.92 28.55 30.25 28.78 32.52 29.42C34.76 30.05 38.46 30.9 39.93 32.75C40.46 33.42 41.32 34.75 40.48 35.47C40.26 35.66 40.31 35.48 40.21 35.36C39.73 34.78 39.28 34.06 38.77 33.53C36.92 31.58 31.38 30.61 28.75 29.85C25.93 29.03 23.3 26.48 24.6 23.33C25.51 21.13 28.39 20.5 30.47 21.23L30.48 21.21Z" fill="#F8B000"/>
<path d="M42.54 60.99C42.57 60.73 42.56 60.08 42.47 59.87C42.42 59.76 42.21 59.87 42.16 59.74C43.62 59.2 46.65 59.03 48.09 59.53C50.17 60.24 52.57 62.09 53.64 64.02C54.03 64.73 54.93 66.62 54.47 67.35C54.31 67.6 53.86 67.82 53.59 67.65C53.49 67.59 52.98 65.79 52.83 65.45C52.02 63.62 49.86 61.84 48.04 61.05C46.5 60.38 44.16 60.65 42.54 60.99Z" fill="#F8B000"/>
<path d="M37.09 56.24C37.09 56.24 36.99 56.22 36.98 56.16C36.88 55.86 36.85 55.51 36.67 55.23C36.35 55.56 36.04 55.58 35.62 55.46C35.54 55.79 35.97 56.09 35.78 56.39C34.69 53 32.41 50.31 28.5 50.63C27.09 50.75 26.38 51.47 25.21 51.85C24.51 52.08 23.65 52.09 22.94 52.34C22.82 52.2 23.5799 51.49 23.7199 51.37C26.2099 49.12 29.85 48.58 32.83 50.2C35.11 51.44 36.61 53.7 37.11 56.24H37.09Z" fill="#F8B000"/>
<path d="M36.78 50.33C40.6 48.71 45.53 49.76 47.82 53.34C48.32 54.13 49.16 56.15 49.16 57.06V58.42C48.86 58.29 47.98 58.15 47.83 57.92C47.72 57.74 47.7 56.59 47.6 56.21C47.3 55.06 46.21 53.36 45.31 52.59C42.93 50.57 40.2 50.84 37.33 51.5C37.46 51.45 38.11 51.18 38.11 51.14L37.71 50.17C37.63 50.1 36.94 50.52 36.78 50.33ZM38.3 51.11V51.19C38.35 51.16 38.35 51.14 38.3 51.11Z" fill="#F8B000"/>
<path d="M31.18 56.94C31.18 56.94 31.15 57.06 31.1 57.02C31.08 57 31.09 56.82 30.98 56.79C30.92 56.78 30.79 56.86 30.68 56.85C30.28 56.82 29.8 56.56 29.62 57.09C28.41 55.78 26.49 54.84 24.68 54.75C22.17 54.63 19.18 56.86 18.54 59.29C18.36 59.99 18.42 60.72 18.17 61.38C18.18 60.96 18.3 60.29 18.25 59.94C18.22 59.69 18 59.43 17.95 59.15C17.89 58.8 17.94 58.26 17.84 57.94C17.82 57.86 17.74 57.79 17.66 57.81C17.64 57.81 17.42 58.14 17.39 58.2C17.39 57.97 17.56 57.78 17.68 57.6C20.46 53.55 25.04 51.94 29.32 54.95C30.08 55.48 30.79 56.09 31.16 56.96L31.18 56.94Z" fill="#F8B000"/>
<path d="M32.03 48.38C31.97 48.29 32.09 48.2 32.16 48.16C32.41 47.98 33.01 47.83 33.36 47.64C35.85 46.27 37.31 42.89 36.65 40.14C35.98 37.34 34.97 37.45 32.71 36.37C32.28 36.17 30.24 35.24 30.24 34.78C30.24 34.65 30.62 34.28 30.75 34.27C31.01 34.24 31.76 34.78 32.06 34.91C33.67 35.64 36.17 36.2 36.95 37.88C38.56 41.34 37.83 45.63 34.67 47.93C34.23 48.25 33.32 48.83 32.79 48.74C32.7 48.72 32.06 48.4 32.03 48.37V48.38Z" fill="#F8B000"/>
<path d="M39.43 66.2101C39.43 66.2101 39.39 66.2801 39.35 66.2901L39.22 65.9001C38.99 65.9501 38.8 66.0501 38.57 66.1001C38.33 66.1601 38.05 66.0401 37.94 66.2901C35.66 62.9301 31.32 63.3001 28.49 65.7501C28.12 66.0701 27.76 66.4701 27.44 66.8401C27.26 66.7901 27.59 66.6801 27.59 66.4901C27.59 66.2301 27.2 65.4901 26.92 65.4401L25.88 66.2901C28.36 63.7901 30.75 61.9301 34.56 62.4001C36.73 62.6701 38.61 64.2101 39.43 66.2101Z" fill="#F8B000"/>
<path d="M11.7999 71.3501C12.0299 68.6801 13.27 65.7101 15.59 64.2001C17.29 63.1001 20.0699 62.7701 21.9199 63.6401C21.9499 63.7601 21.89 63.7701 21.84 63.8301C21.76 63.9501 21.18 64.6101 21.08 64.6301C20.91 64.6701 20.1899 64.4901 19.9299 64.4801C16.4799 64.3401 13.9899 66.5201 13.3099 69.8501C13.1799 70.5001 13.25 71.2901 12.96 71.8801L13.0399 70.6301C12.6699 70.6301 12.3 70.6701 11.95 70.5501C11.98 70.8301 11.9199 71.1001 11.8699 71.3701C11.8499 71.5201 11.96 71.6801 11.71 71.6401C11.71 71.5701 11.71 71.4801 11.71 71.4101L11.7899 71.3301L11.7999 71.3501Z" fill="#F8B000"/>
<path d="M51.88 67.61L51.8 67.65L51.73 67.22C51.52 67.23 51.45 67.4201 51.22 67.4501C51 67.4801 50.84 67.42 50.64 67.37C50.61 67.56 50.76 67.7 50.79 67.87C50.8 67.92 50.71 67.91 50.71 67.91C50.48 67.58 50.4 67.1601 50.23 66.7901C49.26 64.7201 47.47 63.72 45.22 63.55H43.24C43.24 63.55 43.32 63.47 43.43 63.47C43.65 63.47 43.88 63.47 44.1 63.47C43.91 63.11 43.75 62.72 43.71 62.31C43.63 62.23 42.67 62.45 42.55 62.62C42.55 62.6 42.41 62.6201 42.55 62.5101C43.1 62.0701 44.85 62.04 45.55 62.08C47.33 62.17 48.33 62.78 49.67 63.88C51.05 65.01 51.56 65.86 51.89 67.62L51.88 67.61Z" fill="#F8B000"/>
<path d="M37.87 52.9C38.99 52.43 41.19 52.3 42.35 52.66C44.81 53.45 46.02 55.35 46.2 57.88H45.07C44.71 57.19 44.55 56.39 44.13 55.71C42.94 53.78 40.62 53.67 38.57 53.91C38.88 53.69 38.66 53.18 38.73 52.82L37.87 52.9Z" fill="#F8B000"/>
<path d="M60.67 69.4001L59.34 69.0401C59.19 68.6201 59.31 68.1601 59.27 67.7301C59.05 65.3501 57.29 63.8201 55.01 63.4701C55 63.2201 54.17 62.2001 54.29 62.0901C56.57 62.0001 58.91 63.4601 60.03 65.4101C60.78 66.7101 60.56 67.9501 60.67 69.4001Z" fill="#F8B000"/>
<path d="M21.1399 60.9901C21.1399 61.0401 21.1399 61.0901 21.1399 61.1501C20.8099 61.1901 21.0499 60.9501 21.0599 60.8401V60.9601L21.1399 61.0001V60.9901Z" fill="#F8B000"/>
<path d="M28.61 58.42C28.49 58.31 28.06 57.89 27.95 57.88C27.65 57.86 26.79 58.09 26.82 58.5C26.03 58.02 25.1 57.58 24.16 57.74C22.69 57.99 21.25 59.29 21.14 60.83H21.06C21.07 60.7 21.06 60.57 21.06 60.44C20.76 60.72 20.3 60.52 19.97 60.36C20.08 60.71 19.71 61.31 20 61.53L19.82 61.6C19.82 61.6 19.76 61.59 19.76 61.56C19.76 61.49 19.81 60.76 19.82 60.63C20.12 58.16 22.1 56.5 24.53 56.31C26.2 56.18 27.56 57.23 28.61 58.41V58.42Z" fill="#F8B000"/>
<path d="M34.6 57.6501H33.39C33.3 57.6501 32.75 56.2601 32.61 56.0201C31.93 54.8801 30.83 53.9401 29.62 53.4101C29.27 53.2601 27.76 52.8501 27.68 52.4701C27.64 52.3101 28.43 52.0401 28.6 51.9901C29.75 51.6501 30.54 52.1801 31.49 52.7901C33.29 53.9501 34.23 55.5401 34.61 57.6501H34.6Z" fill="#F8B000"/>
<path d="M31.88 33.28C31.88 33.28 31.88 33.19 31.92 33.2C32.01 33.24 32.25 33.44 32.35 33.35C32.39 33.32 32.64 32.58 32.67 32.46C32.39 32.39 32.14 32.33 31.97 32.58C32 32.46 31.86 32.29 32.08 32.27C32.3 32.25 32.51 32.27 32.73 32.32C33.78 32.58 36.61 33.79 37.47 34.43C37.94 34.78 38.99 36.17 39.17 36.7C39.31 37.15 39.35 37.75 39 38.1C38.82 38.15 38.29 37.49 38.16 37.32C37.86 36.93 37.66 36.46 37.3 36.08C35.95 34.66 33.57 34.19 31.89 33.28H31.88Z" fill="#F8B000"/>
<path d="M10.4699 69.6401C10.6299 70.0801 10.4999 70.9001 10.1999 71.2701C10.0999 71.3801 9.89994 71.4801 9.77994 71.6201C9.12994 72.3601 9.10994 73.0701 10.0899 73.4901C10.5699 73.7001 12.0499 73.7901 12.2699 73.9601C12.5099 74.1401 12.3099 74.9101 11.8999 75.0001C10.7699 75.2501 9.17994 74.7201 8.45994 73.8101C6.99994 71.9801 8.61989 70.1101 10.4799 69.6501L10.4699 69.6401Z" fill="#E49D00"/>
<path d="M62.7 72.36C62.5 72.33 62.15 72.02 62.04 72.05C61.89 72.37 61.49 72.5301 61.45 72.9101L62.23 73.3C60.21 72.7 58.03 70.97 56.16 70.65C55.89 70.6 55.61 70.5201 55.3 70.5701L55.92 70.49C55.87 70.31 55.73 69.2201 55.68 69.1701C55.6 69.0901 54.83 69.28 54.67 69.09C57.04 68.9 59.17 70.2701 61.18 71.4101C61.69 71.7001 62.25 71.98 62.68 72.36H62.7ZM56.12 70.4101V70.49C56.17 70.46 56.17 70.4401 56.12 70.4101Z" fill="#F8B000"/>
<path d="M36.24 66.6799C35.89 66.6599 36.04 66.8099 35.89 66.9899C35.78 67.1199 35.47 67.3599 35.42 67.4599C35.29 67.7299 35.49 67.7999 35.54 67.9599C35.55 67.9999 35.46 67.9899 35.46 67.9999C34.28 66.3599 32.14 66.6799 30.71 67.8399C30.56 67.3699 29.78 67.4099 29.78 66.8299C29.71 66.7699 29.41 67.0599 29.31 67.1399C30.01 66.2499 31.19 65.6399 32.31 65.5099C34.02 65.2999 35.08 65.3299 36.24 66.6799Z" fill="#F8B000"/>
<path d="M55.46 59.4401C55.09 59.2601 54.7 59.7601 54.29 59.6701C54.25 59.7101 54.49 60.3201 54.52 60.4501C54.12 59.9501 53.92 59.3301 53.57 58.7901C53.1 58.0701 52.44 57.4501 51.74 56.9601C51.52 56.8001 50.51 56.2701 50.43 56.1601C50.23 55.8701 50.23 54.9201 50 54.5701C50.62 54.6901 51.26 55.0701 51.81 55.4001C53.5 56.4201 54.76 57.5401 55.44 59.4301L55.46 59.4401Z" fill="#F8B000"/>
<path d="M11.8701 65.98L12.0301 65.48C11.8101 65.32 11.6801 64.62 11.5601 64.54C11.3201 64.38 11.3301 64.83 11.2601 64.95C11.2101 65.05 11.0901 65.11 11.0901 65.12C11.8501 63.07 13.2001 61.16 15.2101 60.21L14.86 62.54C13.69 63.63 12.74 64.63 11.86 65.97L11.8701 65.98Z" fill="#F8B000"/>
<path d="M59.74 74.0001C59.6 74.0701 59.49 73.9701 59.29 74.0601C59.24 74.0801 58.74 74.4001 58.67 74.4501C58.53 74.5501 58.46 74.5801 58.49 74.7801C58.21 74.6001 56.51 73.8701 56.17 73.7901C55.22 73.5801 54.16 73.71 53.2 73.77C53.48 73.69 53.72 73.54 54.06 73.61C54.08 73.43 53.9 73.39 53.85 73.24C53.81 73.13 53.77 72.7 53.75 72.68C53.68 72.62 53.42 72.8 53.36 72.68C55.52 71.33 57.9 72.9401 59.74 74.0001Z" fill="#F8B000"/>
<path d="M57.23 75.9599C57.23 75.9599 57.26 76.1699 57.25 76.1799C57.2 76.2399 55.89 76.54 55.68 76.6C54.04 76.99 52.35 77.1699 50.71 77.5899C50.61 77.4599 51.53 76.1999 51.72 76.0799C52.08 75.8399 53.27 75.54 53.74 75.45C54.71 75.26 55.53 75.1299 56.47 75.5299C56.57 75.5699 57.21 75.9299 57.23 75.9699V75.9599Z" fill="#F8B000"/>
<path d="M49.23 69.0902C49 69.1402 49.09 68.9802 49.05 68.8402C48.99 68.6102 48.92 68.3902 48.92 68.1502C48.78 68.1302 48.92 68.2902 48.73 68.3102C48.44 68.3402 48.09 68.1802 47.87 68.2202C47.78 68.2402 47.87 68.5002 47.75 68.5302C47.18 66.8002 46.03 66.2902 44.26 66.3402L43.86 65.1902C44.87 65.0402 45.79 64.9802 46.76 65.3602C48.18 65.9202 49.08 67.6202 49.23 69.0802V69.0902Z" fill="#F8B000"/>
<path d="M19.7299 65.9801C19.7299 65.9801 19.6699 66.0501 19.6099 66.0501C19.3099 66.0701 19.0199 66.0801 18.7299 66.1401C18.8199 66.5001 18.4399 67.0501 18.7999 67.3001C18.3499 67.4701 17.16 68.3801 16.9 68.7801C16.57 69.2901 16.67 69.8101 16.53 70.2801C16.5 70.3801 16.4 70.3901 16.39 70.4101L16.5499 69.3201C15.9299 69.3301 15.68 70.0801 15.07 69.7901L14.9899 71.1101C14.9899 71.1101 15.0499 71.2901 14.9099 71.2701C14.5599 68.5301 16.8699 65.7201 19.7299 65.9801Z" fill="#F8B000"/>
<path d="M24 59.3C24.31 59.25 24.72 59.26 25.02 59.33C25.2 59.37 25.92 59.7401 25.89 59.9301C25.83 60.2601 24.75 60.5301 24.46 60.7601C23.9 61.2001 24.26 61.7901 23.45 62.1701C23.04 62.3701 22.85 61.8201 22.8 61.4801C22.66 60.5201 22.91 59.48 24 59.3Z" fill="#E49D00"/>
<path d="M43.47 57.8799C43.4 57.7499 43.11 57.0399 43.03 57.0199C42.79 56.9599 42.21 57.25 41.92 57.26C41.89 57.3 41.97 57.6599 41.99 57.7199C41.39 56.8399 40.49 56.6999 39.5 56.6299L39.46 56.5499L39.42 56.6299C39.29 56.6299 39.16 56.6299 39.03 56.6299L39.42 56.4699C39.48 56.4099 39.31 55.6999 39.27 55.5899C39.23 55.4799 39.01 55.5899 38.96 55.4599C40.52 55.0699 41.87 55.3399 42.88 56.6299C43.05 56.8399 43.46 57.4799 43.52 57.7199C43.56 57.8599 43.52 57.8199 43.47 57.8699V57.8799Z" fill="#F8B000"/>
<path d="M34.2899 39.43C33.9899 39.45 33.7 39.4 33.42 39.33C32.79 39.17 30.07 37.76 29.7 37.29C29.3 36.78 29.67 36.39 30.25 36.59C31.12 37.11 32 37.59 32.89 38.07C33.48 38.39 34.4599 38.55 34.2899 39.43Z" fill="#F8B000"/>
<path d="M18.1799 61.3801C18.1799 61.3801 18.1799 61.4301 18.1799 61.4601C18.0599 61.7001 17.7699 61.6401 17.5499 61.7301C17.4699 61.7601 17.4199 61.8401 17.3999 61.8501C16.8799 62.0501 16.7599 62.1101 16.6999 61.4301C16.6299 60.7001 17.0299 58.8401 17.3999 58.1901C17.4299 58.1401 17.6499 57.8101 17.6699 57.8001C17.7499 57.7801 17.8299 57.8501 17.8499 57.9301C17.9499 58.2601 17.8999 58.8001 17.9599 59.1401C18.0099 59.4201 18.2199 59.6801 18.2599 59.9301C18.3099 60.2901 18.1899 60.9501 18.1799 61.3701V61.3801Z" fill="#E49D00"/>
<path d="M37.09 56.24C37.09 56.24 37.09 56.29 37.09 56.32C37.19 56.61 37.2 57 37.4 57.25C37.4 57.27 37.4 57.3 37.4 57.33V57.56L37.48 57.48C37.56 57.76 37.66 58.04 37.71 58.34C37.64 58.39 36.27 58.03 36.19 57.96C36.11 57.9 35.85 56.66 35.77 56.4C35.96 56.1 35.53 55.79 35.61 55.47C36.03 55.59 36.3399 55.56 36.6599 55.24C36.8399 55.52 36.8699 55.87 36.9699 56.17C36.9899 56.23 37.08 56.24 37.08 56.25L37.09 56.24Z" fill="#E49D00"/>
<path d="M54.68 69.0901C54.84 69.2801 55.61 69.0901 55.69 69.1701C55.74 69.2201 55.87 70.3101 55.93 70.4901L55.31 70.5701C55.62 70.5201 55.89 70.6001 56.17 70.6501C55.5 70.6501 54.81 70.6301 54.15 70.7301C53.96 70.5101 54 70.1301 53.9 69.9301C53.85 69.8201 53.73 69.8201 53.7 69.7801C53.62 69.6501 53.78 69.4901 53.45 69.4101C53.86 69.2701 54.26 69.1301 54.7 69.1001L54.68 69.0901Z" fill="#E49D00"/>
<path d="M56.24 67.6099C56.28 66.8499 55.92 66.1699 55.85 65.4299C56.57 65.5499 57.19 66.2499 57.47 66.8799C58.14 68.3699 57.2 67.7199 56.24 67.6099Z" fill="#F8B000"/>
<path d="M53.05 60.6801C52.88 60.9001 52.17 60.4301 52 60.2901C51.89 60.2001 51.85 60.0401 51.72 59.9401C50.92 59.3301 50.44 59.4301 50.64 58.1101C51.68 58.6301 52.64 59.5801 53.05 60.6801Z" fill="#E49D00"/>
<path d="M11.8699 65.9801C11.6799 66.2701 11.06 67.4301 10.9 67.5401C10.81 67.6001 10.8499 67.6601 10.7399 67.5401C10.3699 67.1001 10.84 65.6201 11.09 65.1301C11.09 65.1101 11.21 65.0601 11.26 64.9601C11.33 64.8401 11.3099 64.3901 11.5599 64.5501C11.6799 64.6301 11.81 65.3301 12.03 65.4901L11.8699 65.9901V65.9801Z" fill="#E49D00"/>
<path d="M37.95 66.2899C38.06 66.0399 38.34 66.1599 38.58 66.0999C38.82 66.0399 39 65.9399 39.23 65.8999L39.36 66.2899C39.36 66.2899 39.42 66.2099 39.44 66.2099C39.52 66.2099 39.96 67.4799 39.91 67.5299L38.79 67.7699C38.52 67.2799 38.28 66.7499 37.96 66.2799L37.95 66.2899Z" fill="#E49D00"/>
<path d="M36.24 66.68C36.5 66.98 37.24 68 37 68.38C36.92 68.51 36.09 68.67 35.9 68.61C35.76 68.57 35.51 68.15 35.46 68C35.46 68 35.55 68 35.54 67.96C35.49 67.8 35.3 67.73 35.42 67.46C35.47 67.36 35.78 67.11 35.89 66.99C36.05 66.81 35.89 66.66 36.24 66.68Z" fill="#E49D00"/>
<path d="M59.74 74C60.03 74.17 60.6 74.38 60.83 74.59C60.88 74.64 60.96 74.71 60.91 74.78C60.87 74.84 59.58 75.4 59.47 75.4C59.42 75.4 58.69 75.01 58.55 74.94C58.48 74.9 58.5 74.79 58.5 74.78C58.47 74.58 58.54 74.55 58.68 74.45C58.75 74.4 59.25 74.08 59.3 74.06C59.5 73.98 59.6 74.08 59.75 74H59.74Z" fill="#E49D00"/>
<path d="M30.48 21.21C30.66 21.27 31.39 21.6 31.49 21.72C31.66 21.92 31.37 22.56 31.21 22.77C31.13 22.79 30.39 22.38 30.24 22.31C30.24 22.31 30.21 22.22 30.11 22.17C29.93 22.09 29.66 22.08 29.46 22.07C29.44 21.91 29.73 22.03 29.77 21.99C29.8 21.96 29.49 21.32 29.61 21.13L30.47 21.21H30.48Z" fill="#E49D00"/>
<path d="M27.44 66.8299C27.07 67.5399 26.17 66.66 25.57 66.67C25.61 66.47 25.77 66.3999 25.88 66.2799L26.92 65.4299C27.2 65.4799 27.6 66.2199 27.59 66.4799C27.59 66.66 27.25 66.7799 27.44 66.8299Z" fill="#E49D00"/>
<path d="M41.14 66.05C41.27 66.01 41.16 65.75 41.26 65.73C41.36 65.71 42.4 65.79 42.45 65.82C42.62 65.94 42.66 66.78 42.69 66.82C42.7 66.84 42.83 66.8 42.85 66.82C42.86 66.83 42.85 67.11 42.85 67.13C42.79 67.19 41.51 67.26 41.46 67.21C41.44 66.8 41.28 66.42 41.15 66.05H41.14Z" fill="#E49D00"/>
<path d="M29.62 57.1001C29.79 56.5701 30.28 56.8301 30.68 56.8601C30.79 56.8601 30.92 56.7801 30.98 56.8001C31.09 56.8201 31.09 57.0101 31.1 57.0301C31.15 57.0801 31.17 56.9501 31.18 56.9501C31.29 56.9701 31.57 57.7101 31.64 57.8501C31.64 57.9201 30.69 58.1801 30.58 58.1801C30.45 58.1801 29.8 57.3001 29.62 57.1101V57.1001Z" fill="#E49D00"/>
<path d="M36.78 50.33C36.94 50.52 37.63 50.1001 37.71 50.1701L38.11 51.1401C38.11 51.1401 37.45 51.4401 37.33 51.5001C37.21 51.5601 37.12 51.6901 36.94 51.6201C36.86 51.5901 36.18 50.8201 36.16 50.7501C36.12 50.6001 36.65 50.38 36.78 50.33Z" fill="#E49D00"/>
<path d="M42.15 59.75C42.21 59.88 42.41 59.77 42.46 59.88C42.56 60.09 42.56 60.74 42.53 61C42.51 61 42.48 61 42.45 61L42.22 61.08C42.02 61.12 41.81 61.31 41.57 61.23C41.51 61.21 40.85 60.42 40.82 60.34C41.08 60.15 41.37 60.02 41.68 59.91L41.72 59.98C41.82 59.95 41.91 59.87 41.99 59.83C42.04 59.81 42.07 59.78 42.15 59.75Z" fill="#E49D00"/>
<path d="M14.99 71.11L15.07 69.7901C15.68 70.0801 15.93 69.3401 16.55 69.3201L16.39 70.4101C16.21 70.6701 16.18 70.6001 16 70.7201C15.67 70.8101 15.42 71.11 15.07 71.11C15.06 71.11 14.99 71.11 14.99 71.11Z" fill="#E49D00"/>
<path d="M11.72 71.6601C11.97 71.7001 11.85 71.5401 11.88 71.3901C11.93 71.1101 11.99 70.8501 11.96 70.5701C12.31 70.6801 12.68 70.6401 13.05 70.6501L12.97 71.9001C12.83 72.1901 12.84 72.2401 12.47 72.2101C12.1 72.1801 11.76 72.0501 11.72 71.6701V71.6601Z" fill="#E49D00"/>
<path d="M28.61 58.42C28.61 58.42 28.66 58.47 28.69 58.5L28.77 58.5799C28.83 58.6299 28.9 58.64 28.93 58.7C28.84 58.92 28.04 59.14 27.8 59.13C27.42 59.11 27.13 58.69 26.83 58.5C26.8 58.09 27.66 57.87 27.96 57.88C28.07 57.88 28.5 58.31 28.62 58.42H28.61Z" fill="#E49D00"/>
<path d="M29.31 67.1399C29.41 67.0599 29.71 66.7699 29.78 66.8299C29.78 67.4099 30.56 67.3799 30.71 67.8399C30.66 67.8799 30.56 67.9999 30.48 68.0699C30.44 68.1099 30.36 68.1199 30.33 68.1899L30.41 68.2299C30.13 68.7199 29.55 68.3399 29.24 68.0399C28.8 67.6199 28.92 67.4799 29.32 67.1399H29.31Z" fill="#E49D00"/>
<path d="M55.46 59.4399C55.46 59.4399 55.55 59.5099 55.58 59.5899C55.7 59.9599 55.8 60.3699 55.77 60.7599C55.58 60.7299 54.61 60.7599 54.54 60.6699C54.5 60.5999 54.54 60.4999 54.53 60.4499C54.49 60.3199 54.26 59.7099 54.3 59.6699C54.71 59.7499 55.1 59.2599 55.47 59.4399H55.46Z" fill="#E49D00"/>
<path d="M21.14 60.9901L21.06 60.9501V60.8301H21.14C21.14 60.8801 21.14 60.9301 21.14 60.9901Z" fill="#E49D00"/>
<path d="M19.8101 61.6201L19.9901 61.5501C19.7101 61.3301 20.0701 60.7301 19.9601 60.3801C20.2901 60.5301 20.75 60.7401 21.05 60.4601C21.05 60.5901 21.06 60.7201 21.05 60.8501C21.04 60.9601 20.8001 61.2001 21.1301 61.1601C21.1301 61.2401 21.3001 61.6501 21.1201 61.7701C21.0101 61.8401 19.9001 61.7101 19.8101 61.6301V61.6201Z" fill="#E49D00"/>
<path d="M47.75 68.5499C47.88 68.5099 47.78 68.2499 47.87 68.2399C48.09 68.1999 48.44 68.3599 48.73 68.3299C48.92 68.3099 48.78 68.1499 48.92 68.1699C48.92 68.4099 48.99 68.6299 49.05 68.8599C49.09 68.9899 49 69.1499 49.23 69.1099C49.23 69.1799 49.23 69.2799 49.23 69.3399L49.15 69.3799L49.23 69.4199C49.06 69.7999 47.93 69.2499 47.85 69.0499C47.8 68.9299 47.81 68.7199 47.76 68.5599L47.75 68.5499Z" fill="#E49D00"/>
<path d="M19.73 65.98C19.87 65.98 20.08 66.03 20.2 66.1C20 66.42 19.82 66.9 19.54 67.15C19.42 67.26 19.37 67.2 19.27 67.23C19.19 67.07 18.96 67.19 18.88 67.31C18.86 67.31 18.82 67.31 18.8 67.31C18.43 67.06 18.81 66.51 18.73 66.15C19.02 66.09 19.32 66.08 19.61 66.06C19.67 66.06 19.72 65.99 19.73 65.99V65.98Z" fill="#E49D00"/>
<path d="M50.7101 67.92C50.7101 67.92 50.8 67.92 50.79 67.88C50.75 67.71 50.61 67.57 50.64 67.38C50.84 67.42 51 67.49 51.22 67.46C51.45 67.43 51.52 67.24 51.73 67.23L51.8 67.66L51.88 67.62C51.91 67.79 52.1301 68.23 52.0301 68.39C52.0001 68.44 51.21 68.63 51.07 68.71C50.94 68.46 50.7901 68.21 50.7101 67.93V67.92Z" fill="#E49D00"/>
<path d="M62.23 73.2901L61.45 72.9001C61.48 72.5301 61.89 72.3701 62.04 72.0401C62.15 72.0101 62.5 72.3201 62.7 72.3501C62.73 72.3701 62.88 72.3301 62.92 72.4801C63 72.7201 62.89 73.1701 62.93 73.4401C62.71 73.4601 62.48 73.4201 62.27 73.3601C62.22 73.3401 62.23 73.2801 62.23 73.2801V73.2901Z" fill="#E49D00"/>
<path d="M41.99 57.7199C41.97 57.6599 41.89 57.2999 41.92 57.2599C42.21 57.2499 42.79 56.9599 43.03 57.0199C43.11 57.0399 43.4 57.7599 43.47 57.8799C43.36 58.0399 42.46 58.2399 42.28 58.1999C42.23 58.1899 42.02 57.8099 41.99 57.7299V57.7199Z" fill="#E49D00"/>
<path d="M39.29 58.14C39.71 57.8 40.64 58.31 40.59 58.61C40.54 58.91 38.97 59.48 38.97 58.79C38.97 58.69 39.21 58.2 39.29 58.14Z" fill="#E49D00"/>
<path d="M34.13 69.0899H32.46C32.4 69.0899 32.23 68.96 32.11 69.01C32.43 68.13 34.17 67.9499 34.13 69.0899Z" fill="#E49D00"/>
<path d="M42.54 62.6302C42.67 62.4602 43.62 62.2402 43.7 62.3202C43.75 62.7302 43.9 63.1302 44.09 63.4802C43.87 63.4802 43.64 63.4802 43.42 63.4802C43.31 63.4802 43.24 63.5602 43.23 63.5602C43.08 63.5602 42.56 62.8202 42.53 62.6302H42.54Z" fill="#E49D00"/>
<path d="M53.36 72.6701C53.42 72.7901 53.68 72.6101 53.75 72.6701C53.77 72.6901 53.81 73.1301 53.85 73.2301C53.91 73.3801 54.09 73.4201 54.06 73.6001C53.72 73.5301 53.48 73.6801 53.2 73.7601C52.96 73.8301 52.71 73.9701 52.45 73.9901C52.37 73.9901 52.2 74.0401 52.26 73.8801C52.38 73.5601 53.05 72.8601 53.35 72.6701H53.36Z" fill="#E49D00"/>
<path d="M37.87 52.9001L38.73 52.8201C38.67 53.1801 38.89 53.6901 38.57 53.9101C38.4 54.0301 38.18 54.1301 38.02 53.9301C37.96 53.8601 37.65 53.1501 37.65 53.0701C37.65 52.8701 37.8 52.9201 37.87 52.8901V52.9001Z" fill="#E49D00"/>
<path d="M38.96 55.47C39.01 55.6 39.22 55.49 39.27 55.6C39.32 55.71 39.48 56.43 39.42 56.48L39.03 56.64C38.9 56.64 38.6999 56.69 38.5999 56.56C38.5699 56.52 38.39 55.72 38.4 55.67C38.55 55.52 38.77 55.51 38.95 55.47H38.96Z" fill="#E49D00"/>
<path d="M31.95 32.58C32.12 32.33 32.37 32.4 32.65 32.46C32.62 32.58 32.37 33.32 32.33 33.35C32.23 33.44 31.99 33.23 31.9 33.2C31.86 33.18 31.87 33.28 31.86 33.28C31.58 33.17 31.83 32.74 31.94 32.58H31.95Z" fill="#E49D00"/>
<path d="M18.18 61.46C18.18 61.54 18.22 61.65 18.13 61.7C17.99 61.79 17.58 61.83 17.4 61.85C17.42 61.85 17.47 61.76 17.55 61.73C17.77 61.64 18.06 61.7 18.18 61.46Z" fill="#F8B000"/>
<path d="M15.0601 71.11C15.4201 71.11 15.6601 70.81 15.9901 70.72C15.7801 70.87 15.56 71.08 15.29 71.16C15.1 71.21 15.1001 71.12 15.0601 71.11Z" fill="#F8B000"/>
<path d="M37.4 57.2601C37.2 57.0001 37.18 56.6101 37.09 56.3301C37.29 56.6001 37.31 56.9601 37.4 57.2601Z" fill="#F8B000"/>
<path d="M19.27 67.2199C19.15 67.2499 19.01 67.2499 18.88 67.2999C18.95 67.1799 19.19 67.0599 19.27 67.2199Z" fill="#F8B000"/>
<path d="M37.48 57.4901L37.4 57.5701V57.3401C37.4 57.3401 37.45 57.4101 37.48 57.5001V57.4901Z" fill="#F8B000"/>
<path d="M41.99 59.8301C41.91 59.8701 41.82 59.9502 41.72 59.9802L41.68 59.9102C41.78 59.8702 41.87 59.8101 41.99 59.8301Z" fill="#F8B000"/>
<path d="M42.46 60.99C42.46 60.99 42.34 61.04 42.23 61.07L42.46 60.99Z" fill="#F8B000"/>
<path d="M53.98 70.8H53.9C53.9 70.8 53.72 70.61 53.98 70.8Z" fill="#E49D00"/>
<path d="M30.4 68.2301L30.32 68.1901C30.35 68.1301 30.43 68.1101 30.47 68.0701C30.44 68.1201 30.42 68.1801 30.39 68.2301H30.4Z" fill="#F8B000"/>
<path d="M49.23 69.4001L49.15 69.36L49.23 69.3201C49.23 69.3201 49.23 69.3801 49.23 69.4001Z" fill="#F8B000"/>
<path d="M11.72 71.4301C11.72 71.3801 11.8 71.3601 11.8 71.3501L11.72 71.4301Z" fill="#E49D00"/>
<path d="M28.76 58.58L28.68 58.5C28.68 58.5 28.73 58.55 28.76 58.58Z" fill="#F8B000"/>
<path d="M39.5 56.6301C39.5 56.6301 39.45 56.6301 39.42 56.6301L39.46 56.55L39.5 56.6301Z" fill="#E49D00"/>
<path d="M36.2199 73.7001C36.3699 73.9701 36.27 74.3101 36.15 74.5801C35.87 75.1701 34.25 76.4701 33.71 75.7201C32.93 74.6401 35.36 73.4701 36.23 73.7101L36.2199 73.7001Z" fill="#049C37"/>
<path d="M22.36 70.4301C22.86 70.3301 23.2 70.5001 23.55 70.8401C23.94 71.2201 24.34 71.9201 24.07 72.4601C23.66 73.3001 22.51 72.0801 22.2 71.6401C21.87 71.1701 21.56 70.6001 22.35 70.4301H22.36Z" fill="#049C37"/>
<path d="M41.98 70.6601C42.21 71.0301 41.73 71.6301 41.44 71.8501C40.9 72.2701 39.51 72.8601 39.74 71.6301C39.86 70.9901 41.73 70.2601 41.98 70.6601Z" fill="#049C37"/>
<path d="M26.02 75.5001C26.21 75.7301 26.18 76.1901 25.85 76.2501C25.24 76.3701 24.13 76.0701 23.71 75.5901C23.02 74.8101 24.74 74.7301 25.32 74.9901C25.43 75.0401 25.96 75.4101 26.02 75.4901V75.5001Z" fill="#049C37"/>
<path d="M46.32 72.44C46.6 72.38 47.09 73.67 47.1 73.97C47.1 74.23 46.87 75.09 46.55 75.09C46.43 75.09 46.09 74.72 46.01 74.62C45.73 74.21 45.64 73.7 45.77 73.22C45.8 73.09 46.23 72.47 46.32 72.45V72.44Z" fill="#049C37"/>
<path d="M28.59 72.46C29.41 72.32 30.15 73.37 29.73 74.07C29.12 75.08 27.19 72.7 28.59 72.46Z" fill="#049C37"/>
<path d="M18.02 74.85C17.95 74.78 18.32 73.88 18.45 73.76C18.92 73.31 19.6499 73.51 19.4999 74.27C19.3999 74.76 18.44 74.93 18.02 74.86V74.85Z" fill="#049C37"/>
<path d="M40.65 75.1801C40.96 75.0701 41.67 75.1201 41.75 75.5401C41.9 76.2701 40.6 76.3901 40.4 75.9501C40.3 75.7201 40.42 75.2601 40.64 75.1901L40.65 75.1801Z" fill="#049C37"/>
<path d="M38.3 51.11C38.35 51.14 38.35 51.16 38.3 51.19V51.11Z" fill="#E49D00"/>
<path d="M56.12 70.4102C56.17 70.4402 56.17 70.4601 56.12 70.4901V70.4102Z" fill="#E49D00"/>
</svg>
