<svg width="79" height="173" viewBox="0 0 79 173" fill="none" xmlns="http://www.w3.org/2000/svg">
<path d="M12.91 165.78L12.84 160.34C12.92 158.44 15.11 159.23 16.37 159.04C16.7 157.9 17.9101 156.44 18.1401 155.35C18.3301 154.41 18.13 153.16 18.19 152.16C18.39 149.12 18.91 145.84 19.43 142.84C19.61 141.79 20.18 140.12 20.23 139.19C20.2701 138.4 19.86 137.06 19.77 136.19C19.53 133.82 19.52 131.37 19.76 129.01C19.85 128.05 20.62 125.03 20.54 124.45C20.53 124.34 19.8 123.23 19.66 122.86C18.58 120.03 19.28 116.4 19.96 113.54C17.67 110.71 17.93 107.01 18.49 103.62C18.81 101.68 19.35 99.78 20 97.93C18.49 97.23 17.59 95.75 17.29 94.15C16.88 92 17.45 89.96 18.63 88.15C18.96 87.64 20.5 85.97 20.58 85.65C20.65 85.36 20.47 83.81 20.48 83.28C20.48 82.96 20.66 82.64 20.61 82.33C20.57 82.11 19.26 80.54 19 80.09C18.55 79.33 18.0901 78.34 17.8901 77.48C17.8001 77.08 17.71 75.73 17.59 75.56C17.51 75.46 15.84 74.48 15.46 74.15C14.98 73.74 13.34 71.7 13.18 71.63C12.63 71.38 11.98 71.61 11.1 71.07C7.50005 68.85 9.92004 61.11 11.47 58.09C9.61004 53 8.78003 47.59 8.74003 42.17C6.27003 43.48 4.48005 39.35 4.79005 37.44C4.86005 36.98 5.43005 36.38 5.45005 36.24C5.46005 36.14 5.40003 35.19 5.37003 35.04C5.26003 34.35 4.13004 33.57 3.81004 32.64C3.39004 31.42 3.72005 30.76 3.57005 29.76C3.46005 29.04 2.91003 28.77 3.12003 27.74C3.17003 27.52 3.41004 27.29 3.41004 27.11C3.41004 26.96 3.17003 26.61 3.12003 26.36C2.91003 25.15 3.85003 24.26 3.80003 23.9C3.65003 22.92 1.32005 21.93 0.790048 20.77C0.400048 19.92 0.0700354 16.7 0.340035 15.83C0.760035 14.47 2.58005 14.3 2.73005 14.08C2.85005 13.9 2.13003 13.02 1.99003 12.72C0.510029 9.55002 2.23005 3.60002 6.04005 3.16002C8.38005 2.90002 6.42005 6.26001 7.70005 7.12001C8.63005 7.75001 8.45004 5.55002 8.50004 5.14002C8.76004 2.99002 11.0301 0.780019 13.2301 0.860019C15.05 0.930019 13.9 2.32002 13.78 3.22002C13.54 5.02002 14.5001 5.70002 14.7001 7.20002C15.0301 9.64001 14.14 12.06 12.57 13.89C13.72 14.6 14.83 14.82 14.97 16.41C15.03 17.12 14.87 19.68 14.66 20.31C14.28 21.46 13.2401 21.88 12.4801 22.63C11.35 23.75 12.07 23.69 12.78 24.71C14.93 27.82 15.34 30.88 14.74 34.62C16.13 39.46 17.64 44.28 18.69 49.22C19.71 49.27 20.2501 50.54 20.8901 51.28C21.6201 52.11 22.8201 53.13 23.1701 54.16C23.4001 54.82 23.4 55.5 23.65 56.2C24.63 58.84 27.19 59.23 28.56 61.61C31.05 63.35 28.6301 61.21 28.2001 60.29C27.2201 58.18 29.11 55.79 29.23 53.74C29.26 53.13 29.01 52.54 28.98 51.95C28.96 51.48 29.1 49.26 29.05 49.13C28.88 48.72 27.48 47.8 27.34 47.08C24.91 46.13 21.83 46.03 19.44 45.17C18.21 44.73 18.38 43.49 19.72 43.27C22.04 42.89 24.63 42.98 27.01 42.64C27.61 42.55 26.85 42.32 26.72 42.22C23.82 40 20.92 37.78 18.02 35.56C17.18 34.66 18.14 33.46 19.26 33.96L29.38 38.12C29.7 38.34 30.24 37.97 30.15 37.6L25.09 27.28C24.76 26.38 25.77 25.55 26.53 26.2C29.37 29.08 32.14 32.04 34.8 35.09C35.06 35.25 35.89 34.91 36.23 34.85L38.23 23.5C38.5201 22.38 39.91 22.46 40.23 23.53L42.07 34.71L43.66 35.06C44.94 33.7 46.12 32.23 47.4 30.87C48.2 30.02 51.44 26.51 52.18 26.17C53.1 25.75 53.65 26.32 53.4 27.27L48.3901 37.51C48.1401 37.87 48.73 38.22 49.05 38.17C52.16 36.98 55.28 35.39 58.43 34.35C59.09 34.13 60.2401 33.6 60.7001 34.36C60.98 34.81 60.9 35.23 60.54 35.62L51.4201 42.57C51.5301 42.74 51.65 42.74 51.83 42.76C54.7 43.07 57.8601 42.82 60.7001 43.13C61.2701 43.19 62.14 43.38 62.09 44.13C62.04 44.84 61.14 45 60.59 45.15C57.55 45.99 54.2101 46.38 51.1401 47.22C50.9701 47.3 50.77 47.86 50.58 48.1C50.38 48.35 49.77 48.81 49.68 49.01C49.6 49.19 49.78 51.43 49.74 51.95C49.7 52.57 49.45 53.08 49.5 53.74C49.65 55.96 51.54 57.9 50.4 60.4C50.2 60.83 49.28 61.77 49.27 62.01C49.23 62.68 50 64.41 49.98 65.23C51.2001 65.76 52.43 66.23 53.55 66.97C57.89 69.86 59.44 75.44 61.5 79.96C62.25 79.23 64.17 75.05 64.94 74.83C65.45 74.68 66.13 74.88 66.63 75.01C69.81 75.87 73.03 77.41 76.24 78.23C76.99 78.53 78.37 80.03 78.29 80.85L75.11 86.31C75.42 87.11 75.7101 87.49 75.6401 88.41C75.4401 90.86 73.22 94.51 71.06 95.71C70.77 95.87 69.98 96.04 69.9201 96.24C69.87 99.92 69.3501 104.1 67.1701 107.17C65.2201 109.93 62.27 110.5 59.35 108.76C59.54 111.34 59.71 113.92 59.9501 116.5C60.2901 120.26 60.98 124.3 61.15 128.02C61.19 128.98 61.27 129.86 60.66 130.66C60.24 131.22 59.17 131.61 59.09 132.21C58.95 133.26 59.16 135.27 59.22 136.42C59.39 139.73 59.68 143.07 59.94 146.38C60.27 150.56 60.77 154.74 61.02 158.92C61.83 158.93 63.67 158.77 63.97 159.75L64.02 165.76H66.12C66.75 165.76 67.1 166.35 67.15 166.89C67.25 167.98 67.3001 171.15 67.1401 172.17C67.0701 172.59 66.71 173.02 66.25 172.96H10.46C9.85003 172.8 9.60003 172.41 9.55003 171.82C9.45003 170.74 9.40004 167.67 9.56004 166.66C9.61004 166.37 10.08 165.75 10.33 165.75H12.91V165.78ZM11.71 3.29001C11.53 3.07001 10.5201 4.42002 10.4501 4.61002C9.97005 5.82002 11.01 7.11002 9.55003 8.39002C7.18003 10.47 5.09005 8.13003 5.23005 5.57003C3.39005 7.10003 2.53003 9.71002 3.77003 11.89C3.89003 12.11 4.74003 13.23 4.87003 13.31C5.05003 13.42 8.51004 13.23 9.13004 13.25C10.57 13.28 10.33 13.77 11.32 12.45C11.88 11.71 12.54 10.46 12.75 9.56002C13.29 7.19002 11.5501 5.65001 11.7001 3.29001H11.71ZM12.79 16.25C12.62 16.07 12.36 16.12 12.15 16.01C10.3 15.05 7.90005 15.02 5.79005 15.31C5.11005 15.4 2.69004 15.92 2.28004 16.36C1.82004 16.86 2.28005 18.44 2.23005 19.13C5.25005 17.89 8.44003 17.73 11.59 18.59C11.97 18.69 12.3701 18.97 12.7301 19.01C13.0301 19.05 12.9 18.64 12.91 18.41C12.93 17.99 13 16.46 12.79 16.25ZM5.96003 20.09C5.87003 20.1 5.85004 20.21 5.84004 20.21C5.80004 20.21 5.76004 20.21 5.72004 20.21C5.15004 20.3 4.45005 20.27 3.92005 20.57C3.83005 20.62 3.74003 20.66 3.68003 20.75C4.41003 21.5 5.25005 22.12 5.48005 23.21C5.90005 23.02 6.35005 23.02 6.79005 22.97C7.23005 22.92 7.53003 22.87 7.99003 22.85C8.07003 22.85 8.15005 22.85 8.23005 22.85C8.67005 22.85 9.11003 22.85 9.55003 22.85C9.64003 22.87 9.80003 23.07 10.02 22.97C9.99003 22.11 11.24 21.36 11.53 20.82C11.62 20.65 11.61 20.63 11.46 20.52C10.63 19.88 7.03004 19.96 5.94004 20.1L5.96003 20.09ZM8.47004 26.09C8.36004 25.74 8.46003 24.65 8.15003 24.55C7.64003 24.38 5.16004 24.9 5.00004 25.45C4.73004 26.4 6.92005 25.95 7.45005 25.97C7.81005 25.98 8.11003 26.09 8.46003 26.09H8.47004ZM10.03 24.77V26.87C10.03 26.97 10.92 27.59 10.94 28.57C10.95 29.05 10.62 29.53 10.63 29.86C10.65 30.36 11.01 30.95 10.99 31.67C10.93 33.37 10.07 34.64 10.4 36.71C10.47 37.12 10.85 37.54 10.86 38.05C10.87 38.56 10.56 39.03 10.51 39.48C10.37 40.68 10.46 42.78 10.51 44.05C10.72 49.87 12.17 55.09 14.06 60.55C14.1 60.67 14.07 60.83 14.24 60.79C15.19 58.38 16.54 56.04 17.07 53.48C17.7 50.41 15.67 44.52 14.81 41.33C14.34 39.59 13.31 37.03 13.07 35.39C12.87 34.03 13.2301 32.5 13.1701 31.09C13.0801 29.17 12.4 27.01 11.22 25.48C10.91 25.08 10.6 24.73 10.04 24.8L10.03 24.77ZM9.20005 28.85C9.34005 27.68 7.63003 27.46 6.74003 27.53C6.32003 27.56 4.55003 27.87 5.24003 28.55C5.62003 28.93 8.46005 28.62 9.20005 28.85ZM40.3901 34.73L39.25 28.01L38.11 34.73H40.3901ZM5.24003 31.25H7.58003C7.77003 31.25 8.90003 31.65 8.96003 31.61C8.98003 31.59 9.08004 31.2 9.06004 31.1C8.81004 29.84 5.31003 29.46 5.24003 31.25ZM33.19 36.05L28.87 31.01L31.63 36.77L33.19 36.05ZM45.31 35.93C45.7 35.8 46.62 36.77 46.87 36.6L49.62 31.13L45.3 35.93H45.31ZM6.80003 33.17C6.89003 33.51 7.00005 34.08 7.04005 34.43C7.08005 34.78 6.93003 35.96 7.15003 36.12C7.40003 36.29 8.47004 36.1 8.84004 36.17V33.24C8.81004 33.09 8.56005 33.21 8.48005 33.17C8.43005 33.15 8.36004 33 8.25004 32.98C7.73004 32.88 7.20003 32.94 6.68003 32.93C6.62003 33.11 6.80003 33.16 6.80003 33.17ZM38.35 40.73C38.44 40.64 38.35 38.51 38.35 38.15C38.35 37.59 40.15 37.55 40.15 38.27V40.55C40.15 40.77 41.05 40.8 41.24 40.68C41.63 40.41 41.26 38.24 42.27 38.13C43.28 38.02 43.36 38.97 43.26 39.71C43.16 40.45 42.35 41.41 43.72 41.56C44.52 41.65 44.49 39.01 45.79 39.6C47.21 40.25 45.35 41.81 45.69 42.4C45.73 42.46 46.43 42.78 46.55 42.76C46.94 42.68 47.21 41.62 47.65 41.58C48.04 41.54 48.7801 42.34 48.6401 42.82C48.5701 43.06 47.81 43.76 47.87 43.99C47.92 44.18 48.21 44.41 48.32 44.62C48.67 45.26 48.83 45.83 49.1 46.48C49.16 46.63 49.17 46.83 49.37 46.87C50.01 45.28 49.82 43.22 49.12 41.66C45.81 34.36 31.27 34.86 29.06 42.81C28.77 43.84 28.54 45.66 29.28 46.5L30.75 44.04C30.35 43.42 29.34 42.79 30.11 42.05C31.04 41.16 31.73 42.89 32.04 42.89C32.09 42.89 32.8 42.39 32.81 42.34C32.93 41.96 32.11 40.68 32.1 40.44C32.08 39.83 32.98 39 33.66 39.72C34.34 40.44 33.85 42.26 35.38 41.32C36.07 40.89 34.42 38.8 35.49 38.31C37.39 37.43 36.81 40.71 37.33 40.85C37.38 40.86 38.3 40.78 38.34 40.74L38.35 40.73ZM28.51 39.54L23.11 37.26L27.63 40.85C27.85 40.88 28.59 39.65 28.51 39.54ZM55.5 37.37L50.1 39.53L50.7001 40.97L55.5 37.37ZM6.98005 38.09C6.26005 38.09 6.89003 41.44 8.30003 40.14C8.59003 39.87 9.63005 38.09 9.01005 38.09H6.97004H6.98005ZM37.99 42.65C34.78 42.89 31.35 44.22 30.91 47.81C31.22 48.11 34.4401 46.57 34.9501 46.27C36.2601 45.51 38 44.33 37.99 42.65ZM47.7001 47.93C47.62 46.23 46.31 44.44 44.78 43.71C44.21 43.44 40.89 42.4 40.55 42.88C40.33 44.06 41.77 45.02 42.62 45.63C44.12 46.7 45.89 47.54 47.7001 47.93ZM27.07 44.33L23.59 44.69L27.07 45.41V44.33ZM56.1 44.57C55.54 44.66 51.82 44.17 51.66 44.33C51.62 44.37 51.69 45.2 51.54 45.41L54.32 45.01L56.1 44.57ZM45.77 49.03C43.31 48.09 40.42 47.12 39.19 44.57C37.63 46.72 35.3 48.1 32.85 49.03C32.48 54.21 33.58 62.77 40.87 60.95C45 59.92 46.42 52.63 45.77 49.02V49.03ZM31.3901 49.61C31.2901 49.51 30.5601 49.59 30.4501 49.93C30.34 50.31 30.37 52.24 30.88 51.44C31.02 51.21 31.5301 49.75 31.3901 49.61ZM48.1701 49.74C48.1701 49.74 47.5 49.69 47.34 49.61C47.26 49.69 47.85 51.68 47.94 51.77C48.19 52 48.29 51.36 48.3 51.23C48.32 51.01 48.2601 49.82 48.1701 49.74ZM19.15 52.25C17.79 57.14 15.78 62.43 12.31 66.23C12.11 66.45 11.28 67.09 11.24 67.21C11.1 67.71 11.8701 69.35 12.3901 69.5C13.4201 69.8 14.59 68.92 15.36 68.32C18.96 65.51 23.4 58.27 20.61 53.84C20.47 53.62 19.3801 52.07 19.1401 52.25H19.15ZM47.47 61.25C47.64 61.43 48.54 60.13 48.65 59.97C48.76 59.81 48.93 59.62 48.98 59.46C49.2701 58.49 48.45 56.38 48.13 55.38C48.03 55.05 47.9401 53.71 47.4201 53.69C47.3101 53.69 46.8901 55.69 46.8901 55.8C46.8901 56.03 47 56.26 47.01 56.5C47.01 58.15 47.19 59.63 47.48 61.24L47.47 61.25ZM31.15 60.89C31.4 58.48 32.25 56.16 31.21 53.81C31.1 53.81 30.48 55.63 30.4 55.88C30.2 56.5 29.56 58.5 29.6 59.03C29.63 59.51 30.52 60.37 30.88 60.74C30.95 60.81 30.88 60.98 31.15 60.89ZM23.23 59.21C22.91 59.17 23.04 59.21 22.99 59.39C21.63 63.87 19.59 66.92 16.16 70.08C15.95 70.27 15.13 70.76 15.09 70.93C14.99 71.45 17.81 73.79 18.47 73.6C18.66 73.55 20.46 70.85 20.72 70.44C22.87 66.99 24.37 63.35 23.24 59.22L23.23 59.21ZM47.23 64.97C46.0401 63.48 46.09 61.66 45.76 59.9C45.74 59.79 45.71 59.54 45.55 59.57C45.2 60.93 44.96 62.49 45.4 63.86C45.72 64.86 46.1101 65.37 47.23 64.97ZM40.63 69.54H37.81C36.16 69.54 33.67 67.92 32.78 66.53C32.58 66.22 32.36 65.49 32.18 65.33C31.87 65.05 30.6201 64.75 30.1701 64.61C30.0701 64.58 30.08 64.4 29.99 64.38C29.76 64.33 29.47 64.4 29.23 64.38C29.33 65 29.31 67.29 28.15 66.6C27.87 66.43 27.55 63.5 27.25 62.82C27.03 62.32 26.19 61.29 25.75 60.96C25.63 60.87 25.6001 60.73 25.3901 60.78C25.6501 62.76 25.09 65.17 24.4 67.05C23.26 70.17 21.3901 72.08 19.8901 74.78C19.1301 76.15 19.35 76.93 20.04 78.3C20.18 78.58 21.36 80.43 21.66 80.21L25.72 69.93C26.38 68.97 27.03 69.76 26.91 70.76C26.71 72.38 25.47 75.36 24.87 77C24.05 79.23 22.8 81.46 22.5 83.81C28.52 79.03 35.21 75.05 40.61 69.53L40.63 69.54ZM32.9501 62.63C33 62.07 32.91 61.45 32.9501 60.89L32.1 63.46L32.71 63.6C32.77 63.56 32.93 62.77 32.9501 62.63ZM12.2001 61.02C11.8301 62.23 11.4901 63.46 11.4201 64.74C12.3201 63.65 13.5301 62.31 12.2001 61.02ZM43.3901 61.85C42.6301 62.07 41.97 62.57 41.16 62.8C39.53 63.27 37.87 63.1 36.35 62.35C35.76 62.06 35.35 61.59 34.75 61.37L34.41 65.6C36.26 68.27 41.06 68.8 43.56 66.88C44.72 65.99 44 65.63 43.77 64.63C43.56 63.74 43.68 62.74 43.38 61.84L43.3901 61.85ZM21.31 121.38C24.19 112.28 28.2 103.56 33.26 95.47C37.65 88.44 42.6801 81.83 46.9201 74.69C47.4501 73.8 50.84 67.96 50.7001 67.46C50.5101 66.81 47.24 66.61 46.59 66.68C45.07 66.84 45.23 67.36 44.36 68.29C38.38 74.68 32.08 78.46 25.41 83.78C22.33 86.24 18.56 89.46 19.05 93.83C19.18 95.03 20.01 95.73 20.9 96.42C23.98 90.26 29.55 85.95 34.09 80.93C35.39 80.52 34.99 81.29 34.57 82.01C31.75 86.78 26.18 90.4 23.22 95.62C21.52 98.62 18.65 107.53 20.57 110.55C20.63 110.65 20.66 110.88 20.84 110.7C20.94 110.61 21.54 108.49 21.68 108.12C22.98 104.55 25.57 97.89 27.98 95.1C28.29 94.74 29.23 94.04 29.24 94.92C29.24 95.11 28.5301 96.62 28.3901 96.95C25.5801 103.12 19.87 114.32 21.12 121.06C21.14 121.17 21.17 121.42 21.33 121.39L21.31 121.38ZM57.3 86.34C57.52 86.38 57.6 86.23 57.71 86.09C58.2 85.48 58.9501 84.17 59.3901 83.45C59.6901 82.96 60.38 82.03 60.28 81.51C58.21 77.7 56.91 71.92 53.4 69.18C52.97 68.85 52.24 68.12 52.25 69.11C53.21 76.88 54.13 84.68 54.06 92.52C54.03 95.7 54.46 98.04 54.77 101.16C55.28 106.14 55.49 111.27 56.08 116.17C56.11 116.4 56.32 116.33 56.32 116.39C56.16 119.09 57.21 122.9 56.79 125.25C56.69 125.79 56.27 125.89 56.21 126.35C56.09 127.28 56.23 129.69 56.34 130.68C56.36 130.86 56.4601 131.42 56.6401 131.46C56.8201 131.5 59.06 129.22 59.15 128.93C59.28 128.54 59.24 127.64 59.22 127.19C59.04 123.55 58.35 119.59 58.02 115.91C56.81 102.56 55.9401 89.2 54.8901 75.82C54.9901 75.1 55.63 75.1 56 75.68C56.44 76.38 56.71 79.07 56.81 80.03C57.05 82.12 57.11 84.24 57.29 86.33L57.3 86.34ZM52.38 89.94L50.76 70.86L46.6 78.22C45.84 79.57 46.3 81.26 46.27 82.81C46.25 83.53 46.1901 84.46 46.1401 85.2C45.9101 88.87 45.26 92.51 45.06 96.18C46.31 94.98 49.8 92.58 50.16 90.91C50.63 88.71 47.77 87.62 47.93 86.41C47.97 86.1 48.19 86 48.47 85.97C49.5 85.88 50.49 87.34 51.1 88.03L52.37 89.94H52.38ZM67.36 88C67.45 87.86 67.38 87.24 67.71 86.73C68.14 86.05 68.9 86.02 69 85.86C69.09 85.72 69.03 85.45 69.12 85.26C69.87 83.75 71.23 84.46 72.48 84.54L75.1701 80.04L74.88 79.84L66.06 76.78C65.76 76.73 65.47 76.88 65.27 77.08C64.3 78.68 63.41 80.33 62.44 81.92C61.06 84.17 59.28 86.54 58.05 88.81C57.41 89.99 57.5 90.83 57.55 92.15C57.61 93.72 57.74 95.63 57.91 97.19C57.94 97.45 58.04 98.41 58.15 98.51L63.11 100.47L66.6401 94.51C66.8501 93.67 65.1401 92.21 65.8901 90.77C65.98 90.6 66.22 90.51 66.28 90.32C66.43 89.83 66.08 89.41 66.4 88.76C66.65 88.25 67.33 88.04 67.37 87.99L67.36 88ZM22.03 138.78C22.4 138.4 22.94 138.06 23.29 137.7C28.95 132.07 35.2801 124.84 39.6401 118.17C40.5901 116.72 43.62 112.05 43.85 110.62C44.21 108.34 43.94 105.43 43.98 103.07C43.99 102.12 44.3501 100.52 43.9501 99.63C43.8 99.29 43.39 99.09 43.29 98.61C43.22 98.25 43.25 97.7 43.26 97.31C43.33 95.2 43.77 93.03 43.97 90.94C44.29 87.57 44.55 84.19 44.82 80.81L35.1701 95.46C30.9701 102.14 27.47 109.14 24.69 116.54C21.91 123.94 20.42 131.15 22.02 138.77L22.03 138.78ZM67.38 92.22C67.36 92.59 68.51 94.33 68.7001 94.44C70.0601 95.26 72.45 92.08 73 91.06C73.36 90.38 74.2201 88.48 73.9201 87.78C73.6801 87.21 71.32 85.38 70.74 85.79C70.09 86.25 71.95 87.38 72.25 87.66C72.73 88.11 74.06 90.05 72.83 90.16C72.27 90.21 70.95 87.92 69.86 87.78C69.62 87.75 68.94 87.7 68.97 88.07C69.03 88.68 71.19 89.75 71.4501 91.12C71.5701 91.76 71.41 92.26 70.71 91.86C70.3 91.62 68.42 88.76 67.81 89.95C67.74 90.09 67.76 90.17 67.81 90.31C67.98 90.84 70.23 93.01 69.68 93.55C69.29 93.94 67.77 92.43 67.4 92.23L67.38 92.22ZM51.38 92.11C51.26 92.15 50.15 93.78 49.87 94.08C49.1 94.93 46.1 97.2 45.85 97.85C45.44 98.91 45.71 101.88 45.68 103.2C45.51 109.39 45.15 115.61 44.71 121.8C44.49 124.93 44.0401 128.09 43.9201 131.22C43.9201 131.39 43.83 131.44 44.05 131.58C47.65 129.21 51.06 126.55 54.9 124.55L55.1 124.18C54.3 116.02 53.94 107.76 52.97 99.61C52.71 97.44 52.4 94.65 51.85 92.57C51.78 92.32 51.71 92 51.38 92.1V92.11ZM67.5 98.82C67.5 98.82 67.34 98.91 67.28 99.02C66.71 99.96 65.73 102.18 65.1 102.85C64.54 103.45 63.68 103.35 63.06 102.91C62.89 103.91 63.82 107.28 65.27 106.38C66.26 105.76 67.56 101.81 67.62 100.63L67.86 98.23C67.56 98.29 67.59 98.68 67.5 98.83V98.82ZM63.06 107.94C62.66 106.94 62.03 106.08 61.71 105.03C61.39 103.98 61.34 102.98 61.2001 101.94C60.87 101.69 58.55 100.69 58.38 100.86C58.65 103.93 58.88 108.32 63.06 107.94ZM18.43 158.94H21.61C22.06 158.94 26.19 154.51 26.71 153.84C27.99 152.17 28.64 150.5 29.69 148.78C30.71 147.12 34.73 144.82 36.47 143.56C38.71 141.94 41.3601 140.21 43.3901 138.36C44.0101 137.8 45.29 136.75 44.81 135.85C44.31 134.91 42.52 134.82 42.31 132.95C42.08 130.92 42.5301 128.6 42.6701 126.59C42.8801 123.64 43.05 120.67 43.27 117.71C43.29 117.51 43.6101 115.37 43.4501 115.37L39.7001 121.34C38.3 127.2 37.18 134.92 34.18 140.18C33.76 140.92 32.49 142.73 32.75 140.67C32.98 138.86 34.43 135.64 35.03 133.71C35.96 130.7 36.81 127.66 37.4 124.56H37.16L33.4201 129.34C31.2801 137.27 28.49 146.38 23 152.64C21.57 154.27 20.34 154.92 19.3 156.98C18.98 157.61 18.7201 158.3 18.4501 158.95L18.43 158.94ZM51.54 129.78C51.52 130.38 51.54 131.12 51.66 131.7C51.66 131.82 51.66 131.94 51.66 132.06C51.65 133.38 51.72 135.08 51.9 136.38C51.92 136.53 52.01 136.66 52.02 136.74C51.93 138.01 51.96 139.34 52.26 140.58C52.26 140.66 52.26 140.74 52.26 140.82C51.91 141.24 52.26 141.97 52.26 142.32V145.44C52.26 145.93 52.36 146.72 52.38 147.3C52.38 147.46 52.38 147.62 52.38 147.78C52.41 148.68 52.47 149.62 52.5 150.54C52.5 150.74 52.5 150.94 52.5 151.14C52.53 152.31 52.59 153.44 52.62 154.62C52.62 154.78 52.62 154.94 52.62 155.1C52.63 155.72 52.51 156.47 52.74 157.02C52.74 157.1 52.74 157.18 52.74 157.26C52.74 157.34 52.74 157.42 52.74 157.5C52.74 157.66 52.73 157.82 52.74 157.98C52.75 158.16 52.77 158.9 52.93 158.95C54.03 158.88 55.19 159.02 56.28 158.95C56.4 158.95 56.56 158.98 56.57 158.82C56.39 156.66 56.23 154.49 55.97 152.34C56.08 151.52 55.92 150.64 55.85 149.82C55.85 149.74 55.85 149.66 55.85 149.58C55.85 149.42 55.91 149.18 55.73 149.1C55.73 149.02 55.73 148.94 55.73 148.86C55.78 146.35 55.42 143.7 55.25 141.18C55.08 138.66 54.94 136.13 54.77 133.62C54.72 132.87 54.72 132.05 54.65 131.34C54.63 131.1 54.54 130.93 54.53 130.86C54.53 130.26 54.53 129.66 54.53 129.06C54.53 128.98 54.53 128.9 54.53 128.82C54.53 128.78 54.53 128.74 54.53 128.7C54.51 128.14 54.58 127.56 54.35 127.02C53.8 127.4 51.65 128.41 51.53 129C51.49 129.23 51.53 129.53 51.53 129.78H51.54ZM49.1401 130.38C49.1401 130.38 49.06 130.48 49.02 130.5C48.94 130.54 48.88 130.56 48.78 130.62C48.73 130.65 48.7 130.72 48.66 130.74C48.63 130.76 48.57 130.72 48.54 130.74C48.14 130.99 46.7 131.97 46.62 132.36C46.61 133.87 47.01 135.64 46.55 137.09C46.19 138.25 45.9801 138.56 45.8901 139.91C45.8001 141.26 45.75 142.56 45.66 143.94C45.61 144.7 45.58 145.46 45.54 146.22C45.51 146.78 45.4501 147.34 45.4201 147.9C45.2501 151.18 45.13 154.45 45.18 157.74C45.18 157.78 45.18 157.82 45.18 157.86C45.18 158.22 45.18 158.58 45.18 158.94C45.85 158.85 51.08 159.1 51.18 158.82C51.23 158.66 51.14 158.3 51.18 158.1L50.94 155.46C50.94 155.46 50.94 155.38 50.94 155.34C51.22 154.77 50.95 154.26 50.94 153.72C50.92 153.1 50.97 152.47 50.94 151.85C50.94 151.77 50.94 151.69 50.94 151.61C50.91 150.69 50.85 149.77 50.82 148.85C50.82 148.73 50.82 148.61 50.82 148.49C50.82 148.45 50.82 148.41 50.82 148.37C50.82 148.33 50.82 148.29 50.82 148.25C50.78 147.29 50.7401 146.33 50.7001 145.37C50.7001 145.25 50.7001 145.13 50.7001 145.01C50.7001 144.93 50.7001 144.85 50.7001 144.77C50.7001 144.69 50.7001 144.61 50.7001 144.53C50.6701 143.86 50.61 143.17 50.58 142.49C50.57 142.25 50.59 142.01 50.58 141.77C50.55 141.19 50.49 140.57 50.46 139.97C50.46 139.89 50.46 139.81 50.46 139.73C50.42 138.85 50.38 137.97 50.34 137.09C50.34 137.01 50.34 136.93 50.34 136.85C50.3 135.95 50.27 135.05 50.22 134.15C50.2 133.72 50.1 133.06 49.98 132.65C49.98 132.61 49.98 132.57 49.98 132.53V129.89L49.1401 130.37V130.38ZM31.03 131.94L29.83 133.08C28.08 135.16 26.08 137.02 24.25 139.02C23.71 139.61 21.61 141.77 21.38 142.27C21.08 142.91 20.86 144.76 20.73 145.58C20.58 146.49 19.72 152.91 20 153.19C20.19 153.22 20.28 153.17 20.43 153.08C20.93 152.75 22.0301 151.32 22.4501 150.78C26.66 145.37 29.2 138.5 31.04 131.95L31.03 131.94ZM56.82 139.38C56.82 139.54 56.82 139.7 56.82 139.86C56.79 141.33 56.96 143.1 57.06 144.6C57.1 145.21 57.17 145.98 57.3 146.58C57.3 146.66 57.3 146.74 57.3 146.82C57.28 148.04 57.46 149.32 57.54 150.54C57.57 151.02 57.63 151.5 57.66 151.98C57.82 154.3 57.9901 156.62 58.1401 158.94H59.34L58.38 148.26C58.36 147.94 58.38 147.62 58.38 147.3C58.36 146.26 58.2201 145.11 58.1401 144.06C57.9901 141.98 57.78 139.9 57.66 137.82C57.66 137.66 57.55 137.48 57.54 137.28C57.48 136.14 57.6501 134.98 57.4201 133.86C56.18 134.27 56.72 135.69 56.58 136.67L56.82 139.38ZM35.71 158.7C35.71 158.7 35.54 158.78 35.59 158.94H38.46C38.64 158.45 38.55 157.97 38.59 157.5C38.59 157.46 38.59 157.42 38.59 157.38C38.81 157.25 38.8 157.05 38.83 156.84C38.98 155.83 39.06 154.79 39.19 153.78C39.39 152.17 39.55 150.54 39.81 148.94C39.9 148.4 40.23 146.09 40.59 145.85C41.57 145.22 41.42 146.77 41.47 147.3C41.38 147.71 41.34 148.07 41.35 148.5C41.35 148.58 41.35 148.66 41.35 148.74L40.87 152.58C40.88 152.95 40.78 153.3 40.75 153.66C40.72 153.94 40.77 154.22 40.75 154.5C40.75 154.58 40.75 154.66 40.75 154.74C40.43 155.58 40.4001 156.6 40.3901 157.5C40.3201 157.85 40.17 158.2 40.15 158.58C40.15 158.7 40.15 158.82 40.15 158.94H43.3901C43.5201 158.22 43.49 157.51 43.51 156.78C43.51 156.62 43.51 156.46 43.51 156.3C43.51 156.26 43.51 156.22 43.51 156.18C43.51 156.1 43.51 156.02 43.51 155.94C43.51 155.86 43.51 155.78 43.51 155.7C43.51 155.62 43.51 155.54 43.51 155.46C43.54 154.62 43.61 153.77 43.63 152.94C43.63 152.78 43.63 152.62 43.63 152.46C43.65 151.82 43.61 151.18 43.63 150.54C43.63 150.46 43.63 150.38 43.63 150.3C43.63 150.26 43.63 150.22 43.63 150.18C43.63 150.14 43.63 150.1 43.63 150.06C43.63 150.01 43.63 149.97 43.63 149.94C43.63 149.82 43.63 149.7 43.63 149.58C43.76 149.2 43.84 148.6 43.87 148.2C43.96 146.89 44.08 145.48 44.11 144.18C44.11 143.86 44.11 143.54 44.11 143.22C44.25 142.67 44.33 141.9 44.35 141.3C44.36 140.96 44.39 140.47 44.35 140.16C44.33 139.99 44.4201 139.95 44.1701 139.98L38.65 144.18L38.38 144.51C37.55 149.25 36.73 154 35.71 158.7ZM36.31 145.86C36.2 145.93 36.0601 146.03 35.9501 146.1C35.9201 146.12 35.86 146.08 35.83 146.1C35.32 146.44 33.55 147.57 33.34 147.99C32.62 151.16 31.73 154.28 30.79 157.38C30.72 157.62 30.21 158.84 30.31 158.94H33.96C34.11 158.91 33.99 158.67 34.03 158.58C34.79 156.61 35.18 153.53 35.59 151.38C35.74 150.59 35.98 149.8 35.9501 148.98C36.12 148.23 36.32 147.49 36.43 146.7C36.48 146.34 36.59 145.99 36.55 145.62C36.41 145.61 36.38 145.81 36.31 145.86ZM26.9501 156.18L26.71 156.42C26.16 157.03 25.44 157.52 24.91 158.22L24.07 158.82C24.09 159.04 24.62 158.94 24.79 158.94C24.83 158.94 24.87 158.94 24.91 158.94C25.82 158.95 26.7601 158.97 27.6701 158.94C27.8801 158.94 28.42 159.01 28.52 158.87C29.07 157.16 29.89 155.41 30.31 153.66C30.36 153.46 30.38 153.26 30.43 153.06C30.43 153.02 30.43 152.98 30.43 152.94C30.75 152.35 30.8 151.67 30.91 151.02C31.05 150.57 31.36 150.12 31.27 149.58C30.64 150.12 30.39 151.09 29.97 151.82C29.18 153.18 27.9701 155.03 26.9501 156.18ZM17.71 160.98H14.71V165.78H62.22V162.54C62.24 162.02 62.21 161.5 62.22 160.98C52.7 160.99 43.1801 160.97 33.6701 160.98C33.0301 160.98 32.39 160.98 31.75 160.98C31.67 160.98 31.59 160.98 31.51 160.98C27.02 160.98 22.4401 160.85 17.9501 160.98C17.8701 160.98 17.79 160.98 17.71 160.98ZM16.99 167.7C16.5 167.7 15.99 167.7 15.5 167.7C14.12 167.7 12.74 167.71 11.36 167.7V171.18H64.34C64.53 171.26 64.67 171.08 64.75 171.06L65.35 171.18V167.7C61.43 167.7 57.51 167.7 53.59 167.7C42.56 167.69 31.51 167.68 20.48 167.7C19.32 167.7 18.16 167.7 17 167.7H16.99Z" fill="#121611"/>
<path d="M22.03 138.78C20.43 131.16 22.03 123.69 24.7 116.55C27.37 109.41 30.98 102.15 35.18 95.4701L44.83 80.8201C44.56 84.2001 44.3 87.5701 43.98 90.9501C43.78 93.0401 43.34 95.2101 43.27 97.3201C43.26 97.7001 43.23 98.2601 43.3 98.6201C43.4 99.1001 43.81 99.3001 43.96 99.6401C44.36 100.53 44 102.14 43.99 103.08C43.96 105.45 44.22 108.35 43.86 110.63C43.63 112.06 40.6 116.73 39.65 118.18C35.29 124.85 28.96 132.08 23.3 137.71C22.94 138.07 22.4 138.4 22.04 138.79L22.03 138.78ZM40.97 92.9501C40.7 92.7801 40.14 93.0601 40.06 93.3901C37.53 101.89 35.15 110.76 31.41 118.82C30.43 120.94 28.56 123.67 27.85 125.7C27.44 126.89 27.89 127.46 28.87 126.48C30.53 124.8 32.69 120.13 33.69 117.86C36.32 111.92 38.57 104.94 40.14 98.6301C40.45 97.3701 41.21 94.6601 41.11 93.4801C41.11 93.3701 41.03 92.9901 40.97 92.9601V92.9501Z" fill="#80C2A6"/>
<path d="M21.3101 121.38C21.1501 121.41 21.1201 121.16 21.1001 121.05C19.8501 114.31 25.5601 103.11 28.3701 96.94C28.5201 96.62 29.2301 95.11 29.2201 94.91C29.2101 94.03 28.2701 94.73 27.9601 95.09C25.5501 97.88 22.9601 104.54 21.6601 108.11C21.5201 108.49 20.9201 110.6 20.8201 110.69C20.6401 110.86 20.6101 110.63 20.5501 110.54C18.6301 107.52 21.5001 98.61 23.2001 95.61C26.1601 90.39 31.7301 86.77 34.5501 82C34.9701 81.29 35.3801 80.51 34.0701 80.92C29.5301 85.94 23.9601 90.24 20.8801 96.41C20.0001 95.71 19.1701 95.02 19.0301 93.82C18.5401 89.44 22.3101 86.22 25.3901 83.77C32.0601 78.45 38.3601 74.66 44.3401 68.28C45.2101 67.35 45.0501 66.83 46.5701 66.67C47.2301 66.6 50.5001 66.8 50.6801 67.45C50.8201 67.96 47.4301 73.79 46.9001 74.68C42.6601 81.82 37.6401 88.43 33.2401 95.46C28.1901 103.55 24.1701 112.27 21.2901 121.37L21.3101 121.38ZM29.8301 91.74C30.2001 92.13 32.6801 89.46 33.0101 89.1C36.0901 85.85 39.2901 81.97 41.9901 78.41C43.8001 76.02 46.9201 71.86 47.7601 69.06C48.2401 67.46 47.4001 67.69 46.5701 68.59C45.1501 70.13 43.7301 73.07 42.4501 74.91C38.5601 80.51 33.6601 85.37 29.8501 90.99L29.8201 91.74H29.8301Z" fill="#80C2A6"/>
<path d="M51.38 92.1099C51.71 91.9999 51.79 92.3299 51.85 92.5799C52.4 94.6599 52.71 97.4499 52.97 99.6199C53.95 107.77 54.31 116.02 55.1 124.19L54.9 124.56C51.06 126.56 47.65 129.22 44.05 131.59C43.83 131.45 43.9101 131.4 43.9201 131.23C44.0401 128.1 44.49 124.94 44.71 121.81C45.15 115.63 45.5 109.41 45.68 103.21C45.72 101.89 45.44 98.9299 45.85 97.8599C46.11 97.1999 49.11 94.9299 49.87 94.0899C50.15 93.7899 51.26 92.1499 51.38 92.1199V92.1099Z" fill="#80C2A6"/>
<path d="M18.43 158.94C18.71 158.29 18.97 157.61 19.28 156.97C20.32 154.91 21.55 154.26 22.98 152.63C28.47 146.37 31.26 137.26 33.4 129.33L37.14 124.55H37.38C36.8 127.65 35.94 130.69 35.01 133.7C34.41 135.63 32.96 138.85 32.73 140.66C32.47 142.72 33.74 140.91 34.16 140.17C37.16 134.92 38.28 127.19 39.68 121.33L43.43 115.36C43.59 115.36 43.27 117.5 43.25 117.7C43.02 120.66 42.85 123.63 42.65 126.58C42.51 128.59 42.06 130.92 42.29 132.94C42.5 134.81 44.29 134.89 44.79 135.84C45.26 136.73 43.99 137.78 43.37 138.35C41.34 140.19 38.69 141.92 36.45 143.55C34.71 144.81 30.69 147.11 29.67 148.77C28.62 150.49 27.97 152.16 26.69 153.83C26.17 154.5 22.04 158.93 21.59 158.93H18.41L18.43 158.94Z" fill="#80C2A6"/>
<path d="M17.9501 160.98H31.5101C31.5901 160.98 31.6701 160.98 31.7501 160.98C32.2401 161.18 33.1601 161.18 33.6701 160.98C43.1901 160.96 52.7101 160.99 62.2201 160.98C62.2001 161.5 62.2401 162.02 62.2201 162.54C62.2201 162.56 62.1001 162.68 62.1001 162.83C62.0701 163.77 62.1301 164.72 62.1001 165.66H14.8301V161.1C15.6901 161.07 16.5601 161.14 17.4201 161.1C17.5801 161.1 17.6901 160.98 17.7101 160.97C17.7901 160.97 17.8701 160.97 17.9501 160.97V160.98Z" fill="#A9A49E"/>
<path d="M67.36 88C67.33 88.05 66.64 88.26 66.39 88.77C66.07 89.42 66.42 89.85 66.27 90.33C66.21 90.52 65.97 90.61 65.88 90.78C65.13 92.22 66.84 93.68 66.63 94.52L63.1 100.48L58.14 98.52C58.03 98.42 57.93 97.45 57.9 97.2C57.73 95.64 57.6 93.72 57.54 92.16C57.49 90.84 57.4 90.01 58.04 88.82C59.27 86.55 61.05 84.18 62.43 81.93C63.41 80.34 64.3 78.68 65.26 77.09C65.46 76.89 65.76 76.73 66.05 76.79L74.87 79.85L75.16 80.05L72.47 84.55C71.22 84.47 69.86 83.75 69.11 85.27C69.02 85.45 69.08 85.72 68.99 85.87C68.89 86.03 68.13 86.06 67.7 86.74C67.37 87.25 67.44 87.87 67.35 88.01L67.36 88Z" fill="#C48439"/>
<path d="M16.9901 167.7C17.8601 167.91 18.9001 167.83 19.8101 167.82C20.0101 167.82 20.3401 167.9 20.4701 167.7C31.5001 167.68 42.5501 167.69 53.5801 167.7L65.2201 167.82V170.87C65.2201 170.87 64.8201 171.03 64.7401 171.06C64.6601 171.09 64.5201 171.26 64.3301 171.19H11.3501V167.7C12.7301 167.7 14.1101 167.7 15.4901 167.7C15.9901 167.7 16.4901 167.7 16.9801 167.7H16.9901Z" fill="#A9A49E"/>
<path d="M40.63 69.54C35.23 75.06 28.53 79.04 22.52 83.82C22.82 81.47 24.07 79.24 24.89 77.01C25.49 75.37 26.73 72.39 26.93 70.77C27.05 69.77 26.39 68.97 25.74 69.94L21.68 80.22C21.38 80.43 20.2 78.59 20.06 78.31C19.36 76.94 19.15 76.16 19.91 74.79C21.41 72.09 23.27 70.18 24.42 67.06C25.11 65.18 25.67 62.78 25.41 60.79C25.62 60.74 25.65 60.88 25.77 60.97C26.21 61.31 27.05 62.33 27.27 62.83C27.57 63.51 27.89 66.44 28.17 66.61C29.33 67.3 29.35 65 29.25 64.39C29.49 64.41 29.78 64.34 30.01 64.39C30.09 64.41 30.09 64.59 30.19 64.62C30.64 64.77 31.89 65.07 32.2 65.34C32.38 65.5 32.61 66.23 32.8 66.54C33.69 67.93 36.17 69.55 37.83 69.55H40.65L40.63 69.54Z" fill="#80C2A6"/>
<path d="M57.3 86.34C57.12 84.25 57.06 82.13 56.82 80.04C56.71 79.09 56.45 76.4 56.01 75.69C55.64 75.11 55 75.11 54.9 75.83C55.95 89.21 56.81 102.57 58.03 115.92C58.36 119.6 59.06 123.55 59.23 127.2C59.25 127.65 59.29 128.55 59.16 128.94C59.06 129.22 56.82 131.51 56.65 131.47C56.48 131.43 56.37 130.87 56.35 130.69C56.24 129.7 56.1 127.29 56.22 126.36C56.28 125.89 56.7 125.8 56.8 125.26C57.22 122.91 56.18 119.1 56.33 116.4C56.33 116.34 56.12 116.4 56.09 116.18C55.5 111.28 55.29 106.15 54.78 101.17C54.46 98.05 54.04 95.71 54.07 92.53C54.13 84.69 53.22 76.89 52.26 69.12C52.24 68.12 52.98 68.85 53.41 69.19C56.92 71.93 58.22 77.7 60.29 81.52C60.4 82.04 59.7 82.97 59.4 83.46C58.96 84.19 58.22 85.49 57.72 86.1C57.61 86.24 57.52 86.39 57.31 86.35L57.3 86.34Z" fill="#80C2A6"/>
<path d="M49.1401 130.38C49.2401 130.33 49.82 130.11 49.86 130.14C49.83 130.82 49.82 131.57 49.86 132.25C49.86 132.41 49.9801 132.52 49.9901 132.54C49.9901 132.58 49.9901 132.62 49.9901 132.66C50.0501 133.91 50.07 135.19 50.11 136.45C50.11 136.68 49.9901 136.93 50.3501 136.86C50.3501 136.94 50.3501 137.02 50.3501 137.1C50.1501 137.75 50.2101 138.63 50.2301 139.33C50.2301 139.56 50.1101 139.81 50.4701 139.74C50.4701 139.82 50.4701 139.9 50.4701 139.98C50.2601 140.34 50.3301 140.95 50.3501 141.37C50.3501 141.6 50.2301 141.85 50.5901 141.78C50.6001 142.02 50.5801 142.26 50.5901 142.5C50.3801 142.95 50.4501 143.63 50.4701 144.13C50.4701 144.36 50.3501 144.61 50.7101 144.54C50.7101 144.62 50.7101 144.7 50.7101 144.78C50.3501 144.71 50.3301 145.09 50.7101 145.02C50.7101 145.14 50.7101 145.26 50.7101 145.38C50.5101 146.11 50.5601 147.07 50.5901 147.85C50.5901 148.08 50.47 148.33 50.83 148.26C50.83 148.3 50.83 148.34 50.83 148.38C50.49 148.33 50.49 148.55 50.83 148.5C50.83 148.62 50.83 148.74 50.83 148.86C50.63 149.55 50.6901 150.47 50.7101 151.21C50.7101 151.44 50.5901 151.69 50.9501 151.62C50.9501 151.7 50.9501 151.78 50.9501 151.86C50.7501 151.98 50.83 152.32 50.83 152.52C50.82 153.48 50.9201 154.43 50.9501 155.34C50.9501 155.38 50.9501 155.42 50.9501 155.46C50.9801 156.2 50.9301 156.95 50.9501 157.69C50.9501 157.92 50.8301 158.17 51.1901 158.1C51.1501 158.3 51.2401 158.66 51.1901 158.82C50.4701 158.66 45.5201 159.03 45.3101 158.82C45.2401 158.75 45.4501 158.01 45.1901 157.86C45.1901 157.82 45.1901 157.78 45.1901 157.74C45.3901 157.62 45.3101 157.28 45.3101 157.08C45.3301 155.4 45.53 153.75 45.61 152.11C45.61 151.92 45.4201 151.5 45.4401 151.1C45.4801 150.5 45.7901 150.17 45.7901 150.12C45.7901 149.95 45.58 149.84 45.55 149.64C45.46 149.1 45.7101 148.41 45.4301 147.9C45.4601 147.34 45.52 146.78 45.55 146.22L45.9801 144.96C45.6301 144.56 45.8801 144.22 45.9101 143.76L45.6701 143.94C45.7601 142.57 45.8101 141.27 45.9001 139.91C45.9901 138.55 46.2001 138.24 46.5601 137.09C47.0201 135.64 46.6201 133.86 46.6301 132.36C46.7101 131.97 48.15 130.98 48.55 130.74L48.61 130.86L48.6701 130.74C48.6701 130.74 48.7401 130.65 48.7901 130.62L49.0301 130.5C49.0301 130.5 49.1001 130.4 49.1501 130.38H49.1401Z" fill="#69AB8B"/>
<path d="M10.03 24.77C10.59 24.7 10.9 25.05 11.21 25.45C12.39 26.98 13.07 29.15 13.16 31.06C13.23 32.47 12.87 33.99 13.06 35.36C13.3 37.01 14.33 39.56 14.8 41.3C15.66 44.49 17.69 50.38 17.06 53.45C16.53 56.01 15.18 58.35 14.23 60.76C14.07 60.8 14.09 60.64 14.05 60.52C12.16 55.07 10.71 49.85 10.5 44.02C10.45 42.75 10.36 40.65 10.5 39.45C10.55 39 10.87 38.53 10.85 38.02C10.83 37.51 10.45 37.1 10.39 36.68C10.06 34.61 10.93 33.34 10.98 31.64C11 30.93 10.64 30.34 10.62 29.83C10.61 29.5 10.94 29.03 10.93 28.54C10.91 27.56 10.02 26.94 10.02 26.84V24.74L10.03 24.77Z" fill="#80C2A6"/>
<path d="M45.7701 49.03C46.4301 52.64 45.0001 59.93 40.8701 60.96C33.5801 62.77 32.4801 54.21 32.8501 49.04C35.2901 48.11 37.6201 46.73 39.1901 44.58C40.4201 47.13 43.3101 48.1 45.7701 49.04V49.03ZM38.4701 54.17C38.8301 52.61 39.4401 49.82 37.4201 49.16C36.3601 48.82 33.1301 49.1 33.8601 50.8C34.1101 51.39 34.8101 51.04 34.8801 51.09C35.0701 51.23 34.8901 51.93 35.4401 52.09C36.8501 52.5 36.0001 50.91 37.0301 50.92C37.6101 52.01 36.3201 54.58 37.0801 55.37C37.4701 55.77 40.4001 55.9 40.8101 55.49C41.0801 55.22 41.0401 54.51 40.7501 54.34C40.4601 54.17 38.9401 54.31 38.4701 54.16V54.17ZM41.7001 50.94C41.8101 51.05 41.4301 52.37 42.5901 52.25C43.3001 52.18 43.1601 51.49 43.3801 51.35C43.7501 51.1 45.1101 51.69 44.9401 50.41C44.8001 49.3 42.0001 49.1 41.1701 49.26C40.7101 49.35 40.5401 50.04 40.6801 50.46C40.8601 51.02 41.6301 50.86 41.7001 50.94ZM39.2101 58.17C39.5801 57.94 41.2001 58.48 41.4401 57.7C41.6801 56.92 41.2501 56.66 40.5601 56.58C39.8701 56.5 38.4501 56.39 37.7901 56.45C37.2301 56.5 36.7801 56.67 36.9201 57.33C37.0301 57.86 37.7001 58.04 38.1701 58.13C38.5101 58.19 39.1201 57.96 39.0601 58.38C39.2501 58.43 39.1301 58.21 39.2001 58.17H39.2101Z" fill="#80C2A6"/>
<path d="M52.3801 89.94L51.11 88.03C50.5 87.34 49.5101 85.88 48.4801 85.97C48.2001 86 47.9801 86.1 47.9401 86.41C47.7801 87.62 50.6401 88.71 50.1701 90.91C49.8101 92.59 46.3201 94.98 45.0701 96.18C45.2701 92.51 45.9201 88.86 46.1501 85.2C46.2001 84.46 46.2601 83.53 46.2801 82.81C46.3101 81.27 45.85 79.58 46.61 78.22L50.7701 70.86L52.3901 89.94H52.3801Z" fill="#80C2A6"/>
<path d="M54.54 128.7L54.42 128.76L54.54 128.82C54.54 128.9 54.54 128.98 54.54 129.06C54.36 129.36 54.37 130.07 54.41 130.45C54.43 130.67 54.54 130.83 54.54 130.86C54.54 130.93 54.64 131.1 54.66 131.34C54.45 131.86 54.52 132.63 54.54 133.21C54.54 133.44 54.42 133.69 54.78 133.62C54.95 136.13 55.09 138.66 55.26 141.18C55.06 141.53 55.11 142.16 55.14 142.56C55.18 143.28 55.45 144.42 55.4 145.08C55.4 145.15 55.02 145.58 55.03 145.73H55.51C55.43 146.76 55.51 147.85 55.75 148.85C55.75 148.93 55.75 149.01 55.75 149.09C55.75 149.15 55.43 149.42 55.87 149.57C55.87 149.65 55.87 149.73 55.87 149.81C55.68 149.96 55.73 150.37 55.74 150.6C55.78 151.17 55.92 151.81 55.99 152.34C56.25 154.49 56.41 156.66 56.59 158.82C56.05 158.74 53.22 158.97 53.04 158.71C52.92 158.53 53.1 158.08 52.75 157.98C52.74 157.82 52.75 157.66 52.75 157.5L52.87 157.32L52.75 157.26C52.75 157.18 52.75 157.1 52.75 157.02C52.76 156.61 52.89 156.07 52.87 155.51C52.87 155.28 52.99 155.03 52.63 155.1C52.63 154.94 52.63 154.78 52.63 154.62C52.97 154.69 52.89 154.42 52.87 154.2C52.82 153.31 52.78 152.45 52.75 151.55C52.75 151.32 52.87 151.07 52.51 151.14C52.51 150.94 52.51 150.74 52.51 150.54C52.71 149.85 52.65 148.93 52.63 148.19C52.63 147.96 52.75 147.71 52.39 147.78C52.39 147.62 52.39 147.46 52.39 147.3C52.82 146.99 52.51 146.56 52.5 146.16C52.46 144.35 52.37 142.58 52.27 140.81C52.27 140.73 52.27 140.65 52.27 140.57C52.19 139.28 52.22 137.99 52.03 136.73C52.02 136.65 51.93 136.52 51.91 136.37C52.11 136.25 52.03 135.91 52.03 135.71C52.04 134.62 51.94 133.55 51.91 132.46C51.91 132.23 52.03 131.98 51.67 132.05C51.67 131.93 51.67 131.81 51.67 131.69C51.68 131.27 51.81 130.75 51.79 130.18C51.79 129.95 51.91 129.7 51.55 129.77C51.55 129.52 51.51 129.22 51.55 128.99C51.67 128.4 53.81 127.39 54.37 127.01C54.6 127.55 54.53 128.12 54.55 128.69L54.54 128.7ZM54.84 145.62V145.74C54.92 145.7 54.92 145.66 54.84 145.62Z" fill="#69AB8B"/>
<path d="M35.71 158.7C36.73 154 37.54 149.25 38.38 144.51L38.65 144.18L44.17 139.98C44.41 139.95 44.33 139.98 44.35 140.16C44.39 140.48 44.36 140.97 44.35 141.3C43.87 141.24 44.19 141.96 43.75 141.9C43.71 142.13 44.05 141.96 44.11 142.02C44.16 142.06 43.98 142.62 43.98 142.8C43.98 143.09 44.11 143.2 44.11 143.22C44.11 143.54 44.11 143.86 44.11 144.18C43.75 144.11 43.88 144.36 43.87 144.59C43.85 145.08 43.78 145.52 43.75 145.98C43.75 146.02 43.75 146.06 43.75 146.1C43.68 147.25 43.67 148.43 43.63 149.58C43.63 149.7 43.63 149.82 43.63 149.94V150.06C43.63 150.06 43.63 150.14 43.63 150.18L43.51 150.24L43.63 150.3C43.63 150.38 43.63 150.46 43.63 150.54C43.43 151.03 43.43 151.95 43.63 152.46C43.63 152.62 43.63 152.78 43.63 152.94C43.27 152.87 43.4 153.12 43.39 153.35C43.36 154 43.31 154.85 43.51 155.46C43.51 155.54 43.51 155.62 43.51 155.7L43.39 155.88L43.51 155.94C43.51 156.02 43.51 156.1 43.51 156.18L43.39 156.24L43.51 156.3C43.51 156.46 43.51 156.62 43.51 156.78C43.15 156.71 43.28 156.96 43.27 157.19C43.25 157.73 43.29 158.28 43.27 158.82C42.39 158.77 41.43 158.89 40.56 158.82C40.32 158.8 40.27 158.8 40.15 158.57C40.17 158.19 40.32 157.84 40.39 157.49C40.57 156.56 40.67 155.64 40.75 154.73C40.75 154.65 40.75 154.57 40.75 154.49C40.95 154.34 40.95 153.8 40.75 153.65C40.78 153.29 40.88 152.94 40.87 152.57C41.26 152.64 41.08 152.37 41.1 152.15C41.26 150.91 41.33 149.94 41.35 148.73C41.35 148.65 41.35 148.57 41.35 148.49C41.73 148.62 41.61 147.81 41.59 147.47C41.58 147.28 41.47 147.3 41.47 147.29C41.42 146.77 41.57 145.21 40.59 145.84C40.22 146.07 39.9 148.39 39.81 148.93C39.55 150.53 39.39 152.16 39.19 153.77C38.81 153.7 38.98 153.96 38.95 154.19C38.84 155.26 38.68 156.3 38.59 157.37C38.59 157.41 38.59 157.45 38.59 157.49C38.39 157.91 38.24 158.35 38.35 158.81C37.49 158.75 36.54 158.95 35.71 158.69V158.7Z" fill="#69AB8B"/>
<path d="M31.03 131.94C29.19 138.49 26.65 145.36 22.44 150.77C22.02 151.31 20.92 152.74 20.42 153.07C20.27 153.17 20.18 153.22 19.99 153.18C19.72 152.9 20.58 146.48 20.72 145.57C20.85 144.76 21.07 142.9 21.37 142.26C21.6 141.76 23.7 139.6 24.24 139.01C26.07 137.01 28.06 135.14 29.82 133.07L31.02 131.93L31.03 131.94Z" fill="#80C2A6"/>
<path d="M19.15 52.25C19.38 52.07 20.48 53.63 20.62 53.84C23.41 58.28 18.97 65.52 15.37 68.32C14.6 68.92 13.43 69.8 12.4 69.5C11.88 69.35 11.11 67.71 11.25 67.21C11.28 67.09 12.12 66.45 12.32 66.23C15.78 62.43 17.8 57.14 19.16 52.25H19.15Z" fill="#80C2A6"/>
<path d="M38.35 40.73C38.35 40.73 37.39 40.85 37.34 40.84C36.82 40.71 37.4 37.42 35.5 38.3C34.43 38.8 36.09 40.89 35.39 41.31C33.87 42.24 34.32 40.39 33.67 39.71C32.99 38.99 32.09 39.82 32.11 40.43C32.11 40.67 32.94 41.95 32.82 42.33C32.81 42.38 32.1 42.88 32.05 42.88C31.74 42.88 31.06 41.15 30.12 42.04C29.34 42.78 30.36 43.41 30.76 44.03L29.29 46.49C28.55 45.64 28.79 43.83 29.07 42.8C31.27 34.85 45.82 34.35 49.13 41.65C49.84 43.2 50.02 45.26 49.38 46.86C49.18 46.83 49.17 46.62 49.11 46.47C48.84 45.82 48.67 45.26 48.33 44.61C48.22 44.4 47.92 44.17 47.88 43.98C47.82 43.74 48.58 43.04 48.65 42.81C48.79 42.33 48.05 41.53 47.66 41.57C47.21 41.61 46.95 42.68 46.56 42.75C46.43 42.77 45.73 42.46 45.7 42.39C45.36 41.8 47.22 40.24 45.8 39.59C44.5 39 44.54 41.64 43.73 41.55C42.35 41.4 43.17 40.46 43.27 39.7C43.37 38.94 43.24 38.01 42.28 38.12C41.32 38.23 41.64 40.4 41.25 40.67C41.07 40.8 40.16 40.76 40.16 40.54V38.26C40.16 37.54 38.36 37.58 38.36 38.14C38.36 38.5 38.45 40.63 38.36 40.72L38.35 40.73Z" fill="#80C2A6"/>
<path d="M11.71 3.28994C11.56 5.64994 13.3 7.18994 12.76 9.55994C12.56 10.4599 11.89 11.7099 11.33 12.4499C10.33 13.7699 10.58 13.2799 9.14005 13.2499C8.52005 13.2399 5.06004 13.4299 4.88004 13.3099C4.75004 13.2299 3.90003 12.1099 3.78003 11.8899C2.54003 9.70995 3.40002 7.09995 5.24002 5.56995C5.10002 8.12995 7.20003 10.4799 9.56003 8.38995C11.02 7.10995 9.98002 5.80995 10.46 4.60995C10.53 4.42995 11.54 3.07994 11.72 3.28994H11.71Z" fill="#C48439"/>
<path d="M43.39 61.85C43.69 62.75 43.58 63.75 43.78 64.64C44.01 65.64 44.73 66 43.57 66.89C41.07 68.81 36.27 68.27 34.42 65.61L34.76 61.38C35.36 61.6 35.77 62.07 36.36 62.36C37.88 63.11 39.54 63.28 41.17 62.81C41.97 62.58 42.63 62.08 43.4 61.86L43.39 61.85Z" fill="#80C2A6"/>
<path d="M23.23 59.21C24.37 63.35 22.86 66.98 20.71 70.43C20.46 70.84 18.65 73.54 18.46 73.59C17.8 73.78 14.98 71.44 15.08 70.92C15.12 70.74 15.94 70.25 16.15 70.07C19.58 66.91 21.62 63.87 22.98 59.38C23.03 59.21 22.9 59.17 23.22 59.2L23.23 59.21Z" fill="#80C2A6"/>
<path d="M36.31 145.86C36.34 146.12 36.2 146.53 36.43 146.7C36.32 147.49 36.12 148.23 35.95 148.98C35.81 149.59 35.65 150.16 35.55 150.8C35.52 150.98 35.36 151.26 35.59 151.38C35.18 153.53 34.79 156.62 34.03 158.58C33.92 158.81 33.86 158.81 33.62 158.83C32.64 158.91 31.54 158.75 30.55 158.83C30.38 158.67 31.11 157.66 30.79 157.39C31.73 154.28 32.61 151.16 33.34 148C33.56 147.59 35.32 146.45 35.83 146.11L35.89 146.23L35.95 146.11C36.06 146.04 36.2 145.94 36.31 145.87V145.86Z" fill="#69AB8B"/>
<path d="M12.91 18.41C12.91 18.63 13.04 19.04 12.73 19.01C12.37 18.97 11.96 18.69 11.59 18.59C8.43995 17.73 5.24997 17.89 2.22997 19.13C2.28997 18.45 1.82996 16.86 2.27996 16.36C2.68996 15.91 5.10997 15.4 5.78997 15.31C7.89997 15.02 10.3 15.05 12.15 16.01C12.36 16.12 12.61 16.07 12.79 16.25C12.86 16.94 12.64 17.77 12.91 18.41Z" fill="#80C2A6"/>
<path d="M67.38 92.22C67.75 92.42 69.26 93.93 69.66 93.54C70.2 93 67.96 90.84 67.79 90.3C67.74 90.16 67.73 90.08 67.79 89.94C68.4 88.75 70.28 91.61 70.69 91.85C71.38 92.26 71.54 91.75 71.43 91.11C71.17 89.75 69.01 88.67 68.95 88.06C68.92 87.7 69.6 87.74 69.84 87.77C70.94 87.91 72.26 90.19 72.81 90.15C74.05 90.05 72.71 88.1 72.23 87.65C71.93 87.37 70.07 86.25 70.72 85.78C71.3 85.37 73.66 87.2 73.9 87.77C74.2 88.47 73.34 90.37 72.98 91.05C72.44 92.07 70.04 95.25 68.68 94.43C68.49 94.32 67.34 92.58 67.36 92.21L67.38 92.22Z" fill="#69AB8B"/>
<path d="M47.7001 47.9301C45.9001 47.5401 44.13 46.6901 42.62 45.6301C41.77 45.0301 40.33 44.0701 40.55 42.8801C40.89 42.4001 44.2 43.4301 44.78 43.7101C46.3 44.4401 47.6201 46.2301 47.7001 47.9301Z" fill="#80C2A6"/>
<path d="M63.06 107.94C58.88 108.32 58.66 103.93 58.38 100.86C58.55 100.69 60.87 101.69 61.2 101.94C61.34 102.98 61.4 104.03 61.71 105.03C62.02 106.03 62.66 106.94 63.06 107.94Z" fill="#69AB8B"/>
<path d="M30.91 151.02C30.68 151.75 30.6 152.22 30.43 152.94C30.43 152.98 30.43 153.02 30.43 153.06C30.17 153.13 30.07 153.52 30.31 153.66C29.89 155.4 29.07 157.16 28.52 158.87C28.42 159.02 27.87 158.93 27.67 158.94C26.85 158.74 25.73 158.74 24.91 158.94C24.87 158.94 24.83 158.94 24.79 158.94C24.32 158.75 24.68 158.52 24.91 158.22C25.44 157.52 26.16 157.03 26.71 156.42C26.77 156.35 26.86 156.28 26.95 156.18C27.97 155.03 29.18 153.18 29.97 151.82C30.39 151.09 30.64 150.12 31.27 149.58C31.36 150.12 31.05 150.57 30.91 151.02Z" fill="#69AB8B"/>
<path d="M37.99 42.65C38 44.34 36.26 45.51 34.95 46.27C34.44 46.57 31.22 48.11 30.91 47.81C31.35 44.22 34.78 42.89 37.99 42.65Z" fill="#80C2A6"/>
<path d="M5.96005 20.09C7.05005 19.96 10.6401 19.87 11.4801 20.51C11.6301 20.62 11.63 20.64 11.55 20.81C11.26 21.36 10.0101 22.0999 10.0401 22.9599C9.82007 23.0699 9.66007 22.87 9.57007 22.84C9.17007 22.73 8.62006 22.56 8.25006 22.84C8.17006 22.84 8.09007 22.84 8.01007 22.84C7.75007 22.66 6.67006 22.5599 6.81006 22.9599C6.36006 23.0099 5.91006 23.01 5.50006 23.2C5.27006 22.11 4.42007 21.4899 3.70007 20.7399C3.76007 20.6499 3.85006 20.61 3.94006 20.56C4.25006 20.72 4.85007 20.51 5.20007 20.44C5.40007 20.4 5.62005 20.42 5.74005 20.2C5.78005 20.2 5.82005 20.2 5.86005 20.2L5.98007 20.0799L5.96005 20.09Z" fill="#69AB8B"/>
<path d="M67.6201 100.62C67.5501 101.8 66.2601 105.74 65.2701 106.37C63.8301 107.28 62.9001 103.9 63.0601 102.9C63.6801 103.34 64.5401 103.44 65.1001 102.84C65.7301 102.17 66.7101 99.9501 67.2801 99.0101C67.3401 98.9001 67.4801 98.8501 67.5001 98.8101C67.7901 99.1801 67.5001 99.7401 67.4901 100.2C67.4901 100.42 67.6301 100.59 67.6201 100.61V100.62Z" fill="#69AB8B"/>
<path d="M47.47 61.2501C47.17 59.6301 47 58.1501 47 56.5101C47 56.2601 46.88 56.0401 46.88 55.8101C46.88 55.7001 47.3 53.7001 47.41 53.7001C47.93 53.7101 48.02 55.0501 48.12 55.3901C48.43 56.3901 49.26 58.5001 48.97 59.4701C48.92 59.6301 48.74 59.8201 48.64 59.9801C48.54 60.1401 47.63 61.4401 47.46 61.2601L47.47 61.2501Z" fill="#80C2A6"/>
<path d="M56.82 139.38C56.84 138.05 56.68 136.12 56.82 134.88C56.85 134.58 57.22 133.66 57.3 134.28C57.3 135.33 57.39 136.36 57.42 137.41C57.42 137.64 57.3 137.89 57.66 137.82C57.78 139.9 57.99 141.98 58.14 144.06C57.74 144.01 57.94 144.2 57.96 144.42C58.03 145.3 58.12 146.18 58.14 147.06H57.54L57.3 146.82C57.3 146.74 57.3 146.66 57.3 146.58C57.33 144.48 57.13 142.42 57.06 140.27C57.06 140.04 57.18 139.79 56.82 139.86C56.82 139.7 56.82 139.54 56.82 139.38Z" fill="#69AB8B"/>
<path d="M31.15 60.8901C30.87 60.9701 30.94 60.8101 30.88 60.7401C30.52 60.3701 29.63 59.5101 29.6 59.0301C29.57 58.5101 30.2 56.5001 30.4 55.8801C30.48 55.6301 31.1 53.8101 31.21 53.8101C32.25 56.1601 31.4 58.4901 31.15 60.8901Z" fill="#80C2A6"/>
<path d="M57.54 150.54C57.92 150.6 57.76 150.39 57.75 150.16C57.67 149.17 57.52 148.18 57.55 147.18C57.75 147.12 57.6 147.42 57.74 147.43C57.88 147.43 58.18 147.23 58.39 147.3C58.39 147.62 58.37 147.94 58.39 148.26C58.39 148.28 58.16 148.46 58.26 148.67L59.11 158.82H58.27L57.91 152.16L58.09 152.34L58.39 152.1L57.67 151.98C57.64 151.5 57.58 151.02 57.55 150.54H57.54Z" fill="#69AB8B"/>
<path d="M40.39 34.73H38.11L39.25 28.01L40.39 34.73Z" fill="#C48439"/>
<path d="M17.71 160.98C17.71 160.98 17.58 161.1 17.42 161.11C16.56 161.14 15.69 161.08 14.83 161.11V165.67H62.1C62.13 164.73 62.07 163.78 62.1 162.84C62.1 162.68 62.22 162.57 62.22 162.55V165.79H14.71V160.99H17.71V160.98Z" fill="#A9A49E"/>
<path d="M33.19 36.05L31.63 36.77L28.87 31.01L33.19 36.05Z" fill="#C48439"/>
<path d="M45.3101 35.93L49.6301 31.13L46.8801 36.6C46.6201 36.77 45.7101 35.8 45.3201 35.93H45.3101Z" fill="#C48439"/>
<path d="M8.48007 33.17C8.56007 33.21 8.81007 33.08 8.85007 33.24V36.17C8.47007 36.1 7.40006 36.29 7.16006 36.12C6.94006 35.97 7.08005 34.8 7.05005 34.43C7.02005 34.06 6.90006 33.51 6.81006 33.17C7.29006 32.83 7.94005 33.3 8.49005 33.17H8.48007Z" fill="#69AB8B"/>
<path d="M55.5 37.37L50.71 40.97L50.11 39.53L55.5 37.37Z" fill="#C48439"/>
<path d="M47.23 64.97C46.11 65.38 45.71 64.87 45.4 63.86C44.97 62.49 45.2 60.93 45.55 59.57C45.71 59.54 45.74 59.79 45.76 59.9C46.09 61.66 46.04 63.48 47.23 64.97Z" fill="#80C2A6"/>
<path d="M28.51 39.54C28.59 39.65 27.85 40.88 27.63 40.85L23.11 37.26L28.51 39.54Z" fill="#C48439"/>
<path d="M6.98007 38.09H9.02005C9.63005 38.09 8.59006 39.87 8.31006 40.14C6.89006 41.44 6.27005 38.09 6.99005 38.09H6.98007Z" fill="#69AB8B"/>
<path d="M8.4701 26.09C8.12011 26.09 7.8201 25.98 7.4601 25.97C6.9201 25.95 4.74011 26.4 5.01011 25.45C5.17011 24.9 7.65011 24.38 8.16011 24.55C8.46011 24.65 8.36011 25.74 8.48011 26.09H8.4701Z" fill="#80C2A6"/>
<path d="M9.20002 28.85C8.46002 28.62 5.62 28.93 5.24 28.55C4.55 27.87 6.33 27.56 6.74 27.53C7.63 27.46 9.34002 27.67 9.20002 28.85Z" fill="#80C2A6"/>
<path d="M5.23999 31.25C5.30999 29.46 8.81 29.84 9.06 31.1C9.08 31.2 8.97999 31.6 8.95999 31.61C8.89999 31.65 7.76999 31.25 7.57999 31.25H5.23999Z" fill="#80C2A6"/>
<path d="M58.38 148.26L59.34 158.94H58.14C58 156.62 57.82 154.3 57.66 151.98L58.38 152.1L58.08 152.34L57.9 152.16L58.26 158.82H59.1L58.25 148.67C58.15 148.46 58.38 148.28 58.38 148.26Z" fill="#69AB8B"/>
<path d="M56.1 44.57L54.32 45.01L51.54 45.41C51.69 45.2 51.62 44.37 51.66 44.33C51.81 44.17 55.54 44.66 56.1 44.57Z" fill="#C48439"/>
<path d="M27.0701 44.33V45.41L23.5901 44.69L27.0701 44.33Z" fill="#C48439"/>
<path d="M53.5801 167.7C57.5001 167.7 61.4201 167.7 65.3401 167.7V171.18L64.7401 171.06C64.8201 171.04 65.2201 170.9 65.2301 170.87V167.82L53.5801 167.7Z" fill="#A9A49E"/>
<path d="M45.43 147.9C45.71 148.4 45.46 149.1 45.55 149.64C45.58 149.84 45.79 149.95 45.79 150.12C45.79 150.18 45.48 150.5 45.44 151.1C45.42 151.5 45.62 151.92 45.61 152.11C45.53 153.75 45.33 155.4 45.31 157.08C45.31 157.28 45.39 157.61 45.19 157.74C45.14 154.45 45.26 151.18 45.43 147.9Z" fill="#69AB8B"/>
<path d="M58.1401 144.06C58.2201 145.11 58.3601 146.26 58.3801 147.3C58.1701 147.23 57.8701 147.44 57.7301 147.43C57.6001 147.43 57.7501 147.13 57.5401 147.18C57.5201 148.18 57.6601 149.17 57.7401 150.16C57.7601 150.39 57.9101 150.6 57.5301 150.54C57.4501 149.32 57.2701 148.04 57.2901 146.82L57.5301 147.06H58.1301C58.1101 146.18 58.0201 145.3 57.9501 144.42C57.9301 144.2 57.7301 144.01 58.1301 144.06H58.1401Z" fill="#69AB8B"/>
<path d="M31.5101 160.98H17.9501C22.4301 160.85 27.0101 160.98 31.5101 160.98Z" fill="#A9A49E"/>
<path d="M56.82 139.86C57.18 139.79 57.05 140.04 57.06 140.27C57.13 142.42 57.33 144.47 57.3 146.58C57.17 145.98 57.1 145.21 57.06 144.6C56.96 143.1 56.79 141.33 56.82 139.86Z" fill="#69AB8B"/>
<path d="M55.74 148.86C55.5 147.85 55.42 146.77 55.5 145.74H55.02C55.02 145.58 55.39 145.15 55.39 145.08C55.44 144.42 55.17 143.28 55.13 142.56C55.11 142.16 55.05 141.53 55.25 141.18C55.42 143.7 55.78 146.35 55.73 148.86H55.74Z" fill="#69AB8B"/>
<path d="M31.39 49.6099C31.53 49.7499 31.02 51.21 30.88 51.44C30.37 52.24 30.34 50.32 30.45 49.93C30.55 49.58 31.28 49.4999 31.39 49.6099Z" fill="#80C2A6"/>
<path d="M48.17 49.74C48.26 49.82 48.3199 51.01 48.2999 51.23C48.2899 51.36 48.19 52 47.94 51.77C47.85 51.68 47.26 49.69 47.34 49.61C47.5 49.69 48.14 49.71 48.17 49.74Z" fill="#80C2A6"/>
<path d="M52.38 147.3C52.36 146.72 52.26 145.93 52.26 145.44V142.32C52.26 141.97 51.91 141.24 52.26 140.82C52.36 142.59 52.46 144.35 52.49 146.17C52.49 146.57 52.8 147 52.38 147.31V147.3Z" fill="#69AB8B"/>
<path d="M56.8201 139.38L56.5801 136.67C56.7201 135.69 56.1801 134.27 57.4201 133.86C57.6501 134.99 57.4801 136.14 57.5401 137.28C57.5501 137.47 57.6501 137.66 57.6601 137.82C57.3001 137.89 57.4301 137.64 57.4201 137.41C57.3901 136.36 57.2901 135.33 57.3001 134.28C57.2201 133.66 56.8501 134.58 56.8201 134.88C56.6801 136.12 56.8401 138.05 56.8201 139.38Z" fill="#69AB8B"/>
<path d="M32.9501 62.63C32.9401 62.77 32.7701 63.56 32.7101 63.6L32.1001 63.46L32.9501 60.89C32.9101 61.45 33.0001 62.07 32.9501 62.63Z" fill="#80C2A6"/>
<path d="M51.6601 132.06C52.0201 131.99 51.8901 132.24 51.9001 132.47C51.9301 133.56 52.0401 134.63 52.0201 135.72C52.0201 135.92 52.1001 136.25 51.9001 136.38C51.7201 135.08 51.6501 133.38 51.6601 132.06Z" fill="#69AB8B"/>
<path d="M44.11 144.18C44.08 145.48 43.96 146.89 43.87 148.2C43.84 148.6 43.76 149.2 43.63 149.58C43.67 148.43 43.68 147.25 43.75 146.1L43.87 146.04L43.75 145.98C43.78 145.53 43.85 145.09 43.87 144.59C43.87 144.36 43.75 144.11 44.11 144.18Z" fill="#69AB8B"/>
<path d="M43.51 156.78C43.49 157.51 43.51 158.22 43.39 158.94H40.15C40.15 158.82 40.15 158.7 40.15 158.58C40.26 158.81 40.32 158.81 40.56 158.83C41.43 158.89 42.39 158.77 43.27 158.83C43.28 158.29 43.25 157.74 43.27 157.2C43.27 156.97 43.15 156.72 43.51 156.79V156.78Z" fill="#69AB8B"/>
<path d="M45.1901 157.86C45.4501 158.01 45.2401 158.75 45.3101 158.82C45.5201 159.03 50.4701 158.66 51.1901 158.82C51.0901 159.1 45.8701 158.85 45.1901 158.94C45.1901 158.58 45.1901 158.22 45.1901 157.86Z" fill="#69AB8B"/>
<path d="M52.5 151.14C52.86 151.07 52.73 151.32 52.74 151.55C52.77 152.45 52.81 153.31 52.86 154.2C52.87 154.42 52.96 154.69 52.62 154.62C52.59 153.44 52.53 152.31 52.5 151.14Z" fill="#69AB8B"/>
<path d="M30.7901 157.38C31.1101 157.65 30.3801 158.66 30.5501 158.82C31.5401 158.75 32.6401 158.91 33.6201 158.82C33.8601 158.8 33.9101 158.8 34.0301 158.57C33.9901 158.66 34.1101 158.9 33.9601 158.94H30.3101C30.2101 158.83 30.7201 157.61 30.7901 157.37V157.38Z" fill="#69AB8B"/>
<path d="M50.34 136.86C49.98 136.93 50.11 136.68 50.1 136.45C50.06 135.2 50.04 133.91 49.98 132.66C50.1 133.07 50.2 133.73 50.22 134.16C50.27 135.06 50.3 135.96 50.34 136.86Z" fill="#69AB8B"/>
<path d="M41.35 148.74C41.34 149.95 41.26 150.92 41.1 152.16C41.07 152.38 41.25 152.65 40.87 152.58L41.35 148.74Z" fill="#69AB8B"/>
<path d="M39.1901 153.78C39.0601 154.79 38.9801 155.83 38.8301 156.84C38.8001 157.05 38.8101 157.26 38.5901 157.38C38.6801 156.31 38.8501 155.26 38.9501 154.2C38.9701 153.97 38.8101 153.71 39.1901 153.78Z" fill="#69AB8B"/>
<path d="M52.26 140.58C51.96 139.34 51.93 138.01 52.02 136.74C52.21 138 52.18 139.29 52.26 140.58Z" fill="#69AB8B"/>
<path d="M56.58 158.82C56.57 158.98 56.41 158.94 56.29 158.95C55.2 159.02 54.04 158.88 52.94 158.95C52.77 158.9 52.76 158.16 52.75 157.98C53.1 158.08 52.92 158.52 53.04 158.71C53.22 158.98 56.05 158.75 56.59 158.82H56.58Z" fill="#69AB8B"/>
<path d="M38.59 157.5C38.55 157.97 38.64 158.45 38.46 158.93H35.59C35.54 158.78 35.71 158.72 35.71 158.7C36.54 158.96 37.49 158.76 38.35 158.82C38.24 158.36 38.39 157.92 38.59 157.5Z" fill="#69AB8B"/>
<path d="M50.94 155.34C50.91 154.43 50.81 153.48 50.82 152.52C50.82 152.32 50.74 151.99 50.94 151.86C50.96 152.48 50.91 153.11 50.94 153.73C50.96 154.27 51.22 154.78 50.94 155.35V155.34Z" fill="#69AB8B"/>
<path d="M45.6701 143.94L45.9101 143.76C45.8801 144.22 45.6301 144.56 45.9801 144.96L45.55 146.22C45.59 145.46 45.6201 144.7 45.6701 143.94Z" fill="#69AB8B"/>
<path d="M44.3501 141.3C44.3301 141.9 44.2501 142.67 44.1101 143.22C44.1101 143.2 43.9801 143.09 43.9801 142.8C43.9801 142.62 44.1601 142.06 44.1101 142.02C44.0501 141.97 43.7101 142.14 43.7501 141.9C44.1901 141.96 43.8701 141.23 44.3501 141.3Z" fill="#69AB8B"/>
<path d="M50.82 148.26C50.46 148.33 50.59 148.08 50.58 147.85C50.55 147.08 50.5 146.12 50.7 145.38C50.74 146.34 50.78 147.3 50.82 148.26Z" fill="#69AB8B"/>
<path d="M52.62 155.1C52.98 155.03 52.85 155.28 52.86 155.51C52.88 156.07 52.75 156.6 52.74 157.02C52.51 156.47 52.64 155.72 52.62 155.1Z" fill="#69AB8B"/>
<path d="M50.94 151.62C50.58 151.69 50.7101 151.44 50.7001 151.21C50.6801 150.48 50.62 149.56 50.82 148.86C50.85 149.78 50.91 150.7 50.94 151.62Z" fill="#69AB8B"/>
<path d="M50.4601 139.74C50.1001 139.81 50.2301 139.56 50.2201 139.33C50.2001 138.64 50.1401 137.75 50.3401 137.1C50.3801 137.98 50.4201 138.86 50.4601 139.74Z" fill="#69AB8B"/>
<path d="M40.39 157.5C40.39 156.6 40.43 155.58 40.75 154.74C40.67 155.65 40.57 156.57 40.39 157.5Z" fill="#69AB8B"/>
<path d="M67.62 100.62C67.62 100.62 67.48 100.43 67.49 100.21C67.51 99.75 67.79 99.19 67.5 98.82C67.59 98.67 67.56 98.28 67.86 98.22L67.62 100.62Z" fill="#80C2A6"/>
<path d="M20.47 167.7C20.35 167.9 20.01 167.82 19.81 167.82C18.9 167.82 17.86 167.91 16.99 167.7C18.15 167.7 19.31 167.7 20.47 167.7Z" fill="#A9A49E"/>
<path d="M51.5401 129.78C51.9001 129.71 51.7701 129.96 51.7801 130.19C51.8001 130.75 51.6701 131.28 51.6601 131.7C51.5401 131.12 51.5201 130.38 51.5401 129.78Z" fill="#69AB8B"/>
<path d="M35.59 151.38C35.36 151.27 35.52 150.98 35.55 150.8C35.65 150.16 35.81 149.59 35.95 148.98C35.98 149.8 35.74 150.59 35.59 151.38Z" fill="#69AB8B"/>
<path d="M55.98 152.34C55.92 151.81 55.78 151.18 55.73 150.6C55.71 150.38 55.6599 149.97 55.8599 149.81C55.9299 150.63 56.09 151.51 55.98 152.33V152.34Z" fill="#69AB8B"/>
<path d="M51.1801 158.1C50.8201 158.17 50.9501 157.92 50.9401 157.69C50.9201 156.95 50.9701 156.2 50.9401 155.46L51.1801 158.1Z" fill="#69AB8B"/>
<path d="M43.6301 152.94C43.6101 153.77 43.5401 154.62 43.5101 155.46C43.3101 154.86 43.3601 154 43.3901 153.35C43.3901 153.12 43.2701 152.87 43.6301 152.94Z" fill="#69AB8B"/>
<path d="M49.14 130.38L49.98 129.9V132.54C49.98 132.54 49.86 132.41 49.86 132.25C49.83 131.57 49.84 130.82 49.86 130.14C49.82 130.11 49.24 130.33 49.14 130.38Z" fill="#69AB8B"/>
<path d="M52.38 147.78C52.74 147.71 52.61 147.96 52.62 148.19C52.64 148.92 52.7 149.84 52.5 150.54C52.47 149.62 52.41 148.68 52.38 147.78Z" fill="#69AB8B"/>
<path d="M54.78 133.62C54.42 133.69 54.55 133.44 54.54 133.21C54.52 132.64 54.45 131.87 54.66 131.34C54.73 132.06 54.73 132.87 54.78 133.62Z" fill="#69AB8B"/>
<path d="M5.72003 20.21C5.60003 20.43 5.38002 20.4 5.18002 20.45C4.83002 20.52 4.23004 20.73 3.92004 20.57C4.45004 20.27 5.15003 20.3 5.72003 20.21Z" fill="#80C2A6"/>
<path d="M27.67 158.94C26.76 158.97 25.82 158.95 24.91 158.94C25.73 158.74 26.85 158.74 27.67 158.94Z" fill="#69AB8B"/>
<path d="M8.47999 33.1701C7.92999 33.3001 7.27996 32.8301 6.79996 33.1701C6.79996 33.1601 6.61997 33.11 6.67997 32.93C7.19997 32.94 7.72998 32.8901 8.24998 32.9801C8.35998 33.0001 8.42999 33.1401 8.47999 33.1701Z" fill="#80C2A6"/>
<path d="M50.7 144.54C50.34 144.61 50.4699 144.36 50.4599 144.13C50.4399 143.64 50.3699 142.95 50.5799 142.5C50.6099 143.18 50.67 143.87 50.7 144.54Z" fill="#69AB8B"/>
<path d="M12.91 18.41C12.64 17.77 12.86 16.94 12.79 16.25C13 16.46 12.93 17.99 12.91 18.41Z" fill="#A9A49E"/>
<path d="M50.5801 141.78C50.2201 141.85 50.3501 141.6 50.3401 141.37C50.3201 140.95 50.2501 140.35 50.4601 139.98C50.4901 140.58 50.5501 141.2 50.5801 141.78Z" fill="#69AB8B"/>
<path d="M41.4701 147.3C41.4701 147.3 41.5701 147.29 41.5901 147.48C41.6101 147.83 41.7301 148.63 41.3501 148.5C41.3501 148.07 41.3801 147.71 41.4701 147.3Z" fill="#69AB8B"/>
<path d="M43.63 152.46C43.43 151.95 43.43 151.03 43.63 150.54C43.61 151.18 43.65 151.82 43.63 152.46Z" fill="#80C2A6"/>
<path d="M33.67 160.98C33.16 161.18 32.24 161.18 31.75 160.98C32.39 160.98 33.03 160.98 33.67 160.98Z" fill="#A9A49E"/>
<path d="M54.5401 130.86C54.5401 130.86 54.4301 130.67 54.4101 130.45C54.3701 130.07 54.3601 129.36 54.5401 129.06C54.5401 129.66 54.5401 130.26 54.5401 130.86Z" fill="#69AB8B"/>
<path d="M36.4301 146.7C36.2001 146.53 36.3401 146.12 36.3101 145.86C36.3701 145.81 36.4101 145.61 36.5501 145.62C36.5901 145.99 36.4801 146.34 36.4301 146.7Z" fill="#69AB8B"/>
<path d="M8.00007 22.8501C7.54007 22.8701 7.23006 22.9201 6.80006 22.9701C6.66006 22.5701 7.74007 22.6701 8.00007 22.8501Z" fill="#80C2A6"/>
<path d="M30.4301 152.94C30.6001 152.22 30.6801 151.75 30.9101 151.02C30.8001 151.67 30.7501 152.35 30.4301 152.94Z" fill="#69AB8B"/>
<path d="M9.54996 22.85C9.10996 22.85 8.66998 22.85 8.22998 22.85C8.59998 22.57 9.14996 22.74 9.54996 22.85Z" fill="#80C2A6"/>
<path d="M24.9101 158.22C24.6801 158.52 24.3201 158.75 24.7901 158.94C24.6201 158.94 24.1001 159.04 24.0701 158.82L24.9101 158.22Z" fill="#69AB8B"/>
<path d="M55.8601 149.58C55.4201 149.43 55.7401 149.16 55.7401 149.1C55.9201 149.18 55.8601 149.42 55.8601 149.58Z" fill="#69AB8B"/>
<path d="M30.3101 153.66C30.0701 153.52 30.1701 153.13 30.4301 153.06C30.3801 153.26 30.3601 153.46 30.3101 153.66Z" fill="#69AB8B"/>
<path d="M40.7501 154.5C40.7701 154.22 40.7201 153.94 40.7501 153.66C40.9501 153.81 40.9501 154.35 40.7501 154.5Z" fill="#69AB8B"/>
<path d="M50.7 144.78C50.7 144.86 50.7 144.94 50.7 145.02C50.32 145.09 50.34 144.71 50.7 144.78Z" fill="#69AB8B"/>
<path d="M50.8201 148.38C50.8201 148.38 50.8201 148.46 50.8201 148.5C50.4801 148.55 50.4801 148.33 50.8201 148.38Z" fill="#80C2A6"/>
<path d="M49.02 130.5L48.78 130.62C48.88 130.56 48.94 130.54 49.02 130.5Z" fill="#80C2A6"/>
<path d="M43.51 155.94L43.39 155.88L43.51 155.7C43.51 155.78 43.51 155.86 43.51 155.94Z" fill="#80C2A6"/>
<path d="M52.74 157.5C52.74 157.42 52.74 157.34 52.74 157.26L52.86 157.32L52.74 157.5Z" fill="#80C2A6"/>
<path d="M35.8301 146.1C35.8301 146.1 35.9201 146.12 35.9501 146.1L35.8901 146.22L35.8301 146.1Z" fill="#80C2A6"/>
<path d="M12.2 61.02C13.53 62.31 12.32 63.64 11.42 64.74C11.5 63.46 11.83 62.23 12.2 61.02Z" fill="#69AB8B"/>
<path d="M43.63 150.3L43.51 150.24L43.63 150.18C43.63 150.18 43.63 150.26 43.63 150.3Z" fill="#80C2A6"/>
<path d="M26.71 156.42L26.95 156.18C26.86 156.28 26.77 156.35 26.71 156.42Z" fill="#80C2A6"/>
<path d="M43.51 156.3L43.39 156.24L43.51 156.18C43.51 156.18 43.51 156.26 43.51 156.3Z" fill="#80C2A6"/>
<path d="M48.55 130.74C48.55 130.74 48.6401 130.76 48.6701 130.74L48.61 130.86L48.55 130.74Z" fill="#80C2A6"/>
<path d="M5.84009 20.21C5.84009 20.21 5.87008 20.1 5.96008 20.09L5.84009 20.21Z" fill="#80C2A6"/>
<path d="M54.54 128.82L54.42 128.76L54.54 128.7C54.54 128.7 54.54 128.78 54.54 128.82Z" fill="#80C2A6"/>
<path d="M40.9701 92.9499C41.0301 92.9899 41.1001 93.3599 41.1101 93.4699C41.2101 94.6499 40.4601 97.3599 40.1401 98.6199C38.5701 104.93 36.3201 111.91 33.6901 117.85C32.6901 120.11 30.5301 124.78 28.8701 126.47C27.9001 127.46 27.4401 126.89 27.8501 125.69C28.5601 123.65 30.4301 120.93 31.4101 118.81C35.1501 110.75 37.5301 101.88 40.0601 93.3799C40.1401 93.0599 40.7001 92.7699 40.9701 92.9399V92.9499Z" fill="#121611"/>
<path d="M29.8301 91.7399L29.8601 90.9899C33.6701 85.3599 38.5601 80.51 42.4601 74.91C43.7401 73.07 45.1601 70.13 46.5801 68.59C47.4101 67.69 48.2501 67.45 47.7701 69.06C46.9301 71.87 43.8201 76.02 42.0001 78.41C39.2901 81.98 36.0901 85.86 33.0201 89.1C32.6801 89.45 30.2101 92.1199 29.8401 91.7399H29.8301Z" fill="#121611"/>
<path d="M38.47 54.17C38.94 54.32 40.46 54.18 40.75 54.35C41.04 54.52 41.09 55.23 40.81 55.5C40.4 55.91 37.47 55.78 37.08 55.38C36.32 54.6 37.6 52.03 37.03 50.93C35.99 50.93 36.84 52.52 35.44 52.1C34.89 51.94 35.07 51.24 34.88 51.1C34.81 51.05 34.11 51.39 33.86 50.81C33.14 49.1 36.36 48.82 37.42 49.17C39.44 49.82 38.84 52.61 38.47 54.18V54.17Z" fill="#121611"/>
<path d="M41.7 50.94C41.63 50.87 40.86 51.02 40.68 50.46C40.54 50.04 40.71 49.35 41.17 49.26C42.01 49.1 44.8 49.3 44.94 50.41C45.1 51.7 43.75 51.1 43.38 51.35C43.16 51.5 43.3 52.18 42.59 52.25C41.43 52.37 41.8 51.05 41.7 50.94Z" fill="#121611"/>
<path d="M39.2101 58.1701C39.1501 58.2101 39.2701 58.4301 39.0701 58.3801C39.1301 57.9601 38.5201 58.1901 38.1801 58.1301C37.7101 58.0501 37.0401 57.86 36.9301 57.33C36.7901 56.67 37.2401 56.5001 37.8001 56.4501C38.4601 56.3901 39.8801 56.5 40.5701 56.58C41.2601 56.66 41.6801 56.9401 41.4501 57.7001C41.2201 58.4601 39.5801 57.9401 39.2201 58.1701H39.2101Z" fill="#121611"/>
<path d="M54.8401 145.62C54.9201 145.66 54.9201 145.7 54.8401 145.74V145.62Z" fill="#80C2A6"/>
<path d="M43.75 146.1C43.75 146.1 43.75 146.02 43.75 145.98L43.87 146.04L43.75 146.1Z" fill="#121611"/>
</svg>
