<svg width="132" height="164" viewBox="0 0 132 164" fill="none" xmlns="http://www.w3.org/2000/svg">
<path d="M36.36 87.55C33.85 85.68 31.93 85.03 29.81 82.38C28.9 81.24 26.99 78.6 27.18 77.14C27.38 75.57 28.91 76.86 29.67 77.14C31.65 77.88 35.54 78.67 37.37 77.42C38.13 76.9 38.7 75.36 39.23 75.2C39.98 74.98 41.7599 75.58 42.6899 75.61C47.1699 75.79 56.82 72.53 60.16 69.49C60.47 69.21 61.33 68.44 61.4 68.11C61.57 67.24 61 65.98 62.09 65.45C62.36 65.32 62.97 65.3 63 65.27C63.12 65.15 62.86 62.85 63.12 62.25C63.6 61.13 65.39 61.34 65.85 62.36C66.14 63.02 65.9799 65.16 66.0799 65.26C66.1299 65.32 67.1899 65.26 67.4499 65.85C67.6499 66.31 67.5 67.54 67.71 68.21C68.16 69.7 72.6199 71.97 74.0799 72.61C78.2199 74.42 83 75.65 87.54 75.46C88.16 75.43 89.2999 75.08 89.8299 75.19C90.6899 75.36 91.09 76.87 91.84 77.41C93.51 78.61 97.87 77.85 99.73 77.17C100.5 76.89 102 75.57 102.12 77.15C102.2 78.27 101.35 79.6 100.77 80.54C99.43 82.73 97.23 84.99 94.99 86.26C94.1 86.76 93.4799 86.81 92.71 87.55C92.19 88.04 91.78 88.56 91.16 88.98C89.42 90.17 87.21 90.85 85.14 91.19V94.32C85.14 94.92 87.65 94.04 88.26 94.84C88.81 95.57 88.28 98.63 88.49 99.71C88.52 99.88 88.5599 99.97 88.6999 100.09C88.9799 100.33 91.36 101.19 91.91 101.39C99.21 104.11 107.76 106.39 115.27 103.35C116.11 103.01 118.09 101.45 118.3 103.25C118.48 104.81 115.49 109.38 114.39 110.63C111.34 114.12 103.31 118.64 98.8199 119.81C98.5699 119.88 97.57 119.99 97.52 120.04C97.47 120.09 97.42 121.08 97.25 121.44C96.69 122.65 95.03 123.51 93.73 123.52C93.85 124.19 93.39 125.13 93.6 125.76C93.75 126.19 94.68 125.78 94.61 126.94C94.54 128.06 93.74 127.75 93.5799 127.89C93.4999 127.96 93.73 128.23 93.73 128.25V138.51H107.41C107.51 138.51 107.12 137.16 108.17 136.73C108.8 136.47 109.54 136.67 109.86 137.29C110.29 138.13 109.94 142.63 110.02 143.98C110.04 144.29 110.14 145.53 110.19 145.7C110.39 146.34 112.56 145.36 112.79 146.6C113 147.74 112.87 150.01 111.92 150.82C111.21 151.43 110.24 151.26 110.17 151.32C109.99 151.5 110.13 156.19 110.24 156.42C110.33 156.6 110.5 156.67 110.68 156.71C112.31 157.01 115.73 156.24 117.06 157.03C118.39 157.82 118.2 160.08 118.89 160.88C119.3 161.35 120.73 160.75 121.15 161.67C121.77 163.03 119.83 163.22 118.98 163.28H9.81005C8.95005 163.19 7.53005 162.83 8.06005 161.67C8.49005 160.74 9.96995 161.35 10.46 160.87C10.86 160.48 11.11 158.47 11.65 157.69C11.83 157.43 12.6 156.72 12.86 156.72H18.9C18.61 155.38 19.41 152.73 19.03 151.57C18.91 151.21 18.42 151.38 18.14 151.3C16.35 150.75 16.1799 148.32 16.4399 146.76C16.6999 145.2 18.8 146.42 19.03 145.71C19.24 143.27 18.82 140.56 19.04 138.15C19.13 137.15 19.85 136.29 20.9 136.74C21.95 137.19 21.56 138.52 21.67 138.52H35.5C35.55 135.93 35.43 133.32 35.5 130.72C35.52 130 35.85 128.65 35.66 127.98C35.61 127.81 34.72 127.97 34.76 126.8C34.8 125.73 35.49 126.14 35.64 126C35.72 125.92 35.61 124.03 35.63 123.7C34.35 123.4 32.7099 122.76 32.0699 121.51C31.8799 121.14 31.7499 120.12 31.6999 120.06C31.5999 119.96 29.42 119.54 28.96 119.38C24.62 117.91 17.61 113.74 14.62 110.29C13.6 109.11 10.53 104.53 10.76 103.09C10.81 102.75 11.33 102.3 11.68 102.32C12.11 102.34 13.62 103.2 14.22 103.41C18.11 104.81 21.41 105.11 25.52 104.59C30.76 103.92 35.7 101.93 40.59 100.08C40.73 99.92 40.53 96.43 40.6 95.8C40.81 94.06 42.6499 94.47 43.9499 94.42V91.07C41.8699 90.88 39.73 90.09 38.02 88.92C37.42 88.51 36.94 88 36.38 87.58L36.36 87.55ZM66.1999 69.2C65.9399 68.8 65.9499 67.76 65.6899 67.45C65.5199 67.24 63.47 67.23 63.28 67.37C63.11 67.49 62.99 68.9 62.71 69.2H66.1999ZM35.71 80.12C34.84 80.19 33.89 80.07 33.02 80.12L35.79 81.07C36.57 81.14 37.89 81.79 38.61 81.72C39.95 81.59 41.71 79.21 42.54 78.22C44.61 77.82 43.14 79.78 42.54 80.55C42.39 80.75 41.1299 81.86 41.3199 82.02C43.0099 82.22 44.0399 82.45 45.3299 81.15C45.8899 80.58 47.02 78.18 47.24 78.11C47.61 77.99 48.0199 78.03 48.1999 78.42C48.4999 79.07 46.77 81.7 46.27 82.31C47.01 82.34 49.34 82.83 49.85 82.47C50.43 82.05 51.13 78.39 51.68 77.6C52.15 76.91 53.05 77.2 52.97 78.15C52.86 79.39 51.7 81.28 51.52 82.61H54.36C55.31 80.46 55.38 77.95 55.84 75.64C55.91 75.08 56.86 74.77 57.13 75.33C57.54 76.17 56.2499 80.82 56.1899 82.12C56.1899 82.29 56.24 82.61 56.4 82.61H59.02C59.25 82.61 59.32 81.6 59.38 81.37L59.8199 73.37C59.9599 72.62 61.17 72.46 61.28 73.8C61.43 75.69 60.8999 78.5 60.8299 80.5C60.8099 81.2 60.8599 81.91 60.8299 82.62H63.52C63.52 82.62 63.74 82.43 63.88 82.47V74.1C63.88 74.1 63.74 73.9 63.74 73.68C63.74 72.64 65.03 72.58 65.18 73.37C65.25 75.36 65.1 77.36 65.18 79.34C65.19 79.68 65.32 80 65.34 80.35C65.37 80.83 65.1499 82.45 65.5699 82.59C65.8499 82.68 68.43 82.57 68.53 82.46C68.19 79.38 67.4999 76.24 67.5799 73.14C67.7599 72.76 68.64 72.68 68.79 73.1L69.99 82.45C71 82.62 72.01 82.63 73.03 82.61C73.05 82.4 73.03 82.2 72.99 81.99C72.68 80.21 71.6201 77.56 71.5601 75.83C71.5301 74.81 72.62 74.76 72.98 75.59C73.18 76.57 74.2 82.15 74.88 82.46C75.45 82.72 76.98 82.29 77.68 82.46C77.86 82.3 76.2 78.54 76.14 77.81C76.09 77.18 76.52 76.89 77.1 77.15C77.59 77.38 78.35 80.24 78.68 80.96C78.78 81.19 79.26 82.23 79.36 82.32C79.8 82.71 82.22 82.36 82.93 82.32C83.15 82.14 80.65 79.31 81.11 78.39C81.28 78.06 81.91 77.99 82.21 78.17C82.34 78.25 83.19 80.07 83.52 80.5C83.74 80.78 84.64 81.72 84.9 81.89C85.73 82.43 86.95 82 87.88 81.89C88.09 81.61 84.37 78.42 86.21 78.11C87.07 77.96 87.36 79.04 87.88 79.63C88.4 80.22 89.6399 81.49 90.4399 81.59C91.4099 81.72 94.32 80.9 95.3 80.5C95.47 80.43 95.88 80.35 95.89 80.14H93.1999C92.9999 80.14 92.02 79.91 91.75 79.84C90.37 79.46 89.53 78.64 88.66 77.54C81.5 78.21 74.15 76.05 68.27 72.02C68.01 71.84 67.41 71.22 67.36 71.19C67.11 71.06 62.3699 71.04 61.9399 71.15C61.6199 71.23 59.75 72.7 59.16 73.03C54.83 75.52 46.94 77.99 41.96 77.66C41.66 77.64 40.39 77.31 40.3 77.38C40.25 77.42 39.9199 78.19 39.6999 78.46C38.7799 79.57 37.0899 80.02 35.6999 80.14L35.71 80.12ZM96.3299 79.98C96.13 79.88 95.94 80.07 96.04 80.12C96.24 80.22 96.4299 80.03 96.3299 79.98ZM31.56 81.44C33.1 84.18 36.32 84.98 39.22 85.49C42.92 86.14 46.4 86.13 50.12 86.24C59.35 86.5 68.69 86.49 77.91 86.24C82.33 86.12 94.47 86.3 97.12 82.31C97.29 82.05 97.31 81.76 97.49 81.51C95.66 82.29 93.8 83.01 91.84 83.43C88.15 84.23 84.42 84.35 80.67 84.49C69.84 84.89 58.32 84.87 47.5 84.49C45.89 84.43 44.2999 84.49 42.6899 84.35C38.7499 83.99 35.19 82.92 31.55 81.44H31.56ZM43.78 87.99C43.62 87.83 40.79 87.78 40.36 87.84C40.16 87.87 39.93 87.93 40.14 88.13C41.35 88.48 42.47 89.16 43.78 89.15C43.74 88.92 43.85 88.07 43.78 87.99ZM88.76 87.84H85.63C85.01 87.84 85.04 88.43 85.12 88.94C85.15 89.17 85.03 89.16 85.34 89.16C86.28 89.16 88.1 88.54 88.76 87.84ZM83.23 87.99C81.75 87.96 81.28 87.71 81.48 89.45H83.23V87.99ZM47.6899 88.3C47.5399 88.06 46.1599 88.15 45.8199 88.13V89.44H47.71C47.65 89.16 47.7999 88.48 47.6899 88.3ZM52.0799 88.28H49.61C49.61 88.52 49.5199 89.59 49.8299 89.59H52.09V88.28H52.0799ZM58.6999 89.59H70.27V88.28C66.35 88.41 62.42 88.47 58.48 88.43C58.48 88.73 58.3799 89.5 58.6999 89.6V89.59ZM74.93 88.28H72.53C72.25 88.28 72.3 89.21 72.3101 89.44H74.93V88.28ZM79.3 88.28H76.97V89.44H79.3V88.28ZM56.59 88.42H54.12V89.58H56.59V88.42ZM56.59 91.33H49.97C49.97 91.33 49.75 91.53 49.75 91.55V94.53H56.74V91.69C56.74 91.69 56.55 91.47 56.59 91.33ZM58.48 91.48V94.54H70.42L70.28 91.34L58.49 91.49L58.48 91.48ZM72.17 91.33V94.31C72.17 94.31 72.37 94.53 72.39 94.53H79.23C79.23 94.53 79.4499 94.33 79.4499 94.31V91.83C79.4499 91.73 79.34 91.32 79.23 91.32H72.17V91.33ZM83.23 91.33H81.34V94.53H83.23V91.33ZM47.71 91.63C47.1 91.42 46.4499 91.49 45.8199 91.48V94.54H47.71V91.63ZM86.5799 96.29H42.48V100.95H86.5799V96.29ZM45.68 111.57H49.1C49.99 110.46 50.95 104.88 51.85 104.28C52.34 103.96 52.9599 104.16 52.9499 104.78L50.92 111.57H54.27L55.76 104.69C56.02 103.94 57.15 103.96 57.15 104.79L55.87 111.57H59.0699L59.8299 104.83C60.0399 103.86 61.29 103.86 61.27 105.09C61.24 106.77 60.8 108.76 60.68 110.48C60.65 110.84 60.69 111.21 60.68 111.57H63.88C64.45 110.43 63.48 104.91 64.0601 104.33C64.2901 104.1 64.93 104.1 65.16 104.33C65.68 104.85 65.04 110.47 65.49 111.57H68.6899L67.9499 105.09C67.8199 103.98 69.12 103.83 69.38 104.83C69.87 106.7 69.75 109.26 70.14 111.2C70.17 111.36 70.2 111.48 70.35 111.57H73.62C73.34 109.6 72.4301 107.17 72.3101 105.23C72.2401 104.06 72.96 103.72 73.63 104.64C74.16 106.94 74.49 109.38 75.29 111.57H78.71L76.41 104.91C76.31 104.04 77.4 103.9 77.8 104.54C78.66 106.83 79.32 109.21 80.38 111.42H83.65L80.91 105.05C80.75 104.18 81.5999 103.87 82.1999 104.39L85.25 111.42H89.03L85.63 104.83C85.39 104.12 86.07 103.82 86.66 104.1C87.08 104.3 87.95 106.43 88.27 107C88.71 107.79 90.29 110.77 90.76 111.2C91.24 111.64 91.3299 111.27 91.5699 111.27H94.55L90.49 105.21C90.01 104.44 90.8999 103.74 91.5699 104.28C92.6299 105.75 93.56 107.32 94.64 108.77C94.97 109.21 96.13 110.89 96.52 110.97C97.46 111.16 98.69 110.72 99.65 110.68C99.72 110.43 99.55 110.39 99.43 110.24C98.59 109.15 97.36 108.15 96.55 107C96.27 106.35 96.71 105.94 97.36 106.04C98.45 106.51 100.91 110.33 101.9 110.37C102.76 110.4 103.88 109.88 104.75 109.81C104.48 109.28 101.96 107.83 103.44 107.4C104.39 107.12 105.96 109.24 107.38 109.17C108.7 109.1 112.33 107.2 113.45 106.37C113.58 106.28 113.86 106.04 113.92 105.89C105.13 108.41 96.35 105.43 88.25 102.09L87.8 102.7C74.16 102.91 60.41 103.17 46.75 102.83C45.76 102.81 41.76 103.02 41.22 102.67C41.06 102.57 41.02 102.31 40.96 102.28C40.64 102.09 36.41 103.9 35.68 104.15C29.83 106.15 23.73 107.57 17.52 106.44C16.98 106.34 16.35 106.11 15.78 106C15.63 105.97 15.34 105.77 15.37 106.05C16.85 106.95 18.2999 107.94 19.9499 108.53C20.4899 108.72 21.96 109.2 22.47 109.22C23.5 109.27 25.16 107.11 26.15 107.42C27.49 107.85 25.42 109.16 25.02 109.5C24.95 109.56 24.6099 109.61 24.8299 109.83C24.9299 109.93 27.33 110.43 27.53 110.42C27.97 110.41 28.99 109.27 29.34 108.89C29.84 108.35 31.4 106.17 31.92 106.07C32.57 105.95 32.99 106.39 32.72 107.02C32.39 107.78 30.61 109.47 29.99 110.26C29.88 110.41 29.71 110.45 29.77 110.7L32.91 111.13C33.25 111.11 34.68 109 34.98 108.57C35.91 107.25 36.79 105.88 37.56 104.45C37.92 103.96 38.78 104.14 38.91 104.69C39.11 105.56 35.56 110.1 35 111.14L38.42 111.44C38.74 111.42 39.5999 109.75 39.8299 109.35C40.7399 107.76 41.56 106.1 42.36 104.46C42.86 103.83 43.86 104.28 43.68 105.04C42.79 107.25 41.37 109.24 40.53 111.44C41.23 111.46 41.94 111.41 42.65 111.44C43.12 111.45 43.7 111.83 44.01 111.36L47.0699 104.42C47.5999 103.86 48.4399 104.32 48.3299 105.05C47.5099 107.26 46.35 109.38 45.62 111.6L45.68 111.57ZM112.14 110.07C112.43 109.77 112.9 109.21 112.99 108.81C112.62 109.08 112.22 109.32 111.8 109.51C104 113.2 94.98 113.22 86.49 113.46C71.77 113.86 56.5299 113.83 41.8199 113.46C35.3599 113.3 28.97 113.28 22.71 111.47C20.43 110.81 18.27 109.81 16.13 108.81C19.24 113.16 25.05 114 30.03 114.49C49.23 116.38 69.63 114.27 88.98 115.08C95.77 114.28 106.98 115.36 112.14 110.07ZM32.29 116.52L26.9 116.09C27.47 117.04 31.03 118.24 31.9 117.96C32.35 117.81 32.31 116.92 32.29 116.52ZM102.15 116.09C101.47 116.39 97.24 116.35 97.05 116.52C97 116.57 97.09 117.73 97.05 117.98C98.83 117.98 100.94 117.46 102.15 116.09ZM35.1999 116.81C35.0699 117.81 35.28 118.11 36.29 118.13C36.5 118.13 37.7399 117.97 37.8299 117.91C38.1099 117.72 37.98 116.81 37.75 116.81H35.1999ZM94 116.81H91.6C91.38 116.81 91.29 117.68 91.4 117.81C91.45 117.87 92.86 118.13 93.05 118.12C94.01 118.09 94.1 117.68 94 116.8V116.81ZM43.64 116.96H40.15C40.24 118.52 39.99 119.78 41.97 119.74C43.95 119.7 43.64 118.57 43.64 116.96ZM49.17 116.96H45.97V118.12H49.17V116.96ZM54.55 116.96H51.0601V118.12H54.41C54.47 118.12 54.5601 117.09 54.5601 116.96H54.55ZM61.1 116.96H57.02C56.95 118.5 57.22 119.69 58.99 119.74C60.93 119.79 61.14 118.63 61.1 116.96ZM66.34 116.96H62.85C62.84 117.2 62.7899 118.12 63.0699 118.12H66.34V116.96ZM68.38 116.96C67.91 119.07 69.4499 120.4 71.4399 119.51C72.5099 119.03 72.7 116.96 72.24 116.96H68.38ZM77.6999 116.96C77.4699 116.81 74.88 117.07 74.35 116.96C74.34 117.2 74.2899 118.12 74.5699 118.12H77.84C77.88 117.92 77.7799 117.01 77.6899 116.96H77.6999ZM83.0799 116.96C82.9799 116.85 80.43 117.04 80.02 116.96C79.96 117.11 80.11 118.12 80.17 118.12H83.01C83.27 118.12 83.13 117 83.0799 116.96ZM89.05 116.96H85.41C85.27 118.94 85.45 119.94 87.67 119.73C89.23 119.59 89.07 118.19 89.05 116.96ZM35.48 121.46C35.53 121.11 35.83 120.31 35.5 120.08C35.29 119.94 33.47 119.94 33.46 120.23C33.44 120.66 34.94 121.76 35.48 121.46ZM37.6 121.91C38.27 122.12 39.93 121.76 40.73 121.91C40.87 121.29 40.4499 121.54 39.9399 121.31C39.0499 120.91 38.73 119.73 37.52 120.01C37.69 120.44 37.13 121.76 37.59 121.9L37.6 121.91ZM43.1999 121.91H49.75L49.15 120.03C48.04 120.11 46.67 119.87 45.59 120.01C45.05 120.08 44.96 120.6 44.5 120.95C44.04 121.3 43.3499 121.34 43.1999 121.91ZM53.68 120.02H51.21C51.13 120.68 51.35 121.29 51.5 121.91H53.68V120.02ZM55.86 121.91H73.62V120.02C72.41 121.42 70.9499 122.11 69.0799 121.58C68.5399 121.43 67.32 120.82 66.97 120.41C66.89 120.31 67 120.05 66.85 120.01C66.64 119.95 62.86 119.98 62.66 120.04C62.43 120.12 62.34 120.51 62.13 120.68C60.12 122.31 57.58 122.07 55.87 120.16V121.91H55.86ZM77.84 121.91C77.91 121.33 78.68 120.03 77.77 120C77.05 119.98 76.03 120.33 75.22 120.16V121.91H77.84ZM79.74 121.91H85.85C85.82 121.4 85.0999 121.38 84.6899 121.1C84.3599 120.87 83.84 120.08 83.78 120.05C83.62 119.96 80.32 119.98 80.17 120.09C79.85 120.3 79.91 121.51 79.74 121.92V121.91ZM91.67 121.91C91.89 118.94 90.97 120.05 89.54 121.16C89.14 121.47 88.63 121.35 88.76 121.91H91.67ZM95.6 120.17C94.17 119.88 93.2701 119.65 93.5601 121.48C94.44 121.59 95.45 121.1 95.6 120.17ZM39.27 123.8C38.94 123.86 37.52 123.7 37.39 123.82C37.24 123.95 37.17 125.49 37.25 125.75C37.4 126.21 38.82 125.9 39.27 125.99V123.81V123.8ZM50.62 123.8H40.87C40.92 124.16 40.72 125.98 41.09 125.98H50.62V123.8ZM54.26 123.8H52.37V125.98H54.26V123.8ZM73.1899 123.8H55.87V125.98H73.1899V123.8ZM76.97 123.8H74.93V125.98H76.97V123.8ZM88.18 123.8H78.72V125.98H88.18V123.8ZM91.8199 123.8H89.93C89.75 125.56 89.27 126.26 91.46 125.99C92.49 125.86 91.6799 124.52 91.8199 123.8ZM39.27 127.88H37.23V138.51C37.66 138.43 39.1 138.73 39.25 138.27L39.27 127.88ZM50.62 127.88H40.87V129.48H50.62V127.88ZM54.26 127.88H52.37V145.64H54.26V127.88ZM73.1899 127.88H56.01V129.48H73.1899V127.88ZM76.97 127.88H74.93V145.79C75.24 145.75 76.97 145.94 76.97 145.57V127.88ZM88.18 127.88H78.72C78.64 127.88 78.42 129.48 78.79 129.48H88.18V127.88ZM91.8199 127.88H89.93V138.51H91.8199V127.88ZM42.91 131.37H40.87V138.5C41.24 138.39 42.91 138.71 42.91 138.43V131.37ZM50.62 131.37H48.73V138.5H50.62V131.37ZM58.34 131.37H56.01V145.64H58.34V131.37ZM73.1899 131.37H71.01V145.64H73.1899V131.37ZM78.5699 131.37V138.5C79.2099 138.39 79.93 138.92 80.47 138.4V131.36H78.5699V131.37ZM86.29 131.37V138.5C86.75 138.66 88.27 138.85 88.34 138.29L88.16 131.61C88.01 131.16 86.7 131.45 86.29 131.37ZM50.62 140.55H21.66V141.86H29.59C29.92 141.86 29.92 143.75 29.59 143.75H21.66V145.64H50.62V143.75H41.67C41.34 143.75 41.34 141.86 41.67 141.86H50.62V140.55ZM107.39 140.55H78.72V141.86H87.67C88 141.86 88 143.75 87.67 143.75H78.72V145.64H107.39V143.75H99.6C99.27 143.75 99.27 141.86 99.6 141.86H107.39V140.55ZM46.84 147.68H18.31C18.36 148.05 18.1699 149.03 18.4499 149.22L46.61 149.29L46.84 147.68ZM46.6999 158.89C46.4599 159.65 46.28 160.42 46.26 161.22H48.4399C48.6699 160.51 48.73 159.76 48.88 159.04C49.63 155.3 50.25 151.47 50.63 147.68L48.75 147.7L46.6999 158.9V158.89ZM76.68 147.68H52.37L52.22 150.01H76.96L76.67 147.68H76.68ZM80.3199 159.62C80.3699 160.13 80.64 160.69 80.61 161.22H82.9399C83.0899 160.67 82.75 160.19 82.65 159.76C82.63 159.49 82.76 159.05 82.5 158.89C82.5 158.84 82.5 158.79 82.5 158.74C81.89 155.08 81.22 151.4 80.48 147.76C80.05 147.66 78.4699 147.46 78.4499 148C78.4299 148.54 78.65 149.73 78.73 150.34C79.14 153.44 79.83 156.52 80.3101 159.61L80.3199 159.62ZM82.36 147.68C82.44 148.21 82.3 149.33 83.01 149.29H110.38C110.86 149.32 111.03 147.68 110.67 147.68H82.36ZM22.97 151.32H20.79V156.56H22.97V151.32ZM35.49 156.56V151.54C35.49 151.17 33.66 151.37 33.31 151.32V156.56H35.49ZM96.04 151.32H93.86V156.56C94.22 156.51 96.04 156.71 96.04 156.34V151.32ZM108.41 151.32H106.23V156.56H108.41V151.32ZM51.5 154.09H77.55L77.17 151.75H52.15C51.62 151.86 51.58 153.56 51.5 154.09ZM51.21 155.98C50.92 156.11 50.87 157.66 50.92 158.02H78.28L77.99 155.84H77.6999L51.21 155.99V155.98ZM44.8 158.6H13.43C13.08 158.6 12.37 160.8 12.48 161.22H44.36L44.8 158.6ZM116.85 161.22C116.59 160.53 116.45 158.69 115.62 158.59C105.43 158.65 95.21 158.47 85.04 158.75C84.81 158.75 84.61 158.6 84.39 158.6C84.39 158.97 84.75 161.22 85.04 161.22H116.84H116.85ZM50.77 159.77C50.28 159.69 50.22 160.83 50.26 161.23H78.72C78.76 160.84 78.7199 160.57 78.5699 160.21C78.5299 160.11 78.57 159.93 78.43 159.84L50.77 159.77Z" fill="#020701"/>
<path d="M86.14 60.03C93.3 66.7 101.54 73.21 109.7 78.61C113.64 81.22 117.78 83.52 121.65 86.23C120.62 87.03 119.75 87.44 118.38 87.55H92.6801C93.4601 86.81 94.07 86.76 94.96 86.26C97.2 84.99 99.41 82.73 100.74 80.54C101.31 79.6 102.17 78.27 102.09 77.15C101.97 75.57 100.47 76.89 99.7 77.17C97.84 77.85 93.4801 78.61 91.8101 77.41C91.0601 76.87 90.66 75.36 89.8 75.19C89.2701 75.09 88.13 75.44 87.51 75.46C82.96 75.65 78.19 74.42 74.05 72.61C72.59 71.97 68.1301 69.7 67.6801 68.21C67.4801 67.54 67.63 66.3 67.42 65.85C67.15 65.26 66.1 65.31 66.05 65.26C65.9501 65.16 66.1099 63.01 65.8199 62.36C65.3599 61.33 63.58 61.13 63.09 62.25C62.83 62.85 63.09 65.14 62.97 65.27C62.94 65.3 62.3301 65.32 62.0601 65.45C60.9701 65.98 61.54 67.24 61.37 68.11C61.31 68.44 60.44 69.21 60.13 69.49C56.79 72.54 47.14 75.79 42.66 75.61C41.73 75.57 39.95 74.98 39.2 75.2C38.67 75.36 38.1 76.9 37.34 77.42C35.51 78.67 31.61 77.88 29.64 77.14C28.89 76.86 27.35 75.56 27.15 77.14C26.97 78.6 28.87 81.24 29.78 82.38C31.9 85.04 33.81 85.68 36.33 87.55H10.2C8.97995 87.32 8.01996 87.07 7.20996 86.09C7.50996 86.13 7.71999 86.05 7.98999 85.92C10.62 84.61 14.6099 81.71 17.1899 79.98C24.7699 74.89 32.03 69.4 38.95 63.45C39.61 62.88 42.37 60.14 42.88 60.03C45.7 59.37 47.39 58.39 49.85 56.89C50.91 56.24 52.3 55.03 53.35 54.57C56.06 53.37 53.57 57.82 53.09 58.68C52.64 59.49 51.1 61.42 50.92 62.04C50.86 62.24 50.88 62.45 50.88 62.66C51.41 62.75 51.7501 62.53 52.1801 62.28C54.8601 60.73 57.42 57.49 59.61 55.3C61.59 53.83 62.2 58.04 63.16 58.97C65 60.75 66.01 55.62 66.63 54.75C67.24 53.91 67.76 54.15 68.5 54.72C70.98 56.63 72.6001 59.74 75.6801 61.37C78.7101 62.98 75.7 59.52 75.22 58.77C74.62 57.81 72.71 54.57 73.03 53.58C73.33 52.65 74.8999 54.49 75.1899 54.72C78.3299 57.28 82.17 59.06 86.11 60.03H86.14Z" fill="#0F4C60"/>
<path d="M16.56 35.72C12.43 37.71 7.91004 37.27 3.80004 35.45C2.93004 35.07 0.609934 33.86 0.319934 32.96C-0.410066 30.67 3.51994 32 4.69994 32.08C5.87994 32.16 7.60997 32.17 8.72997 32.04C12.96 31.56 15.28 26.5 19.9 28.15C21.32 20.41 32.83 19.34 36.42 26.08C39.12 24.89 43.5 26.08 44.68 28.93C44.82 29.26 44.97 30.27 45.16 30.31C47.92 29.59 50.23 31.64 52.75 32.07C53.77 32.25 55.05 32.29 56.09 32.24C57.34 32.18 60.19 31.09 59.61 33.29C59.22 34.8 54.74 36.48 53.28 36.71C50.84 37.09 48.34 36.09 46.26 37.11C43.35 38.54 42.33 39.72 38.64 39.35C37.03 39.19 35.46 38.16 33.93 37.95C31.12 37.57 28.17 39.45 25.24 39.67C22.31 39.89 17.1999 39.2 16.5699 35.73L16.56 35.72ZM28.36 37.03C29.55 36.73 30.7099 36.15 31.9399 36.03C36.0299 35.62 38.64 38.44 42.72 36.77C44.93 35.86 45.56 34.37 48.37 34.56C50.91 34.73 51.79 35.36 54.53 34.45C54.78 34.37 55.33 34.22 55.43 33.97H53.3199C50.9299 33.97 48.54 31.81 45.9 32.08C44.65 32.21 44.85 33.12 44.09 33.9C42.6 35.43 39.65 35.69 38.26 33.9C37.24 32.57 37.69 30.16 39.5 30.32C41.09 30.46 39.36 32.08 39.48 32.52C39.92 34.09 42.78 33.19 43.14 31.51C43.67 29.03 41.25 27.5 39.06 27.42C38.62 27.4 37.08 27.5 36.87 27.86C36.74 28.08 36.75 30.07 36.62 30.66C36.43 31.53 35.6 33.3 34.66 33.51C33.03 33.87 34.47 31.58 34.66 30.88C36.62 23.67 26.66 21.17 22.76 25.96C19.61 29.82 23.94 33.77 27.78 32C29.94 31.01 29.42 28.49 27.78 29.24C27.32 29.45 27.0499 30.43 26.1899 29.81C25.2099 29.11 26.34 27.45 27.43 27.28C30.5 26.8 32.13 29.83 30.47 32.21C28.51 35.02 23.27 34.96 21.16 32.37C20.15 31.13 20.32 29.74 18.25 29.74C15.24 29.74 11.94 33.97 8.49999 33.97H5.07994L8.68993 34.95C11.8599 36.07 14.72 33.75 17.42 33.43C18.23 33.33 20.5799 33.61 20.1999 34.89C19.9599 35.69 18.68 34.95 18.62 35.36C19.19 36.83 21.12 37.42 22.55 37.61C24.51 37.87 26.48 37.51 28.37 37.03H28.36Z" fill="#020701"/>
<path d="M94.5401 10.86C96.0001 12.04 92.54 13.77 91.72 14.14C89.55 15.14 86.98 15.47 84.61 15.18C81.99 14.85 80.31 13.36 77.6 14.43C75.59 15.22 74.59 16.21 72.2 16.6C68.98 17.12 67.6501 16.04 64.8101 15.49C62.2201 14.98 60.1801 16.81 57.4001 16.64C55.1401 16.5 53.65 15.33 51.69 14.64C49.46 13.85 48.41 14.86 46.34 15.04C43.32 15.3 40.3301 14.67 37.6801 13.23C36.5401 12.61 33.9201 11.04 35.8901 9.83998C38.4401 9.64998 41.0101 10.18 43.5601 9.93998C46.8401 9.62998 49.0901 6.88999 52.5301 7.47999C51.9601 0.849989 61.82 -2.01001 66.13 1.94999C66.43 2.22999 67.0401 3.18997 67.1801 3.23997C67.3901 3.30997 69.4501 3.05996 70.0601 3.10996C71.8701 3.27996 73.7301 4.35999 74.6801 5.91999C74.8801 6.24999 75.5 7.86997 75.62 7.89997C77.74 7.71997 79.97 7.43998 81.94 8.40998C84.38 9.60998 84.81 10.63 87.97 10.83C89.18 10.9 93.9401 10.37 94.5601 10.87L94.5401 10.86ZM89.85 12.57C88.77 12.64 87.59 12.57 86.5 12.57C83.99 12.57 81.89 10.11 79.85 9.60996C78.96 9.39996 76.2401 9.48998 75.5201 10.03C75.3201 10.18 74.85 11.23 74.5 11.63C73.25 13.04 70.44 14 69.11 12.21C67.91 10.6 69.41 7.73998 70.73 8.84999C71.57 9.55999 70.42 10.26 70.59 10.87C70.91 12.04 73.14 10.61 73.32 9.43998C73.81 6.34998 70.69 4.47999 67.96 5.16999C68.01 6.09999 68.19 7.03999 68.07 7.97999C67.93 9.09999 66.51 11.8 65.13 11.39C64.1 11.09 65.5201 9.63999 65.7801 9.03999C68.5401 2.49999 59.08 -0.460019 55.36 4.43998C52.06 8.78998 58.82 12.18 61.24 8.86997C61.64 8.31997 62.03 7.18997 61.24 6.83997C60.28 6.40998 60.1701 7.30997 59.6801 7.45997C57.8401 8.01997 57.88 5.18998 59.86 4.87998C63.18 4.36998 64.8201 7.35999 62.8901 9.94999C60.8401 12.71 56.94 12.93 54.32 10.83C53.57 10.23 53.3701 9.49998 52.2801 9.37998C49.7601 9.08998 48.65 10.3 46.57 11.09C44.21 11.99 42.07 11.91 39.62 11.71C39.46 11.7 39.08 11.6 39.11 11.85C41.4 12.6 43.54 13.34 46 13.14C47.81 12.99 49.15 12.22 51.1 12.45C53.21 12.7 55.04 14.45 57.37 14.62C59.4 14.77 60.3701 14.14 62.1601 13.72C65.6301 12.92 67.9 14.89 71.35 14.61C74.26 14.37 76.7401 12.02 79.6501 11.98C81.6901 11.95 83.9601 13.32 86.0601 13.45C87.6201 13.55 89.05 13.04 90.5 12.58C90.47 12.2 89.94 12.58 89.85 12.58V12.57Z" fill="#020701"/>
<path d="M121.65 86.24C117.78 83.52 113.64 81.22 109.7 78.62C101.54 73.22 93.3 66.71 86.14 60.04C83.28 57.38 80.2301 54.37 77.5501 51.53C75.9201 49.8 71.86 44.52 69.98 43.81C68.14 43.12 67.53 44.27 66.11 44.31C65.55 44.32 64.99 43.85 64.38 43.87C63.81 43.9 63.26 44.37 62.49 44.32C61.11 44.24 60.57 43.37 58.77 43.94C56.97 44.51 53.23 49.4 51.72 51.01C48.84 54.07 45.8101 56.99 42.9101 60.04C42.4001 60.16 39.64 62.9 38.98 63.46C32.06 69.41 24.8 74.9 17.22 79.99C14.64 81.72 10.66 84.62 8.02005 85.93C7.76005 86.06 7.54002 86.14 7.24002 86.1C6.62002 85.36 6.32007 84.84 7.17007 84.06C23.0101 74.45 37.8301 63.04 50.4001 49.41C52.2801 47.37 56.12 42 58.84 41.69C60.27 41.53 61.36 42.09 62.48 42.11C63.04 42.12 63.8 41.67 64.52 41.68C65.1 41.69 65.83 42.11 66.24 42.09C66.83 42.06 67.68 41.6 68.57 41.6C72.86 41.64 77.24 48.17 80.09 51.16C90.59 62.17 103.36 71.91 116.04 80.28C117.14 81.01 122.22 83.88 122.56 84.69C122.94 85.58 122.13 85.88 121.65 86.25V86.24Z" fill="#020701"/>
<path d="M113.37 27.84C115.72 27.44 118.05 27.27 120.19 28.52C121.72 29.42 122.68 30.89 124.54 31.31C126.49 31.75 128.47 31.31 130.44 31.38C131.95 32.3 130.67 33.5 129.72 34.24C126.55 36.68 121.39 36.69 117.83 35.17C114.75 38.71 109.59 40.02 105.14 38.49C104.32 38.21 102.88 37.33 102.09 37.32C101.05 37.32 99.76 38.41 98.77 38.8C96.41 39.74 93.82 39.57 91.43 38.81C89.49 38.2 88.0799 36.96 85.9399 37.03C83.5899 37.1 82.6699 37.48 80.1899 36.81C79.1699 36.54 75.9 35.13 75.68 34.04C75.28 32.02 77.47 32.91 78.52 32.95C81.95 33.08 82.31 32.36 85.21 31.49C86.92 30.98 88.3299 30.91 90.0699 31.33C90.9899 27.83 94.91 26.33 98.22 27.11C100.58 20.63 111.62 21.05 113.38 27.84H113.37ZM127.33 33.39H124.78C121.19 33.39 120.23 29.02 115.61 29.46C113.37 29.67 113.93 30.23 113.36 31.87C111.5 37.22 101.97 36.15 103.09 30.04C103.51 27.76 105.94 26.61 107.93 27.84C109.92 29.07 108.78 31.6 107.54 30.85C107.11 30.59 107.5 29.4 106.24 29.24C104.58 29.02 104.27 32.07 106.37 33.04C110.67 35.03 113.58 30.2 110.8 26.57C108.79 23.94 104.93 23.95 102.17 25.34C101.49 25.68 99.54 27.04 99.84 27.92C99.87 28.01 100.81 28.92 101.05 29.34C101.58 30.29 102.09 32.83 100.74 33.23C99.45 33.61 100.01 32.19 99.98 31.58C99.72 27.6 93.25 27.86 92.15 31.17C91.42 33.35 93.81 35.09 95.46 33.9C96.32 33.28 95.56 31.93 96.29 31.67C97.28 31.33 97.71 32.5 97.65 33.32C97.42 36.41 92.93 36.7 91.03 34.85C90.7 34.53 90.33 33.7 90.13 33.53C89.84 33.3 88.66 33 88.27 32.96C85.94 32.73 83.34 34.3 80.72 34.58C80.52 34.6 79.83 34.66 79.76 34.85C80.63 35.01 81.4 35.37 82.3 35.44C85.16 35.67 86.36 34.58 89.36 35.8C91.98 36.87 93.9099 37.98 96.9399 37.41C98.6099 37.09 100.2 35.7 101.66 35.58C103.53 35.42 105.02 36.61 106.83 36.97C109.64 37.53 114.44 36.73 115.94 33.99C116.4 33.15 116.07 31.47 116.84 31.39C117.94 31.27 117.7 32.42 117.97 32.96C118.22 33.45 121.01 34.3 121.65 34.38C123.12 34.56 125.58 34.42 126.92 33.76C127.09 33.68 127.32 33.62 127.36 33.4L127.33 33.39Z" fill="#020701"/>
<path d="M45.68 111.57C46.41 109.35 47.56 107.23 48.39 105.02C48.5 104.29 47.66 103.83 47.13 104.39L44.0699 111.33C43.7499 111.8 43.1799 111.42 42.7099 111.41C42.0099 111.39 41.2999 111.44 40.5899 111.41C41.4199 109.21 42.84 107.22 43.74 105.01C43.92 104.26 42.92 103.81 42.42 104.43C41.62 106.08 40.8 107.74 39.89 109.32C39.66 109.72 38.7999 111.39 38.4799 111.41L35.06 111.11C35.62 110.07 39.1699 105.53 38.9699 104.66C38.8399 104.11 37.98 103.93 37.62 104.42C36.85 105.84 35.97 107.22 35.04 108.54C34.73 108.97 33.2999 111.09 32.9699 111.1L29.8299 110.67C29.7699 110.42 29.93 110.38 30.05 110.23C30.67 109.44 32.46 107.75 32.78 106.99C33.05 106.36 32.6199 105.91 31.9799 106.04C31.4599 106.14 29.91 108.32 29.4 108.86C29.04 109.25 28.0299 110.38 27.5899 110.39C27.3899 110.39 24.99 109.9 24.89 109.8C24.67 109.58 24.9999 109.53 25.0799 109.47C25.4799 109.13 27.5499 107.81 26.2099 107.39C25.2299 107.08 23.57 109.24 22.53 109.19C22.03 109.17 20.56 108.69 20.01 108.5C18.36 107.91 16.91 106.92 15.43 106.02C15.4 105.74 15.6899 105.94 15.8399 105.97C16.4099 106.09 17.0399 106.31 17.5799 106.41C23.7899 107.54 29.89 106.12 35.74 104.12C36.47 103.87 40.7 102.06 41.02 102.25C41.08 102.29 41.12 102.54 41.28 102.64C41.82 102.98 45.81 102.77 46.81 102.8C60.47 103.14 74.2199 102.88 87.8599 102.67L88.31 102.06C96.41 105.4 105.19 108.38 113.98 105.86C113.91 106 113.63 106.24 113.51 106.34C112.39 107.18 108.76 109.07 107.44 109.14C106.02 109.21 104.45 107.09 103.5 107.37C102.02 107.8 104.55 109.26 104.81 109.78C103.94 109.86 102.82 110.37 101.96 110.34C100.97 110.3 98.51 106.48 97.42 106.01C96.77 105.91 96.34 106.32 96.6099 106.97C97.4199 108.13 98.65 109.12 99.49 110.21C99.6 110.36 99.7699 110.39 99.7099 110.65C98.7499 110.68 97.5199 111.13 96.5799 110.94C96.1999 110.86 95.0299 109.19 94.6999 108.74C93.6199 107.28 92.69 105.72 91.63 104.25C90.96 103.71 90.07 104.41 90.55 105.18L94.6099 111.24H91.63C91.4 111.24 91.3099 111.61 90.8199 111.17C90.3399 110.74 88.7699 107.76 88.3299 106.97C88.0099 106.4 87.1399 104.26 86.7199 104.07C86.1299 103.79 85.4499 104.1 85.6899 104.8L89.0899 111.39H85.31L82.26 104.36C81.66 103.84 80.8099 104.16 80.9699 105.02L83.7099 111.39H80.4399C79.3799 109.18 78.7199 106.8 77.8599 104.51C77.4499 103.87 76.3699 104.01 76.4699 104.88L78.77 111.54H75.3499C74.5499 109.35 74.2199 106.91 73.6899 104.61C73.0099 103.69 72.29 104.04 72.37 105.2C72.49 107.14 73.4 109.56 73.68 111.54H70.41C70.26 111.45 70.2299 111.34 70.1999 111.17C69.8099 109.23 69.9299 106.68 69.4399 104.8C69.1799 103.79 67.88 103.95 68.01 105.06L68.75 111.54H65.55C65.11 110.44 65.7399 104.82 65.2199 104.3C64.9999 104.07 64.35 104.07 64.12 104.3C63.54 104.88 64.5099 110.41 63.9399 111.54H60.74C60.75 111.18 60.72 110.81 60.74 110.45C60.86 108.73 61.2999 106.74 61.3299 105.06C61.3499 103.83 60.1 103.83 59.89 104.8L59.13 111.54H55.93L57.2099 104.76C57.2099 103.93 56.0799 103.91 55.8199 104.66L54.3299 111.54H50.9799L53.01 104.75C53.02 104.13 52.4 103.93 51.91 104.25C51 104.85 50.04 110.43 49.16 111.54H45.74L45.68 111.57Z" fill="#635D4E"/>
<path d="M35.71 80.12C37.1 80 38.79 79.55 39.71 78.44C39.93 78.17 40.2601 77.4 40.3101 77.36C40.4001 77.29 41.67 77.62 41.97 77.64C46.95 77.97 54.84 75.5 59.17 73.01C59.75 72.67 61.63 71.21 61.95 71.13C62.38 71.02 67.13 71.05 67.37 71.17C67.42 71.2 68.03 71.82 68.28 72C74.16 76.03 81.51 78.19 88.67 77.52C89.54 78.61 90.38 79.43 91.76 79.82C92.03 79.89 93.01 80.12 93.21 80.12H95.9C95.9 80.33 95.4901 80.41 95.3101 80.48C94.3301 80.88 91.42 81.7 90.45 81.57C89.65 81.47 88.42 80.21 87.89 79.61C87.36 79.01 87.08 77.94 86.22 78.09C84.37 78.4 88.1 81.59 87.89 81.87C86.96 81.98 85.74 82.41 84.91 81.87C84.65 81.7 83.75 80.76 83.53 80.48C83.2 80.05 82.35 78.23 82.22 78.15C81.93 77.97 81.29 78.04 81.12 78.37C80.66 79.29 83.1599 82.12 82.9399 82.3C82.2399 82.34 79.81 82.69 79.37 82.3C79.27 82.21 78.7899 81.17 78.6899 80.94C78.3699 80.22 77.61 77.36 77.11 77.13C76.53 76.87 76.1 77.16 76.15 77.79C76.21 78.52 77.8699 82.28 77.6899 82.44C76.9899 82.27 75.46 82.7 74.89 82.44C74.22 82.13 73.2 76.54 72.99 75.57C72.63 74.74 71.5299 74.79 71.5699 75.81C71.6299 77.54 72.68 80.19 73 81.97C73.04 82.18 73.05 82.38 73.04 82.59C72.02 82.61 71 82.6 70 82.43L68.8 73.08C68.65 72.67 67.77 72.75 67.59 73.12C67.51 76.22 68.2 79.36 68.54 82.44C68.43 82.54 65.86 82.66 65.58 82.57C65.16 82.43 65.38 80.8 65.35 80.33C65.33 79.99 65.2099 79.67 65.1899 79.32C65.1099 77.34 65.2599 75.33 65.1899 73.35C65.0399 72.56 63.74 72.62 63.75 73.66C63.75 73.88 63.89 74.04 63.89 74.08V82.45C63.75 82.4 63.57 82.6 63.53 82.6H60.84C60.86 81.9 60.81 81.19 60.84 80.48C60.91 78.48 61.44 75.67 61.29 73.78C61.19 72.45 59.97 72.61 59.83 73.35L59.39 81.35C59.33 81.58 59.25 82.59 59.03 82.59H56.41C56.25 82.59 56.19 82.27 56.2 82.1C56.26 80.79 57.55 76.15 57.14 75.31C56.87 74.75 55.92 75.06 55.85 75.62C55.39 77.93 55.32 80.43 54.37 82.59H51.53C51.71 81.26 52.87 79.37 52.98 78.13C53.06 77.18 52.1699 76.89 51.6899 77.58C51.1499 78.37 50.45 82.03 49.86 82.45C49.35 82.81 47.02 82.32 46.28 82.29C46.78 81.68 48.52 79.05 48.21 78.4C48.03 78.01 47.62 77.98 47.25 78.09C47.02 78.16 45.9 80.56 45.34 81.13C44.05 82.43 43.02 82.2 41.33 82C41.14 81.84 42.4 80.73 42.55 80.53C43.15 79.76 44.62 77.8 42.55 78.2C41.72 79.19 39.96 81.57 38.62 81.7C37.9 81.77 36.58 81.12 35.8 81.05L33.03 80.1C33.91 80.05 34.86 80.17 35.72 80.1L35.71 80.12Z" fill="#635D4E"/>
<path d="M86.58 96.29V100.95H42.48V96.29H86.58ZM74.15 97.62C73.78 97.74 73.78 99.35 74.15 99.47C74.44 99.57 78.68 99.56 78.87 99.43C79.11 99.26 79.17 97.79 78.61 97.63C78.33 97.55 74.39 97.54 74.15 97.63V97.62ZM48.4399 97.74H44.22C44.25 98.05 44.0899 99.49 44.4399 99.49H48.4399V97.74ZM55.14 97.74H50.26C49.94 97.74 49.94 99.49 50.26 99.49H55.14V97.74ZM64.02 97.74H57.11C56.79 97.74 56.79 99.49 57.11 99.49H63.8101C64.1601 99.49 64 98.05 64.03 97.74H64.02ZM72.46 97.74H65.33C65.4 98.14 65.1299 99.32 65.5699 99.47C66.5499 99.34 71.88 99.74 72.33 99.43C72.61 99.23 72.41 98.13 72.47 97.75L72.46 97.74ZM80.97 97.74C80.65 97.74 80.65 99.49 80.97 99.49H84.75C85.07 99.49 85.07 97.74 84.75 97.74H80.97Z" fill="#BA4422"/>
<path d="M112.14 110.07C106.98 115.36 95.77 114.27 88.98 115.08C69.62 114.27 49.23 116.38 30.03 114.49C25.05 114 19.23 113.16 16.13 108.81C18.27 109.81 20.43 110.81 22.71 111.47C28.97 113.29 35.3599 113.3 41.8199 113.46C56.5399 113.83 71.78 113.86 86.49 113.46C94.98 113.23 104 113.2 111.8 109.51C112.22 109.31 112.62 109.08 112.99 108.81C112.9 109.2 112.43 109.77 112.14 110.07Z" fill="#BA4422"/>
<path d="M31.5601 81.4399C35.2001 82.9199 38.75 83.9899 42.7 84.3499C44.31 84.4999 45.9 84.4299 47.51 84.4899C58.34 84.8699 69.8601 84.8899 80.6801 84.4899C84.4301 84.3499 88.16 84.2299 91.85 83.4299C93.81 83.0099 95.66 82.2899 97.5 81.5099C97.32 81.7499 97.31 82.0499 97.13 82.3099C94.47 86.2999 82.33 86.1199 77.92 86.2399C68.7 86.4899 59.36 86.4999 50.13 86.2399C46.41 86.1299 42.93 86.1399 39.23 85.4899C36.32 84.9799 33.1099 84.1799 31.5699 81.4399H31.5601Z" fill="#BA4422"/>
<path d="M50.62 140.55V141.86H41.67C41.34 141.86 41.34 143.75 41.67 143.75H50.62V145.64H21.66V143.75H29.59C29.92 143.75 29.92 141.86 29.59 141.86H21.66V140.55H50.62ZM39.71 143.75C39.67 143.42 39.85 141.86 39.49 141.86H31.78C31.37 141.86 31.61 143.75 31.71 143.75H39.72H39.71Z" fill="#BA4422"/>
<path d="M107.39 140.55V141.86H99.6C99.27 141.86 99.27 143.75 99.6 143.75H107.39V145.64H78.72V143.75H87.67C88 143.75 88 141.86 87.67 141.86H78.72V140.55H107.39ZM89.87 141.88C89.5 142 89.5 143.61 89.87 143.73C90.94 143.58 97.03 144.02 97.5 143.69C97.71 143.54 97.78 142.01 97.4 141.88H89.87Z" fill="#BA4422"/>
<path d="M116.85 161.22H85.05C84.75 161.22 84.4 158.97 84.4 158.6C84.62 158.6 84.83 158.75 85.05 158.75C95.21 158.47 105.44 158.66 115.63 158.59C116.46 158.69 116.6 160.53 116.86 161.22H116.85Z" fill="#635D4E"/>
<path d="M44.8 158.6L44.36 161.22H12.48C12.37 160.8 13.08 158.6 13.43 158.6H44.8Z" fill="#635D4E"/>
<path d="M51.5 154.09C51.58 153.57 51.62 151.86 52.15 151.76H77.17L77.55 154.09H51.5Z" fill="#FADEAF"/>
<path d="M76.6801 147.68L76.97 150.01H52.23L52.37 147.68H76.6801Z" fill="#FADEAF"/>
<path d="M77.6999 155.84H77.99L78.28 158.02H50.92C50.88 157.67 50.92 156.11 51.21 155.98L77.6999 155.83V155.84Z" fill="#635D4E"/>
<path d="M46.84 147.68L46.61 149.29L18.45 149.22C18.17 149.03 18.3701 148.05 18.3101 147.68H46.84Z" fill="#BA4422"/>
<path d="M82.36 147.68H110.67C111.03 147.68 110.86 149.32 110.38 149.28H83.01C82.3 149.33 82.44 148.21 82.36 147.68Z" fill="#BA4422"/>
<path d="M50.7701 159.77C50.9201 160.01 51.32 159.92 51.57 159.92C60.4 160.03 69.24 159.84 78.08 159.91L78.58 160.21C78.73 160.57 78.77 160.84 78.73 161.23H50.2701C50.2301 160.84 50.2901 159.69 50.7801 159.77H50.7701Z" fill="#635D4E"/>
<path d="M58.48 91.4801L70.28 91.3301L70.42 94.5401H58.48V91.4801Z" fill="#BA4422"/>
<path d="M76.97 127.88V145.57C76.97 145.94 75.2501 145.75 74.9301 145.79V127.88H76.97Z" fill="#BA4422"/>
<path d="M54.26 127.88H52.37V145.64H54.26V127.88Z" fill="#BA4422"/>
<path d="M58.34 131.37H56.01V145.64H58.34V131.37Z" fill="#BA4422"/>
<path d="M73.1801 131.37H71V145.64H73.1801V131.37Z" fill="#BA4422"/>
<path d="M73.1899 127.88H56.01V129.48H73.1899V127.88Z" fill="#BA4422"/>
<path d="M80.32 159.62C79.84 156.53 79.15 153.45 78.74 150.35C78.66 149.73 78.44 148.54 78.46 148.01C78.48 147.48 80.06 147.66 80.49 147.77C81.23 151.42 81.9001 155.09 82.5101 158.75C82.2801 158.63 82.3 158.11 82.2 158.04C82.02 157.91 80.72 158.14 80.33 157.88C80.22 158.37 80.46 158.83 80.48 159.27C80.5 159.61 80.33 159.61 80.33 159.63L80.32 159.62Z" fill="#FADEAF"/>
<path d="M46.7 158.89L48.75 147.69L50.63 147.67C50.26 151.46 49.63 155.28 48.88 159.03L48.8101 158.02C48.2501 158.13 47.52 158.04 46.99 157.87C47.04 158.26 46.79 158.58 46.7 158.89Z" fill="#FADEAF"/>
<path d="M39.27 127.88L39.25 138.27C39.1 138.73 37.66 138.42 37.23 138.51V127.88H39.27Z" fill="#BA4422"/>
<path d="M91.8101 127.88H89.92V138.51H91.8101V127.88Z" fill="#BA4422"/>
<path d="M55.86 121.91V120.16C57.57 122.06 60.11 122.31 62.12 120.68C62.33 120.51 62.42 120.12 62.65 120.04C62.85 119.97 66.63 119.95 66.84 120.01C66.99 120.05 66.88 120.31 66.96 120.41C67.31 120.82 68.5299 121.43 69.0699 121.58C70.9399 122.11 72.4 121.41 73.61 120.02V121.91H55.85H55.86Z" fill="#BA4422"/>
<path d="M50.62 127.88H40.87V129.48H50.62V127.88Z" fill="#BA4422"/>
<path d="M88.18 127.88V129.48H78.79C78.42 129.48 78.6299 127.88 78.7199 127.88H88.18Z" fill="#BA4422"/>
<path d="M58.6999 89.59C58.3799 89.49 58.4899 88.72 58.4799 88.42C62.4199 88.46 66.35 88.4 70.27 88.27V89.58H58.6999V89.59Z" fill="#BA4422"/>
<path d="M22.97 151.32H20.79V156.56H22.97V151.32Z" fill="#BA4422"/>
<path d="M108.41 151.32H106.23V156.56H108.41V151.32Z" fill="#BA4422"/>
<path d="M35.49 156.56H33.3101V151.32C33.6701 151.37 35.49 151.17 35.49 151.54V156.56Z" fill="#BA4422"/>
<path d="M96.04 151.32V156.34C96.04 156.71 94.21 156.51 93.86 156.56V151.32H96.04Z" fill="#BA4422"/>
<path d="M68.38 116.96H72.24C72.7 116.96 72.51 119.03 71.44 119.51C69.45 120.4 67.91 119.07 68.38 116.96Z" fill="#BA4422"/>
<path d="M61.1 116.96C61.14 118.62 60.93 119.79 58.99 119.74C57.22 119.7 56.95 118.5 57.02 116.96H61.1Z" fill="#BA4422"/>
<path d="M43.2 121.91C43.34 121.34 44.05 121.3 44.5 120.95C44.95 120.6 45.06 120.07 45.59 120.01C46.67 119.88 48.04 120.11 49.15 120.03L49.75 121.91H43.2Z" fill="#BA4422"/>
<path d="M89.05 116.96C89.08 118.19 89.23 119.59 87.67 119.73C85.45 119.94 85.27 118.93 85.41 116.96H89.05Z" fill="#BA4422"/>
<path d="M79.74 121.91C79.91 121.51 79.85 120.3 80.17 120.08C80.33 119.98 83.63 119.95 83.78 120.04C83.84 120.07 84.3599 120.86 84.6899 121.09C85.0999 121.37 85.82 121.39 85.85 121.9H79.74V121.91Z" fill="#BA4422"/>
<path d="M43.64 116.96C43.64 118.57 43.98 119.69 41.97 119.74C39.96 119.79 40.24 118.53 40.15 116.96H43.64Z" fill="#BA4422"/>
<path d="M80.32 159.62C80.32 159.62 80.49 159.6 80.47 159.26C80.44 158.82 80.21 158.35 80.32 157.87C80.71 158.13 82.02 157.91 82.19 158.03C82.29 158.1 82.27 158.62 82.5 158.74C82.5 158.79 82.5 158.84 82.5 158.89C82.55 159.27 82.5601 159.41 82.6501 159.76C82.7501 160.19 83.09 160.67 82.94 161.22H80.61C80.64 160.68 80.37 160.13 80.32 159.62Z" fill="#635D4E"/>
<path d="M83.23 91.3301H81.34V94.5301H83.23V91.3301Z" fill="#BA4422"/>
<path d="M32.29 116.52C32.31 116.92 32.35 117.81 31.9 117.96C31.03 118.24 27.47 117.04 26.9 116.09L32.29 116.52Z" fill="#BA4422"/>
<path d="M47.71 91.6301V94.5401H45.8199V91.4801C46.4599 91.4801 47.1 91.4201 47.71 91.6301Z" fill="#BA4422"/>
<path d="M102.15 116.09C100.95 117.46 98.83 117.98 97.05 117.98C97.09 117.74 97 116.57 97.05 116.52C97.23 116.34 101.47 116.39 102.15 116.09Z" fill="#BA4422"/>
<path d="M66.2 69.2001H62.71C62.99 68.9001 63.11 67.49 63.28 67.37C63.47 67.23 65.5199 67.2401 65.6899 67.4501C65.9399 67.7501 65.94 68.8001 66.2 69.2001Z" fill="#635D4E"/>
<path d="M77.84 121.91H75.22V120.16C76.03 120.33 77.05 119.98 77.77 120C78.68 120.02 77.91 121.33 77.84 121.91Z" fill="#BA4422"/>
<path d="M53.6801 120.02V121.91H51.5C51.35 121.28 51.13 120.68 51.21 120.02H53.6801Z" fill="#BA4422"/>
<path d="M91.82 123.8C91.69 124.53 92.49 125.87 91.46 125.99C89.26 126.26 89.7501 125.56 89.9301 123.8H91.82Z" fill="#BA4422"/>
<path d="M76.97 123.8H74.9301V125.98H76.97V123.8Z" fill="#BA4422"/>
<path d="M39.2701 123.8V125.98C38.8301 125.9 37.4 126.2 37.25 125.74C37.17 125.48 37.2501 123.94 37.3901 123.81C37.5201 123.7 38.9401 123.86 39.2701 123.79V123.8Z" fill="#BA4422"/>
<path d="M54.26 123.8H52.37V125.98H54.26V123.8Z" fill="#BA4422"/>
<path d="M66.34 116.96V118.12H63.07C62.79 118.12 62.84 117.19 62.85 116.96H66.34Z" fill="#BA4422"/>
<path d="M78.5699 160.2L78.0699 159.9C69.2399 159.83 60.4001 160.02 51.5601 159.91C51.3101 159.91 50.91 160 50.76 159.76L78.42 159.83C78.57 159.92 78.5201 160.1 78.5601 160.2H78.5699Z" fill="#FADEAF"/>
<path d="M54.55 116.96C54.55 117.1 54.46 118.12 54.4 118.12H51.05V116.96H54.54H54.55Z" fill="#BA4422"/>
<path d="M77.7 116.96C77.78 117.01 77.89 117.93 77.85 118.12H74.58C74.3 118.12 74.35 117.19 74.36 116.96C74.89 117.07 77.47 116.81 77.71 116.96H77.7Z" fill="#BA4422"/>
<path d="M37.5999 121.91C37.1399 121.77 37.7 120.44 37.53 120.02C38.74 119.74 39.0599 120.92 39.9499 121.32C40.4499 121.55 40.87 121.3 40.74 121.92C39.94 121.77 38.28 122.13 37.61 121.92L37.5999 121.91Z" fill="#BA4422"/>
<path d="M49.17 116.96H45.97V118.12H49.17V116.96Z" fill="#BA4422"/>
<path d="M91.67 121.91H88.76C88.62 121.35 89.14 121.47 89.54 121.16C90.98 120.05 91.89 118.95 91.67 121.91Z" fill="#BA4422"/>
<path d="M83.0799 116.96C83.0799 116.96 83.27 118.12 83.01 118.12H80.17C80.11 118.12 79.97 117.11 80.02 116.96C80.43 117.04 82.9699 116.85 83.0799 116.96Z" fill="#BA4422"/>
<path d="M35.2 116.81H37.75C37.98 116.81 38.11 117.72 37.83 117.91C37.74 117.97 36.5001 118.14 36.2901 118.13C35.2701 118.11 35.07 117.8 35.2 116.81Z" fill="#BA4422"/>
<path d="M52.08 88.28V89.59H49.82C49.52 89.59 49.6 88.52 49.6 88.28H52.07H52.08Z" fill="#BA4422"/>
<path d="M88.76 87.8398C88.1 88.5398 86.28 89.1499 85.34 89.1599C85.03 89.1599 85.15 89.1598 85.12 88.9398C85.04 88.4398 85.01 87.8398 85.63 87.8398H88.76Z" fill="#BA4422"/>
<path d="M43.78 87.99C43.85 88.07 43.75 88.92 43.78 89.15C42.47 89.16 41.35 88.48 40.14 88.13C39.92 87.93 40.1599 87.87 40.3599 87.84C40.7799 87.79 43.62 87.84 43.78 87.99Z" fill="#BA4422"/>
<path d="M94 116.81C94.09 117.68 94.01 118.1 93.05 118.13C92.85 118.13 91.45 117.88 91.4 117.82C91.29 117.69 91.3799 116.82 91.5999 116.82H94V116.81Z" fill="#BA4422"/>
<path d="M74.9301 88.28V89.44H72.3101C72.3001 89.2 72.2501 88.28 72.5301 88.28H74.9301Z" fill="#BA4422"/>
<path d="M56.59 88.4199H54.12V89.5799H56.59V88.4199Z" fill="#BA4422"/>
<path d="M79.3 88.28H76.97V89.44H79.3V88.28Z" fill="#BA4422"/>
<path d="M83.23 87.99V89.45H81.48C81.28 87.72 81.75 87.96 83.23 87.99Z" fill="#BA4422"/>
<path d="M47.6899 88.3C47.7999 88.48 47.66 89.16 47.71 89.44H45.8199V88.13C46.1699 88.15 47.5399 88.05 47.6899 88.3Z" fill="#BA4422"/>
<path d="M35.4799 121.46C34.9399 121.76 33.4399 120.66 33.4599 120.23C33.4799 119.93 35.3 119.93 35.5 120.08C35.83 120.31 35.5299 121.11 35.4799 121.46Z" fill="#BA4422"/>
<path d="M95.5999 120.17C95.4499 121.1 94.44 121.59 93.56 121.48C93.27 119.65 94.1699 119.88 95.5999 120.17Z" fill="#BA4422"/>
<path d="M82.65 159.77C82.57 159.42 82.55 159.28 82.5 158.9C82.76 159.06 82.62 159.5 82.65 159.77Z" fill="#FADEAF"/>
<path d="M96.33 79.9801C96.43 80.0301 96.2401 80.23 96.0401 80.12C95.9401 80.07 96.13 79.8701 96.33 79.9801Z" fill="#635D4E"/>
<path d="M86.14 60.03C82.21 59.06 78.36 57.28 75.22 54.72C74.93 54.49 73.3601 52.6499 73.0601 53.5799C72.7401 54.5699 74.64 57.8099 75.25 58.7699C75.72 59.5199 78.74 62.98 75.71 61.37C72.63 59.73 71.02 56.63 68.53 54.72C67.79 54.15 67.27 53.91 66.66 54.75C66.04 55.62 65.0299 60.75 63.1899 58.97C62.2399 58.05 61.62 53.8299 59.64 55.2999C57.44 57.4799 54.89 60.73 52.21 62.28C51.78 62.53 51.45 62.74 50.91 62.66C50.91 62.45 50.89 62.24 50.95 62.04C51.13 61.42 52.67 59.49 53.12 58.68C53.6 57.83 56.09 53.37 53.38 54.57C52.33 55.03 50.94 56.25 49.88 56.89C47.42 58.39 45.73 59.37 42.91 60.03C45.81 56.99 48.83 54.06 51.72 51C53.23 49.4 56.97 44.51 58.77 43.93C60.57 43.35 61.11 44.23 62.49 44.31C63.26 44.35 63.81 43.8799 64.38 43.8599C64.99 43.8299 65.55 44.3099 66.11 44.2999C67.53 44.2699 68.14 43.1099 69.98 43.7999C71.86 44.5099 75.91 49.7899 77.55 51.5199C80.23 54.3599 83.28 57.37 86.14 60.03Z" fill="#FEF8EF"/>
<path d="M22.53 37.6099C21.1 37.4199 19.17 36.8299 18.6 35.3599C18.65 34.9499 19.9401 35.69 20.1801 34.89C20.5601 33.61 18.21 33.3299 17.4 33.4299C14.7 33.7499 11.84 36.07 8.67004 34.95L5.06006 33.97H8.47998C11.92 33.97 15.22 29.7299 18.23 29.7399C20.3 29.7399 20.13 31.1299 21.14 32.3699C23.25 34.9599 28.49 35.0299 30.45 32.2099C32.11 29.8299 30.48 26.7999 27.41 27.2799C26.32 27.4499 25.19 29.1099 26.17 29.8099C27.04 30.4299 27.31 29.4499 27.76 29.2399C29.4 28.4899 29.92 31.0099 27.76 31.9999C23.92 33.7599 19.59 29.8199 22.74 25.9599C26.65 21.1699 36.6 23.67 34.64 30.88C34.45 31.57 33.01 33.86 34.64 33.51C35.58 33.3 36.41 31.54 36.6 30.66C36.73 30.07 36.72 28.0699 36.85 27.8599C37.06 27.4999 38.6 27.4 39.04 27.42C41.22 27.5 43.65 29.03 43.12 31.51C42.76 33.2 39.9 34.0899 39.46 32.5199C39.34 32.0799 41.07 30.46 39.48 30.32C37.67 30.16 37.22 32.5699 38.24 33.8999C39.63 35.6999 42.5799 35.4399 44.0699 33.8999C44.8299 33.1199 44.63 32.1999 45.88 32.0799C48.52 31.8099 50.91 33.97 53.3 33.97H55.41C55.3 34.22 54.75 34.37 54.51 34.45C51.77 35.35 50.89 34.7299 48.35 34.5599C45.54 34.3699 44.91 35.8599 42.7 36.7699C38.6199 38.4399 36.01 35.6199 31.92 36.0299C30.68 36.1499 29.52 36.7299 28.34 37.0299L22.52 37.6099H22.53Z" fill="#FADEAF"/>
<path d="M28.36 37.03C26.47 37.51 24.49 37.87 22.54 37.61L28.36 37.03Z" fill="#FEF8EF"/>
<path d="M89.85 12.5699C89.95 12.5699 90.4701 12.1899 90.5001 12.5699C89.0601 13.0299 87.6201 13.5399 86.0601 13.4399C83.9601 13.3099 81.7001 11.9499 79.6501 11.9699C76.7401 12.0099 74.26 14.3599 71.35 14.5999C67.91 14.8799 65.6301 12.9099 62.1601 13.7099C60.3701 14.1199 59.4 14.7599 57.37 14.6099C55.04 14.4399 53.21 12.6899 51.1 12.4399C49.16 12.2099 47.8101 12.9899 46.0001 13.1299C43.5401 13.3299 41.39 12.5899 39.11 11.8399C39.07 11.5899 39.46 11.6799 39.62 11.6999C42.08 11.8999 44.21 11.9799 46.57 11.0799C48.65 10.2899 49.7601 9.07992 52.2801 9.36992C53.3701 9.49992 53.57 10.2299 54.32 10.8199C56.94 12.9099 60.8401 12.6999 62.8901 9.93993C64.8201 7.34993 63.18 4.34992 59.86 4.86992C57.88 5.17992 57.8401 8.00994 59.6801 7.44994C60.1601 7.29994 60.27 6.39992 61.24 6.82992C62.03 7.18992 61.65 8.30991 61.24 8.85991C58.82 12.1699 52.06 8.77992 55.36 4.42992C59.08 -0.470078 68.5401 2.48993 65.7801 9.02993C65.5201 9.62993 64.1001 11.0799 65.1301 11.3799C66.5101 11.7799 67.93 9.08993 68.07 7.96993C68.19 7.02993 68.01 6.08993 67.96 5.15993C70.69 4.46993 73.8 6.33992 73.32 9.42992C73.13 10.5999 70.91 12.0299 70.59 10.8599C70.42 10.2499 71.56 9.54993 70.73 8.83993C69.42 7.72993 67.92 10.5999 69.11 12.1999C70.44 13.9899 73.2501 13.0299 74.5001 11.6199C74.8501 11.2199 75.3201 10.1699 75.5201 10.0199C76.2401 9.47992 78.97 9.38994 79.85 9.59994C81.89 10.0899 83.9901 12.5599 86.5001 12.5599C87.5901 12.5599 88.77 12.6299 89.85 12.5599V12.5699Z" fill="#FADEAF"/>
<path d="M127.33 33.39C127.29 33.61 127.06 33.67 126.89 33.75C125.55 34.4 123.09 34.54 121.62 34.37C120.98 34.29 118.19 33.44 117.94 32.95C117.66 32.4 117.9 31.26 116.81 31.38C116.05 31.46 116.37 33.15 115.91 33.98C114.41 36.73 109.61 37.52 106.8 36.96C104.99 36.6 103.5 35.41 101.63 35.57C100.17 35.69 98.58 37.09 96.91 37.4C93.87 37.98 91.95 36.86 89.33 35.79C86.33 34.56 85.13 35.66 82.27 35.43C81.37 35.36 80.59 35.01 79.73 34.84C79.81 34.65 80.4899 34.59 80.6899 34.57C83.3099 34.29 85.91 32.73 88.24 32.95C88.64 32.99 89.82 33.3 90.1 33.52C90.31 33.68 90.67 34.52 91 34.84C92.91 36.69 97.4 36.4 97.62 33.31C97.68 32.5 97.25 31.32 96.26 31.66C95.53 31.91 96.2901 33.26 95.4301 33.89C93.7801 35.08 91.4 33.34 92.12 31.16C93.23 27.84 99.69 27.59 99.95 31.57C99.99 32.17 99.42 33.6 100.71 33.22C102.06 32.82 101.55 30.27 101.02 29.33C100.78 28.91 99.8401 28 99.8101 27.91C99.5101 27.03 101.46 25.67 102.14 25.33C104.9 23.94 108.76 23.93 110.77 26.56C113.55 30.19 110.64 35.02 106.34 33.03C104.24 32.06 104.54 29.01 106.21 29.23C107.48 29.39 107.08 30.59 107.51 30.84C108.75 31.58 109.87 29.04 107.9 27.83C105.93 26.62 103.48 27.76 103.06 30.03C101.94 36.14 111.47 37.22 113.33 31.86C113.9 30.22 113.35 29.67 115.58 29.45C120.19 29.01 121.15 33.38 124.75 33.38H127.3L127.33 33.39Z" fill="#FADEAF"/>
<path d="M72.46 97.74C72.4 98.12 72.6099 99.23 72.3199 99.42C71.8699 99.73 66.54 99.33 65.56 99.46C65.12 99.31 65.3899 98.13 65.3199 97.73H72.4499L72.46 97.74Z" fill="#020701"/>
<path d="M64.02 97.74C63.99 98.05 64.1501 99.49 63.8001 99.49H57.1C56.78 99.49 56.78 97.74 57.1 97.74H64.01H64.02Z" fill="#020701"/>
<path d="M74.1501 97.62C74.3901 97.54 78.34 97.55 78.61 97.62C79.17 97.78 79.11 99.2501 78.87 99.4201C78.68 99.5601 74.4401 99.56 74.1501 99.46C73.7801 99.34 73.7801 97.73 74.1501 97.61V97.62Z" fill="#020701"/>
<path d="M55.14 97.74V99.49H50.26C49.94 99.49 49.94 97.74 50.26 97.74H55.14Z" fill="#020701"/>
<path d="M48.44 97.74V99.49H44.44C44.09 99.49 44.25 98.05 44.22 97.74H48.44Z" fill="#020701"/>
<path d="M80.97 97.74H84.75C85.07 97.74 85.07 99.49 84.75 99.49H80.97C80.65 99.49 80.65 97.74 80.97 97.74Z" fill="#020701"/>
<path d="M39.7099 143.75H31.6999C31.5999 143.75 31.37 141.86 31.77 141.86H39.4799C39.8399 141.86 39.6599 143.42 39.6999 143.75H39.7099Z" fill="#020701"/>
<path d="M89.87 141.88H97.4001C97.7801 142 97.72 143.54 97.5 143.69C97.03 144.02 90.94 143.59 89.87 143.73C89.5 143.61 89.5 142 89.87 141.88Z" fill="#020701"/>
<path d="M48.88 159.04C48.73 159.77 48.6699 160.51 48.4399 161.22H46.26C46.28 160.42 46.46 159.65 46.7 158.89C46.8 158.58 47.04 158.26 46.99 157.87C47.52 158.04 48.2501 158.13 48.8101 158.02L48.88 159.03V159.04Z" fill="#635D4E"/>
</svg>
