<svg width="86" height="126" viewBox="0 0 86 126" fill="none" xmlns="http://www.w3.org/2000/svg">
<path d="M55.99 28.37C57 27.55 57.96 26.7099 59.13 26.1299C62.11 24.66 66.34 24.75 69.65 24.36C73.75 23.89 77.92 23.2299 81.85 21.9599C82.85 21.6399 84.27 20.72 85.31 21.35C85.87 21.69 85.83 22.32 85.82 22.9C85.68 27.74 82.59 37.85 79.87 41.88C75.78 47.94 67.17 50.0599 60.22 49.9199C59.6 49.91 58.9 49.65 58.31 49.97C58.07 54.53 57.42 59.06 56.59 63.5499C56.46 64.2499 55.58 67.5699 55.83 67.9699C58.39 68.7899 59.16 71.91 56.26 72.9299C58.64 76.5699 58.94 81.5999 56.88 85.4699C58.1 86.1399 59.02 87.2699 59.66 88.4899C62.18 93.2599 61.12 102.01 59.96 107.15C59.38 109.7 58.61 112.42 56.98 114.49C57.9 114.99 58.45 115.26 58.66 116.37C58.91 117.69 58.9 121.98 58.64 123.28C58.23 125.41 55.2 125.35 53.45 125.48C46.59 126 38.77 126 31.91 125.48C29.79 125.32 27.31 125.28 27.07 122.67C26.94 121.23 26.87 117.82 27.17 116.48C27.37 115.59 27.85 114.93 28.75 114.67C26.65 111.46 25.75 107.65 25.2 103.89C24.48 98.9799 23.79 90.8799 27.19 86.8599C27.69 86.27 28.39 85.8199 28.84 85.2199C27.11 81.7899 27.34 77.8099 28.83 74.3399C28.94 74.0799 29.47 73.1899 29.47 73.0199C29.47 72.7799 29.06 72.7599 28.87 72.6399C27.26 71.6199 27.26 69.7099 28.75 68.5699C29.1 68.2999 29.79 68.1199 30 67.9499C30.06 67.8999 30.09 67.8499 30.09 67.7699C29.19 62.7799 28.2 57.6899 27.68 52.6399C27.65 52.32 27.71 51.9799 27.68 51.66C27.65 51.34 27.57 50.4 27.49 50.16C27.46 50.0799 27.42 50.06 27.37 50.02C27.08 49.81 24.49 49.95 23.9 49.93C18.09 49.6899 11.56 48.11 7.48001 43.74C3.86001 39.86 1.38002 31.3699 0.490022 26.16C0.300022 25.0499 -0.0999824 23.09 0.220018 22.0599C0.460018 21.2999 0.950012 21.08 1.73001 21.18C2.72001 21.3 4.57001 22.16 5.68001 22.4799C9.59001 23.6 13.63 24.0999 17.67 24.5499C21.48 24.9699 25.01 24.68 28.3 27.01C28.5 27.15 29.57 28.19 29.73 28.03C29.58 25 29.6 21.94 29.91 18.91C30.18 16.32 30.62 13.1799 33.29 11.9699C34.03 11.6299 34.71 11.86 34.72 10.8099C34.74 8.46995 34.49 5.75995 35.1 3.44995C36.12 -0.42005 43.95 -0.33005 46.95 0.44995C51.39 1.60995 50.97 4.44995 51.1 8.31995C51.12 9.01995 50.96 10.8099 51.11 11.3299C51.18 11.5699 52.27 11.7999 52.61 11.9699C56.16 13.7599 55.87 19.26 55.99 22.65C55.99 22.82 56.08 22.99 56.08 23.18C56.13 24.92 56 26.65 55.99 28.3899V28.37ZM49.22 7.00995C48.91 5.68995 49.59 4.27995 48.46 3.26995C46.89 1.86995 43.44 1.80995 41.43 1.92995C40.06 2.00995 36.97 2.55995 36.69 4.21995L36.58 6.99995C37.62 6.69995 38.67 6.41995 39.75 6.29995C42.55 5.97995 45.33 6.07995 48.08 6.66995C48.47 6.74995 48.84 6.89995 49.22 6.99995V7.00995ZM49.22 9.05995C48.31 8.70995 47.36 8.43995 46.39 8.27995C44.04 7.89995 41.03 7.87995 38.7 8.36995C37.94 8.52995 37.23 8.82995 36.49 9.05995V10.8799C36.49 11.0199 36.86 11.0199 36.98 11.0199C38.26 10.9799 39.67 10.6999 40.98 10.6499C42.96 10.5799 45.24 10.6499 47.21 10.8299C47.88 10.8899 48.54 11.07 49.21 11.0999V9.04995L49.22 9.05995ZM53.58 15.9099C53.17 14.3799 51.87 13.5899 50.39 13.2699C46.66 12.45 41.4 12.4799 37.6 12.8899C35.43 13.1299 33.06 13.4499 32.21 15.7799C32.82 15.7499 33.42 15.5199 34.04 15.4699C35.79 15.3399 37.9 15.67 39.62 16.03C40.42 16.2 42.33 16.8899 42.94 16.9C43.73 16.9 45.53 16.23 46.44 16.04C48.7 15.57 51.33 15.2899 53.58 15.9199V15.9099ZM37.47 27.2999H35.65C35.23 27.2999 33.84 26.79 33.47 26.54C32.67 25.98 32.3 24.6 32.16 23.67C31.25 17.83 36.06 17.71 39.91 20.2C40.18 20.38 40.65 20.9 40.9 20.9C41.22 20.9 41.76 20.59 42.12 20.51C42.75 20.36 43.36 20.2899 44 20.4799C44.25 20.5599 44.79 20.9399 44.99 20.8899C45.1 20.8599 45.65 20.32 45.82 20.2C46.53 19.72 47.43 19.2099 48.27 19C51.85 18.1 53.97 19.3099 53.59 23.16C53.47 24.34 53.11 26.17 51.93 26.75C51.71 26.86 50.46 27.27 50.24 27.29C49.99 27.32 49.78 27.2 49.54 27.2C49.08 27.2 48.62 27.21 48.16 27.2C48.56 27.81 48.8 28.7299 49.62 28.8099C50.35 28.8799 52.89 28.27 53.45 27.82C54.25 27.18 54.22 25.5299 54.27 24.5599C54.35 22.8699 54.2 20.81 54.08 19.1C53.96 17.21 51.79 17.24 50.34 17.32C47.85 17.4599 46.03 18.2199 43.73 18.8099C42.54 19.1199 41.23 18.2299 39.99 17.9699C38.41 17.6399 34.64 17 33.19 17.35C32.24 17.57 31.79 18.08 31.7 19.0599C31.48 21.5599 31.42 24.3 31.7 26.79C31.75 27.22 31.92 27.5599 32.27 27.82C32.81 28.2299 35.02 28.6999 35.74 28.7099C36.81 28.74 37.25 28.29 37.48 27.28L37.47 27.2999ZM50.18 20.3799C49.51 20.3899 48.77 20.6 48.15 20.85C47.83 20.9799 46.44 21.7099 46.32 21.9599C46.18 22.2699 46.51 22.6199 46.61 22.91C46.74 23.28 47.25 25.06 47.44 25.2C47.63 25.34 48.46 25.49 48.73 25.51C50.84 25.68 51.7 24.9399 51.97 22.8799C52.17 21.3599 51.96 20.3399 50.18 20.3799ZM34.96 20.4699C33.73 20.65 33.66 21.5599 33.74 22.6299C33.83 23.9499 34.34 25.37 35.83 25.52C36.35 25.57 37.86 25.5199 38.27 25.2099C38.44 25.08 38.79 23.5 38.94 23.12C39.07 22.79 39.52 22.25 39.38 21.9599C39.32 21.8399 38.69 21.4 38.53 21.2999C37.54 20.6899 36.12 20.2999 34.96 20.4699ZM46.37 33.7999C47.78 33.63 49.6 33.53 48.95 31.62C48.39 29.97 46.92 28.36 46.14 26.69C45.45 25.19 44.69 21.4 42.31 22.2299C40.17 22.9799 40.08 25.99 39.26 27.7199C38.69 28.92 37.66 29.7599 37.15 31.1299C36.33 33.34 37.45 33.5499 39.42 33.7099C39.45 32.7 37.78 32.7299 37.54 32.43C37.43 32.29 37.5 31.7199 37.56 31.5499C37.61 31.42 37.95 31.31 38.08 31.27C39.5 30.83 41.02 32.5499 41.62 33.6899C41.99 34.3799 42.16 35.34 42.93 35.77C43.25 35.77 44.02 34.2 44.24 33.8699C44.75 33.09 45.39 31.9 46.24 31.51C46.85 31.2199 48.11 31.02 48.22 31.91C48.32 32.7099 48.1 32.4599 47.58 32.68C47.06 32.9 46.49 33.2399 46.36 33.82L46.37 33.7999ZM83.76 23.2999C80.58 24.5599 77.21 25.2299 73.84 25.7999L72.54 29.7099C73.74 29.9199 74.93 29.8899 76.15 29.8799C77.66 29.8799 78.99 29.86 80.48 29.41C81.97 28.9599 82.63 28.5199 83.11 27.0499C83.27 26.5599 83.98 23.55 83.76 23.29V23.2999ZM13.53 29.7099L12.14 25.7999C9.63002 25.4499 7.14002 24.9699 4.71002 24.2299C4.35002 24.1199 2.16001 23.2599 2.04001 23.3799C2.02001 23.92 2.06001 24.4699 2.15001 25C2.26001 25.6399 2.61002 26.9 2.86002 27.5C3.35002 28.69 4.12001 29.09 5.31001 29.41C7.94001 30.1299 10.84 30.1 13.52 29.7L13.53 29.7099ZM31.67 36.9C31.74 36.8 31.67 36.59 31.64 36.47C31.28 35.07 30.1 32.54 29.35 31.28C27.28 27.8 25 27.13 21.13 26.68C18.78 26.41 16.4 26.35 14.05 26.0599C14.39 27.74 15.26 29.68 16.37 31C18.41 33.43 23.53 33.84 26.46 35.24C27.8 35.88 28.94 37.0099 30.05 37.9799C30.22 38.02 30.89 37.3699 31.12 37.2099C31.25 37.11 31.65 36.9399 31.67 36.91V36.9ZM71.83 26.0599C70.97 26 70.14 26.24 69.29 26.33C66.04 26.65 62.12 26.5099 59.25 28.2199C56.38 29.93 55.15 33.7799 54.03 36.75C54.74 36.9 55.25 37.52 55.86 37.88C56.99 36.8899 57.85 35.9199 59.26 35.25C63.35 33.31 68.13 33.79 70.61 29.33C70.83 28.93 72.04 26.27 71.84 26.07L71.83 26.0599ZM31.6 29.44C31.36 32.54 32.81 36.77 35.87 38.0299C38.61 39.16 45.25 39.24 48.17 38.68C51.93 37.95 53.52 34.75 54.09 31.25C54.13 30.9799 54.24 29.39 53.98 29.36C53.9 29.36 52.81 29.8899 52.55 29.9699C51.82 30.1899 51.12 30.2199 50.38 30.34C50.66 31.4 50.92 32.32 50.56 33.41C49.96 35.25 47.77 35.1399 46.24 35.59C44.95 35.97 45.25 36.18 44.59 37.15C43.72 38.42 42.69 38.9799 41.52 37.6399C41.13 37.2 40.61 35.8799 40.27 35.6899C39.88 35.4699 38.24 35.34 37.65 35.1899C36.52 34.91 35.65 34.6199 35.24 33.41C34.82 32.1699 35.26 31.43 35.42 30.25C34.44 30.32 33.55 30.11 32.64 29.79C32.3 29.67 32.03 29.36 31.6 29.45V29.44ZM16.11 33.27C15.75 32.91 15.35 32.58 15 32.2C14.82 32.01 14.5 31.43 14.29 31.3899C10.73 32.0799 7.13002 31.8 3.66002 30.86C3.50002 31.02 4.53001 34.2099 4.70001 34.6699C4.82001 34.9799 4.98002 35.6899 5.30002 35.7599C9.07002 35.8999 12.72 34.77 16.11 33.27ZM82.24 30.87C81.21 31.1 80.19 31.4 79.14 31.5599C76.59 31.9399 73.98 31.7999 71.44 31.4C70.96 32.0999 70.43 32.79 69.69 33.2299C69.69 33.45 71.64 34.1399 71.96 34.2599C74.76 35.2799 77.58 35.86 80.58 35.75C80.67 35.7299 80.75 35.69 80.82 35.63C81 35.4799 81.73 33.07 81.85 32.65C82.01 32.06 82.1 31.46 82.25 30.87H82.24ZM21.45 35.49C20.22 35.29 19.14 34.64 17.94 34.33C14.71 35.85 11.55 37.1499 7.96002 37.5299C7.36002 37.59 6.58002 37.5299 6.00002 37.6199C5.89002 37.6399 5.83001 37.58 5.87001 37.75C5.91001 37.9799 6.61001 39.1199 6.78001 39.4199C7.12002 40 8.33001 42.03 8.95001 42.15C9.29001 42.22 10.66 42.04 11.08 41.9599C14.47 41.3699 18.16 38.79 20.62 36.45C20.75 36.33 21.56 35.57 21.46 35.47L21.45 35.49ZM79.93 37.63C75.6 37.67 71.56 36.33 67.77 34.34C66.62 34.6899 65.54 35.29 64.35 35.5C64.32 35.63 64.37 35.65 64.44 35.72C66.23 37.76 70.27 40.5099 72.83 41.3899C73.7 41.6899 76.1 42.37 76.91 42.13C77.79 41.87 79.06 39.5099 79.5 38.6699C79.58 38.5099 80.02 37.72 79.93 37.63ZM75.39 43.86C73.26 43.72 71.21 42.77 69.37 41.74C66.8 40.3 64.41 38.41 62.43 36.22C62.04 36.33 59.73 37.1 59.65 37.33C59.52 37.73 60.09 38.58 60.31 38.95C62.06 41.9 65.12 45.45 68.54 46.3899C70.62 46.9599 73.3 45.36 75.02 44.24C75.08 44.2 75.52 43.9499 75.39 43.8499V43.86ZM26.15 37.38C26.01 37.13 23.59 36.2299 23.29 36.31C23.21 36.33 22.27 37.4 22.07 37.59C19.72 39.79 15.78 42.5099 12.7 43.4399C12.15 43.6099 11.16 43.67 10.73 43.86C10.63 43.91 10.65 43.9899 10.68 44.07C10.89 44.5999 14.35 46.23 15.03 46.4C18.44 47.23 22.19 43.7 24.06 41.18C24.91 40.04 25.76 38.75 26.15 37.38ZM37.2 56.1399H35.91C35.74 56.1399 34.45 55.7 34.23 55.59C31.79 54.4 31.28 50.9399 32.62 48.75C33.03 48.08 33.68 47.5799 34.09 46.91C33.81 46.1699 31.92 44.41 33.16 43.77C34.13 43.27 34.6 44.75 35.16 45.31C36.56 46.7 41 49.0999 42.94 49.0499C45.04 49 49.18 46.85 50.68 45.36C51.3 44.74 51.83 43.09 52.95 43.9C53.91 44.59 52.11 46.18 51.9 46.91C54.56 49.1699 54.81 53.4899 51.61 55.3699C50.55 55.9899 49.62 55.9399 48.5 56.2799C48.42 56.61 48.61 58.5499 48.75 58.8699C48.89 59.1899 49.37 59.31 49.62 59.52C51.81 61.36 52.3 64.8299 51.98 67.5299H53.36C53.41 67.5299 54.01 67.3199 54.08 67.2699C54.25 67.1299 54.34 66.7999 54.38 66.5899C54.75 64.8099 54.84 62.59 55.11 60.74C56.03 54.57 58.6 43.7 53.91 38.6399C53.83 38.5599 53.19 37.9599 53.14 37.9399C52.85 37.7999 52.39 38.5499 52.12 38.79C49.27 41.36 40.66 41.2899 37.12 40.3499C35.45 39.91 33.99 39.16 32.8 37.9C32.74 37.86 32.71 37.91 32.67 37.9399C32.62 37.9699 32.02 38.66 31.91 38.79C28.9 42.26 28.93 48.79 29.47 53.16C29.92 56.7599 30.66 60.75 31.25 64.3699C31.35 64.9999 31.57 66.7299 31.79 67.2099C31.96 67.5899 33.38 67.6899 33.75 67.5299C34.04 67.3999 33.82 67.0699 33.81 66.7999C33.75 64.6 34.06 62.13 35.51 60.3899C35.84 59.9899 36.87 59.2999 37 59.0299C37.37 58.27 37.12 56.99 37.2 56.16V56.1399ZM27.5 47.95C27.45 45.11 27.92 42.35 29.18 39.79C29.2 39.6 27.97 38.52 27.73 38.34C26.04 41.63 23.89 44.9 20.62 46.81C20.41 46.94 19.36 47.3699 19.31 47.4199C19.17 47.57 19.34 47.57 19.44 47.5999C20.38 47.8699 22.01 48 23.01 48.04C23.55 48.06 27.34 48.11 27.5 47.95ZM66.58 47.5999C66.61 47.4399 66.54 47.4199 66.43 47.3499C66.02 47.0999 65.41 46.8799 64.96 46.5999C62.26 44.9499 60.34 42.4599 58.86 39.7C58.69 39.38 58.44 38.37 58.04 38.56C57.98 38.59 57.09 39.47 57.06 39.54C56.98 39.68 56.96 39.71 56.99 39.88C57.06 40.33 57.57 41.25 57.73 41.82C58.03 42.8899 58.22 44.14 58.31 45.24C58.34 45.62 58.3 47.7899 58.48 47.9199C59.66 48 60.82 48.0799 62.01 48.0499L66.59 47.5999H66.58ZM50 48.24C48.98 48.93 47.62 49.2799 46.62 49.93C45.98 50.3499 45.95 50.69 46.05 51.45C46.17 52.36 46.52 53.1699 47.28 53.6899C49.71 55.3799 52.33 53.29 52.08 50.58C52 49.7 51.03 48.03 50.01 48.24H50ZM35.58 48.4199C35.07 48.5299 34.11 49.7299 33.9 50.2099C32.39 53.6699 37.84 56.24 39.45 52.65C39.71 52.07 40.06 50.68 39.52 50.2299C39.25 50.0099 38.18 49.4599 37.8 49.2799C37.39 49.07 35.93 48.3499 35.58 48.4199ZM43.07 61.75C43.72 60.56 44.3 59.45 45.45 58.65C45.72 58.46 46.74 58 46.82 57.8899C47.15 57.43 46.53 55.3899 46.04 55.27C45.79 55.2099 45.6 55.4899 45.15 55.1899C44.14 54.52 44.75 51.67 44.1 51.08C43.81 50.81 42.21 50.83 41.89 51.08C41.58 51.31 41.53 53.1999 41.45 53.6899C41.35 54.32 41.17 55.16 40.47 55.38C40.16 55.4799 39.91 55.4 39.67 55.47C39.12 55.63 38.63 57.5799 39.01 58.0099C39.05 58.0599 39.98 58.3699 40.23 58.5299C40.96 58.9899 41.49 59.75 41.97 60.4399C42.12 60.6699 42.73 62.0099 43.09 61.7599L43.07 61.75ZM46.05 60.54C45.02 61.54 44.66 63.7299 42.77 63.5299C41.13 63.36 40.61 61.31 39.55 60.43C39.42 60.32 38.69 59.91 38.57 59.9C38.1 59.86 37.04 61.24 36.78 61.63C35.56 63.47 35.39 65.1299 35.61 67.3099C35.62 67.4399 35.66 67.7 35.75 67.7999C35.84 67.91 37.95 68.7099 38.32 68.8799C39.99 69.6599 41.48 70.4699 42.71 71.8899C43.44 71.3599 43.96 70.5999 44.73 70.0999C46.29 69.0899 48.27 68.4699 50 67.8099C50.4 67.4599 50.36 65.3899 50.31 64.8199C50.19 63.4999 49.39 61.66 48.4 60.77C47.55 60.01 47 59.63 46.07 60.54H46.05ZM43.69 77.8499C45.18 73.8799 49.46 72.5099 53.23 71.5899C54.02 71.3999 55.29 71.2899 55.97 71.0299C56.88 70.6799 56.44 70.31 55.82 69.9799C52.88 68.4299 46.97 70.5399 44.64 72.6999C44.24 73.0699 43.01 74.7599 42.59 74.7499C42.3 74.7499 41.67 73.6699 41.44 73.4199C39.05 70.7499 34.08 68.6799 30.56 69.7499C30.04 69.91 28.86 70.2799 29.51 70.9399C29.95 71.38 31.41 71.4399 32.07 71.5899C35.83 72.4399 40.81 73.8799 42.12 77.9599L43.7 77.8699L43.69 77.8499ZM34.35 73.9399C33.72 73.31 32.17 73.2099 31.42 73.7199C29.84 74.8099 29.08 78.5899 29.19 80.3899C29.51 85.6899 33.36 87.5799 38.27 86.5399C38.56 86.4799 39.98 86.0499 40.1 85.8699C40.3 85.56 39.56 84.3299 39.51 83.91C39.43 83.85 38.09 84.4199 37.82 84.4899C35.67 85.0299 33.68 84.5699 32.17 82.9299C29.5 80.0399 30.56 75.1499 34.35 73.9399ZM46.38 83.8299C46.34 84.2599 45.49 85.6999 45.58 85.9899C45.69 86.3199 46.97 86.6199 47.31 86.6699C49.43 86.9699 52.67 86.88 54.39 85.4699C57.4 82.9899 57.41 76.2999 54.56 73.7299C53.88 73.1199 52.66 73.4499 51.9 73.8099C51.86 73.9899 51.97 73.9299 52.07 73.9899C52.86 74.4199 53.34 74.5799 53.94 75.3299C55.68 77.4999 55.37 81.5499 53.22 83.3299C51.19 85.02 48.69 84.6799 46.38 83.8299ZM35.94 75.2199C32.61 75.52 31.14 79.5499 33.55 81.9199C34.61 82.9699 37.13 83.3699 38.39 82.5699C39.23 82.0399 39 81.6199 39.22 80.8199C39.6 79.4599 40.62 78.8499 39.76 77.3899C39.08 76.2299 37.29 75.09 35.93 75.2199H35.94ZM49.11 75.2199C46.71 75.4799 45.3 77.7699 45.99 80.0699C46.59 82.0899 47.76 82.92 49.89 82.7599C54.88 82.38 54.47 74.6399 49.12 75.2199H49.11ZM42.52 79.4899C41.64 79.6699 40.94 81.2799 40.94 82.0999C40.94 82.7399 42.23 86.02 42.56 86.7999C42.63 86.9699 42.71 87.2899 42.93 87.3099C43.21 87.2499 43.74 85.9599 43.85 85.6499C44.09 85.0099 44.86 82.7599 44.85 82.1999C44.84 81.0399 43.88 79.2199 42.51 79.4999L42.52 79.4899ZM32.99 88.0399C32.19 87.7199 31.49 87.2199 30.82 86.9599C29.85 86.5799 28.94 87.5099 28.41 88.2399C26.22 91.2699 26.09 96.74 26.53 100.33C26.64 101.23 26.79 101.51 27.35 100.61C28.28 99.1199 28.19 97.1199 28.32 95.4399C28.68 94.34 28.15 92.4299 30.01 93.1299C30.01 95.1099 29.92 97.1099 29.54 99.0599C29.27 100.41 28.67 102.24 27.51 103.09C27.34 103.22 26.96 103.24 26.9 103.47C27.2 104.77 27.33 106.4 27.77 107.64C27.81 107.75 27.99 108.33 28.17 108.12C28.7 107.52 29.15 105.92 29.35 105.12C29.67 103.85 29.88 102.51 30.08 101.22C30.12 100.97 30.04 100.68 30.11 100.45C30.24 99.9799 31.15 99.9799 31.15 100.53C30.87 102.82 30.59 105.15 29.88 107.35C29.7 107.92 29.35 108.96 29.03 109.44C28.89 109.65 28.41 110.02 28.4 110.06C28.34 110.25 29.02 111.72 29.19 111.83C29.32 111.92 29.33 111.87 29.41 111.78C29.49 111.69 29.85 110.95 29.92 110.78C30.6 109.1 31.24 107.04 31.73 105.29C32.79 101.52 33.8 95.2799 33 91.4699C32.96 91.27 32.76 91.0499 32.76 90.8199C32.76 90.7199 33 90.1399 33.05 90.0999C33.27 89.8899 34.18 90.0999 34.41 90.3399C35.2 91.1599 34.68 94.4599 35.07 94.8399C35.46 95.2199 36.33 94.9099 36.71 94.5999C37.28 94.1299 38.3 92.41 38.81 92.2499C38.91 92.2199 39.01 92.1799 39.11 92.2199C39.23 92.2599 39.89 94.2599 40.04 94.5899C40.44 95.4599 41.91 97.9299 42.95 97.9199C44.03 97.9099 45.58 95.2699 45.97 94.3499C46.12 93.9899 46.56 92.2899 46.65 92.2299C46.99 92.0099 47.68 92.8299 47.88 93.0699C48.38 93.6499 48.68 94.3999 49.37 94.7899C49.9 95.09 50.91 95.3199 51 94.4999C51.11 93.5199 50.85 91.8599 51.11 90.9599C51.14 90.8599 51.56 90.2599 51.67 90.1799C52.23 89.7999 53.05 90.0099 53.05 90.7599C53.05 91.09 52.74 91.5699 52.7 91.9299C51.94 97.8099 53.66 105.73 55.95 111.19C56.02 111.36 56.27 112.12 56.53 111.95C56.69 111.84 57.38 110.28 57.32 110.09C57.29 109.99 57 109.86 56.88 109.72C56.28 108.99 55.81 107.26 55.57 106.31C55.06 104.32 54.82 102.28 54.65 100.24C54.81 100.31 55.31 100.24 55.4 100.26C55.64 100.34 55.69 101.8 55.75 102.13C56.02 103.8 56.39 106.02 57.11 107.54C57.22 107.77 57.47 108.51 57.78 108.12C58 107.85 58.44 105.96 58.53 105.49C58.62 105.05 58.99 103.7 58.76 103.39C58.66 103.25 58.27 103.14 58.09 103C56.58 101.84 56.05 98.1799 55.91 96.3699C56.04 95.4999 55.6 94.0699 55.84 93.2699C55.94 92.9299 56.78 92.9399 56.98 93.16C57.18 93.38 57.29 94.09 57.33 94.41C57.6 96.41 57.3 98.7099 58.33 100.53C58.41 100.68 58.95 101.43 59.11 101.3C59.38 99.52 59.44 97.71 59.38 95.91C59.32 94.1099 59.07 91.5599 58.32 89.8499C57.88 88.8499 57.24 87.8299 56.28 87.2599C55.06 86.5299 55.08 87.0399 54.09 87.5299C52.11 88.5099 50.89 88.8299 48.65 88.5799C47.43 88.4399 46.18 88.0599 45.01 87.7099C44.69 87.7699 44.07 89.9299 42.95 89.9299C41.77 89.9299 41.16 87.7299 40.72 87.6899C40.61 87.6799 39.28 88.1799 38.97 88.2599C36.78 88.8199 35.06 88.8999 32.99 88.0799V88.0399ZM38.61 95.4999C38.45 95.41 37.19 96.3299 36.8 96.4699C36.18 96.6899 35.55 96.6899 34.92 96.8199C34.93 97.6299 34.38 99.2299 34.57 99.9399C34.77 100.74 35.37 101.72 36.05 102.2C37.35 103.13 37.8 101.84 38.68 101.29C39.33 100.88 39.44 101.18 39.67 101.78C40.24 103.27 40.86 105.16 42.23 106.17C43.73 107.27 45.2 104.42 45.67 103.29C45.9 102.74 46.14 101.11 46.85 101.18C47.61 101.26 48.16 102.77 49.36 102.61C50.37 102.48 51.3 100.34 51.27 99.4399C51.27 99.17 50.84 96.9299 50.74 96.8599C49.8 96.8299 48.84 96.6199 48.07 96.0599C47.92 95.9499 47.53 95.4599 47.4 95.4899C46.45 97.2699 44.89 99.9999 42.51 99.6699C41.28 99.4999 39.81 97.5999 39.18 96.5899C39.07 96.4199 38.67 95.5399 38.62 95.5099L38.61 95.4999ZM51.71 102.79C51.71 102.79 51.67 102.96 51.58 103.06C50.84 103.84 49.78 104.47 48.66 104.28C48.31 104.22 47.51 103.61 47.35 103.72C47.25 103.78 46.49 105.56 46.3 105.88C45.77 106.75 44.94 107.58 44.05 108.08C42.99 108.68 42.66 108.6 41.66 107.9C40.75 107.26 40.05 106.38 39.5 105.43C39.33 105.14 38.67 103.7 38.54 103.63C38.27 103.49 37.98 103.91 37.77 104.02C36.73 104.58 35.25 103.91 34.44 103.19C34.33 103.09 34.07 102.58 33.91 102.7C33.41 105.18 32.96 107.59 32.17 110C31.99 110.54 30.53 114.19 30.7 114.36C30.94 114.39 31.81 114.36 31.93 114.17C32.03 114 31.86 113.64 31.87 113.44C31.93 110.87 33.22 108.29 36.24 109.14C36.56 109.23 37.01 109.6 37.26 109.64C37.53 109.68 37.8 109.37 38.06 109.32C38.43 109.24 39.4 109.33 39.78 109.43C41.1 109.75 41.84 111.22 41.99 112.47C42.02 112.73 41.94 113.44 42.04 113.58C42.2 113.81 43.56 113.85 43.74 113.49C43.81 113.34 43.83 112.31 43.9 111.96C44.22 110.29 45.44 108.7 47.32 109.1C47.77 109.2 48.38 109.71 48.64 109.73C48.77 109.74 49.76 109.27 50.15 109.23C51.59 109.07 53.14 109.79 53.54 111.25C53.77 112.08 53.71 112.65 53.74 113.45C53.78 114.39 54.34 114.2 55.08 114.21C55.08 114.08 55.08 113.96 55.06 113.83C54.73 112.27 53.64 110.03 53.15 108.35C52.62 106.55 52.27 104.7 51.88 102.87C51.9 102.78 51.72 102.8 51.7 102.82L51.71 102.79ZM37.29 116.32C37.33 116.26 37.29 115.15 37.29 114.94C37.29 114.78 37.6 113.63 37.69 113.48C38.1 112.82 39.08 112.92 39.22 113.72C39.31 114.25 38.84 115.83 39.59 116.02C40.14 116.16 40.24 115.35 40.29 114.93C40.4 114.1 40.33 112.58 40.21 111.74C40.1 111.04 38.94 111.08 38.41 111.18C38 111.26 37.59 111.7 37.14 111.7C36.76 111.7 36.39 111.2 36 111.05C35.42 110.83 34.02 110.8 33.89 111.56C33.74 112.46 33.67 114.57 33.82 115.45C33.88 115.8 34.09 116.34 34.54 116.22C35.36 116 34.23 113.27 35.58 113.06C35.82 113.02 36.38 113.3 36.45 113.53C36.69 114.31 36.39 115.53 36.58 116.16C36.67 116.48 37.21 116.41 37.27 116.31L37.29 116.32ZM51.68 111.36C51.47 111.15 50.72 110.96 50.42 110.97C49.72 110.99 48.93 111.83 48.39 111.67C48.25 111.63 47.98 111.33 47.76 111.23C47.27 111.01 46.27 110.96 45.84 111.3C45.24 111.77 45.3 115.21 45.7 115.87C46.24 116.77 46.57 115.78 46.63 115.21C46.71 114.4 46.22 113.03 47.38 113.13C49.08 113.28 48.17 115.48 48.59 116.26C48.66 116.4 49.09 116.47 49.2 116.4C49.49 116.22 49.12 113.96 49.32 113.45C49.49 113.04 50.1 112.93 50.48 113.04C51.05 113.21 50.82 115.17 51.09 115.64C51.36 116.11 51.88 115.72 52 115.33C52.21 114.66 51.9 113.45 51.87 112.72C51.85 112.26 52.15 111.85 51.67 111.37L51.68 111.36ZM43.97 115.6C43.28 115.62 42.62 115.72 41.93 115.6C41.64 117 40.66 118.61 38.99 117.95C38.79 117.87 38.48 117.56 38.34 117.57C38.11 117.58 37.69 118.02 37.34 118.08C36.47 118.22 36.2 117.74 35.74 117.72C35.45 117.7 35.28 117.92 35.01 117.98C34.12 118.15 33.19 117.68 32.69 116.96C32.47 116.65 32.42 116.32 32.17 116.05C30.91 116.29 28.92 115.72 28.76 117.51C28.66 118.63 28.6 120.85 28.67 121.96C28.72 122.82 28.72 123 29.54 123.31C30.54 123.69 32.23 123.71 33.34 123.78C38.52 124.11 43.72 124.08 48.92 123.86C51.1 123.77 53.93 123.84 56.02 123.39C56.62 123.26 56.99 123.15 57.07 122.48C57.2 121.31 57.16 118.96 57.07 117.76C57.05 117.5 56.97 116.83 56.87 116.63C56.46 115.83 54.42 115.93 53.65 115.96C53.39 116.33 53.36 116.69 53.06 117.06C52.62 117.6 51.93 117.87 51.24 117.82C50.94 117.8 50.26 117.47 50.19 117.48C49.77 117.55 49.49 118.18 48.57 118.09C47.99 118.03 47.52 117.39 47.32 117.37C47.08 117.35 46.85 117.65 46.62 117.73C45.15 118.25 44.02 116.98 43.99 115.59L43.97 115.6Z" fill="#020201"/>
<path d="M37.2 56.14C37.12 56.97 37.37 58.26 37 59.01C36.87 59.27 35.8399 59.97 35.5099 60.37C34.0599 62.11 33.75 64.58 33.81 66.78C33.81 67.05 34.04 67.38 33.75 67.51C33.38 67.68 31.9599 67.57 31.7899 67.19C31.5699 66.71 31.35 64.98 31.25 64.35C30.65 60.73 29.91 56.74 29.47 53.14C28.93 48.78 28.9 42.24 31.91 38.77C32.02 38.65 32.62 37.95 32.67 37.92C32.71 37.89 32.74 37.85 32.8 37.88C33.99 39.14 35.4599 39.88 37.1199 40.33C40.6599 41.27 49.2699 41.35 52.1199 38.77C52.3899 38.53 52.85 37.78 53.14 37.92C53.19 37.94 53.84 38.54 53.91 38.62C58.6 43.68 56.03 54.55 55.11 60.72C54.83 62.58 54.75 64.79 54.38 66.57C54.34 66.78 54.25 67.11 54.08 67.25C54.02 67.3 53.42 67.51 53.36 67.51H51.9799C52.2999 64.81 51.8099 61.34 49.6199 59.5C49.3799 59.29 48.89 59.17 48.75 58.85C48.61 58.53 48.43 56.59 48.5 56.26C49.62 55.92 50.56 55.97 51.61 55.35C54.81 53.47 54.5599 49.15 51.8999 46.89C52.1099 46.16 53.9099 44.57 52.9499 43.88C51.8299 43.07 51.3099 44.73 50.6799 45.34C49.1799 46.83 45.04 48.98 42.94 49.03C41 49.08 36.56 46.68 35.16 45.29C34.6 44.73 34.13 43.26 33.16 43.75C31.92 44.39 33.8099 46.16 34.0899 46.89C33.6899 47.56 33.0299 48.06 32.6199 48.73C31.2799 50.92 31.7899 54.38 34.2299 55.57C34.4499 55.68 35.74 56.12 35.91 56.12H37.2V56.14Z" fill="#F0A718"/>
<path d="M32.99 88.04C35.05 88.86 36.78 88.77 38.97 88.22C39.28 88.14 40.61 87.64 40.72 87.65C41.15 87.69 41.76 89.89 42.95 89.89C44.07 89.89 44.69 87.73 45.01 87.67C46.18 88.02 47.43 88.41 48.65 88.54C50.9 88.79 52.12 88.47 54.09 87.49C55.08 87 55.06 86.5 56.28 87.22C57.23 87.79 57.88 88.81 58.32 89.81C59.07 91.53 59.31 94.05 59.38 95.87C59.45 97.69 59.38 99.48 59.11 101.26C58.94 101.38 58.41 100.63 58.33 100.49C57.3 98.67 57.6 96.37 57.33 94.37C57.29 94.05 57.2 93.34 56.98 93.12C56.76 92.9 55.94 92.89 55.84 93.23C55.61 94.03 56.04 95.46 55.91 96.33C56.05 98.14 56.59 101.81 58.09 102.96C58.27 103.1 58.66 103.21 58.76 103.35C58.99 103.66 58.63 105.01 58.53 105.45C58.43 105.92 57.99 107.8 57.78 108.08C57.47 108.46 57.22 107.73 57.11 107.5C56.4 105.98 56.02 103.76 55.75 102.09C55.7 101.76 55.65 100.3 55.4 100.22C55.31 100.19 54.81 100.27 54.65 100.2C54.81 102.24 55.05 104.29 55.57 106.27C55.81 107.21 56.28 108.95 56.88 109.68C57 109.82 57.29 109.95 57.32 110.05C57.38 110.24 56.69 111.8 56.53 111.91C56.28 112.08 56.02 111.32 55.95 111.15C53.67 105.69 51.94 97.77 52.7 91.89C52.75 91.53 53.06 91.06 53.05 90.72C53.05 89.98 52.23 89.76 51.67 90.14C51.56 90.22 51.14 90.81 51.11 90.92C50.85 91.83 51.11 93.48 51 94.46C50.91 95.28 49.9 95.06 49.37 94.75C48.68 94.36 48.38 93.61 47.88 93.03C47.67 92.79 46.98 91.97 46.65 92.19C46.56 92.25 46.12 93.95 45.97 94.31C45.58 95.22 44.03 97.87 42.95 97.88C41.91 97.88 40.44 95.42 40.04 94.55C39.89 94.22 39.23 92.22 39.11 92.18C39.01 92.15 38.9 92.18 38.81 92.21C38.3 92.37 37.28 94.09 36.71 94.56C36.34 94.87 35.48 95.2 35.07 94.8C34.66 94.4 35.2 91.12 34.41 90.3C34.18 90.06 33.27 89.85 33.05 90.06C33.01 90.1 32.76 90.68 32.76 90.78C32.76 91.01 32.96 91.23 33 91.43C33.8 95.24 32.79 101.48 31.73 105.25C31.24 107 30.6 109.06 29.92 110.74C29.85 110.91 29.5 111.66 29.41 111.74C29.32 111.82 29.32 111.88 29.19 111.79C29.03 111.68 28.34 110.21 28.4 110.02C28.41 109.98 28.89 109.61 29.03 109.4C29.35 108.92 29.69 107.88 29.88 107.31C30.59 105.1 30.87 102.78 31.15 100.49C31.15 99.94 30.24 99.95 30.11 100.41C30.04 100.64 30.12 100.93 30.08 101.18C29.88 102.47 29.67 103.81 29.35 105.08C29.15 105.88 28.7 107.48 28.17 108.08C27.99 108.29 27.81 107.71 27.77 107.6C27.32 106.36 27.2 104.73 26.9 103.43C26.95 103.2 27.33 103.18 27.51 103.05C28.67 102.2 29.27 100.38 29.54 99.02C29.93 97.08 30.01 95.07 30.01 93.09C28.15 92.39 28.68 94.3 28.32 95.4C28.19 97.08 28.28 99.08 27.35 100.57C26.79 101.47 26.64 101.18 26.53 100.29C26.1 96.7 26.23 91.23 28.41 88.2C28.94 87.47 29.85 86.54 30.82 86.92C31.49 87.18 32.2 87.68 32.99 88V88.04Z" fill="#3CA498"/>
<path d="M43.97 115.6C44 116.99 45.13 118.26 46.6 117.74C46.83 117.66 47.07 117.35 47.3 117.38C47.5 117.4 47.97 118.04 48.55 118.1C49.47 118.2 49.75 117.56 50.17 117.49C50.24 117.48 50.92 117.8 51.22 117.83C51.91 117.88 52.6 117.61 53.04 117.07C53.35 116.7 53.38 116.34 53.63 115.97C54.4 115.94 56.44 115.84 56.85 116.64C56.95 116.84 57.03 117.51 57.05 117.77C57.13 118.98 57.18 121.32 57.05 122.49C56.97 123.16 56.6 123.27 56 123.4C53.91 123.85 51.08 123.78 48.9 123.87C43.71 124.08 38.5 124.12 33.32 123.79C32.21 123.72 30.52 123.7 29.52 123.32C28.7 123.01 28.7 122.83 28.65 121.97C28.58 120.86 28.65 118.64 28.74 117.52C28.9 115.73 30.89 116.3 32.15 116.06C32.4 116.33 32.45 116.66 32.67 116.97C33.18 117.69 34.1 118.16 34.99 117.99C35.26 117.94 35.43 117.72 35.72 117.73C36.17 117.75 36.44 118.23 37.32 118.09C37.67 118.03 38.09 117.59 38.32 117.58C38.47 117.58 38.77 117.88 38.97 117.96C40.65 118.62 41.63 117.01 41.91 115.61C42.6 115.72 43.25 115.62 43.95 115.61L43.97 115.6Z" fill="#89468C"/>
<path d="M31.67 36.8999C31.67 36.8999 31.25 37.0999 31.12 37.1999C30.9 37.3599 30.22 38.0199 30.05 37.9699C28.94 36.9999 27.8001 35.8799 26.4601 35.2299C23.5301 33.8299 18.41 33.4099 16.37 30.9899C15.26 29.6699 14.4 27.7299 14.05 26.0499C16.4 26.3399 18.7801 26.3999 21.1301 26.6699C25.0001 27.1199 27.2701 27.7899 29.3501 31.2699C30.1001 32.5299 31.28 35.0599 31.64 36.4599C31.67 36.5799 31.74 36.7899 31.67 36.8899V36.8999Z" fill="#C23714"/>
<path d="M71.83 26.06C72.03 26.27 70.82 28.93 70.6 29.32C68.12 33.78 63.34 33.3 59.25 35.24C57.84 35.91 56.99 36.88 55.85 37.87C55.25 37.5 54.74 36.89 54.02 36.74C55.14 33.78 56.37 29.92 59.24 28.21C62.11 26.5 66.03 26.64 69.28 26.32C70.13 26.24 70.96 26 71.82 26.05L71.83 26.06Z" fill="#C23714"/>
<path d="M51.71 102.79C51.71 102.79 51.91 102.75 51.89 102.84C52.28 104.67 52.64 106.52 53.16 108.32C53.65 110 54.74 112.23 55.07 113.8C55.1 113.93 55.1 114.05 55.09 114.18C54.35 114.18 53.79 114.37 53.75 113.42C53.72 112.62 53.78 112.05 53.55 111.22C53.15 109.76 51.6 109.04 50.16 109.2C49.77 109.24 48.78 109.72 48.65 109.7C48.39 109.68 47.77 109.17 47.33 109.07C45.45 108.66 44.22 110.26 43.91 111.93C43.84 112.28 43.82 113.31 43.75 113.46C43.57 113.82 42.22 113.79 42.05 113.55C41.95 113.41 42.03 112.71 42 112.44C41.85 111.19 41.11 109.72 39.79 109.4C39.4 109.31 38.44 109.22 38.07 109.29C37.81 109.34 37.54 109.65 37.27 109.61C37.02 109.57 36.56 109.2 36.25 109.11C33.23 108.26 31.93 110.84 31.88 113.41C31.88 113.61 32.05 113.98 31.94 114.14C31.82 114.34 30.95 114.36 30.71 114.33C30.54 114.15 32 110.5 32.18 109.97C32.97 107.56 33.42 105.15 33.92 102.67C34.08 102.55 34.34 103.06 34.45 103.16C35.26 103.88 36.74 104.54 37.78 103.99C37.99 103.88 38.28 103.45 38.55 103.6C38.68 103.67 39.35 105.11 39.51 105.4C40.06 106.35 40.75 107.23 41.67 107.87C42.67 108.57 43 108.65 44.06 108.05C44.95 107.55 45.78 106.72 46.31 105.85C46.5 105.53 47.26 103.76 47.36 103.69C47.52 103.59 48.33 104.2 48.67 104.25C49.79 104.44 50.85 103.8 51.59 103.03C51.68 102.94 51.71 102.77 51.72 102.76L51.71 102.79Z" fill="#3CA498"/>
<path d="M38.61 95.5C38.66 95.53 39.07 96.41 39.17 96.58C39.8 97.59 41.26 99.49 42.5 99.66C44.88 99.99 46.44 97.27 47.39 95.48C47.52 95.45 47.91 95.94 48.06 96.05C48.83 96.62 49.79 96.83 50.73 96.85C50.84 96.93 51.26 99.16 51.26 99.43C51.28 100.32 50.36 102.46 49.35 102.6C48.15 102.76 47.61 101.25 46.84 101.17C46.13 101.1 45.9 102.73 45.66 103.28C45.19 104.41 43.71 107.25 42.22 106.16C40.86 105.16 40.24 103.26 39.66 101.77C39.43 101.16 39.32 100.87 38.67 101.28C37.79 101.83 37.34 103.12 36.04 102.19C35.36 101.71 34.76 100.73 34.56 99.93C34.38 99.21 34.92 97.62 34.91 96.81C35.54 96.68 36.17 96.68 36.79 96.46C37.18 96.32 38.44 95.4 38.6 95.49L38.61 95.5Z" fill="#C23714"/>
<path d="M46.0501 60.54C46.9701 59.64 47.5301 60.01 48.3801 60.77C49.3701 61.66 50.1701 63.5 50.2901 64.82C50.3401 65.39 50.3901 67.46 49.9801 67.81C48.2501 68.47 46.2701 69.09 44.7101 70.1C43.9401 70.6 43.4201 71.36 42.6901 71.89C41.4601 70.47 39.9701 69.67 38.3001 68.88C37.9301 68.71 35.8201 67.9 35.7301 67.8C35.6501 67.7 35.6101 67.45 35.5901 67.31C35.3701 65.14 35.5501 63.47 36.7601 61.63C37.0201 61.24 38.0801 59.86 38.5501 59.9C38.6701 59.91 39.4001 60.32 39.5301 60.43C40.5901 61.31 41.1101 63.36 42.7501 63.53C44.6401 63.73 45.0101 61.54 46.0301 60.54H46.0501ZM41.7101 67.33C42.2501 66.81 41.7601 65.8 41.4001 65.25C40.5501 63.93 38.5401 63.63 37.5101 64.95C36.7701 65.91 37.2001 67.38 38.3601 66.86C38.6601 66.73 38.7801 65.93 39.3001 65.93C39.9101 65.93 40.6801 68.31 41.7201 67.32L41.7101 67.33ZM43.9901 67.43C44.0801 67.52 44.3301 67.55 44.4601 67.55C45.4201 67.49 45.5901 65.99 46.3401 65.94C46.8901 65.91 47.0601 66.71 47.5401 66.87C49.0501 67.38 49.0601 65.22 48.0301 64.51C46.7201 63.62 44.8101 64.19 44.1101 65.57C43.9101 65.97 43.6601 67.08 44.0001 67.42L43.9901 67.43Z" fill="#C23714"/>
<path d="M31.6 29.44C32.03 29.34 32.31 29.66 32.64 29.78C33.55 30.1 34.45 30.32 35.42 30.24C35.26 31.42 34.82 32.16 35.24 33.4C35.65 34.6 36.52 34.9 37.65 35.18C38.24 35.32 39.88 35.46 40.27 35.68C40.61 35.87 41.14 37.19 41.52 37.63C42.69 38.97 43.72 38.42 44.59 37.14C45.25 36.17 44.95 35.96 46.24 35.58C47.77 35.13 49.96 35.23 50.56 33.4C50.92 32.31 50.66 31.39 50.38 30.33C51.12 30.21 51.82 30.19 52.55 29.96C52.81 29.88 53.9 29.34 53.98 29.35C54.24 29.37 54.13 30.96 54.09 31.24C53.52 34.74 51.93 37.94 48.17 38.67C45.25 39.24 38.61 39.15 35.87 38.02C32.8 36.76 31.35 32.53 31.6 29.43V29.44Z" fill="#F0A718"/>
<path d="M46.37 33.8C46.5 33.23 47.08 32.88 47.59 32.66C48.1 32.44 48.33 32.7 48.23 31.89C48.12 31 46.86 31.21 46.25 31.49C45.4 31.88 44.76 33.07 44.25 33.85C44.04 34.18 43.27 35.75 42.94 35.75C42.17 35.32 42 34.36 41.63 33.67C41.03 32.54 39.51 30.82 38.09 31.25C37.95 31.29 37.61 31.4 37.57 31.53C37.51 31.7 37.44 32.28 37.55 32.41C37.79 32.71 39.46 32.68 39.43 33.69C37.47 33.53 36.34 33.32 37.16 31.11C37.67 29.74 38.7 28.9 39.27 27.7C40.09 25.97 40.18 22.95 42.32 22.21C44.7 21.38 45.45 25.17 46.15 26.67C46.93 28.34 48.4 29.95 48.96 31.6C49.61 33.51 47.79 33.62 46.38 33.78L46.37 33.8ZM43.08 30.78C43.22 30.65 43.29 27.91 43.26 27.53C43.24 27.26 43.06 25.72 42.86 25.71C42.73 25.71 42.73 26.01 42.72 26.1C42.63 27.32 42.54 29.18 42.74 30.36C42.75 30.43 42.92 30.92 43.07 30.78H43.08Z" fill="#F0A718"/>
<path d="M43.6901 77.85L42.1101 77.94C40.8001 73.86 35.8201 72.42 32.0601 71.57C31.4001 71.42 29.9401 71.37 29.5001 70.92C28.8501 70.26 30.0301 69.89 30.5501 69.73C34.0701 68.67 39.0501 70.73 41.4301 73.4C41.6601 73.66 42.3001 74.73 42.5801 74.73C43.0001 74.74 44.2201 73.06 44.6301 72.68C46.9501 70.52 52.8601 68.42 55.8101 69.96C56.4301 70.29 56.8701 70.66 55.9601 71.01C55.2801 71.27 54.0101 71.37 53.2201 71.57C49.4501 72.5 45.1801 73.87 43.6801 77.83L43.6901 77.85Z" fill="#3CA498"/>
<path d="M37.47 27.3C37.24 28.31 36.8 28.76 35.73 28.73C35.02 28.71 32.81 28.24 32.26 27.84C31.91 27.58 31.74 27.24 31.69 26.81C31.4 24.32 31.46 21.58 31.69 19.08C31.78 18.1 32.23 17.59 33.18 17.37C34.64 17.03 38.4 17.67 39.98 17.99C41.22 18.25 42.53 19.13 43.72 18.83C46.02 18.24 47.84 17.48 50.33 17.34C51.78 17.26 53.95 17.22 54.07 19.12C54.18 20.83 54.34 22.89 54.26 24.58C54.21 25.55 54.25 27.2 53.44 27.84C52.88 28.28 50.34 28.89 49.61 28.83C48.78 28.75 48.55 27.84 48.15 27.22C48.61 27.22 49.07 27.22 49.53 27.22C49.77 27.22 49.98 27.34 50.23 27.31C50.45 27.28 51.69 26.88 51.92 26.77C53.1 26.19 53.46 24.36 53.58 23.18C53.96 19.33 51.84 18.12 48.26 19.02C47.42 19.23 46.52 19.74 45.81 20.22C45.63 20.34 45.08 20.88 44.98 20.91C44.78 20.96 44.25 20.58 43.99 20.5C43.36 20.31 42.75 20.38 42.11 20.53C41.75 20.62 41.21 20.93 40.89 20.92C40.64 20.92 40.17 20.39 39.9 20.22C36.06 17.73 31.25 17.86 32.15 23.69C32.29 24.62 32.66 26 33.46 26.56C33.82 26.81 35.21 27.32 35.64 27.32H37.46L37.47 27.3Z" fill="#3CA498"/>
<path d="M26.15 37.3799C25.76 38.7499 24.91 40.0399 24.06 41.1799C22.19 43.6999 18.44 47.2299 15.03 46.3999C14.35 46.2299 10.89 44.5999 10.68 44.0699C10.65 43.9899 10.62 43.8999 10.73 43.8599C11.16 43.6699 12.15 43.6099 12.7 43.4399C15.78 42.5099 19.72 39.7799 22.07 37.5899C22.27 37.3999 23.21 36.3399 23.29 36.3099C23.59 36.2199 26.01 37.1299 26.15 37.3799Z" fill="#C23714"/>
<path d="M75.3901 43.86C75.5301 43.96 75.08 44.21 75.02 44.25C73.3 45.36 70.62 46.96 68.54 46.4C65.12 45.47 62.06 41.91 60.31 38.96C60.09 38.59 59.52 37.74 59.65 37.34C59.73 37.11 62.03 36.34 62.43 36.23C64.41 38.42 66.79 40.3 69.37 41.75C71.21 42.78 73.2601 43.73 75.3901 43.87V43.86Z" fill="#C23714"/>
<path d="M21.45 35.49C21.54 35.6 20.74 36.35 20.61 36.47C18.16 38.8 14.46 41.39 11.07 41.98C10.66 42.05 9.28002 42.23 8.94002 42.17C8.32002 42.05 7.11002 40.02 6.77002 39.44C6.60002 39.14 5.91001 38 5.86001 37.77C5.83001 37.59 5.88002 37.65 5.99002 37.64C6.57002 37.56 7.35001 37.61 7.95001 37.55C11.54 37.17 14.7 35.86 17.93 34.35C19.13 34.66 20.21 35.3 21.44 35.51L21.45 35.49Z" fill="#F0A718"/>
<path d="M79.9301 37.63C80.0201 37.72 79.5801 38.51 79.5001 38.67C79.0601 39.51 77.7901 41.87 76.9101 42.13C76.1001 42.37 73.7 41.69 72.83 41.39C70.27 40.51 66.2401 37.75 64.4401 35.72C64.3701 35.64 64.3201 35.62 64.3501 35.5C65.5301 35.3 66.6201 34.7 67.7701 34.34C71.5501 36.34 75.5901 37.67 79.9301 37.63Z" fill="#F0A718"/>
<path d="M53.58 15.9099C51.33 15.2799 48.71 15.5499 46.44 16.0299C45.53 16.2199 43.73 16.8999 42.94 16.8899C42.34 16.8899 40.4299 16.1899 39.6199 16.0199C37.8899 15.6599 35.7899 15.3299 34.0399 15.4599C33.4199 15.5099 32.83 15.7399 32.21 15.7699C33.06 13.4399 35.42 13.1099 37.6 12.8799C41.4 12.4699 46.66 12.4399 50.39 13.2599C51.86 13.5799 53.16 14.3699 53.58 15.8999V15.9099Z" fill="#F0A718"/>
<path d="M49.2201 7.00993C48.8401 6.90993 48.4701 6.76993 48.0801 6.67993C45.3401 6.08993 42.5501 5.98993 39.7501 6.30993C38.6701 6.42993 37.6201 6.70993 36.5801 7.00993L36.6901 4.22993C36.9701 2.56993 40.0601 2.01993 41.4301 1.93993C43.4401 1.81993 46.8901 1.87993 48.4601 3.27993C49.5901 4.27993 48.9101 5.68993 49.2201 7.01993V7.00993Z" fill="#89468C"/>
<path d="M13.53 29.7099C10.85 30.1099 7.94997 30.1299 5.31997 29.4199C4.12997 29.0999 3.35996 28.7099 2.86996 27.5099C2.61996 26.9099 2.26997 25.6599 2.15997 25.0099C2.06997 24.4799 2.02997 23.9299 2.04997 23.3899C2.16997 23.2699 4.35997 24.1299 4.71997 24.2399C7.14997 24.9699 9.62996 25.4599 12.15 25.8099L13.54 29.7199L13.53 29.7099Z" fill="#C23714"/>
<path d="M83.76 23.2999C83.99 23.5499 83.27 26.5699 83.11 27.0599C82.63 28.5299 81.93 28.9899 80.48 29.4199C79.03 29.8499 77.66 29.8799 76.15 29.8899C74.93 29.8899 73.74 29.9199 72.54 29.7199L73.84 25.8099C77.21 25.2399 80.58 24.5699 83.76 23.3099V23.2999Z" fill="#C23714"/>
<path d="M43.07 61.7499C42.72 61.9899 42.11 60.6499 41.95 60.4299C41.48 59.7299 40.95 58.9699 40.21 58.5199C39.96 58.3599 39.04 58.0499 38.99 57.9999C38.62 57.5699 39.1 55.6099 39.65 55.4599C39.89 55.3899 40.14 55.4699 40.45 55.3699C41.15 55.1499 41.33 54.3099 41.43 53.6799C41.51 53.1899 41.56 51.2999 41.87 51.0699C42.19 50.8299 43.79 50.8099 44.08 51.0699C44.73 51.6699 44.12 54.5199 45.13 55.1799C45.58 55.4799 45.77 55.1999 46.02 55.2599C46.51 55.3699 47.13 57.4199 46.8 57.8799C46.72 57.9899 45.7 58.4599 45.43 58.6399C44.28 59.4299 43.71 60.5499 43.05 61.7399L43.07 61.7499Z" fill="#C23714"/>
<path d="M46.38 83.8299C48.69 84.6799 51.19 85.0199 53.22 83.3299C55.36 81.5499 55.68 77.4999 53.94 75.3299C53.34 74.5799 52.86 74.4299 52.07 73.9899C51.97 73.9299 51.85 73.9899 51.9 73.8099C52.66 73.4499 53.88 73.1199 54.56 73.7299C57.41 76.2999 57.4 82.9999 54.39 85.4699C52.67 86.8799 49.43 86.9699 47.31 86.6699C46.97 86.6199 45.69 86.3199 45.58 85.9899C45.48 85.6999 46.34 84.2599 46.38 83.8299Z" fill="#3CA498"/>
<path d="M82.2401 30.8699C82.0901 31.4599 82.0001 32.0599 81.8401 32.6499C81.7301 33.0699 80.9901 35.4799 80.8101 35.6299C80.7401 35.6899 80.6601 35.7199 80.5701 35.7499C77.5701 35.8599 74.7501 35.2699 71.9501 34.2599C71.6301 34.1399 69.6801 33.4499 69.6801 33.2299C70.4201 32.7899 70.9501 32.0999 71.4301 31.3999C73.9701 31.7999 76.5801 31.9299 79.1301 31.5599C80.1801 31.4099 81.2001 31.0999 82.2301 30.8699H82.2401Z" fill="#F0A718"/>
<path d="M34.35 73.9399C30.56 75.1599 29.49 80.0399 32.17 82.9299C33.68 84.5599 35.68 85.0299 37.82 84.4899C38.08 84.4199 39.43 83.8599 39.51 83.9099C39.55 84.3199 40.29 85.5499 40.1 85.8699C39.99 86.0499 38.57 86.4799 38.27 86.5399C33.36 87.5799 29.51 85.6899 29.19 80.3899C29.08 78.5899 29.84 74.8099 31.42 73.7199C32.17 73.2099 33.72 73.3099 34.35 73.9399Z" fill="#3CA498"/>
<path d="M16.11 33.27C12.72 34.77 9.07001 35.9 5.30001 35.76C4.97001 35.7 4.81 34.99 4.7 34.67C4.53 34.22 3.50001 31.02 3.66001 30.86C7.14001 31.8 10.74 32.07 14.29 31.39C14.5 31.43 14.82 32 15 32.2C15.35 32.58 15.75 32.9 16.11 33.27Z" fill="#F0A718"/>
<path d="M27.5 47.95C27.34 48.11 23.55 48.07 23.01 48.04C22.01 47.99 20.38 47.87 19.44 47.6C19.34 47.57 19.17 47.57 19.31 47.42C19.36 47.37 20.4 46.94 20.62 46.81C23.89 44.9 26.03 41.63 27.73 38.34C27.98 38.52 29.2 39.6 29.18 39.79C27.91 42.34 27.45 45.11 27.5 47.95Z" fill="#C23714"/>
<path d="M66.58 47.6L62 48.05C60.82 48.08 59.6501 48 58.4701 47.92C58.2901 47.79 58.3301 45.62 58.3001 45.24C58.2101 44.14 58.0201 42.88 57.7201 41.82C57.5601 41.26 57.05 40.33 56.98 39.88C56.95 39.71 56.9601 39.68 57.0501 39.54C57.0901 39.47 57.97 38.59 58.03 38.56C58.43 38.37 58.6801 39.38 58.8501 39.7C60.3301 42.46 62.2501 44.95 64.9501 46.6C65.4001 46.88 66.0201 47.1 66.4201 47.35C66.5301 47.42 66.6101 47.43 66.5701 47.6H66.58Z" fill="#C23714"/>
<path d="M35.9401 75.2199C37.3101 75.0899 39.0901 76.2299 39.7701 77.3899C40.6301 78.8399 39.6001 79.4599 39.2301 80.8199C39.0101 81.6099 39.2301 82.0299 38.4001 82.5699C37.1401 83.3699 34.6201 82.9699 33.5601 81.9199C31.1501 79.5399 32.6201 75.5199 35.9501 75.2199H35.9401ZM36.0201 76.9899C35.5101 77.0699 35.1301 77.3699 34.9001 77.8299C34.8101 78.0199 34.4801 78.9599 34.4401 79.1499C34.0801 81.0699 37.1301 81.4399 38.0001 80.2099C38.2601 79.8299 38.4801 78.9699 38.4501 78.5199C38.3401 77.2599 37.1501 76.7999 36.0201 76.9799V76.9899Z" fill="#F0A718"/>
<path d="M49.11 75.22C54.47 74.64 54.87 82.38 49.88 82.76C47.75 82.92 46.59 82.09 45.98 80.07C45.29 77.77 46.7 75.48 49.1 75.22H49.11ZM49.03 76.9C48.31 76.94 47.54 77.39 47.44 78.17C47.01 81.71 52.09 81.78 51.41 78.48C51.18 77.34 50.12 76.85 49.03 76.9Z" fill="#F0A718"/>
<path d="M49.22 9.05996V11.11C48.55 11.08 47.89 10.91 47.22 10.84C45.24 10.66 42.97 10.58 40.99 10.66C39.68 10.71 38.27 10.99 36.99 11.03C36.87 11.03 36.5 11.03 36.5 10.89V9.06996C37.24 8.83996 37.94 8.54996 38.71 8.37996C41.04 7.88996 44.05 7.90996 46.4 8.28996C47.37 8.44996 48.32 8.71996 49.23 9.06996L49.22 9.05996Z" fill="#F0A718"/>
<path d="M37.29 116.32C37.23 116.42 36.69 116.49 36.6 116.17C36.41 115.54 36.71 114.32 36.47 113.54C36.4 113.3 35.83 113.03 35.6 113.07C34.25 113.28 35.38 116 34.56 116.23C34.11 116.35 33.9 115.82 33.84 115.46C33.69 114.58 33.77 112.47 33.91 111.57C34.04 110.8 35.44 110.84 36.02 111.06C36.41 111.21 36.78 111.7 37.16 111.71C37.61 111.71 38.02 111.27 38.43 111.19C38.96 111.09 40.12 111.06 40.23 111.75C40.36 112.58 40.43 114.11 40.31 114.94C40.25 115.35 40.16 116.16 39.61 116.03C38.85 115.84 39.33 114.26 39.24 113.73C39.1 112.93 38.12 112.83 37.71 113.49C37.61 113.64 37.31 114.8 37.31 114.95C37.31 115.16 37.35 116.27 37.31 116.33L37.29 116.32Z" fill="#F0A718"/>
<path d="M51.6801 111.36C52.1601 111.84 51.8601 112.25 51.8801 112.71C51.9101 113.44 52.2101 114.65 52.0101 115.32C51.8901 115.71 51.3701 116.11 51.1001 115.63C50.8301 115.15 51.0601 113.2 50.4901 113.03C50.1101 112.91 49.5001 113.03 49.3301 113.44C49.1201 113.95 49.5001 116.21 49.2101 116.39C49.1001 116.46 48.6701 116.39 48.6001 116.25C48.1801 115.47 49.0901 113.27 47.3901 113.12C46.2401 113.02 46.7201 114.4 46.6401 115.2C46.5801 115.77 46.2501 116.77 45.7101 115.86C45.3101 115.19 45.2401 111.76 45.8501 111.29C46.2801 110.95 47.2901 111 47.7701 111.22C47.9801 111.32 48.2501 111.62 48.4001 111.66C48.9401 111.82 49.7301 110.99 50.4301 110.96C50.7301 110.95 51.4801 111.14 51.6901 111.35L51.6801 111.36Z" fill="#F0A718"/>
<path d="M42.52 79.4899C43.9 79.1999 44.85 81.0299 44.86 82.1899C44.86 82.7399 44.09 84.9999 43.86 85.6399C43.75 85.9499 43.22 87.2399 42.94 87.2999C42.72 87.2799 42.64 86.9699 42.57 86.7899C42.24 86.0199 40.95 82.7299 40.95 82.0899C40.95 81.2799 41.65 79.6699 42.53 79.4799L42.52 79.4899Z" fill="#C23714"/>
<path d="M35.58 48.4199C35.93 48.3499 37.39 49.0699 37.8 49.2799C38.17 49.4699 39.25 50.0099 39.52 50.2299C40.07 50.6799 39.71 52.0599 39.45 52.6499C37.84 56.2499 32.39 53.6699 33.9 50.2099C34.11 49.7299 35.08 48.5199 35.58 48.4199ZM35.54 52.5499C36.48 53.5499 38.38 52.9799 38.54 51.5599C38.7 50.1399 37.86 49.6099 36.53 49.7299C35.13 49.8599 34.6 51.5399 35.54 52.5499Z" fill="#FEFEFE"/>
<path d="M50 48.24C51.02 48.03 51.99 49.7 52.07 50.58C52.32 53.29 49.71 55.38 47.27 53.69C46.51 53.17 46.16 52.35 46.04 51.45C45.94 50.69 45.97 50.35 46.61 49.93C47.61 49.28 48.98 48.93 49.99 48.24H50ZM48.58 49.67C46.61 49.91 46.78 52.84 48.56 53.03C49.38 53.12 50.14 52.93 50.51 52.13C51.12 50.81 49.96 49.5 48.59 49.67H48.58Z" fill="#FEFEFE"/>
<path d="M50.18 20.3799C51.95 20.3499 52.17 21.3599 51.97 22.8799C51.7 24.9399 50.84 25.6899 48.73 25.5099C48.46 25.4899 47.63 25.3399 47.44 25.1999C47.25 25.0599 46.75 23.2799 46.61 22.9099C46.51 22.6199 46.18 22.2699 46.32 21.9599C46.44 21.7099 47.82 20.9799 48.15 20.8499C48.77 20.5999 49.51 20.3899 50.18 20.3799ZM50.26 21.6399C49.86 21.2599 49.26 21.1799 48.73 21.2499C47.11 21.4499 46.87 23.9899 48.49 24.5199C50.38 25.1399 51.6 22.8999 50.26 21.6399Z" fill="#FEFEFE"/>
<path d="M34.96 20.4699C36.13 20.2999 37.54 20.6899 38.53 21.2999C38.69 21.3999 39.33 21.8399 39.38 21.9599C39.51 22.2499 39.06 22.7899 38.94 23.1199C38.79 23.4999 38.44 25.0799 38.27 25.2099C37.86 25.5199 36.35 25.5799 35.83 25.5199C34.33 25.3699 33.83 23.9499 33.74 22.6299C33.67 21.5599 33.74 20.6499 34.96 20.4699ZM36.29 21.2699C34.52 21.5999 34.53 24.8399 36.79 24.6199C37.42 24.5599 38.25 23.9799 38.35 23.3299C38.56 21.9499 37.68 21.0099 36.28 21.2599L36.29 21.2699Z" fill="#FEFEFE"/>
<path d="M43.99 67.4299C43.64 67.0899 43.89 65.9799 44.1 65.5799C44.8 64.1999 46.71 63.6199 48.02 64.5199C49.06 65.2299 49.04 67.3899 47.53 66.8799C47.05 66.7199 46.88 65.9199 46.33 65.9499C45.58 65.9899 45.41 67.4999 44.45 67.5599C44.33 67.5599 44.07 67.5299 43.98 67.4399L43.99 67.4299Z" fill="#020201"/>
<path d="M41.71 67.3299C40.67 68.3199 39.9 65.9399 39.29 65.9399C38.78 65.9399 38.65 66.7299 38.35 66.8699C37.19 67.3899 36.76 65.9099 37.5 64.9599C38.53 63.6299 40.54 63.9399 41.39 65.2599C41.74 65.8099 42.24 66.8199 41.7 67.3399L41.71 67.3299Z" fill="#020201"/>
<path d="M43.0801 30.78C42.9301 30.92 42.7601 30.43 42.7501 30.36C42.5501 29.18 42.6301 27.32 42.7301 26.1C42.7301 26.01 42.7401 25.7 42.8701 25.71C43.0701 25.71 43.2601 27.26 43.2701 27.53C43.2901 27.91 43.2301 30.65 43.0901 30.78H43.0801Z" fill="#020201"/>
<path d="M36.02 76.9899C37.15 76.8099 38.34 77.2599 38.45 78.5299C38.49 78.9799 38.27 79.8499 38 80.2199C37.13 81.4499 34.09 81.0799 34.44 79.1599C34.48 78.9699 34.8 78.0299 34.9 77.8399C35.13 77.3799 35.51 77.0799 36.02 76.9999V76.9899Z" fill="#020201"/>
<path d="M49.0301 76.9C50.1201 76.85 51.1701 77.33 51.4101 78.48C52.0901 81.78 47.0101 81.71 47.4401 78.17C47.5301 77.4 48.3101 76.94 49.0301 76.9Z" fill="#020201"/>
<path d="M35.54 52.5499C34.6 51.5399 35.13 49.8599 36.53 49.7299C37.86 49.5999 38.69 50.1399 38.54 51.5599C38.39 52.9799 36.48 53.5599 35.54 52.5499Z" fill="#020201"/>
<path d="M50.2601 21.6399C51.6101 22.8999 50.3801 25.1399 48.4901 24.5199C46.8701 23.9899 47.1101 21.4499 48.7301 21.2499C49.2601 21.1799 49.8601 21.2599 50.2601 21.6399Z" fill="#020201"/>
<path d="M36.29 21.27C37.69 21.01 38.57 21.96 38.36 23.34C38.26 23.99 37.43 24.57 36.8 24.63C34.54 24.85 34.53 21.6 36.3 21.28L36.29 21.27Z" fill="#020201"/>
</svg>
