<svg width="87" height="73" viewBox="0 0 87 73" fill="none" xmlns="http://www.w3.org/2000/svg">
<path d="M1.53999 70.6599C-0.120012 69.3699 1.67999 66.7399 2.50999 65.4599C4.24999 62.7499 6.33999 60.1599 8.16999 57.4999C8.04999 53.1399 9.70998 48.6899 11.5 44.7799C14.58 38.0499 18.63 33.1299 23.87 28.0099C26.33 25.6099 28.64 24.4799 28.92 20.6199C29.35 14.8199 27.39 8.84992 31.9 4.02992C34.45 1.29992 40.03 -0.590085 43.59 0.839915C43.87 0.949915 44.55 1.39987 44.71 1.41987C45.27 1.46987 48 0.799891 48.87 0.689891C58.26 -0.50011 71.64 1.68986 78.85 8.21986C82.6 11.6099 85.84 17.7199 86.44 22.7499C86.52 23.3899 86.74 25.1599 86.35 25.6099C85.57 26.4999 84.26 25.2499 83.48 24.8599C79.96 23.0999 74.81 22.5099 70.88 22.3599C67.62 22.2299 64.43 22.6999 61.2 22.7899C59.06 22.8599 56.77 22.8599 54.66 22.5699C56.23 27.6999 57.74 33.4699 56.4 38.8199C54.72 45.4999 49.36 50.7599 43.38 53.7899C43.64 54.9899 43.45 56.2599 43.41 57.4799C43.5 57.8899 44.85 59.3299 45.25 59.3599C45.48 59.3799 45.86 59.2299 46.21 59.2499C47.61 59.3199 50.59 59.8499 51.76 60.6199C53.49 61.7499 52.1 63.7799 50.3 63.0899C50.33 63.4399 50.69 63.5599 50.85 63.8699C51.31 64.7399 51.2 66.1899 50.11 66.4699C49.49 66.6299 47.79 65.5899 47.06 65.3199C44.91 64.5399 42.57 64.2799 40.31 64.5799L42.49 65.8599C43.19 66.3799 43.5 67.1299 42.83 67.8399C42.07 68.6499 41.23 68.1099 40.32 67.9799C41.22 68.8399 41.35 71.3199 39.72 71.3799C39.31 71.3899 37.9 70.3499 37.41 70.0899C35.58 69.1299 32.55 68.2499 30.48 68.4099C29.52 68.4799 26.36 69.9599 26.17 68.4699C25.87 66.1699 28.01 64.5299 30.11 64.3199C29.55 63.6199 29.31 62.6299 29.17 61.7499C29.14 61.5999 29.19 61.2399 29.15 61.1899C29.13 61.1699 28.73 61.0799 28.56 60.9899C27.73 60.5299 26.95 59.7399 26.6 58.8599C25.15 59.1899 23.66 59.6899 22.25 60.1699C20.22 63.2299 16.73 71.2499 12.53 71.3999C11.86 71.4199 11.38 71.2799 10.93 70.7799C9.76997 71.5399 7.86997 72.6699 6.45997 72.6799C5.40997 72.6799 4.74998 71.7499 5.12998 70.7599C4.01998 70.9899 2.55999 71.4199 1.56999 70.6499L1.53999 70.6599ZM48.07 13.0199C56.33 13.5199 64.72 13.6099 72.53 16.6399C72.61 16.5399 71.78 14.7799 71.68 14.4599C70.73 11.3599 71.47 8.01989 75.19 7.80989C75.25 7.56989 75.15 7.6399 75.06 7.5699C74.64 7.2499 73.87 6.84991 73.39 6.58991C69.2 4.30991 64.11 3.0899 59.39 2.5099C54.92 1.9599 50.6 2.17987 46.16 2.91987C47.64 6.05987 47.84 9.59991 48.07 13.0199ZM33.07 5.62989C28.22 11.2899 33.18 20.9799 29.25 25.6299C27.96 27.1599 25.75 28.7599 24.25 30.1999C18.16 36.0499 12.79 43.9899 10.69 52.2699C10.43 53.3099 10.15 54.5199 10.16 55.5699C12.55 54.2499 15.01 52.8999 17.13 51.1599C17.56 50.8099 18.38 49.8399 18.77 49.6099C19.65 49.0999 20.36 50.1299 19.63 51.1099C18.95 52.0299 17.42 53.2299 16.48 53.9099L12.66 56.3099C17.53 55.9299 22.09 54.4699 26.16 51.7799C31.67 48.1499 38.87 39.7199 36.14 32.6699C35.9 32.0399 35.12 30.9099 35.02 30.3899C34.88 29.6999 35.53 29.1699 36.17 29.5699C37.34 30.3199 38.47 33.6499 38.61 34.9999C39.27 41.5599 33.14 49.2499 28.02 52.7799C23.22 56.0899 17.45 57.7799 11.66 58.3299C11.01 58.3899 10.11 58.1499 9.57997 58.5899C7.75997 61.4299 5.49999 64.1299 3.72999 66.9999C3.44999 67.4599 2.71997 68.6599 2.67997 69.1499C2.65997 69.4499 3.19998 69.4899 3.40998 69.4599C5.10998 69.1899 7.07999 66.7199 8.06999 65.3899C8.43999 64.8999 9.17997 63.4299 9.67997 63.2799C10.5 63.0199 10.9 63.7599 10.7 64.5099C10.4 65.6699 8.22999 68.3299 7.53999 69.6499C7.15999 70.3799 6.72998 70.9299 7.86998 70.5199C10.45 69.5899 12.03 66.6599 13.17 64.3399C13.46 63.7499 13.59 62.5899 14.51 62.7099C14.74 62.7399 15.12 62.9799 15.19 63.2099C15.44 64.0499 14.15 66.9799 13.74 67.8899C13.55 68.3099 13.09 68.9899 12.98 69.3599C12.9 69.6399 13.24 69.4899 13.37 69.4299C15.14 68.6299 17.03 65.5499 18.06 63.9099C18.79 62.7499 20.53 59.2099 21.52 58.6499C22.51 58.0899 24.01 57.8799 25.08 57.3699C25.32 56.3299 25.58 54.9999 26.96 55.2699C27.56 55.3899 27.79 57.0699 28.06 57.6799C29.55 60.9499 31.86 60.1499 32.51 56.8899C32.66 56.1599 32.61 54.4699 33.18 54.0499C33.75 53.6299 34.37 54.0799 34.59 54.6599C34.78 55.1699 34.44 55.3599 35.12 55.2399C36.99 54.9099 41.83 52.7599 43.57 51.7699C48.91 48.7299 53.85 43.5599 54.77 37.2899C52.22 38.5899 49.28 38.8799 46.62 37.7299C36.45 33.3699 28.37 11.4599 39.43 4.01991L42.23 2.29988C41.49 2.34988 40.67 2.22988 39.94 2.29988C37.66 2.50988 34.58 3.89991 33.08 5.64991L33.07 5.62989ZM51.43 21.7299C45.27 18.6199 46.53 12.6899 45.36 6.95991C45.22 6.27991 44.7 4.11986 44.29 3.65986C44.11 3.45986 42.99 3.97986 42.71 4.09986C32.27 8.81986 35.6 22.9699 40.96 30.3899C43.71 34.1999 49.33 39.1199 54.16 35.5499C55.23 34.7599 55.04 33.8999 54.98 32.6399C54.81 29.0599 53.63 25.5899 52.62 22.1899C52.24 22.0299 51.8 21.9099 51.43 21.7299ZM80.91 13.4099C79.46 11.2299 77.32 8.33989 74.31 9.74989C71.76 10.9499 73.6 15.6399 74.98 17.2199C75.62 17.9499 77.67 18.6099 78.63 19.0999C79.95 19.7699 81.23 20.5099 82.45 21.3399L84.65 23.0199C84.06 19.6699 82.79 16.2499 80.91 13.4199V13.4099ZM69.76 20.4599C69.85 20.6299 70.12 20.5599 70.29 20.5699C70.36 20.5699 70.43 20.5699 70.5 20.5699C73.28 20.5899 76.25 20.9399 78.96 21.5299C79.17 21.2599 78.81 21.3399 78.62 21.2399C75.19 19.3699 71.44 17.9699 67.66 16.9899C61.33 15.3499 54.88 15.2399 48.39 14.8299C49.34 21.6299 56.72 21.0999 61.95 20.9999L68.38 20.4599C68.84 20.4799 69.3 20.4599 69.76 20.4599ZM38.17 56.0399C38.46 57.1299 39.55 58.2399 40.78 57.9999C41.26 57.9099 41.69 56.8799 41.69 56.4599V54.7099L38.18 56.0399H38.17ZM34.08 58.7499C33.94 59.1199 33.45 59.8099 33.39 60.0899C33.23 60.9599 34.12 63.1099 34.87 63.5999C35.27 63.8599 35.62 63.7299 36.08 63.7599C36.75 61.7099 38.02 61.0399 40.03 60.6699C40.13 60.6499 40.27 60.7099 40.19 60.5199C40.16 60.4499 39.66 59.6399 39.61 59.6099C39.42 59.4699 38.96 59.4299 38.67 59.2799C37.85 58.8699 37.3 58.1699 36.81 57.4199C36.73 57.2899 36.59 56.8899 36.56 56.8699C36.25 56.6799 34.9 57.0999 34.45 56.9599C34.45 57.5299 34.28 58.2299 34.08 58.7699V58.7499ZM48.97 64.2799C48.76 63.8699 47.89 63.4399 47.46 63.3499C47 63.2499 46.08 63.4299 45.94 62.7399C45.79 61.9199 46.5 61.7099 47.16 61.6299L50.3 61.7399C49.51 61.5299 48.7 61.3399 47.89 61.2199C45.79 60.9199 44.76 61.4199 43.07 59.8699C42.9 59.7099 42.78 59.2799 42.48 59.2799C42.4 59.2799 41.7 59.8299 41.68 59.8799C41.64 60.0499 42.67 60.9899 41.99 61.5699C41.31 62.1499 38.44 61.8499 38.17 63.3299C41.66 62.1799 45.64 62.8799 48.96 64.2799H48.97ZM32.09 64.6799C32.26 65.8899 30.77 65.6199 29.96 65.7999C29.15 65.9799 28.42 66.3799 28.07 67.1499C30.61 66.4499 33.03 66.5899 35.51 67.4199C36.66 67.7999 37.7 68.3799 38.81 68.8499C38.96 68.7099 38 68.0799 37.89 68.0199C37.26 67.6899 36.02 67.7499 36.04 66.8799C36.06 66.0099 37.3 66.0499 37.91 66.0799C38.63 66.1199 39.35 66.3999 40.04 66.4999C40.15 66.5199 40.43 66.5899 40.4 66.4099C39.6 66.1799 38.8 65.9499 37.98 65.7999C36.95 65.6099 35.84 65.5999 34.83 65.4399C32.81 65.1199 32.23 63.1499 31.79 61.4099C31.76 61.3799 31.08 61.5999 31.06 61.6399C30.69 62.2099 32 64.0599 32.09 64.6899V64.6799Z" fill="#010101"/>
<path d="M39.93 2.27993C37.65 2.48993 34.57 3.87991 33.07 5.62991C28.22 11.2899 33.18 20.9799 29.25 25.6299C27.96 27.1599 25.75 28.7599 24.25 30.1999C18.16 36.0499 12.79 43.9899 10.69 52.2699C10.43 53.3099 10.15 54.5199 10.16 55.5699C12.55 54.2499 15.01 52.8999 17.13 51.1599C17.56 50.8099 18.38 49.8399 18.77 49.6099C19.65 49.0999 20.36 50.1299 19.63 51.1099C18.95 52.0299 17.42 53.2299 16.48 53.9099L12.66 56.3099C17.53 55.9299 22.09 54.4699 26.16 51.7799C31.67 48.1499 38.87 39.7199 36.14 32.6699C35.9 32.0399 35.12 30.9099 35.02 30.3899C34.88 29.6999 35.53 29.1699 36.17 29.5699C37.34 30.3199 38.47 33.6499 38.61 34.9999C39.27 41.5599 33.14 49.2499 28.02 52.7799C23.22 56.0899 17.45 57.7799 11.66 58.3299C11.01 58.3899 10.11 58.1499 9.57998 58.5899C7.75998 61.4299 5.5 64.1299 3.73 66.9999C3.45 67.4599 2.71998 68.6599 2.67998 69.1499C2.65998 69.4499 3.2 69.4899 3.41 69.4599C5.11 69.1899 7.08 66.7199 8.07 65.3899C8.44 64.8999 9.17998 63.4299 9.67998 63.2799C10.5 63.0199 10.9 63.7599 10.7 64.5099C10.4 65.6699 8.23 68.3299 7.54 69.6499C7.16 70.3799 6.72999 70.9299 7.86999 70.5199C10.45 69.5899 12.03 66.6599 13.17 64.3399C13.46 63.7499 13.59 62.5899 14.51 62.7099C14.74 62.7399 15.12 62.9799 15.19 63.2099C15.44 64.0499 14.15 66.9799 13.74 67.8899C13.55 68.3099 13.09 68.9899 12.98 69.3599C12.9 69.6399 13.24 69.4899 13.37 69.4299C15.14 68.6299 17.03 65.5499 18.06 63.9099C18.79 62.7499 20.53 59.2099 21.52 58.6499C22.51 58.0899 24.01 57.8799 25.08 57.3699C25.32 56.3299 25.58 54.9999 26.96 55.2699C27.56 55.3899 27.79 57.0699 28.06 57.6799C29.55 60.9499 31.86 60.1499 32.51 56.8899C32.66 56.1599 32.61 54.4699 33.18 54.0499C33.75 53.6299 34.37 54.0799 34.59 54.6599C34.78 55.1699 34.44 55.3599 35.12 55.2399C36.99 54.9099 41.83 52.7599 43.57 51.7699C48.91 48.7299 53.85 43.5599 54.77 37.2899C52.22 38.5899 49.28 38.8799 46.62 37.7299C36.45 33.3699 28.37 11.4599 39.43 4.01992L42.23 2.29989C41.49 2.34989 40.67 2.22989 39.94 2.29989L39.93 2.27993Z" fill="#2A2A2A"/>
<path d="M54.9799 32.6397C55.0399 33.8997 55.2299 34.7597 54.1599 35.5497C49.3299 39.1197 43.7099 34.1997 40.9599 30.3897C35.5999 22.9697 32.2699 8.82971 42.7099 4.09971C42.9899 3.96971 44.1099 3.45971 44.2899 3.65971C44.6999 4.10971 45.2199 6.27976 45.3599 6.95976C46.5299 12.6998 45.2699 18.6297 51.4299 21.7297C51.7999 21.9097 52.2399 22.0197 52.6199 22.1897C53.6299 25.5897 54.8099 29.0497 54.9799 32.6397ZM42.3699 11.0997C43.8299 10.8697 43.8999 8.41976 42.3499 8.14976C40.0999 7.75976 39.9499 11.4797 42.3699 11.0997Z" fill="#FDC600"/>
<path d="M46.1499 2.91977C47.6299 6.05977 47.8299 9.59981 48.0599 13.0198C56.3199 13.5198 64.7099 13.6098 72.5199 16.6398C72.5999 16.5398 71.7699 14.7798 71.6699 14.4598C70.7199 11.3598 71.4599 8.01979 75.1799 7.80979C75.2399 7.56979 75.1399 7.6398 75.0499 7.5698C74.6299 7.2498 73.8599 6.84982 73.3799 6.58982C69.1899 4.30982 64.0999 3.0898 59.3799 2.5098C54.9099 1.9598 50.5899 2.17977 46.1499 2.91977Z" fill="#FDC600"/>
<path d="M70.5099 20.5698C73.2899 20.5898 76.2599 20.9398 78.9699 21.5298C79.1799 21.2598 78.8199 21.3398 78.6299 21.2398C75.1999 19.3698 71.4499 17.9698 67.6699 16.9898C61.3399 15.3498 54.8899 15.2398 48.3999 14.8298C49.3499 21.6298 56.7299 21.0998 61.9599 20.9998L68.3899 20.4598C68.2599 20.4598 67.9399 20.5398 67.9699 20.3498C68.6999 20.3698 69.4299 20.3198 70.1499 20.3498C70.3499 20.3498 70.5799 20.2398 70.5199 20.5598L70.5099 20.5698Z" fill="#FD7E00"/>
<path d="M84.6499 23.02C84.0599 19.67 82.7899 16.25 80.9099 13.42C79.4599 11.24 77.3199 8.35 74.3099 9.76C71.7599 10.96 73.5999 15.65 74.9799 17.23C75.6199 17.96 77.6699 18.62 78.6299 19.11C79.9499 19.78 81.2299 20.52 82.4499 21.35L84.6499 23.03V23.02Z" fill="#010101"/>
<path d="M31.07 61.6398C30.7 62.2098 32.01 64.0598 32.1 64.6898C32.27 65.8998 30.78 65.6298 29.97 65.8098C29.16 65.9898 28.43 66.3898 28.08 67.1598C30.62 66.4598 33.04 66.5998 35.52 67.4298C36.67 67.8098 37.71 68.3898 38.82 68.8598C38.97 68.7198 38.01 68.0898 37.9 68.0298C37.27 67.6998 36.03 67.7598 36.05 66.8898C36.07 66.0198 37.31 66.0598 37.92 66.0898C38.64 66.1298 39.36 66.4098 40.05 66.5098C40.16 66.5298 40.44 66.5998 40.41 66.4198C39.61 66.1898 38.81 65.9598 37.99 65.8098C36.96 65.6198 35.85 65.6098 34.84 65.4498C32.82 65.1298 32.24 63.1598 31.8 61.4198C31.77 61.3898 31.09 61.6098 31.07 61.6498V61.6398Z" fill="#707070"/>
<path d="M41.6899 54.71L38.1799 56.0399C38.4699 57.1299 39.5599 58.2399 40.7899 57.9999C41.2699 57.9099 41.7 56.88 41.7 56.46V54.71H41.6899Z" fill="#1A191A"/>
<path d="M70.51 20.5698C70.57 20.2498 70.35 20.3598 70.14 20.3598C69.41 20.3398 68.68 20.3798 67.96 20.3598C67.94 20.5498 68.26 20.4598 68.38 20.4698C68.84 20.4898 69.3 20.4698 69.76 20.4698C69.93 20.4698 70.2 20.4098 70.29 20.5798C70.36 20.5798 70.43 20.5798 70.5 20.5798L70.51 20.5698Z" fill="#FD7E00"/>
<path d="M69.76 20.4599C69.85 20.6299 70.12 20.5599 70.29 20.5699C70.2 20.3999 69.93 20.4699 69.76 20.4599Z" fill="#FD7E00"/>
<path d="M38.1799 63.32C41.6699 62.17 45.6499 62.87 48.9699 64.27C48.7599 63.86 47.8899 63.43 47.4599 63.34C46.9999 63.24 46.0799 63.42 45.9399 62.73C45.7899 61.91 46.4999 61.7 47.1599 61.62L50.2999 61.73C49.5099 61.52 48.6999 61.33 47.8899 61.21C45.7899 60.91 44.7599 61.41 43.0699 59.86C42.8999 59.7 42.7799 59.27 42.4799 59.27C42.3999 59.27 41.6999 59.82 41.6799 59.87C41.6399 60.04 42.6699 60.98 41.9899 61.56C41.3099 62.14 38.4399 61.84 38.1699 63.32H38.1799Z" fill="#707070"/>
<path d="M42.35 8.1498C40.1 7.7598 39.95 11.4797 42.37 11.0997C43.83 10.8697 43.9 8.4198 42.35 8.1498Z" fill="#010101"/>
</svg>
