<svg width="109" height="88" viewBox="0 0 109 88" fill="none" xmlns="http://www.w3.org/2000/svg">
<path d="M104.99 37.1499C104.99 37.1499 104.88 37.5699 104.73 37.7799C103.2 39.8799 99.16 41.3098 96.64 41.4898C93.85 41.6898 91.51 40.7798 88.85 40.6698C83.69 40.4498 78.03 43.2699 76.17 48.2699C83.69 52.6099 84.21 61.1299 81.06 68.5199C77.86 76.0199 71.29 82.2798 63.85 85.5398C61.52 86.5598 55.41 88.9599 53.91 85.8799C52.41 82.7999 56.29 80.8399 57.93 79.0299C59.46 77.3499 61.27 74.2599 62.14 72.1499C63.64 68.4699 62.05 66.0499 65.24 62.3899C66.27 61.2099 68.73 59.9098 68.93 58.4098C68.95 58.2598 68.96 57.8998 68.78 57.9098C68.63 57.9098 66.7 59.2599 66.32 59.4599C58.94 63.4799 49.35 64.5498 41.06 63.6698C36.44 63.1798 31.78 61.8198 27.25 60.8498C26.49 60.9298 24.86 63.5198 24.23 64.2198C20.89 67.9798 16.72 70.4899 11.74 71.4398C9.17998 71.9298 2.06998 72.7998 1.37998 69.2398C0.919979 66.8398 2.89998 66.2798 4.32998 65.0998C6.32998 63.4498 7.03998 60.7398 9.45998 59.4898C10.79 58.7998 16.99 57.7199 16.98 55.9499C16.98 55.6899 14.48 53.4398 14.07 52.9999C13.86 52.7799 12.95 51.5898 12.81 51.5398C11.84 51.5398 10.85 51.4599 9.87998 51.5199C7.81998 51.6499 3.34997 52.9298 1.67997 52.1698C-0.420034 51.2198 1.65997 48.8498 2.55997 47.8598C3.78997 46.5198 6.24997 44.5798 7.92997 43.9098C8.19997 43.7998 9.22997 43.5699 9.28997 43.4999C9.35997 43.4099 9.57997 42.2698 9.71997 41.9198C10.31 40.3998 11.54 38.8699 12.28 37.3999C12.34 36.7899 10.13 34.7398 9.57998 34.3598C7.70998 33.0598 3.06997 32.4798 4.33997 29.0998C5.41997 26.2398 11.9 25.7398 14.49 25.9098C16.27 26.0198 18.89 26.6899 19.86 28.2699H20.02C24.78 24.0699 30.05 20.8698 36 18.6198C44.61 15.3698 53.25 14.2598 62.25 16.7398C64.54 17.3698 66.69 18.2998 68.83 19.2998C68.22 17.7798 66.94 16.7699 66.07 15.3999C65.2 14.0299 64.76 12.6499 64.01 11.3199C62.8 9.14986 61.16 7.56984 59.19 6.10984C58.16 5.34984 56.43 4.75986 56.43 3.19986C56.42 0.239862 61.18 0.709875 63.11 0.899875C75.61 2.14987 86.41 11.0698 80.03 24.4298C79.75 25.0098 78.72 26.5299 78.65 26.9499C78.34 28.7399 82.15 27.2198 82.88 26.9198C86.1 25.5698 88.77 22.9199 92.21 22.0799C98.6 20.5299 105.51 24.2799 107.67 30.4599C108.33 32.3399 108.95 35.5299 106.77 36.6399C106.38 36.8399 105.05 37.0899 104.98 37.1499H104.99ZM59.15 2.57987C58.8 2.62987 58.08 2.79986 58.29 3.25986C58.46 3.61986 60.93 5.27984 61.47 5.73984C62.71 6.78984 64.02 8.13983 64.93 9.47983C66.25 11.4298 66.8 14.1499 68.62 15.6999C69.25 16.2399 69.78 16.3098 70.34 17.1698C71.06 18.2798 70.83 19.1298 70.79 20.3698C72.19 21.2498 73.49 22.2998 74.69 23.4298C75.28 23.9898 75.84 24.8499 76.51 25.3899C76.63 25.4799 77.25 25.9098 77.34 25.8698C79.22 22.7598 80.7 18.8499 80.14 15.1499C79.02 7.73987 70.88 3.73984 64.16 2.79984C62.78 2.60984 60.47 2.36987 59.13 2.57987H59.15ZM50.8 17.2998C48.91 17.3798 46.63 17.6199 44.8 18.0899C44.06 18.2799 43.47 18.2599 43.36 19.0699C43.34 19.2499 43.37 19.4698 43.36 19.6598C43.36 19.7798 43.36 19.8999 43.36 20.0099C43.36 20.1899 43.1 20.4899 43.44 20.5899C43.65 20.6499 43.89 20.5198 44.09 20.5498C44.4 20.5898 44.7 20.6798 45.02 20.7198C45.1 20.7298 45.18 20.7098 45.26 20.7198C46.32 20.8698 47.37 21.1299 48.45 21.1899C48.45 21.2499 48.45 21.2798 48.51 21.3098C49.23 21.2798 50.6 21.9898 51.22 21.9098C51.31 21.8998 52.6 21.1198 52.89 20.9798C53.39 20.7498 54.24 20.5499 54.64 20.2599C54.95 20.0399 55.19 19.5499 55.52 19.2499C56.15 18.6899 56.91 18.2398 57.53 17.6598C56.35 17.5598 55.18 17.3598 53.99 17.2998C52.98 17.2598 51.81 17.2598 50.8 17.2998ZM69.68 22.3799C68.37 21.7999 67.15 20.9999 65.83 20.3899C64.51 19.7799 61.19 18.3198 59.8 18.1598C59.1 18.0798 57.5 18.9998 57.82 19.6598C57.95 19.9198 59.22 20.3299 59.58 20.4999C60.87 21.1299 62.16 21.7698 63.43 22.4298C63.86 22.6498 64.96 23.4599 65.28 23.5299C65.89 23.6699 67.01 23.0998 67.69 22.9198C68.32 22.7598 69.23 22.8598 69.68 22.3698V22.3799ZM32.98 26.1598C33.39 26.1898 33.93 26.3499 34.27 26.2099C36.46 24.3299 38.81 22.6199 41.35 21.2499C41.68 21.0699 41.82 18.9599 41.65 18.9499C36.93 20.2399 32.46 22.2499 28.15 24.5099C28.06 24.6399 28.68 26.0899 28.75 26.1299C28.85 26.1899 29.59 26.1599 29.79 26.1499C31.01 26.0799 31.73 26.0499 32.98 26.1499V26.1598ZM64.56 24.9098C63.45 24.1498 58.11 21.4698 56.96 21.3498C56.7 21.3198 56.59 21.3298 56.34 21.3698C55.59 21.4998 52.87 22.8399 52.1 23.2699C51.04 23.8699 50.21 26.9298 50.19 28.0998C50.19 29.1498 50.43 29.5599 51.22 30.1399C53.27 31.6399 55.67 32.6698 57.75 34.1098C57.87 34.1798 57.99 34.1899 58.13 34.1499C58.3 34.0999 60.35 32.0199 60.76 31.6899C61.33 31.2299 63.8 29.6998 63.99 29.3698C64.24 28.9298 64.17 27.6298 64.27 27.0498C64.37 26.4698 64.69 25.7499 64.82 25.1299C64.7 25.0799 64.62 24.9399 64.55 24.8899L64.56 24.9098ZM49.97 23.5598C49.12 23.2398 48.26 22.9998 47.37 22.7898C46.17 22.5098 43.84 21.9599 42.71 22.2699C41.19 22.6799 36.48 26.1599 35.51 27.4599C34.82 28.3899 33.89 31.4899 34.51 32.4599C34.72 32.7899 37.04 33.4098 37.6 33.6198C38.49 33.9598 40.17 34.8298 40.96 34.9798C42.26 35.2298 43.05 34.3299 43.94 33.5299C45.45 32.1799 46.77 30.5999 48.36 29.3399C48.64 27.3499 49.06 25.3598 49.95 23.5598H49.97ZM102.61 37.2499C101.33 36.9899 100.09 36.8398 98.96 36.1198C98.43 35.7798 96.98 34.5799 97.43 33.8999C98.05 32.9599 99.4 34.5698 100.05 34.9098C101.64 35.7298 106.11 36.3399 106.57 33.9499C107.07 31.3299 104.29 27.6798 102.38 26.0998C97.39 21.9698 92.34 23.2498 87.15 26.0998C83.76 27.9598 80.63 30.7798 76.42 30.1798C76.11 31.3898 76.21 32.6599 76.06 33.8899C75.34 39.7799 72.15 47.0798 68.21 51.5398C67.23 52.6498 66 53.5198 65.08 54.6698C65.82 54.8698 66.63 54.4799 67.36 54.4999C68.43 54.5299 69.54 55.3898 70.05 56.2998C72.36 60.3698 67.28 61.9799 65.57 64.9599C64.34 67.0999 64.83 68.3799 64.46 70.5699C64.03 73.1399 60.95 78.1798 59.18 80.1598C58.26 81.1998 55.6 83.0598 55.41 84.2898C55.09 86.3498 58.3 85.5198 59.44 85.2498C70.45 82.6599 83.74 68.9899 80.84 56.9599C79.7 52.2299 77.33 51.7499 74.23 48.9399C73.84 48.5899 72.81 47.7298 73.22 47.2198C73.63 46.7098 74.44 47.2599 74.84 46.9499C74.91 46.8999 75.5 45.6798 75.66 45.4198C78.82 40.4698 85.08 38.3898 90.74 39.1698C92.96 39.4798 94.55 40.0298 96.88 39.7298C98.88 39.4698 101.16 38.7099 102.62 37.2699L102.61 37.2499ZM73.44 25.5498C73.51 25.4198 73.48 25.2198 73.4 25.0998C73.33 24.9898 71.52 23.5699 71.4 23.5699C69.98 24.2899 68.38 24.5098 66.85 24.9298C65.65 26.8598 65.12 29.5399 67.02 31.2499L70.59 34.4198C71.12 34.5698 71.24 34.0199 71.3 33.6399C71.67 31.2199 70.98 28.5398 72.58 26.2998C72.77 26.0298 73.41 25.6098 73.43 25.5598L73.44 25.5498ZM23.66 29.3399C24.23 28.8299 24.99 28.3099 25.63 27.8299C25.87 27.6499 27.13 26.9199 27.18 26.8399C27.36 26.5399 27.03 25.8999 26.96 25.5699C26.84 25.5399 26.72 25.5698 26.61 25.6198C25.23 26.1098 21.36 29.3599 20.12 30.4599C19.48 31.0299 18.93 31.9098 18.12 32.1698C18.09 32.3598 18.28 32.2798 18.41 32.2898C18.86 32.3098 19.32 32.2898 19.77 32.2898C20.51 32.2898 20.28 32.5798 20.95 32.0498C21.92 31.2998 22.65 30.2699 23.55 29.4499L23.67 29.3299L23.66 29.3399ZM73.1 28.6299C72.99 29.1399 73 29.4298 72.98 29.9298C72.93 31.0098 73 32.2198 72.86 33.2898C72.74 34.1498 72.24 35.0798 72.17 35.7898C72.16 35.9298 72.14 35.8999 72.27 35.9499C72.49 36.0299 72.72 36.0899 72.98 36.1899C73.02 36.3799 73.83 37.0099 73.92 36.8999C73.98 34.4999 73.99 32.0299 74.63 29.6999C74.83 29.3199 74.99 28.9498 75.24 28.5998C75.43 28.3398 76.75 27.2298 75.93 26.9898C75.47 26.7098 75.41 26.2098 74.78 26.4898C74.07 26.7998 73.27 27.8799 73.1 28.6399V28.6299ZM29.32 27.6899C27.81 27.6899 25.29 29.8498 24.18 30.8698C23.6 31.4098 22.33 32.6198 21.95 33.2398C21.46 34.0298 21.56 36.1799 22.19 36.8899C22.57 37.3099 24.89 38.6298 25.46 38.8098C26.34 39.0898 26.95 38.1798 27.49 37.6098C28.67 36.3598 29.66 34.8798 31.05 33.8498C31.48 33.5298 32.79 32.9299 32.86 32.5299C32.96 31.9399 32.79 31.1399 32.86 30.5199C33 29.8599 33.22 29.1499 33.45 28.5099C33.62 28.0299 33.95 27.8599 33.13 27.7099C31.86 27.4699 30.6 27.6098 29.32 27.6798V27.6899ZM16.46 31.9399L18.47 29.8799C19.12 28.7799 16.48 27.9998 15.75 27.8598C14.87 27.6998 11.75 27.4999 10.99 27.6899C10.9 27.7099 10.91 27.9198 10.83 27.9298C10.63 27.9598 10.41 27.8099 10.17 27.8399C9.32997 27.9199 6.53998 28.7499 6.06998 29.3999C5.00998 30.8499 8.03998 31.6899 8.82998 32.0799C9.61998 32.4699 10.41 32.8998 11.09 33.4798C11.45 33.7798 12.98 35.5399 13.12 35.5899C13.31 35.6499 13.55 35.6498 13.69 35.4898C14.35 34.4898 15.12 33.5798 15.88 32.6598C16.09 32.4098 16.3 32.3899 16.47 31.9499L16.46 31.9399ZM56.23 35.2398C54.16 33.8198 51.92 32.6298 49.92 31.1098C49.24 30.6498 48.98 31.0299 48.5 31.4599C47 32.7899 45.47 34.4899 44.08 35.9499L43.37 36.6598C43.2 36.8398 42.96 36.9599 42.78 37.1899C42.04 38.1499 41.85 40.3798 41.71 41.6098C41.56 42.8998 41.49 44.0899 41.47 45.3899C41.47 45.6999 41.47 46.0199 41.47 46.3299C41.47 46.9399 41.47 47.5498 41.47 48.1598L41.7 50.3399C41.73 51.3899 41.74 54.4098 42.35 55.1698C42.91 55.8698 44.89 55.3899 45.75 55.2699C49.62 54.7199 55.35 53.3098 58.45 50.8498C59.24 50.2198 59.53 49.9198 59.39 48.8598C59.27 47.8698 58.82 46.7899 58.57 45.8399C58.5 44.9099 58.35 43.8499 57.98 43.0099C57.98 42.9699 57.98 42.9299 57.98 42.8899C57.68 40.8599 57.57 38.8599 57.37 36.8299C57.31 36.2399 57.32 36.0699 56.91 35.6899C56.87 35.6499 56.84 35.6099 56.79 35.5699C56.72 35.5099 56.67 35.4399 56.55 35.4499C56.51 35.4099 56.47 35.3699 56.43 35.3299C56.36 35.2699 56.32 35.1999 56.19 35.2099L56.23 35.2398ZM60.83 47.3999C61.26 48.3799 61.44 48.7998 62.48 47.8698C62.52 47.8298 62.56 47.7899 62.6 47.7499C62.64 47.7099 62.68 47.6699 62.72 47.6299C64.12 47.0099 67.77 41.2698 68.64 39.6798C68.97 39.0798 69.83 37.5399 69.91 36.9399C70.13 35.2499 68.58 34.7099 67.56 33.7699C67.04 33.2899 65.42 31.4198 64.9 31.3498C64.12 31.2498 62.44 32.5599 61.8 33.0699C61.2 33.5499 59 35.4099 58.86 36.0299C58.73 36.5899 58.91 37.6198 58.97 38.2298C59.23 40.8598 59.81 45.0099 60.84 47.3899L60.83 47.3999ZM20 33.9499H17.11C16.93 33.9499 15.14 36.3298 14.88 36.6798C14.58 37.0898 12.88 39.4499 12.82 39.6999C12.79 39.8699 13.64 42.9198 13.81 42.9198C15.08 42.2198 15.89 40.7798 16.87 39.7298C17.49 39.0598 18.21 38.3498 18.87 37.7198C19.07 37.5298 20.15 36.7199 20.2 36.6399C20.28 36.4899 20.1 34.0199 19.99 33.9499H20ZM39.94 45.0398C39.96 44.5498 39.91 44.0499 39.94 43.5699C40.11 41.2799 40.55 39.0299 40.95 36.7799L34.84 34.3899C33.36 33.9099 31.99 35.4498 30.97 36.3698C29.85 37.3798 27.14 39.9199 26.55 41.1499C25.74 42.8099 25.17 45.5599 24.84 47.3999C24.6 48.7499 24 50.8999 24.84 51.9999C24.93 52.1199 24.96 52.1398 25.08 52.2398C25.15 52.2998 25.21 52.3598 25.32 52.3598C25.51 52.5298 25.53 52.4998 25.67 52.5998C25.96 52.7898 26.19 53.1199 26.61 53.0699C29.18 54.5899 35.88 56.1699 38.81 55.7699C40.86 55.4899 40.03 53.2999 39.94 51.9399C39.92 51.6499 39.95 51.3498 39.94 51.0598C39.83 48.9398 39.84 47.1598 39.94 45.0398ZM65.32 50.9399C65.48 51.0399 65.46 51.3298 65.91 51.1198C66.04 51.0598 66.81 50.2398 66.97 50.0498C67.77 49.1398 68.55 47.8998 69.22 46.8698C70.46 44.9598 72.78 41.1899 73.18 39.0199C73.28 38.4899 73.18 38.5199 72.87 38.1899C72.7 38.0099 71.59 37.2398 71.45 37.3598C70.1 41.4998 67.57 45.3399 64.55 48.4599C64.32 48.6899 63.72 49.0098 63.6 49.2898C63.34 49.8498 64.91 50.6799 65.32 50.9399ZM25.06 40.3299C24.56 40.1199 24.05 39.8899 23.58 39.6299C23 39.3099 21.23 38.0499 20.68 38.2099C20.13 38.3699 18.15 40.4899 17.7 41.0199C16.76 42.1199 16.04 43.3498 15.16 44.4698C15.06 44.5898 14.87 44.4998 14.94 44.7198C16.31 46.8698 18.02 48.6498 20.24 49.9298C20.77 50.2298 22.66 51.3798 22.99 50.6698C23.29 50.0298 23.32 48.1898 23.45 47.3598C23.66 46.0598 23.88 44.6599 24.2 43.3899C24.45 42.3599 24.87 41.3599 25.07 40.3399L25.06 40.3299ZM12.56 45.0398C13.74 44.8598 12.69 43.9098 12.42 43.2298C12.3 42.9298 12.19 42.5299 12.09 42.1999C12.02 41.9799 12.16 41.6798 11.79 41.4898C11.05 42.6498 10.61 44.3199 11.35 45.5799C11.75 46.2499 12.22 45.3899 12.55 45.0199L12.56 45.0398ZM2.52997 50.6999C3.96997 50.9299 5.33997 50.3599 6.74997 50.1399C7.39997 50.0399 8.19997 49.9198 8.83997 49.8698C9.47997 49.8198 10.28 49.9698 10.84 49.8698C11 49.8398 11.15 49.7799 11.13 49.5899C11.12 49.4999 10.32 48.2699 10.18 47.9399C9.97997 47.4999 9.33997 45.4399 9.13997 45.3199C8.87997 45.1499 7.57997 45.9598 7.25997 46.1598C5.92997 46.9798 4.42998 48.2199 3.40998 49.3899C3.29998 49.5099 2.40997 50.5999 2.52997 50.6899V50.6999ZM12.21 47.5199C12.21 47.6399 12.21 47.7598 12.27 47.8698C13.6 49.4998 14.86 51.2798 16.46 52.6598C17.3 53.3798 17.57 53.8399 18.59 53.1899C19.19 52.8099 19.72 52.1799 20.4 51.8999C20.52 51.9099 20.49 51.6698 20.47 51.6598C20.42 51.6098 19.48 51.3599 19.21 51.2099C17.74 50.4299 15.98 48.7699 14.86 47.5299C14.67 47.3199 13.87 46.1398 13.78 46.1198C13.44 46.0198 12.23 47.1899 12.2 47.5299L12.21 47.5199ZM63.78 51.9999C63.78 51.9999 63.8 51.8499 63.7 51.7599C63.17 51.3199 62.55 50.9699 62.07 50.4599L62.12 50.7898C59.77 52.7098 57.04 54.2398 54.11 55.0598C54.03 55.1598 54.92 56.8798 55.05 57.1798C55.18 57.4798 55.05 58.0098 55.67 57.8698C58.04 56.8898 60.55 56.0098 62.54 54.3498C63.2 53.7998 63.69 53.0499 64.43 52.5899C64.66 52.2499 63.89 52.0899 63.78 51.9999ZM20 53.8899C19.66 54.2099 19.5 54.2498 19.74 54.7998C20 55.3998 23.11 56.9598 23.86 57.2898C24.4 57.5298 26.99 58.6198 27.39 58.6098C27.98 58.6098 27.88 57.9698 28.03 57.6598C28.32 57.0698 28.84 56.4899 28.86 55.7699C27.24 55.4499 25.34 54.8398 24.03 53.8098C23.56 53.4498 23.07 52.6098 22.33 52.6198C21.84 52.6198 20.4 53.5099 20.01 53.8799L20 53.8899ZM41.95 59.6698C41.91 60.1598 41.93 60.7199 42.01 61.2099C44.66 60.7299 47.36 60.4398 50 59.8698C50.51 59.7598 53.15 59.1598 53.37 58.9298C53.72 58.5798 53.4 57.7198 53.28 57.3098C53.21 57.0598 52.89 56.1399 52.75 56.0099C52.29 55.6099 50.38 56.3998 49.74 56.5398C48.27 56.8698 46.57 57.1998 45.08 57.3098C44.5 57.3498 42.86 57.1398 42.53 57.4698C42.24 57.7598 41.99 59.1998 41.95 59.6598V59.6698ZM59.3 58.4898C58.92 58.6598 58.48 58.9299 58.12 59.0799L51.63 61.3199C51.35 61.3999 51.09 61.4498 50.8 61.5598L47.5 61.9098C47.31 62.0598 47.5 62.1199 47.67 62.1499C48.03 62.1999 48.58 62.1599 48.97 62.1499C55 61.9299 60.47 60.7399 65.79 57.8999C65.91 57.8299 66.02 57.7298 66.14 57.6598C66.68 57.4298 67.44 57.1599 67.91 56.8299C68.21 56.6199 68.27 56.5798 67.91 56.3598C67.51 56.1098 67.33 56.3598 66.91 56.3598C66.14 56.3698 63.87 56.1599 63.39 56.2599C63.12 56.3199 61.04 57.6498 60.55 57.9098C60.15 58.1198 59.73 58.3498 59.29 58.4798L59.3 58.4898ZM29.32 58.7298C29.3 58.9098 29.28 59.1299 29.44 59.2599C29.55 59.3499 30.94 59.7698 31.21 59.8498C34.02 60.6398 36.98 60.7798 39.86 61.1798C40.37 61.0698 40.34 60.6599 40.42 60.2599C40.5 59.8599 40.81 58.0898 40.78 57.8498C40.74 57.5698 40.56 57.4698 40.3 57.4298C39.89 57.3698 39.48 57.5498 39.07 57.5498C38.37 57.5498 37.79 57.4798 37.12 57.4298C36.27 57.3698 35.44 57.2998 34.6 57.1698C34 57.0798 30.79 56.3299 30.59 56.3799C30.35 56.4399 29.36 58.4198 29.33 58.7198L29.32 58.7298ZM18.77 57.0998C18.56 57.1398 17.66 58.0998 17.39 58.2998C15.27 59.8798 13.5 59.7798 11.2 60.6098C8.18997 61.6998 7.76997 64.4399 5.52997 66.3899C4.64997 67.1599 1.83998 68.4199 3.70998 69.6299C4.98998 70.4599 9.13998 70.1399 10.69 69.8999C15.4 69.1499 19.73 66.7499 22.88 63.2099C23.37 62.6599 24.53 61.2998 24.88 60.7198C24.97 60.5698 25.11 60.3899 25.06 60.2099C25.02 60.0799 23 59.2999 22.63 59.0899C21.77 58.6299 20.74 57.6699 20.03 57.3299C19.85 57.2499 18.91 57.0698 18.77 57.0998Z" fill="#020201"/>
<path d="M102.61 37.2498C101.15 38.6898 98.87 39.4598 96.87 39.7098C94.54 40.0098 92.95 39.4598 90.73 39.1498C85.07 38.3698 78.81 40.4498 75.65 45.3998C75.48 45.6598 74.89 46.8798 74.83 46.9298C74.43 47.2398 73.63 46.6798 73.21 47.1998C72.79 47.7198 73.83 48.5698 74.22 48.9198C77.33 51.7298 79.69 52.2098 80.83 56.9398C83.74 68.9698 70.45 82.6398 59.43 85.2298C58.29 85.4998 55.08 86.3298 55.4 84.2698C55.59 83.0398 58.25 81.1698 59.17 80.1398C60.93 78.1598 64.01 73.1198 64.45 70.5498C64.82 68.3598 64.33 67.0798 65.56 64.9398C67.27 61.9598 72.35 60.3598 70.04 56.2798C69.52 55.3698 68.42 54.5098 67.35 54.4798C66.61 54.4598 65.8 54.8498 65.07 54.6498C65.99 53.5098 67.22 52.6298 68.2 51.5198C72.13 47.0698 75.32 39.7698 76.05 33.8698C76.2 32.6398 76.1 31.3698 76.41 30.1598C80.63 30.7598 83.75 27.9398 87.14 26.0798C92.33 23.2298 97.38 21.9498 102.37 26.0798C104.28 27.6598 107.06 31.3198 106.56 33.9298C106.11 36.3098 101.63 35.7098 100.04 34.8898C99.38 34.5498 98.03 32.9398 97.42 33.8798C96.97 34.5598 98.42 35.7598 98.95 36.0998C100.08 36.8198 101.32 36.9698 102.6 37.2298L102.61 37.2498ZM88.41 29.3098C89.01 28.6598 88.83 26.0098 87.28 27.1698C86.07 28.0698 87.35 30.4698 88.41 29.3098ZM98.09 28.3098C96.88 28.3498 97.59 30.7798 95.8 31.0798C93.8 31.4198 94.67 29.8098 94.25 29.2698C93.95 28.8898 93.2 29.0798 92.97 29.5398C92.38 30.7498 93.68 32.4098 94.92 32.6098C96.74 32.8998 98.53 31.3398 98.79 29.5798C98.87 29.0698 98.77 28.2898 98.1 28.3098H98.09ZM85.71 29.7298C84.87 29.2498 83.56 31.8398 85 32.1498C86.14 32.3998 86.6 31.1098 86.13 30.1998C86.11 30.1698 85.74 29.7398 85.71 29.7298ZM81.81 30.0698C80.44 30.2198 78.76 33.7198 81.78 33.3498C82.33 33.2798 83.26 32.3598 83.35 31.8398C83.38 31.6698 83.04 30.5998 82.9 30.4498C82.68 30.1998 82.14 30.0298 81.81 30.0598V30.0698ZM85.17 34.6198C85.68 35.1398 87 34.2798 86.45 33.5198C85.81 32.6298 84.44 33.8798 85.17 34.6198ZM73.19 63.3498C72.41 63.4798 72.64 64.8198 73.37 65.1298C74.55 65.6398 74.63 63.0998 73.19 63.3498ZM68.94 65.1298C67.9 65.3098 67.23 66.2098 66.75 67.0698C66.3 67.8798 65.51 69.7298 66.2 70.5198C67.42 71.9298 70.06 69.0098 70.51 67.8698C71.06 66.4698 70.79 64.8098 68.94 65.1198V65.1298ZM74.13 67.6098C72.29 67.6098 71.53 71.0498 74.17 70.3498C74.96 70.1398 75.85 68.7998 75.28 68.0498C75.18 67.9198 74.29 67.6098 74.13 67.6098ZM70.12 72.4498C69.21 72.6898 68.24 74.2198 68.85 75.0798C69.6 76.1198 71.07 74.8898 71.56 74.1398C72.31 72.9998 71.3 72.1498 70.11 72.4598L70.12 72.4498ZM65.17 74.3298C64.36 74.4998 63.07 76.2398 63.73 77.0098C64.64 78.0598 67.59 75.7898 66.27 74.5898C65.94 74.2898 65.61 74.2398 65.17 74.3298ZM68.27 77.6098C67.82 77.6598 66.76 78.4398 67.44 78.8498C68.19 79.3098 68.35 78.1298 68.27 77.6098ZM61.74 79.4098C60.11 79.7098 59.37 82.5098 61.54 82.0398C63.73 81.5798 64.19 78.9498 61.74 79.4098Z" fill="#269F44"/>
<path d="M56.23 35.2399C56.3 35.2899 56.35 35.3698 56.47 35.3598C56.51 35.3998 56.55 35.4398 56.59 35.4798C56.66 35.5398 56.71 35.6098 56.83 35.5998C56.87 35.6298 56.91 35.6798 56.95 35.7198C57.38 36.2698 57.14 37.0999 57.19 37.7799C57.32 39.4899 57.52 41.2698 58.01 42.9098C58.01 42.9498 58.01 42.9899 58.01 43.0299C58.17 44.1199 58.33 44.8198 58.6 45.8598C58.85 46.8098 59.29 47.8899 59.42 48.8799C59.55 49.9399 59.27 50.2399 58.48 50.8699C55.39 53.3299 49.66 54.7398 45.78 55.2898C44.93 55.4098 42.94 55.8799 42.38 55.1899C41.77 54.4199 41.75 51.3998 41.73 50.3598C41.7 49.2299 41.77 47.9499 41.73 46.7599C41.73 46.5299 41.85 46.2898 41.49 46.3498C41.49 46.0398 41.49 45.7198 41.49 45.4098C41.85 45.4798 41.72 45.2299 41.73 44.9999C41.75 44.3699 41.7 43.7298 41.73 43.0998C41.75 42.6398 42.05 42.0499 41.73 41.6299C41.87 40.3999 42.06 38.1699 42.8 37.2099C42.98 36.9799 43.22 36.8499 43.39 36.6799C43.61 36.4399 43.87 36.2098 44.1 35.9698C45.49 34.5098 47.03 32.8098 48.52 31.4798C49 31.0498 49.27 30.6699 49.94 31.1299C51.94 32.6599 54.18 33.8399 56.25 35.2599L56.23 35.2399Z" fill="#A45600"/>
<path d="M39.94 45.0399C39.58 44.9699 39.71 45.2199 39.7 45.4499C39.63 47.1099 39.64 48.9899 39.7 50.6499C39.7 50.8799 39.58 51.1199 39.94 51.0599C39.96 51.3499 39.92 51.6499 39.94 51.9399C40.03 53.2899 40.85 55.4899 38.81 55.7699C35.88 56.1699 29.17 54.5899 26.61 53.0699C26.35 52.9199 26.11 52.5799 25.67 52.5999C25.53 52.5099 25.51 52.5299 25.32 52.3599C25.25 52.2999 25.21 52.2299 25.08 52.2399C24.96 52.1499 24.94 52.1299 24.84 51.9999C24.29 50.6899 24.79 49.3499 24.94 48.0299C24.96 47.8399 25.04 47.5199 24.84 47.3999C25.17 45.5599 25.75 42.8099 26.55 41.1499C27.15 39.9199 29.85 37.3799 30.97 36.3699C31.99 35.4499 33.36 33.9099 34.84 34.3899L40.95 36.7799C40.55 39.0299 40.11 41.2799 39.94 43.5699C39.9 44.0599 39.96 44.5599 39.94 45.0399Z" fill="#A45600"/>
<path d="M59.1499 2.57985C60.4899 2.36985 62.7999 2.60982 64.1799 2.79982C70.8999 3.73982 79.0299 7.73986 80.1599 15.1499C80.7199 18.8499 79.2399 22.7498 77.3599 25.8698C77.2699 25.9098 76.6499 25.4898 76.5299 25.3898C75.8599 24.8598 75.2999 23.9898 74.7099 23.4298C73.5099 22.2998 72.1999 21.2498 70.8099 20.3698C70.8399 19.1198 71.0799 18.2798 70.3599 17.1698C69.7999 16.3098 69.2799 16.2398 68.6399 15.6998C66.8199 14.1498 66.2699 11.4198 64.9499 9.47981C64.0399 8.13981 62.7199 6.78982 61.4899 5.73982C60.9499 5.27982 58.4699 3.61984 58.3099 3.25984C58.0999 2.79984 58.8199 2.62985 59.1699 2.57985H59.1499ZM64.5699 4.33986C64.1999 4.46986 64.2299 5.19986 64.2799 5.52986C64.4099 6.26986 65.4799 6.92983 66.1399 6.49983C67.6999 5.46983 65.6199 3.97986 64.5699 4.33986ZM68.1199 5.64986C66.5599 5.90986 67.4599 8.09985 69.0399 8.07985C70.6199 8.05985 69.6399 5.39986 68.1199 5.64986ZM71.9599 10.0698C72.6399 10.9098 74.3699 11.1698 74.1599 9.69985C74.0399 8.85985 73.0299 8.28982 72.2399 8.35982C71.6599 8.40982 71.6899 9.72984 71.9599 10.0698ZM67.0399 8.93984C66.7699 9.02984 66.7199 9.86986 66.7399 10.1499C66.7999 10.8999 67.3599 11.9199 68.0399 12.2799C68.6399 12.5899 69.9399 12.9998 70.2199 12.1198C70.5899 10.9398 69.5999 9.48983 68.4799 9.11983C68.2399 9.03983 67.2399 8.86984 67.0399 8.93984ZM71.8999 12.2498C70.5699 12.4398 71.3399 14.4599 72.3199 14.9599C73.2299 15.4299 74.8199 15.4598 74.6399 14.0598C74.5199 13.0898 72.7799 12.1198 71.8999 12.2398V12.2498Z" fill="#269F44"/>
<path d="M49.97 23.56C49.07 25.36 48.65 27.36 48.38 29.34C46.78 30.6 45.46 32.18 43.96 33.53C43.07 34.33 42.28 35.2199 40.98 34.9799C40.19 34.8299 38.5 33.9599 37.62 33.6199C37.06 33.4099 34.75 32.79 34.53 32.46C33.91 31.49 34.84 28.4 35.53 27.46C36.5 26.16 41.21 22.68 42.73 22.27C43.86 21.96 46.19 22.5099 47.39 22.7899C48.28 22.9999 49.13 23.24 49.99 23.56H49.97Z" fill="#A45600"/>
<path d="M18.77 57.0998C18.91 57.0698 19.85 57.2498 20.03 57.3298C20.74 57.6698 21.77 58.6298 22.63 59.0898C23.01 59.2898 25.02 60.0798 25.06 60.2098C25.12 60.3898 24.97 60.5698 24.88 60.7198C24.53 61.2998 23.37 62.6598 22.88 63.2098C19.73 66.7498 15.39 69.1498 10.69 69.8998C9.14001 70.1498 4.99001 70.4598 3.71001 69.6298C1.84001 68.4198 4.65 67.1598 5.53 66.3898C7.77 64.4398 8.18 61.6998 11.2 60.6098C13.5 59.7798 15.27 59.8798 17.39 58.2998C17.66 58.0998 18.56 57.1398 18.77 57.0998ZM15.6 59.9298C15.42 59.9798 15.04 60.4298 14.98 60.6098C14.68 61.5398 15.78 62.4398 16.57 61.9698C17.59 61.3698 16.52 59.6598 15.6 59.9298ZM11.94 62.0598C9.84001 62.3298 7.75 65.6698 10.26 65.8098C11.85 65.8998 14.72 61.6998 11.94 62.0598ZM15.13 63.9498C13.35 64.3198 13.46 66.7798 15.64 66.1098C16.83 65.7498 16.73 63.6098 15.13 63.9498ZM7.46001 66.4198C7.30001 66.4398 6.54 66.8398 6.43 66.9298C5.77 67.4998 6.58 69.0198 7.89 68.2798C9.13 67.5798 8.6 66.2498 7.45 66.4198H7.46001ZM12.18 66.5398C11.42 66.6398 10.41 67.1498 10.7 68.0898C10.96 68.9598 11.84 68.5098 12.32 68.1098C12.95 67.5898 13.03 66.4398 12.18 66.5498V66.5398Z" fill="#269F44"/>
<path d="M64.56 24.91C64.63 24.96 64.7 25.1 64.83 25.15C64.71 25.77 64.39 26.47 64.28 27.07C64.17 27.67 64.25 28.95 64 29.39C63.81 29.72 61.34 31.24 60.77 31.71C60.37 32.04 58.32 34.12 58.14 34.17C58 34.21 57.88 34.2 57.76 34.13C55.68 32.68 53.27 31.66 51.23 30.16C50.43 29.57 50.19 29.17 50.2 28.12C50.21 26.95 51.04 23.89 52.11 23.29C52.88 22.86 55.6 21.52 56.35 21.39C56.61 21.35 56.71 21.34 56.97 21.37C58.12 21.49 63.46 24.18 64.57 24.93L64.56 24.91Z" fill="#BC6900"/>
<path d="M62.7199 47.6299C62.7199 47.6299 62.6299 47.7099 62.5999 47.7499C62.5599 47.7899 62.5199 47.8299 62.4799 47.8699C61.4499 48.4299 61.3899 48.36 60.8299 47.4C59.7999 45.02 59.2099 40.8699 58.9599 38.2399C58.8999 37.6299 58.7199 36.5999 58.8499 36.0399C58.9899 35.4199 61.1899 33.5599 61.7899 33.0799C62.4299 32.5699 64.1199 31.2599 64.8899 31.3599C65.4199 31.4299 67.0299 33.3 67.5499 33.78C68.5699 34.73 70.1199 35.2699 69.8999 36.9499C69.8199 37.5499 68.9599 39.0999 68.6299 39.6899C67.7599 41.2699 64.1099 47.0199 62.7099 47.6399L62.7199 47.6299Z" fill="#A45600"/>
<path d="M29.32 27.6899C29.32 27.6899 29.45 27.8099 29.61 27.8099C30.18 27.8099 33.19 27.7199 33.4 28.0399C33.46 28.1199 33.24 28.45 33.45 28.52C33.22 29.16 33 29.87 32.86 30.53C32.73 31.15 32.61 31.8999 32.86 32.5399C32.79 32.9399 31.48 33.5399 31.05 33.8599C29.66 34.8899 28.67 36.3699 27.49 37.6199C26.95 38.1899 26.34 39.0999 25.46 38.8199C24.89 38.6399 22.57 37.32 22.19 36.9C21.56 36.19 21.46 34.0499 21.95 33.2499C22.33 32.6299 23.61 31.4199 24.18 30.8799C25.28 29.8499 27.81 27.7 29.32 27.7V27.6899Z" fill="#A45600"/>
<path d="M25.0599 40.33C24.8599 41.35 24.4399 42.35 24.1899 43.38C23.8799 44.65 23.6499 46.05 23.4399 47.35C23.2999 48.19 23.2699 50.03 22.9799 50.66C22.6499 51.37 20.7599 50.23 20.2299 49.92C18.0099 48.64 16.2999 46.86 14.9299 44.71C14.8599 44.49 15.0499 44.58 15.1499 44.46C16.0299 43.34 16.7499 42.1 17.6899 41.01C18.1399 40.48 20.1399 38.35 20.6699 38.2C21.1999 38.05 22.9899 39.29 23.5699 39.62C24.0399 39.88 24.5499 40.12 25.0499 40.32L25.0599 40.33Z" fill="#A45600"/>
<path d="M73.44 25.5498C73.44 25.5498 72.78 26.0198 72.59 26.2898C70.99 28.5298 71.69 31.2098 71.31 33.6298C71.25 34.0198 71.13 34.5598 70.6 34.4098L67.03 31.2398C65.12 29.5298 65.65 26.8498 66.86 24.9198C68.39 24.4998 69.99 24.2798 71.41 23.5598C71.54 23.5598 73.35 24.9798 73.41 25.0898C73.48 25.2098 73.52 25.4098 73.45 25.5398L73.44 25.5498Z" fill="#BC6900"/>
<path d="M16.46 31.9398C17.05 30.3598 14.68 29.7098 14.56 31.2898C14.49 32.2298 15.03 32.5598 15.87 32.6498C15.11 33.5698 14.35 34.4798 13.68 35.4798C13.54 35.6398 13.3 35.6398 13.11 35.5798C12.97 35.5398 11.44 33.7798 11.08 33.4698C10.39 32.8898 9.62997 32.4598 8.81997 32.0698C8.00997 31.6798 4.99996 30.8398 6.05996 29.3898C6.53996 28.7398 9.32996 27.9098 10.16 27.8298C10.4 27.8098 10.62 27.9598 10.82 27.9198C10.9 27.9098 10.89 27.6998 10.98 27.6798C11.74 27.4898 14.87 27.6798 15.74 27.8498C16.47 27.9898 19.1 28.7698 18.46 29.8698L16.45 31.9298L16.46 31.9398ZM13.94 28.2998C13.16 28.5298 13.29 29.7398 14.02 29.6998C14.93 29.6498 14.9 28.0198 13.94 28.2998ZM9.93996 29.1298C9.08996 29.2698 8.67996 30.1698 9.01996 30.9398C9.24996 31.4798 10.5 32.0898 11.09 32.0598C13.08 31.9498 11.84 28.8198 9.93996 29.1298ZM13.06 33.7898C14.02 34.6798 14.54 31.8398 13 32.3098C12.47 32.4698 12.83 33.5698 13.06 33.7898Z" fill="#269F44"/>
<path d="M29.79 26.1599C29.59 26.1699 28.84 26.2 28.75 26.14C28.68 26.09 28.06 24.65 28.15 24.52C32.46 22.26 36.94 20.25 41.65 18.96C41.82 18.96 41.68 21.0799 41.35 21.2599C38.81 22.6299 36.46 24.3399 34.27 26.2199C33.93 26.3599 33.39 26.1999 32.98 26.1699C33.05 25.8099 32.8 25.9399 32.57 25.9299C31.81 25.8999 30.96 25.8999 30.2 25.9299C29.97 25.9299 29.73 25.8099 29.79 26.1699V26.1599Z" fill="#A45600"/>
<path d="M50.8 17.2998C51.57 17.5098 52.53 17.4298 53.34 17.4198C53.54 17.4198 53.86 17.4998 53.99 17.2998C55.18 17.3498 56.35 17.5498 57.53 17.6598C56.91 18.2398 56.15 18.6898 55.52 19.2498C55.19 19.5498 54.95 20.0298 54.64 20.2598C54.23 20.5498 53.39 20.7498 52.89 20.9798C52.59 21.1198 51.31 21.8998 51.22 21.9098C50.6 21.9998 49.23 21.2798 48.51 21.3098C48.45 21.2898 48.44 21.2498 48.45 21.1898C48.45 21.1698 48.55 21.1298 48.57 21.0698C47.49 21.0798 46.31 20.4098 45.26 20.7098C45.18 20.6998 45.1 20.7198 45.02 20.7098C45.09 20.3398 44.84 20.5098 44.61 20.4698C44.13 20.3898 43.47 20.4898 43.36 19.9998C43.36 19.8798 43.36 19.7598 43.36 19.6498C43.71 19.7998 43.75 18.9398 43.36 19.0598C43.46 18.2398 44.06 18.2698 44.8 18.0798C46.63 17.6098 48.91 17.3698 50.8 17.2898V17.2998Z" fill="#A45600"/>
<path d="M20 33.95C20.11 34.02 20.29 36.49 20.21 36.64C20.16 36.73 19.07 37.5399 18.88 37.7199C18.22 38.3499 17.5 39.0599 16.88 39.7299C15.9 40.7799 15.09 42.2199 13.82 42.9199C13.65 42.9199 12.8 39.86 12.83 39.7C12.88 39.44 14.58 37.0799 14.89 36.6799C15.15 36.3299 16.94 33.95 17.12 33.95H20.01H20Z" fill="#BC6900"/>
<path d="M53.28 57.3098C53.05 57.4498 53.39 57.8498 53.28 58.0098C53.18 58.1598 50.29 59.0698 49.89 59.1598C47.68 59.6598 45.25 59.8298 43 60.1698C42.75 60.2098 42.49 60.3498 42.25 60.3698C41.88 60.4098 42.25 59.7798 41.96 59.6698C42 59.1998 42.2499 57.7698 42.5399 57.4798C42.8699 57.1498 44.51 57.3598 45.09 57.3198C46.58 57.2098 48.28 56.8798 49.75 56.5498C50.39 56.4098 52.2999 55.6098 52.7599 56.0198C52.8999 56.1498 53.2199 57.0698 53.2899 57.3198L53.28 57.3098Z" fill="#A45600"/>
<path d="M37.11 57.4298C37.04 57.7898 37.29 57.6598 37.52 57.6698C38.28 57.6998 39.13 57.6998 39.89 57.6698C40.12 57.6698 40.36 57.7898 40.3 57.4298C40.55 57.4698 40.74 57.5698 40.78 57.8498C40.81 58.0898 40.5 59.8798 40.42 60.2598L40.07 60.7298C40.16 60.3198 39.86 60.3098 39.53 60.2698C38.08 60.0998 36.66 60.0998 35.2 59.8798C33.94 59.6998 30.82 58.7299 29.87 58.8399C29.49 58.8899 29.56 59.3698 29.34 58.7198C29.37 58.4098 30.36 56.4398 30.6 56.3798C30.8 56.3298 34.01 57.0798 34.61 57.1698C35.45 57.2998 36.28 57.3598 37.13 57.4298H37.11Z" fill="#A45600"/>
<path d="M69.68 22.3799C69.23 22.8599 68.33 22.7699 67.69 22.9299C67.01 23.0999 65.88 23.6699 65.28 23.5399C64.95 23.4699 63.86 22.6599 63.43 22.4399C62.16 21.7799 60.86 21.1399 59.58 20.5099C59.22 20.3399 57.95 19.9299 57.82 19.6699C57.5 19.0099 59.1 18.0799 59.8 18.1699C61.2 18.3399 64.46 19.7599 65.83 20.3999C67.2 21.0399 68.37 21.8099 69.68 22.3899V22.3799Z" fill="#A45600"/>
<path d="M65.3199 50.94C64.9199 50.68 63.3499 49.8499 63.5999 49.2899C63.7199 49.0199 64.3199 48.7 64.5499 48.46C67.5699 45.35 70.1099 41.5099 71.4499 37.3599C71.5799 37.2399 72.6999 38 72.8699 38.19C72.9299 38.47 72.6399 38.44 72.5399 38.62C72.0299 39.58 71.6999 41.06 71.1999 42.13C70.1399 44.4 68.2799 47.3599 66.6199 49.2299C66.1399 49.7799 65.2599 50.18 65.3199 50.94Z" fill="#A45600"/>
<path d="M2.53003 50.6999C2.41003 50.6099 3.31004 49.5199 3.41004 49.3999C4.43004 48.2199 5.93003 46.9799 7.26003 46.1699C7.59003 45.9699 8.88003 45.1599 9.14003 45.3299C9.34003 45.4599 9.98003 47.5199 10.18 47.9499C10.33 48.2799 11.12 49.4999 11.13 49.5999C11.16 49.7899 11 49.8499 10.84 49.8799C10.27 49.9799 9.45003 49.8299 8.84003 49.8799C8.23003 49.9299 7.39004 50.0499 6.75004 50.1499C5.34004 50.3599 3.96003 50.9399 2.53003 50.7099V50.6999Z" fill="#269F44"/>
<path d="M67.91 56.8399C67.88 56.6299 67.57 56.8899 67.4799 56.9399C67.02 57.1699 66.59 57.4199 66.14 57.6699C66.02 57.7399 65.9099 57.8399 65.7899 57.9099C65.7599 57.6999 65.45 57.9599 65.36 58.0099C60.64 60.3999 55.64 61.6399 50.33 61.7999C50.33 61.6699 50.65 61.6199 50.8 61.5699C51.08 61.4699 51.34 61.4099 51.63 61.3299C53.87 60.7199 55.9699 59.9799 58.1199 59.0899C58.4799 58.9399 58.92 58.6699 59.3 58.4999C60.44 58.0099 61.54 57.5599 62.7 56.8499C63.86 56.1399 63.86 56.6299 64.91 56.7299C65.93 56.8199 66.92 56.5599 67.92 56.3799C68.28 56.5999 68.22 56.6399 67.92 56.8499L67.91 56.8399Z" fill="#BC6900"/>
<path d="M55.05 57.1898C54.92 56.8898 54.02 55.1598 54.11 55.0698C57.05 54.2498 59.7799 52.7197 62.1199 50.7997L62.07 50.4697C62.55 50.9797 63.1599 51.3298 63.6999 51.7698C63.8099 51.8598 63.7799 51.9998 63.7799 52.0098L62.3 53.5397C60.8 54.8797 57.51 56.5497 55.6 57.2297C55.38 57.3097 55.25 57.3598 55.05 57.1998V57.1898Z" fill="#A45600"/>
<path d="M20 53.8899C20.39 53.5199 21.83 52.6399 22.32 52.6299C23.06 52.6299 23.55 53.4599 24.02 53.8199C25.33 54.8399 27.23 55.4599 28.85 55.7799C28.83 56.4999 28.31 57.0799 28.02 57.6699C27.81 57.8499 27.69 57.9199 27.4 57.8899C26.91 57.8299 25.44 57.1799 24.91 56.9499C23.63 56.3899 21.99 55.5499 20.83 54.7699C20.47 54.5299 19.99 54.3699 19.99 53.8899H20Z" fill="#A45600"/>
<path d="M12.21 47.5198C12.23 47.1798 13.4499 46.0098 13.7899 46.1098C13.8799 46.1398 14.6799 47.3098 14.8699 47.5198C15.9899 48.7598 17.75 50.4198 19.22 51.1998C19.5 51.3498 20.4399 51.5998 20.4799 51.6498C20.49 51.6598 20.53 51.9098 20.41 51.8898C19.72 52.1698 19.19 52.7898 18.6 53.1798C16.26 51.7498 14.39 49.5598 12.82 47.3298L12.2299 47.5098L12.21 47.5198Z" fill="#A45600"/>
<path d="M19.76 32.2898C19.31 32.2898 18.85 32.3098 18.4 32.2898C18.27 32.2898 18.08 32.3698 18.11 32.1698C18.93 31.8998 19.47 31.0298 20.11 30.4598C21.35 29.3498 25.22 26.1098 26.6 25.6198C26.72 25.5798 26.83 25.5398 26.95 25.5698C27.02 25.8998 27.34 26.5398 27.17 26.8398C27.12 26.9198 25.87 27.6498 25.62 27.8298C24.98 28.3098 24.22 28.8398 23.65 29.3398C23.61 29.3798 23.57 29.4198 23.53 29.4598C22.63 30.2698 21.9 31.2998 20.93 32.0598L19.83 32.1998L19.75 32.2998L19.76 32.2898Z" fill="#A45600"/>
<path d="M75.94 26.9799C76.76 27.2199 75.44 28.33 75.25 28.59C75 28.94 74.84 29.31 74.64 29.69C74.39 30.18 74.15 30.6699 73.94 31.1699L73.46 36.2999C73.26 36.3499 73.14 36.2399 72.99 36.1799C72.73 36.0799 72.5 36.02 72.28 35.94C73.14 34.15 73.13 32.5 73.11 30.57C73.11 30.37 73.19 30.0499 72.99 29.9199C73.01 29.4199 72.99 29.13 73.11 28.6199C73.61 28.6999 73.59 28.2299 73.82 27.9699C73.99 27.7799 75 26.7199 75.12 26.6699C75.57 26.4699 75.68 27.03 75.89 27.08C75.96 27.1 75.94 26.96 75.95 26.96L75.94 26.9799Z" fill="#A45600"/>
<path d="M65.3199 50.9399C65.2599 50.1799 66.1399 49.7799 66.6199 49.2299C68.2799 47.3599 70.1399 44.3999 71.1999 42.1299C71.6999 41.0599 72.0299 39.5799 72.5399 38.6199C72.6399 38.4299 72.9399 38.4599 72.8699 38.1899C73.1699 38.5099 73.2699 38.49 73.1799 39.02C72.7799 41.18 70.4599 44.9599 69.2199 46.8699C68.5499 47.8999 67.7699 49.1399 66.9699 50.0499C66.8099 50.2299 66.0399 51.0499 65.9099 51.1199C65.4599 51.3299 65.4799 51.0399 65.3199 50.9399Z" fill="#BC6900"/>
<path d="M53.2799 57.3098C53.3999 57.7198 53.7199 58.5898 53.3699 58.9298C53.1499 59.1498 50.5099 59.7598 49.9999 59.8698C47.3599 60.4398 44.6699 60.7298 42.0099 61.2098C41.9299 60.7298 41.9099 60.1598 41.9499 59.6698C42.2399 59.7898 41.8599 60.4098 42.2399 60.3698C42.4799 60.3498 42.7399 60.2098 42.9899 60.1698C45.2399 59.8298 47.6699 59.6598 49.8799 59.1598C50.2899 59.0698 53.1699 58.1498 53.2699 58.0098C53.3799 57.8498 53.0499 57.4498 53.2699 57.3098H53.2799Z" fill="#BC6900"/>
<path d="M29.3199 58.73C29.5499 59.37 29.4699 58.9 29.8499 58.85C30.7999 58.74 33.9099 59.71 35.1799 59.89C36.6399 60.1 38.0699 60.11 39.5099 60.28C39.8499 60.32 40.1499 60.33 40.0499 60.74L40.3999 60.27C40.3199 60.67 40.3499 61.08 39.8399 61.19C36.9599 60.79 33.9999 60.64 31.1899 59.86C30.9199 59.78 29.5299 59.36 29.4199 59.27C29.2599 59.14 29.2899 58.91 29.2999 58.74L29.3199 58.73Z" fill="#BC6900"/>
<path d="M55.0499 57.19C55.2499 57.35 55.3899 57.3 55.5999 57.22C57.5099 56.54 60.7999 54.87 62.2999 53.53L63.7799 52C63.8899 52.1 64.6599 52.25 64.4299 52.59C63.6899 53.05 63.1899 53.8 62.5399 54.35C60.5499 56.02 58.0299 56.89 55.6699 57.87C55.0399 58.02 55.1799 57.47 55.0499 57.18V57.19Z" fill="#BC6900"/>
<path d="M28.0199 57.6699C27.8699 57.9799 27.9699 58.6199 27.3799 58.6199C26.9799 58.6199 24.3899 57.5399 23.8499 57.2999C23.1099 56.9599 19.9899 55.3999 19.7299 54.8099C19.4899 54.2599 19.6499 54.2199 19.9899 53.8999C19.9899 54.3799 20.4699 54.5399 20.8299 54.7799C21.9799 55.5499 23.6299 56.3999 24.9099 56.9599C25.4399 57.1899 26.9199 57.8399 27.3999 57.8999C27.6899 57.9399 27.8099 57.8599 28.0199 57.6799V57.6699Z" fill="#BC6900"/>
<path d="M18.5799 53.1798C17.5599 53.8298 17.2899 53.3698 16.4499 52.6498C14.8499 51.2698 13.5899 49.4898 12.2599 47.8598C12.1899 47.7498 12.1899 47.6298 12.1999 47.5098L12.7899 47.3298C14.3599 49.5598 16.2299 51.7498 18.5699 53.1798H18.5799Z" fill="#BC6900"/>
<path d="M16.46 31.9399C16.29 32.3799 16.08 32.3999 15.87 32.6499C15.03 32.5599 14.5 32.2299 14.56 31.2899C14.67 29.7099 17.05 30.3599 16.46 31.9399Z" fill="#106821"/>
<path d="M65.79 57.8999C60.47 60.7399 55.01 61.9299 48.97 62.1499C48.59 62.1599 48.03 62.1999 47.67 62.1499C47.5 62.1299 47.3 62.0598 47.5 61.9098L50.8 61.5599C50.65 61.6099 50.32 61.6598 50.33 61.7898C55.63 61.6298 60.64 60.3899 65.36 57.9999C65.45 57.9499 65.76 57.6899 65.79 57.8999Z" fill="#BC6900"/>
<path d="M12.09 42.2098C11.78 42.1398 11.85 42.3598 11.8 42.5598C11.72 42.8698 11.51 43.6398 11.53 43.8898C11.54 44.0098 11.94 44.9898 12 45.0198C12.08 45.0698 12.45 45.0597 12.57 45.0397C12.24 45.3997 11.76 46.2697 11.37 45.5997C10.63 44.3397 11.07 42.6698 11.81 41.5098C12.17 41.6998 12.04 41.9897 12.11 42.2197L12.09 42.2098Z" fill="#BC6900"/>
<path d="M12.09 42.2099C12.19 42.5299 12.3 42.9298 12.42 43.2398C12.69 43.9098 13.74 44.8598 12.56 45.0498C12.44 45.0698 12.07 45.0799 11.99 45.0299C11.94 44.9999 11.53 44.0199 11.52 43.8999C11.5 43.6399 11.71 42.8699 11.79 42.5699C11.84 42.3699 11.78 42.1498 12.08 42.2198L12.09 42.2099Z" fill="#A45600"/>
<path d="M74.64 29.7C74 32.03 73.99 34.5 73.93 36.9C73.83 37.01 73.03 36.3899 72.99 36.1899C73.14 36.2499 73.26 36.3599 73.46 36.3099L73.94 31.1799C74.15 30.6699 74.39 30.19 74.64 29.7Z" fill="#A45600"/>
<path d="M75.94 26.9799C75.94 26.9799 75.94 27.1099 75.88 27.0999C75.68 27.0499 75.56 26.4799 75.11 26.6899C74.99 26.7399 73.97 27.7999 73.81 27.9899C73.58 28.2499 73.6 28.7199 73.1 28.6399C73.27 27.8799 74.07 26.7999 74.78 26.4899C75.41 26.2099 75.47 26.7199 75.93 26.9899L75.94 26.9799Z" fill="#A45600"/>
<path d="M57.9999 42.9097C57.5099 41.2697 57.2999 39.4898 57.1799 37.7798C57.1299 37.0998 57.3699 36.2697 56.9399 35.7197C57.3399 36.0997 57.3399 36.2697 57.3999 36.8597C57.5999 38.8897 57.7099 40.8897 58.0099 42.9197L57.9999 42.9097Z" fill="#A45600"/>
<path d="M67.9099 56.3697C66.9199 56.5497 65.9199 56.8197 64.8999 56.7197C63.8499 56.6197 63.7899 56.1698 62.6899 56.8398C61.5899 57.5098 60.4299 57.9897 59.2899 58.4897C59.7299 58.3597 60.1499 58.1297 60.5499 57.9197C61.0299 57.6597 63.1199 56.3297 63.3899 56.2697C63.8699 56.1697 66.1399 56.3797 66.9099 56.3697C67.3299 56.3697 67.5099 56.1197 67.9099 56.3697Z" fill="#BC6900"/>
<path d="M72.2799 35.95C72.1499 35.9 72.1699 35.9299 72.1799 35.7899C72.2499 35.0799 72.7499 34.1499 72.8699 33.2899C73.0099 32.2199 72.9399 30.9999 72.9899 29.9299C73.1899 30.0499 73.1099 30.38 73.1099 30.58C73.1299 32.51 73.1399 34.16 72.2799 35.95Z" fill="#A45600"/>
<path d="M33.4499 28.5199C33.2399 28.4499 33.4499 28.1298 33.3999 28.0398C33.1899 27.7198 30.1799 27.8099 29.6099 27.8099C29.4599 27.8099 29.3399 27.6899 29.3199 27.6899C30.5899 27.6199 31.8599 27.4798 33.1299 27.7198C33.9499 27.8698 33.6199 28.0399 33.4499 28.5199Z" fill="#A45600"/>
<path d="M39.94 45.0399C39.84 47.1599 39.83 48.9399 39.94 51.0599C39.58 51.1299 39.7099 50.8799 39.6999 50.6499C39.6399 48.9899 39.6299 47.1099 39.6999 45.4499C39.6999 45.2199 39.58 44.9799 39.94 45.0399Z" fill="#A45600"/>
<path d="M24.8399 51.9999C23.9999 50.8999 24.5999 48.7499 24.8399 47.3999C25.0399 47.5199 24.9699 47.8399 24.9399 48.0299C24.7899 49.3499 24.2799 50.6899 24.8399 51.9999Z" fill="#A45600"/>
<path d="M41.48 46.3399C41.84 46.2699 41.71 46.5198 41.72 46.7498C41.76 47.9398 41.69 49.2298 41.72 50.3498L41.49 48.1698C41.49 47.5598 41.49 46.9499 41.49 46.3399H41.48Z" fill="#A45600"/>
<path d="M41.71 41.6199C42.02 42.0399 41.72 42.6299 41.71 43.0899C41.68 43.7199 41.74 44.3599 41.71 44.9899C41.71 45.2199 41.83 45.4599 41.47 45.3999C41.49 44.0999 41.56 42.9199 41.71 41.6199Z" fill="#A45600"/>
<path d="M45.25 20.73C46.29 20.42 47.48 21.1 48.56 21.09C48.54 21.14 48.44 21.19 48.44 21.21C47.37 21.15 46.32 20.89 45.25 20.74V20.73Z" fill="#A45600"/>
<path d="M40.2999 57.4298C40.3699 57.7898 40.1199 57.6598 39.8899 57.6698C39.1299 57.6998 38.2799 57.6998 37.5199 57.6698C37.2899 57.6698 37.0499 57.7898 37.1099 57.4298C37.7899 57.4798 38.3599 57.5598 39.0599 57.5498C39.4799 57.5498 39.8899 57.3598 40.2899 57.4298H40.2999Z" fill="#BC6900"/>
<path d="M58.59 45.8597C58.32 44.8197 58.16 44.1198 58 43.0298C58.37 43.8798 58.52 44.9297 58.59 45.8597Z" fill="#A45600"/>
<path d="M29.7899 26.16C29.7199 25.8 29.9699 25.93 30.1999 25.92C30.9599 25.89 31.8099 25.89 32.5699 25.92C32.7999 25.92 33.0399 25.8 32.9799 26.16C31.7299 26.06 31.0099 26.09 29.7899 26.16Z" fill="#A45600"/>
<path d="M43.3599 20.02C43.4699 20.51 44.1299 20.41 44.6099 20.49C44.8299 20.53 45.08 20.35 45.02 20.73C44.71 20.69 44.3999 20.6 44.0899 20.56C43.8899 20.53 43.6499 20.66 43.44 20.6C43.1 20.5 43.3599 20.2 43.3599 20.02Z" fill="#A45600"/>
<path d="M53.9899 17.2998C53.8699 17.4998 53.5399 17.4198 53.3399 17.4198C52.5299 17.4198 51.5699 17.5098 50.7999 17.2998C51.8099 17.2598 52.9799 17.2598 53.9899 17.2998Z" fill="#A45600"/>
<path d="M58.12 59.0798C55.96 59.9698 53.87 60.7098 51.63 61.3198L58.12 59.0798Z" fill="#BC6900"/>
<path d="M32.86 32.53C32.61 31.89 32.73 31.15 32.86 30.52C32.79 31.14 32.96 31.94 32.86 32.53Z" fill="#BC6900"/>
<path d="M19.76 32.2898L19.84 32.1898L20.94 32.0498C20.27 32.5698 20.5 32.2898 19.76 32.2898Z" fill="#A45600"/>
<path d="M43.3599 19.0799C43.7499 18.9599 43.7099 19.8199 43.3599 19.6699C43.3699 19.4799 43.3399 19.2599 43.3599 19.0799Z" fill="#A45600"/>
<path d="M26.6099 53.0599C26.1899 53.1099 25.9599 52.78 25.6699 52.59C26.1199 52.57 26.3599 52.9099 26.6099 53.0599Z" fill="#A45600"/>
<path d="M62.4799 47.8699C61.4399 48.7899 61.25 48.3799 60.83 47.3999C61.4 48.3699 61.4599 48.4399 62.4799 47.8699Z" fill="#BC6900"/>
<path d="M67.91 56.8398C67.44 57.1598 66.68 57.4398 66.14 57.6698C66.59 57.4198 67.02 57.1798 67.48 56.9398C67.57 56.8898 67.88 56.6298 67.91 56.8398Z" fill="#BC6900"/>
<path d="M56.46 35.3597C56.35 35.3597 56.3 35.2897 56.22 35.2397C56.34 35.2297 56.38 35.2997 56.46 35.3597Z" fill="#BC6900"/>
<path d="M56.82 35.6C56.7 35.61 56.66 35.55 56.58 35.48C56.7 35.47 56.74 35.54 56.82 35.6Z" fill="#BC6900"/>
<path d="M25.3099 52.3598C25.1999 52.3598 25.1499 52.2998 25.0699 52.2398C25.1999 52.2198 25.2299 52.2898 25.3099 52.3598Z" fill="#BC6900"/>
<path d="M62.6 47.7499C62.6 47.7499 62.67 47.6499 62.72 47.6299C62.68 47.6699 62.64 47.7099 62.6 47.7499Z" fill="#BC6900"/>
<path d="M23.5399 29.4598C23.5399 29.4598 23.6199 29.3798 23.6599 29.3398L23.5399 29.4598Z" fill="#BC6900"/>
<path d="M43.36 36.6599L44.07 35.95C43.84 36.19 43.59 36.4199 43.36 36.6599Z" fill="#BC6900"/>
<path d="M68.9399 65.1298C70.7899 64.8198 71.0599 66.4798 70.5099 67.8798C70.0599 69.0198 67.4199 71.9398 66.1999 70.5298C65.5099 69.7298 66.2999 67.8898 66.7499 67.0798C67.2299 66.2198 67.8999 65.3098 68.9399 65.1398V65.1298Z" fill="#106821"/>
<path d="M98.09 28.3099C98.77 28.2899 98.86 29.07 98.78 29.58C98.52 31.35 96.72 32.8999 94.91 32.6099C93.67 32.4099 92.37 30.7499 92.96 29.5399C93.19 29.0699 93.94 28.88 94.24 29.27C94.67 29.81 93.79 31.43 95.79 31.08C97.58 30.77 96.87 28.3399 98.08 28.3099H98.09Z" fill="#020201"/>
<path d="M81.81 30.07C82.14 30.03 82.68 30.21 82.9 30.46C83.04 30.61 83.39 31.68 83.35 31.85C83.25 32.36 82.32 33.29 81.78 33.36C78.76 33.73 80.43 30.23 81.81 30.08V30.07Z" fill="#106821"/>
<path d="M70.12 72.4499C71.31 72.1399 72.31 72.9899 71.57 74.1299C71.08 74.8899 69.6 76.1199 68.86 75.0699C68.25 74.2199 69.22 72.6799 70.13 72.4399L70.12 72.4499Z" fill="#106821"/>
<path d="M61.7399 79.4097C64.1999 78.9497 63.7299 81.5797 61.5399 82.0397C59.3599 82.4997 60.1099 79.7097 61.7399 79.4097Z" fill="#106821"/>
<path d="M65.1699 74.3298C65.6099 74.2398 65.9399 74.2899 66.2699 74.5899C67.5899 75.7899 64.6399 78.0598 63.7299 77.0098C63.0699 76.2398 64.3599 74.4898 65.1699 74.3298Z" fill="#106821"/>
<path d="M74.1299 67.6099C74.2899 67.6099 75.1799 67.9199 75.2799 68.0499C75.8499 68.7899 74.9499 70.1399 74.1699 70.3499C71.5299 71.0499 72.2899 67.6099 74.1299 67.6099Z" fill="#106821"/>
<path d="M88.41 29.3098C87.34 30.4698 86.0599 28.0798 87.2799 27.1698C88.8399 26.0098 89.01 28.6498 88.41 29.3098Z" fill="#106821"/>
<path d="M85.71 29.7297C85.71 29.7297 86.11 30.1698 86.13 30.1998C86.6 31.1098 86.13 32.3998 85 32.1498C83.57 31.8398 84.88 29.2397 85.71 29.7297Z" fill="#106821"/>
<path d="M73.1899 63.3499C74.6299 63.0999 74.5499 65.6399 73.3699 65.1299C72.6399 64.8199 72.4099 63.4799 73.1899 63.3499Z" fill="#106821"/>
<path d="M85.1699 34.6199C84.4399 33.8799 85.8099 32.6299 86.4499 33.5199C86.9999 34.2799 85.6799 35.1399 85.1699 34.6199Z" fill="#106821"/>
<path d="M68.2699 77.6099C68.3499 78.1299 68.1899 79.3099 67.4399 78.8499C66.7599 78.4399 67.8199 77.6599 68.2699 77.6099Z" fill="#106821"/>
<path d="M67.04 8.93995C67.24 8.86995 68.24 9.04994 68.48 9.11994C69.6 9.48994 70.58 10.9399 70.22 12.1199C69.95 12.9899 68.64 12.59 68.04 12.28C67.36 11.93 66.8 10.9 66.74 10.15C66.72 9.86997 66.77 9.02995 67.04 8.93995Z" fill="#106821"/>
<path d="M71.8999 12.2498C72.7799 12.1298 74.5099 13.0999 74.6399 14.0699C74.8199 15.4699 73.2199 15.4398 72.3199 14.9698C71.3499 14.4598 70.5799 12.4399 71.8999 12.2599V12.2498Z" fill="#106821"/>
<path d="M68.12 5.64982C69.64 5.39982 70.65 8.06981 69.04 8.07981C67.43 8.08981 66.56 5.89982 68.12 5.64982Z" fill="#106821"/>
<path d="M71.96 10.0698C71.69 9.72983 71.66 8.40981 72.24 8.35981C73.03 8.28981 74.04 8.85983 74.16 9.69983C74.37 11.1698 72.64 10.9098 71.96 10.0698Z" fill="#106821"/>
<path d="M64.57 4.34005C65.61 3.98005 67.7 5.47002 66.14 6.50002C65.49 6.93002 64.42 6.27005 64.28 5.53005C64.22 5.20005 64.19 4.46005 64.57 4.34005Z" fill="#106821"/>
<path d="M11.94 62.06C14.73 61.7 11.85 65.9 10.26 65.81C7.74999 65.67 9.84 62.33 11.94 62.06Z" fill="#106821"/>
<path d="M15.13 63.9499C16.73 63.6199 16.83 65.7499 15.64 66.1099C13.46 66.7799 13.35 64.3199 15.13 63.9499Z" fill="#106821"/>
<path d="M7.46002 66.4199C8.61002 66.2499 9.13001 67.5799 7.90001 68.2799C6.59001 69.0199 5.77002 67.5099 6.44002 66.9299C6.55002 66.8299 7.31002 66.4399 7.47002 66.4199H7.46002Z" fill="#106821"/>
<path d="M15.6 59.9298C16.52 59.6598 17.59 61.3698 16.57 61.9698C15.77 62.4398 14.68 61.5398 14.98 60.6098C15.04 60.4298 15.42 59.9798 15.6 59.9298Z" fill="#106821"/>
<path d="M12.18 66.5397C13.03 66.4297 12.95 67.5797 12.32 68.0997C11.84 68.4997 10.96 68.9498 10.7 68.0798C10.42 67.1398 11.43 66.6298 12.18 66.5298V66.5397Z" fill="#106821"/>
<path d="M9.94001 29.13C11.84 28.82 13.08 31.95 11.09 32.06C10.5 32.09 9.25001 31.49 9.02001 30.94C8.69001 30.16 9.09001 29.27 9.94001 29.13Z" fill="#106821"/>
<path d="M13.06 33.7897C12.82 33.5697 12.47 32.4697 13 32.3097C14.55 31.8397 14.02 34.6797 13.06 33.7897Z" fill="#106821"/>
<path d="M13.94 28.3C14.9 28.01 14.93 29.65 14.02 29.7C13.29 29.74 13.16 28.54 13.94 28.3Z" fill="#106821"/>
</svg>
