<svg width="103" height="106" viewBox="0 0 103 106" fill="none" xmlns="http://www.w3.org/2000/svg">
<path d="M37.63 100.55C36.54 100.95 35.41 101.31 34.27 101.54C24.13 103.61 11.21 98.2699 5.79998 89.4099C3.82998 86.1799 0.309985 77.0399 0.0499845 73.3599C-0.610016 64.1599 6.26998 57.1399 14.29 53.9699C16.62 53.0499 19.1 52.5599 21.39 51.6799C25.62 50.0499 25.94 47.5399 27.98 44.0099C31.8 37.4199 37.77 33.9699 45.54 35.3099C47.04 35.5699 48.47 36.0899 49.92 36.4999C58.05 28.5699 66.55 21.0299 74.81 13.2499C74.96 13.0299 75.24 12.1399 75.21 11.9099C75.18 11.5799 73.7 10.9799 73.84 9.62988C74.07 7.30988 77.34 5.69988 78.86 7.90988C79 7.69988 79.81 7.06988 79.84 6.90988C79.87 6.74988 79.56 6.55987 79.48 6.36987C78.26 3.68987 82.26 0.629878 83.85 3.49988C84.91 2.72988 85.87 1.50988 86.93 0.779876C87.27 0.549876 87.48 0.409863 87.91 0.359863C89.16 0.209863 94.36 1.37987 95.71 1.83987C97.42 2.41987 99.11 4.44987 100.32 5.80988C101.13 6.71987 102.69 8.22987 102.69 9.45987C102.69 9.94987 102.27 12.2199 102.09 12.6799C101.91 13.1399 100.98 14.0199 100.97 14.1099C100.96 14.1899 101.43 14.8899 101.49 15.1899C102.09 18.0899 97.96 19.3699 96.5 17.0599L94.82 18.0999C94.82 18.3799 95.1 18.4999 95.23 18.7899C96.45 21.4999 93.24 23.6299 91 21.9699C90.79 21.8199 90.49 21.3399 90.45 21.3299C90.24 21.2999 88.47 22.0499 87.88 22.1199C86.51 22.2799 85.23 22.0099 83.85 22.4999C83.1 22.7699 82.43 23.5399 81.88 24.1299C77.52 28.7499 72.94 34.0499 68.83 38.9199C67.73 40.2299 65.82 42.3099 65.35 43.9099C64.11 48.1799 67.8 51.6099 67.9 55.7899C68.1 55.8399 68.13 55.7099 68.25 55.6199C68.84 55.1699 69.41 54.3899 69.99 53.8799C72.35 51.8099 77.3 49.2999 80.49 49.6499C81.97 49.8099 81.69 50.7399 81.58 51.8999C81.27 54.9799 80.12 59.2099 78.32 61.7499C78.05 62.1299 77.1 63.0199 77.17 63.3799C77.21 63.5799 79.54 64.1099 79.94 64.2299C81.81 64.8299 84.59 65.8899 86.11 67.1099C87.76 68.4499 86.65 69.1099 85.41 70.0999C83.24 71.8499 80.69 73.0299 77.88 73.2999C78.43 74.9399 78.12 76.4699 76.72 77.5299C76.43 77.7499 75.6 78.0699 75.5 78.2799C75.37 78.5499 75.46 79.1699 75.39 79.5599C75.01 81.7799 72.37 83.3999 70.22 83.3799C70.57 85.7899 70.57 88.3399 69.95 90.7099C69.25 93.3999 68.03 92.8999 66 91.7099C64.29 90.6999 63.2 89.4699 61.86 88.0799C61.75 87.9699 61.71 87.8599 61.51 87.9099C61.74 88.4899 61.58 89.3599 61.4 89.9399C61.15 90.7299 60.33 91.4399 60.17 92.0799C59.87 93.2799 60.2 94.0899 59.25 95.2199C57.98 96.7299 55.83 97.0599 54.2 95.9099C54.18 98.8599 51.54 101.06 48.67 99.8699C48.42 99.7699 47.5 99.1499 47.43 99.1599C47.22 99.1999 46.68 100.45 46.48 100.76C45.71 101.91 44.22 103 43.03 103.69C42.06 104.25 39.35 105.59 38.3 105.24C37.94 105.12 37.61 104.28 37.61 103.96V100.54L37.63 100.55ZM88.09 17.2899C88.55 17.1399 88.88 16.8099 89.29 16.5699L100.27 8.86987C100.29 8.79987 99.63 8.01987 99.52 7.89987C98.44 6.64987 96.22 4.00988 94.73 3.52988C92.82 2.90988 90.37 2.71987 88.38 2.20987C87.78 2.25987 85.58 4.52987 84.96 5.05988C82.58 7.10987 79.73 9.23987 77.53 11.4299C77.41 11.5499 77.29 11.6499 77.2 11.7999C77.1 11.9699 76.57 14.0799 76.59 14.1999C76.62 14.3499 77.28 14.6999 77.59 14.5199C78.21 14.1599 78.93 12.8999 79.68 12.5399C79.86 12.2199 79.57 11.9299 79.52 11.6399C79.36 10.5799 80.41 9.59988 81.43 9.52988C81.92 9.49988 82.51 9.85989 82.86 9.69989C83.24 9.23989 86.01 7.05989 85.98 6.69989C85.92 6.04989 85.45 6.00988 85.86 5.02988C86.93 2.47988 90.85 4.98988 88.61 6.96988C87.81 7.67988 87.4 7.21987 86.81 7.48987C86.55 7.60987 85.31 9.00988 84.95 9.34988C84.67 9.61988 83.54 10.3999 83.47 10.6499C83.36 11.0199 83.45 11.4899 83.24 11.9299C82.77 12.8999 81.53 13.1899 80.55 13.1799L78.35 15.2699C78.35 15.4099 80.38 16.8599 80.55 16.9099C80.78 16.9699 82.17 15.8599 82.53 15.6299C83.08 15.2899 84.69 14.5299 85.02 14.1799C85.22 13.9699 85.2 13.6399 85.37 13.3699C85.91 12.4899 86.79 12.4499 87.71 12.3499L91.92 9.59988C92.22 9.23988 91.79 8.14987 92.81 7.58987C94.52 6.63987 96.26 8.75987 95.06 10.1799C94.39 10.9699 93.53 10.6599 92.71 10.3699L88.57 13.0299C89.69 14.8999 87.59 16.7499 85.85 15.5599C85.66 15.4299 85.71 15.1099 85.4 15.2499L81.72 17.5499C81.56 17.7799 82.45 18.2499 82.71 18.2499C83.01 18.2499 84.19 17.6799 84.62 17.5499C85.13 17.5699 85.61 17.4599 86.13 17.4299C86.32 17.4299 86.52 17.4399 86.71 17.4299C87.25 17.3999 87.55 17.4899 88.1 17.3099L88.09 17.2899ZM100.62 10.0999L88.56 18.3999C87.98 18.7799 87.35 18.4399 86.76 18.4399C86.17 18.4399 83.96 18.7599 83.57 19.0899C83.32 19.2999 83.51 20.1899 83.45 20.5399C83.53 20.6199 84.87 20.3299 85.13 20.3099C86.63 20.1699 88.64 20.3899 89.87 19.3699C90.21 19.0899 90.37 18.2099 91.11 17.7099C91.85 17.2099 92.47 17.3599 93.07 17.1199C93.24 17.0499 95.89 15.2399 96.03 15.0999C96.28 14.8499 96.34 14.4999 96.55 14.2299C97.61 12.8599 98.69 13.5099 99.68 12.7199C100.62 11.9799 100.42 11.2099 100.61 10.1099L100.62 10.0999ZM74.63 16.0099C73.43 17.1599 72.16 18.4699 70.92 19.5499C70.82 19.6399 70.71 19.7199 70.57 19.7199C70.51 19.7999 71.39 20.5099 71.61 20.3599C72.88 19.1299 74.09 17.8399 75.33 16.5799C75.46 16.4499 76.56 15.5199 76.49 15.4199C76.21 15.4399 75.83 14.9299 75.64 14.9699C75.46 14.9999 74.83 15.8199 74.64 15.9999L74.63 16.0099ZM76.49 17.0499C75.2 18.4099 73.88 19.7299 72.55 21.0499C72.87 21.2799 74.29 22.4399 74.55 22.3699C74.79 22.3099 77.62 19.3499 78.06 18.9099C78.18 18.7799 78.2 18.5799 78.23 18.5599C78.26 18.5399 78.43 18.5399 78.52 18.4499C78.81 18.1599 79.1 17.8699 79.39 17.5799C79.1 17.4299 77.58 16.1599 77.46 16.1399C77.26 16.1099 76.67 16.8699 76.49 17.0599V17.0499ZM80.78 20.0699C80.9 19.9499 81.9 19.1199 81.82 19.0299C81.49 19.0699 80.34 18.1199 80.2 18.2199C80.19 18.2199 80.17 18.4199 80.08 18.5099C79.83 18.7599 79.58 19.0699 79.38 19.2699C78.9 19.7499 75.61 22.7899 75.56 23.0499C75.52 23.2599 76.85 24.2599 77.12 23.9099C78.29 22.5899 79.54 21.3399 80.77 20.0799L80.78 20.0699ZM70.69 21.1099C70.26 21.0999 69.95 20.5099 69.53 20.6999L65.81 24.1799C65.7 24.2799 65.68 24.3399 65.75 24.4799C65.81 24.5899 66.71 25.1799 66.86 25.1199L70.69 21.1099ZM63.38 45.6999C63.29 43.7199 64.07 42.2499 65.19 40.7299C69.69 34.6499 75.71 28.5299 80.72 22.7399C81.21 22.1699 82.07 21.7399 81.94 20.8899L61 42.6999V42.9299L63.38 45.7099V45.6999ZM73.58 23.0999C73.52 22.9999 71.93 22.1299 71.7 21.9399L67.8 25.8099L69.81 27.1299L73.49 23.4999C73.58 23.3999 73.66 23.2199 73.59 23.0999H73.58ZM70.81 27.9499C71.29 28.0299 71.98 29.0299 72.43 28.8299L76.14 24.8799L74.71 23.8999L70.81 27.9499ZM65.93 25.7599C65.93 25.7599 65.66 25.7099 65.55 25.6199C65.29 25.4199 65.03 25.0599 64.66 25.2299L60.83 28.7099C61.18 28.9099 61.97 29.6899 62.33 29.5199C63.31 29.0899 64.84 26.8399 65.82 26.1599C65.91 26.0799 65.98 25.8399 65.93 25.7499V25.7599ZM68.95 27.8399C68.42 27.7699 67.39 26.5799 66.94 26.6899L63.26 30.3299L65.27 31.6599L68.94 27.8399H68.95ZM69.95 28.6599L66.28 32.2999C66.28 32.3999 67.77 33.4899 67.87 33.4999C68.12 33.5399 71.02 30.2199 71.46 29.8099C71.51 29.5999 70.22 28.7999 69.96 28.6599H69.95ZM59.98 29.5899C59.57 29.6999 57.3 32.3199 56.65 32.6399C56.53 32.7399 56.5 32.7899 56.59 32.9399C56.63 33.0099 57.85 33.7999 57.92 33.8199C59.16 32.8299 60.23 31.5499 61.4 30.4399C61.13 30.2099 60.29 29.4999 59.98 29.5899ZM64.42 32.3599C63.97 32.2699 62.76 31.1199 62.41 31.2099L58.96 34.6799C59.54 34.7099 60.62 35.9499 61.08 35.8299L64.41 32.3699L64.42 32.3599ZM62 36.7599C62.5 36.8799 63.33 37.9199 63.76 37.7999L67.09 34.2899C66.82 34.0399 65.72 33.1199 65.44 33.1899C64.98 33.3099 63.05 35.8299 62.34 36.1299L62.01 36.7599H62ZM57.12 34.5699L55.61 33.6899C55.27 34.1699 52.07 36.8199 52.13 37.0499C52.15 37.1499 53.6 38.1699 53.87 37.9899L57.12 34.5699ZM58.12 35.3899L54.68 38.7899L56.61 40.1099L60.11 36.6999L58.11 35.3799L58.12 35.3899ZM23.82 90.4599C25.68 90.6799 27.42 90.6799 29.27 90.4599C30.09 90.3599 30.9 90.2399 31.71 90.0599C32.18 89.9499 34.62 89.3299 34.84 89.1299C35.02 88.9699 34.68 88.2799 34.64 87.9399C34.33 85.3899 36.37 83.5999 38.78 83.5099C38.84 83.4599 38.06 82.3299 37.98 82.1599C36.96 79.8899 38.09 77.7499 40.4 77.0699C40.72 76.9799 41.31 77.0099 41.56 76.8399C41.67 76.7699 42.11 75.9699 42.32 75.7399C42.98 74.9999 43.81 74.5299 44.82 74.4599C43.17 72.7199 42.57 70.6099 43.84 68.4399C44.02 68.1399 44.67 67.4399 44.7 67.2099C44.76 66.8299 44.41 66.3299 44.36 65.9299C43.86 62.2299 47.05 60.3099 50.38 60.5499C50.46 60.3699 50.28 60.2599 50.26 60.1999C50.22 59.9899 50.23 59.8699 50.14 59.6199C50.1 59.5199 50.04 59.4299 50.02 59.3899C49.94 58.5199 49.94 57.7099 50.02 56.8399C50.75 54.8899 52.4 52.8799 54.72 53.0099C55.43 53.0499 56.65 53.6399 57.15 53.5899C57.57 53.5499 58.45 52.8299 59.01 52.6599C60.29 52.2599 61.24 52.5299 62.44 53.0099C62.86 49.8499 62.47 47.1899 60.24 44.8299C60.11 44.6899 59.91 44.6799 59.89 44.6599C59.86 44.6299 59.76 44.1999 59.6 44.1999C59.45 44.1999 57.85 46.1099 57.57 46.3999C56.59 47.4299 53.96 50.5499 52.94 51.0999C51.41 51.9399 50.24 50.0999 48.94 49.5199L46.31 51.8999C46.03 52.2699 46.55 52.6299 46.72 53.0099C49.03 58.1999 43.95 63.5699 38.89 64.0799C35.82 67.0199 33.07 70.3199 30.08 73.3599C31.31 74.4399 35 75.5299 33.39 77.7099C33.05 78.1699 31.39 79.6899 30.89 80.0899C29.84 80.9299 29.34 80.8399 28.23 80.1999C23.38 77.4099 18.72 73.2199 13.85 70.3399C13.14 69.7999 12.81 69.0599 13.2 68.1999C13.39 67.7799 15.93 65.2999 16.36 65.0999C16.79 64.8999 17.4 64.8799 17.83 65.0899L22.14 67.9799C25.08 65.4699 27.88 62.7299 30.73 60.0899C30.88 59.7699 30.58 59.1499 30.56 58.7599C30.14 52.3699 36.3 48.3799 42.19 49.5299L44.94 46.6999C44.32 46.0999 42.61 45.3299 42.41 44.4699C42.18 43.4699 42.68 43.1299 43.31 42.5199C44.74 41.1399 46.35 39.9099 47.78 38.5199C47.88 38.4199 48.29 38.0799 48.18 37.9399C41.33 35.4099 34.56 37.5199 30.5 43.5199C28.7 46.1799 27.81 49.4999 25.27 51.6199C22.73 53.7399 18.67 54.2899 15.56 55.4799C7.85999 58.4299 0.00998449 65.8699 2.44998 74.9099C4.51998 82.5899 16.32 89.5999 23.83 90.4799L23.82 90.4599ZM61.03 37.4799C60.59 37.5899 58.31 40.3599 57.7 40.7799C57.67 40.9299 59.21 42.0399 59.41 42.0899C59.54 42.1199 59.64 42.0899 59.73 41.9999L62.79 38.7899C62.83 38.5699 61.32 37.4099 61.02 37.4899L61.03 37.4799ZM51.16 37.6999C50.84 38.1999 48.39 40.1499 48.31 40.4399C48.24 40.7099 49.58 41.6899 49.77 41.7399C49.93 41.7799 49.98 41.7199 50.1 41.6399C50.97 41.0599 51.93 39.5799 52.82 38.9099L51.16 37.6999ZM55.84 40.8299C55.28 40.7299 54.2 39.5499 53.72 39.6799C53.29 39.7999 51.42 42.1299 50.85 42.5099L52.86 43.9499C53.6 43.0399 55.09 42.0399 55.72 41.1199C55.79 41.0199 55.88 40.9999 55.83 40.8299H55.84ZM47.22 41.4199L44.12 44.1299C44.12 44.2399 45.83 45.4099 45.95 45.4399C46.12 45.4799 46.26 45.4799 46.39 45.3499L49.11 42.6199C48.74 42.4399 47.51 41.3399 47.22 41.4099V41.4199ZM58.72 42.9299C58.61 42.7299 57.07 41.9599 56.82 41.6599L53.87 44.6999L55.78 46.1499C56.48 45.2499 58.04 44.2199 58.63 43.3399C58.71 43.2199 58.81 43.0899 58.72 42.9399V42.9299ZM52.01 44.6599L50 43.3999L47.14 46.2199L49.17 47.6499C49.87 46.7699 51.3 45.8199 51.9 44.9499C51.97 44.8499 52.06 44.8299 52.01 44.6599ZM55.03 46.8599C54.46 46.7299 53.44 45.4499 52.91 45.5999C52.74 45.6499 50.54 47.8499 50.38 48.0699C50.3 48.1899 50.24 48.2399 50.28 48.3999C50.36 48.6899 51.97 49.7399 52.39 49.6199C52.88 49.4699 54.32 47.4799 54.91 47.1499L55.02 46.8599H55.03ZM43.31 49.9899C44.07 50.2199 44.73 50.7499 45.34 51.2399L48.07 48.8899L45.95 47.3399C45.75 47.3599 43.63 49.4099 43.43 49.6999C43.36 49.7999 43.27 49.8099 43.32 49.9899H43.31ZM64.31 54.8599C64.65 55.7299 65 56.5999 65.12 57.5299C65.43 57.1799 66.52 56.6299 66.51 56.2099C66.5 55.7899 65.97 54.0099 65.79 53.5499C65.73 53.3899 65.61 53.2999 65.58 53.2399C65.6 52.8399 65.39 52.4399 65.23 52.0799C65.15 51.8999 65.13 51.6899 65 51.4999L64.42 50.1099C64.39 50.7799 64.46 51.4699 64.42 52.1399C64.36 53.0499 64 54.0899 64.31 54.8699V54.8599ZM78.69 51.3799C76.05 51.8799 73.37 52.9599 71.33 54.7499C71.18 54.8899 70.21 55.7699 70.34 55.9099C70.97 55.9899 71.67 56.5299 72.14 56.9599C72.28 57.0899 72.67 57.8099 72.89 57.6499C74.46 55.2699 76.59 53.2999 78.69 51.3899V51.3799ZM76.61 61.0099C78.77 58.7399 79.36 55.3299 79.8 52.3099C77.64 53.9999 75.82 56.0899 74.17 58.2799C75.33 58.7499 76.37 59.7399 76.61 60.9999V61.0099ZM61.52 65.7599C61.91 63.2699 63.79 61.0499 63.61 58.5099C63.46 56.4099 62.37 53.8399 59.84 54.1599C58.95 54.2699 58.44 55.1599 57.73 55.2899C56.14 55.5799 55.4 54.1899 53.58 54.9699C51.15 55.9999 51.03 59.8699 53.1 61.2599C54.43 62.1499 55.77 62.5699 57.13 63.7299C58.31 64.7499 59.25 65.9999 60.14 67.2699C60.2 65.4399 59.83 63.6099 59.19 61.8999C59.03 61.4799 58.38 60.3699 58.35 60.0899C58.29 59.6099 58.77 59.2299 59.22 59.4299C59.86 59.7199 60.86 62.7699 61.04 63.5299C61.2 64.1699 61.23 64.8699 61.39 65.5099C61.42 65.6299 61.37 65.7899 61.54 65.7599H61.52ZM64.66 68.6599C66.35 68.1599 68.05 67.9499 69.82 68.0799C70.84 68.1599 71.75 68.5099 72.84 68.4199C74.92 68.2599 77.25 66.5399 75.78 64.3199C75.56 63.9899 75.03 63.6699 74.92 63.3199C74.63 62.4199 75.47 61.6099 74.52 60.4799C73.86 59.6799 73.46 60.0599 72.62 59.9399C71.45 59.7799 71.53 58.6999 70.93 58.0399C70.05 57.0899 68.74 57.0499 67.65 57.6599C65.48 58.8599 64.14 62.2299 63.39 64.4799C63.99 64.2299 64.54 63.8799 65.13 63.6099C65.44 63.4699 66.12 63.3599 66.33 63.2099C66.45 63.1199 66.68 62.5899 66.99 62.3299C67.52 61.8899 67.9 61.8199 68.56 61.7999C68.79 61.7999 69.11 61.9199 69.24 61.8999C69.37 61.8799 69.6 61.5499 69.81 61.4399C72.54 59.9699 74.33 64.4699 71.2 65.1499C70.93 65.2099 70.6 65.1199 70.36 65.2399C70.12 65.3599 69.85 65.9299 69.16 66.1299C68.29 66.3799 68.1 66.0599 67.5 66.0199C66.9 65.9799 65.09 68.1099 64.68 68.6599H64.66ZM31.31 61.1199L23.26 68.6099C23.21 68.9099 25.24 70.1699 25.62 70.2799L25.86 70.1599L33.1 62.9099C32.4 62.4099 31.86 61.7599 31.3 61.1099L31.31 61.1199ZM58.97 68.1999C57.17 64.8499 52.81 61.6699 48.85 62.1999C47.1 62.4399 45.73 63.7299 45.99 65.5799C46.07 66.1799 46.6 66.7099 46.56 67.3199C46.51 68.0799 45.73 68.5499 45.35 69.1399C44.2 70.9399 44.97 72.7999 46.76 73.7499C49.25 75.0699 51.58 72.7399 53.54 71.5199C55.07 70.5699 56.8 69.7799 58.63 69.8299C58.7 69.5599 58.58 69.6399 58.48 69.5699C57.46 68.7699 55.79 68.0099 54.49 67.8799C53.82 67.8099 51.9 68.1999 52.01 67.2299C52.08 66.6499 53.21 66.5899 53.69 66.5799C54.71 66.5699 56.05 66.8599 57 67.2299C57.68 67.4899 58.3 67.9499 58.97 68.2099V68.1999ZM70.54 62.5399C69.92 62.7199 69.99 63.5599 70.61 63.8199C71.69 64.2799 72 62.1099 70.54 62.5399ZM68.22 63.1099C66.87 63.3899 67.72 65.5899 69.01 64.7099C69.94 64.0799 69.18 62.9099 68.22 63.1099ZM37.05 64.1399C36.39 64.2699 34.46 63.4199 34.04 63.6199C31.54 66.0699 28.93 68.4399 26.61 71.0399C26.64 71.1799 28.78 72.5699 28.97 72.6399C29.08 72.6799 29.16 72.7799 29.28 72.6799L37.05 64.1499V64.1399ZM66.39 64.6099C66.15 64.4399 63.93 65.7699 63.58 66.0199C62.64 66.6899 60.34 68.7699 60.49 69.9899C60.57 70.6399 61.25 70.8099 61.77 70.4699C62.33 70.0899 63.51 67.8999 64.14 67.1599C64.38 66.8799 64.77 66.4299 65.02 66.1899C65.27 65.9499 66.45 65.1399 66.51 65.0599C66.54 65.0099 66.42 64.6299 66.4 64.6199L66.39 64.6099ZM83.57 67.2699C81.72 66.5099 79.89 65.6099 77.89 65.2999C77.95 66.0599 77.68 66.7499 77.42 67.4399L83.57 67.2699ZM20.92 69.0099C20.1 68.8199 17.75 66.5799 17.15 66.5799C16.93 66.5799 16.78 66.7399 16.63 66.8599C16.31 67.0999 14.98 68.4099 14.77 68.7099C14.7 68.8099 14.61 68.8299 14.66 68.9999L29.39 79.0499C29.57 79.1499 29.65 79.0799 29.8 78.9899C29.95 78.8999 32.02 76.8699 32.05 76.7099C32.09 76.5399 31.95 76.5299 31.86 76.4499C31.66 76.2599 29.24 74.6099 29.07 74.5899C28.64 74.6899 27.68 76.0899 27.37 76.0599C27.31 76.0599 26.9 75.8699 26.86 75.8199C26.21 75.1199 28.2 74.0799 27.99 73.7599L25.48 72.1399C24.83 72.3099 24.28 73.9499 23.53 73.3999C22.66 72.7599 24.44 71.7199 24.39 71.4999L22 69.8299C21.63 69.7599 20.72 71.5799 19.87 71.1599C18.87 70.6599 20.62 69.5299 20.84 69.2499C20.9 69.1799 20.97 69.1999 20.91 69.0199L20.92 69.0099ZM84.03 68.7799C80.93 68.5099 77.78 68.8799 74.75 69.5299C75.07 69.7999 75.43 70.0099 75.74 70.2799C76.01 70.5199 76.98 71.6899 77.07 71.7299C77.75 72.0599 80.87 70.9899 81.64 70.6099C82.5 70.1799 83.45 69.5399 84.03 68.7699V68.7799ZM63.61 71.7899C64.96 73.2499 65.81 75.0099 66.29 76.9299C66.68 78.4999 66.54 79.7899 67.96 80.9399C69.59 82.2699 72.13 81.8599 73.35 80.1899C74.06 79.2199 73.37 78.2499 73.95 77.3099C74.61 76.2299 76.17 76.5799 76.37 74.9699C76.9 70.7199 70.26 69.0299 67.04 69.4699C66.13 69.5899 64.89 69.9299 64.18 70.4999H65.86C66.64 70.4999 68.41 71.3399 69.09 71.7999C69.6 72.1499 71.87 74.0599 70.76 74.5899C70.14 74.8899 69.71 73.9499 69.28 73.5699C68.43 72.8199 66.78 71.7699 65.62 71.7699H63.59L63.61 71.7899ZM61.29 71.7899C61.46 72.6199 60.81 76.6599 60.05 76.8799C59.78 76.9599 59.36 76.7899 59.31 76.4899C59.26 76.1499 59.84 74.3399 59.89 73.7099C59.92 73.3399 59.96 71.7799 59.87 71.5299C59.51 70.4599 55.96 71.6999 55.25 72.0899C53.08 73.2499 50.09 76.9899 52.01 79.3999C53.41 81.1599 55.15 79.8199 56.23 80.7499C57.2 81.5899 55.94 83.6099 58.4 83.2299C59.21 83.0999 59.96 82.3699 60.54 82.3499C61.79 82.2899 62.59 83.8299 63.96 82.0699C65.9 79.5799 64.88 75.4199 62.98 73.1999C62.83 73.0299 61.46 71.6199 61.3 71.8099L61.29 71.7899ZM49.69 78.6899C49.77 78.3599 49.69 77.3799 49.69 76.9499C49.69 76.7799 50.16 75.7299 50.04 75.6199L47.95 75.8499C48.66 76.7299 49.14 77.7899 49.46 78.8599C49.5 78.8899 49.68 78.7299 49.69 78.6899ZM48.18 84.0799C48.15 83.2499 48.44 82.4099 48.42 81.5799C48.37 79.5799 47.03 75.2499 44.27 76.1599C43.25 76.4999 43.29 77.6999 42.61 78.2099C41.7 78.8799 40.07 78.2399 39.4 79.6399C38.49 81.5099 40.96 83.3699 42.35 84.1699C43.32 84.7299 44.43 85.0199 45.35 85.6999C45.69 85.7999 45.45 85.2699 45.29 85.1799C45.13 85.0899 44.82 85.1099 44.56 84.9899C44.14 84.7999 43.84 84.2599 43.76 84.2199C43.62 84.1399 43.35 84.2199 43.17 84.1699C41.14 83.4799 41.75 80.6199 43.83 80.8399C44.51 80.9099 44.73 81.4199 45.03 81.5099C45.62 81.6799 46.02 81.4199 46.63 81.9999C47.16 82.5099 46.99 83.0099 47.21 83.3899C47.31 83.5599 48.01 83.8599 48.19 84.0899L48.18 84.0799ZM49.46 83.4499C49.4 84.0599 49.5 84.7399 49.46 85.3599C49.9 84.8799 50.14 84.2499 50.56 83.7299C50.82 83.4099 51.97 82.2799 52.32 82.2499C52.67 82.2199 53.11 82.6899 52.89 83.0399C51.95 84.0399 50.84 85.0099 50.5 86.3999C52.19 85.2899 54.13 84.4499 56.18 84.4299C55.37 83.7199 55.18 82.9299 54.91 81.9299C53.26 81.9699 52.14 81.7099 50.9 80.5999C50.7 80.4199 50.56 79.8699 50.37 80.2999C49.98 81.1899 49.54 82.4799 49.45 83.4399L49.46 83.4499ZM68.46 83.0699C68.39 83.0099 68.07 82.9699 67.9 82.8799C67.21 82.4799 66.64 82.0199 66.11 81.4199L65.26 82.9999L68.43 89.6499C68.61 89.6499 68.95 87.0999 68.96 86.8099C68.98 86.2699 68.76 83.3199 68.46 83.0599V83.0699ZM35.19 91.1599C32.83 91.7999 30.41 92.4199 27.94 92.5599C20.52 92.9499 13.38 89.6899 7.68998 85.1899L4.09998 81.6499C5.75998 87.2399 8.62998 91.7599 13.51 95.0299C19.6 99.1199 27.3 101.26 34.55 99.3799C35.18 99.2199 37.95 98.4399 38.19 98.0299L39.14 95.5599C36.99 95.2499 34.82 93.5099 35.2 91.1499L35.19 91.1599ZM43.39 82.0199C42.93 82.1599 42.95 82.9699 43.49 83.0499C44.41 83.1799 44.31 81.7499 43.39 82.0199ZM45.84 82.8399C44.98 81.9799 43.98 84.0899 45.46 83.9799C46.02 83.9399 46.14 83.1399 45.84 82.8399ZM64.31 83.9699C64.05 83.9699 63.91 84.1999 63.65 84.2899C62.85 84.5899 62.44 84.5699 61.62 84.3999C61.5 84.3799 60.83 83.9799 60.95 84.3699C61.01 84.5499 61.52 85.2899 61.67 85.5099C63.03 87.5199 65.09 89.5999 67.33 90.5799L64.31 83.9699ZM46.45 84.5499C46.31 84.6899 47.66 87.8999 47.86 88.1799C48.59 89.2099 49.54 88.6199 49.12 87.3799C48.95 86.8799 46.9 84.0999 46.45 84.5499ZM45.75 87.6799C44.15 85.8499 37.18 83.2799 36.29 86.7499C35.97 88.0199 36.46 88.0699 36.91 88.9199C37.59 90.1899 35.99 91.1899 37.11 92.7799C38.37 94.5699 40.59 94.2999 42.14 93.0699C42.86 92.4999 43.15 91.8099 43.71 91.1599C44.4 90.3699 45.22 89.7099 46.09 89.1299C45.23 88.8299 44.18 88.8499 43.26 88.9699C42.72 89.0399 41.11 89.7599 41.11 88.7799C41.11 88.3199 41.68 88.1099 42.05 87.9899C42.27 87.9199 43.31 87.6799 43.48 87.6799H45.74H45.75ZM51.08 87.6799H52.99C53.4 87.6799 54.91 88.1599 55.33 88.3599C55.67 88.5199 56.17 88.6899 56.17 89.1299C56.17 89.5299 55.91 89.6699 55.55 89.6599C54.91 89.6399 53.76 88.9599 53.11 88.9599H50.62C50.56 89.2299 50.67 89.1499 50.77 89.2299C52.09 90.2599 52.47 90.6199 53.41 92.0399C54.35 93.4599 55.17 95.8899 57.38 94.8499C59.11 94.0399 58.15 92.5499 58.57 91.3999C58.85 90.6399 59.86 90.1299 60.01 89.0199C60.6 84.7899 54.24 85.4999 51.98 87.0199L51.09 87.6899L51.08 87.6799ZM47.72 89.8799C45.63 90.4899 43.82 92.7699 43.37 94.8599C43.04 96.3599 43.41 97.9299 45.14 98.1999C46.26 98.3699 46.57 97.3999 47.67 97.5299C48.36 97.6099 48.83 98.3599 49.53 98.5699C50.85 98.9699 52.17 98.1399 52.54 96.8399C53.37 93.9299 51.9 90.9799 49.17 89.7899C48.95 89.8199 48.53 91.0999 48.45 91.3599C48.29 91.9499 48.22 93.4399 48.05 93.7399C47.88 94.0399 47.5 94.1299 47.22 93.9499C46.65 93.5799 47.27 90.4899 47.72 89.8799ZM41.8 95.2199C41.12 95.3399 40.67 96.1599 40.35 96.7199C39.4 98.4099 38.94 100.6 39.25 102.52L42.1 98.1199C41.98 97.1499 41.57 96.1999 41.8 95.2199ZM45.05 99.7399C44.34 99.6599 43.72 99.3499 43.08 99.0899L40.41 103.21C40.76 103.5 45.05 100.72 45.05 99.7299V99.7399Z" fill="#040402"/>
<path d="M23.8199 90.46C16.3199 89.59 4.50994 82.57 2.43994 74.89C-5.84126e-05 65.85 7.84994 58.41 15.5499 55.46C18.6599 54.27 22.7099 53.74 25.2599 51.6C27.8099 49.46 28.6899 46.16 30.4899 43.5C34.5499 37.5 41.3199 35.4 48.1699 37.92C48.2799 38.06 47.8699 38.4 47.7699 38.5C46.3399 39.89 44.7299 41.11 43.2999 42.5C42.6699 43.11 42.1699 43.45 42.3999 44.45C42.5999 45.31 44.3099 46.08 44.9299 46.68L42.1799 49.51C36.2899 48.37 30.1299 52.36 30.5499 58.74C30.5799 59.13 30.8699 59.75 30.7199 60.07C27.8799 62.72 25.0699 65.45 22.1299 67.96L17.8199 65.07C17.3899 64.86 16.7799 64.88 16.3499 65.08C15.9199 65.28 13.3799 67.76 13.1899 68.18C12.7999 69.04 13.1299 69.77 13.8399 70.32C18.7199 73.2 23.3699 77.38 28.2199 80.18C29.3299 80.82 29.8299 80.91 30.8799 80.07C31.3799 79.67 33.0299 78.16 33.3799 77.69C34.9899 75.51 31.2999 74.41 30.0699 73.34C33.0599 70.3 35.8199 67 38.8799 64.06C43.9399 63.55 49.0199 58.19 46.7099 52.99C46.5399 52.61 46.0199 52.25 46.2999 51.88L48.9299 49.5C50.2299 50.08 51.3999 51.92 52.9299 51.08C53.9499 50.52 56.5899 47.41 57.5599 46.38C58.4699 46.13 59.1999 45.25 59.8799 44.64C59.8999 44.66 60.0999 44.67 60.2299 44.81C62.4599 47.17 62.8499 49.83 62.4299 52.99C61.2299 52.5 60.2799 52.24 58.9999 52.64C58.4399 52.81 57.5599 53.53 57.1399 53.57C56.6399 53.62 55.4199 53.03 54.7099 52.99C52.3899 52.85 50.7399 54.87 50.0099 56.82C49.6299 57.83 49.6899 58.38 50.0099 59.37C50.0199 59.41 50.0899 59.5 50.1299 59.6C49.8899 59.72 50.0699 60.07 50.2499 60.18C50.2599 60.23 50.4399 60.35 50.3699 60.53C47.0399 60.29 43.8499 62.21 44.3499 65.91C44.3999 66.31 44.7499 66.81 44.6899 67.19C44.6599 67.42 43.9999 68.12 43.8299 68.42C42.5499 70.59 43.1599 72.7 44.8099 74.44C43.7999 74.5 42.9799 74.97 42.3099 75.72C42.1099 75.95 41.6599 76.74 41.5499 76.82C41.2999 76.99 40.7099 76.96 40.3899 77.05C38.0799 77.74 36.9499 79.87 37.9699 82.14C38.0399 82.31 38.8299 83.44 38.7699 83.49C36.3599 83.58 34.3199 85.38 34.6299 87.92C34.6699 88.26 35.0099 88.96 34.8299 89.11C34.6099 89.31 32.1699 89.93 31.6999 90.04C30.8899 90.22 30.0799 90.35 29.2599 90.44C28.9799 90.1 28.3699 90.44 28.1599 90.44H24.9099C24.6899 90.44 24.0899 90.1 23.8099 90.44L23.8199 90.46Z" fill="#D45500"/>
<path d="M35.19 91.1599C34.82 93.5199 36.98 95.2499 39.13 95.5699L38.18 98.0399C37.94 98.4499 35.17 99.2199 34.54 99.3899C27.29 101.26 19.6 99.1299 13.5 95.0399C8.61997 91.7599 5.75997 87.2499 4.08997 81.6599L7.67997 85.1999C13.37 89.6899 20.51 92.9599 27.93 92.5699C30.39 92.4399 32.81 91.8099 35.18 91.1699L35.19 91.1599Z" fill="#622600"/>
<path d="M88.09 17.2899C87.65 17.3499 87.05 17.1499 86.7 17.4099C86.51 17.4199 86.31 17.4099 86.12 17.4099C85.66 17.0699 85.08 17.3899 84.61 17.5299C84.17 17.6599 83 18.2299 82.7 18.2299C82.44 18.2299 81.56 17.7599 81.71 17.5299L85.39 15.2299C85.7 15.0899 85.64 15.4099 85.84 15.5399C87.58 16.7299 89.68 14.8799 88.56 13.0099L92.7 10.3499C93.53 10.6399 94.38 10.9499 95.05 10.1599C96.25 8.73994 94.51 6.61995 92.8 7.56995C91.78 8.12995 92.22 9.21993 91.91 9.57993L87.7 12.3299C86.78 12.4299 85.9 12.4699 85.36 13.3499C85.19 13.6299 85.22 13.9499 85.01 14.1599C84.68 14.5099 83.07 15.2699 82.52 15.6099C82.15 15.8399 80.77 16.95 80.54 16.89C80.37 16.84 78.34 15.3899 78.34 15.2499L80.54 13.1599C81.52 13.1599 82.76 12.8799 83.23 11.9099C83.44 11.4699 83.35 10.9999 83.46 10.6299C83.54 10.3799 84.66 9.59993 84.94 9.32993C85.29 8.99993 86.53 7.58994 86.8 7.46994C87.39 7.19994 87.8 7.65995 88.6 6.94995C90.84 4.96995 86.92 2.45995 85.85 5.00995C85.44 5.98995 85.91 6.02993 85.97 6.67993C86 7.03993 83.23 9.20993 82.85 9.67993C82.5 9.83993 81.92 9.47995 81.42 9.50995C80.4 9.57995 79.35 10.5599 79.51 11.6199C79.55 11.9099 79.84 12.1999 79.67 12.5199C78.92 12.8799 78.2 14.1399 77.58 14.4999C77.28 14.6799 76.61 14.3299 76.58 14.1799C76.55 14.0599 77.08 11.9599 77.19 11.7799C77.28 11.6299 77.4 11.5299 77.52 11.4099C79.72 9.21994 82.57 7.08995 84.95 5.03995C85.57 4.50995 87.77 2.23994 88.37 2.18994C90.35 2.69994 92.8 2.87995 94.72 3.50995C96.21 3.99995 98.43 6.63994 99.51 7.87994C99.62 8.00994 100.27 8.77994 100.26 8.84995L89.28 16.5499C88.88 16.7799 88.54 17.1199 88.08 17.2699L88.09 17.2899Z" fill="#D45500"/>
<path d="M61.29 71.7898C61.45 71.5998 62.83 73.0098 62.97 73.1798C64.87 75.3998 65.89 79.5598 63.95 82.0498C62.58 83.8098 61.78 82.2698 60.53 82.3298C59.95 82.3598 59.2 83.0898 58.39 83.2098C55.94 83.5898 57.19 81.5698 56.22 80.7298C55.14 79.7898 53.41 81.1398 52 79.3798C50.08 76.9798 53.07 73.2398 55.24 72.0698C55.96 71.6898 59.5 70.4398 59.86 71.5098C59.95 71.7598 59.91 73.3198 59.88 73.6898C59.83 74.3298 59.25 76.1298 59.3 76.4698C59.34 76.7698 59.76 76.9398 60.04 76.8598C60.8 76.6498 61.45 72.5998 61.28 71.7698L61.29 71.7898Z" fill="#E43100"/>
<path d="M58.97 68.2C58.29 67.94 57.67 67.48 57 67.22C56.05 66.85 54.71 66.56 53.69 66.57C53.21 66.57 52.08 66.64 52.01 67.22C51.9 68.19 53.82 67.8 54.49 67.87C55.78 68 57.46 68.77 58.48 69.56C58.57 69.63 58.69 69.56 58.63 69.82C56.8 69.78 55.06 70.56 53.54 71.51C51.58 72.73 49.26 75.06 46.76 73.74C44.97 72.79 44.21 70.93 45.35 69.13C45.73 68.54 46.5 68.08 46.56 67.31C46.6 66.7 46.08 66.17 45.99 65.57C45.74 63.72 47.11 62.42 48.85 62.19C52.81 61.66 57.17 64.84 58.97 68.19V68.2Z" fill="#E43100"/>
<path d="M63.61 71.7898H65.64C66.79 71.7898 68.45 72.8298 69.3 73.5898C69.73 73.9698 70.15 74.9098 70.78 74.6098C71.89 74.0798 69.62 72.1598 69.11 71.8198C68.43 71.3598 66.67 70.5198 65.88 70.5198H64.2C64.91 69.9498 66.14 69.6098 67.06 69.4898C70.28 69.0498 76.92 70.7398 76.39 74.9898C76.19 76.5898 74.63 76.2498 73.97 77.3298C73.39 78.2698 74.08 79.2398 73.37 80.2098C72.14 81.8798 69.61 82.2898 67.98 80.9598C66.56 79.7998 66.7 78.5098 66.31 76.9498C65.83 75.0298 64.97 73.2698 63.63 71.8098L63.61 71.7898Z" fill="#E43100"/>
<path d="M61.52 65.7599C61.35 65.7899 61.4 65.6299 61.37 65.5099C61.21 64.8699 61.18 64.1799 61.02 63.5299C60.84 62.7799 59.83 59.7299 59.2 59.4299C58.76 59.2299 58.27 59.5999 58.33 60.0899C58.37 60.3699 59.01 61.4699 59.17 61.8999C59.81 63.5999 60.19 65.4399 60.12 67.2699C59.23 65.9999 58.29 64.7499 57.11 63.7299C55.75 62.5699 54.41 62.1599 53.08 61.2599C51.01 59.8699 51.13 56.0099 53.56 54.9699C55.39 54.1899 56.13 55.5899 57.71 55.2899C58.42 55.1599 58.93 54.2699 59.82 54.1599C62.35 53.8499 63.44 56.4099 63.59 58.5099C63.77 61.0399 61.9 63.2699 61.5 65.7599H61.52Z" fill="#E43100"/>
<path d="M64.66 68.6598C65.07 68.1198 66.88 65.9898 67.48 66.0198C68.08 66.0498 68.27 66.3798 69.14 66.1298C69.83 65.9298 70.1 65.3498 70.34 65.2398C70.58 65.1298 70.91 65.2098 71.18 65.1498C74.31 64.4698 72.53 59.9798 69.79 61.4398C69.58 61.5498 69.35 61.8798 69.22 61.8998C69.09 61.9198 68.77 61.7998 68.54 61.7998C67.88 61.8198 67.49 61.8898 66.97 62.3298C66.66 62.5898 66.44 63.1198 66.31 63.2098C66.1 63.3598 65.43 63.4698 65.11 63.6098C64.52 63.8698 63.96 64.2198 63.37 64.4798C64.11 62.2298 65.46 58.8598 67.63 57.6598C68.72 57.0598 70.04 57.0898 70.91 58.0398C71.52 58.6998 71.43 59.7798 72.6 59.9398C73.44 60.0598 73.84 59.6798 74.5 60.4798C75.45 61.6198 74.61 62.4198 74.9 63.3198C75.01 63.6598 75.54 63.9798 75.76 64.3198C77.23 66.5398 74.9 68.2498 72.82 68.4198C71.74 68.4998 70.82 68.1498 69.8 68.0798C68.03 67.9498 66.33 68.1598 64.64 68.6598H64.66Z" fill="#E43100"/>
<path d="M47.72 89.8798C47.27 90.4798 46.65 93.5698 47.22 93.9498C47.5 94.1298 47.88 94.0398 48.05 93.7398C48.22 93.4398 48.29 91.9498 48.45 91.3598C48.52 91.0998 48.95 89.8198 49.17 89.7898C51.9 90.9798 53.37 93.9298 52.54 96.8398C52.17 98.1398 50.84 98.9698 49.53 98.5698C48.83 98.3598 48.36 97.6098 47.67 97.5298C46.57 97.4098 46.26 98.3798 45.14 98.1998C43.41 97.9298 43.04 96.3598 43.37 94.8598C43.83 92.7698 45.63 90.4898 47.72 89.8798Z" fill="#FFCC29"/>
<path d="M45.7499 87.6798H43.4899C43.3199 87.6798 42.2899 87.9197 42.0599 87.9897C41.6899 88.0997 41.1199 88.3198 41.1199 88.7798C41.1199 89.7498 42.7299 89.0398 43.2699 88.9698C44.1799 88.8498 45.2299 88.8298 46.0999 89.1298C45.2299 89.7098 44.4099 90.3698 43.7199 91.1598C43.1499 91.8098 42.8599 92.4998 42.1499 93.0698C40.5999 94.2998 38.3799 94.5698 37.1199 92.7798C35.9999 91.1898 37.5999 90.1898 36.9199 88.9198C36.4599 88.0798 35.9699 88.0198 36.2999 86.7498C37.1799 83.2798 44.1599 85.8498 45.7599 87.6798H45.7499Z" fill="#FFCC29"/>
<path d="M20.9199 69.0098C20.9799 69.1898 20.9099 69.1698 20.8499 69.2398C20.6299 69.5198 18.8799 70.6598 19.8799 71.1498C20.7299 71.5698 21.6399 69.7598 22.0099 69.8198L24.3999 71.4898C24.4499 71.7098 22.6699 72.7598 23.5399 73.3898C24.2899 73.9398 24.8399 72.2998 25.4899 72.1298L27.9999 73.7498C28.2199 74.0698 26.2199 75.0998 26.8699 75.8098C26.9099 75.8598 27.3199 76.0498 27.3799 76.0498C27.6899 76.0798 28.6499 74.6698 29.0799 74.5798C29.2499 74.5998 31.6699 76.2498 31.8699 76.4398C31.9599 76.5198 32.0999 76.5398 32.0599 76.6998C32.0199 76.8598 29.9599 78.8898 29.8099 78.9798C29.6599 79.0698 29.5799 79.1398 29.3999 79.0398L14.6699 68.9898C14.6199 68.8198 14.7199 68.7998 14.7799 68.6998C14.9899 68.3998 16.3199 67.0898 16.6399 66.8498C16.7999 66.7298 16.9399 66.5698 17.1599 66.5698C17.7599 66.5698 20.1099 68.8098 20.9299 68.9998L20.9199 69.0098Z" fill="#622600"/>
<path d="M51.0799 87.6798L51.9699 87.0098C54.2299 85.4898 60.5799 84.7798 59.9999 89.0098C59.8499 90.1198 58.8299 90.6298 58.5599 91.3898C58.1399 92.5498 59.0999 94.0298 57.3699 94.8398C55.1699 95.8798 54.3299 93.4198 53.3999 92.0298C52.4699 90.6398 52.0799 90.2498 50.7599 89.2198C50.6599 89.1498 50.5499 89.2198 50.6099 88.9498H53.0999C53.7499 88.9498 54.8999 89.6298 55.5399 89.6498C55.8999 89.6598 56.1599 89.5198 56.1599 89.1198C56.1599 88.6698 55.6599 88.4998 55.3199 88.3498C54.8999 88.1498 53.3899 87.6698 52.9799 87.6698H51.0699L51.0799 87.6798Z" fill="#FFCC29"/>
<path d="M48.18 84.0799C48 83.8499 47.3 83.5499 47.2 83.3799C46.98 82.9999 47.15 82.4999 46.62 81.9899C46.01 81.4099 45.61 81.6699 45.02 81.4999C44.73 81.4199 44.5 80.9099 43.82 80.8299C41.74 80.6099 41.13 83.4699 43.16 84.1599C43.34 84.2199 43.61 84.1299 43.75 84.2099C43.83 84.2499 44.13 84.7899 44.55 84.9799C44.81 85.0999 45.12 85.0799 45.28 85.1699C45.44 85.2599 45.68 85.7899 45.34 85.6899C44.43 85.0099 43.31 84.7199 42.34 84.1599C40.95 83.3499 38.47 81.4999 39.39 79.6299C40.07 78.2399 41.7 78.8799 42.6 78.1999C43.29 77.6899 43.25 76.4899 44.26 76.1499C47.02 75.2399 48.36 79.5699 48.41 81.5699C48.43 82.3899 48.14 83.2399 48.17 84.0699L48.18 84.0799Z" fill="#FFCC29"/>
<path d="M63.38 45.6999L61 42.9199V42.6899L81.95 20.8799C82.08 21.7399 81.22 22.1599 80.73 22.7299C75.72 28.5199 69.7 34.6299 65.2 40.7199C64.08 42.2399 63.3 43.7199 63.39 45.6899L63.38 45.6999Z" fill="#622600"/>
<path d="M37.05 64.1399L29.28 72.6699C29.16 72.7699 29.07 72.6699 28.97 72.6299C28.78 72.5599 26.65 71.1699 26.61 71.0299C28.93 68.4299 31.54 66.0599 34.04 63.6099C34.46 63.4199 36.39 64.2699 37.05 64.1299V64.1399Z" fill="#D45500"/>
<path d="M31.31 61.1199C31.86 61.7699 32.41 62.4099 33.11 62.9199L25.87 70.1699L25.63 70.2899C25.24 70.1799 23.22 68.9099 23.27 68.6199L31.32 61.1299L31.31 61.1199Z" fill="#D45500"/>
<path d="M100.62 10.0999C100.43 11.1999 100.64 11.9698 99.69 12.7098C98.7 13.4998 97.6099 12.8398 96.5599 14.2198C96.3499 14.4898 96.28 14.8398 96.04 15.0898C95.9 15.2298 93.24 17.0498 93.08 17.1098C92.48 17.3498 91.84 17.2099 91.12 17.6999C90.4 18.1899 90.2199 19.0798 89.8799 19.3598C88.6399 20.3798 86.6399 20.1598 85.1399 20.2998C84.8799 20.3198 83.5399 20.6098 83.4599 20.5298C83.5199 20.1798 83.33 19.2898 83.58 19.0798C83.97 18.7498 86.1999 18.4298 86.7699 18.4298C87.3399 18.4298 87.9899 18.7699 88.5699 18.3899L100.63 10.0898L100.62 10.0999Z" fill="#622600"/>
<path d="M76.6099 61.0098C76.3699 59.7498 75.3299 58.7598 74.1699 58.2898C75.8099 56.0998 77.6399 54.0098 79.7999 52.3198C79.3599 55.3298 78.7699 58.7398 76.6099 61.0198V61.0098Z" fill="#A3BF3D"/>
<path d="M49.46 83.45C49.55 82.48 49.98 81.2 50.38 80.31C50.57 79.88 50.71 80.43 50.91 80.61C52.15 81.72 53.26 81.97 54.92 81.94C55.19 82.94 55.38 83.73 56.19 84.44C54.14 84.46 52.19 85.3 50.51 86.41C50.85 85.02 51.96 84.05 52.9 83.05C53.11 82.69 52.68 82.22 52.33 82.26C51.98 82.3 50.83 83.42 50.57 83.74C50.15 84.26 49.91 84.88 49.47 85.37C49.51 84.75 49.41 84.07 49.47 83.46L49.46 83.45Z" fill="#FFCC29"/>
<path d="M84.03 68.7798C83.45 69.5498 82.5 70.1898 81.64 70.6198C80.87 70.9998 77.75 72.0698 77.07 71.7398C76.98 71.6998 76.01 70.5198 75.74 70.2898C75.43 70.0098 75.07 69.8098 74.75 69.5398C77.78 68.8898 80.93 68.5198 84.03 68.7898V68.7798Z" fill="#A3BF3D"/>
<path d="M78.69 51.3799C76.58 53.2899 74.4599 55.2699 72.8899 57.6399C72.6599 57.7999 72.2799 57.0699 72.1399 56.9499C71.6699 56.5199 70.9699 55.9799 70.3399 55.8999C70.2099 55.7599 71.17 54.8799 71.33 54.7399C73.37 52.9499 76.05 51.8699 78.69 51.3699V51.3799Z" fill="#A3BF3D"/>
<path d="M68.46 83.0699C68.76 83.3299 68.98 86.2699 68.96 86.8199C68.95 87.1099 68.61 89.6599 68.43 89.6599L65.26 83.0099L66.11 81.4299C66.64 82.0299 67.21 82.48 67.9 82.89C68.07 82.99 68.39 83.0199 68.46 83.0799V83.0699Z" fill="#A3BF3D"/>
<path d="M64.31 83.97L67.33 90.58C65.09 89.6 63.03 87.52 61.67 85.51C61.52 85.29 61.01 84.55 60.95 84.37C60.83 83.98 61.5 84.37 61.62 84.4C62.44 84.58 62.85 84.6 63.65 84.29C63.91 84.19 64.05 83.98 64.31 83.97Z" fill="#A3BF3D"/>
<path d="M66.39 64.6099C66.39 64.6099 66.54 64.9999 66.5 65.0499C66.45 65.1299 65.26 65.9399 65.01 66.1799C64.76 66.4199 64.36 66.8799 64.13 67.1499C63.5 67.8899 62.32 70.0899 61.76 70.4599C61.24 70.7999 60.56 70.6299 60.48 69.9799C60.33 68.7599 62.63 66.6799 63.57 66.0099C63.92 65.7599 66.15 64.4299 66.38 64.5999L66.39 64.6099Z" fill="#FFCC29"/>
<path d="M41.8 95.22C41.57 96.21 41.99 97.15 42.1 98.12L39.25 102.52C38.94 100.6 39.4 98.41 40.35 96.72C40.67 96.16 41.12 95.33 41.8 95.22Z" fill="#108C74"/>
<path d="M43.3099 49.9898C43.2599 49.8098 43.3599 49.7999 43.4199 49.6999C43.6199 49.4099 45.7399 47.3598 45.9399 47.3398L48.0599 48.8899L45.3299 51.2398C44.7199 50.7498 44.0599 50.2198 43.2999 49.9898H43.3099Z" fill="#D45500"/>
<path d="M64.3099 54.8599C64.3799 53.5399 64.6299 52.2399 64.5399 50.9199C64.8399 50.9699 64.6999 51.3599 64.7999 51.4799C64.8499 51.5399 64.9999 51.4899 65.0099 51.4999C65.1499 51.6899 65.1599 51.8999 65.2399 52.0799L65.1399 52.1299C65.2499 52.5199 65.4499 52.8899 65.5899 53.2399C65.6099 53.2999 65.7399 53.3899 65.7999 53.5499C65.9799 54.0199 66.4999 55.7899 66.5199 56.2099C66.5399 56.6299 65.4399 57.1799 65.1299 57.5299C64.9999 56.5999 64.6599 55.7299 64.3199 54.8599H64.3099Z" fill="#A3BF3D"/>
<path d="M83.5699 67.2698L77.4199 67.4398C77.6799 66.7498 77.9499 66.0598 77.8899 65.2998C79.8899 65.6198 81.7199 66.5198 83.5699 67.2698Z" fill="#A3BF3D"/>
<path d="M45.05 99.7398C45.05 100.72 40.76 103.5 40.41 103.22L43.08 99.0999C43.73 99.3599 44.35 99.6698 45.05 99.7498V99.7398Z" fill="#108C74"/>
<path d="M73.58 23.0997C73.65 23.2197 73.58 23.3997 73.48 23.4997L69.8 27.1297L67.79 25.8097L71.69 21.9397C71.93 22.1297 73.52 23.0097 73.57 23.0997H73.58Z" fill="#833000"/>
<path d="M78.23 18.5598C78.23 18.5598 78.19 18.7898 78.06 18.9098C77.62 19.3598 74.79 22.3098 74.55 22.3698C74.28 22.4398 72.87 21.2798 72.55 21.0498C73.88 19.7298 75.2 18.4098 76.49 17.0498C76.73 17.7998 77.77 17.9598 78.23 18.5598Z" fill="#833000"/>
<path d="M68.95 27.8398L65.28 31.6599L63.27 30.3298L66.95 26.6898C67.39 26.5798 68.43 27.7598 68.96 27.8398H68.95Z" fill="#833000"/>
<path d="M64.42 32.3598L61.09 35.8198C60.63 35.9498 59.55 34.7098 58.97 34.6698L62.42 31.1998C62.76 31.1098 63.97 32.2598 64.43 32.3498L64.42 32.3598Z" fill="#833000"/>
<path d="M58.1201 35.3899L60.1201 36.7099L56.6201 40.1199L54.6801 38.7999L58.1201 35.3899Z" fill="#833000"/>
<path d="M61.03 37.4797C61.32 37.3997 62.83 38.5597 62.8 38.7797L59.74 41.9897C59.64 42.0897 59.55 42.1197 59.42 42.0797C59.23 42.0297 57.68 40.9197 57.71 40.7697C58.31 40.3497 60.6 37.5897 61.04 37.4697L61.03 37.4797Z" fill="#833000"/>
<path d="M62 36.7598L62.33 36.1298C63.05 35.8298 64.97 33.3098 65.43 33.1898C65.71 33.1198 66.82 34.0398 67.08 34.2898L63.75 37.7998C63.31 37.9198 62.49 36.8798 61.99 36.7598H62Z" fill="#833000"/>
<path d="M58.72 42.9299C58.8 43.0699 58.71 43.2099 58.63 43.3299C58.04 44.2199 56.48 45.2499 55.78 46.1399L53.87 44.6899L56.82 41.6499C57.07 41.9599 58.61 42.7299 58.72 42.9199V42.9299Z" fill="#833000"/>
<path d="M69.95 28.6597C70.21 28.7997 71.51 29.5997 71.45 29.8097C71.01 30.2197 68.12 33.5397 67.86 33.4997C67.76 33.4797 66.27 32.3997 66.27 32.2997L69.94 28.6597H69.95Z" fill="#833000"/>
<path d="M55.84 40.8297C55.89 40.9997 55.79 41.0197 55.73 41.1197C55.1 42.0397 53.61 43.0398 52.87 43.9498L50.86 42.5098C51.43 42.1298 53.29 39.7997 53.73 39.6797C54.21 39.5497 55.29 40.7197 55.85 40.8297H55.84Z" fill="#833000"/>
<path d="M55.03 46.8598L54.92 47.1498C54.32 47.4798 52.89 49.4798 52.4 49.6198C51.98 49.7398 50.37 48.6898 50.29 48.3998C50.25 48.2398 50.31 48.1798 50.39 48.0698C50.54 47.8398 52.75 45.6398 52.92 45.5998C53.45 45.4498 54.47 46.7298 55.04 46.8598H55.03Z" fill="#833000"/>
<path d="M70.8099 27.9499L74.7099 23.8999L76.1399 24.8799L72.4299 28.8299C71.9799 29.0299 71.2899 28.0299 70.8099 27.9499Z" fill="#833000"/>
<path d="M52.01 44.6599C52.06 44.8299 51.96 44.8499 51.9 44.9499C51.3 45.8299 49.87 46.7799 49.17 47.6499L47.14 46.2199L50 43.3999L52.01 44.6599Z" fill="#833000"/>
<path d="M47.22 41.4197C47.51 41.3497 48.74 42.4397 49.11 42.6297L46.39 45.3597C46.26 45.4897 46.12 45.4897 45.95 45.4497C45.84 45.4197 44.12 44.2497 44.12 44.1397L47.22 41.4297V41.4197Z" fill="#833000"/>
<path d="M57.12 34.5697L53.87 37.9897C53.61 38.1697 52.16 37.1497 52.13 37.0497C52.07 36.8197 55.27 34.1697 55.61 33.6897L57.12 34.5697Z" fill="#833000"/>
<path d="M80.78 20.0698C79.55 21.3298 78.3 22.5797 77.13 23.8997C76.86 24.2497 75.53 23.2398 75.57 23.0398C75.62 22.7798 78.91 19.7398 79.39 19.2598C79.8 19.5898 80.25 19.9498 80.78 20.0698Z" fill="#833000"/>
<path d="M51.16 37.6997L52.82 38.9097C51.93 39.5797 50.97 41.0597 50.1 41.6397C49.98 41.7197 49.93 41.7797 49.77 41.7397C49.58 41.6897 48.24 40.7097 48.31 40.4397C48.39 40.1497 50.83 38.1997 51.16 37.6997Z" fill="#833000"/>
<path d="M65.93 25.7599C65.99 25.8399 65.92 26.0799 65.82 26.1699C64.84 26.8499 63.31 29.0999 62.33 29.5299C61.97 29.6899 61.18 28.9099 60.83 28.7199L64.66 25.2399C65.02 25.0799 65.28 25.4399 65.55 25.6299C65.66 25.7099 65.92 25.7499 65.93 25.7699V25.7599Z" fill="#833000"/>
<path d="M59.98 29.5897C60.29 29.5097 61.1401 30.2198 61.4001 30.4398C60.2301 31.5398 59.15 32.8298 57.92 33.8198C57.84 33.7998 56.63 33.0098 56.59 32.9398C56.5 32.7998 56.5301 32.7398 56.6501 32.6398C57.3101 32.3198 59.58 29.6897 59.98 29.5897Z" fill="#833000"/>
<path d="M70.6899 21.1098L66.8599 25.1198C66.7099 25.1798 65.8099 24.5798 65.7499 24.4798C65.6799 24.3398 65.6999 24.2798 65.8099 24.1798L69.5299 20.6998C69.9499 20.5098 70.2499 21.0998 70.6899 21.1098Z" fill="#833000"/>
<path d="M75.3299 16.5898C74.0899 17.8498 72.8799 19.1398 71.6099 20.3698C71.3899 20.5198 70.5099 19.8098 70.5699 19.7298C70.7099 19.7298 70.8199 19.6498 70.9199 19.5598C72.1599 18.4698 73.4299 17.1698 74.6299 16.0198L75.3299 16.5998V16.5898Z" fill="#833000"/>
<path d="M46.45 84.5499C46.9 84.0999 48.96 86.8899 49.12 87.3799C49.54 88.6099 48.58 89.2099 47.86 88.1799C47.66 87.8999 46.31 84.6799 46.45 84.5499Z" fill="#FFCC29"/>
<path d="M78.23 18.5598C77.77 17.9598 76.73 17.7998 76.49 17.0498C76.67 16.8598 77.26 16.0998 77.46 16.1298C77.58 16.1498 79.1 17.4198 79.39 17.5698C79.1 17.8598 78.81 18.1498 78.52 18.4398C78.43 18.5298 78.25 18.5298 78.23 18.5498V18.5598Z" fill="#F69C00"/>
<path d="M49.6899 78.6899C49.6899 78.6899 49.4999 78.8899 49.4599 78.8599C49.1399 77.7799 48.66 76.7199 47.95 75.8499L50.04 75.6199C50.16 75.7299 49.6899 76.7799 49.6899 76.9499C49.6899 77.3799 49.7699 78.3599 49.6899 78.6899Z" fill="#A3BF3D"/>
<path d="M68.22 63.1099C69.17 62.9099 69.94 64.0799 69.01 64.7099C67.73 65.5799 66.87 63.3799 68.22 63.1099Z" fill="#FFCC29"/>
<path d="M79.39 19.2598C79.59 19.0598 79.84 18.7498 80.09 18.4998C80.18 18.4098 80.19 18.2198 80.21 18.2098C80.35 18.1098 81.5 19.0598 81.83 19.0198C81.9 19.1198 80.9 19.9398 80.79 20.0598C80.26 19.9398 79.81 19.5798 79.4 19.2498L79.39 19.2598Z" fill="#F69C00"/>
<path d="M70.54 62.5399C72 62.1099 71.69 64.2799 70.61 63.8199C69.99 63.5599 69.92 62.7199 70.54 62.5399Z" fill="#FFCC29"/>
<path d="M74.63 16.0098C74.82 15.8298 75.45 15.0098 75.63 14.9798C75.83 14.9498 76.21 15.4598 76.48 15.4298C76.55 15.5298 75.45 16.4598 75.32 16.5898L74.62 16.0098H74.63Z" fill="#F69C00"/>
<path d="M45.84 82.8399C46.14 83.1399 46.03 83.9399 45.46 83.9799C43.98 84.0899 44.98 81.9799 45.84 82.8399Z" fill="#FFCC29"/>
<path d="M59.9 44.6499C59.22 45.2599 58.49 46.14 57.58 46.39C57.86 46.1 59.46 44.1899 59.61 44.1899C59.77 44.1899 59.87 44.6299 59.9 44.6499Z" fill="#622600"/>
<path d="M43.3899 82.0198C44.3099 81.7498 44.41 83.1698 43.49 83.0498C42.95 82.9798 42.9299 82.1598 43.3899 82.0198Z" fill="#FFCC29"/>
<path d="M29.28 90.4599C27.43 90.6799 25.68 90.6799 23.83 90.4599C24.11 90.1199 24.72 90.4599 24.93 90.4599H28.18C28.4 90.4599 29 90.1199 29.28 90.4599Z" fill="#E43100"/>
<path d="M65.01 51.4998C65.01 51.4998 64.85 51.5399 64.8 51.4799C64.7 51.3599 64.84 50.9799 64.54 50.9199C64.63 52.2499 64.38 53.5398 64.31 54.8598C64.01 54.0898 64.37 53.0399 64.42 52.1299C64.46 51.4599 64.39 50.7699 64.42 50.0999L65 51.4898L65.01 51.4998Z" fill="#A3BF3D"/>
<path d="M50.04 59.3799C49.72 58.3899 49.66 57.8398 50.04 56.8298C49.96 57.6998 49.96 58.5099 50.04 59.3799Z" fill="#E43100"/>
<path d="M86.12 17.3999C85.61 17.4199 85.12 17.5399 84.61 17.5199C85.08 17.3799 85.66 17.0699 86.12 17.3999Z" fill="#E43100"/>
<path d="M88.09 17.2899C87.54 17.4599 87.24 17.3699 86.7 17.4099C87.05 17.1599 87.65 17.3499 88.09 17.2899Z" fill="#E43100"/>
<path d="M65.59 53.2398C65.45 52.8898 65.24 52.5299 65.14 52.1299L65.24 52.0798C65.4 52.4398 65.61 52.8398 65.59 53.2398Z" fill="#A3BF3D"/>
<path d="M50.27 60.1899C50.1 60.0799 49.91 59.7299 50.15 59.6099C50.24 59.8599 50.22 59.9799 50.27 60.1899Z" fill="#E43100"/>
</svg>
