<svg width="147" height="90" viewBox="0 0 147 90" fill="none" xmlns="http://www.w3.org/2000/svg">
<path d="M105.44 39.53C112.26 38.76 118.05 32.84 119.67 26.36C119.89 25.5 120.26 24.85 119.35 24.38C117.55 23.46 115.45 22.98 113.57 22.23C107.83 19.93 102.76 17.15 100.76 10.86C100.1 8.77996 99.31 3.44996 100.91 1.76996C102.51 0.0899642 103.56 3.16998 104.38 4.12998C109.44 10.05 118.32 6.25997 122.8 12.74C124.88 9.98997 127.55 8.56998 130.8 7.59998C135 6.33998 137.92 6.22997 141.57 3.36997C142.54 2.60997 143.57 1.23998 144.44 0.659979C147.14 -1.14002 147.01 3.91996 146.91 5.35996C146.39 12.6 141.84 16.72 135.96 20.07C134.18 21.09 130.48 22.46 129.55 24.2C128.57 26.04 129.15 29.13 129.06 31.27C128.43 46 119.48 59.2 107.57 67.3C100.39 72.19 92.17 75.57 83.67 77.44C83.63 77.66 83.78 77.75 83.92 77.88C85.55 79.45 90.54 82.28 91.03 84.28C91.47 86.08 90.18 86.75 88.64 87.05C82.16 88.32 72.3699 82.43 67.1099 78.93C63.2699 79.08 59.47 78.58 55.65 78.3C55.42 78.55 56.25 81.55 56.42 82.05C57.02 83.81 59.0599 86.67 57.9799 88.51C55.9799 91.92 49.7299 87.25 47.8299 85.56C44.0199 82.15 41.7099 77.77 39.0899 73.4699C29.8699 69.4799 21.81 63.47 15.28 55.87C13.1 53.33 11.14 50.59 9.01997 48C6.25997 44.63 -0.0600664 38.74 0.479934 34.13C0.639934 32.78 1.53001 32.38 1.68001 31.86C1.81001 31.42 1.64996 30.75 1.75996 30.2C1.98996 29.1 2.86995 28.25 3.99995 28.21C4.27995 28.2 4.56001 28.34 4.81001 28.29C5.17001 28.21 5.92997 27.68 6.38997 27.51C7.12997 27.23 7.97996 27.04 8.75996 26.9C12.92 26.13 17.8599 25.68 22.1099 25.25C37.8299 23.65 49.4099 23.87 64.3599 29.37C74.9799 33.28 85.4799 39.77 97.1899 37.21C98.6399 36.89 102.38 35.46 103.51 35.58C105.73 35.83 103.65 38.26 103.63 39.5C104.21 39.45 104.86 39.56 105.43 39.5L105.44 39.53ZM123.24 45.97C125.18 42.73 126.78 35.33 126.97 31.53C127.11 28.61 126.3 25.75 127.81 23.07C129.27 20.5 134.09 18.8 136.67 17.18C140.49 14.79 143.05 12.43 144.28 7.92997C144.43 7.37997 144.81 6.09996 144.81 5.60996V3.43998C144.35 3.53998 144.04 4.06997 143.7 4.36997C142.25 5.62997 140.47 6.78996 138.7 7.54996C134.26 9.45996 127.97 9.34997 124.87 13.56C124.44 14.14 123.76 15.76 123.21 15.99C121.99 16.49 121.72 14.96 121.23 14.19C118.53 9.85998 113.18 10.73 108.91 9.39997C106.89 8.76997 105.24 7.72996 103.64 6.35996C103.4 6.15996 102.28 4.79997 102.03 5.05997C102 7.89997 102.61 10.65 104.13 13.06C106.82 17.31 110.77 18.89 115.26 20.65C116.35 21.08 118.98 22.21 119.97 22.39C120.11 22.41 120.24 22.43 120.37 22.42C120.4 21.97 120.31 21.47 120.4 21.02C120.61 20 122.17 19.63 122.35 20.75C123.14 25.77 119.79 33.4 116.04 36.73C113.11 39.34 107.56 41.96 103.58 41.62C101.07 41.41 101.26 40.2 101.78 38.15C95.95 40.34 89.91 40.55 83.9 38.98C75.71 36.84 67.9 32.7 59.81 30.09C45.64 25.52 34.61 26.04 20.01 27.61C16.49 27.99 12.4499 28.37 8.98994 28.99C8.63994 29.05 7.31001 29.27 7.18001 29.53C7.07001 29.74 7.33001 29.73 7.43001 29.77C9.65001 30.77 11.81 31.66 14.15 32.35C19.89 34.04 27.0799 34.54 32.0699 37.87C32.7199 38.3 35 39.89 35.4 40.37C36.23 41.36 35 42.45 33.68 41.72C32.46 41.05 31.14 39.69 29.79 38.92C26.01 36.76 20.62 36.15 16.38 35.09C12.93 34.23 9.85999 33.22 6.65999 31.67C6.26999 31.48 4.01991 30.16 3.82991 30.34C3.56991 32.65 6.14997 33.46 7.88997 34.15C14.27 36.67 21.32 37.06 27.55 39.54C32.22 41.4 35.45 45.79 39.51 48.66C42.7 50.92 46.41 52.22 50.15 53.27C50.29 53.26 49.82 51.35 51.03 51.17C51.82 51.05 52.03 51.47 52.29 52.12C52.93 53.68 53.26 55.57 53.8 57.18C56.93 66.42 64.89 75.49 73.31 80.32C77.01 82.44 82.2899 84.9 86.5899 85.14C87.7999 85.21 89.5399 85.06 87.9599 83.65C87.0499 82.84 85.7399 82.08 84.7399 81.29C79.8399 77.37 77.4299 74.09 74.8599 68.36C72.5699 63.26 71.9199 59.57 66.3199 57.06C65.2399 56.58 63.6399 56.23 62.6999 55.73C61.6899 55.2 62.1 53.82 63.04 53.76C63.6 53.73 65.8099 54.56 66.4499 54.83C69.1599 55.94 71.52 57.5399 73.15 59.9699C73.68 60.7599 74.33 61.85 74.76 62.7C75.03 63.23 75.27 63.76 75.5 64.31C75.87 65.18 76.24 66.0499 76.6199 66.91C76.7899 67.2899 76.9399 67.65 77.1199 68.03C77.16 68.11 77.1399 68.32 77.2199 68.49C77.4699 69.02 78.1299 70.55 78.6099 70.76V70.88C78.7399 71.27 78.9099 71.63 79.1099 72C79.6099 72.94 80.37 74.01 81.04 74.84C81.29 75.15 81.63 75.73 82 75.71C98.42 72.13 113.46 63.7 121.9 48.77C122.4 47.89 122.99 46.93 123.24 45.96V45.97ZM52.31 59.48C52.21 58.82 51.25 55.64 50.8699 55.4C50.7099 55.3 48.5699 54.98 48.0699 54.86C44.4799 53.96 40.6699 52.19 37.6899 49.99C33.6199 46.99 30.71 42.87 25.75 41.1C18.64 38.57 10.5999 38.39 3.86995 34.71C3.54995 34.53 2.97997 34.04 2.76997 33.95C2.52997 33.84 2.45991 34.38 2.45991 34.51C2.33991 38.27 8.97997 44.63 11.39 47.52C13.87 50.49 16.0799 53.72 18.7099 56.57C29.9699 68.82 46.32 75.89 62.92 76.83C63.52 76.86 64.1199 76.81 64.7199 76.83C63.3899 75.39 61.97 74.04 60.63 72.62C60.33 72.31 60.01 71.68 59.64 71.5C59.11 70.54 58.31 69.76 57.66 68.9C57.28 68.39 56.93 67.71 56.51 67.19C56.44 67.13 56.36 67.17 56.29 67.16C56.16 66.66 55.83 66.16 55.55 65.73C55.37 65.46 54.99 65.15 54.93 65.05C54.74 64.73 54.3499 64 54.1899 63.69C53.7299 62.78 53.2599 61.6599 52.8299 60.7199C52.6999 60.4299 52.7199 59.72 52.3299 59.48H52.31ZM42.51 74.98C45.07 79.61 48.5 84.42 53.3 86.94C53.94 87.28 56.01 88.5 56.26 87.28C56.4 86.59 55.21 84.73 54.9 83.98C54.3 82.57 53.8199 80.86 53.5899 79.34C53.5299 78.96 53.6499 78.22 53.4399 78.01C51.6099 77.56 49.7699 77.19 47.9499 76.68C46.1199 76.16 44.35 75.41 42.52 74.98H42.51Z" fill="#020203"/>
<path d="M73.14 59.9799C71.51 57.5499 69.15 55.9499 66.44 54.8399C65.8 54.5799 63.6001 53.7399 63.0301 53.7699C62.0901 53.8299 61.68 55.1999 62.69 55.7399C63.63 56.2399 65.2301 56.5899 66.3101 57.0699C71.9001 59.5699 72.55 63.2699 74.85 68.3699C77.43 74.0999 79.83 77.3799 84.73 81.2999C85.72 82.0899 87.03 82.8499 87.95 83.6599C89.54 85.0699 87.79 85.22 86.58 85.15C82.28 84.91 77.0001 82.45 73.3001 80.33C64.8801 75.5 56.9101 66.4299 53.7901 57.1899C53.2501 55.5799 52.9101 53.6899 52.2801 52.1299C52.0201 51.4799 51.8001 51.0599 51.0201 51.1799C49.8101 51.3599 50.28 53.2699 50.14 53.2799C46.4 52.2299 42.69 50.93 39.5 48.67C35.45 45.8 32.2101 41.4099 27.5401 39.5499C21.3201 37.0699 14.26 36.6799 7.88004 34.1599C6.14004 33.4699 3.55998 32.6599 3.81998 30.3499C4.00998 30.1699 6.26006 31.4899 6.65006 31.6799C9.85006 33.2299 12.92 34.2499 16.37 35.0999C20.61 36.1499 26.0001 36.7699 29.7801 38.9299C31.1301 39.6999 32.4501 41.06 33.6701 41.7299C34.9901 42.4599 36.22 41.3699 35.39 40.3799C34.99 39.8999 32.7101 38.3199 32.0601 37.8799C27.0701 34.5499 19.88 34.0599 14.14 32.3599C11.79 31.6699 9.64008 30.7799 7.42008 29.7799C7.32008 29.7399 7.06008 29.7499 7.17008 29.5399C7.30008 29.2799 8.63001 29.0599 8.98001 28.9999C12.44 28.3799 16.48 27.9999 20 27.6199C34.6 26.0399 45.6401 25.5299 59.8001 30.0999C67.8901 32.7099 75.7 36.8499 83.89 38.9899C89.9 40.5599 95.94 40.3499 101.77 38.1599C101.25 40.2099 101.06 41.4199 103.57 41.6299C107.55 41.9699 113.1 39.3399 116.03 36.7399C119.78 33.4099 123.14 25.7799 122.34 20.7599C122.16 19.6399 120.6 19.9999 120.39 21.0299C120.3 21.4799 120.39 21.9699 120.36 22.4299C120.22 22.4399 120.09 22.4299 119.96 22.3999C118.97 22.2199 116.35 21.0899 115.25 20.6599C110.75 18.8999 106.81 17.3199 104.12 13.0699C102.6 10.6699 101.98 7.90995 102.02 5.06995C102.27 4.81995 103.39 6.16993 103.63 6.36993C105.22 7.73993 106.88 8.76994 108.9 9.40994C113.16 10.7499 118.52 9.87995 121.22 14.2C121.7 14.98 121.97 16.5099 123.2 15.9999C123.75 15.7699 124.44 14.1599 124.86 13.5699C127.96 9.35995 134.25 9.46994 138.69 7.55994C140.46 6.79994 142.24 5.63994 143.69 4.37994C144.04 4.07994 144.35 3.53995 144.8 3.44995V5.61993C144.8 6.10993 144.42 7.38994 144.27 7.93994C143.04 12.4299 140.48 14.7999 136.66 17.1899C134.07 18.8099 129.25 20.5099 127.8 23.0799C126.28 25.7499 127.1 28.6099 126.96 31.5399C126.77 35.3399 125.18 42.7399 123.23 45.9799C120.08 51.2299 115.6 55.1499 110.09 57.7599C110.01 57.5399 109.7 57.7399 109.56 57.7899C100.01 61.6799 94.2 62.3699 83.86 61.5999C82.99 61.5399 81.89 61.2099 81.07 61.4799C78.4 61.1399 75.73 60.6999 73.13 59.9899L73.14 59.9799ZM63.1801 34.9699C61.5101 35.4599 65.48 37.6099 65.89 36.0599C66.15 35.0799 63.8201 34.7799 63.1801 34.9699ZM73.97 38.4599C72.64 38.4899 71.9301 39.1999 73.2801 40.0799C74.0601 40.5899 74.4901 40.5499 75.2801 40.6799C75.6701 40.7399 75.6901 41.0899 76.4001 40.7499C78.1201 39.9099 75.14 38.4499 73.97 38.4699V38.4599ZM45.1 39.5499C44.77 39.0299 43.1301 40.3399 42.64 40.4599C41.84 40.6699 41.2201 40.4599 40.5301 40.0899C39.8401 39.7199 38.5901 38.3199 37.9201 39.4599C37.5001 40.1699 38.0501 40.6499 38.5501 41.0799C39.8301 42.1899 41.7401 42.6299 43.3101 41.8699C43.9001 41.5899 45.57 40.2899 45.1 39.5499ZM67.9001 40.92C67.4901 41.04 67.2101 41.56 67.4101 41.9799C67.6601 42.52 69.76 42.8899 70.11 42.1299C70.58 41.0899 68.6301 40.71 67.9101 40.92H67.9001ZM85.76 41.5399C84.98 41.5999 84.3801 42.3499 85.0501 42.9399C85.5201 43.3499 87.7501 44.11 88.1501 43.45C88.8101 42.36 86.55 41.4799 85.76 41.5499V41.5399ZM78.8101 44.0199C78.4801 44.0799 78.08 44.3 78.09 44.67C78.09 45.66 81.23 46.8799 81.76 45.7199C82.25 44.6499 79.6401 43.8499 78.8101 44.0099V44.0199Z" fill="#004FAE"/>
<path d="M52.3101 59.48C51.7701 59.15 49.66 58.78 48.87 58.52C44.39 57.08 38.82 54.1 35.14 51.17C32.98 49.45 31.2101 47.34 29.1701 45.49C28.1901 45.08 28.07 45.98 28.69 46.59C31.9 49.71 34.86 52.68 38.69 55.07C42.88 57.69 47.91 59.97 52.82 60.72C53.26 61.67 53.7201 62.78 54.1801 63.69C45.7801 62.08 37.93 58.05 31.61 52.35C29.65 50.58 27.91 48.61 26.1 46.71C25.52 46.11 22.84 43.14 22.35 43.02C21.83 42.89 21.4501 43.17 21.6701 43.7C22.0101 44.52 24.5101 46.97 25.2901 47.77C30.2101 52.82 35.49 57.78 41.86 60.95C45.92 62.97 50.4101 64.53 54.9201 65.06C54.9801 65.16 55.3701 65.47 55.5401 65.74C55.8201 66.17 56.15 66.67 56.28 67.17C55.69 67.09 54.96 67.12 54.36 67.04C38.06 65.1 27.1701 53.83 17.5301 41.63C17.2101 41.35 16.6601 41.26 16.2801 41.5C16.0201 41.86 16.63 42.52 16.85 42.81C18.06 44.34 19.49 45.72 20.75 47.21C22.17 48.89 23.47 50.68 24.96 52.3C31.8 59.71 41.02 65.51 50.94 67.73C53.16 68.23 55.41 68.48 57.64 68.91C58.3 69.78 59.09 70.55 59.62 71.51C45.43 70.14 33.2201 64.03 23.5301 53.73C19.93 49.9 16.96 45.61 13.61 41.58C13.37 41.29 12.49 40.2 12.25 40.09C11.68 39.83 11.07 40.21 11.5 40.84C17.19 48.75 23.3701 56.55 31.4301 62.19C40.0601 68.23 50.07 71.79 60.61 72.63C61.95 74.05 63.37 75.41 64.7 76.84C64.1 76.82 63.5 76.87 62.9 76.84C46.3 75.9 29.95 68.82 18.69 56.58C16.07 53.73 13.86 50.5 11.37 47.53C8.95002 44.64 2.31996 38.27 2.43996 34.52C2.43996 34.39 2.51002 33.85 2.75002 33.96C2.95002 34.05 3.53 34.55 3.85 34.72C10.57 38.4 18.62 38.58 25.73 41.11C30.69 42.88 33.6101 46.99 37.6701 50C40.6501 52.2 44.4501 53.97 48.0501 54.87C48.5601 55 50.7 55.31 50.85 55.41C51.23 55.65 52.1801 58.82 52.2901 59.49L52.3101 59.48ZM62.1 75.1C54.23 74.21 46.47 72.36 39.32 68.92C27.21 63.11 17.4101 52.56 9.67006 41.79C9.04006 40.92 8.06006 38.96 7.42006 38.34C6.93007 37.87 6.14998 37.82 6.32998 38.68C6.50998 39.54 8.49001 42.25 9.11001 43.1C12.18 47.34 16.05 51.93 19.64 55.76C30.87 67.74 45.2801 74.48 61.8001 75.34C62.0601 75.35 62.16 75.41 62.11 75.09L62.1 75.1Z" fill="#FAF9F5"/>
<path d="M79.09 72L86.35 72.13C88.67 71.8 91.28 71.71 93.47 70.82C93.7 70.73 95.47 69.9 95.08 69.52C94.15 69.44 93.28 69.83 92.38 69.9799C91.48 70.1299 90.54 70.25 89.63 70.39C85.94 70.94 82.32 71.17 78.59 70.76C78.11 70.55 77.45 69.02 77.2 68.49C77.12 68.32 77.14 68.12 77.1 68.03C77.8 68.15 78.51 68.19 79.21 68.28C85.49 69.03 92.73 69.2799 98.8 67.4099C101.36 66.6199 104.91 65.07 106.97 63.37C107.08 63.28 107.62 62.84 107.48 62.7C104.04 64.35 100.57 66.06 96.84 67C92.87 68.01 88.81 68.14 84.73 67.9C82 67.74 79.3 67.2999 76.61 66.9099C76.23 66.0499 75.87 65.18 75.49 64.31C78.25 64.53 80.98 65.08 83.74 65.3C92.25 65.98 99.69 65.24 107.41 61.44C108.51 60.9 112.24 58.7 112.76 57.74C113.17 56.97 111.73 57.74 111.5 57.84C108.31 59.38 105.58 61 102.16 62.2C98.47 63.49 94.67 64.23 90.75 64.31C90.09 64.32 89.43 64.31 88.77 64.31H85.05C84.99 64.31 84.8301 64.21 84.6801 64.19C83.9501 64.09 82.96 64.11 82.2 64.07C82.16 64.07 82.12 64.07 82.08 64.07C81.59 63.88 80.9 63.86 80.34 63.82C80.3 63.82 80.26 63.82 80.22 63.82C80.08 63.59 79.7 63.73 79.48 63.7C79.44 63.7 79.4 63.7 79.36 63.7C79.26 63.69 78.98 63.6 78.74 63.58C78.7 63.58 78.66 63.58 78.62 63.58C77.62 63.23 76.53 63.23 75.52 62.96C75.32 62.91 75.05 62.7 74.78 62.71C74.34 61.86 73.7 60.78 73.17 59.9799C75.76 60.6899 78.44 61.1299 81.11 61.4699C83.2 61.7399 85.1901 61.9099 87.3101 61.9699C87.3601 61.9699 87.3901 61.9699 87.4301 61.9699C87.5501 61.9699 87.68 61.9699 87.8 61.9699C88.22 62.2199 88.89 62.07 89.41 62.09C96.61 62.42 103.63 60.82 110.12 57.75C115.63 55.14 120.11 51.22 123.26 45.97C123 46.94 122.41 47.9 121.92 48.78C113.48 63.7 98.44 72.1299 82.02 75.7199C81.64 75.7299 81.3001 75.1499 81.0601 74.8499C80.3901 74.0199 79.62 72.95 79.13 72.01L79.09 72Z" fill="#FAF9F5"/>
<path d="M42.51 74.98C44.34 75.41 46.1099 76.16 47.9399 76.68C49.7499 77.2 51.6001 77.56 53.4301 78.01C53.6501 78.22 53.53 78.96 53.58 79.34C53.81 80.86 54.29 82.57 54.89 83.98C55.21 84.73 56.4 86.59 56.25 87.28C56 88.5 53.93 87.28 53.29 86.94C48.5 84.41 45.07 79.61 42.5 74.98H42.51Z" fill="#00417A"/>
<path d="M59.62 71.5101C59.99 71.6801 60.31 72.3101 60.61 72.6301C50.07 71.8001 40.07 68.2301 31.43 62.1901C23.37 56.5501 17.19 48.7501 11.5 40.8401C11.07 40.2001 11.68 39.8301 12.25 40.0901C12.49 40.2001 13.37 41.2901 13.61 41.5801C16.96 45.6001 19.93 49.9001 23.53 53.7301C33.22 64.0401 45.43 70.1401 59.62 71.5101Z" fill="#9ACDFF"/>
<path d="M56.28 67.1699C56.35 67.1699 56.43 67.1399 56.5 67.1999C56.91 67.7099 57.26 68.3999 57.65 68.9099C55.42 68.4799 53.17 68.2299 50.95 67.7299C41.04 65.5099 31.81 59.7099 24.97 52.2999C23.48 50.6799 22.18 48.8899 20.76 47.2099C19.5 45.7199 18.06 44.3399 16.86 42.8099C16.63 42.5199 16.03 41.8599 16.29 41.4999C16.67 41.2599 17.22 41.3499 17.54 41.6299C27.18 53.8299 38.07 65.0999 54.37 67.0399C54.97 67.1099 55.7001 67.0899 56.2901 67.1699H56.28Z" fill="#9ACDFF"/>
<path d="M54.17 63.6999C54.33 64.0199 54.72 64.7499 54.91 65.0599C50.4 64.5299 45.8999 62.9699 41.8499 60.9499C35.4799 57.7799 30.2 52.8199 25.28 47.7699C24.5 46.9699 21.99 44.5199 21.66 43.6999C21.44 43.1699 21.8099 42.8899 22.3399 43.0199C22.8299 43.1399 25.5199 46.1099 26.0899 46.7099C27.9099 48.6099 29.6399 50.5799 31.5999 52.3499C37.9199 58.0499 45.77 62.0799 54.17 63.6899V63.6999Z" fill="#9ACDFF"/>
<path d="M102.16 62.21C105.58 61.01 108.31 59.38 111.5 57.85C111.73 57.74 113.18 56.98 112.76 57.75C112.24 58.71 108.51 60.91 107.41 61.45C99.69 65.25 92.26 65.99 83.74 65.31C80.98 65.09 78.25 64.54 75.49 64.32C75.25 63.77 75.02 63.24 74.75 62.71C75.02 62.71 75.29 62.9 75.49 62.96L75.42 63.09C76.47 63.29 77.52 63.45 78.59 63.58C78.63 63.58 78.67 63.58 78.71 63.58C78.82 63.78 79.13 63.7 79.33 63.7C79.37 63.7 79.41 63.7 79.45 63.7C79.59 63.91 79.9599 63.82 80.1899 63.82C80.2299 63.82 80.2701 63.82 80.3101 63.82C80.8201 64.17 81.47 64.03 82.05 64.07C82.09 64.07 82.13 64.07 82.17 64.07C82.91 64.28 83.9 64.48 84.65 64.19C84.8 64.21 84.96 64.31 85.02 64.31C86.06 64.38 87.23 64.52 88.3 64.56C88.94 64.58 89.59 64.53 90.23 64.56L88.74 64.31C89.4 64.31 90.06 64.32 90.72 64.31C90.67 64.74 90.8499 64.48 91.0699 64.47C94.9799 64.22 98.53 63.75 102.23 62.36L102.14 62.21H102.16Z" fill="#9ACDFF"/>
<path d="M52.31 59.4799C52.69 59.7199 52.67 60.4298 52.81 60.7198C47.91 59.9598 42.87 57.6899 38.68 55.0699C34.85 52.6799 31.9 49.7099 28.68 46.5899C28.06 45.9799 28.19 45.0699 29.16 45.4899C31.2 47.3399 32.98 49.4599 35.13 51.1699C38.81 54.0999 44.38 57.0799 48.86 58.5199C49.65 58.7799 51.76 59.1399 52.3 59.4799H52.31Z" fill="#9ACDFF"/>
<path d="M98.8101 67.4199L94.27 68.27C89.41 68.89 84.74 68.56 79.91 68.15C79.71 68.13 79.35 68.09 79.22 68.28C78.52 68.2 77.81 68.15 77.11 68.03C76.93 67.65 76.78 67.2899 76.61 66.9099C79.3 67.2999 82 67.74 84.73 67.9C88.81 68.14 92.87 67.9999 96.84 66.9999C100.56 66.0599 104.04 64.34 107.48 62.7C107.62 62.84 107.08 63.2799 106.97 63.3699C104.9 65.0699 101.35 66.6199 98.8 67.4099L98.8101 67.4199Z" fill="#9ACDFF"/>
<path d="M89.63 70.39C90.55 70.25 91.47 70.1399 92.38 69.9799C93.29 69.8199 94.15 69.44 95.08 69.52C95.47 69.89 93.7 70.73 93.47 70.82C91.28 71.71 88.67 71.79 86.35 72.13L79.09 71.9999C78.9 71.6399 78.73 71.27 78.59 70.88C82.07 71.32 85.75 71.26 89.2 70.64C89.43 70.6 89.7 70.78 89.62 70.39H89.63Z" fill="#9ACDFF"/>
<path d="M89.63 70.3899C89.7 70.7799 89.44 70.5999 89.21 70.6399C85.76 71.2599 82.08 71.3299 78.6 70.8799V70.7599C82.33 71.1699 85.95 70.9399 89.64 70.3899H89.63Z" fill="#9ACDFF"/>
<path d="M45.0999 39.5498C45.5699 40.2898 43.89 41.5898 43.31 41.8698C41.74 42.6298 39.83 42.1898 38.55 41.0798C38.05 40.6498 37.51 40.1698 37.92 39.4598C38.59 38.3198 39.85 39.7298 40.53 40.0898C41.21 40.4498 41.84 40.6698 42.64 40.4598C43.12 40.3298 44.7699 39.0298 45.0999 39.5498Z" fill="#020203"/>
<path d="M73.97 38.4599C75.14 38.4299 78.12 39.8999 76.4 40.7399C75.69 41.0899 75.67 40.74 75.28 40.67C74.48 40.54 74.06 40.5899 73.28 40.0699C71.94 39.1899 72.65 38.48 73.97 38.45V38.4599Z" fill="#002F62"/>
<path d="M110.09 57.7501C103.6 60.8201 96.58 62.4201 89.38 62.0901C88.97 61.8601 88.28 61.97 87.77 61.97C87.65 61.97 87.52 61.97 87.4 61.97H87.28C85.16 61.92 83.17 61.74 81.08 61.47C81.91 61.2 83 61.5301 83.87 61.5901C94.2 62.3601 100.02 61.6701 109.57 57.7801C109.7 57.7301 110.02 57.5301 110.1 57.7501H110.09Z" fill="#06366C"/>
<path d="M78.8101 44.0199C79.6401 43.8599 82.25 44.6499 81.76 45.7299C81.23 46.8899 78.09 45.6699 78.09 44.6799C78.09 44.3099 78.4901 44.0899 78.8101 44.0299V44.0199Z" fill="#002F62"/>
<path d="M85.76 41.54C86.55 41.48 88.81 42.35 88.15 43.44C87.75 44.1 85.5201 43.34 85.0501 42.93C84.3801 42.35 84.98 41.6 85.76 41.53V41.54Z" fill="#002F62"/>
<path d="M67.9001 40.9199C68.6201 40.7099 70.58 41.0899 70.1 42.1299C69.76 42.8899 67.6601 42.5199 67.4001 41.9799C67.2001 41.5599 67.4801 41.0399 67.8901 40.9199H67.9001Z" fill="#002F62"/>
<path d="M63.1801 34.97C63.8201 34.78 66.16 35.08 65.89 36.06C65.48 37.6 61.5101 35.46 63.1801 34.97Z" fill="#002F62"/>
<path d="M62.0999 75.1C62.1499 75.42 62.05 75.36 61.79 75.35C45.26 74.48 30.86 67.75 19.63 55.77C16.05 51.95 12.1699 47.36 9.09993 43.11C8.48993 42.26 6.4999 39.54 6.3199 38.69C6.1399 37.84 6.91999 37.88 7.40999 38.35C8.04999 38.96 9.03999 40.93 9.65999 41.8C17.41 52.57 27.2 63.12 39.31 68.93C46.46 72.36 54.2099 74.21 62.0899 75.11L62.0999 75.1Z" fill="#9ACDFF"/>
<path d="M98.8101 67.4199C92.7401 69.2899 85.5 69.0399 79.22 68.2899C79.34 68.0999 79.71 68.1399 79.91 68.1599C84.75 68.5599 89.42 68.89 94.27 68.28L98.8101 67.4299V67.4199Z" fill="#9ACDFF"/>
<path d="M102.16 62.21L102.25 62.3599C98.55 63.7599 95.01 64.2199 91.09 64.4699C90.88 64.4799 90.69 64.7399 90.74 64.3099C94.66 64.2299 98.46 63.5 102.15 62.2L102.16 62.21Z" fill="#002F62"/>
<path d="M88.76 64.3201L90.25 64.5701C89.61 64.5501 88.9599 64.6001 88.3199 64.5701C87.2499 64.5301 86.08 64.3901 85.04 64.3201H88.76Z" fill="#9ACDFF"/>
<path d="M84.67 64.2001C83.92 64.4901 82.9299 64.2901 82.1899 64.0801C82.9499 64.1201 83.94 64.1101 84.67 64.2001Z" fill="#002F62"/>
<path d="M82.0699 64.0701C81.4999 64.0401 80.84 64.1801 80.33 63.8201C80.88 63.8601 81.5799 63.8801 82.0699 64.0701Z" fill="#002F62"/>
<path d="M89.38 62.0899C88.86 62.0699 88.19 62.2099 87.77 61.9699C88.28 61.9699 88.97 61.8599 89.38 62.0899Z" fill="#00417A"/>
<path d="M75.5 62.96C76.51 63.23 77.6 63.23 78.6 63.58C77.53 63.45 76.4801 63.29 75.4301 63.09L75.5 62.96Z" fill="#002F62"/>
<path d="M80.21 63.82C79.98 63.82 79.6 63.91 79.47 63.7C79.7 63.73 80.07 63.6 80.21 63.82Z" fill="#002F62"/>
<path d="M79.34 63.7001C79.14 63.7001 78.83 63.7801 78.72 63.5801C78.96 63.6101 79.24 63.6901 79.34 63.7001Z" fill="#002F62"/>
</svg>
