<svg width="17" height="15" viewBox="0 0 17 15" fill="none" xmlns="http://www.w3.org/2000/svg">
<path d="M13.9775 5.3625H7.46532L9.25716 3.60285C9.66334 3.20506 9.88777 2.67426 9.88777 2.11036C9.88777 1.54645 9.66334 1.01565 9.25716 0.617542C8.41889 -0.205847 7.0536 -0.205847 6.21484 0.617542L0.752195 5.98077C0.345196 6.37823 0.121094 6.90856 0.121094 7.47422V7.52298C0.121094 8.08705 0.343893 8.61657 0.748775 9.01388L6.21419 14.3792C6.62021 14.7792 7.16076 15 7.73665 15C8.31173 15 8.8526 14.7792 9.25553 14.3827C9.66269 13.9836 9.88793 13.4531 9.88793 12.8883C9.88793 12.3244 9.66416 11.7945 9.25732 11.3944L7.46678 9.63566H13.9776C15.1595 9.63566 16.1211 8.67733 16.1211 7.49868C16.1209 6.32099 15.1594 5.3625 13.9775 5.3625Z" fill="white"/>
</svg>
