<svg width="26" height="29" viewBox="0 0 26 29" fill="none" xmlns="http://www.w3.org/2000/svg">
<path d="M3.43522 12.7684C4.74092 6.27005 9.78461 1.80252 14.7008 2.78989H14.7018L18.3971 3.53208C23.313 4.51895 26.2497 10.5878 24.944 17.0858C23.6381 23.5838 18.5942 28.0525 13.6784 27.0643L10.0485 26.3377C10.0235 26.333 9.9983 26.3291 9.9733 26.3241C5.05685 25.3363 2.12957 19.2671 3.43522 12.7684Z" fill="#F95610"/>
<path d="M18.314 3.47437L14.6185 2.73242L14.4049 3.79051C10.96 5.02376 8.00366 8.69788 7.0481 13.4529C6.09255 18.2079 7.40554 22.7336 10.1042 25.2058L9.89198 26.2653L13.5946 27.0072C18.5105 27.9955 23.5546 23.5268 24.8605 17.0287C26.1663 10.5307 23.2299 4.46125 18.314 3.47437Z" fill="#F95610"/>
<path d="M14.2853 23.5368L10.5898 22.7877L10.802 21.7296C8.438 19.5636 7.13924 15.824 7.49384 11.734C7.31286 12.2981 7.16404 12.8719 7.0481 13.4529C6.09255 18.2093 7.40554 22.7336 10.1042 25.2058L9.89198 26.2653L13.5946 27.0072C18.5105 27.9955 23.5546 23.5268 24.8604 17.0287C24.9738 16.4497 25.0556 15.865 25.1054 15.2771C23.3296 20.8168 18.7554 24.4282 14.2853 23.5368Z" fill="#E74500"/>
<path d="M21.1561 16.2885C22.4617 9.7898 19.5346 3.72081 14.6181 2.73305C9.70167 1.74529 4.65766 6.21281 3.35201 12.7115C2.04636 19.2103 4.97349 25.2793 9.88994 26.267C14.8064 27.2548 19.8504 22.7873 21.1561 16.2885Z" fill="#FBCB2F"/>
<path d="M21.1561 16.2885C22.4617 9.7898 19.5346 3.72081 14.6181 2.73305C9.70167 1.74529 4.65766 6.21281 3.35201 12.7115C2.04636 19.2103 4.97349 25.2793 9.88994 26.267C14.8064 27.2548 19.8504 22.7873 21.1561 16.2885Z" fill="url(#paint0_linear_2160_2734)" fill-opacity="0.8"/>
<path d="M18.696 15.7942C19.6409 11.0913 17.5227 6.69942 13.9649 5.98463C10.4071 5.26983 6.75696 8.5028 5.81212 13.2057C4.86727 17.9085 6.98548 22.3004 10.5433 23.0152C14.1011 23.73 17.7512 20.497 18.696 15.7942Z" fill="#FF7A00"/>
<path d="M12.1634 20.74C8.57472 20.0194 6.08971 16.7013 5.89746 12.8164C5.86708 12.9446 5.83859 13.0742 5.81201 13.2052C4.86785 17.9046 6.98687 22.2993 10.5442 23.0142C12.8341 23.4742 15.1611 22.3022 16.7817 20.1476C15.347 20.8397 13.7264 21.0476 12.1634 20.74Z" fill="#F95610"/>
<defs>
<linearGradient id="paint0_linear_2160_2734" x1="14.111" y1="13.8001" x2="5.71136" y2="8.4336" gradientUnits="userSpaceOnUse">
<stop offset="0.326923" stop-color="white" stop-opacity="0"/>
<stop offset="1" stop-color="white"/>
</linearGradient>
</defs>
</svg>
